<svg id="Layer_1" data-name="Layer 1" xmlns="http://www.w3.org/2000/svg" xmlns:xlink="http://www.w3.org/1999/xlink" viewBox="0 0 518.56 397.36"><defs><style>.cls-1{fill:#092138;opacity:0.2;}.cls-2{fill:#4F81BD;}.cls-3{fill:#fff;}.cls-4{fill:url(#Áåçûìÿííûé_ãðàäèåíò_24);}.cls-5{fill:#173d7a;}.cls-6{fill:url(#Áåçûìÿííûé_ãðàäèåíò_24-2);}.cls-7{fill:url(#Áåçûìÿííûé_ãðàäèåíò_3);}.cls-8{fill:#d4ecff;}.cls-9{fill:#a66039;}.cls-10{fill:#f7caaf;}.cls-11{fill:#092e63;opacity:0.5;}.cls-12{fill:url(#Áåçûìÿííûé_ãðàäèåíò_3-2);}.cls-13{fill:url(#Áåçûìÿííûé_ãðàäèåíò_24-3);}.cls-14{fill:#c06b39;}.cls-15{fill:#db723e;}</style><linearGradient id="Áåçûìÿííûé_ãðàäèåíò_24" x1="107.25" y1="342.26" x2="572.4" y2="342.26" gradientUnits="userSpaceOnUse"><stop offset="0" stop-color="#5761d7"/><stop offset="0.18" stop-color="#5c66d9"/><stop offset="0.39" stop-color="#6a73df"/><stop offset="0.61" stop-color="#8289e8"/><stop offset="0.85" stop-color="#a3a7f5"/><stop offset="1" stop-color="#bcbeff"/></linearGradient><linearGradient id="Áåçûìÿííûé_ãðàäèåíò_24-2" x1="266.21" y1="342.24" x2="572.4" y2="342.24" xlink:href="#Áåçûìÿííûé_ãðàäèåíò_24"/><linearGradient id="Áåçûìÿííûé_ãðàäèåíò_3" x1="107.3" y1="322.5" x2="572.4" y2="322.5" gradientUnits="userSpaceOnUse"><stop offset="0" stop-color="#c0bff6"/><stop offset="0.29" stop-color="#c5c4f7"/><stop offset="0.64" stop-color="#d3d2f9"/><stop offset="1" stop-color="#e9e9fd"/></linearGradient><linearGradient id="Áåçûìÿííûé_ãðàäèåíò_3-2" x1="246.23" y1="318.7" x2="421.77" y2="318.7" xlink:href="#Áåçûìÿííûé_ãðàäèåíò_3"/><linearGradient id="Áåçûìÿííûé_ãðàäèåíò_24-3" x1="320.41" y1="343.94" x2="421.77" y2="343.94" xlink:href="#Áåçûìÿííûé_ãðàäèåíò_24"/></defs><ellipse class="cls-1" cx="171.77" cy="76.75" rx="33.94" ry="17.87"/><path class="cls-2" d="M278.31,232.49v-9.88h-2A23.86,23.86,0,0,0,267,214.7c-15.07-7.94-39.52-7.94-54.6,0a23.89,23.89,0,0,0-9.26,7.91h-2v9.83h0c0,5.22,3.74,10.45,11.3,14.43,15.08,7.94,39.53,7.94,54.6,0C274.54,242.9,278.31,237.7,278.31,232.49Z" transform="translate(-67.93 -171.03)"/><path class="cls-2" d="M267,237c-15.07,8-39.52,8-54.6,0s-15.07-20.81,0-28.75,39.53-7.94,54.6,0S282.08,229,267,237Z" transform="translate(-67.93 -171.03)"/><path class="cls-3" d="M267,237c-15.07,8-39.52,8-54.6,0-7.22-3.8-10.94-8.74-11.25-13.73-.32,5.42,3.4,10.89,11.25,15,15.08,7.94,39.53,7.94,54.6,0,7.86-4.14,11.58-9.61,11.25-15C278,228.24,274.23,233.18,267,237Z" transform="translate(-67.93 -171.03)"/><path class="cls-3" d="M221.1,229.34a1.6,1.6,0,0,1-1-1.3l0-13.25c0-1,1.56-1.83,3.48-1.83s3.47.83,3.47,1.84l0,11,35-3.9c1.88-.21,3.73.42,4.12,1.41s-.8,2-2.67,2.17l-39.16,4.37a5.92,5.92,0,0,1-2.91-.37Z" transform="translate(-67.93 -171.03)"/><ellipse class="cls-1" cx="466.83" cy="255.08" rx="33.94" ry="17.87"/><path class="cls-2" d="M573.37,410.82v-9.89h-2a23.65,23.65,0,0,0-9.26-7.9c-15.08-7.95-39.52-7.95-54.6,0a23.8,23.8,0,0,0-9.26,7.9h-2v9.83h0c0,5.23,3.74,10.45,11.3,14.44,15.08,7.94,39.53,7.94,54.6,0C569.6,421.23,573.37,416,573.37,410.82Z" transform="translate(-67.93 -171.03)"/><path class="cls-2" d="M562.06,415.31c-15.07,7.94-39.52,7.94-54.6,0s-15.08-20.82,0-28.76,39.52-7.94,54.6,0S577.14,407.37,562.06,415.31Z" transform="translate(-67.93 -171.03)"/><path class="cls-3" d="M562.06,415.31c-15.07,7.94-39.52,7.94-54.6,0-7.22-3.81-10.95-8.75-11.25-13.74-.32,5.42,3.4,10.9,11.25,15,15.08,7.94,39.53,7.94,54.6,0,7.85-4.13,11.58-9.61,11.25-15C573,406.56,569.29,411.5,562.06,415.31Z" transform="translate(-67.93 -171.03)"/><path class="cls-3" d="M516.15,407.66a1.57,1.57,0,0,1-1-1.3l0-13.25c0-1,1.56-1.82,3.48-1.82s3.46.82,3.46,1.83l0,11L557,400.2c1.88-.21,3.72.43,4.12,1.41s-.8,2-2.68,2.17l-39.15,4.38a6,6,0,0,1-2.91-.37Z" transform="translate(-67.93 -171.03)"/><path class="cls-1" d="M555.56,326.35,425.44,251c-7.07-4.1-19.43-3.6-27.61,1.1L124.74,409.27c-8.17,4.7-9.07,11.84-2,15.93l130.12,75.35c7.07,4.1,19.43,3.6,27.6-1.1l273.1-157.17C561.73,337.58,562.63,330.44,555.56,326.35Z" transform="translate(-67.93 -171.03)"/><path class="cls-4" d="M249.07,472.64,113.65,394.22c-4.45-2.57-6.52-6.05-6.37-9.66h0l0-19.65,7.53,8.82c.49-.32,1-.64,1.52-.95l277-159.43c11-6.33,27.62-7,37.13-1.49L564,289.19c2.7-3,8.37-9.21,8.37-9.21l-.06,19.22h0c.2,4.34-2.88,8.95-9.09,12.52l-277,159.44C275.21,477.49,258.58,478.15,249.07,472.64Z" transform="translate(-67.93 -171.03)"/><path class="cls-5" d="M175.85,424.53l7.8,4.51c1,.59,1.87,0,1.87-1.42h0a4.49,4.49,0,0,0-1.87-3.58l-7.8-4.51c-1-.6-1.88,0-1.88,1.42h0A4.47,4.47,0,0,0,175.85,424.53Z" transform="translate(-67.93 -171.03)"/><path class="cls-6" d="M393.38,213.36c11-6.33,27.62-7,37.13-1.49L564,289.19c2.7-3,8.37-9.21,8.37-9.21l-.06,19.22h0c.2,4.34-2.88,8.95-9.09,12.52l-277,159.44a42.94,42.94,0,0,1-20,5.19l.27-190Z" transform="translate(-67.93 -171.03)"/><path class="cls-7" d="M566,270.53,430.57,192.11c-9.51-5.5-26.14-4.84-37.13,1.49L116.41,353c-11,6.33-12.21,15.93-2.7,21.44l135.42,78.42c9.51,5.51,26.14,4.84,37.13-1.49L563.29,292C574.29,285.64,575.5,276,566,270.53Z" transform="translate(-67.93 -171.03)"/><path class="cls-3" d="M249,455,113.61,376.56c-4.91-2.84-6.94-6.77-6.27-10.77.24,3.25,2.33,6.33,6.37,8.68l135.42,78.42c9.51,5.51,26.14,4.84,37.13-1.49L563.29,292c5.33-3.07,8.34-6.9,9-10.66.32,4.4-2.75,9.12-9.07,12.76l-277,159.43C275.16,459.83,258.54,460.49,249,455Z" transform="translate(-67.93 -171.03)"/><path class="cls-5" d="M555.56,273.63,425.44,198.27c-7.07-4.09-19.43-3.6-27.61,1.11L124.74,356.54c-8.17,4.71-9.07,11.84-2,15.94l130.12,75.35c7.07,4.09,19.43,3.6,27.6-1.11l273.1-157.16C561.73,284.85,562.63,277.72,555.56,273.63Z" transform="translate(-67.93 -171.03)"/><polygon class="cls-3" points="217.71 237.66 125.88 184.65 131.74 181.27 223.57 234.28 217.71 237.66"/><polygon class="cls-3" points="153.82 222.21 107.32 195.37 113.19 191.98 159.68 218.82 153.82 222.21"/><polygon class="cls-2" points="176.38 235.24 161.3 226.53 167.16 223.15 182.24 231.85 176.38 235.24"/><polygon class="cls-3" points="199.15 248.38 184.07 239.67 189.93 236.29 205.01 245 199.15 248.38"/><polygon class="cls-3" points="154.34 211.79 116.6 190.01 122.46 186.62 160.2 208.41 154.34 211.79"/><polygon class="cls-3" points="200.4 238.39 162.66 216.6 168.53 213.22 206.26 235 200.4 238.39"/><path class="cls-2" d="M240.4,362.85a7.56,7.56,0,0,1-6.84,0c-1.89-1.09-1.89-2.86,0-4a7.56,7.56,0,0,1,6.84,0C242.28,360,242.28,361.76,240.4,362.85Z" transform="translate(-67.93 -171.03)"/><path class="cls-3" d="M250.61,368.74a7.56,7.56,0,0,1-6.84,0c-1.88-1.09-1.88-2.85,0-3.94a7.56,7.56,0,0,1,6.84,0C252.5,365.89,252.5,367.65,250.61,368.74Z" transform="translate(-67.93 -171.03)"/><path class="cls-8" d="M260.83,374.64a7.56,7.56,0,0,1-6.84,0c-1.89-1.09-1.89-2.85,0-3.95a7.53,7.53,0,0,1,6.84,0C262.72,371.79,262.72,373.55,260.83,374.64Z" transform="translate(-67.93 -171.03)"/><path class="cls-2" d="M271.05,380.54a7.56,7.56,0,0,1-6.84,0c-1.89-1.09-1.89-2.86,0-4a7.56,7.56,0,0,1,6.84,0C272.93,377.68,272.93,379.45,271.05,380.54Z" transform="translate(-67.93 -171.03)"/><path class="cls-3" d="M281.26,386.44a7.54,7.54,0,0,1-6.83,0c-1.89-1.09-1.89-2.86,0-3.95a7.54,7.54,0,0,1,6.83,0C283.15,383.58,283.15,385.35,281.26,386.44Z" transform="translate(-67.93 -171.03)"/><polygon class="cls-2" points="418.69 103.18 403.24 94.25 409.24 90.78 424.7 99.71 418.69 103.18"/><polygon class="cls-3" points="440.22 115.61 424.76 106.68 430.77 103.21 446.23 112.14 440.22 115.61"/><polygon class="cls-3" points="349.64 62.94 334.18 54.01 340.19 50.54 355.65 59.47 349.64 62.94"/><polygon class="cls-3" points="415.25 112.17 393.72 99.75 399.73 96.28 421.26 108.7 415.25 112.17"/><polygon class="cls-8" points="430.71 121.1 421.26 115.65 427.27 112.18 436.72 117.63 430.71 121.1"/><polygon class="cls-1" points="492.39 79.61 466.23 64.5 492.39 49.39 518.56 64.5 492.39 79.61"/><polygon class="cls-9" points="518.56 45.32 492.39 60.43 492.39 30.21 518.56 15.11 518.56 45.32"/><polygon class="cls-2" points="492.39 30.21 466.23 15.11 492.39 0 518.56 15.11 492.39 30.21"/><polygon class="cls-2" points="492.39 60.43 466.23 45.32 466.23 15.11 492.39 30.21 492.39 60.43"/><polygon class="cls-3" points="482.97 44.1 475.65 39.88 475.65 31.43 482.97 35.66 482.97 44.1"/><polygon class="cls-1" points="27.24 174.75 0 159.03 27.24 143.3 54.48 159.03 27.24 174.75"/><polygon class="cls-9" points="54.48 139.06 27.24 154.78 27.24 123.33 54.48 107.6 54.48 139.06"/><polygon class="cls-10" points="27.24 123.33 0 107.6 27.24 91.88 54.48 107.6 27.24 123.33"/><polygon class="cls-2" points="27.24 154.78 0 139.06 0 107.6 27.24 123.33 27.24 154.78"/><polygon class="cls-3" points="17.43 137.79 9.81 133.39 9.81 124.59 17.43 128.99 17.43 137.79"/><path class="cls-11" d="M317.26,337.93,272.2,363.86l55.89,32.28,64.79-37.41L354.4,336.44C344.89,330.93,328.26,331.6,317.26,337.93Z" transform="translate(-67.93 -171.03)"/><path class="cls-10" d="M403.9,316.82l-11.07-6.39,40.82-23.57c1.93-1.12,1.93-2.93,0-4L392,258.74a7.71,7.71,0,0,0-7,0l-40.83,23.57-11.07-6.39,40.83-23.58c8-4.63,21.1-4.63,29.14,0l41.71,24.08c8,4.64,8,12.19,0,16.83Z" transform="translate(-67.93 -171.03)"/><path class="cls-12" d="M421.77,319.63c0-5.92-3.6-12.79-8-15.36l-74-42.7c-2-1.15-3.81-1.23-5.21-.45h0l-88.32,51.32,85.4,64.36,87-50.5a4,4,0,0,0,.77-.45h0C420.87,324.75,421.77,322.59,421.77,319.63Z" transform="translate(-67.93 -171.03)"/><path class="cls-13" d="M331.63,376.8l87-50.5a4,4,0,0,0,.77-.45h0c1.45-1.1,2.35-3.26,2.35-6.22a19.73,19.73,0,0,0-2.17-8.55l-99.19,57.27Z" transform="translate(-67.93 -171.03)"/><path class="cls-5" d="M326.07,376.57l-74-42.7c-4.44-2.57-8-9.44-8-15.36h0c0-5.92,3.6-8.64,8-6.08l74,42.71c4.44,2.56,8,9.44,8,15.36h0C334.11,376.41,330.51,379.14,326.07,376.57Z" transform="translate(-67.93 -171.03)"/><path class="cls-3" d="M327,354.73,253,312c-2-1.17-3.9-1.23-5.32-.37a5.55,5.55,0,0,1,4.43.78l74,42.7c4.44,2.57,8,9.45,8,15.36h0c0,3.19-1.05,5.45-2.72,6.45,2.17-.66,3.61-3.12,3.61-6.86h0C335,364.17,331.4,357.29,327,354.73Z" transform="translate(-67.93 -171.03)"/><path class="cls-2" d="M315,362.17,306.1,357a3.82,3.82,0,0,1-1.6-3.06h0c0-1.18.71-1.72,1.6-1.21L315,357.9A3.83,3.83,0,0,1,316.6,361h0C316.6,362.14,315.88,362.68,315,362.17Z" transform="translate(-67.93 -171.03)"/><path class="cls-10" d="M325,301.45c2.69-1.59,2.66-4.11-.06-5.65a10.78,10.78,0,0,0-9.77.11c-2.68,1.58-2.66,4.11.06,5.64A10.81,10.81,0,0,0,325,301.45Z" transform="translate(-67.93 -171.03)"/><path class="cls-3" d="M339.92,309.84c2.68-1.59,2.65-4.11-.06-5.64a10.8,10.8,0,0,0-9.78.1c-2.68,1.59-2.65,4.11.06,5.64A10.8,10.8,0,0,0,339.92,309.84Z" transform="translate(-67.93 -171.03)"/><path class="cls-3" d="M354.81,318.23c2.69-1.58,2.66-4.11-.06-5.64a10.81,10.81,0,0,0-9.77.1c-2.68,1.59-2.66,4.12.06,5.65A10.78,10.78,0,0,0,354.81,318.23Z" transform="translate(-67.93 -171.03)"/><path class="cls-1" d="M371.1,567.17l-51-29.42c-3.12-1.8-2.73-5,.88-7l49.19-28.4c3.61-2.09,9.08-2.31,12.2-.51l50.95,29.42c3.13,1.8,2.73,4.95-.88,7l-49.19,28.4C379.69,568.75,374.23,569,371.1,567.17Z" transform="translate(-67.93 -171.03)"/><path class="cls-14" d="M435.46,517h0V499.42l-39.41,0-13.63-7.86c-3.12-1.81-8.59-1.58-12.2.5l-12.71,7.34-39.45,0v18.08a3.54,3.54,0,0,0,2.09,3.27l51,29.41c3.13,1.81,8.59,1.58,12.2-.5l49.19-28.41C434.58,520,435.58,518.44,435.46,517Z" transform="translate(-67.93 -171.03)"/><path class="cls-14" d="M376.76,490.32a14,14,0,0,0-6.54,1.71l-12.71,7.34-39.45,0v18.08a3.54,3.54,0,0,0,2.09,3.27l51,29.41a11,11,0,0,0,5.66,1.21Z" transform="translate(-67.93 -171.03)"/><path class="cls-15" d="M322.52,499.35h-4.46v18.08a3.54,3.54,0,0,0,2.09,3.27l2.37,1.37Z" transform="translate(-67.93 -171.03)"/><path class="cls-15" d="M371.89,550.5a13.89,13.89,0,0,0,9.75-.12V529.86h-9.75Z" transform="translate(-67.93 -171.03)"/><path class="cls-10" d="M371.1,532.1l-51-29.42c-3.12-1.8-2.73-4.95.88-7l49.19-28.4c3.61-2.09,9.08-2.31,12.2-.51l50.95,29.42c3.13,1.8,2.73,5-.88,7l-49.19,28.4C379.69,533.68,374.23,533.9,371.1,532.1Z" transform="translate(-67.93 -171.03)"/><path class="cls-3" d="M432.49,499.73l-49.19,28.4c-3.61,2.09-9.07,2.31-12.2.51l-51-29.42a4.74,4.74,0,0,1-1.56-1.38c-1.07,1.73-.58,3.6,1.56,4.84l51,29.42c3.13,1.8,8.59,1.58,12.2-.51l49.19-28.4c2.81-1.62,3.66-3.88,2.44-5.66A6.72,6.72,0,0,1,432.49,499.73Z" transform="translate(-67.93 -171.03)"/><path class="cls-8" d="M416.73,521.63a4.57,4.57,0,0,1-2.06,3.57c-1.14.65-2.06.12-2.06-1.19a4.53,4.53,0,0,1,2.06-3.56C415.8,519.79,416.73,520.32,416.73,521.63Z" transform="translate(-67.93 -171.03)"/><path class="cls-8" d="M423.35,517.81a4.56,4.56,0,0,1-2.06,3.57c-1.14.65-2.06.12-2.06-1.19a4.55,4.55,0,0,1,2.06-3.57C422.43,516,423.35,516.5,423.35,517.81Z" transform="translate(-67.93 -171.03)"/><path class="cls-8" d="M430,514a4.53,4.53,0,0,1-2.06,3.56c-1.14.66-2.06.13-2.06-1.19a4.54,4.54,0,0,1,2.06-3.56C429.05,512.14,430,512.68,430,514Z" transform="translate(-67.93 -171.03)"/><path class="cls-2" d="M374.11,513.86,350.27,500.1c-1.46-.85-1.28-2.32.41-3.3l23-13.29a6.38,6.38,0,0,1,5.71-.24L403.25,497c1.47.84,1.28,2.32-.41,3.29l-23,13.3A6.35,6.35,0,0,1,374.11,513.86Z" transform="translate(-67.93 -171.03)"/><path class="cls-8" d="M376.4,502.34l-3.3-1.91c-.2-.11-.18-.32,0-.45l3.19-1.84a.85.85,0,0,1,.79,0l3.3,1.9c.2.12.18.32-.06.46l-3.18,1.83A.89.89,0,0,1,376.4,502.34Z" transform="translate(-67.93 -171.03)"/><path class="cls-14" d="M350.27,500.1l.07,0a2.93,2.93,0,0,1,.34-.24l23-13.29a6.35,6.35,0,0,1,5.71-.24l23.78,13.73c1.34-1,1.41-2.28.06-3.06l-23.84-13.77a6.38,6.38,0,0,0-5.71.24l-23,13.29C349,497.78,348.81,499.25,350.27,500.1Z" transform="translate(-67.93 -171.03)"/></svg>