<svg xmlns="http://www.w3.org/2000/svg" xmlns:xlink="http://www.w3.org/1999/xlink" viewBox="0 0 548.33 410.3"><defs><style>.cls-1{fill:none;}.cls-2{isolation:isolate;}.cls-3{fill:url(#Áåçûìÿííûé_ãðàäèåíò_24);}.cls-4{fill:url(#Áåçûìÿííûé_ãðàäèåíò_24-2);}.cls-5{fill:url(#Áåçûìÿííûé_ãðàäèåíò_3);}.cls-6{fill:#fff;}.cls-7{fill:#173d7a;}.cls-8{mix-blend-mode:multiply;}.cls-9{clip-path:url(#clip-path);}.cls-10{fill:#feffff;}.cls-11{fill:#fefeff;}.cls-12{fill:#fdfefe;}.cls-13{fill:#fdfdfe;}.cls-14{fill:#fcfdfe;}.cls-15{fill:#fbfdfe;}.cls-16{fill:#fbfcfe;}.cls-17{fill:#fafcfe;}.cls-18{fill:#fafcfd;}.cls-19{fill:#f9fbfd;}.cls-20{fill:#f8fbfd;}.cls-21{fill:#f8fafd;}.cls-22{fill:#f7fafd;}.cls-23{fill:#f7fafc;}.cls-24{fill:#f6f9fc;}.cls-25{fill:#f5f9fc;}.cls-26{fill:#f5f8fc;}.cls-27{fill:#f4f8fc;}.cls-28{fill:#f3f7fb;}.cls-29{fill:#f2f7fb;}.cls-30{fill:#f2f6fb;}.cls-31{fill:#f1f6fb;}.cls-32{fill:#f0f5fb;}.cls-33{fill:#f0f5fa;}.cls-34{fill:#eff5fa;}.cls-35{fill:#eef4fa;}.cls-36{fill:#edf3f9;}.cls-37{fill:#ecf3f9;}.cls-38{fill:#ecf2f9;}.cls-39{fill:#ebf2f9;}.cls-40{fill:#eaf1f9;}.cls-41{fill:#e9f1f8;}.cls-42{fill:#e9f0f8;}.cls-43{fill:#e8f0f8;}.cls-44{fill:#e7eff8;}.cls-45{fill:#e6eff7;}.cls-46{fill:#e5eef7;}.cls-47{fill:#e4edf7;}.cls-48{fill:#e3edf6;}.cls-49{fill:#e2ecf6;}.cls-50{fill:#e1ebf6;}.cls-51{fill:#e0ebf6;}.cls-52{fill:#dfeaf5;}.cls-53{fill:#deeaf5;}.cls-54{fill:#dde9f5;}.cls-55{fill:#dce8f4;}.cls-56{fill:#dbe8f4;}.cls-57{fill:#dae7f4;}.cls-58{fill:#d9e6f3;}.cls-59{fill:#d8e6f3;}.cls-60{fill:#d7e5f3;}.cls-61{fill:#d6e4f2;}.cls-62{fill:#d5e4f2;}.cls-63{fill:#d4e3f2;}.cls-64{fill:#d3e2f1;}.cls-65{fill:#d2e1f1;}.cls-66{fill:#d0e1f1;}.cls-67{fill:#cfe0f0;}.cls-68{fill:#cedff0;}.cls-69{fill:#cddef0;}.cls-70{fill:#ccdeef;}.cls-71{fill:#cbddef;}.cls-72{fill:#c9dcef;}.cls-73{fill:#c8dbee;}.cls-74{fill:#c7daee;}.cls-75{fill:#c5d9ed;}.cls-76{fill:#c4d9ed;}.cls-77{fill:#c3d8ed;}.cls-78{fill:#c2d7ec;}.cls-79{fill:#c0d6ec;}.cls-80{fill:#bfd5eb;}.cls-81{fill:#bdd4eb;}.cls-82{fill:#bcd3ea;}.cls-83{fill:#bbd2ea;}.cls-84{fill:#b9d1ea;}.cls-85{fill:#b8d0e9;}.cls-86{fill:#b6d0e9;}.cls-87{fill:#b5cfe8;}.cls-88{fill:#b3cee8;}.cls-89{fill:#b2cde7;}.cls-90{fill:#b0cce7;}.cls-91{fill:#afcbe6;}.cls-92{fill:#adcae6;}.cls-93{fill:#acc9e5;}.cls-94{fill:#aac8e5;}.cls-95{fill:#a9c7e5;}.cls-96{fill:#a7c6e4;}.cls-97{fill:#a5c4e4;}.cls-98{fill:#a4c3e3;}.cls-99{fill:#a2c2e3;}.cls-100{fill:#a0c1e2;}.cls-101{fill:#9fc0e1;}.cls-102{fill:#9dbfe1;}.cls-103{fill:#9bbee0;}.cls-104{fill:#9abde0;}.cls-105{fill:#98bcdf;}.cls-106{fill:#96badf;}.cls-107{fill:#94b9de;}.cls-108{fill:#92b8de;}.cls-109{fill:#91b7dd;}.cls-110{fill:#8fb6dd;}.cls-111{fill:#8db5dc;}.cls-112{fill:#8bb3db;}.cls-113{fill:#89b2db;}.cls-114{fill:#87b1da;}.cls-115{fill:#85b0da;}.cls-116{fill:#84aed9;}.cls-117{fill:#82add9;}.cls-118{fill:#80acd8;}.cls-119{fill:#7eaad7;}.cls-120{fill:#7ca9d7;}.cls-121{fill:#7aa8d6;}.cls-122{fill:#78a7d5;}.cls-123{fill:#76a5d5;}.cls-124{fill:#74a4d4;}.cls-125{fill:#71a3d4;}.cls-126{fill:#6fa1d3;}.cls-127{fill:#6da0d2;}.cls-128{fill:#6b9ed2;}.cls-129{fill:#699dd1;}.cls-130{fill:url(#Áåçûìÿííûé_ãðàäèåíò_24-3);}.cls-131{fill:#d4ecff;}.cls-132{fill:url(#Áåçûìÿííûé_ãðàäèåíò_24-4);}.cls-133{fill:#4F81BD;}.cls-134{fill:#ffc2b0;}.cls-135{fill:#ea9c92;}.cls-136{fill:#947daa;}.cls-137{fill:#c06b39;}.cls-138{fill:#396caa;}.cls-139{fill:#5793ce;}.cls-140{fill:#9894af;}.cls-141{fill:url(#Áåçûìÿííûé_ãðàäèåíò_24-5);}.cls-142{fill:#a193b2;}.cls-143{fill:url(#Áåçûìÿííûé_ãðàäèåíò_24-6);}.cls-144{opacity:0.2;}.cls-145{fill:#d3008d;}.cls-146{fill:#ff2c9c;}.cls-147{fill:#f7caaf;}.cls-148{fill:#d5dae0;}.cls-149{fill:#a66039;}</style><linearGradient id="Áåçûìÿííûé_ãðàäèåíò_24" x1="134.95" y1="355.48" x2="593.01" y2="355.48" gradientUnits="userSpaceOnUse"><stop offset="0" stop-color="#5761d7"/><stop offset="0.18" stop-color="#5c66d9"/><stop offset="0.39" stop-color="#6a73df"/><stop offset="0.61" stop-color="#8289e8"/><stop offset="0.85" stop-color="#a3a7f5"/><stop offset="1" stop-color="#bcbeff"/></linearGradient><linearGradient id="Áåçûìÿííûé_ãðàäèåíò_24-2" x1="134.95" y1="355.47" x2="436.47" y2="355.47" xlink:href="#Áåçûìÿííûé_ãðàäèåíò_24"/><linearGradient id="Áåçûìÿííûé_ãðàäèåíò_3" x1="134.95" y1="336.03" x2="592.96" y2="336.03" gradientUnits="userSpaceOnUse"><stop offset="0" stop-color="#c0bff6"/><stop offset="0.29" stop-color="#c5c4f7"/><stop offset="0.64" stop-color="#d3d2f9"/><stop offset="1" stop-color="#e9e9fd"/></linearGradient><clipPath id="clip-path" transform="translate(-44.71 -147.39)"><ellipse class="cls-1" cx="327.34" cy="379.88" rx="98.27" ry="56.74" transform="translate(-138.45 194.14) rotate(-27.51)"/></clipPath><linearGradient id="Áåçûìÿííûé_ãðàäèåíò_24-3" x1="307.51" y1="455.76" x2="250.28" y2="555.77" xlink:href="#Áåçûìÿííûé_ãðàäèåíò_24"/><linearGradient id="Áåçûìÿííûé_ãðàäèåíò_24-4" x1="279.41" y1="439.68" x2="222.19" y2="539.69" xlink:href="#Áåçûìÿííûé_ãðàäèåíò_24"/><linearGradient id="Áåçûìÿííûé_ãðàäèåíò_24-5" x1="244.12" y1="346.12" x2="347.68" y2="346.12" xlink:href="#Áåçûìÿííûé_ãðàäèåíò_24"/><linearGradient id="Áåçûìÿííûé_ãðàäèåíò_24-6" x1="213.34" y1="314.94" x2="346.58" y2="364.94" xlink:href="#Áåçûìÿííûé_ãðàäèåíò_24"/></defs><g class="cls-2"><g id="Layer_1" data-name="Layer 1"><path class="cls-3" d="M453.35,483.88,586.7,406.65c4.38-2.53,6.43-5.95,6.28-9.51h0l0-19.35-7.42,8.68c-.48-.31-1-.63-1.49-.93l-272.81-157c-10.83-6.24-27.2-6.89-36.57-1.47L143.19,303.22c-2.66-2.91-8.24-9.06-8.24-9.06l.06,18.92h0c-.19,4.27,2.85,8.81,9,12.33l272.81,157C427.61,488.65,444,489.3,453.35,483.88Z" transform="translate(-44.71 -147.39)"/><path class="cls-4" d="M311.24,228.55c-10.83-6.24-27.2-6.89-36.57-1.47L143.19,303.22c-2.66-2.91-8.24-9.06-8.24-9.06l.06,18.92h0c-.19,4.27,2.85,8.81,9,12.33l272.81,157a42.14,42.14,0,0,0,19.69,5.11l-.26-187.06Z" transform="translate(-44.71 -147.39)"/><path class="cls-5" d="M141.26,284.85l133.36-77.22c9.36-5.43,25.73-4.77,36.56,1.46L584,366.09c10.83,6.24,12,15.69,2.66,21.11L453.29,464.43c-9.37,5.42-25.74,4.76-36.57-1.47L143.92,306C133.08,299.73,131.9,290.28,141.26,284.85Z" transform="translate(-44.71 -147.39)"/><path class="cls-6" d="M453.39,466.49l133.36-77.23c4.83-2.79,6.83-6.66,6.17-10.61-.24,3.21-2.29,6.24-6.27,8.55L453.29,464.43c-9.37,5.42-25.74,4.76-36.57-1.47L143.91,306c-5.24-3-8.2-6.79-8.82-10.5-.32,4.34,2.7,9,8.93,12.56l272.8,157C427.65,471.26,444,471.91,453.39,466.49Z" transform="translate(-44.71 -147.39)"/><path class="cls-7" d="M151.53,287.9l128.14-74.21c7-4,19.13-3.54,27.18,1.09L575.79,369.55c8.05,4.63,8.93,11.66,2,15.69l-128.14,74.2c-7,4-19.13,3.55-27.18-1.09L153.51,303.58C145.45,299,144.57,291.93,151.53,287.9Z" transform="translate(-44.71 -147.39)"/><g class="cls-8"><g class="cls-9"><rect class="cls-6" x="178.67" y="162.89" width="207.93" height="139.21"/><ellipse class="cls-6" cx="327.34" cy="379.88" rx="91.02" ry="49.35" transform="translate(-181.19 41.89) rotate(-26.91)"/><ellipse class="cls-6" cx="327.34" cy="379.88" rx="90.42" ry="49.03" transform="translate(-181.19 41.89) rotate(-26.91)"/><ellipse class="cls-6" cx="327.34" cy="379.88" rx="89.81" ry="48.7" transform="translate(-181.19 41.89) rotate(-26.91)"/><ellipse class="cls-6" cx="327.34" cy="379.88" rx="89.2" ry="48.37" transform="translate(-181.19 41.89) rotate(-26.91)"/><ellipse class="cls-6" cx="327.34" cy="379.88" rx="88.6" ry="48.04" transform="translate(-181.19 41.89) rotate(-26.91)"/><ellipse class="cls-6" cx="327.34" cy="379.88" rx="87.99" ry="47.71" transform="translate(-181.19 41.89) rotate(-26.91)"/><ellipse class="cls-6" cx="327.34" cy="379.88" rx="87.38" ry="47.38" transform="translate(-181.19 41.89) rotate(-26.91)"/><ellipse class="cls-6" cx="327.34" cy="379.88" rx="86.78" ry="47.05" transform="translate(-181.19 41.89) rotate(-26.91)"/><ellipse class="cls-6" cx="327.34" cy="379.88" rx="86.17" ry="46.72" transform="translate(-181.19 41.89) rotate(-26.91)"/><ellipse class="cls-6" cx="327.34" cy="379.88" rx="85.56" ry="46.39" transform="translate(-181.19 41.89) rotate(-26.91)"/><ellipse class="cls-6" cx="327.34" cy="379.88" rx="84.95" ry="46.06" transform="translate(-181.19 41.89) rotate(-26.91)"/><ellipse class="cls-10" cx="327.34" cy="379.88" rx="84.35" ry="45.74" transform="translate(-181.19 41.89) rotate(-26.91)"/><ellipse class="cls-10" cx="327.34" cy="379.88" rx="83.74" ry="45.41" transform="translate(-181.19 41.89) rotate(-26.91)"/><ellipse class="cls-11" cx="327.34" cy="379.88" rx="83.13" ry="45.08" transform="translate(-181.19 41.89) rotate(-26.91)"/><ellipse class="cls-11" cx="327.34" cy="379.88" rx="82.53" ry="44.75" transform="translate(-181.19 41.89) rotate(-26.91)"/><ellipse class="cls-11" cx="327.34" cy="379.88" rx="81.92" ry="44.42" transform="translate(-181.19 41.89) rotate(-26.91)"/><ellipse class="cls-11" cx="327.34" cy="379.88" rx="81.31" ry="44.09" transform="translate(-181.19 41.89) rotate(-26.91)"/><ellipse class="cls-11" cx="327.34" cy="379.88" rx="80.71" ry="43.76" transform="translate(-181.19 41.89) rotate(-26.91)"/><ellipse class="cls-12" cx="327.34" cy="379.88" rx="80.1" ry="43.43" transform="translate(-181.19 41.89) rotate(-26.91)"/><ellipse class="cls-12" cx="327.34" cy="379.88" rx="79.49" ry="43.1" transform="translate(-181.19 41.89) rotate(-26.91)"/><ellipse class="cls-12" cx="327.34" cy="379.88" rx="78.89" ry="42.77" transform="translate(-181.19 41.89) rotate(-26.91)"/><ellipse class="cls-13" cx="327.34" cy="379.88" rx="78.28" ry="42.44" transform="translate(-181.19 41.89) rotate(-26.91)"/><ellipse class="cls-14" cx="327.34" cy="379.88" rx="77.67" ry="42.12" transform="translate(-181.19 41.89) rotate(-26.91)"/><ellipse class="cls-14" cx="327.34" cy="379.88" rx="77.07" ry="41.79" transform="translate(-181.19 41.89) rotate(-26.91)"/><ellipse class="cls-14" cx="327.34" cy="379.88" rx="76.46" ry="41.46" transform="translate(-181.19 41.89) rotate(-26.91)"/><ellipse class="cls-14" cx="327.34" cy="379.88" rx="75.85" ry="41.13" transform="translate(-181.19 41.89) rotate(-26.91)"/><ellipse class="cls-15" cx="327.34" cy="379.88" rx="75.25" ry="40.8" transform="translate(-181.19 41.89) rotate(-26.91)"/><ellipse class="cls-16" cx="327.34" cy="379.88" rx="74.64" ry="40.47" transform="translate(-181.19 41.89) rotate(-26.91)"/><ellipse class="cls-16" cx="327.34" cy="379.88" rx="74.03" ry="40.14" transform="translate(-181.19 41.89) rotate(-26.91)"/><ellipse class="cls-17" cx="327.34" cy="379.88" rx="73.43" ry="39.81" transform="translate(-181.19 41.89) rotate(-26.91)"/><ellipse class="cls-18" cx="327.34" cy="379.88" rx="72.82" ry="39.48" transform="translate(-181.19 41.89) rotate(-26.91)"/><ellipse class="cls-18" cx="327.34" cy="379.88" rx="72.21" ry="39.15" transform="translate(-181.19 41.89) rotate(-26.91)"/><ellipse class="cls-19" cx="327.34" cy="379.88" rx="71.6" ry="38.83" transform="translate(-181.19 41.89) rotate(-26.91)"/><ellipse class="cls-19" cx="327.34" cy="379.88" rx="71" ry="38.5" transform="translate(-181.19 41.89) rotate(-26.91)"/><ellipse class="cls-19" cx="327.34" cy="379.88" rx="70.39" ry="38.17" transform="translate(-181.19 41.89) rotate(-26.91)"/><ellipse class="cls-20" cx="327.34" cy="379.88" rx="69.78" ry="37.84" transform="translate(-181.19 41.89) rotate(-26.91)"/><ellipse class="cls-21" cx="327.34" cy="379.88" rx="69.18" ry="37.51" transform="translate(-181.19 41.89) rotate(-26.91)"/><ellipse class="cls-22" cx="327.34" cy="379.88" rx="68.57" ry="37.18" transform="translate(-181.19 41.89) rotate(-26.91)"/><ellipse class="cls-23" cx="327.34" cy="379.88" rx="67.96" ry="36.85" transform="translate(-181.19 41.89) rotate(-26.91)"/><ellipse class="cls-24" cx="327.34" cy="379.88" rx="67.36" ry="36.52" transform="translate(-181.19 41.89) rotate(-26.91)"/><ellipse class="cls-24" cx="327.34" cy="379.88" rx="66.75" ry="36.19" transform="translate(-181.19 41.89) rotate(-26.91)"/><ellipse class="cls-25" cx="327.34" cy="379.88" rx="66.14" ry="35.86" transform="translate(-181.19 41.89) rotate(-26.91)"/><ellipse class="cls-26" cx="327.34" cy="379.88" rx="65.54" ry="35.54" transform="translate(-181.19 41.89) rotate(-26.91)"/><ellipse class="cls-27" cx="327.34" cy="379.88" rx="64.93" ry="35.21" transform="translate(-181.19 41.89) rotate(-26.91)"/><ellipse class="cls-27" cx="327.34" cy="379.88" rx="64.32" ry="34.88" transform="translate(-181.19 41.89) rotate(-26.91)"/><ellipse class="cls-28" cx="327.34" cy="379.88" rx="63.72" ry="34.55" transform="translate(-181.19 41.89) rotate(-26.91)"/><ellipse class="cls-28" cx="327.34" cy="379.88" rx="63.11" ry="34.22" transform="translate(-181.19 41.89) rotate(-26.91)"/><ellipse class="cls-29" cx="327.34" cy="379.88" rx="62.5" ry="33.89" transform="translate(-181.19 41.89) rotate(-26.91)"/><ellipse class="cls-30" cx="327.34" cy="379.88" rx="61.9" ry="33.56" transform="translate(-181.19 41.89) rotate(-26.91)"/><ellipse class="cls-31" cx="327.34" cy="379.88" rx="61.29" ry="33.23" transform="translate(-181.19 41.89) rotate(-26.91)"/><ellipse class="cls-32" cx="327.34" cy="379.88" rx="60.68" ry="32.9" transform="translate(-181.19 41.89) rotate(-26.91)"/><ellipse class="cls-33" cx="327.34" cy="379.88" rx="60.08" ry="32.57" transform="translate(-181.19 41.89) rotate(-26.91)"/><ellipse class="cls-34" cx="327.34" cy="379.88" rx="59.47" ry="32.25" transform="translate(-181.19 41.89) rotate(-26.91)"/><ellipse class="cls-35" cx="327.34" cy="379.88" rx="58.86" ry="31.92" transform="translate(-181.19 41.89) rotate(-26.91)"/><ellipse class="cls-35" cx="327.34" cy="379.88" rx="58.25" ry="31.59" transform="translate(-181.19 41.89) rotate(-26.91)"/><ellipse class="cls-36" cx="327.34" cy="379.88" rx="57.65" ry="31.26" transform="translate(-181.19 41.89) rotate(-26.91)"/><ellipse class="cls-37" cx="327.34" cy="379.88" rx="57.04" ry="30.93" transform="translate(-181.19 41.89) rotate(-26.91)"/><ellipse class="cls-38" cx="327.34" cy="379.88" rx="56.43" ry="30.6" transform="translate(-181.19 41.89) rotate(-26.91)"/><ellipse class="cls-39" cx="327.34" cy="379.88" rx="55.83" ry="30.27" transform="translate(-181.19 41.89) rotate(-26.91)"/><ellipse class="cls-40" cx="327.34" cy="379.88" rx="55.22" ry="29.94" transform="translate(-181.19 41.89) rotate(-26.91)"/><ellipse class="cls-41" cx="327.34" cy="379.88" rx="54.61" ry="29.61" transform="translate(-181.19 41.89) rotate(-26.91)"/><ellipse class="cls-42" cx="327.34" cy="379.88" rx="54.01" ry="29.28" transform="translate(-181.19 41.89) rotate(-26.91)"/><ellipse class="cls-43" cx="327.34" cy="379.88" rx="53.4" ry="28.95" transform="translate(-181.19 41.89) rotate(-26.91)"/><ellipse class="cls-44" cx="327.34" cy="379.88" rx="52.79" ry="28.63" transform="translate(-181.19 41.89) rotate(-26.91)"/><ellipse class="cls-45" cx="327.34" cy="379.88" rx="52.19" ry="28.3" transform="translate(-181.19 41.89) rotate(-26.91)"/><ellipse class="cls-46" cx="327.34" cy="379.88" rx="51.58" ry="27.97" transform="translate(-181.19 41.89) rotate(-26.91)"/><ellipse class="cls-46" cx="327.34" cy="379.88" rx="50.97" ry="27.64" transform="translate(-181.19 41.89) rotate(-26.91)"/><ellipse class="cls-47" cx="327.34" cy="379.88" rx="50.37" ry="27.31" transform="translate(-181.19 41.89) rotate(-26.91)"/><ellipse class="cls-48" cx="327.34" cy="379.88" rx="49.76" ry="26.98" transform="translate(-181.19 41.89) rotate(-26.91)"/><ellipse class="cls-49" cx="327.34" cy="379.88" rx="49.15" ry="26.65" transform="translate(-181.19 41.89) rotate(-26.91)"/><ellipse class="cls-50" cx="327.34" cy="379.88" rx="48.55" ry="26.32" transform="translate(-181.19 41.89) rotate(-26.91)"/><ellipse class="cls-51" cx="327.34" cy="379.88" rx="47.94" ry="25.99" transform="translate(-181.19 41.89) rotate(-26.91)"/><ellipse class="cls-52" cx="327.34" cy="379.88" rx="47.33" ry="25.66" transform="translate(-181.19 41.89) rotate(-26.91)"/><ellipse class="cls-53" cx="327.34" cy="379.88" rx="46.73" ry="25.34" transform="translate(-181.19 41.89) rotate(-26.91)"/><ellipse class="cls-54" cx="327.34" cy="379.88" rx="46.12" ry="25.01" transform="translate(-181.19 41.89) rotate(-26.91)"/><ellipse class="cls-55" cx="327.34" cy="379.88" rx="45.51" ry="24.68" transform="translate(-181.19 41.89) rotate(-26.91)"/><ellipse class="cls-56" cx="327.34" cy="379.88" rx="44.9" ry="24.35" transform="translate(-181.19 41.89) rotate(-26.91)"/><ellipse class="cls-57" cx="327.34" cy="379.88" rx="44.3" ry="24.02" transform="translate(-181.19 41.89) rotate(-26.91)"/><ellipse class="cls-58" cx="327.34" cy="379.88" rx="43.69" ry="23.69" transform="translate(-181.19 41.89) rotate(-26.91)"/><ellipse class="cls-59" cx="327.34" cy="379.88" rx="43.08" ry="23.36" transform="translate(-181.19 41.89) rotate(-26.91)"/><ellipse class="cls-60" cx="327.34" cy="379.88" rx="42.48" ry="23.03" transform="translate(-181.19 41.89) rotate(-26.91)"/><ellipse class="cls-61" cx="327.34" cy="379.88" rx="41.87" ry="22.7" transform="translate(-181.19 41.89) rotate(-26.91)"/><ellipse class="cls-62" cx="327.34" cy="379.88" rx="41.26" ry="22.37" transform="translate(-181.19 41.89) rotate(-26.91)"/><ellipse class="cls-63" cx="327.34" cy="379.88" rx="40.66" ry="22.05" transform="translate(-181.19 41.89) rotate(-26.91)"/><ellipse class="cls-64" cx="327.34" cy="379.88" rx="40.05" ry="21.72" transform="translate(-181.19 41.89) rotate(-26.91)"/><ellipse class="cls-65" cx="327.34" cy="379.88" rx="39.44" ry="21.39" transform="translate(-181.19 41.89) rotate(-26.91)"/><ellipse class="cls-66" cx="327.34" cy="379.88" rx="38.84" ry="21.06" transform="translate(-181.19 41.89) rotate(-26.91)"/><ellipse class="cls-67" cx="327.34" cy="379.88" rx="38.23" ry="20.73" transform="translate(-181.19 41.89) rotate(-26.91)"/><ellipse class="cls-68" cx="327.34" cy="379.88" rx="37.62" ry="20.4" transform="translate(-181.19 41.89) rotate(-26.91)"/><ellipse class="cls-69" cx="327.34" cy="379.88" rx="37.02" ry="20.07" transform="translate(-181.19 41.89) rotate(-26.91)"/><ellipse class="cls-70" cx="327.34" cy="379.88" rx="36.41" ry="19.74" transform="translate(-181.19 41.89) rotate(-26.91)"/><ellipse class="cls-71" cx="327.34" cy="379.88" rx="35.8" ry="19.41" transform="translate(-181.19 41.89) rotate(-26.91)"/><path class="cls-72" d="M358.73,364c4.77,9.4-5.42,24.15-22.75,32.95s-35.25,8.31-40-1.09,5.41-24.15,22.75-32.94S354,354.56,358.73,364Z" transform="translate(-44.71 -147.39)"/><ellipse class="cls-73" cx="327.34" cy="379.88" rx="34.59" ry="18.75" transform="translate(-181.19 41.89) rotate(-26.91)"/><ellipse class="cls-74" cx="327.34" cy="379.88" rx="33.98" ry="18.43" transform="translate(-181.19 41.89) rotate(-26.91)"/><path class="cls-75" d="M357.11,364.78c4.52,8.91-5.14,22.9-21.58,31.24s-33.42,7.88-37.95-1,5.14-22.9,21.57-31.24S352.58,355.87,357.11,364.78Z" transform="translate(-44.71 -147.39)"/><ellipse class="cls-76" cx="327.34" cy="379.88" rx="32.77" ry="17.77" transform="translate(-181.19 41.89) rotate(-26.91)"/><ellipse class="cls-77" cx="327.34" cy="379.88" rx="32.16" ry="17.44" transform="translate(-181.19 41.89) rotate(-26.91)"/><ellipse class="cls-78" cx="327.34" cy="379.88" rx="31.55" ry="17.11" transform="translate(-181.19 41.89) rotate(-26.91)"/><ellipse class="cls-79" cx="327.34" cy="379.88" rx="30.95" ry="16.78" transform="translate(-181.19 41.89) rotate(-26.91)"/><path class="cls-80" d="M354.4,366.15c4.11,8.1-4.67,20.82-19.61,28.4s-30.39,7.17-34.5-.94,4.67-20.81,19.61-28.4S350.29,358.05,354.4,366.15Z" transform="translate(-44.71 -147.39)"/><ellipse class="cls-81" cx="327.34" cy="379.88" rx="29.73" ry="16.12" transform="translate(-181.19 41.89) rotate(-26.91)"/><ellipse class="cls-82" cx="327.34" cy="379.88" rx="29.13" ry="15.79" transform="translate(-181.19 41.89) rotate(-26.91)"/><path class="cls-83" d="M352.78,367c3.86,7.61-4.39,19.56-18.44,26.69s-28.56,6.74-32.43-.88,4.39-19.57,18.44-26.7S348.91,359.36,352.78,367Z" transform="translate(-44.71 -147.39)"/><ellipse class="cls-84" cx="327.34" cy="379.88" rx="27.91" ry="15.14" transform="translate(-181.19 41.89) rotate(-26.91)"/><ellipse class="cls-85" cx="327.34" cy="379.88" rx="27.31" ry="14.81" transform="translate(-181.19 41.89) rotate(-26.91)"/><ellipse class="cls-86" cx="327.34" cy="379.88" rx="26.7" ry="14.48" transform="translate(-181.19 41.89) rotate(-26.91)"/><path class="cls-87" d="M350.61,368.07c3.54,7-4,17.91-16.86,24.43s-26.14,6.16-29.67-.81,4-17.9,16.86-24.42S347.08,361.11,350.61,368.07Z" transform="translate(-44.71 -147.39)"/><ellipse class="cls-88" cx="327.34" cy="379.88" rx="25.49" ry="13.82" transform="translate(-181.19 41.88) rotate(-26.91)"/><ellipse class="cls-89" cx="327.34" cy="379.88" rx="24.88" ry="13.49" transform="translate(-181.19 41.89) rotate(-26.91)"/><ellipse class="cls-90" cx="327.34" cy="379.88" rx="24.27" ry="13.16" transform="translate(-181.19 41.89) rotate(-26.91)"/><path class="cls-91" d="M348.45,369.17c3.21,6.32-3.64,16.24-15.3,22.16s-23.7,5.58-26.91-.74,3.64-16.23,15.3-22.15S345.24,362.85,348.45,369.17Z" transform="translate(-44.71 -147.39)"/><ellipse class="cls-92" cx="327.34" cy="379.88" rx="23.06" ry="12.5" transform="translate(-181.19 41.89) rotate(-26.91)"/><path class="cls-93" d="M347.37,369.72c3,6-3.46,15.41-14.52,21s-22.48,5.3-25.53-.7,3.46-15.4,14.51-21S344.32,363.73,347.37,369.72Z" transform="translate(-44.71 -147.39)"/><ellipse class="cls-94" cx="327.34" cy="379.88" rx="21.85" ry="11.85" transform="translate(-181.19 41.89) rotate(-26.91)"/><path class="cls-95" d="M346.28,370.27c2.88,5.67-3.26,14.57-13.72,19.88s-21.28,5-24.16-.66,3.27-14.57,13.73-19.88S343.4,364.6,346.28,370.27Z" transform="translate(-44.71 -147.39)"/><path class="cls-96" d="M345.74,370.55c2.8,5.51-3.17,14.15-13.33,19.31s-20.67,4.87-23.46-.64,3.17-14.16,13.33-19.31S343,365,345.74,370.55Z" transform="translate(-44.71 -147.39)"/><path class="cls-97" d="M345.2,370.82c2.71,5.35-3.08,13.74-12.94,18.75s-20.06,4.72-22.77-.62,3.08-13.74,12.94-18.75S342.49,365.47,345.2,370.82Z" transform="translate(-44.71 -147.39)"/><ellipse class="cls-98" cx="327.34" cy="379.88" rx="19.42" ry="10.53" transform="translate(-181.19 41.89) rotate(-26.91)"/><path class="cls-99" d="M344.12,371.37c2.55,5-2.9,12.91-12.16,17.61s-18.84,4.44-21.39-.58,2.89-12.91,12.16-17.61S341.57,366.35,344.12,371.37Z" transform="translate(-44.71 -147.39)"/><ellipse class="cls-100" cx="327.34" cy="379.88" rx="18.2" ry="9.87" transform="translate(-181.19 41.89) rotate(-26.91)"/><path class="cls-101" d="M343,371.92c2.38,4.7-2.71,12.07-11.38,16.47s-17.62,4.16-20-.54,2.71-12.08,11.38-16.48S340.65,367.22,343,371.92Z" transform="translate(-44.71 -147.39)"/><ellipse class="cls-102" cx="327.34" cy="379.88" rx="16.99" ry="9.21" transform="translate(-181.19 41.89) rotate(-26.91)"/><path class="cls-103" d="M342,372.47c2.22,4.37-2.52,11.24-10.59,15.34s-16.41,3.86-18.63-.51,2.52-11.24,10.59-15.34S339.73,368.09,342,372.47Z" transform="translate(-44.71 -147.39)"/><path class="cls-104" d="M341.41,372.74c2.14,4.22-2.42,10.83-10.19,14.77s-15.81,3.73-18-.49,2.43-10.82,10.2-14.77S339.27,368.53,341.41,372.74Z" transform="translate(-44.71 -147.39)"/><ellipse class="cls-105" cx="327.34" cy="379.88" rx="15.17" ry="8.23" transform="translate(-181.19 41.89) rotate(-26.91)"/><ellipse class="cls-106" cx="327.34" cy="379.88" rx="14.56" ry="7.9" transform="translate(-181.19 41.89) rotate(-26.91)"/><path class="cls-107" d="M339.79,373.57c1.89,3.72-2.15,9.57-9,13.06s-14,3.3-15.87-.43,2.15-9.58,9-13.07S337.9,369.84,339.79,373.57Z" transform="translate(-44.71 -147.39)"/><path class="cls-108" d="M339.25,373.84c1.81,3.57-2.06,9.16-8.63,12.5s-13.37,3.15-15.18-.42,2.05-9.16,8.63-12.49S337.44,370.28,339.25,373.84Z" transform="translate(-44.71 -147.39)"/><ellipse class="cls-109" cx="327.34" cy="379.88" rx="12.74" ry="6.91" transform="translate(-181.19 41.89) rotate(-26.91)"/><path class="cls-110" d="M338.17,374.39c1.64,3.24-1.87,8.33-7.85,11.36s-12.15,2.87-13.8-.37,1.87-8.33,7.85-11.36S336.52,371.15,338.17,374.39Z" transform="translate(-44.71 -147.39)"/><path class="cls-111" d="M337.63,374.67c1.56,3.07-1.78,7.91-7.46,10.79s-11.54,2.72-13.11-.36,1.78-7.91,7.45-10.79S336.06,371.59,337.63,374.67Z" transform="translate(-44.71 -147.39)"/><path class="cls-112" d="M337.08,374.94c1.48,2.92-1.68,7.49-7.06,10.22s-10.94,2.58-12.42-.33,1.68-7.5,7.06-10.23S335.6,372,337.08,374.94Z" transform="translate(-44.71 -147.39)"/><ellipse class="cls-113" cx="327.34" cy="379.88" rx="10.32" ry="5.59" transform="translate(-181.19 41.89) rotate(-26.91)"/><path class="cls-114" d="M336,375.49c1.32,2.59-1.49,6.66-6.27,9.09s-9.73,2.29-11-.3,1.49-6.66,6.27-9.09S334.69,372.9,336,375.49Z" transform="translate(-44.71 -147.39)"/><path class="cls-115" d="M335.46,375.76c1.23,2.43-1.4,6.25-5.88,8.52s-9.12,2.15-10.35-.28,1.4-6.24,5.88-8.52S334.23,373.33,335.46,375.76Z" transform="translate(-44.71 -147.39)"/><path class="cls-116" d="M334.92,376c1.15,2.27-1.31,5.83-5.49,7.95s-8.51,2-9.66-.26,1.31-5.83,5.49-8S333.77,373.77,334.92,376Z" transform="translate(-44.71 -147.39)"/><path class="cls-117" d="M334.38,376.31c1.07,2.11-1.22,5.42-5.1,7.39s-7.9,1.86-9-.25,1.21-5.41,5.1-7.38S333.31,374.21,334.38,376.31Z" transform="translate(-44.71 -147.39)"/><path class="cls-118" d="M333.84,376.59c1,1.94-1.12,5-4.71,6.81s-7.29,1.72-8.28-.22,1.12-5,4.71-6.82S332.85,374.64,333.84,376.59Z" transform="translate(-44.71 -147.39)"/><path class="cls-119" d="M333.3,376.86c.9,1.78-1,4.58-4.32,6.25s-6.68,1.58-7.59-.21,1-4.58,4.32-6.24S332.39,375.08,333.3,376.86Z" transform="translate(-44.71 -147.39)"/><path class="cls-120" d="M332.76,377.14c.82,1.62-.94,4.16-3.93,5.68s-6.07,1.43-6.9-.19.94-4.16,3.92-5.68S331.93,375.52,332.76,377.14Z" transform="translate(-44.71 -147.39)"/><path class="cls-121" d="M332.21,377.41c.74,1.46-.84,3.75-3.53,5.11s-5.47,1.29-6.21-.17.84-3.74,3.53-5.11S331.47,376,332.21,377.41Z" transform="translate(-44.71 -147.39)"/><path class="cls-122" d="M331.67,377.69c.66,1.29-.74,3.33-3.13,4.54s-4.87,1.15-5.52-.15.74-3.33,3.13-4.54S331,376.39,331.67,377.69Z" transform="translate(-44.71 -147.39)"/><path class="cls-123" d="M331.13,378c.58,1.14-.65,2.92-2.74,4s-4.26,1-4.83-.13.65-2.92,2.74-4S330.56,376.83,331.13,378Z" transform="translate(-44.71 -147.39)"/><path class="cls-124" d="M330.59,378.24c.49,1-.56,2.49-2.35,3.4s-3.65.86-4.14-.11.56-2.5,2.35-3.41S330.1,377.26,330.59,378.24Z" transform="translate(-44.71 -147.39)"/><path class="cls-125" d="M330.05,378.51c.41.81-.47,2.08-2,2.84s-3,.72-3.45-.09.47-2.09,2-2.84S329.64,377.7,330.05,378.51Z" transform="translate(-44.71 -147.39)"/><path class="cls-126" d="M329.51,378.78c.33.65-.37,1.67-1.57,2.28s-2.43.57-2.76-.08.37-1.66,1.57-2.27S329.18,378.14,329.51,378.78Z" transform="translate(-44.71 -147.39)"/><path class="cls-127" d="M329,379.06c.24.49-.28,1.25-1.18,1.7s-1.82.43-2.07-.05.28-1.25,1.18-1.71S328.72,378.57,329,379.06Z" transform="translate(-44.71 -147.39)"/><path class="cls-128" d="M328.43,379.33c.16.33-.19.84-.79,1.14s-1.21.29-1.38,0,.19-.83.79-1.13S328.26,379,328.43,379.33Z" transform="translate(-44.71 -147.39)"/><path class="cls-129" d="M327.89,379.61c.08.16-.1.41-.4.57s-.6.14-.69,0,.1-.42.4-.57S327.8,379.45,327.89,379.61Z" transform="translate(-44.71 -147.39)"/></g></g><path class="cls-130" d="M298.1,471s-7.77-3.91-12.54,1.92-11.59,19.61-11.8,28.91,7.36,8.68,11.86,6.48,17.66-21.29,18.46-25-.94-8.79-2.21-9.78S298.1,471,298.1,471Z" transform="translate(-44.71 -147.39)"/><path class="cls-131" d="M299.79,469.13l.36,8.05a4.56,4.56,0,0,1-2.27,4.19,9,9,0,0,1-6,.93c-5.86-.94-6.38-2.61-6.8-10.66S299.79,469.13,299.79,469.13Z" transform="translate(-44.71 -147.39)"/><path class="cls-132" d="M269.66,455.53s-7.77-3.92-12.54,1.91-11.59,19.61-11.8,28.92,7.36,8.68,11.86,6.47,17.66-21.28,18.46-25-.94-8.8-2.21-9.79S269.66,455.53,269.66,455.53Z" transform="translate(-44.71 -147.39)"/><path class="cls-131" d="M271.35,453.66l.36,8a4.54,4.54,0,0,1-2.27,4.18,9,9,0,0,1-6,.93c-5.86-.94-6.38-2.61-6.8-10.66S271.35,453.66,271.35,453.66Z" transform="translate(-44.71 -147.39)"/><path class="cls-7" d="M340.68,305.88c-2.3-37.42-40.52,5.5-40.52,5.5L274,337,250.45,362.9a23.2,23.2,0,0,0-5.85,18.65l9.52,72.56a7.16,7.16,0,0,0,7.16,6.2,25.85,25.85,0,0,0,3.53-.31c8.5-1.33,7.87-9.41,7.87-9.41l-1.74-67.86,49.47-29.82S343,343.29,340.68,305.88Z" transform="translate(-44.71 -147.39)"/><path class="cls-7" d="M369.12,320.13c-2.3-37.41-40.52,5.51-40.52,5.51l-26.16,25.64-23.55,25.87A23.24,23.24,0,0,0,273,395.81l9.52,72.55a7.14,7.14,0,0,0,7.16,6.2,24.35,24.35,0,0,0,3.53-.31c8.5-1.32,7.87-9.4,7.87-9.4l-1.69-65.92,49.42-31.77S371.42,357.55,369.12,320.13Z" transform="translate(-44.71 -147.39)"/><path class="cls-133" d="M346.51,200c29,12,28.4,29.14,28.4,29.14S369.23,292,371.17,333.9C372,351.43,278,352.77,292,306c16.52-55.15,10.33-99.8,18.07-106.53S339,196.92,346.51,200Z" transform="translate(-44.71 -147.39)"/><path class="cls-134" d="M355.83,215.21c-1.51,5.89-9.22,9-17.21,6.93s-13.25-8.5-11.73-14.38,9.22-9,17.21-6.93S357.35,209.33,355.83,215.21Z" transform="translate(-44.71 -147.39)"/><path class="cls-6" d="M344.23,222.27l-5.33,5.78a3.57,3.57,0,0,0-.91,2.79l3.67,31.69A3.47,3.47,0,0,1,341,265L329.5,280a1,1,0,0,1-1.81-.32l-6.24-19.65a3.43,3.43,0,0,1,.06-2.28l11-28.78a3.52,3.52,0,0,0,.15-2L331,219.39Z" transform="translate(-44.71 -147.39)"/><path class="cls-6" d="M343.51,224.15a20.87,20.87,0,0,1-5.24-.67,19.31,19.31,0,0,1-10.16-6.22c-2.5-3.07-3.41-6.57-2.56-9.85,1.7-6.61,10.17-10.17,18.9-7.92s14.43,9.46,12.72,16.07h0C355.82,220.83,350.16,224.15,343.51,224.15Zm-4.37-22.57c-5.38,0-9.87,2.5-10.91,6.52a8.4,8.4,0,0,0,2,7.41,16.54,16.54,0,0,0,8.7,5.29c7.24,1.86,14.21-.8,15.53-5.93S351,204,343.76,202.17A18.77,18.77,0,0,0,339.14,201.58Z" transform="translate(-44.71 -147.39)"/><path class="cls-134" d="M334.89,198.72s.25,1.16-.25,10.34c-.16,2.89,9.95,5.59,12.56,3s1.57-5.33,2.2-15.15S334.89,198.72,334.89,198.72Z" transform="translate(-44.71 -147.39)"/><path class="cls-135" d="M349.4,196.88s-2.49,9.11-14.76,12.6l.19-8.28Z" transform="translate(-44.71 -147.39)"/><circle class="cls-134" cx="290.87" cy="31.93" r="22.3"/><path class="cls-135" d="M340.7,180.14s-12.28,5.26-20.78,5.32-6.63-7.06-6.63-7.06l25.24-3.65Z" transform="translate(-44.71 -147.39)"/><path class="cls-136" d="M317.38,181.52s10.7-4.54,20.08-2.64a9.77,9.77,0,0,1,5.67,3.37,3.4,3.4,0,0,0,1.72,1.24c1.66.38,4.39-6.53,7.62-6.69s5.4,2.14,2.74,6.38-1.75,9-.53,9.68S371,183,359.59,160.38s-42.58-9.8-47.09-5.22c0,0-4.76,4.14-8.62.46C303.88,155.62,299.55,188.07,317.38,181.52Z" transform="translate(-44.71 -147.39)"/><path class="cls-134" d="M358.65,275.05v17a6.93,6.93,0,0,1-2.25,5.11L321.54,328.9l4,6.06,48-31.49a9.34,9.34,0,0,0,3.81-6.6l3.29-31.48Z" transform="translate(-44.71 -147.39)"/><path class="cls-133" d="M372.45,220.68S383,236.59,387,278.45c0,0-18.07,5.84-28.32,2.52S372.45,220.68,372.45,220.68Z" transform="translate(-44.71 -147.39)"/><path class="cls-137" d="M356.72,240.79s-4.14,22.16-4.38,32.57a6.66,6.66,0,0,0,4.38,6.42h0Z" transform="translate(-44.71 -147.39)"/><path class="cls-136" d="M347.68,351,340,350l-49.73-28.71a6.92,6.92,0,0,0-6.22.25l-35.24,20.34-4.66-.61v4.63h0a1.81,1.81,0,0,0,1.07,1.64L301.56,380a6.92,6.92,0,0,0,6.22-.26l38.37-22.15a2.52,2.52,0,0,0,1.53-2.09h0Z" transform="translate(-44.71 -147.39)"/><path class="cls-138" d="M310.31,332.82l-3.53-2H267.93l-19.15,11.05-4.66-.61v4.63h0a1.81,1.81,0,0,0,1.07,1.64L301.56,380a5.86,5.86,0,0,0,3.21.6Z" transform="translate(-44.71 -147.39)"/><path class="cls-139" d="M246.19,341.49l-2.07-.27v4.63h0a1.81,1.81,0,0,0,1.07,1.64l1,.57Z" transform="translate(-44.71 -147.39)"/><path class="cls-140" d="M302.12,380.29a7.23,7.23,0,0,0,5.29-.33v-7.89h-5.29Z" transform="translate(-44.71 -147.39)"/><path class="cls-141" d="M301.56,375.39,245.2,342.85c-1.6-.92-1.4-2.53.44-3.59L284,317.11a6.92,6.92,0,0,1,6.22-.26l56.36,32.54c1.6.92,1.4,2.53-.45,3.6l-38.37,22.15A6.92,6.92,0,0,1,301.56,375.39Z" transform="translate(-44.71 -147.39)"/><path class="cls-131" d="M300.6,370.46,253.74,343.4c-1.33-.76-1.16-2.1.37-3l20.57-11.57a5.74,5.74,0,0,1,5.17-.21l46.86,27.06c1.33.76,1.16,2.1-.37,3l-20.56,11.57A5.76,5.76,0,0,1,300.6,370.46Z" transform="translate(-44.71 -147.39)"/><path class="cls-134" d="M286.2,316l-.58,3.89a28.78,28.78,0,0,0,.25,10l.69,3.43a4.85,4.85,0,0,0,3.87,3.79h0a2.66,2.66,0,0,0,3.11-2.32l.93-8.32s2.13,2.79,3.16,2.79-1.15-8.33-3.47-13S286.2,316,286.2,316Z" transform="translate(-44.71 -147.39)"/><path class="cls-134" d="M305.3,254.24l-6,12a23.43,23.43,0,0,0-2.48,9.08l-2.62,40.94-8-.19-3.61-46a17.28,17.28,0,0,1,.2-4.25l4.13-23.32Z" transform="translate(-44.71 -147.39)"/><path class="cls-7" d="M299.65,378.52l-4.73-6.17-49.69-28.77a6.93,6.93,0,0,1-2.89-5.52l0-40.69-2.86-3.73,2.69-1.56h0a1.81,1.81,0,0,1,1.95.11l56.32,32.61a6.92,6.92,0,0,1,2.88,5.52l-.05,44.31a2.51,2.51,0,0,1-1.05,2.36h0Z" transform="translate(-44.71 -147.39)"/><path class="cls-136" d="M265.28,355.19l-3.53-2.05-19.38-33.66,0-22.11-2.86-3.73,2.69-1.56h0a1.81,1.81,0,0,1,1.95.11l56.32,32.61a5.89,5.89,0,0,1,2.12,2.48Z" transform="translate(-44.71 -147.39)"/><path class="cls-140" d="M240.8,295.29l-1.27-1.65,2.69-1.56h0a1.81,1.81,0,0,1,1.95.11l1,.57Z" transform="translate(-44.71 -147.39)"/><path class="cls-142" d="M301,325.17a7.2,7.2,0,0,1,2.35,4.74l-5.5,3.18-2.64-4.58Z" transform="translate(-44.71 -147.39)"/><path class="cls-143" d="M297.81,326.36l-56.33-32.61c-1.59-.92-2.88.06-2.88,2.18l0,44.31a6.89,6.89,0,0,0,2.88,5.52l56.32,32.61c1.59.92,2.89-.05,2.89-2.18l.05-44.31A6.94,6.94,0,0,0,297.81,326.36Z" transform="translate(-44.71 -147.39)"/><path class="cls-134" d="M325.5,335l-.9,1.87a12.63,12.63,0,0,1-4.71,5.22l-5.6,3.45a5.57,5.57,0,0,1-5.71.13l-.19-.12a3.36,3.36,0,0,1-.47-5.17l5.84-6s-3.28,2.52-4.2,1.5c-.68-.74,3.18-4.36,6.15-4.48s5.83-2.45,5.83-2.45Z" transform="translate(-44.71 -147.39)"/><path class="cls-133" d="M310.68,199.38s-21.44,23.32-30.08,44.71c0,0,7.33,13.21,25.27,18.39S310.68,199.38,310.68,199.38Z" transform="translate(-44.71 -147.39)"/><path class="cls-137" d="M301.83,261.1l3.47-33.56L297.12,259A47.7,47.7,0,0,0,301.83,261.1Z" transform="translate(-44.71 -147.39)"/><path class="cls-7" d="M526.29,436.33l-9.35,5.4c-1.24.72-2.25-.05-2.25-1.7h0a5.4,5.4,0,0,1,2.25-4.3l9.35-5.4c1.24-.71,2.25.05,2.25,1.7h0A5.4,5.4,0,0,1,526.29,436.33Z" transform="translate(-44.71 -147.39)"/><path class="cls-137" d="M486.81,277.84l-71.52-41.29a3.64,3.64,0,0,0-3.7-.29v0l-6.94,4,4.88,1.78v52.08c0,4.24,2.57,9.16,5.75,11l68.36,39.47v6.11l7-4h0c1.19-.72,1.95-2.31,1.95-4.59V288.84C492.57,284.6,490,279.68,486.81,277.84Z" transform="translate(-44.71 -147.39)"/><path class="cls-133" d="M479.75,350.44l-71.52-41.29c-3.18-1.83-5.76-6.76-5.76-11V245c0-4.23,2.58-6.18,5.76-4.35l71.52,41.3c3.18,1.83,5.75,6.75,5.75,11v53.18C485.5,350.33,482.93,352.28,479.75,350.44Z" transform="translate(-44.71 -147.39)"/><path class="cls-6" d="M481.5,281.1,410,239.81c-1.74-1-3.29-.85-4.34.17a4.36,4.36,0,0,1,2.59.64l71.52,41.3c3.18,1.83,5.75,6.75,5.75,11v53.18a5.66,5.66,0,0,1-1.41,4.17c1.87-.18,3.16-2,3.16-5V292.09C487.25,287.86,484.68,282.93,481.5,281.1Z" transform="translate(-44.71 -147.39)"/><path class="cls-6" d="M432.28,290.82c0,3.08-2.16,4.33-4.83,2.79a10.68,10.68,0,0,1-4.82-8.36c0-3.08,2.16-4.32,4.82-2.78A10.64,10.64,0,0,1,432.28,290.82Z" transform="translate(-44.71 -147.39)"/><path class="cls-6" d="M446.9,299.26c0,3.08-2.16,4.33-4.83,2.79a10.68,10.68,0,0,1-4.82-8.36c0-3.08,2.16-4.32,4.82-2.78A10.64,10.64,0,0,1,446.9,299.26Z" transform="translate(-44.71 -147.39)"/><ellipse class="cls-6" cx="456.69" cy="304.92" rx="3.94" ry="6.82" transform="translate(-135.98 121.83) rotate(-30)"/><g class="cls-144"><path class="cls-145" d="M486.81,364.42l-71.52-41.29a3.66,3.66,0,0,0-3.7-.3v-.05l-6.94,4,4.88,1.78v52.09c0,4.24,2.57,9.16,5.75,11l68.36,39.47v6.11l7-4,0,0c1.19-.72,1.95-2.3,1.95-4.58V375.41C492.57,371.18,490,366.25,486.81,364.42Z" transform="translate(-44.71 -147.39)"/><path class="cls-146" d="M479.75,437l-71.52-41.29c-3.18-1.84-5.76-6.76-5.76-11V331.55c0-4.24,2.58-6.19,5.76-4.35l71.52,41.29c3.18,1.84,5.75,6.76,5.75,11v53.18C485.5,436.91,482.93,438.85,479.75,437Z" transform="translate(-44.71 -147.39)"/><path class="cls-147" d="M481.5,367.67,410,326.38c-1.74-1-3.29-.84-4.34.18a4.29,4.29,0,0,1,2.59.64l71.52,41.29c3.18,1.84,5.75,6.76,5.75,11v53.18a5.67,5.67,0,0,1-1.41,4.17c1.87-.18,3.16-2,3.16-5V378.67C487.25,374.43,484.68,369.51,481.5,367.67Z" transform="translate(-44.71 -147.39)"/><path class="cls-6" d="M432.28,377.4c0,3.08-2.16,4.32-4.83,2.79a10.69,10.69,0,0,1-4.82-8.36c0-3.08,2.16-4.33,4.82-2.79A10.66,10.66,0,0,1,432.28,377.4Z" transform="translate(-44.71 -147.39)"/><path class="cls-6" d="M446.9,385.84c0,3.08-2.16,4.32-4.83,2.79a10.69,10.69,0,0,1-4.82-8.36c0-3.08,2.16-4.33,4.82-2.79A10.66,10.66,0,0,1,446.9,385.84Z" transform="translate(-44.71 -147.39)"/><path class="cls-6" d="M461.52,394.28c0,3.08-2.16,4.32-4.83,2.79a10.67,10.67,0,0,1-4.83-8.36c0-3.08,2.16-4.33,4.83-2.79A10.66,10.66,0,0,1,461.52,394.28Z" transform="translate(-44.71 -147.39)"/></g><polygon class="cls-131" points="350.27 260.1 440.69 207.89 434.92 204.56 344.5 256.77 350.27 260.1"/><polygon class="cls-131" points="413.18 244.88 458.97 218.45 453.2 215.11 407.41 241.55 413.18 244.88"/><polygon class="cls-133" points="390.96 257.71 405.81 249.13 400.04 245.8 385.19 254.38 390.96 257.71"/><polygon class="cls-6" points="368.55 270.65 383.39 262.08 377.62 258.75 362.77 267.32 368.55 270.65"/><polygon class="cls-6" points="412.67 234.62 449.83 213.17 444.06 209.84 406.9 231.29 412.67 234.62"/><polygon class="cls-131" points="367.31 260.81 404.47 239.36 398.7 236.03 361.54 257.48 367.31 260.81"/><path class="cls-133" d="M439.53,362.34a7.46,7.46,0,0,0,6.73,0c1.86-1.08,1.86-2.82,0-3.89a7.46,7.46,0,0,0-6.73,0C437.67,359.52,437.67,361.26,439.53,362.34Z" transform="translate(-44.71 -147.39)"/><path class="cls-6" d="M429.47,368.15a7.46,7.46,0,0,0,6.73,0c1.86-1.08,1.86-2.82,0-3.89a7.46,7.46,0,0,0-6.73,0C427.61,365.33,427.61,367.07,429.47,368.15Z" transform="translate(-44.71 -147.39)"/><path class="cls-131" d="M419.41,374a7.46,7.46,0,0,0,6.73,0c1.86-1.08,1.86-2.82,0-3.89a7.39,7.39,0,0,0-6.73,0C417.55,371.14,417.55,372.88,419.41,374Z" transform="translate(-44.71 -147.39)"/><path class="cls-133" d="M409.35,379.76a7.39,7.39,0,0,0,6.73,0c1.86-1.07,1.86-2.81,0-3.88a7.39,7.39,0,0,0-6.73,0C407.49,377,407.49,378.69,409.35,379.76Z" transform="translate(-44.71 -147.39)"/><path class="cls-6" d="M399.28,385.57a7.42,7.42,0,0,0,6.74,0c1.86-1.07,1.86-2.81,0-3.88a7.42,7.42,0,0,0-6.74,0C397.42,382.76,397.42,384.5,399.28,385.57Z" transform="translate(-44.71 -147.39)"/><polygon class="cls-133" points="167.01 136.5 182.24 127.71 176.32 124.3 161.09 133.09 167.01 136.5"/><polygon class="cls-6" points="145.81 148.74 161.03 139.95 155.12 136.54 139.89 145.33 145.81 148.74"/><polygon class="cls-6" points="170.4 145.36 191.6 133.12 185.69 129.71 164.49 141.94 170.4 145.36"/><polygon class="cls-131" points="155.18 154.15 164.48 148.78 158.56 145.36 149.26 150.74 155.18 154.15"/><ellipse class="cls-148" cx="330.54" cy="388.01" rx="38.6" ry="22.29"/><path class="cls-133" d="M420.43,511.23V498.55H418c-2.15-3.7-5.73-7.19-10.83-10.14-17.65-10.18-46.25-10.18-63.9,0-5.1,2.95-8.69,6.44-10.84,10.14h-2.39v12.62h0c0,6.69,4.37,13.4,13.22,18.51,17.65,10.19,46.25,10.19,63.9,0C416,524.59,420.43,517.91,420.43,511.23Z" transform="translate(-44.71 -147.39)"/><ellipse class="cls-133" cx="330.54" cy="351.16" rx="45.18" ry="26.08"/><path class="cls-6" d="M407.2,517c-17.65,10.19-46.25,10.19-63.9,0-8.45-4.88-12.81-11.21-13.16-17.61-.38,6.95,4,14,13.16,19.27,17.65,10.19,46.25,10.19,63.9,0,9.18-5.3,13.54-12.32,13.16-19.27C420,505.78,415.65,512.11,407.2,517Z" transform="translate(-44.71 -147.39)"/><path class="cls-6" d="M353.47,507.19a2,2,0,0,1-1.19-1.67l.05-17c0-1.3,1.83-2.35,4.07-2.35s4.06,1.06,4.06,2.35l0,14.1,40.9-5c2.2-.27,4.36.54,4.82,1.81s-.93,2.51-3.13,2.78l-45.82,5.61a6.36,6.36,0,0,1-3.4-.47Z" transform="translate(-44.71 -147.39)"/><ellipse class="cls-148" cx="45.18" cy="217.58" rx="38.6" ry="22.29"/><path class="cls-133" d="M135.07,340.8V328.11h-2.4c-2.15-3.7-5.73-7.19-10.84-10.13-17.64-10.19-46.25-10.19-63.89,0-5.11,2.94-8.69,6.43-10.84,10.13H44.71v12.62h0c0,6.7,4.38,13.4,13.23,18.51,17.64,10.19,46.25,10.19,63.89,0C130.66,354.15,135.07,347.47,135.07,340.8Z" transform="translate(-44.71 -147.39)"/><ellipse class="cls-133" cx="45.18" cy="180.73" rx="45.18" ry="26.08"/><path class="cls-6" d="M121.83,346.56c-17.64,10.18-46.25,10.18-63.89,0-8.46-4.88-12.81-11.22-13.16-17.62-.39,6.95,4,14,13.16,19.28,17.64,10.18,46.25,10.18,63.89,0,9.19-5.31,13.55-12.33,13.17-19.28C134.65,335.34,130.29,341.68,121.83,346.56Z" transform="translate(-44.71 -147.39)"/><path class="cls-6" d="M68.11,336.75a2,2,0,0,1-1.19-1.67l0-17c0-1.3,1.82-2.35,4.07-2.34s4.06,1.05,4.06,2.35l0,14.09,40.9-5c2.2-.27,4.35.54,4.82,1.81s-.94,2.52-3.13,2.79l-45.82,5.61a6.51,6.51,0,0,1-3.41-.48Z" transform="translate(-44.71 -147.39)"/><polygon class="cls-148" points="102.13 345.44 76.1 330.41 102.13 315.38 128.16 330.41 102.13 345.44"/><polygon class="cls-149" points="128.16 313.36 102.13 328.39 102.13 298.33 128.16 283.3 128.16 313.36"/><polygon class="cls-147" points="102.13 298.33 76.1 283.3 102.13 268.27 128.16 283.3 102.13 298.33"/><polygon class="cls-133" points="102.13 328.39 76.1 313.36 76.1 283.3 102.13 298.33 102.13 328.39"/><polygon class="cls-148" points="500.31 383.52 477.45 370.32 500.31 357.13 523.16 370.32 500.31 383.52"/><polygon class="cls-149" points="523.16 355.35 500.31 368.55 500.31 342.16 523.16 328.96 523.16 355.35"/><polygon class="cls-133" points="500.31 342.16 477.45 328.96 500.31 315.77 523.16 328.96 500.31 342.16"/><polygon class="cls-133" points="500.31 368.55 477.45 355.35 477.45 328.96 500.31 342.16 500.31 368.55"/></g></g></svg>