<svg id="Layer_1" data-name="Layer 1" xmlns="http://www.w3.org/2000/svg" xmlns:xlink="http://www.w3.org/1999/xlink" viewBox="0 0 552.92 331.03"><defs><style>.cls-1{fill:url(#linear-gradient);}.cls-2{fill:#91b3fa;}.cls-3{fill:#bdd0fb;}.cls-4{fill:url(#linear-gradient-2);}.cls-5{fill:url(#linear-gradient-3);}.cls-6{fill:#fff;opacity:0.47;}.cls-7{fill:url(#linear-gradient-4);}.cls-8{fill:url(#linear-gradient-5);}.cls-9{fill:url(#linear-gradient-6);}.cls-10{fill:url(#linear-gradient-7);}.cls-11{fill:url(#linear-gradient-8);}.cls-12{fill:url(#linear-gradient-9);}.cls-13{fill:#7d97f4;}.cls-14{fill:#4F81BD;}.cls-15{fill:url(#linear-gradient-10);}.cls-16{fill:url(#linear-gradient-11);}.cls-17{fill:url(#linear-gradient-12);}.cls-18{fill:url(#linear-gradient-13);}.cls-19{fill:url(#linear-gradient-14);}.cls-20{fill:url(#linear-gradient-15);}.cls-21{fill:url(#linear-gradient-16);}.cls-22{fill:url(#linear-gradient-17);}.cls-23{fill:url(#linear-gradient-18);}.cls-24{fill:url(#linear-gradient-19);}.cls-25{fill:url(#linear-gradient-20);}.cls-26{fill:url(#linear-gradient-21);}.cls-27{fill:url(#linear-gradient-22);}.cls-28{fill:url(#linear-gradient-23);}.cls-29{fill:url(#linear-gradient-24);}.cls-30{fill:url(#linear-gradient-25);}.cls-31{fill:url(#linear-gradient-26);}.cls-32{fill:url(#linear-gradient-27);}.cls-33{fill:url(#linear-gradient-28);}</style><linearGradient id="linear-gradient" x1="79.43" y1="319.42" x2="610" y2="319.42" gradientUnits="userSpaceOnUse"><stop offset="0" stop-color="#dae3fe"/><stop offset="1" stop-color="#e9effd"/></linearGradient><linearGradient id="linear-gradient-2" x1="398.99" y1="450.31" x2="504.78" y2="450.31" xlink:href="#linear-gradient"/><linearGradient id="linear-gradient-3" x1="380.96" y1="394.81" x2="452.72" y2="394.81" xlink:href="#linear-gradient"/><linearGradient id="linear-gradient-4" x1="182.37" y1="446.35" x2="286.69" y2="446.35" xlink:href="#linear-gradient"/><linearGradient id="linear-gradient-5" x1="183.84" y1="456.61" x2="283.46" y2="456.61" xlink:href="#linear-gradient"/><linearGradient id="linear-gradient-6" x1="271.5" y1="345.67" x2="267.65" y2="269.46" gradientUnits="userSpaceOnUse"><stop offset="0" stop-color="#09005d"/><stop offset="1" stop-color="#1a0f91"/></linearGradient><linearGradient id="linear-gradient-7" x1="133.84" y1="322.99" x2="512.22" y2="322.99" xlink:href="#linear-gradient-6"/><linearGradient id="linear-gradient-8" x1="457.85" y1="209.92" x2="219.59" y2="394.07" gradientUnits="userSpaceOnUse"><stop offset="0" stop-color="#4042e2"/><stop offset="1" stop-color="#4f52ff"/></linearGradient><linearGradient id="linear-gradient-9" x1="334.49" y1="470.84" x2="289.23" y2="570.21" xlink:href="#linear-gradient-6"/><linearGradient id="linear-gradient-10" x1="174.63" y1="217.25" x2="315.04" y2="217.25" xlink:href="#linear-gradient"/><linearGradient id="linear-gradient-11" x1="181.73" y1="203.74" x2="236.82" y2="203.74" xlink:href="#linear-gradient"/><linearGradient id="linear-gradient-12" x1="181.73" y1="211.84" x2="236.82" y2="211.84" xlink:href="#linear-gradient"/><linearGradient id="linear-gradient-13" x1="181.73" y1="219.95" x2="236.82" y2="219.95" xlink:href="#linear-gradient"/><linearGradient id="linear-gradient-14" x1="181.73" y1="228.05" x2="236.82" y2="228.05" xlink:href="#linear-gradient"/><linearGradient id="linear-gradient-15" x1="241.03" y1="220.28" x2="259.52" y2="220.28" xlink:href="#linear-gradient"/><linearGradient id="linear-gradient-16" x1="264" y1="220.28" x2="282.48" y2="220.28" xlink:href="#linear-gradient"/><linearGradient id="linear-gradient-17" x1="286.97" y1="220.28" x2="305.45" y2="220.28" xlink:href="#linear-gradient"/><linearGradient id="linear-gradient-18" x1="178.74" y1="76.32" x2="197.22" y2="76.32" xlink:href="#linear-gradient"/><linearGradient id="linear-gradient-19" x1="201.71" y1="76.32" x2="220.19" y2="76.32" xlink:href="#linear-gradient"/><linearGradient id="linear-gradient-20" x1="224.67" y1="76.32" x2="243.16" y2="76.32" xlink:href="#linear-gradient"/><linearGradient id="linear-gradient-21" x1="150.07" y1="339.34" x2="146.31" y2="351.12" xlink:href="#linear-gradient-6"/><linearGradient id="linear-gradient-22" x1="440.88" y1="250.01" x2="555.9" y2="250.01" xlink:href="#linear-gradient"/><linearGradient id="linear-gradient-23" x1="546.1" y1="186.67" x2="422.79" y2="350.39" gradientTransform="translate(624.11 -293.21) rotate(76.39)" gradientUnits="userSpaceOnUse"><stop offset="0" stop-color="#fe7062"/><stop offset="1" stop-color="#ff928e"/></linearGradient><linearGradient id="linear-gradient-24" x1="462.26" y1="250.01" x2="534.52" y2="250.01" xlink:href="#linear-gradient"/><linearGradient id="linear-gradient-25" x1="468.81" y1="289.29" x2="345.49" y2="453.01" gradientTransform="translate(664.88 -282.13) rotate(80.73)" xlink:href="#linear-gradient-23"/><linearGradient id="linear-gradient-26" x1="482.71" y1="250.01" x2="514.07" y2="250.01" xlink:href="#linear-gradient"/><linearGradient id="linear-gradient-27" x1="-1773.48" y1="2760.44" x2="-1786.67" y2="2813.99" gradientTransform="translate(2314.81 -2588.91)" xlink:href="#linear-gradient-6"/><linearGradient id="linear-gradient-28" x1="-1784.73" y1="2771.69" x2="-1788.75" y2="2814.9" gradientTransform="translate(-2720.04 944.79) rotate(-135)" xlink:href="#linear-gradient-6"/></defs><path class="cls-1" d="M595,336.67c-9.2-9.53-20.08-18.82-22.91-31.76-4.91-22.38,16.08-41.47,22.95-63.34a53.3,53.3,0,0,0-46-69.06C521.9,170,495.32,188.32,468.57,183c-21.41-4.24-38.34-23-60.08-25-25.58-2.36-46.81,18.76-71.24,26.71-29.22,9.51-60.9-.42-89.63-11.33s-59-23.08-89.24-17.86c-33.7,5.81-62,35.19-66.48,69.09-4.46,33.61,33,60.58,1.11,100.93-10,12.61-16.6,30.16-12.19,45.62,4.28,15,22.5,24.52,22.63,40.14.11,12.33-11.52,22.13-12.45,34.43-.81,10.55,6.78,20.31,16.11,25.31s20.15,6.22,30.67,7.35c0,0,103.22,7,156.42,6l251.68-5c8.62-.17,17.45-.38,25.49-3.52s15.23-9.84,16.46-18.38c2.08-14.53-13.1-27.14-11.7-41.74,1.79-18.66,28.06-25.86,33.06-43.92C612.72,359.06,604.19,346.2,595,336.67Z" transform="translate(-62.3 -154.32)"/><path class="cls-2" d="M615.16,237.49c-10.8,33-81.93,234.17-213,247.33a5.35,5.35,0,0,1-5.52-7.25c9.13-23.68,42.37-96.92,124.84-163,59.5-47.67,83.77-70.36,91.78-78.26A1.13,1.13,0,0,1,615.16,237.49Z" transform="translate(-62.3 -154.32)"/><path class="cls-3" d="M396.67,478.56a1,1,0,0,1-.59-1.8c50.21-36.79,94.17-82.28,122.21-114,33-37.26,50.71-62.72,51.42-64.42a1,1,0,0,1,1.1-.76,1,1,0,0,1,.86,1.12c-.28,2-20.72,30.06-51.07,64.46-28.28,32-72.62,78-123.34,115.18A1,1,0,0,1,396.67,478.56Zm173-180.1Z" transform="translate(-62.3 -154.32)"/><path class="cls-3" d="M400.12,478.2a3.51,3.51,0,0,1-2.65-5.18c6.64-12,28.46-44.24,75.06-52.6,39.35-7.06,60-14.62,69.15-18.71a2.2,2.2,0,0,1,2.81,3.09C533,425.13,489.57,488.55,400.12,478.2Z" transform="translate(-62.3 -154.32)"/><path class="cls-4" d="M400,475.22a1,1,0,0,1-.81-.42,1,1,0,0,1,.22-1.39c.49-.36,49.88-35.7,104.16-48a1,1,0,0,1,.44,1.95c-53.88,12.2-102.94,47.3-103.43,47.66A1,1,0,0,1,400,475.22Z" transform="translate(-62.3 -154.32)"/><path class="cls-3" d="M378.06,476.63c9.82-25.66,52-135.49,69.32-173.4a4.92,4.92,0,0,1,9.07.29c11.3,29.56,33.61,118.19-75.28,175.85A2.21,2.21,0,0,1,378.06,476.63Z" transform="translate(-62.3 -154.32)"/><path class="cls-5" d="M382,477.27a1,1,0,0,1-.71-.3,1,1,0,0,1,0-1.41,207.23,207.23,0,0,0,38.41-52.19,272.56,272.56,0,0,0,20.83-52.78c9.1-32.25,10.22-57,10.23-57.28a1,1,0,0,1,1-.95,1,1,0,0,1,1,1c0,.24-1.13,25.21-10.29,57.68a273.71,273.71,0,0,1-21,53.19A209.46,209.46,0,0,1,382.66,477,1,1,0,0,1,382,477.27Z" transform="translate(-62.3 -154.32)"/><path class="cls-2" d="M234.05,477.33s-51.4-33.81-53.15-107.66c-1.7-71.79,12.13-170-62.51-209.89a3.26,3.26,0,0,0-4.69,3.72c4.32,16.29,14,58.59,10.86,101.93C120.61,320.76,138.86,455.69,234.05,477.33Z" transform="translate(-62.3 -154.32)"/><path class="cls-6" d="M132.23,187.08l.28.25.22.21.42.42c.27.27.53.55.79.83.52.56,1,1.12,1.5,1.7s.95,1.16,1.43,1.74.91,1.18,1.35,1.79a83.51,83.51,0,0,1,4.86,7.5,95,95,0,0,1,7.39,16.2,113.84,113.84,0,0,1,4.48,17.2,120.49,120.49,0,0,1,1.77,17.66,145,145,0,0,1-.59,17.69l-.46,4.4-.61,4.38c-.2,1.47-.42,2.87-.63,4.31s-.43,2.87-.59,4.3a261.21,261.21,0,0,0-2.09,34.7l0,4.35.14,4.35c0,1.45.12,2.89.2,4.34s.14,2.9.26,4.35c.39,5.79,1,11.56,1.76,17.32s1.74,11.48,2.88,17.18,2.54,11.33,4.1,16.93,3.42,11.1,5.45,16.55,4.36,10.78,6.92,16a140.85,140.85,0,0,0,8.59,15.18,124.74,124.74,0,0,0,10.48,14,126,126,0,0,1-10.85-13.72,143.61,143.61,0,0,1-9-15c-2.69-5.19-5.17-10.5-7.33-15.93s-4.09-11-5.81-16.56-3.18-11.27-4.47-17-2.36-11.47-3.24-17.27-1.55-11.61-2-17.45c-.15-1.45-.22-2.92-.33-4.38s-.2-2.92-.26-4.38l-.21-4.39-.11-4.4a266.13,266.13,0,0,1,1.6-35.13c.15-1.46.34-2.91.54-4.37l.58-4.34.56-4.29.42-4.31a144,144,0,0,0,.44-17.25A116.86,116.86,0,0,0,146.92,219c-1-2.69-2-5.37-3.18-8s-2.43-5.18-3.85-7.66a78.35,78.35,0,0,0-4.58-7.21c-.83-1.16-1.69-2.29-2.58-3.38-.44-.55-.9-1.08-1.37-1.6-.23-.26-.46-.52-.7-.77l-.35-.36-.17-.17-.13-.12-.11-.1a1.73,1.73,0,0,1,2.33-2.55Z" transform="translate(-62.3 -154.32)"/><path class="cls-3" d="M62.66,259.33a2.09,2.09,0,0,1,2.48-3.1c19.21,7.27,68.54,32.42,88.38,103.83,24.9,89.59,55.54,113.36,85.51,123.19,0,0-34.06,3.64-66.24-20C93.8,405.09,82.74,289.16,62.66,259.33Z" transform="translate(-62.3 -154.32)"/><path class="cls-6" d="M85,281a83.46,83.46,0,0,1,8.89,9.55l1,1.26,1,1.29,2,2.57c1.27,1.76,2.54,3.52,3.79,5.29A219.23,219.23,0,0,1,115,323.29c4.11,7.66,7.54,15.64,10.93,23.63l2.36,6.06,1.18,3,.59,1.52.53,1.54,4.3,12.25a262,262,0,0,0,21.31,46.74q6.38,11.18,13.76,21.73c1.22,1.77,2.49,3.5,3.73,5.25s2.56,3.44,3.85,5.15,2.63,3.38,4,5c.67.84,1.35,1.66,2,2.48s1.39,1.63,2.07,2.4l0,0a1.73,1.73,0,0,1-2.57,2.31c-3-3.27-5.72-6.61-8.42-10-1.33-1.73-2.66-3.45-4-5.19s-2.58-3.5-3.83-5.28c-5-7.1-9.66-14.46-14-22-2.21-3.74-4.21-7.6-6.24-11.45-1-1.93-1.9-3.91-2.86-5.86l-1.42-2.93c-.48-1-.89-2-1.33-3l-2.62-6-.33-.75-.3-.76-.59-1.52-1.2-3-1.19-3c-.19-.51-.4-1-.58-1.52l-.53-1.55-2.12-6.17c-.72-2.07-1.38-4.1-2.05-6.14l-2-6.12-.51-1.53-.56-1.51-1.11-3-2.24-6.05-2.44-6c-.82-2-1.59-4-2.5-5.94l-2.65-5.87c-.43-1-.9-1.95-1.37-2.92l-1.42-2.9A215,215,0,0,0,100.09,302c-1.17-1.8-2.37-3.58-3.57-5.37L94.65,294l-.94-1.31-1-1.28c-.66-.85-1.3-1.71-2-2.55l-2-2.48c-1.4-1.61-2.82-3.26-4.35-4.71h0A.47.47,0,0,1,85,281Z" transform="translate(-62.3 -154.32)"/><path class="cls-2" d="M162.79,437.19l1.08,42.25c.08,3.29,4.15,5.92,9.13,5.92H299c5,0,9.14-2.69,9.14-6V439.8c0-3.25-3.92-5.91-8.85-6l-127.07-2.7C167,431,162.7,433.75,162.79,437.19Z" transform="translate(-62.3 -154.32)"/><path class="cls-3" d="M173.22,441.31,176,480.16c.11,1.5,2,2.66,4.26,2.64l114.73-1.33c2.29,0,4.12-1.26,4.12-2.76V445c0-1.47-1.75-2.69-4-2.76l-117.47-3.83C175.14,438.34,173.1,439.68,173.22,441.31Z" transform="translate(-62.3 -154.32)"/><path class="cls-7" d="M182.37,445v2.8c0,1,1.22,1.78,2.72,1.77l99-1.07c1.46,0,2.64-.8,2.64-1.76h0c0-1-1.16-1.74-2.61-1.77l-99-1.74C183.61,443.16,182.37,444,182.37,445Z" transform="translate(-62.3 -154.32)"/><path class="cls-8" d="M183.84,455.52v2.57c0,1,1.26,1.8,2.78,1.77l94.25-2.16c1.44,0,2.59-.82,2.59-1.77v-.8c0-1-1.21-1.77-2.7-1.77l-94.25.4C185,453.76,183.84,454.55,183.84,455.52Z" transform="translate(-62.3 -154.32)"/><polygon class="cls-9" points="230.78 259.59 222.61 315.97 317.4 315.97 305.05 259.59 230.78 259.59"/><path class="cls-10" d="M133.84,233.38V401.2a25.46,25.46,0,0,0,24.81,25.45c61.29,1.58,275.68,5.41,334,4.55A18.74,18.74,0,0,0,511.12,413c1.12-39,3-132.74-3.81-176.26a19.28,19.28,0,0,0-18.43-16.32c-51.36-1.64-278.62-6.86-336.95-5.55A18.51,18.51,0,0,0,133.84,233.38Z" transform="translate(-62.3 -154.32)"/><path class="cls-11" d="M144.37,232.56V392a14.75,14.75,0,0,0,14.53,14.75l325.38,4a14.36,14.36,0,0,0,14.57-14.3l.55-158a10.51,10.51,0,0,0-10.25-10.53L156,221.19A11.38,11.38,0,0,0,144.37,232.56Z" transform="translate(-62.3 -154.32)"/><path class="cls-2" d="M501.3,417.35h0l-356.92-6.08a.51.51,0,0,1-.5-.51.52.52,0,0,1,.51-.49l356.93,6.08a.5.5,0,0,1,0,1Z" transform="translate(-62.3 -154.32)"/><path class="cls-2" d="M326.36,424.78a4.22,4.22,0,1,1,4.21-4.22A4.22,4.22,0,0,1,326.36,424.78Zm0-7.43a3.22,3.22,0,1,0,3.21,3.21A3.22,3.22,0,0,0,326.36,417.35Z" transform="translate(-62.3 -154.32)"/><path class="cls-12" d="M400.11,485.29H261.38c-3.77,0-6.6-2.69-5.87-5.57l1.78-7c.54-2.12,2.86-3.67,5.63-3.76l133.74-4.17c2.89-.09,5.45,1.44,6.08,3.64L406,479.61C406.79,482.52,403.94,485.29,400.11,485.29Z" transform="translate(-62.3 -154.32)"/><path class="cls-2" d="M336.06,470.88a.5.5,0,1,1,0-1l5.73-.08h0a.5.5,0,0,1,0,1l-5.73.09Z" transform="translate(-62.3 -154.32)"/><path class="cls-2" d="M260.65,481.45h-.08a.51.51,0,0,1-.42-.58l.82-5.12a5.75,5.75,0,0,1,5.61-4.85l60.79-.89a.49.49,0,0,1,.51.49.5.5,0,0,1-.5.5l-60.78.89a4.76,4.76,0,0,0-4.64,4l-.82,5.12A.49.49,0,0,1,260.65,481.45Z" transform="translate(-62.3 -154.32)"/><rect class="cls-13" x="101.88" y="111.44" width="16.42" height="129.38"/><rect class="cls-13" x="129.31" y="111.44" width="16.42" height="129.38"/><rect class="cls-13" x="156.74" y="111.44" width="16.42" height="129.38"/><rect class="cls-13" x="184.18" y="111.44" width="16.42" height="129.38"/><rect class="cls-13" x="211.61" y="111.44" width="16.42" height="129.38"/><rect class="cls-13" x="239.05" y="111.44" width="16.42" height="129.38"/><rect class="cls-13" x="266.48" y="111.44" width="16.42" height="129.38"/><rect class="cls-13" x="348.79" y="111.44" width="16.42" height="129.38"/><rect class="cls-13" x="376.22" y="111.44" width="16.42" height="129.38"/><rect class="cls-13" x="403.66" y="111.44" width="16.42" height="129.38"/><rect class="cls-14" x="101.88" y="173.11" width="16.42" height="67.71"/><rect class="cls-14" x="129.31" y="196.38" width="16.42" height="44.44"/><rect class="cls-14" x="156.74" y="138.87" width="16.42" height="101.95"/><rect class="cls-14" x="184.18" y="216.33" width="16.42" height="24.49"/><rect class="cls-14" x="211.61" y="152.5" width="16.42" height="88.32"/><rect class="cls-14" x="239.05" y="167.79" width="16.42" height="73.03"/><rect class="cls-14" x="266.48" y="184.42" width="16.42" height="56.41"/><rect class="cls-14" x="348.79" y="126.63" width="16.42" height="114.19"/><rect class="cls-14" x="376.22" y="218.6" width="16.42" height="22.22"/><rect class="cls-14" x="403.66" y="175.44" width="16.42" height="65.38"/><polygon class="cls-14" points="352.04 96.21 316.23 33.43 280.43 96.21 293.92 96.21 293.92 240.82 337.77 240.82 337.77 96.21 352.04 96.21"/><path class="cls-2" d="M175.8,191.2l138.69-.6a2.37,2.37,0,0,1,2.4,2.39l-.3,48.54a2.38,2.38,0,0,1-2.44,2.37c-12.23-.37-137.58-2-140-1.88s-1.08-38.24-.73-48.52A2.39,2.39,0,0,1,175.8,191.2Z" transform="translate(-62.3 -154.32)"/><path class="cls-15" d="M314.22,242h0c-7.8-.23-82.62-1.16-118.57-1.61l-20.13-.26h-.21l0-.2c-.85-4.8-.84-20.85,0-46.41a.52.52,0,0,1,.52-.5l138.69-.61a.51.51,0,0,1,.37.15.53.53,0,0,1,.16.38l-.3,48.54A.52.52,0,0,1,314.22,242Zm-138.51-2.36,19.92.25c36,.45,110.78,1.38,118.59,1.61h0l.31-48.57-138.72.59C174.93,218.75,174.9,234.67,175.71,239.68Z" transform="translate(-62.3 -154.32)"/><path class="cls-16" d="M181.73,203.74h0c0,1.31.44,2.38,1,2.38h53.13c.54,0,1-1.07,1-2.38h0c0-1.31-.44-2.38-1-2.38H182.71C182.17,201.36,181.73,202.43,181.73,203.74Z" transform="translate(-62.3 -154.32)"/><path class="cls-17" d="M181.73,211.84h0c0,1.32.44,2.38,1,2.38h53.13c.54,0,1-1.06,1-2.38h0c0-1.31-.44-2.37-1-2.37H182.71C182.17,209.47,181.73,210.53,181.73,211.84Z" transform="translate(-62.3 -154.32)"/><path class="cls-18" d="M181.73,220h0c0,1.31.44,2.37,1,2.37h53.13c.54,0,1-1.06,1-2.37h0c0-1.32-.44-2.38-1-2.38H182.71C182.17,217.57,181.73,218.63,181.73,220Z" transform="translate(-62.3 -154.32)"/><path class="cls-19" d="M181.73,228.05h0c0,1.31.44,2.38,1,2.38h53.13c.54,0,1-1.07,1-2.38h0c0-1.31-.44-2.38-1-2.38H182.71C182.17,225.67,181.73,226.74,181.73,228.05Z" transform="translate(-62.3 -154.32)"/><circle class="cls-3" cx="250.28" cy="205.41" r="9.24" transform="translate(-69.44 247.48) rotate(-76.72)"/><circle class="cls-3" cx="273.24" cy="205.41" r="9.24" transform="matrix(0.16, -0.99, 0.99, 0.16, -35.58, 287.9)"/><circle class="cls-3" cx="296.21" cy="205.72" r="9.24" transform="matrix(0.23, -0.97, 0.97, 0.23, -34.35, 292.42)"/><path class="cls-14" d="M255.77,203.46a6.07,6.07,0,0,1,.44,2.26,5.94,5.94,0,1,1-5.93-5.94h.3v-1.51h-.3a7.44,7.44,0,1,0,7.44,7.44,7.52,7.52,0,0,0-.57-2.86Z" transform="translate(-62.3 -154.32)"/><path class="cls-14" d="M276.31,210.74a5.94,5.94,0,1,1-3.17-11h.3v-1.51h-.3a7.44,7.44,0,1,0,3.91,13.77Z" transform="translate(-62.3 -154.32)"/><path class="cls-14" d="M301.16,209.05a5.93,5.93,0,1,1-4.9-9.27h.29v-1.51h-.29a7.44,7.44,0,1,0,6.12,11.66Z" transform="translate(-62.3 -154.32)"/><path class="cls-20" d="M257.81,218.57H242.75a1.71,1.71,0,1,0,0,3.42h15.06a1.71,1.71,0,0,0,0-3.42Z" transform="translate(-62.3 -154.32)"/><path class="cls-21" d="M280.77,218.57H265.71a1.71,1.71,0,1,0,0,3.42h15.06a1.71,1.71,0,1,0,0-3.42Z" transform="translate(-62.3 -154.32)"/><path class="cls-22" d="M288.68,222h15.06a1.71,1.71,0,0,0,0-3.42H288.68a1.71,1.71,0,1,0,0,3.42Z" transform="translate(-62.3 -154.32)"/><rect class="cls-23" x="178.74" y="69.57" width="18.48" height="13.5" rx="1.71"/><rect class="cls-24" x="201.71" y="69.57" width="18.48" height="13.5" rx="1.71"/><rect class="cls-25" x="224.67" y="69.57" width="18.48" height="13.5" rx="1.71"/><path class="cls-26" d="M143.89,369.25a26.74,26.74,0,0,0-1-4.65c-.5-1-2.21,0-2.21,0a4.5,4.5,0,0,0-1.76,1.5c-.35.59-1.33,2.29-2,3.44a.76.76,0,0,0-.1.41l6.86.24A1.44,1.44,0,0,0,143.89,369.25Z" transform="translate(-62.3 -154.32)"/><circle class="cls-3" cx="436.09" cy="95.69" r="64.17"/><circle class="cls-14" cx="436.09" cy="95.69" r="54.77"/><path class="cls-27" d="M498.39,307.53A57.52,57.52,0,1,1,555.9,250,57.58,57.58,0,0,1,498.39,307.53Zm0-109.54a52,52,0,1,0,52,52A52.08,52.08,0,0,0,498.39,198Z" transform="translate(-62.3 -154.32)"/><circle class="cls-28" cx="498.39" cy="250.01" r="33.39" transform="translate(75.82 521.25) rotate(-76.39)"/><path class="cls-29" d="M498.39,286.15A36.14,36.14,0,1,1,534.52,250,36.18,36.18,0,0,1,498.39,286.15Zm0-66.78A30.65,30.65,0,1,0,529,250,30.67,30.67,0,0,0,498.39,219.37Z" transform="translate(-62.3 -154.32)"/><circle class="cls-30" cx="498.39" cy="250.01" r="12.94" transform="translate(109.08 547.31) rotate(-80.73)"/><path class="cls-31" d="M498.39,265.69A15.68,15.68,0,1,1,514.07,250,15.69,15.69,0,0,1,498.39,265.69Zm0-25.87A10.19,10.19,0,1,0,508.58,250,10.2,10.2,0,0,0,498.39,239.82Z" transform="translate(-62.3 -154.32)"/><rect class="cls-32" x="528.41" y="189.5" width="1.65" height="62.4" transform="translate(685.11 596.65) rotate(-135)"/><path class="cls-33" d="M507.42,239.36c.67-.67,3.82,2.49,3.15,3.15l-11.69,9.19a.46.46,0,0,1-.65-.65Z" transform="translate(-62.3 -154.32)"/><path class="cls-13" d="M551.85,199.24l5.94.59L549.64,208a12.6,12.6,0,0,1-10.15,3.63h0Z" transform="translate(-62.3 -154.32)"/><path class="cls-13" d="M550.69,198.08l-.59-5.94L542,200.29a12.61,12.61,0,0,0-3.63,10.15h0Z" transform="translate(-62.3 -154.32)"/></svg>