<svg xmlns="http://www.w3.org/2000/svg" xmlns:xlink="http://www.w3.org/1999/xlink" viewBox="0 0 585.87 314.11"><defs><style>.cls-1{fill:url(#linear-gradient);}.cls-2{fill:url(#linear-gradient-2);}.cls-3{fill:none;}.cls-4{isolation:isolate;}.cls-5{fill:#ebeff2;}.cls-6{fill:url(#linear-gradient-3);}.cls-11,.cls-23,.cls-7,.cls-9{fill:#fff;}.cls-7{opacity:0.28;}.cls-11,.cls-7,.cls-9{mix-blend-mode:soft-light;}.cls-8{clip-path:url(#clip-path);}.cls-9{opacity:0.7;}.cls-10{clip-path:url(#clip-path-2);}.cls-11{opacity:0.5;}.cls-12{fill:url(#linear-gradient-6);}.cls-13{fill:#c5cdd8;}.cls-14{fill:url(#linear-gradient-7);}.cls-15,.cls-22{fill:#d8dee8;}.cls-16{fill:#f4f7fa;}.cls-17{fill:#c281e8;}.cls-18{fill:url(#linear-gradient-8);}.cls-19{fill:url(#linear-gradient-9);}.cls-20{fill:url(#linear-gradient-10);}.cls-21{fill:url(#linear-gradient-11);}.cls-22{opacity:0.32;}.cls-24{clip-path:url(#clip-path-3);}.cls-25{fill:url(#linear-gradient-12);}.cls-26{fill:url(#linear-gradient-13);}.cls-27{fill:url(#linear-gradient-14);}.cls-28{clip-path:url(#clip-path-4);}.cls-29{fill:#ffc244;}.cls-30{fill:#a67ff7;}.cls-31{fill:#9d3060;}.cls-32{fill:#97a6b7;}.cls-33{fill:#fe8498;}.cls-34{fill:url(#linear-gradient-15);}.cls-35{fill:url(#linear-gradient-16);}.cls-36{fill:url(#linear-gradient-17);}.cls-37{fill:url(#linear-gradient-18);}.cls-38{fill:url(#linear-gradient-19);}.cls-39{fill:url(#linear-gradient-20);}.cls-40{fill:url(#linear-gradient-21);}.cls-41{fill:url(#linear-gradient-22);}.cls-42{fill:url(#linear-gradient-23);}.cls-43,.cls-45,.cls-46{opacity:0.3;mix-blend-mode:multiply;}.cls-44{fill:url(#linear-gradient-24);}.cls-45{fill:url(#linear-gradient-25);}.cls-46{fill:url(#linear-gradient-26);}.cls-47{fill:url(#linear-gradient-27);}.cls-48{fill:url(#linear-gradient-28);}.cls-49{fill:url(#linear-gradient-29);}.cls-50{fill:url(#linear-gradient-30);}.cls-51{fill:url(#linear-gradient-31);}.cls-52{fill:url(#linear-gradient-32);}</style><linearGradient id="linear-gradient" x1="511" y1="215.47" x2="525.69" y2="337.41" gradientTransform="translate(-7.85 -3.38) rotate(-1.78)" gradientUnits="userSpaceOnUse"><stop offset="0" stop-color="#aa80f9"/><stop offset="1" stop-color="#6165d7"/></linearGradient><linearGradient id="linear-gradient-2" x1="532.8" y1="357.89" x2="519.64" y2="478.46" gradientTransform="translate(-7.85 -3.38) rotate(-1.78)" gradientUnits="userSpaceOnUse"><stop offset="0" stop-color="#e38ddd"/><stop offset="1" stop-color="#9571f6"/></linearGradient><linearGradient id="linear-gradient-3" x1="-1901.68" y1="125" x2="-1971.59" y2="204.16" gradientTransform="matrix(-0.99, -0.11, -0.11, 0.99, -1358.59, -62.56)" gradientUnits="userSpaceOnUse"><stop offset="0" stop-color="#ffc444"/><stop offset="1" stop-color="#f36f56"/></linearGradient><clipPath id="clip-path" transform="translate(-33.74 -168.48)"><path class="cls-1" d="M467.61,403.37c19.54-3.72,25.37-9.32,26.52-14.24,1.88-8.07-8.9-13.77-6.85-23,2.37-10.59,18.64-11.82,18.57-18.88-.07-7.64-19.1-8.26-22.35-19.44-2.95-10.14,11.11-15.08,11.89-29.49.93-17.22-18.45-22.46-20.7-42.26-1.53-13.52,6-24.47,11.87-33.06,13.27-19.34,39.19-37.35,67.05-33.65,3.8.5,26,3.44,30.7,16.84,4.78,13.58-9.86,33.73-24.2,44-10.39,7.45-18.78,8.38-19.6,14.69-1.12,8.51,13.38,12.54,14,25.08.33,6.63-3.39,12.05-7,17.38-8.3,12.08-15.61,11.16-17.12,18-2.05,9.42,11,14.12,13.07,28.53,1.48,10.27-3.57,18.83-6.41,23.65C525.93,396.39,498.61,405.87,467.61,403.37Z"/></clipPath><clipPath id="clip-path-2" transform="translate(-33.74 -168.48)"><path class="cls-2" d="M470.64,396.42a119.87,119.87,0,0,0,22.69,8.24c20.73,5.23,56.19,8.22,67.84-8,1.44-2,5.22-7.28,4.5-13.63-.75-6.61-5.7-8.5-5.1-12.66.82-5.69,10.57-5.57,20-12.36,8-5.78,17.58-17.74,16.2-31.43-1.52-15-15.25-23.15-16.74-24-10.14-5.8-25.55-7.53-34.9.48-8.27,7.08-8.69,19.13-9,27.08-.63,18,7.13,25.84,1.91,32.29-4.75,5.88-13.23,1.91-19,9.74-2.46,3.34-1.67,5.1-5.48,11.62a52.31,52.31,0,0,1-7.34,9.85C496.22,403.63,472.72,397,470.64,396.42Z"/></clipPath><linearGradient id="linear-gradient-6" x1="319.67" y1="316.65" x2="-25.73" y2="255.91" gradientTransform="translate(-7.85 -3.38) rotate(-1.78)" xlink:href="#linear-gradient-3"/><linearGradient id="linear-gradient-7" x1="313.89" y1="131.65" x2="301.49" y2="700.95" gradientTransform="translate(-7.85 -3.38) rotate(-1.78)" gradientUnits="userSpaceOnUse"><stop offset="0" stop-color="#f59960"/><stop offset="1" stop-color="#4F81BD"/></linearGradient><linearGradient id="linear-gradient-8" x1="145.2" y1="371.68" x2="154.85" y2="371.68" gradientTransform="translate(-7.85 -3.38) rotate(-1.78)" gradientUnits="userSpaceOnUse"><stop offset="0" stop-color="#ff9085"/><stop offset="1" stop-color="#fb6fbb"/></linearGradient><linearGradient id="linear-gradient-9" x1="161.06" y1="402.23" x2="170.57" y2="402.23" xlink:href="#linear-gradient-8"/><linearGradient id="linear-gradient-10" x1="214.15" y1="398.92" x2="223.25" y2="398.92" xlink:href="#linear-gradient-8"/><linearGradient id="linear-gradient-11" x1="198.75" y1="380.92" x2="207.96" y2="380.92" xlink:href="#linear-gradient-8"/><clipPath id="clip-path-3" transform="translate(-33.74 -168.48)"><path class="cls-3" d="M316.9,383.51l.5,16.1,31.28-2.6L348,376.49c-8.44-4.43-13.09-3.51-15.78-1.81-3,1.92-4.7,5.55-9.78,7.62A16.75,16.75,0,0,1,316.9,383.51Z"/></clipPath><linearGradient id="linear-gradient-12" x1="307.2" y1="392.59" x2="338.99" y2="420.8" gradientTransform="translate(-41.59 -171.86) rotate(-1.78)" xlink:href="#linear-gradient-8"/><linearGradient id="linear-gradient-13" x1="312.78" y1="383.46" x2="344.98" y2="412.02" gradientTransform="translate(-41.59 -171.86) rotate(-1.78)" xlink:href="#linear-gradient-8"/><linearGradient id="linear-gradient-14" x1="315.91" y1="378.12" x2="347.75" y2="406.36" gradientTransform="translate(-41.59 -171.86) rotate(-1.78)" xlink:href="#linear-gradient-8"/><clipPath id="clip-path-4" transform="translate(-33.74 -168.48)"><path class="cls-3" d="M364.59,382.43c3.18-3.17,5.78-3.89,7.62-3.93,2.33,0,3.11,1,5.62.49s2.72-1.88,5.57-2.64a11.68,11.68,0,0,1,5.55,0c3.31.8,3.49,2.4,5.51,2.19,1.86-.19,2-1.57,5.59-3.92a14.08,14.08,0,0,1,5.45-2.5c2.34-.39,2.54.49,5.52.29a17.55,17.55,0,0,0,5.36-1.29c3.15-1.2,3.53-2.15,5.65-2.69a9.32,9.32,0,0,1,5.72.48l.67,21.47-63.35,5.25Z"/></clipPath><linearGradient id="linear-gradient-15" x1="409.9" y1="280.49" x2="274.34" y2="509.25" gradientTransform="translate(-7.85 -3.38) rotate(-1.78)" gradientUnits="userSpaceOnUse"><stop offset="0" stop-color="#ab316d"/><stop offset="1" stop-color="#792d3d"/></linearGradient><linearGradient id="linear-gradient-16" x1="462.5" y1="281.4" x2="466.72" y2="274.22" gradientTransform="translate(-41.59 -171.86) rotate(-1.78)" xlink:href="#linear-gradient-15"/><linearGradient id="linear-gradient-17" x1="555.81" y1="202.74" x2="550.74" y2="246.68" gradientTransform="translate(-41.59 -171.86) rotate(-1.78)" xlink:href="#linear-gradient-15"/><linearGradient id="linear-gradient-18" x1="558.13" y1="242.5" x2="568.27" y2="168.15" gradientTransform="translate(-41.59 -171.86) rotate(-1.78)" xlink:href="#linear-gradient-15"/><linearGradient id="linear-gradient-19" x1="389.45" y1="290.98" x2="340.02" y2="381.8" gradientTransform="translate(-41.59 -171.86) rotate(-1.78)" xlink:href="#linear-gradient-7"/><linearGradient id="linear-gradient-20" x1="236.22" y1="373.33" x2="144.09" y2="515.6" xlink:href="#linear-gradient-7"/><linearGradient id="linear-gradient-21" x1="352.27" y1="369.94" x2="159.01" y2="404.16" gradientTransform="translate(-41.59 -171.86) rotate(-1.78)" xlink:href="#linear-gradient-7"/><linearGradient id="linear-gradient-22" x1="437.18" y1="276.37" x2="433.38" y2="313.54" gradientTransform="translate(-41.59 -171.86) rotate(-1.78)" xlink:href="#linear-gradient-7"/><linearGradient id="linear-gradient-23" x1="487.22" y1="283.09" x2="566.63" y2="182.13" gradientTransform="translate(-41.59 -171.86) rotate(-1.78)" xlink:href="#linear-gradient-7"/><linearGradient id="linear-gradient-24" x1="385.65" y1="288.91" x2="336.23" y2="379.73" xlink:href="#linear-gradient-8"/><linearGradient id="linear-gradient-25" x1="445.93" y1="281.48" x2="432.1" y2="306.9" xlink:href="#linear-gradient-8"/><linearGradient id="linear-gradient-26" x1="232.31" y1="370.8" x2="140.18" y2="513.07" xlink:href="#linear-gradient-8"/><linearGradient id="linear-gradient-27" x1="300.99" y1="328.82" x2="272.48" y2="312.11" xlink:href="#linear-gradient-2"/><linearGradient id="linear-gradient-28" x1="266.45" y1="309.16" x2="272.78" y2="312.01" xlink:href="#linear-gradient-2"/><linearGradient id="linear-gradient-29" x1="293.52" y1="336.97" x2="223.82" y2="248.68" xlink:href="#linear-gradient-2"/><linearGradient id="linear-gradient-30" x1="264.11" y1="303.7" x2="217.4" y2="276.32" xlink:href="#linear-gradient-8"/><linearGradient id="linear-gradient-31" x1="207.52" y1="271.49" x2="217.9" y2="276.16" xlink:href="#linear-gradient-8"/><linearGradient id="linear-gradient-32" x1="251.87" y1="317.05" x2="137.69" y2="172.42" xlink:href="#linear-gradient-8"/></defs><g class="cls-4"><g id="Layer_1" data-name="Layer 1"><path class="cls-5" d="M257,366.22c-57.2,18.22-79.84,26.24-112,17.91-14.84-3.84-36-12.26-65.38-7.25-19.93,3.39-46.05,13.38-45.82,24s26.1,19.58,44,22.49c27.57,4.47,47.06-4,48.28.57,1.86,7-43.29,25.24-41.47,37.37,1.71,11.38,44.61,16.3,85.5,7.66C213.3,459.8,217.49,443.29,245,447c33.23,4.5,36.27,29.81,67,31,29.19,1.14,33.47-21.38,67.39-28,37-7.19,45.25,17.07,84.21,18,57.51,1.39,109.46-49.76,105.7-67.2-3-14-43.11-11.31-43.16-17.22-.08-7.7,67.9-4.2,73.06-30.11,2.57-12.86-11.35-27.94-14.65-31.51C550.83,285.46,483.9,294,257,366.22Z" transform="translate(-33.74 -168.48)"/><path class="cls-6" d="M456.6,397.36c58.24,8.15,75.81-.11,80.79-9.53,2.89-5.47,2.94-14,11.33-25.09,7.07-9.32,11.32-8.89,14.25-16,5.09-12.26-5.54-18.73-1.66-30.58,4.25-13,19-11.16,24.81-26.67,3.21-8.48-.9-9.77,1.93-18.21,5.76-17.21,24.35-16.31,30-31.85,3.31-9,1.11-20.54-5-27.17-12.26-13.29-40.43-7.17-56.06,6-2,1.69-17.16,14.81-18.08,33.56-.56,11.32,4.47,16.43.67,23.43-5.35,9.87-18.31,5.15-23.66,13.94-7.26,11.9,11.36,29.07,3.06,42.47-3.21,5.19-6.82,3.93-10,9.88-5.25,9.77,1.49,18.77.47,26.8C508.37,377,497.89,387.81,456.6,397.36Z" transform="translate(-33.74 -168.48)"/><path class="cls-7" d="M559.14,244.92c-7,17.58,5.61,28.16-2.77,42.12-6.8,11.33-18.14,9.41-20.9,19.85-2.65,10,7,14.5,4.79,25.9-1.87,9.4-9.11,9.68-16,22s-3.74,19.57-7.25,27.11c-3.77,8.1-14.94,15.92-45.61,17.31-4.62-.48-9.55-1.08-14.82-1.82,41.29-9.55,51.77-20.36,52.88-29,1-8-5.72-17-.47-26.8,3.18-5.95,6.79-4.69,10-9.88,8.3-13.4-10.32-30.57-3.07-42.47,5.36-8.79,18.32-4.07,23.67-13.94,3.8-7-1.23-12.11-.67-23.43C539.86,233.1,555,220,557,218.29c15.63-13.16,43.8-19.28,56.06-6l.17.2A69.67,69.67,0,0,0,585.8,220C578.11,224,564.7,230.91,559.14,244.92Z" transform="translate(-33.74 -168.48)"/><path class="cls-1" d="M467.61,403.37c19.54-3.72,25.37-9.32,26.52-14.24,1.88-8.07-8.9-13.77-6.85-23,2.37-10.59,18.64-11.82,18.57-18.88-.07-7.64-19.1-8.26-22.35-19.44-2.95-10.14,11.11-15.08,11.89-29.49.93-17.22-18.45-22.46-20.7-42.26-1.53-13.52,6-24.47,11.87-33.06,13.27-19.34,39.19-37.35,67.05-33.65,3.8.5,26,3.44,30.7,16.84,4.78,13.58-9.86,33.73-24.2,44-10.39,7.45-18.78,8.38-19.6,14.69-1.12,8.51,13.38,12.54,14,25.08.33,6.63-3.39,12.05-7,17.38-8.3,12.08-15.61,11.16-17.12,18-2.05,9.42,11,14.12,13.07,28.53,1.48,10.27-3.57,18.83-6.41,23.65C525.93,396.39,498.61,405.87,467.61,403.37Z" transform="translate(-33.74 -168.48)"/><g class="cls-8"><path class="cls-9" d="M591.81,200.08q-18.4,7.88-36.91,15.48c-6.18,2.52-12.31,5.15-18.44,7.76s-12.24,5.3-18.09,8.37a31.24,31.24,0,0,0-7.91,5.51,9.58,9.58,0,0,0-2.2,4,11.75,11.75,0,0,0-.36,4.57,19.91,19.91,0,0,0,3.77,8.68c1.85,2.7,4,5.24,6.08,7.87a61.73,61.73,0,0,1,5.78,8.33,30.56,30.56,0,0,1,2.12,4.7,23.58,23.58,0,0,1,1.14,5.07,22.37,22.37,0,0,1-1.38,10.24,29.23,29.23,0,0,1-5.73,8.51c-1.11,1.24-2.26,2.45-3.27,3.72-.55.62-1,1.29-1.47,1.94l-.62,1-.32.51c-.1.17-.17.36-.26.54l-.52,1.07c-.16.36-.26.75-.4,1.12a11.4,11.4,0,0,0-.36,1.13l-.24,1.17-.12.59a5.61,5.61,0,0,0-.06.59l-.11,1.2-.05.6v.6q0,.6,0,1.2a18.31,18.31,0,0,0,.87,4.7,23.14,23.14,0,0,0,2,4.39c1.61,2.82,3.75,5.43,5.27,8.56a14.15,14.15,0,0,1,1,10.25,16.42,16.42,0,0,1-2.14,4.75,24.64,24.64,0,0,1-3.33,3.92c-2.42,2.38-5.1,4.38-7.26,6.82a16,16,0,0,0-2.66,4,13.58,13.58,0,0,0-1.14,4.62,13,13,0,0,0,.53,4.73,24.23,24.23,0,0,0,2.07,4.42,12.68,12.68,0,0,1,1.82,4.85,8,8,0,0,1-1.24,5.09,14.83,14.83,0,0,1-3.48,3.79,30.07,30.07,0,0,1-4.23,2.8,64.91,64.91,0,0,1-9.2,4.08,164.07,164.07,0,0,1-19.29,5.46c-6.51,1.49-13.08,2.68-19.66,3.78v-.08c6.56-1.22,13.09-2.57,19.57-4.13a163.77,163.77,0,0,0,19.13-5.72,63.56,63.56,0,0,0,9-4.16,29.16,29.16,0,0,0,4.07-2.77,14.54,14.54,0,0,0,3.22-3.57,7.09,7.09,0,0,0,1.05-4.46,11.65,11.65,0,0,0-1.73-4.42,24.46,24.46,0,0,1-2.2-4.61,14.09,14.09,0,0,1-.63-5.15,14.8,14.8,0,0,1,1.2-5.06,17.16,17.16,0,0,1,2.83-4.32c2.26-2.59,4.95-4.63,7.26-6.95a22.76,22.76,0,0,0,3.1-3.72,15,15,0,0,0,1.92-4.35,12.62,12.62,0,0,0-1-9.21c-1.42-2.88-3.58-5.46-5.29-8.42a24.6,24.6,0,0,1-2.15-4.69,20.25,20.25,0,0,1-1-5.11c0-.44,0-.87,0-1.3v-.65l.06-.65.1-1.3c0-.21,0-.43.07-.64l.13-.64.27-1.28a11.44,11.44,0,0,1,.39-1.26c.14-.41.26-.83.44-1.23l.56-1.18a6.45,6.45,0,0,1,.29-.59l.33-.56.68-1.11c.52-.68,1-1.42,1.55-2.06l.81-1,.84-.95,1.67-1.87a27.27,27.27,0,0,0,5.38-8,20.58,20.58,0,0,0,1.24-9.42,22.25,22.25,0,0,0-1.07-4.67,28.05,28.05,0,0,0-2-4.4,62,62,0,0,0-5.64-8.08c-2.07-2.6-4.24-5.15-6.18-8a30.6,30.6,0,0,1-2.61-4.44A16.82,16.82,0,0,1,506,246a13.7,13.7,0,0,1,.4-5.33,11.61,11.61,0,0,1,2.64-4.7,32.81,32.81,0,0,1,8.43-5.87q4.49-2.34,9.09-4.34c3.06-1.36,6.14-2.65,9.22-3.94,6.16-2.58,12.36-5,18.59-7.44Q573,207.05,591.78,200Z" transform="translate(-33.74 -168.48)"/></g><path class="cls-2" d="M470.64,396.42a119.87,119.87,0,0,0,22.69,8.24c20.73,5.23,56.19,8.22,67.84-8,1.44-2,5.22-7.28,4.5-13.63-.75-6.61-5.7-8.5-5.1-12.66.82-5.69,10.57-5.57,20-12.36,8-5.78,17.58-17.74,16.2-31.43-1.52-15-15.25-23.15-16.74-24-10.14-5.8-25.55-7.53-34.9.48-8.27,7.08-8.69,19.13-9,27.08-.63,18,7.13,25.84,1.91,32.29-4.75,5.88-13.23,1.91-19,9.74-2.46,3.34-1.67,5.1-5.48,11.62a52.31,52.31,0,0,1-7.34,9.85C496.22,403.63,472.72,397,470.64,396.42Z" transform="translate(-33.74 -168.48)"/><g class="cls-10"><path class="cls-11" d="M483.7,402.12q-7.15.22-14.38,0l0-.64a220.71,220.71,0,0,0,43.2-2.79c28.4-4.7,31.37-11.06,32.35-13.16,1.49-3.2,1.12-5.89.72-8.74-.45-3.19-1-6.81,1.11-11.73,1.88-4.49,4.43-6.61,6.9-8.66s4.71-3.92,6.38-7.93c2.16-5.17,1.32-9.33.43-13.73a42.71,42.71,0,0,1-1.05-7.94c-.17-11.46,7.32-23.4,22.27-35.49l.4.49c-14.79,12-22.21,23.73-22,35a41,41,0,0,0,1.05,7.83c.9,4.49,1.76,8.74-.47,14.1-1.73,4.15-4.19,6.19-6.56,8.17s-4.91,4.07-6.73,8.41c-2,4.76-1.52,8.14-1.07,11.4.42,2.94.81,5.72-.77,9.1-1,2.17-4.08,8.76-32.81,13.52A218.64,218.64,0,0,1,483.7,402.12Z" transform="translate(-33.74 -168.48)"/></g><path class="cls-12" d="M494.67,387.66,119,419.71a6.12,6.12,0,0,1-6.52-6.17L105.25,181c-.11-3.7,3.65-9.14,10.41-8.73l372.61,9.21c2.46.05,4.53,2.6,4.63,5.69l6,194.54C499,384.78,497.12,387.46,494.67,387.66Z" transform="translate(-33.74 -168.48)"/><path class="cls-13" d="M495.47,414.81,125,454c-6.41.2-11.38-4.43-11.5-8.17L105.92,202.6l6.18-2,381.36,4.63,6.31,203.48C499.86,411.83,497.94,414.56,495.47,414.81Z" transform="translate(-33.74 -168.48)"/><path class="cls-14" d="M507.17,388.68,131.43,416.2c-3.53.3-7.86-6.85-8-10.61l-11.36-205-.68-22a6.27,6.27,0,0,1,6.23-6.7l383,7.18c2.5,0,4.6,2.64,4.7,5.79l6.13,197.69C511.6,385.74,509.66,388.47,507.17,388.68Z" transform="translate(-33.74 -168.48)"/><path class="cls-15" d="M508,416.26,126.44,454.05a6.16,6.16,0,0,1-6.67-6.23L112.1,200.6l393.84,2.68,6.41,206.79C512.45,413.24,510.5,416,508,416.26Z" transform="translate(-33.74 -168.48)"/><path class="cls-16" d="M250.59,434.65,131.16,446.11a5.7,5.7,0,0,1-6.13-5.76l-3-96.2a6.29,6.29,0,0,1,5.75-6.62l119.59-6c3-.15,5.43,2.41,5.53,5.71l2.82,91C255.84,431.46,253.54,434.37,250.59,434.65Z" transform="translate(-33.74 -168.48)"/><path class="cls-17" d="M159,422.52l-18.53,1.61a.38.38,0,0,1-.41-.39l-.15-4.69a.46.46,0,0,1,.39-.46L158.85,417a.39.39,0,0,1,.41.39l.14,4.65A.43.43,0,0,1,159,422.52Z" transform="translate(-33.74 -168.48)"/><path class="cls-15" d="M213.81,428l-73,6.68a.39.39,0,0,1-.42-.39l-.14-4.69a.44.44,0,0,1,.39-.46l73-6.51a.37.37,0,0,1,.39.38l.14,4.55A.43.43,0,0,1,213.81,428Z" transform="translate(-33.74 -168.48)"/><path class="cls-15" d="M137.41,361.44a4.06,4.06,0,0,0-1.65,3.77A3.63,3.63,0,0,0,138.5,368c1.52.37,2-.69,3.6-.64,2.46.06,4.45,2.57,5.31,4.46s.24,2.37.82,4.54c1,3.81,3.85,6,6.56,8.09,2.25,1.74,5.68,3.81,6.27,3.09.21-.26,0-.81-.13-1.14-.51-1.3-1.59-1.54-3.07-2.69-1.06-.81-2.4-1.85-2.22-2.75s1.82-1.56,3.06-1.25A4,4,0,0,1,161,381.8c.29.51.26,1.2.52,1.21s.36-.28.44-.52c.2-.63-.21-1.2-.37-1.66-.36-1.07.38-2.31,1.13-3.54,1.24-2.05,2-2.12,4-4.55,1.3-1.62,1.95-2.45,2-3.58a4.64,4.64,0,0,0-1.76-3.47c-1.27-1.07-3.39-1.72-4.25-.84s.11,2.16-.79,3.3a2.64,2.64,0,0,1-2.67.8,3.05,3.05,0,0,1-2.14-2.71,2.79,2.79,0,0,1,.51-2c.18-.22.63-.66,2.16-.82,2.16-.24,2.63.49,3.91.1,1.07-.33,2.34-1.32,2.3-2.22s-1.86-1-4-3.28c-.84-.87-1.52-1.59-1.5-2.6a4.53,4.53,0,0,1,1.71-2.87c1.09-.94,2.06-1.71,2.06-1.71.27-.21.67-.52.61-.79s-.25-.28-.65-.38a4.58,4.58,0,0,0-2.17,0c-1.45.43-1.9,1.21-3.65,2.35a13.54,13.54,0,0,1-3.55,1.73c-1.88.56-2.54.23-3.45,1s-.58,1.35-1.48,2.52-2.11,1.67-3.94,2.39a20,20,0,0,1-4.07,1.08C139.06,361.15,138.46,360.68,137.41,361.44Z" transform="translate(-33.74 -168.48)"/><path class="cls-15" d="M167.93,350.32c-2,.68-3.69,1.27-4,2.57a2.18,2.18,0,0,0,.58,2c1.07.9,2.6-.72,3.77.05.62.42.41,1,1.21,4.27a9.2,9.2,0,0,0,1.72,4.1c.43.51,1,1.23,1.62,1.07.86-.23.47-2.07,1.79-3.48.47-.5.56-.32,2.8-1.62,1.31-.75,2-1.14,2.11-1.43.7-1.49-1.35-3.13-.6-4.9a18.74,18.74,0,0,1,1.15-1.58c1.13-1.62,1.11-1.86,1.08-2-.15-.5-1-.49-3.31-.64-3.77-.25-4.08-.46-5.19-.12-.74.23-.93.43-2.51,1C168.9,350.06,168.76,350,167.93,350.32Z" transform="translate(-33.74 -168.48)"/><path class="cls-15" d="M164,387.29a4.74,4.74,0,0,0-1.31,3.07c-.18,1.52.27,2.47,1.11,4.9a34,34,0,0,1,1.63,5.26c.15,1.32-.07,1.57-.81,6.84-.55,3.92-.59,4.93,0,5.6.94,1,2.88.71,3,.44s-.39-.21-.72-.63c-.74-.93-.28-2.59-.16-3,.48-1.73,1.47-2.53,3.06-4.33a20.54,20.54,0,0,0,4-5.48,10.57,10.57,0,0,0,1-5.85A9.11,9.11,0,0,0,173,390a8.23,8.23,0,0,0-4.61-3.05C167.15,386.59,165.34,386.14,164,387.29Z" transform="translate(-33.74 -168.48)"/><path class="cls-15" d="M182.55,376.42a21.84,21.84,0,0,0-1.68,4.71c-.24,1.36-.41,4.41,1,5.49s2.77-.58,4.61.48a5.1,5.1,0,0,1,1.89,2.46c1.13,2.26.67,3.59,1.21,6.55.25,1.39,1.06,5.82,2.75,6,1.41.16,2.84-2.7,3.08-3.18a17.08,17.08,0,0,0,1.28-5.07c.56-3.4.3-3.85,1-4.85.86-1.27,1.95-1.49,2.15-2.68a3,3,0,0,0-.56-2.06c-1-1.7-2.27-1.41-3.2-3-.53-.94-.71-2.08-.51-2.21s.71.56,1,.89c.78,1,.7,1.39,1.17,1.89a3.07,3.07,0,0,0,2.63.7c.72-.15,2-.68,2.12-1.58.11-.7-.51-1.39-1.24-2.23-.59-.67-1-.95-1-1.09s.58,0,1.94.41,2.21.67,2.31.73c.5.27.93.65,2.38,3s2,3.62,2.33,3.49c.15-.06.11-.4.19-1.57.12-1.75.19-2.64.58-3.29s1-1.33,1.8-1.28c.46,0,1,.76,2.16,2.21s1.48,1.93,2.21,2.28c.39.18,1.07.51,1.6.15a2.12,2.12,0,0,0,.48-2.26c-.33-.92-1.16-1-1.15-1.54,0-.83,1.7-1.49,1.84-1.55,1.1-.41,1.39-.05,1.94-.47a3.53,3.53,0,0,0,.87-3.3c-.25-1.18-1-1.57-.79-2.1s.77-.33,1.92-.74a4.78,4.78,0,0,0,2.8-1.87,5.27,5.27,0,0,0,.53-2.45,11.55,11.55,0,0,0-.07-2.15c-.19-1.57-.5-1.66-.36-2.13.29-1,1.87-.85,4.84-2,1.69-.65,2.91-1.37,3-1.13s-1.82,1.34-1.9,3c-.06,1.26,1,2.47,1.4,2.32s.06-1.1.64-2.59a4.45,4.45,0,0,1,1.27-2c.87-.68,1.41-.28,2.19-1,.62-.58.45-1,1-1.6,1.18-1.37,3.26-.59,3.38-1.08s-1.52-1.74-3.59-1.92c-1.85-.16-2.1.72-4.18.86-1.19.08-2.63-.35-5.53-1.21a12.69,12.69,0,0,0-4-.84c-1,0-1.05.16-2.12.13a6,6,0,0,1-3.94-1.12c-.95-.8-.68-1.33-1.46-1.8-1.25-.76-2.91,0-4.32.72a22.44,22.44,0,0,0-4.33,3c-2.08,1.68-2.76,2.49-3.94,2.41-.88-.06-1.07-.55-2-.48-.8.05-1,.39-2.63,1.24s-2.33,1.23-3,1.14c-1.06-.14-1.13-.94-2.28-1.36s-2.39,0-3.79.57c-1.74.69-3.44,1.37-4.23,3.06s0,3.26-.94,4.1c-.81.69-1.69-.08-2.43.63-.9.87-.56,2.88-.39,3.94.35,2.09,1.08,2.56.89,4.05A7.32,7.32,0,0,1,182.55,376.42Z" transform="translate(-33.74 -168.48)"/><path class="cls-15" d="M200.07,392.92c-.44,0-1.11,1.95-.88,3.75,0,.1.2,1.5.61,1.52s.73-1.17.76-1.29a4.85,4.85,0,0,0,.13-1.91C200.66,394.69,200.48,392.94,200.07,392.92Z" transform="translate(-33.74 -168.48)"/><path class="cls-15" d="M215.62,387.35c0,.09.09.22.45.5a6.47,6.47,0,0,0,2.17,1.33c.66.2,2.29.54,2.62-.13a1.49,1.49,0,0,0-.66-1.57c-.55-.37-.95,0-2.25,0S215.69,387.14,215.62,387.35Z" transform="translate(-33.74 -168.48)"/><path class="cls-15" d="M220.08,383.51c-.27.07-.18.64-.67,1.94-.23.6-.36.77-.28,1,.19.44,1.22.57,1.71,0a1.88,1.88,0,0,0,.13-1.69C220.81,384.15,220.39,383.43,220.08,383.51Z" transform="translate(-33.74 -168.48)"/><path class="cls-15" d="M225.7,388a2.9,2.9,0,0,0,1.42,1c.3.13,2.51,1,3,.18a1.31,1.31,0,0,0-.1-1.2c-.29-.49-.78-.58-1.6-.76-2.43-.52-3-.82-3.17-.5S225.58,387.85,225.7,388Z" transform="translate(-33.74 -168.48)"/><path class="cls-15" d="M221.41,381.05c-.29.12-.23,1.57.32,2.68.29.58.79,1.25,1,1.14s.08-1.14-.12-1.81C222.33,382.05,221.68,380.94,221.41,381.05Z" transform="translate(-33.74 -168.48)"/><path class="cls-15" d="M223.5,374.1c0-.34.76-.31,1.73-1.06a6.78,6.78,0,0,0,2.15-3c.1-.28.2-.64.29-.63a3.11,3.11,0,0,1,.05,1.61,4.89,4.89,0,0,1-2,3.3,1.85,1.85,0,0,1-1,.34C224.17,374.71,223.51,374.41,223.5,374.1Z" transform="translate(-33.74 -168.48)"/><path class="cls-15" d="M222.05,394c-1.29,1.37-2,1.2-2.2,1.93s.73,1.13.94,2.76c.14,1-.13,1.61.12,1.74s.93-1.19,2.32-1.8a3.35,3.35,0,0,1,2.79.05c.72.41.64.85,1.82,1.87.76.66,1.15,1,1.6.88.76-.16,1.15-1.38,1.39-2.12a6.58,6.58,0,0,0,.25-3.65c-.18-.7-.28-.52-2.47-3.64-.61-.86-.85-1.23-1.38-1.44a2.94,2.94,0,0,0-2.42.38,7.36,7.36,0,0,0-1.47,1.46C222.5,393.32,222.56,393.41,222.05,394Z" transform="translate(-33.74 -168.48)"/><path class="cls-18" d="M154.33,370.56a11.67,11.67,0,0,1-4.56-5.41c-.49-1.2-1.92-4.73-.31-6.94a5,5,0,0,1,3.39-1.73c.7-.12,2.86-.48,4.26.84,2.25,2.09.83,6.82.55,7.78A12.86,12.86,0,0,1,154.33,370.56Z" transform="translate(-33.74 -168.48)"/><path class="cls-16" d="M156,361.45a2.76,2.76,0,0,1-2.48,2.92,2.57,2.57,0,0,1-2.66-2.6,2.78,2.78,0,0,1,2.49-2.93A2.59,2.59,0,0,1,156,361.45Z" transform="translate(-33.74 -168.48)"/><path class="cls-19" d="M171.05,400.56a11.3,11.3,0,0,1-4.49-5.31c-.49-1.19-1.91-4.67-.32-6.9a4.94,4.94,0,0,1,3.35-1.75c.69-.13,2.82-.52,4.2.77,2.22,2.05.82,6.77.54,7.72A12.92,12.92,0,0,1,171.05,400.56Z" transform="translate(-33.74 -168.48)"/><path class="cls-16" d="M172.73,391.49a2.8,2.8,0,0,1-2.45,2.94,2.52,2.52,0,0,1-2.63-2.56,2.81,2.81,0,0,1,2.46-2.94A2.53,2.53,0,0,1,172.73,391.49Z" transform="translate(-33.74 -168.48)"/><path class="cls-20" d="M223.78,395.46a11.19,11.19,0,0,1-4.3-5.2c-.46-1.17-1.82-4.58-.3-6.75a4.67,4.67,0,0,1,3.19-1.71c.66-.12,2.7-.49,4,.77,2.12,2,.79,6.62.52,7.55A12.66,12.66,0,0,1,223.78,395.46Z" transform="translate(-33.74 -168.48)"/><path class="cls-16" d="M225.38,386.59a2.71,2.71,0,0,1-2.34,2.87,2.44,2.44,0,0,1-2.51-2.51,2.69,2.69,0,0,1,2.34-2.86A2.44,2.44,0,0,1,225.38,386.59Z" transform="translate(-33.74 -168.48)"/><path class="cls-21" d="M207.89,378a11.37,11.37,0,0,1-4.35-5.27c-.47-1.18-1.85-4.62-.31-6.79a4.76,4.76,0,0,1,3.24-1.7c.67-.12,2.73-.48,4.08.8,2.14,2,.79,6.68.52,7.61A12.52,12.52,0,0,1,207.89,378Z" transform="translate(-33.74 -168.48)"/><path class="cls-16" d="M209.52,369.08a2.72,2.72,0,0,1-2.38,2.87,2.49,2.49,0,0,1-2.54-2.55,2.69,2.69,0,0,1,2.38-2.86A2.49,2.49,0,0,1,209.52,369.08Z" transform="translate(-33.74 -168.48)"/><path class="cls-16" d="M252.9,308.89c.11,3.3-2.2,6.07-5.15,6.2l-119.52,5.16a6.06,6.06,0,0,1-6.14-6.06l-3-96.17a5.9,5.9,0,0,1,5.75-6.3l119.7.26c2.95,0,5.42,2.69,5.53,6Z" transform="translate(-33.74 -168.48)"/><path class="cls-17" d="M155.21,299.77l-18.55.64a.41.41,0,0,1-.42-.41l-.14-4.69a.41.41,0,0,1,.38-.44l18.56-.6a.41.41,0,0,1,.41.41l.15,4.65A.43.43,0,0,1,155.21,299.77Z" transform="translate(-33.74 -168.48)"/><path class="cls-15" d="M210.09,308.07,137,311a.41.41,0,0,1-.41-.41l-.15-4.69a.43.43,0,0,1,.39-.44l73.11-2.71a.39.39,0,0,1,.39.4l.14,4.54A.4.4,0,0,1,210.09,308.07Z" transform="translate(-33.74 -168.48)"/><polygon class="cls-15" points="207.49 93.89 101.69 96 100.45 56.09 206.31 55.75 207.49 93.89"/><polygon class="cls-22" points="208.14 114.72 102.36 117.8 101.93 103.71 207.72 101.26 208.14 114.72"/><path class="cls-16" d="M349,425.22l-68.73,6.59c-2.8.27-5.16-2.1-5.26-5.29l-1.88-60.62c-.1-3.18,2.1-5.91,4.91-6.09l68.8-4.38c2.63-.17,4.83,2.19,4.93,5.26l1.81,58.5C353.64,422.27,351.59,425,349,425.22Z" transform="translate(-33.74 -168.48)"/><polygon class="cls-23" points="319.24 233.01 240.65 239.7 240.71 241.55 319.3 234.79 319.24 233.01"/><polygon class="cls-23" points="277.03 189.22 278.54 237.78 280.03 237.65 278.52 189.13 277.03 189.22"/><polygon class="cls-15" points="271.22 218.91 248.86 220.63 248.14 197.26 270.5 195.77 271.22 218.91"/><polygon class="cls-15" points="271.61 231.55 249.26 233.39 249 225.15 271.36 223.38 271.61 231.55"/><path class="cls-15" d="M294.58,417.53l-11,1a.24.24,0,0,1-.25-.25l-.1-3.14a.27.27,0,0,1,.23-.29l11-1a.24.24,0,0,1,.25.26l.1,3.11A.28.28,0,0,1,294.58,417.53Z" transform="translate(-33.74 -168.48)"/><path class="cls-15" d="M327.51,421.45l-43.71,4.08a.25.25,0,0,1-.25-.26l-.09-3.13a.28.28,0,0,1,.23-.3l43.71-4a.25.25,0,0,1,.24.25l.09,3.07A.26.26,0,0,1,327.51,421.45Z" transform="translate(-33.74 -168.48)"/><polygon class="cls-23" points="292.34 229.25 286.09 229.77 285.01 194.81 291.26 194.39 292.34 229.25"/><polygon class="cls-23" points="302.74 228.4 296.55 228.91 295.47 194.11 301.67 193.7 302.74 228.4"/><polygon class="cls-23" points="313.05 227.55 306.91 228.05 305.83 193.42 311.98 193.01 313.05 227.55"/><g class="cls-24"><polygon class="cls-25" points="292.34 229.25 286.09 229.77 285.53 211.61 291.78 211.15 292.34 229.25"/><polygon class="cls-26" points="302.74 228.4 296.55 228.91 295.72 202.19 301.92 201.75 302.74 228.4"/><polygon class="cls-27" points="313.05 227.55 306.91 228.05 306.18 204.52 312.32 204.08 313.05 227.55"/></g><path class="cls-16" d="M430,417.44l-63.62,6.1c-2.59.25-4.77-2-4.87-5.1l-1.8-58.28c-.1-3.06,1.93-5.68,4.53-5.85L428,350.26c2.44-.16,4.48,2.12,4.58,5.08l1.74,56.32C434.36,414.62,432.47,417.21,430,417.44Z" transform="translate(-33.74 -168.48)"/><path class="cls-16" d="M382.44,410.28l-12.34,1.11a.23.23,0,0,1-.24-.25l-.1-3.25a.26.26,0,0,1,.22-.29l12.34-1.1a.23.23,0,0,1,.24.25l.1,3.24A.26.26,0,0,1,382.44,410.28Z" transform="translate(-33.74 -168.48)"/><path class="cls-15" d="M395.61,416.24l-25.29,2.38a.24.24,0,0,1-.24-.25l-.1-3.26a.26.26,0,0,1,.22-.29l25.3-2.33a.23.23,0,0,1,.23.25l.1,3.21A.26.26,0,0,1,395.61,416.24Z" transform="translate(-33.74 -168.48)"/><polygon class="cls-23" points="338.06 224.55 334.24 224.86 333.22 191.84 337.04 191.59 338.06 224.55"/><polygon class="cls-23" points="343.73 224.09 339.93 224.4 338.9 191.47 342.71 191.21 343.73 224.09"/><polygon class="cls-23" points="349.37 223.62 345.58 223.93 344.56 191.09 348.35 190.84 349.37 223.62"/><polygon class="cls-23" points="354.97 223.16 351.21 223.47 350.19 190.71 353.96 190.46 354.97 223.16"/><polygon class="cls-23" points="360.55 222.71 356.81 223.01 355.79 190.34 359.54 190.09 360.55 222.71"/><polygon class="cls-23" points="366.1 222.25 362.37 222.56 361.36 189.97 365.09 189.72 366.1 222.25"/><polygon class="cls-23" points="371.62 221.8 367.91 222.1 366.9 189.6 370.61 189.35 371.62 221.8"/><polygon class="cls-23" points="377.11 221.35 373.42 221.65 372.42 189.23 376.1 188.99 377.11 221.35"/><polygon class="cls-23" points="382.57 220.9 378.9 221.2 377.9 188.87 381.57 188.63 382.57 220.9"/><polygon class="cls-23" points="388 220.46 384.36 220.76 383.36 188.51 387 188.26 388 220.46"/><polygon class="cls-23" points="393.41 220.01 389.78 220.31 388.78 188.15 392.41 187.9 393.41 220.01"/><g class="cls-28"><polygon class="cls-29" points="338.06 224.55 334.24 224.86 333.71 207.72 337.53 207.43 338.06 224.55"/><polygon class="cls-29" points="343.73 224.09 339.93 224.4 339.14 199.11 342.95 198.84 343.73 224.09"/><polygon class="cls-29" points="349.37 223.62 345.58 223.93 344.89 201.61 348.67 201.34 349.37 223.62"/><polygon class="cls-29" points="354.97 223.16 351.21 223.47 350.51 200.96 354.27 200.69 354.97 223.16"/><polygon class="cls-29" points="360.55 222.71 356.81 223.01 356.03 197.92 359.77 197.66 360.55 222.71"/><polygon class="cls-29" points="366.1 222.25 362.37 222.56 361.69 200.41 365.41 200.15 366.1 222.25"/><polygon class="cls-29" points="371.62 221.8 367.91 222.1 367.17 198.18 370.88 197.91 371.62 221.8"/><polygon class="cls-29" points="377.11 221.35 373.42 221.65 372.75 200.17 376.44 199.91 377.11 221.35"/><polygon class="cls-29" points="382.57 220.9 378.9 221.2 378.22 199.23 381.89 198.97 382.57 220.9"/><polygon class="cls-29" points="388 220.46 384.36 220.76 383.59 195.99 387.24 195.73 388 220.46"/><polygon class="cls-29" points="393.41 220.01 389.78 220.31 389.06 197.03 392.69 196.77 393.41 220.01"/></g><polygon class="cls-23" points="399.99 226.13 327.25 232.33 327.31 234.1 400.05 227.85 399.99 226.13"/><path class="cls-16" d="M504.16,410.33,445,416c-2.4.23-4.43-2-4.52-4.93l-1.74-56.15c-.09-2.95,1.79-5.47,4.2-5.62l59.18-3.77c2.27-.15,4.17,2.05,4.26,4.91l1.68,54.33C508.18,407.62,506.42,410.11,504.16,410.33Z" transform="translate(-33.74 -168.48)"/><polygon class="cls-23" points="473.88 219.84 406.28 225.6 406.33 227.31 473.93 221.5 473.88 219.84"/><path class="cls-15" d="M465.67,403l-18.73,1.7a.24.24,0,0,1-.23-.26l-.09-2.92a.26.26,0,0,1,.21-.29l18.73-1.66c.12,0,.22.1.23.25l.09,2.89A.27.27,0,0,1,465.67,403Z" transform="translate(-33.74 -168.48)"/><path class="cls-15" d="M488.46,407.38l-41.32,3.87c-.12,0-.22-.1-.23-.25l-.09-2.92a.27.27,0,0,1,.22-.29l41.31-3.8c.12,0,.22.09.22.24l.09,2.87A.26.26,0,0,1,488.46,407.38Z" transform="translate(-33.74 -168.48)"/><path class="cls-23" d="M485.43,371.25a3.24,3.24,0,0,1-2.62,3.51c-1.51.12-2.78-1.27-2.83-3.1a3.23,3.23,0,0,1,2.62-3.52C484.11,368,485.37,369.42,485.43,371.25Z" transform="translate(-33.74 -168.48)"/><path class="cls-30" d="M482.72,375.25a2.85,2.85,0,0,1-2-.75,3.92,3.92,0,0,1-1.23-2.83,3.71,3.71,0,0,1,3.07-4,2.82,2.82,0,0,1,2.11.75,4,4,0,0,1,1.23,2.82c.06,2.08-1.31,3.88-3.06,4Zm0-6.63h-.08a2.75,2.75,0,0,0-2.18,3,3,3,0,0,0,.91,2.14,1.83,1.83,0,0,0,1.4.5,2.75,2.75,0,0,0,2.17-3,2.9,2.9,0,0,0-.91-2.13A1.81,1.81,0,0,0,482.72,368.62Z" transform="translate(-33.74 -168.48)"/><polygon class="cls-15" points="436.05 189.78 412.13 191.43 411.98 186.54 435.9 184.94 436.05 189.78"/><polygon class="cls-17" points="462.57 209.35 453.14 210.1 453.03 206.43 462.46 205.7 462.57 209.35"/><path class="cls-16" d="M272.26,339.37l-3.62-116.75a5.87,5.87,0,0,1,5.8-6.05l206.29-2.85a5.88,5.88,0,0,1,5.95,5.7L490,326a5.88,5.88,0,0,1-5.5,6l-206,13A5.88,5.88,0,0,1,272.26,339.37Z" transform="translate(-33.74 -168.48)"/><path class="cls-31" d="M134.93,186a3.45,3.45,0,0,1-3.4,3.7,3.83,3.83,0,0,1-3.64-3.79,3.45,3.45,0,0,1,3.41-3.71A3.85,3.85,0,0,1,134.93,186Z" transform="translate(-33.74 -168.48)"/><path class="cls-31" d="M148.39,186.13a3.43,3.43,0,0,1-3.36,3.69,3.81,3.81,0,0,1-3.6-3.78,3.43,3.43,0,0,1,3.37-3.68A3.81,3.81,0,0,1,148.39,186.13Z" transform="translate(-33.74 -168.48)"/><path class="cls-31" d="M161.71,186.31a3.41,3.41,0,0,1-3.33,3.66,3.78,3.78,0,0,1-3.56-3.75,3.41,3.41,0,0,1,3.34-3.67A3.79,3.79,0,0,1,161.71,186.31Z" transform="translate(-33.74 -168.48)"/><path class="cls-32" d="M491.06,333.68,268.45,347a5.21,5.21,0,0,1-5.25-4.81l-3.86-124.54a5.2,5.2,0,0,1,4.88-5.19l223.12,1.06c1.82,0,3.35,1.86,3.42,4.15l3.46,111.64C494.29,331.63,492.88,333.58,491.06,333.68Z" transform="translate(-33.74 -168.48)"/><path class="cls-16" d="M494.82,334,269.27,347.06a4.28,4.28,0,0,1-4.26-4.43L261.12,217c-.08-2.58,1.7-4.67,4-4.66l226,.49c1.84,0,3.38,1.89,3.46,4.2L498,329.63C498.09,331.94,496.66,333.91,494.82,334Z" transform="translate(-33.74 -168.48)"/><polygon class="cls-15" points="392.16 157.97 242.54 165.79 239.13 55.93 388.99 55.45 392.16 157.97"/><polygon class="cls-15" points="451.61 64.47 400.93 64.86 400.64 55.4 451.32 55.24 451.61 64.47"/><polygon class="cls-15" points="452.01 77.27 401.34 77.98 401.05 68.53 451.72 68.05 452.01 77.27"/><polygon class="cls-15" points="454.4 154.4 403.79 157.04 401.68 89.07 452.34 88.09 454.4 154.4"/><polygon class="cls-16" points="454.87 142.55 402.39 144.98 402.31 142.44 454.79 140.07 454.87 142.55"/><path class="cls-33" d="M444.7,322.48s-3.87-2.75-3.09-5,2.28-1.44,3.07-.81c1.28-1,1.82-.69,2.45-.34S448.68,319.19,444.7,322.48Z" transform="translate(-33.74 -168.48)"/><polygon class="cls-16" points="451.51 152.01 417.69 153.73 417.5 147.43 451.32 145.81 451.51 152.01"/><path class="cls-15" d="M489.35,334.57a.24.24,0,0,1-.24-.23.24.24,0,0,1,.22-.25l5.48-.32c1.7-.09,3-1.95,3-4.13l-3.49-112.59c-.07-2.19-1.51-4-3.22-4h-6.6a.23.23,0,0,1-.23-.24.24.24,0,0,1,.24-.24l6.59,0c2,0,3.62,2,3.69,4.42l3.49,112.59c.08,2.44-1.45,4.52-3.41,4.63l-5.48.32Z" transform="translate(-33.74 -168.48)"/><polygon class="cls-16" points="307.61 90.85 308.53 120.51 333.92 106.62 307.61 90.85"/><path class="cls-34" d="M545.5,237.74l-30.62,53.77-98.43,1.94-41,85.78-112.54,7.43-55.67,91.9a6.2,6.2,0,0,1-4.59,2.94l-7.61.88c-3.45.65-10.88-.17-9.85-3.53L222,388l32.11-15.58,109.4-7.58,38.87-84.29L503,276.36l32.14-52.28Z" transform="translate(-33.74 -168.48)"/><polygon class="cls-35" points="451.87 74.67 433.52 66.92 453.55 62.19 451.87 74.67"/><polygon class="cls-36" points="520.22 55.02 530.12 68.69 509.12 69.34 501.75 60.69 520.22 55.02"/><polygon class="cls-37" points="530.4 6.23 521.43 0 519.26 52.75 523.27 59.4 530.12 68.69 530.4 6.23"/><polygon class="cls-38" points="289.42 191.56 335.23 202.57 376.25 116.79 330.44 105.78 289.42 191.56"/><path class="cls-39" d="M152.37,473.89l34.3,8.24a8.57,8.57,0,0,0,9.33-3.89l60.43-99.76-45.81-11L149.84,467.81A4.07,4.07,0,0,0,152.37,473.89Z" transform="translate(-33.74 -168.48)"/><polygon class="cls-40" points="176.88 199 222.69 210 335.23 202.57 289.42 191.56 176.88 199"/><polygon class="cls-41" points="330.44 105.78 376.25 116.79 474.68 114.85 428.87 103.84 330.44 105.78"/><polygon class="cls-42" points="433.52 66.92 450.71 65.48 428.87 103.84 474.68 114.85 505.4 60.9 523.27 59.4 521.43 0 433.52 66.92"/><g class="cls-43"><path class="cls-44" d="M338.92,356.49c12.73-10.89,24.77-4.88,32.86-13.7,6.91-7.54-.67-13.28,6.94-31.59,6.2-14.92,15.74-22,17.66-23.37a45.72,45.72,0,0,1,7-4.15l-39.2-9.42-41,85.78,10.22,2.46A34.54,34.54,0,0,1,338.92,356.49Z" transform="translate(-33.74 -168.48)"/></g><path class="cls-45" d="M415.32,274.88c-8.3.82-9.78,1.18-9.78,1.57,0,1.16,13.39,3,27,3,12.14-.06,14.22-1.6,27.23-1.16,8.46.29,14.16,1.16,14.28.51s-7.81-3.41-16.32-4.88C446.17,271.87,435.72,272.85,415.32,274.88Z" transform="translate(-33.74 -168.48)"/><path class="cls-46" d="M189.06,430.55c6.68-11.68,8.91-23.44,21-29.49,9.23-4.64,15.71-1.65,23.86-7.4,6.35-4.48,9.66-11.39,11.45-17.85l-34.71-8.33-58.37,96.35C173.09,452.92,183.44,440.4,189.06,430.55Z" transform="translate(-33.74 -168.48)"/><path class="cls-47" d="M290.69,312.78a4,4,0,0,0,3.41-7.26l-.29-.12a24.23,24.23,0,0,0,.66-3.31l.32,0a4.19,4.19,0,0,0,3.55-4.38,3.55,3.55,0,0,0-3.95-3.48,1.65,1.65,0,0,0-.32.06,21,21,0,0,0-1-3.12l.28-.19a4.19,4.19,0,0,0,1.1-5.53,3.56,3.56,0,0,0-5.2-.82l-.26.21a19.6,19.6,0,0,0-2.37-2.08l.16-.3c.94-2,2.18-4.2.32-5-4.32-1.94-6.08-.11-7,1.9a2.88,2.88,0,0,0-.13.31,19.67,19.67,0,0,0-3.12-.5v-.33c-.11-2.17.5-3.36-1.59-3.34-4.55.06-6,2.08-5.92,4.25,0,.11,0,.22,0,.33a20.9,20.9,0,0,0-3,1.23c0-.09-.1-.19-.16-.28a3.56,3.56,0,0,0-5.2-.82,4.19,4.19,0,0,0-1.1,5.53l.18.26a22.78,22.78,0,0,0-2.12,2.63,1.91,1.91,0,0,0-.28-.15,4,4,0,0,0-3.41,7.25l.3.12a22.71,22.71,0,0,0-.67,3.32l-.31,0a4.19,4.19,0,0,0-3.56,4.38,3.56,3.56,0,0,0,4,3.47l.32-.05a20.47,20.47,0,0,0,1,3.11l-.28.19a4.19,4.19,0,0,0-1.1,5.53c1.13,1.76,4.72,2.48,6.46,1.18.09-.07-1.09-.5-1-.57a18.19,18.19,0,0,0,2.38,2.08c-.06.1-.11.2-.16.3a3.71,3.71,0,1,0,6.7,3.15c.05-.11.09-.21.13-.32a18.48,18.48,0,0,0,3.11.5c0,.11,0,.22,0,.33a3.55,3.55,0,0,0,4,3.48,4.19,4.19,0,0,0,3.55-4.38l0-.34a21.86,21.86,0,0,0,3-1.23,2.54,2.54,0,0,0,.16.28,3.55,3.55,0,0,0,5.2.82,4.19,4.19,0,0,0,1.1-5.53,2.35,2.35,0,0,0-.19-.25,23.74,23.74,0,0,0,2.13-2.63Zm-22.69,1c-6.72-3.15-9.4-11.61-6-18.88s11.63-10.62,18.35-7.46,9.4,11.6,6,18.88S274.71,316.92,268,313.77Z" transform="translate(-33.74 -168.48)"/><path class="cls-48" d="M294.79,302.07a4.19,4.19,0,0,0,3.55-4.38,3.55,3.55,0,0,0-3.95-3.48,1.65,1.65,0,0,0-.32.06,21,21,0,0,0-1-3.12l.28-.19c1.74-1.3,3.84-4.38,2.54-6-2.48-3.1-4.9-1.65-6.64-.35l-.26.21a19.6,19.6,0,0,0-2.37-2.08l.16-.3a4.15,4.15,0,0,0,.13-3.27c-1.62,3.08-3.23,6.16-4.79,9.27,5.39,3.7,7.31,11.27,4.21,17.87a14.56,14.56,0,0,1-13.52,8.63c-.22.64-.44,1.28-.68,1.9-.65,1.71-1.4,3.39-2.15,5.06.51.08,1,.14,1.52.18,0,.11,0,.22,0,.33.11,2.17,1.48,4,5.24,3.66,2.08-.18,2.37-2.39,2.26-4.56l0-.34a21.86,21.86,0,0,0,3-1.23,2.54,2.54,0,0,0,.16.28c1.13,1.76,4.89,2.4,6.63,1.1s.8-4.05-.33-5.81c-.06-.09-.13-.17-.19-.25a23.74,23.74,0,0,0,2.13-2.63l.27.15a4,4,0,0,0,3.41-7.26l-.29-.12a24.23,24.23,0,0,0,.66-3.31Z" transform="translate(-33.74 -168.48)"/><path class="cls-49" d="M292.66,312.94a4,4,0,0,0,3.41-7.26l-.3-.11a23,23,0,0,0,.67-3.32l.31,0a4.19,4.19,0,0,0,3.56-4.38,3.57,3.57,0,0,0-4-3.48l-.32.06a21,21,0,0,0-1-3.12l.28-.19a4.19,4.19,0,0,0,1.1-5.53,3.55,3.55,0,0,0-5.2-.82L291,285a19,19,0,0,0-2.38-2.08,2.11,2.11,0,0,0,.16-.3,3.71,3.71,0,1,0-6.7-3.14c-.05.1-.09.21-.13.31a18.45,18.45,0,0,0-3.11-.49c0-.11,0-.22,0-.33a3.55,3.55,0,0,0-3.95-3.48,4.19,4.19,0,0,0-3.55,4.38l0,.33a20.75,20.75,0,0,0-3,1.24l-.16-.29a3.55,3.55,0,0,0-5.2-.82,4.19,4.19,0,0,0-1.1,5.53,2.48,2.48,0,0,0,.19.26,22.85,22.85,0,0,0-2.13,2.63l-.27-.15a4,4,0,0,0-3.41,7.26l.29.11a24.37,24.37,0,0,0-.66,3.32l-.32,0a4.19,4.19,0,0,0-3.55,4.38,3.55,3.55,0,0,0,4,3.48l.32-.06a21,21,0,0,0,1,3.12l-.28.18a4.19,4.19,0,0,0-1.1,5.53,3.54,3.54,0,0,0,5.2.82,1.71,1.71,0,0,0,.26-.21,19.68,19.68,0,0,0,2.37,2.09c-.05.09-.11.19-.16.3a3.71,3.71,0,1,0,6.7,3.14c0-.1.09-.21.13-.31a18.57,18.57,0,0,0,3.12.49v.33a3.55,3.55,0,0,0,3.95,3.48,4.19,4.19,0,0,0,3.56-4.38,3.31,3.31,0,0,0,0-.33,21,21,0,0,0,3-1.24l.16.29a3.56,3.56,0,0,0,5.2.82,4.21,4.21,0,0,0,1.1-5.54l-.18-.25a22.78,22.78,0,0,0,2.12-2.63Zm-22.7,1c-6.72-3.15-9.4-11.61-6-18.88s11.63-10.62,18.34-7.46,9.4,11.6,6,18.88S276.68,317.08,270,313.93Z" transform="translate(-33.74 -168.48)"/><path class="cls-50" d="M245.08,286.78a6.59,6.59,0,0,0,5.58-11.89l-.48-.19a38.39,38.39,0,0,0,1.09-5.43l.51,0a6.87,6.87,0,0,0,5.82-7.17,5.83,5.83,0,0,0-6.47-5.7l-.53.1a34.13,34.13,0,0,0-1.62-5.11,3.37,3.37,0,0,0,.46-.31,6.86,6.86,0,0,0,1.8-9.06,5.82,5.82,0,0,0-8.52-1.34l-.41.35a30.16,30.16,0,0,0-3.89-3.41c.09-.16.18-.33.26-.5,1.54-3.28,3.57-6.87.52-8.25-7.06-3.18-10-.18-11.5,3.1a4.71,4.71,0,0,0-.21.52,29.85,29.85,0,0,0-5.11-.81,5,5,0,0,0,0-.55c-.18-3.55.82-5.51-2.6-5.47-7.46.09-9.87,3.4-9.69,6.95,0,.19,0,.37,0,.55a34.17,34.17,0,0,0-5,2c-.08-.16-.17-.31-.26-.46a5.82,5.82,0,0,0-8.52-1.35,6.86,6.86,0,0,0-1.8,9.06,4.5,4.5,0,0,0,.3.42,37.66,37.66,0,0,0-3.48,4.31,4,4,0,0,0-.46-.24,6.58,6.58,0,0,0-5.58,11.88,4.78,4.78,0,0,0,.48.19,37.12,37.12,0,0,0-1.08,5.44,4.41,4.41,0,0,0-.52,0,6.87,6.87,0,0,0-5.82,7.18,5.82,5.82,0,0,0,6.48,5.69l.52-.09a34,34,0,0,0,1.62,5.1l-.46.31a6.87,6.87,0,0,0-1.8,9.06c1.86,2.87,7.74,4.05,10.59,1.92.14-.11-1.79-.8-1.65-.92a32.42,32.42,0,0,0,3.88,3.41c-.09.16-.18.32-.26.49a6.08,6.08,0,1,0,11,5.15,5.49,5.49,0,0,0,.21-.51,32,32,0,0,0,5.11.81,4.86,4.86,0,0,0,0,.54,5.83,5.83,0,0,0,6.48,5.7,6.88,6.88,0,0,0,5.82-7.18,4.87,4.87,0,0,0-.06-.55,35.28,35.28,0,0,0,5-2c.08.15.17.31.27.46a5.81,5.81,0,0,0,8.51,1.34,6.88,6.88,0,0,0,1.81-9.06c-.1-.15-.2-.28-.31-.42a37.73,37.73,0,0,0,3.49-4.31A4.79,4.79,0,0,0,245.08,286.78Zm-37.19,1.62c-11-5.16-15.39-19-9.8-30.93s19-17.38,30.06-12.22,15.39,19,9.8,30.93S218.9,293.57,207.89,288.4Z" transform="translate(-33.74 -168.48)"/><path class="cls-51" d="M251.78,269.23a6.87,6.87,0,0,0,5.82-7.17,5.83,5.83,0,0,0-6.47-5.7l-.53.1a34.13,34.13,0,0,0-1.62-5.11,3.37,3.37,0,0,0,.46-.31c2.85-2.13,6.3-7.17,4.16-9.84-4.06-5.06-8-2.69-10.88-.56l-.41.35a30.16,30.16,0,0,0-3.89-3.41c.09-.16.18-.33.26-.5a6.72,6.72,0,0,0,.21-5.35q-4,7.56-7.85,15.18c8.84,6.06,12,18.46,6.91,29.27-4.3,9.16-13.24,14.5-22.15,14.15-.37,1-.72,2.08-1.12,3.11-1.06,2.8-2.29,5.55-3.51,8.29.83.13,1.66.23,2.49.29a4.86,4.86,0,0,0,0,.54c.18,3.55,2.44,6.51,8.6,6,3.4-.29,3.88-3.92,3.7-7.47a4.87,4.87,0,0,0-.06-.55,35.28,35.28,0,0,0,5-2c.08.15.17.31.27.46,1.85,2.87,8,3.92,10.86,1.79s1.31-6.64-.54-9.51c-.1-.15-.2-.28-.31-.42a37.73,37.73,0,0,0,3.49-4.31,4.79,4.79,0,0,0,.45.25,6.59,6.59,0,0,0,5.58-11.89l-.48-.19a38.39,38.39,0,0,0,1.09-5.43Z" transform="translate(-33.74 -168.48)"/><path class="cls-52" d="M248.3,287a6.58,6.58,0,0,0,5.58-11.88,3.19,3.19,0,0,0-.48-.19,38.52,38.52,0,0,0,1.09-5.44l.51,0a6.87,6.87,0,0,0,5.82-7.18,5.81,5.81,0,0,0-6.47-5.69c-.18,0-.35.06-.53.09a35.16,35.16,0,0,0-1.61-5.1l.45-.31a6.86,6.86,0,0,0,1.8-9.06,5.81,5.81,0,0,0-8.52-1.34,4.35,4.35,0,0,0-.41.34,30.94,30.94,0,0,0-3.89-3.41c.09-.16.18-.32.26-.49a6.08,6.08,0,1,0-11-5.15c-.08.17-.14.34-.21.51a31.78,31.78,0,0,0-5.11-.81,4.86,4.86,0,0,0,0-.54,5.82,5.82,0,0,0-6.47-5.7,6.88,6.88,0,0,0-5.82,7.18c0,.19,0,.37.05.55a35.28,35.28,0,0,0-5,2l-.26-.46a5.82,5.82,0,0,0-8.52-1.34,6.86,6.86,0,0,0-1.8,9.06c.09.15.2.28.3.42a38.43,38.43,0,0,0-3.48,4.3c-.15-.08-.3-.17-.46-.24A6.59,6.59,0,0,0,188.61,259l.47.19a37,37,0,0,0-1.08,5.43,4.55,4.55,0,0,0-.52,0,6.87,6.87,0,0,0-5.82,7.17,5.82,5.82,0,0,0,6.48,5.69,4.34,4.34,0,0,0,.52-.09,34.5,34.5,0,0,0,1.62,5.11,4.13,4.13,0,0,0-.46.31,6.87,6.87,0,0,0-1.8,9.06,5.82,5.82,0,0,0,8.52,1.34c.15-.11.28-.23.42-.35a30.16,30.16,0,0,0,3.89,3.41,4.74,4.74,0,0,0-.26.5,6.08,6.08,0,1,0,11,5.15,4.71,4.71,0,0,0,.21-.52,29.85,29.85,0,0,0,5.11.81c0,.18,0,.36,0,.55a5.82,5.82,0,0,0,6.48,5.69,6.87,6.87,0,0,0,5.82-7.17,4.87,4.87,0,0,0-.06-.55,34.85,34.85,0,0,0,5-2c.09.16.17.31.27.46a5.82,5.82,0,0,0,8.52,1.35,6.87,6.87,0,0,0,1.8-9.06,4.56,4.56,0,0,0-.31-.42,37.73,37.73,0,0,0,3.49-4.31A3.88,3.88,0,0,0,248.3,287Zm-37.18,1.63c-11-5.17-15.4-19-9.8-30.93s19-17.39,30.05-12.22,15.39,19,9.8,30.92S222.12,293.83,211.12,288.67Z" transform="translate(-33.74 -168.48)"/></g></g></svg>