<svg id="Layer_1" data-name="Layer 1" xmlns="http://www.w3.org/2000/svg" xmlns:xlink="http://www.w3.org/1999/xlink" viewBox="0 0 442.68 498.09"><defs><style>.cls-1{mask:url(#mask);}.cls-2{mix-blend-mode:multiply;fill:url(#Áåçûìÿííûé_ãðàäèåíò_121);}.cls-3,.cls-4{fill:#f58c4d;}.cls-3{opacity:0.5;}.cls-5{fill:#f8d6c3;}.cls-6{fill:#77472c;}.cls-7{fill:url(#linear-gradient);}.cls-8{fill:#f8e3d6;}.cls-9{fill:#092138;}.cls-10{fill:#bcd5ff;}.cls-11{fill:url(#linear-gradient-2);}.cls-12{fill:url(#linear-gradient-3);}.cls-13{fill:url(#Áåçûìÿííûé_ãðàäèåíò_29);}.cls-14{fill:url(#linear-gradient-4);}.cls-15{fill:#fff;}.cls-16{mask:url(#mask-2);}.cls-17{opacity:0.78;fill:url(#linear-gradient-5);}.cls-18{fill:url(#linear-gradient-6);}.cls-19{fill:url(#linear-gradient-7);}.cls-20{fill:#3d3638;}.cls-21{fill:url(#linear-gradient-8);}.cls-22{opacity:0.51;}.cls-23{fill:#677eea;}.cls-24{fill:url(#Áåçûìÿííûé_ãðàäèåíò_29-2);}.cls-25{fill:url(#Áåçûìÿííûé_ãðàäèåíò_36);}.cls-26{fill:url(#linear-gradient-9);}.cls-27{filter:url(#luminosity-noclip-2);}.cls-28{filter:url(#luminosity-noclip);}</style><filter id="luminosity-noclip" x="419.2" y="-8519.21" width="102.98" height="32766" filterUnits="userSpaceOnUse" color-interpolation-filters="sRGB"><feFlood flood-color="#fff" result="bg"/><feBlend in="SourceGraphic" in2="bg"/></filter><mask id="mask" x="419.2" y="-8519.21" width="102.98" height="32766" maskUnits="userSpaceOnUse"><g class="cls-28"/></mask><linearGradient id="Áåçûìÿííûé_ãðàäèåíò_121" x1="-693" y1="173.15" x2="-590.01" y2="173.15" gradientTransform="matrix(-1, 0, 0, 1, -170.81, 0)" gradientUnits="userSpaceOnUse"><stop offset="0"/><stop offset="0.05" stop-color="#2f2f2f"/><stop offset="0.1" stop-color="#5a5a5a"/><stop offset="0.15" stop-color="#828282"/><stop offset="0.22" stop-color="#a4a4a4"/><stop offset="0.28" stop-color="silver"/><stop offset="0.36" stop-color="#d7d7d7"/><stop offset="0.44" stop-color="#e9e9e9"/><stop offset="0.54" stop-color="#f6f6f6"/><stop offset="0.68" stop-color="#fdfdfd"/><stop offset="1" stop-color="#fff"/></linearGradient><linearGradient id="linear-gradient" x1="-693" y1="367.14" x2="-487.02" y2="367.14" gradientTransform="matrix(-1, 0, 0, 1, -170.81, 0)" gradientUnits="userSpaceOnUse"><stop offset="0" stop-color="#da7539"/><stop offset="0.15" stop-color="#db783e"/><stop offset="0.32" stop-color="#de834c"/><stop offset="0.51" stop-color="#e39364"/><stop offset="0.71" stop-color="#ebab85"/><stop offset="0.92" stop-color="#f4c8af"/><stop offset="1" stop-color="#f8d6c3"/></linearGradient><linearGradient id="linear-gradient-2" x1="-693" y1="311.73" x2="-487.02" y2="311.73" xlink:href="#linear-gradient"/><linearGradient id="linear-gradient-3" x1="-693" y1="255.17" x2="-487.02" y2="255.17" xlink:href="#linear-gradient"/><linearGradient id="Áåçûìÿííûé_ãðàäèåíò_29" x1="-693" y1="198.61" x2="-487.02" y2="198.61" gradientTransform="matrix(-1, 0, 0, 1, -170.81, 0)" gradientUnits="userSpaceOnUse"><stop offset="0" stop-color="#5778ff"/><stop offset="0.18" stop-color="#5c7dff"/><stop offset="0.39" stop-color="#6a8aff"/><stop offset="0.61" stop-color="#82a0ff"/><stop offset="0.85" stop-color="#a3beff"/><stop offset="1" stop-color="#bcd5ff"/></linearGradient><linearGradient id="linear-gradient-4" x1="-693" y1="198.61" x2="-487.02" y2="198.61" xlink:href="#linear-gradient"/><filter id="luminosity-noclip-2" x="419.2" y="145.58" width="102.98" height="55.14" filterUnits="userSpaceOnUse" color-interpolation-filters="sRGB"><feFlood flood-color="#fff" result="bg"/><feBlend in="SourceGraphic" in2="bg"/></filter><mask id="mask-2" x="327.4" y="47.78" width="102.98" height="55.14" maskUnits="userSpaceOnUse"><g class="cls-27"><g transform="translate(-91.8 -97.8)"><g class="cls-1"><path class="cls-2" d="M512.7,200.72H419.2V145.58H508C525.19,162.44,526.77,183.16,512.7,200.72Z"/></g></g></g></mask><linearGradient id="linear-gradient-5" x1="-693" y1="173.15" x2="-590.01" y2="173.15" gradientTransform="matrix(-1, 0, 0, 1, -170.81, 0)" gradientUnits="userSpaceOnUse"><stop offset="0" stop-color="#e9ffff"/><stop offset="0.06" stop-color="#ecece3"/><stop offset="0.14" stop-color="#efdac7"/><stop offset="0.23" stop-color="#f2cbb0"/><stop offset="0.33" stop-color="#f4bf9e"/><stop offset="0.45" stop-color="#f5b791"/><stop offset="0.62" stop-color="#f6b28a"/><stop offset="1" stop-color="#f6b188"/></linearGradient><linearGradient id="linear-gradient-6" x1="-642.89" y1="170.2" x2="-537.14" y2="170.2" gradientTransform="matrix(-1, 0, 0, 1, -170.81, 0)" gradientUnits="userSpaceOnUse"><stop offset="0" stop-color="#4F81BD"/><stop offset="0.14" stop-color="#f4833e"/><stop offset="0.3" stop-color="#f48c4c"/><stop offset="0.48" stop-color="#f59b64"/><stop offset="0.66" stop-color="#f6b085"/><stop offset="0.85" stop-color="#f7cbaf"/><stop offset="1" stop-color="#f8e3d6"/></linearGradient><linearGradient id="linear-gradient-7" x1="-642.89" y1="158.47" x2="-537.14" y2="158.47" gradientTransform="matrix(-1, 0, 0, 1, -262.61, -97.8)" gradientUnits="userSpaceOnUse"><stop offset="0" stop-color="#f7caaf"/><stop offset="0.24" stop-color="#f7cdb4"/><stop offset="0.53" stop-color="#f8d6c2"/><stop offset="0.83" stop-color="#f8e5da"/><stop offset="1" stop-color="#f9efea"/></linearGradient><linearGradient id="linear-gradient-8" x1="-625.61" y1="151.12" x2="-554.41" y2="151.12" gradientTransform="matrix(-1, 0, 0, 1, -170.81, 0)" gradientUnits="userSpaceOnUse"><stop offset="0" stop-color="#f8e3d6"/><stop offset="0.22" stop-color="#f7c9ac"/><stop offset="0.44" stop-color="#f6b48b"/><stop offset="0.65" stop-color="#f5a573"/><stop offset="0.84" stop-color="#f59c65"/><stop offset="1" stop-color="#f59960"/></linearGradient><linearGradient id="Áåçûìÿííûé_ãðàäèåíò_29-2" x1="-863.53" y1="-349.9" x2="-545.41" y2="-349.9" gradientTransform="matrix(-0.87, -0.5, 0, 1.15, -314.25, 392.96)" xlink:href="#Áåçûìÿííûé_ãðàäèåíò_29"/><radialGradient id="Áåçûìÿííûé_ãðàäèåíò_36" cx="-539.63" cy="338.01" fx="-663.5633811491039" fy="294.28696276413996" r="131.41" gradientTransform="matrix(-1, 0, 0, 1, -170.81, 0)" gradientUnits="userSpaceOnUse"><stop offset="0" stop-color="#2b3aa5"/><stop offset="1" stop-color="#182484"/></radialGradient><linearGradient id="linear-gradient-9" x1="-604.38" y1="379.28" x2="-287.72" y2="379.28" xlink:href="#linear-gradient"/></defs><polygon class="cls-3" points="216.41 17.49 238.37 4.82 238.37 0 216.41 12.67 216.41 17.49"/><polygon class="cls-3" points="205.16 23.99 213.06 19.43 213.06 14.61 205.16 19.17 205.16 23.99"/><polygon class="cls-3" points="196.43 29.03 201.81 25.93 201.81 21.11 196.43 24.21 196.43 29.03"/><polygon class="cls-3" points="226.41 22.74 238.37 15.83 238.37 11.01 226.41 17.92 226.41 22.74"/><polygon class="cls-3" points="208.4 33.14 223.05 24.67 223.05 19.85 208.4 28.32 208.4 33.14"/><polygon class="cls-3" points="199.67 38.17 205.04 35.07 205.04 30.25 199.67 33.35 199.67 38.17"/><polygon class="cls-3" points="191.37 42.97 196.74 39.87 196.74 35.05 191.37 38.15 191.37 42.97"/><polygon class="cls-4" points="229.71 31.84 238.37 26.84 238.37 22.02 229.71 27.02 229.71 31.84"/><polygon class="cls-4" points="223.4 35.48 226.36 33.78 226.36 28.96 223.4 30.66 223.4 35.48"/><polygon class="cls-3" points="214.68 40.52 220.05 37.42 220.05 32.6 214.68 35.7 214.68 40.52"/><polygon class="cls-3" points="206.43 56.3 238.37 37.86 238.37 33.03 206.43 51.48 206.43 56.3"/><polygon class="cls-3" points="195.17 62.8 203.07 58.23 203.07 53.41 195.17 57.98 195.17 62.8"/><polygon class="cls-3" points="229.71 53.86 238.37 48.87 238.37 44.05 229.71 49.04 229.71 53.86"/><polygon class="cls-3" points="209.4 65.59 226.36 55.8 226.36 50.98 209.4 60.77 209.4 65.59"/><polygon class="cls-3" points="200.68 70.63 206.05 67.53 206.05 62.7 200.68 65.81 200.68 70.63"/><polygon class="cls-3" points="220.66 70.1 238.37 59.88 238.37 55.06 220.66 65.28 220.66 70.1"/><polygon class="cls-4" points="204.5 79.43 217.31 72.04 217.31 67.22 204.5 74.61 204.5 79.43"/><polygon class="cls-3" points="192.49 86.36 201.15 81.37 201.15 76.55 192.49 81.54 192.49 86.36"/><polygon class="cls-3" points="232.39 74.34 238.37 70.89 238.37 66.07 232.39 69.52 232.39 74.34"/><polygon class="cls-3" points="221.13 80.84 229.03 76.28 229.03 71.46 221.13 76.02 221.13 80.84"/><polygon class="cls-3" points="205.04 90.13 217.78 82.78 217.78 77.96 205.04 85.31 205.04 90.13"/><polygon class="cls-3" points="220.05 92.48 238.37 81.9 238.37 77.08 220.05 87.66 220.05 92.48"/><polygon class="cls-3" points="199.53 104.33 216.69 94.42 216.69 89.59 199.53 99.5 199.53 104.33"/><polygon class="cls-4" points="190.81 109.36 196.18 106.26 196.18 101.44 190.81 104.54 190.81 109.36"/><polygon class="cls-3" points="182.43 114.2 187.8 111.09 187.8 106.28 182.43 109.38 182.43 114.2"/><polygon class="cls-3" points="227.39 99.25 238.37 92.92 238.37 88.09 227.39 94.43 227.39 99.25"/><polygon class="cls-4" points="181.49 37.66 166.27 46.45 166.27 41.63 181.49 32.84 181.49 37.66"/><polygon class="cls-3" points="178.23 50.55 166.27 57.46 166.27 52.64 178.23 45.73 178.23 50.55"/><polygon class="cls-3" points="174.92 63.47 166.27 68.47 166.27 63.65 174.92 58.65 174.92 63.47"/><polygon class="cls-3" points="178.86 72.21 166.27 79.48 166.27 74.66 178.86 67.39 178.86 72.21"/><polygon class="cls-3" points="174.92 85.5 166.27 90.49 166.27 85.67 174.92 80.68 174.92 85.5"/><polygon class="cls-3" points="177.24 95.17 166.27 101.5 166.27 96.68 177.24 90.35 177.24 95.17"/><polygon class="cls-3" points="172.25 109.06 166.27 112.52 166.27 107.7 172.25 104.24 172.25 109.06"/><polygon class="cls-3" points="177.86 116.84 166.27 123.53 166.27 118.71 177.86 112.02 177.86 116.84"/><polygon class="cls-3" points="177.24 128.2 166.27 134.54 166.27 129.72 177.24 123.38 177.24 128.2"/><polygon class="cls-3" points="219.37 103.88 224.04 101.19 224.04 96.37 219.37 99.06 219.37 103.88"/><polygon class="cls-3" points="205.51 111.88 216.02 105.82 216.02 101 205.51 107.06 205.51 111.88"/><polygon class="cls-3" points="131.29 66.45 153.25 53.78 153.25 48.96 131.29 61.63 131.29 66.45"/><polygon class="cls-3" points="120.04 72.95 127.94 68.39 127.94 63.56 120.04 68.13 120.04 72.95"/><polygon class="cls-4" points="111.31 77.98 116.68 74.89 116.68 70.06 111.31 73.17 111.31 77.98"/><polygon class="cls-3" points="141.28 71.69 153.25 64.79 153.25 59.97 141.28 66.87 141.28 71.69"/><polygon class="cls-3" points="123.27 82.09 137.93 73.63 137.93 68.81 123.27 77.27 123.27 82.09"/><polygon class="cls-4" points="114.55 87.13 119.92 84.03 119.92 79.21 114.55 82.31 114.55 87.13"/><polygon class="cls-3" points="106.25 91.92 111.62 88.82 111.62 84 106.25 87.1 106.25 91.92"/><polygon class="cls-3" points="144.59 80.8 153.25 75.8 153.25 70.98 144.59 75.97 144.59 80.8"/><polygon class="cls-3" points="138.28 84.44 141.24 82.73 141.24 77.91 138.28 79.62 138.28 84.44"/><polygon class="cls-3" points="129.56 89.48 134.93 86.38 134.93 81.56 129.56 84.66 129.56 89.48"/><polygon class="cls-3" points="121.3 105.25 153.25 86.81 153.25 81.99 121.3 100.43 121.3 105.25"/><polygon class="cls-3" points="110.05 111.75 117.95 107.19 117.95 102.37 110.05 106.93 110.05 111.75"/><polygon class="cls-3" points="144.59 102.82 153.25 97.82 153.25 93 144.59 98 144.59 102.82"/><polygon class="cls-3" points="124.28 114.55 141.24 104.76 141.24 99.94 124.28 109.72 124.28 114.55"/><polygon class="cls-3" points="115.56 119.58 120.93 116.48 120.93 111.66 115.56 114.76 115.56 119.58"/><polygon class="cls-4" points="135.54 119.06 153.25 108.83 153.25 104.02 135.54 114.24 135.54 119.06"/><polygon class="cls-3" points="119.38 128.39 132.19 120.99 132.19 116.17 119.38 123.57 119.38 128.39"/><polygon class="cls-3" points="107.37 135.32 116.03 130.32 116.03 125.5 107.37 130.5 107.37 135.32"/><polygon class="cls-3" points="147.26 123.3 153.25 119.85 153.25 115.03 147.26 118.48 147.26 123.3"/><polygon class="cls-3" points="136.01 129.8 143.91 125.24 143.91 120.42 136.01 124.98 136.01 129.8"/><polygon class="cls-4" points="119.92 139.09 132.66 131.74 132.66 126.91 119.92 134.27 119.92 139.09"/><polygon class="cls-3" points="134.93 141.44 153.25 130.86 153.25 126.04 134.93 136.61 134.93 141.44"/><polygon class="cls-3" points="114.41 153.28 131.57 143.37 131.57 138.55 114.41 148.46 114.41 153.28"/><polygon class="cls-3" points="105.69 158.32 111.06 155.22 111.06 150.4 105.69 153.5 105.69 158.32"/><polygon class="cls-3" points="97.31 163.15 102.68 160.05 102.68 155.23 97.31 158.33 97.31 163.15"/><polygon class="cls-3" points="142.27 148.21 153.25 141.87 153.25 137.05 142.27 143.39 142.27 148.21"/><polygon class="cls-4" points="96.37 86.61 81.15 95.4 81.15 90.58 96.37 81.79 96.37 86.61"/><polygon class="cls-3" points="93.11 99.51 81.15 106.41 81.15 101.59 93.11 94.69 93.11 99.51"/><polygon class="cls-3" points="89.8 112.43 81.15 117.42 81.15 112.6 89.8 107.61 89.8 112.43"/><polygon class="cls-3" points="93.74 121.17 81.15 128.44 81.15 123.62 93.74 116.35 93.74 121.17"/><polygon class="cls-3" points="89.8 134.45 81.15 139.45 81.15 134.63 89.8 129.63 89.8 134.45"/><polygon class="cls-3" points="92.12 144.12 81.15 150.46 81.15 145.64 92.12 139.3 92.12 144.12"/><polygon class="cls-3" points="87.13 158.02 81.15 161.47 81.15 156.65 87.13 153.2 87.13 158.02"/><polygon class="cls-3" points="92.74 165.79 81.15 172.48 81.15 167.66 92.74 160.97 92.74 165.79"/><polygon class="cls-3" points="92.12 177.16 81.15 183.5 81.15 178.68 92.12 172.34 92.12 177.16"/><polygon class="cls-4" points="134.25 152.84 138.92 150.14 138.92 145.32 134.25 148.02 134.25 152.84"/><polygon class="cls-3" points="120.39 160.84 130.9 154.77 130.9 149.95 120.39 156.02 120.39 160.84"/><polygon class="cls-3" points="216.41 116.66 238.37 103.99 238.37 99.17 216.41 111.84 216.41 116.66"/><polygon class="cls-3" points="205.16 123.16 213.06 118.6 213.06 113.78 205.16 118.34 205.16 123.16"/><polygon class="cls-3" points="196.43 128.2 201.81 125.1 201.81 120.28 196.43 123.38 196.43 128.2"/><polygon class="cls-3" points="226.41 121.91 238.37 115 238.37 110.18 226.41 117.09 226.41 121.91"/><polygon class="cls-3" points="208.4 132.31 223.05 123.84 223.05 119.02 208.4 127.49 208.4 132.31"/><polygon class="cls-3" points="199.67 137.34 205.04 134.24 205.04 129.42 199.67 132.52 199.67 137.34"/><polygon class="cls-3" points="191.37 142.14 196.74 139.04 196.74 134.22 191.37 137.32 191.37 142.14"/><polygon class="cls-3" points="229.71 131.01 238.37 126.01 238.37 121.19 229.71 126.19 229.71 131.01"/><polygon class="cls-3" points="223.4 134.65 226.36 132.95 226.36 128.13 223.4 129.83 223.4 134.65"/><polygon class="cls-3" points="214.68 139.69 220.05 136.59 220.05 131.77 214.68 134.87 214.68 139.69"/><polygon class="cls-3" points="206.43 155.47 238.37 137.03 238.37 132.21 206.43 150.65 206.43 155.47"/><polygon class="cls-3" points="195.17 161.97 203.07 157.4 203.07 152.58 195.17 157.15 195.17 161.97"/><polygon class="cls-3" points="229.71 153.03 238.37 148.04 238.37 143.22 229.71 148.21 229.71 153.03"/><polygon class="cls-3" points="209.4 164.76 226.36 154.97 226.36 150.15 209.4 159.94 209.4 164.76"/><polygon class="cls-3" points="200.68 169.8 206.05 166.7 206.05 161.88 200.68 164.98 200.68 169.8"/><polygon class="cls-3" points="220.66 169.27 238.37 159.05 238.37 154.23 220.66 164.45 220.66 169.27"/><polygon class="cls-3" points="204.5 178.6 217.31 171.21 217.31 166.39 204.5 173.78 204.5 178.6"/><polygon class="cls-3" points="192.49 185.53 201.15 180.54 201.15 175.72 192.49 180.71 192.49 185.53"/><polygon class="cls-3" points="232.39 173.51 238.37 170.06 238.37 165.24 232.39 168.69 232.39 173.51"/><polygon class="cls-3" points="221.13 180.01 229.03 175.45 229.03 170.63 221.13 175.19 221.13 180.01"/><polygon class="cls-3" points="205.04 189.3 217.78 181.95 217.78 177.13 205.04 184.48 205.04 189.3"/><polygon class="cls-3" points="220.05 191.65 238.37 181.07 238.37 176.25 220.05 186.83 220.05 191.65"/><polygon class="cls-3" points="199.53 203.5 216.69 193.59 216.69 188.76 199.53 198.68 199.53 203.5"/><polygon class="cls-3" points="190.81 208.53 196.18 205.43 196.18 200.61 190.81 203.71 190.81 208.53"/><polygon class="cls-3" points="182.43 213.37 187.8 210.26 187.8 205.44 182.43 208.54 182.43 213.37"/><polygon class="cls-3" points="227.39 198.42 238.37 192.09 238.37 187.26 227.39 193.6 227.39 198.42"/><polygon class="cls-3" points="181.49 136.83 166.27 145.62 166.27 140.79 181.49 132.01 181.49 136.83"/><polygon class="cls-3" points="178.23 149.72 166.27 156.63 166.27 151.81 178.23 144.9 178.23 149.72"/><polygon class="cls-3" points="174.92 162.64 166.27 167.64 166.27 162.82 174.92 157.82 174.92 162.64"/><polygon class="cls-3" points="178.86 171.38 166.27 178.65 166.27 173.83 178.86 166.56 178.86 171.38"/><polygon class="cls-3" points="174.92 184.67 166.27 189.66 166.27 184.84 174.92 179.85 174.92 184.67"/><polygon class="cls-3" points="177.24 194.34 166.27 200.68 166.27 195.85 177.24 189.52 177.24 194.34"/><polygon class="cls-3" points="172.25 208.23 166.27 211.69 166.27 206.87 172.25 203.41 172.25 208.23"/><polygon class="cls-3" points="177.86 216.01 166.27 222.7 166.27 217.88 177.86 211.19 177.86 216.01"/><polygon class="cls-3" points="177.24 227.37 166.27 233.71 166.27 228.89 177.24 222.55 177.24 227.37"/><polygon class="cls-3" points="219.37 203.05 224.04 200.36 224.04 195.54 219.37 198.23 219.37 203.05"/><polygon class="cls-3" points="205.51 211.05 216.02 204.99 216.02 200.17 205.51 206.23 205.51 211.05"/><polygon class="cls-3" points="196.82 248.1 214.55 237.86 214.55 233.04 196.82 243.28 196.82 248.1"/><polygon class="cls-3" points="184.68 255.11 191.66 251.07 191.66 246.25 184.68 250.29 184.68 255.11"/><polygon class="cls-3" points="131.29 165.62 153.25 152.95 153.25 148.13 131.29 160.8 131.29 165.62"/><polygon class="cls-3" points="120.04 172.12 127.94 167.56 127.94 162.74 120.04 167.3 120.04 172.12"/><polygon class="cls-3" points="111.31 177.16 116.68 174.06 116.68 169.23 111.31 172.34 111.31 177.16"/><polygon class="cls-3" points="141.28 170.86 153.25 163.96 153.25 159.14 141.28 166.04 141.28 170.86"/><polygon class="cls-3" points="123.27 181.26 137.93 172.8 137.93 167.98 123.27 176.44 123.27 181.26"/><polygon class="cls-3" points="114.55 186.3 119.92 183.2 119.92 178.38 114.55 181.48 114.55 186.3"/><polygon class="cls-3" points="106.25 191.09 111.62 187.99 111.62 183.17 106.25 186.27 106.25 191.09"/><polygon class="cls-3" points="144.59 179.97 153.25 174.97 153.25 170.15 144.59 175.15 144.59 179.97"/><polygon class="cls-3" points="138.28 183.61 141.24 181.9 141.24 177.08 138.28 178.79 138.28 183.61"/><polygon class="cls-3" points="129.56 188.65 134.93 185.55 134.93 180.73 129.56 183.83 129.56 188.65"/><polygon class="cls-3" points="121.3 204.42 153.25 185.98 153.25 181.16 121.3 199.6 121.3 204.42"/><polygon class="cls-3" points="110.05 210.92 117.95 206.36 117.95 201.54 110.05 206.1 110.05 210.92"/><polygon class="cls-3" points="144.59 201.99 153.25 196.99 153.25 192.17 144.59 197.17 144.59 201.99"/><polygon class="cls-3" points="124.28 213.72 141.24 203.93 141.24 199.1 124.28 208.9 124.28 213.72"/><polygon class="cls-3" points="115.56 218.75 120.93 215.65 120.93 210.83 115.56 213.93 115.56 218.75"/><polygon class="cls-3" points="135.54 218.23 153.25 208 153.25 203.19 135.54 213.41 135.54 218.23"/><polygon class="cls-3" points="119.38 227.56 132.19 220.16 132.19 215.34 119.38 222.74 119.38 227.56"/><polygon class="cls-3" points="107.37 234.49 116.03 229.49 116.03 224.67 107.37 229.67 107.37 234.49"/><polygon class="cls-3" points="147.26 222.47 153.25 219.02 153.25 214.2 147.26 217.65 147.26 222.47"/><polygon class="cls-3" points="136.01 228.97 143.91 224.41 143.91 219.59 136.01 224.15 136.01 228.97"/><polygon class="cls-3" points="119.92 238.26 132.66 230.91 132.66 226.08 119.92 233.44 119.92 238.26"/><polygon class="cls-3" points="134.93 240.6 153.25 230.03 153.25 225.21 134.93 235.78 134.93 240.6"/><polygon class="cls-3" points="114.41 252.45 131.57 242.54 131.57 237.72 114.41 247.63 114.41 252.45"/><polygon class="cls-3" points="105.69 257.49 111.06 254.39 111.06 249.57 105.69 252.67 105.69 257.49"/><polygon class="cls-3" points="97.31 262.32 102.68 259.22 102.68 254.4 97.31 257.5 97.31 262.32"/><polygon class="cls-3" points="142.27 247.38 153.25 241.04 153.25 236.22 142.27 242.56 142.27 247.38"/><polygon class="cls-3" points="96.37 185.78 81.15 194.57 81.15 189.75 96.37 180.96 96.37 185.78"/><polygon class="cls-3" points="93.11 198.68 81.15 205.58 81.15 200.76 93.11 193.86 93.11 198.68"/><polygon class="cls-3" points="89.8 211.6 81.15 216.59 81.15 211.77 89.8 206.78 89.8 211.6"/><polygon class="cls-3" points="93.74 220.34 81.15 227.61 81.15 222.79 93.74 215.52 93.74 220.34"/><polygon class="cls-3" points="89.8 233.62 81.15 238.62 81.15 233.8 89.8 228.8 89.8 233.62"/><polygon class="cls-3" points="92.12 243.29 81.15 249.63 81.15 244.81 92.12 238.47 92.12 243.29"/><polygon class="cls-3" points="87.13 257.19 81.15 260.64 81.15 255.82 87.13 252.37 87.13 257.19"/><polygon class="cls-3" points="92.74 264.96 81.15 271.65 81.15 266.83 92.74 260.14 92.74 264.96"/><polygon class="cls-3" points="92.12 276.33 81.15 282.67 81.15 277.85 92.12 271.51 92.12 276.33"/><polygon class="cls-3" points="134.25 252.01 138.92 249.31 138.92 244.49 134.25 247.19 134.25 252.01"/><polygon class="cls-3" points="120.39 260.01 130.9 253.94 130.9 249.12 120.39 255.19 120.39 260.01"/><polygon class="cls-3" points="111.7 297.05 129.43 286.81 129.43 282 111.7 292.23 111.7 297.05"/><polygon class="cls-3" points="99.56 304.06 106.54 300.03 106.54 295.21 99.56 299.24 99.56 304.06"/><path class="cls-5" d="M338.36,452.31c-22.21-12.82-34.44-30.07-34.44-48.56s12.23-35.74,34.44-48.57c44.58-25.73,117.1-25.73,161.68,0,22.21,12.82,34.45,30.07,34.45,48.56S522.25,439.49,500,452.31c-21.59,12.47-50.31,19.33-80.84,19.33S360,464.78,338.36,452.31Zm2.13-93.46c-20.85,12-32.33,28-32.33,44.9s11.48,32.86,32.32,44.89,48.91,18.76,78.72,18.76,57.76-6.66,78.72-18.76,32.33-28,32.33-44.9-11.48-32.85-32.33-44.89c-21.7-12.53-50.21-18.79-78.72-18.79S362.19,346.32,340.49,358.85Z" transform="translate(-91.8 -97.8)"/><ellipse class="cls-6" cx="327.4" cy="305.94" rx="84.09" ry="48.55"/><path class="cls-7" d="M316.21,367.13V344.29h7.9c5-7,12.44-13.52,22.27-19.2,40.22-23.22,105.43-23.22,145.65,0,9.83,5.68,17.24,12.22,22.26,19.2h7.9v22.85h0c0,15.21-10.06,30.43-30.17,42-40.22,23.22-105.42,23.22-145.64,0C326.27,397.57,316.21,382.35,316.21,367.13Z" transform="translate(-91.8 -97.8)"/><ellipse class="cls-8" cx="327.4" cy="246.48" rx="102.99" ry="59.46"/><path class="cls-9" d="M323,343.41V312.22h7.3c4.64-6.44,11.48-12.48,20.56-17.72,37.14-21.45,97.36-21.45,134.51,0,9.08,5.24,15.92,11.28,20.56,17.72h7.29v31.19h0c0,14.06-9.28,28.11-27.85,38.83-37.15,21.45-97.37,21.45-134.51,0C332.32,371.52,323,357.47,323,343.41Z" transform="translate(-91.8 -97.8)"/><path class="cls-9" d="M323,335.9V304.72h7.3c4.64-6.45,11.48-12.49,20.56-17.73,37.14-21.45,97.36-21.45,134.51,0,9.08,5.24,15.92,11.28,20.56,17.73h7.29v31.19h0c0,14-9.28,28.1-27.85,38.82-37.15,21.45-97.37,21.45-134.51,0C332.32,364,323,350,323,335.9Z" transform="translate(-91.8 -97.8)"/><ellipse class="cls-10" cx="327.4" cy="214.42" rx="95.11" ry="54.91"/><path class="cls-9" d="M353.68,352.63c16.35,20.83,37.91,32,56.15,37.92-21.13-1.21-41.7-6.47-57.88-15.82C333.37,364,324.09,350,324.09,335.9v-9.31C333.7,332,343.9,340.18,353.68,352.63Z" transform="translate(-91.8 -97.8)"/><path class="cls-11" d="M316.21,311.73V288.88h7.9c5-7,12.44-13.52,22.27-19.2,40.22-23.22,105.43-23.22,145.65,0,9.83,5.68,17.24,12.22,22.26,19.2h7.9v22.85h0c0,15.21-10.06,30.43-30.17,42C451.8,377,386.6,377,346.38,353.77,326.27,342.16,316.21,326.94,316.21,311.73Z" transform="translate(-91.8 -97.8)"/><ellipse class="cls-8" cx="327.4" cy="191.07" rx="102.99" ry="59.46"/><path class="cls-9" d="M323,286.85V255.66h7.3c4.64-6.44,11.48-12.48,20.56-17.72,37.14-21.45,97.36-21.45,134.51,0,9.08,5.24,15.92,11.28,20.56,17.72h7.29v31.19h0c0,14.06-9.28,28.11-27.85,38.83-37.15,21.45-97.37,21.45-134.51,0C332.32,315,323,300.91,323,286.85Z" transform="translate(-91.8 -97.8)"/><path class="cls-9" d="M323,279.72V248.53h7.3c4.64-6.44,11.48-12.48,20.56-17.73,37.14-21.44,97.36-21.44,134.51,0,9.08,5.24,15.92,11.28,20.56,17.73h7.29v31.19h0c0,14-9.28,28.11-27.85,38.83C448.25,340,388,340,350.89,318.55,332.32,307.83,323,293.77,323,279.72Z" transform="translate(-91.8 -97.8)"/><ellipse class="cls-10" cx="327.4" cy="157.86" rx="95.11" ry="54.91"/><path class="cls-9" d="M352.62,293.15C373,319,401.33,329.94,421.36,334.54c-25.4.5-51.08-4.8-70.47-16C332.32,307.83,323,293.77,323,279.72V267.1C332.64,272.48,342.84,280.69,352.62,293.15Z" transform="translate(-91.8 -97.8)"/><path class="cls-12" d="M316.21,255.16V232.32h7.9c5-7,12.44-13.52,22.27-19.2,40.22-23.22,105.43-23.22,145.65,0,9.83,5.68,17.24,12.22,22.26,19.2h7.9v22.85h0c0,15.21-10.06,30.43-30.17,42-40.22,23.22-105.42,23.22-145.64,0C326.27,285.6,316.21,270.38,316.21,255.16Z" transform="translate(-91.8 -97.8)"/><ellipse class="cls-8" cx="327.4" cy="134.51" rx="102.99" ry="59.46"/><path class="cls-9" d="M324.09,230.29V199.1h7.3c4.64-6.44,11.48-12.48,20.56-17.72,37.14-21.45,97.36-21.45,134.51,0,9.08,5.24,15.92,11.28,20.56,17.72h7.29v31.19h0c0,14.06-9.28,28.11-27.86,38.83-37.14,21.45-97.36,21.45-134.5,0C333.37,258.4,324.09,244.35,324.09,230.29Z" transform="translate(-91.8 -97.8)"/><path class="cls-9" d="M324.09,221.56V190.38h7.3c4.64-6.45,11.48-12.49,20.56-17.73,37.14-21.44,97.36-21.45,134.51,0,9.08,5.24,15.92,11.28,20.56,17.73h7.29v31.19h0c0,14.05-9.28,28.1-27.86,38.82-37.14,21.45-97.36,21.45-134.5,0C333.37,249.67,324.09,235.62,324.09,221.56Z" transform="translate(-91.8 -97.8)"/><ellipse class="cls-10" cx="327.4" cy="101.3" rx="95.11" ry="54.91"/><path class="cls-13" d="M316.21,198.6V175.76h7.9c5-7,12.44-13.52,22.27-19.2,40.22-23.22,105.43-23.22,145.65,0,9.83,5.68,17.24,12.22,22.26,19.2h7.9v22.85h0c0,15.21-10.06,30.43-30.17,42-40.22,23.22-105.42,23.22-145.64,0C326.27,229,316.21,213.82,316.21,198.6Z" transform="translate(-91.8 -97.8)"/><ellipse class="cls-10" cx="327.4" cy="77.95" rx="102.99" ry="59.46"/><ellipse class="cls-10" cx="327.4" cy="77.95" rx="102.99" ry="59.46"/><path class="cls-9" d="M353.68,233.66C376,262.09,408,272.45,428.06,276.23c-27.2,1.46-55.29-3.81-76.11-15.83-18.58-10.73-27.86-24.78-27.86-38.84V207.61C333.7,213,343.9,221.2,353.68,233.66Z" transform="translate(-91.8 -97.8)"/><path class="cls-14" d="M316.21,198.6V175.76h7.9c5-7,12.44-13.52,22.27-19.2,40.22-23.22,105.43-23.22,145.65,0,9.83,5.68,17.24,12.22,22.26,19.2h7.9v22.85h0c0,15.21-10.06,30.43-30.17,42-40.22,23.22-105.42,23.22-145.64,0C326.27,229,316.21,213.82,316.21,198.6Z" transform="translate(-91.8 -97.8)"/><ellipse class="cls-10" cx="327.4" cy="77.95" rx="102.99" ry="59.46"/><ellipse class="cls-8" cx="327.4" cy="77.95" rx="102.99" ry="59.46"/><path class="cls-15" d="M345.79,216c40.22,23.22,105.43,23.22,145.65,0,24.63-14.22,34.15-33.85,28.61-52.27,6.74,18.93-2.59,39.38-28,54.07C451.8,241,386.6,241,346.38,217.8c-15.59-9-25.11-20.17-28.61-31.82C321.68,197,331,207.46,345.79,216Z" transform="translate(-91.8 -97.8)"/><path class="cls-15" d="M345.79,272.56c40.22,23.22,105.43,23.22,145.65,0,24.63-14.22,34.15-33.85,28.61-52.27,6.74,18.93-2.59,39.39-28,54.07-40.22,23.22-105.42,23.22-145.64,0-15.59-9-25.11-20.17-28.61-31.82C321.68,253.54,331,264,345.79,272.56Z" transform="translate(-91.8 -97.8)"/><path class="cls-15" d="M345.79,329.12c40.22,23.22,105.43,23.22,145.65,0,24.63-14.22,34.15-33.85,28.61-52.27,6.74,18.93-2.59,39.39-28,54.07-40.22,23.22-105.42,23.22-145.64,0-15.59-9-25.11-20.17-28.61-31.82C321.68,310.1,331,320.58,345.79,329.12Z" transform="translate(-91.8 -97.8)"/><path class="cls-15" d="M345.79,385.68c40.22,23.22,105.43,23.22,145.65,0,24.63-14.22,34.15-33.85,28.61-52.27,6.74,18.93-2.59,39.39-28,54.07-40.22,23.22-105.42,23.22-145.64,0-15.59-9-25.11-20.17-28.61-31.82C321.68,366.66,331,377.14,345.79,385.68Z" transform="translate(-91.8 -97.8)"/><g class="cls-16"><path class="cls-17" d="M512.7,200.72H419.2V145.58H508C525.19,162.44,526.77,183.16,512.7,200.72Z" transform="translate(-91.8 -97.8)"/></g><path class="cls-18" d="M366.33,170.2V158.47h4.05a36.15,36.15,0,0,1,11.43-9.86c20.65-11.92,54.13-11.92,74.78,0A36,36,0,0,1,468,158.47h4.06V170.2h0c0,7.81-5.16,15.62-15.49,21.58-20.65,11.93-54.13,11.93-74.78,0C371.49,185.82,366.32,178,366.33,170.2Z" transform="translate(-91.8 -97.8)"/><ellipse class="cls-10" cx="327.4" cy="60.66" rx="52.88" ry="30.53"/><ellipse class="cls-19" cx="327.4" cy="60.66" rx="52.88" ry="30.53"/><path class="cls-20" d="M394,173c13.9,8,36.44,8,50.35,0,4.34-2.51,7.32-5.5,8.95-8.67,3.59-7-5.38-12.07-14.94-17.59-13.9-8-23.77-10-37.67-2-9.56,5.52-19.24,12.58-15.65,19.57C386.69,167.5,389.68,170.49,394,173Z" transform="translate(-91.8 -97.8)"/><path class="cls-21" d="M444.38,155.66c-13.91-8-36.45-8-50.35,0-4.34,2.51-7.33,5.5-9,8.67-3.59-7-.61-14.88,9-20.4,13.9-8,36.44-8,50.35,0,9.56,5.52,12.55,13.41,8.95,20.4C451.7,161.16,448.72,158.17,444.38,155.66Z" transform="translate(-91.8 -97.8)"/><path class="cls-9" d="M361.23,262.53c6.94,2.73,12.12,2,11.57-1.65s-6.61-8.81-13.54-11.54-12.12-2-11.58,1.65S354.29,259.8,361.23,262.53Z" transform="translate(-91.8 -97.8)"/><path class="cls-9" d="M360.17,319.9c6.94,2.73,12.12,2,11.57-1.65s-6.61-8.81-13.54-11.55-12.12-2-11.58,1.65S353.23,317.17,360.17,319.9Z" transform="translate(-91.8 -97.8)"/><g class="cls-22"><path class="cls-23" d="M360.85,377.65c6.93,2.73,12.12,2,11.57-1.65s-6.61-8.82-13.55-11.55-12.11-2-11.57,1.65S353.91,374.91,360.85,377.65Z" transform="translate(-91.8 -97.8)"/></g><g class="cls-22"><path class="cls-9" d="M341.47,248.13c1.64,1.17,3.68,1.11,4.56-.13s.28-3.2-1.35-4.36-3.68-1.11-4.56.13S339.84,247,341.47,248.13Z" transform="translate(-91.8 -97.8)"/></g><g class="cls-22"><path class="cls-9" d="M340.41,305.77c1.64,1.16,4.74,1.1,5.62-.14s.28-3.19-1.35-4.36-3.68-1.1-4.56.14S338.78,304.6,340.41,305.77Z" transform="translate(-91.8 -97.8)"/></g><g class="cls-22"><path class="cls-23" d="M341.47,363.19c1.64,1.16,3.68,1.1,4.56-.14s.28-3.19-1.35-4.36-3.68-1.1-4.56.14S339.84,362,341.47,363.19Z" transform="translate(-91.8 -97.8)"/></g><path class="cls-5" d="M511.59,595.89a2.12,2.12,0,0,0,1.1-3.94l-110-66.12a2.12,2.12,0,0,0-2.19,3.63l110,66.13A2.16,2.16,0,0,0,511.59,595.89Z" transform="translate(-91.8 -97.8)"/><path class="cls-5" d="M360.15,544.45h0L94.85,391.28a5.52,5.52,0,0,1-3-4.72c0-2.13,1.41-4.17,3.88-5.59l55.13-31.83c4.05-2.34,10-2.55,13.61-.48l265.3,153.17a5.52,5.52,0,0,1,3,4.72c0,2.13-1.41,4.16-3.87,5.59L373.76,544a15.42,15.42,0,0,1-7.55,1.9A12.36,12.36,0,0,1,360.15,544.45Zm1-1.84h0ZM152.93,352.81,97.8,384.64c-1.22.7-1.76,1.47-1.76,1.92s.35.71.93,1l265.3,153.17c2.27,1.32,6.66,1.1,9.37-.47l55.14-31.83c1.21-.7,1.75-1.47,1.75-1.92s-.35-.71-.93-1.05L162.3,352.33a8,8,0,0,0-3.9-.86A11.36,11.36,0,0,0,152.93,352.81Z" transform="translate(-91.8 -97.8)"/><path class="cls-24" d="M202.46,260.11a78.65,78.65,0,0,1,19.44,16.4c8.15-26.18,33-34.3,62.41-17.32,24.33,14.05,45.54,41.67,56.75,70.94A26.5,26.5,0,0,1,353.31,334c15.87,9.17,28.74,31.46,28.74,49.79,0,.39,0,.75-.05,1.14a34.73,34.73,0,0,1,14.8,4.95c20.31,11.73,36.77,40.24,36.77,63.68s-16.46,33-36.77,21.23L202.46,362.6C178,348.45,158.08,314,158.08,285.73S178,246,202.46,260.11Z" transform="translate(-91.8 -97.8)"/><path class="cls-25" d="M202.46,260.11a70.8,70.8,0,0,1,11.67,8.55l21.74-12.55h0c11.94-8.39,29.22-8,48.45,3.08,24.33,14.05,45.54,41.67,56.75,70.94A26.5,26.5,0,0,1,353.31,334c15.87,9.17,28.74,31.46,28.74,49.79,0,.39,0,.75-.05,1.14a34.73,34.73,0,0,1,14.8,4.95c20.31,11.73,36.77,40.24,36.77,63.68,0,11.62-4.05,19.81-10.6,23.69h0l-.16.1,0,0-53.23,30.89-11.62-55.92L202.46,362.6C178,348.45,158.08,314,158.08,285.73S178,246,202.46,260.11Z" transform="translate(-91.8 -97.8)"/><path class="cls-26" d="M116.91,288.47l53.93-31.33h0c8-4.79,19.24-4.19,31.62,3a70.8,70.8,0,0,1,11.67,8.55l21.74-12.55h0c11.94-8.39,29.22-8,48.45,3.08,24.33,14.05,45.54,41.67,56.75,70.94A26.5,26.5,0,0,1,353.31,334c15.87,9.17,28.74,31.46,28.74,49.79,0,.39,0,.75-.05,1.14a34.73,34.73,0,0,1,14.8,4.95c20.31,11.73,36.77,40.24,36.77,63.68,0,11.62-4.05,19.81-10.6,23.69h0l-.16.1,0,0-53.23,30.89-11.62-55.92L202.46,362.6c-19.87-11.47-36.69-36.26-42.34-60.31Z" transform="translate(-91.8 -97.8)"/><path class="cls-8" d="M149.06,291.1a78.87,78.87,0,0,1,19.44,16.4c8.15-26.17,33-34.29,62.41-17.31,24.33,14,45.53,41.67,56.75,70.94A26.38,26.38,0,0,1,299.91,365c15.87,9.16,28.74,31.45,28.74,49.79,0,.39,0,.75,0,1.14a34.73,34.73,0,0,1,14.8,4.95c20.31,11.72,36.77,40.23,36.77,63.68s-16.46,32.95-36.77,21.23L149.06,393.59c-24.51-14.15-44.38-48.56-44.38-76.86S124.55,277,149.06,291.1Z" transform="translate(-91.8 -97.8)"/><path class="cls-15" d="M168.5,307.5a78.87,78.87,0,0,0-19.44-16.4c-15-8.66-28.27-7.71-36.3.83,7.85-9.87,21.74-11.43,37.57-2.29a78.39,78.39,0,0,1,18.88,15.78C169,306.1,168.72,306.79,168.5,307.5Z" transform="translate(-91.8 -97.8)"/><path class="cls-15" d="M380.17,484.57c0-23.45-16.46-52-36.77-63.68a34.73,34.73,0,0,0-14.8-4.95c0-.39,0-.75,0-1.14,0-18.34-12.87-40.63-28.74-49.79a26.38,26.38,0,0,0-12.25-3.88c-11.22-29.27-32.42-56.9-56.75-70.94-22.28-12.87-41.94-11.31-53.71,1.57,11.59-14.22,31.88-16.38,55-3,24.33,14,45.53,41.68,56.75,70.95a26.41,26.41,0,0,1,12.24,3.87c15.88,9.17,28.75,31.46,28.75,49.79,0,.4,0,.76-.05,1.14a34.76,34.76,0,0,1,14.8,5c20.3,11.72,36.77,40.23,36.77,63.68,0,9.21-2.57,16.23-6.89,20.69C378.09,499.32,380.17,492.83,380.17,484.57Z" transform="translate(-91.8 -97.8)"/></svg>