<svg id="Layer_1" data-name="Layer 1" xmlns="http://www.w3.org/2000/svg" viewBox="0 0 492.26 397.18"><defs><style>.cls-1,.cls-17{fill:#173d7a;}.cls-2,.cls-3{fill:#092138;}.cls-2{opacity:0.22;}.cls-3{opacity:0.14;}.cls-4{fill:#4F81BD;}.cls-5{fill:#f7be9b;}.cls-6{fill:#f8d6c3;}.cls-7{fill:#fff;}.cls-13,.cls-8{fill:#d4ecff;}.cls-9{fill:#c06b39;}.cls-10{fill:#396caa;}.cls-11{fill:#5793ce;}.cls-12{fill:#fafdff;}.cls-13{opacity:0.4;}.cls-14{fill:#f8e3d6;}.cls-15{fill:#f6a574;}.cls-16{fill:#8c5639;}.cls-17{opacity:0.5;}</style></defs><path class="cls-1" d="M331.57,420.88l67-38.2c2.45-1.41,2.14-3.88-.68-5.52l-38.55-22.25c-2.83-1.64-7.11-1.81-9.56-.4l-67,38.2c-2.45,1.42-2.14,3.89.69,5.52L322,420.49C324.84,422.12,329.12,422.3,331.57,420.88Z" transform="translate(-81.06 -134.48)"/><path class="cls-2" d="M224,482.78l67-38.2c2.45-1.41,2.14-3.89-.69-5.52L251.8,416.81c-2.82-1.64-7.1-1.82-9.55-.4l-67,38.2c-2.45,1.42-2.14,3.89.69,5.52l38.54,22.26C217.31,484,221.59,484.2,224,482.78Z" transform="translate(-81.06 -134.48)"/><path class="cls-2" d="M414.84,468.78l67-38.2c2.45-1.41,2.14-3.89-.68-5.52L442.6,402.81c-2.83-1.64-7.11-1.82-9.56-.4l-67,38.2c-2.45,1.42-2.14,3.89.69,5.52l38.55,22.26C408.11,470,412.39,470.2,414.84,468.78Z" transform="translate(-81.06 -134.48)"/><path class="cls-2" d="M307.31,530.68l67-38.2c2.45-1.42,2.14-3.89-.69-5.52L335.08,464.7c-2.83-1.63-7.11-1.81-9.56-.39l-67,38.2c-2.45,1.41-2.14,3.89.69,5.52l38.54,22.25C300.58,531.92,304.86,532.1,307.31,530.68Z" transform="translate(-81.06 -134.48)"/><path class="cls-3" d="M114,407.05,82.37,388.77c-1.94-1.13-1.7-3.09.55-4.38l30.58-17.66c2.24-1.29,5.64-1.43,7.58-.31l31.67,18.28c1.94,1.13,1.7,3.09-.54,4.38l-30.58,17.66C119.38,408,116,408.17,114,407.05Z" transform="translate(-81.06 -134.48)"/><path class="cls-4" d="M154.05,372.07h0V361.14h-24.5l-8.47-4.89c-1.94-1.13-5.34-1-7.58.31l-7.9,4.56H81.07v11.24a2.21,2.21,0,0,0,1.3,2L114,392.65c1.95,1.12,5.34,1,7.59-.31l30.58-17.66C153.5,373.94,154.13,373,154.05,372.07Z" transform="translate(-81.06 -134.48)"/><path class="cls-4" d="M117.56,355.48a8.82,8.82,0,0,0-4.06,1.07l-7.9,4.56H81.07v11.24a2.21,2.21,0,0,0,1.3,2L114,392.65a6.81,6.81,0,0,0,3.52.75Z" transform="translate(-81.06 -134.48)"/><path class="cls-5" d="M83.85,361.1H81.07v11.24a2.21,2.21,0,0,0,1.3,2l1.48.85Z" transform="translate(-81.06 -134.48)"/><path class="cls-5" d="M114.53,392.89a8.61,8.61,0,0,0,6.06-.07V380.06h-6.06Z" transform="translate(-81.06 -134.48)"/><path class="cls-6" d="M114,381.45,82.37,363.17c-1.94-1.12-1.7-3.08.55-4.38l30.58-17.65c2.24-1.3,5.64-1.44,7.58-.32l31.67,18.29c1.94,1.12,1.7,3.08-.54,4.38l-30.58,17.65C119.38,382.44,116,382.58,114,381.45Z" transform="translate(-81.06 -134.48)"/><path class="cls-7" d="M152.21,361.34,121.63,379c-2.25,1.3-5.64,1.44-7.59.31L82.37,361a3,3,0,0,1-1-.86c-.66,1.07-.36,2.24,1,3L114,381.45c1.95,1.13,5.34,1,7.59-.31l30.58-17.65c1.74-1,2.27-2.42,1.51-3.52A4.25,4.25,0,0,1,152.21,361.34Z" transform="translate(-81.06 -134.48)"/><path class="cls-8" d="M142.4,375a2.82,2.82,0,0,1-1.28,2.22c-.7.4-1.27.07-1.27-.74a2.84,2.84,0,0,1,1.27-2.22C141.83,373.8,142.4,374.13,142.4,375Z" transform="translate(-81.06 -134.48)"/><path class="cls-8" d="M146.52,372.57a2.82,2.82,0,0,1-1.28,2.22c-.71.41-1.28.08-1.28-.74a2.81,2.81,0,0,1,1.28-2.21C146,371.43,146.52,371.76,146.52,372.57Z" transform="translate(-81.06 -134.48)"/><path class="cls-8" d="M150.64,370.2a2.83,2.83,0,0,1-1.28,2.21c-.71.41-1.28.08-1.28-.74a2.82,2.82,0,0,1,1.28-2.21C150.06,369.05,150.64,369.38,150.64,370.2Z" transform="translate(-81.06 -134.48)"/><path class="cls-4" d="M115.92,370.12l-14.82-8.56c-.91-.52-.8-1.44.25-2.05l14.31-8.26a4,4,0,0,1,3.55-.14L134,359.66c.91.53.79,1.44-.26,2L119.46,370A3.93,3.93,0,0,1,115.92,370.12Z" transform="translate(-81.06 -134.48)"/><path class="cls-8" d="M117.33,363l-2-1.18c-.12-.07-.11-.2,0-.28l2-1.15a.56.56,0,0,1,.49,0l2,1.19c.13.07.11.2,0,.28l-2,1.14A.52.52,0,0,1,117.33,363Z" transform="translate(-81.06 -134.48)"/><path class="cls-9" d="M101.1,361.56l0,0,.21-.15,14.31-8.26a4,4,0,0,1,3.55-.15L134,361.56c.84-.6.88-1.41,0-1.9l-14.82-8.55a4,4,0,0,0-3.55.14l-14.31,8.26C100.3,360.12,100.19,361,101.1,361.56Z" transform="translate(-81.06 -134.48)"/><path class="cls-3" d="M533.31,407.05l-31.67-18.28c-1.95-1.13-1.7-3.09.54-4.38l30.58-17.66c2.25-1.29,5.64-1.43,7.59-.31L572,384.7c2,1.13,1.7,3.09-.54,4.38l-30.58,17.66C538.65,408,535.25,408.17,533.31,407.05Z" transform="translate(-81.06 -134.48)"/><path class="cls-4" d="M573.32,372.07h0V361.14H548.81l-8.46-4.89c-2-1.13-5.34-1-7.59.31l-7.9,4.56H500.34v11.24a2.18,2.18,0,0,0,1.3,2l31.67,18.28c1.94,1.12,5.34,1,7.58-.31l30.58-17.66C572.76,373.94,573.39,373,573.32,372.07Z" transform="translate(-81.06 -134.48)"/><path class="cls-4" d="M536.83,355.48a8.86,8.86,0,0,0-4.07,1.07l-7.9,4.56H500.34v11.24a2.18,2.18,0,0,0,1.3,2l31.67,18.28a6.76,6.76,0,0,0,3.52.75Z" transform="translate(-81.06 -134.48)"/><path class="cls-5" d="M503.11,361.1h-2.77v11.24a2.18,2.18,0,0,0,1.3,2l1.47.85Z" transform="translate(-81.06 -134.48)"/><path class="cls-5" d="M533.8,392.89a8.61,8.61,0,0,0,6.06-.07V380.06H533.8Z" transform="translate(-81.06 -134.48)"/><path class="cls-6" d="M533.31,381.45l-31.67-18.28c-1.95-1.12-1.7-3.08.54-4.38l30.58-17.65a8.44,8.44,0,0,1,7.59-.32L572,359.11c2,1.12,1.7,3.08-.54,4.38l-30.58,17.65C538.65,382.44,535.25,382.58,533.31,381.45Z" transform="translate(-81.06 -134.48)"/><path class="cls-7" d="M571.47,361.34,540.89,379c-2.24,1.3-5.64,1.44-7.58.31L501.64,361a2.85,2.85,0,0,1-1-.86c-.67,1.07-.37,2.24,1,3l31.67,18.28c1.94,1.13,5.34,1,7.58-.31l30.58-17.65c1.74-1,2.27-2.42,1.51-3.52A4.25,4.25,0,0,1,571.47,361.34Z" transform="translate(-81.06 -134.48)"/><path class="cls-8" d="M561.67,375a2.82,2.82,0,0,1-1.28,2.22c-.71.4-1.28.07-1.28-.74a2.82,2.82,0,0,1,1.28-2.22C561.1,373.8,561.67,374.13,561.67,375Z" transform="translate(-81.06 -134.48)"/><path class="cls-8" d="M565.78,372.57a2.82,2.82,0,0,1-1.28,2.22c-.7.41-1.27.08-1.27-.74a2.82,2.82,0,0,1,1.27-2.21C565.21,371.43,565.78,371.76,565.78,372.57Z" transform="translate(-81.06 -134.48)"/><path class="cls-8" d="M569.9,370.2a2.81,2.81,0,0,1-1.28,2.21c-.71.41-1.28.08-1.28-.74a2.82,2.82,0,0,1,1.28-2.21C569.33,369.05,569.9,369.38,569.9,370.2Z" transform="translate(-81.06 -134.48)"/><path class="cls-4" d="M535.18,370.12l-14.82-8.56c-.91-.52-.79-1.44.26-2.05l14.3-8.26a4,4,0,0,1,3.55-.14l14.82,8.55c.91.53.8,1.44-.25,2L538.73,370A4,4,0,0,1,535.18,370.12Z" transform="translate(-81.06 -134.48)"/><path class="cls-8" d="M536.6,363l-2.05-1.18c-.13-.07-.11-.2,0-.28l2-1.15a.57.57,0,0,1,.49,0l2.06,1.19c.12.07.11.2,0,.28l-2,1.14A.51.51,0,0,1,536.6,363Z" transform="translate(-81.06 -134.48)"/><path class="cls-9" d="M520.36,361.56l0,0,.22-.15,14.3-8.26a4,4,0,0,1,3.55-.15l14.78,8.53c.84-.6.88-1.41,0-1.9l-14.82-8.55a4,4,0,0,0-3.55.14l-14.3,8.26C519.57,360.12,519.45,361,520.36,361.56Z" transform="translate(-81.06 -134.48)"/><path class="cls-10" d="M281.13,374.08h0V228.28l58-15.17L349.77,207c2.45-1.42,6.73-1.24,9.56.39l10,5.75H400.2l-9.15,140.74a2.78,2.78,0,0,1-1.64,2.56L331.57,400c-2.45,1.41-6.73,1.24-9.56-.4l-38.55-22.25C281.83,376.43,281,375.21,281.13,374.08Z" transform="translate(-81.06 -134.48)"/><path class="cls-8" d="M354.2,206a11,11,0,0,1,5.13,1.34l10,5.75H400.2V359.27a2.77,2.77,0,0,1-1.64,2.56l-67,38.2a8.67,8.67,0,0,1-4.44,1l-.69-147.11Z" transform="translate(-81.06 -134.48)"/><path class="cls-11" d="M331,400.33a10.93,10.93,0,0,1-7.64-.09V252.13H331Z" transform="translate(-81.06 -134.48)"/><path class="cls-8" d="M331.57,253.89l67-38.2c2.45-1.42,2.14-3.89-.68-5.52l-38.55-22.26c-2.83-1.63-7.11-1.81-9.56-.39l-67,38.2c-2.45,1.41-2.14,3.88.69,5.52L322,253.49C324.84,255.13,329.12,255.3,331.57,253.89Z" transform="translate(-81.06 -134.48)"/><path class="cls-12" d="M283.46,228.53,322,250.78c2.83,1.64,7.11,1.81,9.56.4l67-38.2a3.65,3.65,0,0,0,1.22-1.09c.85,1.36.46,2.83-1.22,3.8l-67,38.2c-2.45,1.41-6.73,1.24-9.56-.4l-38.55-22.25c-2.2-1.27-2.87-3-1.91-4.44A5.26,5.26,0,0,0,283.46,228.53Z" transform="translate(-81.06 -134.48)"/><path class="cls-1" d="M329.67,238.41l44.61-25.86c1.14-.66,1-1.82-.33-2.58l-18-10.42a5,5,0,0,0-4.48-.18l-44.6,25.85c-1.15.67-1,1.82.32,2.59l18,10.41A5,5,0,0,0,329.67,238.41Z" transform="translate(-81.06 -134.48)"/><path class="cls-8" d="M353.75,213.71l2.59-1.49c.15-.09.13-.25,0-.36l-2.49-1.44a.68.68,0,0,0-.62,0l-2.59,1.49c-.16.09-.14.25.05.36l2.49,1.44A.71.71,0,0,0,353.75,213.71Z" transform="translate(-81.06 -134.48)"/><path class="cls-8" d="M345.12,218.68l2.58-1.49c.16-.1.14-.26,0-.36l-2.5-1.44a.68.68,0,0,0-.62,0L342,216.85c-.16.1-.14.26,0,.36l2.5,1.44A.68.68,0,0,0,345.12,218.68Z" transform="translate(-81.06 -134.48)"/><path class="cls-8" d="M336.48,223.64l2.59-1.49c.15-.09.13-.25-.05-.36l-2.49-1.44a.68.68,0,0,0-.62,0l-2.59,1.49c-.16.09-.14.25.05.36l2.49,1.44A.71.71,0,0,0,336.48,223.64Z" transform="translate(-81.06 -134.48)"/><path class="cls-8" d="M327.85,228.61l2.58-1.49c.16-.1.14-.26,0-.36l-2.5-1.44a.68.68,0,0,0-.62,0l-2.58,1.49c-.16.1-.14.26,0,.36l2.5,1.44A.68.68,0,0,0,327.85,228.61Z" transform="translate(-81.06 -134.48)"/><path class="cls-11" d="M374.28,212.55l-.06,0-.27-.18-18-10.42a5,5,0,0,0-4.48-.18l-44.55,25.82c-1.06-.75-1.11-1.78-.05-2.4l44.6-25.85a5,5,0,0,1,4.48.18L374,210C375.28,210.73,375.42,211.89,374.28,212.55Z" transform="translate(-81.06 -134.48)"/><path class="cls-1" d="M314.48,282.78l-25.36-14.52a6.2,6.2,0,0,1-2.59-4.94v-9.07c0-1.9,1.16-2.78,2.59-1.95l25.36,14.52a6.16,6.16,0,0,1,2.58,4.93v9.07C317.06,282.72,315.91,283.6,314.48,282.78Z" transform="translate(-81.06 -134.48)"/><path class="cls-7" d="M287.86,252a2.54,2.54,0,0,0-.64,1.89V263a6.2,6.2,0,0,0,2.58,4.94l25.36,14.52a1.91,1.91,0,0,0,1.26.27,1.55,1.55,0,0,1-1.94.07l-25.36-14.52a6.2,6.2,0,0,1-2.59-4.94v-9.07C286.53,253,287.07,252.16,287.86,252Z" transform="translate(-81.06 -134.48)"/><path class="cls-10" d="M306.85,272.92l-2.32-1.34a1.33,1.33,0,0,1-.57-1.08V268c0-.42.25-.61.57-.43l2.32,1.35a1.35,1.35,0,0,1,.57,1.07v2.49C307.42,272.91,307.16,273.1,306.85,272.92Z" transform="translate(-81.06 -134.48)"/><path class="cls-7" d="M299.07,268.43l-2.32-1.34a1.36,1.36,0,0,1-.57-1.08v-2.48c0-.42.26-.61.57-.43l2.32,1.35a1.35,1.35,0,0,1,.57,1.07V268C299.64,268.42,299.38,268.61,299.07,268.43Z" transform="translate(-81.06 -134.48)"/><path class="cls-1" d="M314.48,348.31l-25.36-14.52a6.17,6.17,0,0,1-2.59-4.94v-9.07c0-1.9,1.16-2.77,2.59-1.95l25.36,14.52a6.2,6.2,0,0,1,2.58,4.94v9.07C317.06,348.26,315.91,349.14,314.48,348.31Z" transform="translate(-81.06 -134.48)"/><path class="cls-7" d="M287.86,317.56a2.5,2.5,0,0,0-.64,1.88v9.07a6.17,6.17,0,0,0,2.58,4.94L315.16,348a1.87,1.87,0,0,0,1.26.28,1.55,1.55,0,0,1-1.94.06l-25.36-14.52a6.17,6.17,0,0,1-2.59-4.94v-9.07C286.53,318.49,287.07,317.69,287.86,317.56Z" transform="translate(-81.06 -134.48)"/><path class="cls-10" d="M306.85,338.46l-2.32-1.34A1.33,1.33,0,0,1,304,336v-2.48c0-.42.25-.61.57-.43l2.32,1.34a1.36,1.36,0,0,1,.57,1.08V338C307.42,338.45,307.16,338.64,306.85,338.46Z" transform="translate(-81.06 -134.48)"/><path class="cls-7" d="M299.07,334l-2.32-1.34a1.37,1.37,0,0,1-.57-1.08v-2.49c0-.41.26-.6.57-.42l2.32,1.34a1.36,1.36,0,0,1,.57,1.08v2.48C299.64,334,299.38,334.15,299.07,334Z" transform="translate(-81.06 -134.48)"/><path class="cls-1" d="M314.48,381.08l-25.36-14.52a6.17,6.17,0,0,1-2.59-4.94v-9.07c0-1.9,1.16-2.77,2.59-1.95l25.36,14.52a6.17,6.17,0,0,1,2.58,4.94v9.07C317.06,381,315.91,381.9,314.48,381.08Z" transform="translate(-81.06 -134.48)"/><path class="cls-7" d="M287.86,350.33a2.5,2.5,0,0,0-.64,1.88v9.07a6.18,6.18,0,0,0,2.58,4.94l25.36,14.52a1.85,1.85,0,0,0,1.26.27,1.54,1.54,0,0,1-1.94.07l-25.36-14.52a6.19,6.19,0,0,1-2.59-4.94v-9.07C286.53,351.26,287.07,350.46,287.86,350.33Z" transform="translate(-81.06 -134.48)"/><path class="cls-10" d="M306.85,371.23l-2.32-1.35a1.33,1.33,0,0,1-.57-1.07v-2.49c0-.41.25-.6.57-.42l2.32,1.34a1.36,1.36,0,0,1,.57,1.08v2.48C307.42,371.22,307.16,371.41,306.85,371.23Z" transform="translate(-81.06 -134.48)"/><path class="cls-7" d="M299.07,366.74l-2.32-1.35a1.35,1.35,0,0,1-.57-1.07v-2.49c0-.41.26-.6.57-.42l2.32,1.34a1.36,1.36,0,0,1,.57,1.08v2.48C299.64,366.73,299.38,366.92,299.07,366.74Z" transform="translate(-81.06 -134.48)"/><path class="cls-1" d="M314.48,315.54,289.12,301a6.17,6.17,0,0,1-2.59-4.93V287c0-1.91,1.16-2.78,2.59-2l25.36,14.52a6.2,6.2,0,0,1,2.58,4.94v9.07C317.06,315.49,315.91,316.37,314.48,315.54Z" transform="translate(-81.06 -134.48)"/><path class="cls-7" d="M287.86,284.79a2.54,2.54,0,0,0-.64,1.89v9.07a6.16,6.16,0,0,0,2.58,4.93l25.36,14.52a1.87,1.87,0,0,0,1.26.28,1.55,1.55,0,0,1-1.94.06L289.12,301a6.17,6.17,0,0,1-2.59-4.93V287C286.53,285.72,287.07,284.92,287.86,284.79Z" transform="translate(-81.06 -134.48)"/><path class="cls-10" d="M306.85,305.69l-2.32-1.34a1.33,1.33,0,0,1-.57-1.08v-2.48c0-.42.25-.61.57-.43l2.32,1.34a1.37,1.37,0,0,1,.57,1.08v2.49C307.42,305.68,307.16,305.87,306.85,305.69Z" transform="translate(-81.06 -134.48)"/><path class="cls-7" d="M299.07,301.2l-2.32-1.34a1.36,1.36,0,0,1-.57-1.08V296.3c0-.42.26-.61.57-.43l2.32,1.34a1.36,1.36,0,0,1,.57,1.08v2.48C299.64,301.19,299.38,301.38,299.07,301.2Z" transform="translate(-81.06 -134.48)"/><path class="cls-11" d="M336.45,273.49,395,239.71a5.7,5.7,0,0,0,2.37-4.53V224c0-1.74-1.07-2.55-2.37-1.79L336.45,256a5.7,5.7,0,0,0-2.38,4.53V271.7C334.07,273.45,335.14,274.25,336.45,273.49Z" transform="translate(-81.06 -134.48)"/><path class="cls-13" d="M338.13,269.58l55.15-31.84a2.9,2.9,0,0,0,1.2-2.3v-8.39c0-.88-.54-1.29-1.2-.91L338.13,258a2.89,2.89,0,0,0-1.21,2.3v8.39C336.92,269.56,337.46,270,338.13,269.58Z" transform="translate(-81.06 -134.48)"/><path class="cls-8" d="M381.78,240.13l8.23-4.75a2.78,2.78,0,0,0,1.17-2.23h0c0-.86-.52-1.26-1.17-.88L381.78,237a2.81,2.81,0,0,0-1.17,2.23h0C380.61,240.11,381.14,240.51,381.78,240.13Z" transform="translate(-81.06 -134.48)"/><path class="cls-1" d="M374.77,242.63c0,.86.6,1.2,1.35.77a3,3,0,0,0,1.35-2.33c0-.86-.61-1.21-1.35-.78A3,3,0,0,0,374.77,242.63Z" transform="translate(-81.06 -134.48)"/><path class="cls-1" d="M370,245.37c0,.86.6,1.21,1.35.78a3,3,0,0,0,1.35-2.33c0-.86-.61-1.21-1.35-.78A3,3,0,0,0,370,245.37Z" transform="translate(-81.06 -134.48)"/><path class="cls-8" d="M365.25,248.12c0,.86.6,1.21,1.35.78a3,3,0,0,0,1.35-2.34c0-.86-.61-1.21-1.35-.78A3,3,0,0,0,365.25,248.12Z" transform="translate(-81.06 -134.48)"/><path class="cls-1" d="M360.49,250.87c0,.86.61,1.21,1.35.78a3,3,0,0,0,1.35-2.34c0-.86-.6-1.21-1.35-.78A3,3,0,0,0,360.49,250.87Z" transform="translate(-81.06 -134.48)"/><path class="cls-1" d="M340.44,264.91l2.78-1.6a1.81,1.81,0,0,0,.75-1.43v-2.94c0-.55-.34-.8-.75-.56l-2.78,1.6a1.8,1.8,0,0,0-.74,1.43v2.93C339.7,264.89,340,265.15,340.44,264.91Z" transform="translate(-81.06 -134.48)"/><path class="cls-11" d="M336.45,293.17,395,259.38a5.69,5.69,0,0,0,2.37-4.53V243.7c0-1.75-1.07-2.55-2.37-1.8l-58.51,33.79a5.67,5.67,0,0,0-2.38,4.53v11.15C334.07,293.12,335.14,293.92,336.45,293.17Z" transform="translate(-81.06 -134.48)"/><path class="cls-13" d="M338.13,289.25l55.15-31.84a2.88,2.88,0,0,0,1.2-2.3v-8.38c0-.89-.54-1.3-1.2-.91l-55.15,31.84a2.86,2.86,0,0,0-1.21,2.3v8.38C336.92,289.23,337.46,289.64,338.13,289.25Z" transform="translate(-81.06 -134.48)"/><path class="cls-8" d="M381.78,259.81l8.23-4.75a2.81,2.81,0,0,0,1.17-2.24h0c0-.86-.52-1.25-1.17-.88l-8.23,4.75a2.82,2.82,0,0,0-1.17,2.23h0C380.61,259.79,381.14,260.18,381.78,259.81Z" transform="translate(-81.06 -134.48)"/><path class="cls-7" d="M374.77,262.3c0,.86.6,1.21,1.35.78a3,3,0,0,0,1.35-2.34c0-.86-.61-1.21-1.35-.78A3,3,0,0,0,374.77,262.3Z" transform="translate(-81.06 -134.48)"/><path class="cls-1" d="M370,265.05c0,.86.6,1.21,1.35.78a3,3,0,0,0,1.35-2.34c0-.86-.61-1.21-1.35-.78A3,3,0,0,0,370,265.05Z" transform="translate(-81.06 -134.48)"/><path class="cls-8" d="M365.25,267.79c0,.87.6,1.21,1.35.78a3,3,0,0,0,1.35-2.33c0-.86-.61-1.21-1.35-.78A3,3,0,0,0,365.25,267.79Z" transform="translate(-81.06 -134.48)"/><path class="cls-1" d="M360.49,270.54c0,.86.61,1.21,1.35.78a3,3,0,0,0,1.35-2.34c0-.86-.6-1.2-1.35-.77A3,3,0,0,0,360.49,270.54Z" transform="translate(-81.06 -134.48)"/><path class="cls-1" d="M340.44,284.58l2.78-1.6a1.81,1.81,0,0,0,.75-1.43v-2.93c0-.56-.34-.81-.75-.57l-2.78,1.6a1.8,1.8,0,0,0-.74,1.43V284C339.7,284.57,340,284.82,340.44,284.58Z" transform="translate(-81.06 -134.48)"/><path class="cls-11" d="M336.45,312.84,395,279.06a5.72,5.72,0,0,0,2.37-4.53V263.37c0-1.74-1.07-2.55-2.37-1.79l-58.51,33.78a5.68,5.68,0,0,0-2.38,4.53v11.16C334.07,312.79,335.14,313.6,336.45,312.84Z" transform="translate(-81.06 -134.48)"/><path class="cls-13" d="M338.13,308.93l55.15-31.84a2.91,2.91,0,0,0,1.2-2.3V266.4c0-.89-.54-1.29-1.2-.91l-55.15,31.84a2.88,2.88,0,0,0-1.21,2.3V308C336.92,308.9,337.46,309.31,338.13,308.93Z" transform="translate(-81.06 -134.48)"/><path class="cls-8" d="M381.78,279.48l8.23-4.75a2.78,2.78,0,0,0,1.17-2.23h0c0-.86-.52-1.26-1.17-.89l-8.23,4.76a2.81,2.81,0,0,0-1.17,2.23h0C380.61,279.46,381.14,279.85,381.78,279.48Z" transform="translate(-81.06 -134.48)"/><path class="cls-7" d="M374.77,282c0,.86.6,1.21,1.35.78a3,3,0,0,0,1.35-2.33c0-.86-.61-1.21-1.35-.78A3,3,0,0,0,374.77,282Z" transform="translate(-81.06 -134.48)"/><path class="cls-1" d="M370,284.72c0,.86.6,1.21,1.35.78a3,3,0,0,0,1.35-2.34c0-.86-.61-1.21-1.35-.78A3,3,0,0,0,370,284.72Z" transform="translate(-81.06 -134.48)"/><path class="cls-8" d="M365.25,287.47c0,.86.6,1.21,1.35.78a3,3,0,0,0,1.35-2.34c0-.86-.61-1.21-1.35-.78A3,3,0,0,0,365.25,287.47Z" transform="translate(-81.06 -134.48)"/><path class="cls-1" d="M360.49,290.22c0,.86.61,1.21,1.35.78a3,3,0,0,0,1.35-2.34c0-.86-.6-1.21-1.35-.78A3,3,0,0,0,360.49,290.22Z" transform="translate(-81.06 -134.48)"/><path class="cls-1" d="M340.44,304.26l2.78-1.6a1.81,1.81,0,0,0,.75-1.44v-2.93c0-.55-.34-.81-.75-.57l-2.78,1.6a1.8,1.8,0,0,0-.74,1.44v2.93C339.7,304.24,340,304.5,340.44,304.26Z" transform="translate(-81.06 -134.48)"/><path class="cls-11" d="M336.45,332.51,395,298.73a5.69,5.69,0,0,0,2.37-4.53V283.05c0-1.75-1.07-2.55-2.37-1.8L336.45,315a5.7,5.7,0,0,0-2.38,4.53v11.16C334.07,332.47,335.14,333.27,336.45,332.51Z" transform="translate(-81.06 -134.48)"/><path class="cls-13" d="M338.13,328.6l55.15-31.84a2.88,2.88,0,0,0,1.2-2.3v-8.39c0-.88-.54-1.29-1.2-.91L338.13,317a2.86,2.86,0,0,0-1.21,2.29v8.39C336.92,328.58,337.46,329,338.13,328.6Z" transform="translate(-81.06 -134.48)"/><path class="cls-8" d="M381.78,299.16,390,294.4a2.78,2.78,0,0,0,1.17-2.23h0c0-.86-.52-1.25-1.17-.88L381.78,296a2.81,2.81,0,0,0-1.17,2.23h0C380.61,299.13,381.14,299.53,381.78,299.16Z" transform="translate(-81.06 -134.48)"/><path class="cls-1" d="M374.77,301.65c0,.86.6,1.21,1.35.78a3,3,0,0,0,1.35-2.34c0-.86-.61-1.21-1.35-.78A3,3,0,0,0,374.77,301.65Z" transform="translate(-81.06 -134.48)"/><path class="cls-1" d="M370,304.4c0,.86.6,1.2,1.35.77a3,3,0,0,0,1.35-2.33c0-.86-.61-1.21-1.35-.78A3,3,0,0,0,370,304.4Z" transform="translate(-81.06 -134.48)"/><path class="cls-8" d="M365.25,307.14c0,.86.6,1.21,1.35.78a3,3,0,0,0,1.35-2.33c0-.87-.61-1.21-1.35-.78A3,3,0,0,0,365.25,307.14Z" transform="translate(-81.06 -134.48)"/><path class="cls-1" d="M360.49,309.89c0,.86.61,1.21,1.35.78a3,3,0,0,0,1.35-2.34c0-.86-.6-1.21-1.35-.78A3,3,0,0,0,360.49,309.89Z" transform="translate(-81.06 -134.48)"/><path class="cls-8" d="M340.44,323.93l2.78-1.6a1.81,1.81,0,0,0,.75-1.43V318c0-.55-.34-.8-.75-.56l-2.78,1.6a1.8,1.8,0,0,0-.74,1.43v2.93C339.7,323.92,340,324.17,340.44,323.93Z" transform="translate(-81.06 -134.48)"/><path class="cls-11" d="M336.45,352.19,395,318.41a5.72,5.72,0,0,0,2.37-4.53V302.72c0-1.75-1.07-2.55-2.37-1.79l-58.51,33.78a5.67,5.67,0,0,0-2.38,4.53V350.4C334.07,352.14,335.14,352.94,336.45,352.19Z" transform="translate(-81.06 -134.48)"/><path class="cls-13" d="M338.13,348.28l55.15-31.85a2.88,2.88,0,0,0,1.2-2.29v-8.39c0-.89-.54-1.29-1.2-.91l-55.15,31.84a2.86,2.86,0,0,0-1.21,2.3v8.39C336.92,348.25,337.46,348.66,338.13,348.28Z" transform="translate(-81.06 -134.48)"/><path class="cls-8" d="M381.78,318.83l8.23-4.75a2.78,2.78,0,0,0,1.17-2.23h0c0-.86-.52-1.26-1.17-.89l-8.23,4.75a2.84,2.84,0,0,0-1.17,2.24h0C380.61,318.81,381.14,319.2,381.78,318.83Z" transform="translate(-81.06 -134.48)"/><path class="cls-1" d="M374.77,321.32c0,.86.6,1.21,1.35.78a3,3,0,0,0,1.35-2.34c0-.86-.61-1.2-1.35-.77A3,3,0,0,0,374.77,321.32Z" transform="translate(-81.06 -134.48)"/><path class="cls-7" d="M370,324.07c0,.86.6,1.21,1.35.78a3,3,0,0,0,1.35-2.34c0-.86-.61-1.21-1.35-.78A3,3,0,0,0,370,324.07Z" transform="translate(-81.06 -134.48)"/><path class="cls-8" d="M365.25,326.82c0,.86.6,1.21,1.35.78a3,3,0,0,0,1.35-2.34c0-.86-.61-1.21-1.35-.78A3,3,0,0,0,365.25,326.82Z" transform="translate(-81.06 -134.48)"/><path class="cls-7" d="M360.49,329.56c0,.86.61,1.21,1.35.78a3,3,0,0,0,1.35-2.33c0-.86-.6-1.21-1.35-.78A3,3,0,0,0,360.49,329.56Z" transform="translate(-81.06 -134.48)"/><path class="cls-8" d="M340.44,343.6l2.78-1.6a1.79,1.79,0,0,0,.75-1.43v-2.93c0-.55-.34-.81-.75-.57l-2.78,1.6a1.8,1.8,0,0,0-.74,1.43V343C339.7,343.59,340,343.84,340.44,343.6Z" transform="translate(-81.06 -134.48)"/><path class="cls-11" d="M336.45,371.86,395,338.08a5.7,5.7,0,0,0,2.37-4.53V322.39c0-1.74-1.07-2.55-2.37-1.79l-58.51,33.78a5.7,5.7,0,0,0-2.38,4.53v11.16C334.07,371.82,335.14,372.62,336.45,371.86Z" transform="translate(-81.06 -134.48)"/><path class="cls-13" d="M338.13,368l55.15-31.84a2.9,2.9,0,0,0,1.2-2.3v-8.39c0-.88-.54-1.29-1.2-.91l-55.15,31.84a2.89,2.89,0,0,0-1.21,2.3V367C336.92,367.93,337.46,368.33,338.13,368Z" transform="translate(-81.06 -134.48)"/><path class="cls-8" d="M381.78,338.5l8.23-4.75a2.78,2.78,0,0,0,1.17-2.23h0c0-.86-.52-1.26-1.17-.88l-8.23,4.75a2.81,2.81,0,0,0-1.17,2.23h0C380.61,338.48,381.14,338.88,381.78,338.5Z" transform="translate(-81.06 -134.48)"/><path class="cls-1" d="M374.77,341c0,.86.6,1.2,1.35.77a3,3,0,0,0,1.35-2.33c0-.86-.61-1.21-1.35-.78A3,3,0,0,0,374.77,341Z" transform="translate(-81.06 -134.48)"/><path class="cls-1" d="M370,343.74c0,.86.6,1.21,1.35.78a3,3,0,0,0,1.35-2.33c0-.86-.61-1.21-1.35-.78A3,3,0,0,0,370,343.74Z" transform="translate(-81.06 -134.48)"/><path class="cls-8" d="M365.25,346.49c0,.86.6,1.21,1.35.78a3,3,0,0,0,1.35-2.34c0-.86-.61-1.21-1.35-.78A3,3,0,0,0,365.25,346.49Z" transform="translate(-81.06 -134.48)"/><path class="cls-1" d="M360.49,349.24c0,.86.61,1.21,1.35.78a3,3,0,0,0,1.35-2.34c0-.86-.6-1.21-1.35-.78A3,3,0,0,0,360.49,349.24Z" transform="translate(-81.06 -134.48)"/><path class="cls-1" d="M340.44,363.28l2.78-1.6a1.81,1.81,0,0,0,.75-1.43v-2.94c0-.55-.34-.8-.75-.56l-2.78,1.6a1.8,1.8,0,0,0-.74,1.43v2.93C339.7,363.26,340,363.52,340.44,363.28Z" transform="translate(-81.06 -134.48)"/><path class="cls-11" d="M336.45,391.54,395,357.75a5.69,5.69,0,0,0,2.37-4.53V342.07c0-1.75-1.07-2.55-2.37-1.8l-58.51,33.79a5.67,5.67,0,0,0-2.38,4.53v11.15C334.07,391.49,335.14,392.29,336.45,391.54Z" transform="translate(-81.06 -134.48)"/><path class="cls-13" d="M338.13,387.62l55.15-31.84a2.88,2.88,0,0,0,1.2-2.3V345.1c0-.89-.54-1.3-1.2-.91L338.13,376a2.86,2.86,0,0,0-1.21,2.3v8.38C336.92,387.6,337.46,388,338.13,387.62Z" transform="translate(-81.06 -134.48)"/><path class="cls-8" d="M381.78,358.18l8.23-4.75a2.81,2.81,0,0,0,1.17-2.24h0c0-.86-.52-1.25-1.17-.88l-8.23,4.75a2.82,2.82,0,0,0-1.17,2.23h0C380.61,358.16,381.14,358.55,381.78,358.18Z" transform="translate(-81.06 -134.48)"/><path class="cls-7" d="M373.26,361.73c0,1.63,1.15,2.29,2.55,1.48a5.64,5.64,0,0,0,2.55-4.42c0-1.62-1.14-2.28-2.55-1.47A5.65,5.65,0,0,0,373.26,361.73Z" transform="translate(-81.06 -134.48)"/><path class="cls-1" d="M363.41,367.5c0,.86.6,1.21,1.35.78a3,3,0,0,0,1.35-2.34c0-.86-.61-1.2-1.35-.77A3,3,0,0,0,363.41,367.5Z" transform="translate(-81.06 -134.48)"/><path class="cls-8" d="M358.65,370.25c0,.86.6,1.21,1.35.78a3,3,0,0,0,1.35-2.34c0-.86-.61-1.21-1.35-.78A3,3,0,0,0,358.65,370.25Z" transform="translate(-81.06 -134.48)"/><path class="cls-1" d="M353.89,373c0,.86.6,1.21,1.35.78a3,3,0,0,0,1.35-2.34c0-.86-.61-1.21-1.35-.78A3,3,0,0,0,353.89,373Z" transform="translate(-81.06 -134.48)"/><path class="cls-8" d="M340.44,383l2.78-1.6a1.81,1.81,0,0,0,.75-1.43V377c0-.56-.34-.81-.75-.57l-2.78,1.6a1.8,1.8,0,0,0-.74,1.43v2.94C339.7,382.94,340,383.19,340.44,383Z" transform="translate(-81.06 -134.48)"/><path class="cls-10" d="M173.61,436h0V290.18l58-15.17,10.68-6.17c2.45-1.41,6.73-1.23,9.55.4l10,5.75,30.91,0-9.15,140.75a2.77,2.77,0,0,1-1.65,2.56L224,461.93c-2.45,1.41-6.73,1.23-9.56-.4l-38.54-22.25C174.3,438.33,173.52,437.11,173.61,436Z" transform="translate(-81.06 -134.48)"/><path class="cls-8" d="M246.68,267.9a11,11,0,0,1,5.12,1.34l10,5.75,30.91,0V421.16a2.77,2.77,0,0,1-1.64,2.57l-67,38.2a8.63,8.63,0,0,1-4.43.94l-.69-147.1Z" transform="translate(-81.06 -134.48)"/><path class="cls-11" d="M223.43,462.23a10.93,10.93,0,0,1-7.64-.09V314h7.64Z" transform="translate(-81.06 -134.48)"/><path class="cls-8" d="M224,315.79l67-38.2c2.45-1.42,2.14-3.89-.69-5.52L251.8,249.81c-2.82-1.63-7.1-1.81-9.55-.39l-67,38.2c-2.45,1.41-2.14,3.88.69,5.52l38.54,22.25C217.31,317,221.59,317.2,224,315.79Z" transform="translate(-81.06 -134.48)"/><path class="cls-12" d="M175.94,290.43l38.54,22.25c2.83,1.63,7.11,1.81,9.56.4l67-38.2a3.65,3.65,0,0,0,1.22-1.09c.84,1.36.46,2.82-1.22,3.8l-67,38.2c-2.45,1.41-6.73,1.24-9.56-.4l-38.54-22.25c-2.2-1.27-2.87-3.05-1.91-4.44A5.35,5.35,0,0,0,175.94,290.43Z" transform="translate(-81.06 -134.48)"/><path class="cls-1" d="M222.15,300.31l44.6-25.86c1.15-.66,1-1.82-.32-2.58l-18-10.42a5,5,0,0,0-4.47-.18l-44.61,25.85c-1.14.66-1,1.82.33,2.59l18,10.41A5,5,0,0,0,222.15,300.31Z" transform="translate(-81.06 -134.48)"/><path class="cls-8" d="M246.23,275.61l2.58-1.49c.16-.09.14-.25,0-.36l-2.5-1.44a.68.68,0,0,0-.62,0l-2.58,1.5c-.16.09-.14.25,0,.35l2.5,1.45A.71.71,0,0,0,246.23,275.61Z" transform="translate(-81.06 -134.48)"/><path class="cls-8" d="M237.59,280.58l2.59-1.5c.16-.09.14-.25-.05-.35l-2.49-1.44a.68.68,0,0,0-.62,0l-2.59,1.49c-.15.09-.13.25,0,.36l2.49,1.44A.68.68,0,0,0,237.59,280.58Z" transform="translate(-81.06 -134.48)"/><path class="cls-8" d="M229,285.54l2.58-1.49c.16-.09.14-.25,0-.36l-2.5-1.44a.68.68,0,0,0-.62,0l-2.58,1.5c-.16.09-.14.25,0,.35l2.5,1.45A.71.71,0,0,0,229,285.54Z" transform="translate(-81.06 -134.48)"/><path class="cls-8" d="M220.32,290.51l2.59-1.5c.16-.09.14-.25,0-.35l-2.49-1.44a.68.68,0,0,0-.62,0l-2.59,1.49c-.15.09-.13.25.05.36l2.49,1.44A.68.68,0,0,0,220.32,290.51Z" transform="translate(-81.06 -134.48)"/><path class="cls-11" d="M266.75,274.45l-.05,0a2.53,2.53,0,0,0-.27-.18l-18-10.42a5,5,0,0,0-4.47-.18l-44.55,25.82c-1.06-.76-1.11-1.79-.06-2.4l44.61-25.85a5,5,0,0,1,4.47.18l18,10.42C267.76,272.63,267.9,273.79,266.75,274.45Z" transform="translate(-81.06 -134.48)"/><path class="cls-1" d="M207,344.67,181.6,330.15a6.17,6.17,0,0,1-2.59-4.93v-9.07c0-1.91,1.16-2.78,2.59-2L207,328.71a6.22,6.22,0,0,1,2.58,4.94v9.07C209.54,344.62,208.38,345.5,207,344.67Z" transform="translate(-81.06 -134.48)"/><path class="cls-7" d="M180.34,313.92a2.54,2.54,0,0,0-.65,1.89v9.07a6.17,6.17,0,0,0,2.59,4.93l25.36,14.52a1.85,1.85,0,0,0,1.25.28,1.54,1.54,0,0,1-1.93.06L181.6,330.15a6.17,6.17,0,0,1-2.59-4.93v-9.07C179,314.86,179.55,314.05,180.34,313.92Z" transform="translate(-81.06 -134.48)"/><path class="cls-10" d="M199.33,334.82,197,333.48a1.35,1.35,0,0,1-.56-1.08v-2.48c0-.42.25-.61.56-.43l2.33,1.35a1.33,1.33,0,0,1,.56,1.07v2.49C199.89,334.81,199.64,335,199.33,334.82Z" transform="translate(-81.06 -134.48)"/><path class="cls-7" d="M191.55,330.33,189.22,329a1.35,1.35,0,0,1-.56-1.08v-2.48c0-.42.25-.61.56-.43l2.33,1.34a1.36,1.36,0,0,1,.56,1.08v2.49C192.11,330.32,191.86,330.51,191.55,330.33Z" transform="translate(-81.06 -134.48)"/><path class="cls-1" d="M207,410.21,181.6,395.69a6.17,6.17,0,0,1-2.59-4.94v-9.07c0-1.9,1.16-2.77,2.59-1.95L207,394.25a6.19,6.19,0,0,1,2.58,4.94v9.07C209.54,410.16,208.38,411,207,410.21Z" transform="translate(-81.06 -134.48)"/><path class="cls-7" d="M180.34,379.46a2.5,2.5,0,0,0-.65,1.88v9.07a6.17,6.17,0,0,0,2.59,4.94l25.36,14.52a1.84,1.84,0,0,0,1.25.27,1.53,1.53,0,0,1-1.93.07L181.6,395.69a6.17,6.17,0,0,1-2.59-4.94v-9.07C179,380.39,179.55,379.59,180.34,379.46Z" transform="translate(-81.06 -134.48)"/><path class="cls-10" d="M199.33,400.36,197,399a1.36,1.36,0,0,1-.56-1.08v-2.49c0-.41.25-.6.56-.42l2.33,1.34a1.35,1.35,0,0,1,.56,1.08v2.48C199.89,400.35,199.64,400.54,199.33,400.36Z" transform="translate(-81.06 -134.48)"/><path class="cls-7" d="M191.55,395.87l-2.33-1.35a1.34,1.34,0,0,1-.56-1.07V391c0-.41.25-.6.56-.42l2.33,1.34a1.35,1.35,0,0,1,.56,1.08v2.48C192.11,395.86,191.86,396.05,191.55,395.87Z" transform="translate(-81.06 -134.48)"/><path class="cls-1" d="M207,443,181.6,428.46a6.2,6.2,0,0,1-2.59-4.94v-9.07c0-1.9,1.16-2.78,2.59-1.95L207,427a6.19,6.19,0,0,1,2.58,4.94V441C209.54,442.93,208.38,443.8,207,443Z" transform="translate(-81.06 -134.48)"/><path class="cls-7" d="M180.34,412.22a2.54,2.54,0,0,0-.65,1.89v9.07a6.2,6.2,0,0,0,2.59,4.94l25.36,14.52a1.84,1.84,0,0,0,1.25.27A1.53,1.53,0,0,1,207,443L181.6,428.46a6.2,6.2,0,0,1-2.59-4.94v-9.07C179,413.16,179.55,412.36,180.34,412.22Z" transform="translate(-81.06 -134.48)"/><path class="cls-10" d="M199.33,433.13,197,431.78a1.34,1.34,0,0,1-.56-1.07v-2.49c0-.41.25-.6.56-.42l2.33,1.34a1.35,1.35,0,0,1,.56,1.08v2.48C199.89,433.12,199.64,433.31,199.33,433.13Z" transform="translate(-81.06 -134.48)"/><path class="cls-7" d="M191.55,428.64l-2.33-1.35a1.34,1.34,0,0,1-.56-1.07v-2.49c0-.41.25-.6.56-.42l2.33,1.34a1.34,1.34,0,0,1,.56,1.07v2.49C192.11,428.62,191.86,428.81,191.55,428.64Z" transform="translate(-81.06 -134.48)"/><path class="cls-1" d="M207,377.44,181.6,362.92A6.17,6.17,0,0,1,179,358v-9.06c0-1.91,1.16-2.78,2.59-2L207,361.48a6.22,6.22,0,0,1,2.58,4.94v9.07C209.54,377.39,208.38,378.27,207,377.44Z" transform="translate(-81.06 -134.48)"/><path class="cls-7" d="M180.34,346.69a2.53,2.53,0,0,0-.65,1.89v9.06a6.17,6.17,0,0,0,2.59,4.94l25.36,14.52a1.85,1.85,0,0,0,1.25.28,1.54,1.54,0,0,1-1.93.06L181.6,362.92A6.17,6.17,0,0,1,179,358v-9.06C179,347.62,179.55,346.82,180.34,346.69Z" transform="translate(-81.06 -134.48)"/><path class="cls-10" d="M199.33,367.59,197,366.25a1.35,1.35,0,0,1-.56-1.08v-2.48c0-.42.25-.61.56-.43l2.33,1.34a1.35,1.35,0,0,1,.56,1.08v2.48C199.89,367.58,199.64,367.77,199.33,367.59Z" transform="translate(-81.06 -134.48)"/><path class="cls-7" d="M191.55,363.1l-2.33-1.34a1.36,1.36,0,0,1-.56-1.08v-2.49c0-.41.25-.6.56-.42l2.33,1.34a1.35,1.35,0,0,1,.56,1.08v2.48C192.11,363.09,191.86,363.28,191.55,363.1Z" transform="translate(-81.06 -134.48)"/><path class="cls-11" d="M228.92,335.39l58.51-33.78a5.68,5.68,0,0,0,2.37-4.53V285.92c0-1.74-1.06-2.55-2.37-1.79l-58.51,33.78a5.68,5.68,0,0,0-2.37,4.53V333.6C226.55,335.34,227.61,336.15,228.92,335.39Z" transform="translate(-81.06 -134.48)"/><path class="cls-13" d="M230.6,331.48l55.15-31.84a2.89,2.89,0,0,0,1.21-2.3V289c0-.88-.54-1.29-1.21-.91L230.6,319.88a2.91,2.91,0,0,0-1.2,2.3v8.39C229.4,331.45,229.94,331.86,230.6,331.48Z" transform="translate(-81.06 -134.48)"/><path class="cls-8" d="M274.26,302l8.23-4.75a2.78,2.78,0,0,0,1.17-2.23h0c0-.86-.52-1.26-1.17-.88l-8.23,4.75a2.78,2.78,0,0,0-1.17,2.23h0C273.09,302,273.61,302.41,274.26,302Z" transform="translate(-81.06 -134.48)"/><path class="cls-1" d="M267.25,304.52c0,.86.6,1.21,1.34.78a3,3,0,0,0,1.35-2.33c0-.86-.6-1.21-1.35-.78A3,3,0,0,0,267.25,304.52Z" transform="translate(-81.06 -134.48)"/><path class="cls-1" d="M262.49,307.27c0,.86.6,1.21,1.35.78a3,3,0,0,0,1.35-2.34c0-.86-.61-1.2-1.35-.77A3,3,0,0,0,262.49,307.27Z" transform="translate(-81.06 -134.48)"/><path class="cls-8" d="M257.73,310c0,.86.6,1.21,1.35.78a3,3,0,0,0,1.35-2.34c0-.86-.61-1.21-1.35-.78A3,3,0,0,0,257.73,310Z" transform="translate(-81.06 -134.48)"/><path class="cls-1" d="M253,312.77c0,.86.6,1.21,1.35.78a3,3,0,0,0,1.35-2.34c0-.86-.61-1.21-1.35-.78A3,3,0,0,0,253,312.77Z" transform="translate(-81.06 -134.48)"/><path class="cls-1" d="M232.92,326.81l2.77-1.6a1.78,1.78,0,0,0,.75-1.44v-2.93c0-.55-.33-.8-.75-.57l-2.77,1.61a1.79,1.79,0,0,0-.75,1.43v2.93C232.17,326.79,232.51,327.05,232.92,326.81Z" transform="translate(-81.06 -134.48)"/><path class="cls-11" d="M228.92,355.06l58.51-33.78a5.66,5.66,0,0,0,2.37-4.53V305.6c0-1.75-1.06-2.55-2.37-1.8l-58.51,33.78a5.69,5.69,0,0,0-2.37,4.53v11.16C226.55,355,227.61,355.82,228.92,355.06Z" transform="translate(-81.06 -134.48)"/><path class="cls-13" d="M230.6,351.15l55.15-31.84A2.86,2.86,0,0,0,287,317v-8.39c0-.88-.54-1.29-1.21-.9L230.6,339.56a2.88,2.88,0,0,0-1.2,2.3v8.38C229.4,351.13,229.94,351.54,230.6,351.15Z" transform="translate(-81.06 -134.48)"/><path class="cls-8" d="M274.26,321.71l8.23-4.76a2.78,2.78,0,0,0,1.17-2.23h0c0-.86-.52-1.25-1.17-.88l-8.23,4.75a2.78,2.78,0,0,0-1.17,2.23h0C273.09,321.68,273.61,322.08,274.26,321.71Z" transform="translate(-81.06 -134.48)"/><path class="cls-7" d="M267.25,324.2c0,.86.6,1.21,1.34.78a3,3,0,0,0,1.35-2.34c0-.86-.6-1.21-1.35-.78A3,3,0,0,0,267.25,324.2Z" transform="translate(-81.06 -134.48)"/><path class="cls-1" d="M262.49,327c0,.86.6,1.2,1.35.77a3,3,0,0,0,1.35-2.33c0-.86-.61-1.21-1.35-.78A3,3,0,0,0,262.49,327Z" transform="translate(-81.06 -134.48)"/><path class="cls-8" d="M257.73,329.69c0,.86.6,1.21,1.35.78a3,3,0,0,0,1.35-2.33c0-.86-.61-1.21-1.35-.78A3,3,0,0,0,257.73,329.69Z" transform="translate(-81.06 -134.48)"/><path class="cls-1" d="M253,332.44c0,.86.6,1.21,1.35.78a3,3,0,0,0,1.35-2.34c0-.86-.61-1.21-1.35-.78A3,3,0,0,0,253,332.44Z" transform="translate(-81.06 -134.48)"/><path class="cls-1" d="M232.92,346.48l2.77-1.6a1.78,1.78,0,0,0,.75-1.43v-2.93c0-.56-.33-.81-.75-.57l-2.77,1.6a1.81,1.81,0,0,0-.75,1.43v2.93C232.17,346.47,232.51,346.72,232.92,346.48Z" transform="translate(-81.06 -134.48)"/><path class="cls-11" d="M228.92,374.74,287.43,341a5.69,5.69,0,0,0,2.37-4.53V325.27c0-1.75-1.06-2.55-2.37-1.79l-58.51,33.78a5.66,5.66,0,0,0-2.37,4.53V373C226.55,374.69,227.61,375.49,228.92,374.74Z" transform="translate(-81.06 -134.48)"/><path class="cls-13" d="M230.6,370.83,285.75,339a2.89,2.89,0,0,0,1.21-2.3V328.3c0-.89-.54-1.29-1.21-.91L230.6,359.23a2.88,2.88,0,0,0-1.2,2.3v8.39C229.4,370.8,229.94,371.21,230.6,370.83Z" transform="translate(-81.06 -134.48)"/><path class="cls-8" d="M274.26,341.38l8.23-4.75a2.78,2.78,0,0,0,1.17-2.23h0c0-.86-.52-1.26-1.17-.89l-8.23,4.76a2.78,2.78,0,0,0-1.17,2.23h0C273.09,341.36,273.61,341.75,274.26,341.38Z" transform="translate(-81.06 -134.48)"/><path class="cls-7" d="M267.25,343.87c0,.86.6,1.21,1.34.78a3,3,0,0,0,1.35-2.34c0-.86-.6-1.2-1.35-.77A3,3,0,0,0,267.25,343.87Z" transform="translate(-81.06 -134.48)"/><path class="cls-1" d="M262.49,346.62c0,.86.6,1.21,1.35.78a3,3,0,0,0,1.35-2.34c0-.86-.61-1.21-1.35-.78A3,3,0,0,0,262.49,346.62Z" transform="translate(-81.06 -134.48)"/><path class="cls-8" d="M257.73,349.37c0,.86.6,1.21,1.35.78a3,3,0,0,0,1.35-2.34c0-.86-.61-1.21-1.35-.78A3,3,0,0,0,257.73,349.37Z" transform="translate(-81.06 -134.48)"/><path class="cls-1" d="M253,352.11c0,.87.6,1.21,1.35.78a3,3,0,0,0,1.35-2.33c0-.86-.61-1.21-1.35-.78A3,3,0,0,0,253,352.11Z" transform="translate(-81.06 -134.48)"/><path class="cls-1" d="M232.92,366.16l2.77-1.61a1.76,1.76,0,0,0,.75-1.43v-2.93c0-.55-.33-.81-.75-.57l-2.77,1.6a1.81,1.81,0,0,0-.75,1.44v2.93C232.17,366.14,232.51,366.39,232.92,366.16Z" transform="translate(-81.06 -134.48)"/><path class="cls-11" d="M228.92,394.41l58.51-33.78a5.66,5.66,0,0,0,2.37-4.53V344.94c0-1.74-1.06-2.54-2.37-1.79l-58.51,33.78a5.69,5.69,0,0,0-2.37,4.53v11.16C226.55,394.37,227.61,395.17,228.92,394.41Z" transform="translate(-81.06 -134.48)"/><path class="cls-13" d="M230.6,390.5l55.15-31.84a2.86,2.86,0,0,0,1.21-2.3V348c0-.88-.54-1.29-1.21-.91L230.6,378.9a2.91,2.91,0,0,0-1.2,2.3v8.39C229.4,390.48,229.94,390.88,230.6,390.5Z" transform="translate(-81.06 -134.48)"/><path class="cls-8" d="M274.26,361.05l8.23-4.75a2.78,2.78,0,0,0,1.17-2.23h0c0-.86-.52-1.26-1.17-.88l-8.23,4.75a2.78,2.78,0,0,0-1.17,2.23h0C273.09,361,273.61,361.43,274.26,361.05Z" transform="translate(-81.06 -134.48)"/><path class="cls-1" d="M267.25,363.55c0,.86.6,1.21,1.34.78a3,3,0,0,0,1.35-2.34c0-.86-.6-1.21-1.35-.78A3,3,0,0,0,267.25,363.55Z" transform="translate(-81.06 -134.48)"/><path class="cls-1" d="M262.49,366.29c0,.86.6,1.21,1.35.78a3,3,0,0,0,1.35-2.33c0-.86-.61-1.21-1.35-.78A3,3,0,0,0,262.49,366.29Z" transform="translate(-81.06 -134.48)"/><path class="cls-8" d="M257.73,369c0,.86.6,1.21,1.35.78a3,3,0,0,0,1.35-2.34c0-.86-.61-1.21-1.35-.78A3,3,0,0,0,257.73,369Z" transform="translate(-81.06 -134.48)"/><path class="cls-1" d="M253,371.79c0,.86.6,1.21,1.35.78a3,3,0,0,0,1.35-2.34c0-.86-.61-1.21-1.35-.78A3,3,0,0,0,253,371.79Z" transform="translate(-81.06 -134.48)"/><path class="cls-8" d="M232.92,385.83l2.77-1.6a1.78,1.78,0,0,0,.75-1.43v-2.94c0-.55-.33-.8-.75-.56l-2.77,1.6a1.81,1.81,0,0,0-.75,1.43v2.93C232.17,385.81,232.51,386.07,232.92,385.83Z" transform="translate(-81.06 -134.48)"/><path class="cls-11" d="M228.92,414.09l58.51-33.78a5.69,5.69,0,0,0,2.37-4.54V364.62c0-1.75-1.06-2.55-2.37-1.79l-58.51,33.78a5.66,5.66,0,0,0-2.37,4.53v11.15C226.55,414,227.61,414.84,228.92,414.09Z" transform="translate(-81.06 -134.48)"/><path class="cls-13" d="M230.6,410.17l55.15-31.84A2.86,2.86,0,0,0,287,376v-8.38c0-.89-.54-1.3-1.21-.91L230.6,398.58a2.88,2.88,0,0,0-1.2,2.3v8.38C229.4,410.15,229.94,410.56,230.6,410.17Z" transform="translate(-81.06 -134.48)"/><path class="cls-8" d="M274.26,380.73l8.23-4.75a2.81,2.81,0,0,0,1.17-2.24h0c0-.86-.52-1.25-1.17-.88l-8.23,4.75a2.81,2.81,0,0,0-1.17,2.24h0C273.09,380.71,273.61,381.1,274.26,380.73Z" transform="translate(-81.06 -134.48)"/><path class="cls-1" d="M267.25,383.22c0,.86.6,1.21,1.34.78a3,3,0,0,0,1.35-2.34c0-.86-.6-1.21-1.35-.78A3,3,0,0,0,267.25,383.22Z" transform="translate(-81.06 -134.48)"/><path class="cls-7" d="M262.49,386c0,.86.6,1.21,1.35.78a3,3,0,0,0,1.35-2.34c0-.86-.61-1.21-1.35-.78A3,3,0,0,0,262.49,386Z" transform="translate(-81.06 -134.48)"/><path class="cls-8" d="M257.73,388.72c0,.86.6,1.2,1.35.77a3,3,0,0,0,1.35-2.33c0-.86-.61-1.21-1.35-.78A3,3,0,0,0,257.73,388.72Z" transform="translate(-81.06 -134.48)"/><path class="cls-7" d="M253,391.46c0,.86.6,1.21,1.35.78a3,3,0,0,0,1.35-2.33c0-.86-.61-1.21-1.35-.78A3,3,0,0,0,253,391.46Z" transform="translate(-81.06 -134.48)"/><path class="cls-8" d="M232.92,405.5l2.77-1.6a1.78,1.78,0,0,0,.75-1.43v-2.93c0-.56-.33-.81-.75-.57l-2.77,1.6a1.81,1.81,0,0,0-.75,1.43v2.94C232.17,405.49,232.51,405.74,232.92,405.5Z" transform="translate(-81.06 -134.48)"/><path class="cls-11" d="M228.92,433.76,287.43,400a5.69,5.69,0,0,0,2.37-4.53V384.29c0-1.74-1.06-2.55-2.37-1.79l-58.51,33.78a5.68,5.68,0,0,0-2.37,4.53V432C226.55,433.71,227.61,434.52,228.92,433.76Z" transform="translate(-81.06 -134.48)"/><path class="cls-13" d="M230.6,429.85,285.75,398a2.89,2.89,0,0,0,1.21-2.3v-8.39c0-.89-.54-1.29-1.21-.91L230.6,418.25a2.91,2.91,0,0,0-1.2,2.3v8.39C229.4,429.82,229.94,430.23,230.6,429.85Z" transform="translate(-81.06 -134.48)"/><path class="cls-8" d="M274.26,400.4l8.23-4.75a2.78,2.78,0,0,0,1.17-2.23h0c0-.86-.52-1.26-1.17-.88l-8.23,4.75a2.78,2.78,0,0,0-1.17,2.23h0C273.09,400.38,273.61,400.77,274.26,400.4Z" transform="translate(-81.06 -134.48)"/><path class="cls-1" d="M267.25,402.89c0,.86.6,1.21,1.34.78a3,3,0,0,0,1.35-2.33c0-.86-.6-1.21-1.35-.78A3,3,0,0,0,267.25,402.89Z" transform="translate(-81.06 -134.48)"/><path class="cls-1" d="M262.49,405.64c0,.86.6,1.21,1.35.78a3,3,0,0,0,1.35-2.34c0-.86-.61-1.2-1.35-.77A3,3,0,0,0,262.49,405.64Z" transform="translate(-81.06 -134.48)"/><path class="cls-8" d="M257.73,408.39c0,.86.6,1.21,1.35.78a3,3,0,0,0,1.35-2.34c0-.86-.61-1.21-1.35-.78A3,3,0,0,0,257.73,408.39Z" transform="translate(-81.06 -134.48)"/><path class="cls-1" d="M253,411.14c0,.86.6,1.21,1.35.78a3,3,0,0,0,1.35-2.34c0-.86-.61-1.21-1.35-.78A3,3,0,0,0,253,411.14Z" transform="translate(-81.06 -134.48)"/><path class="cls-1" d="M232.92,425.18l2.77-1.6a1.78,1.78,0,0,0,.75-1.44v-2.93c0-.55-.33-.8-.75-.57l-2.77,1.6a1.83,1.83,0,0,0-.75,1.44v2.93C232.17,425.16,232.51,425.42,232.92,425.18Z" transform="translate(-81.06 -134.48)"/><path class="cls-11" d="M228.92,453.43l58.51-33.78a5.66,5.66,0,0,0,2.37-4.53V404c0-1.75-1.06-2.55-2.37-1.8L228.92,436a5.69,5.69,0,0,0-2.37,4.53v11.16C226.55,453.39,227.61,454.19,228.92,453.43Z" transform="translate(-81.06 -134.48)"/><path class="cls-13" d="M230.6,449.52l55.15-31.84a2.86,2.86,0,0,0,1.21-2.3V407c0-.88-.54-1.29-1.21-.9L230.6,437.93a2.88,2.88,0,0,0-1.2,2.3v8.38C229.4,449.5,229.94,449.91,230.6,449.52Z" transform="translate(-81.06 -134.48)"/><path class="cls-8" d="M274.26,420.08l8.23-4.76a2.78,2.78,0,0,0,1.17-2.23h0c0-.86-.52-1.25-1.17-.88L274.26,417a2.78,2.78,0,0,0-1.17,2.23h0C273.09,420.05,273.61,420.45,274.26,420.08Z" transform="translate(-81.06 -134.48)"/><path class="cls-7" d="M265.74,423.63c0,1.63,1.14,2.29,2.55,1.47a5.61,5.61,0,0,0,2.55-4.41c0-1.62-1.14-2.28-2.55-1.47A5.62,5.62,0,0,0,265.74,423.63Z" transform="translate(-81.06 -134.48)"/><path class="cls-1" d="M255.88,429.4c0,.86.61,1.21,1.35.78a3,3,0,0,0,1.35-2.34c0-.86-.6-1.21-1.35-.78A3,3,0,0,0,255.88,429.4Z" transform="translate(-81.06 -134.48)"/><path class="cls-8" d="M251.13,432.15c0,.86.6,1.21,1.35.78a3,3,0,0,0,1.34-2.34c0-.86-.6-1.21-1.34-.78A3,3,0,0,0,251.13,432.15Z" transform="translate(-81.06 -134.48)"/><path class="cls-1" d="M246.37,434.9c0,.86.6,1.2,1.35.77a3,3,0,0,0,1.35-2.33c0-.86-.61-1.21-1.35-.78A3,3,0,0,0,246.37,434.9Z" transform="translate(-81.06 -134.48)"/><path class="cls-8" d="M232.92,444.85l2.77-1.6a1.78,1.78,0,0,0,.75-1.43v-2.93c0-.56-.33-.81-.75-.57l-2.77,1.6a1.81,1.81,0,0,0-.75,1.43v2.93C232.17,444.84,232.51,445.09,232.92,444.85Z" transform="translate(-81.06 -134.48)"/><path class="cls-10" d="M364.4,422h0V276.18l58-15.17L433,254.84c2.45-1.41,6.73-1.23,9.56.4l10,5.75,30.91,0-9.15,140.75a2.76,2.76,0,0,1-1.64,2.56l-57.84,43.65c-2.45,1.41-6.73,1.23-9.56-.4l-38.55-22.25C365.1,424.33,364.31,423.11,364.4,422Z" transform="translate(-81.06 -134.48)"/><path class="cls-8" d="M437.47,253.9a11,11,0,0,1,5.13,1.34l10,5.75,30.91,0V407.16a2.77,2.77,0,0,1-1.64,2.57l-67,38.2a8.57,8.57,0,0,1-4.44.94l-.69-147.1Z" transform="translate(-81.06 -134.48)"/><path class="cls-11" d="M414.22,448.23a10.93,10.93,0,0,1-7.64-.09V300h7.64Z" transform="translate(-81.06 -134.48)"/><path class="cls-8" d="M414.84,301.79l67-38.2c2.45-1.42,2.14-3.89-.68-5.52L442.6,235.81c-2.83-1.63-7.11-1.81-9.56-.39l-67,38.2c-2.45,1.41-2.14,3.88.69,5.52l38.55,22.25C408.11,303,412.39,303.2,414.84,301.79Z" transform="translate(-81.06 -134.48)"/><path class="cls-12" d="M366.73,276.43l38.55,22.25c2.83,1.63,7.11,1.81,9.56.4l67-38.2a3.65,3.65,0,0,0,1.22-1.09c.85,1.36.46,2.82-1.22,3.8l-67,38.2c-2.45,1.41-6.73,1.24-9.56-.4l-38.55-22.25c-2.2-1.27-2.87-3.05-1.91-4.44A5.35,5.35,0,0,0,366.73,276.43Z" transform="translate(-81.06 -134.48)"/><path class="cls-1" d="M412.94,286.31l44.61-25.86c1.14-.66,1-1.82-.33-2.58l-18-10.42a5,5,0,0,0-4.48-.18l-44.6,25.85c-1.15.67-1,1.82.32,2.59l18,10.41A5,5,0,0,0,412.94,286.31Z" transform="translate(-81.06 -134.48)"/><path class="cls-8" d="M437,261.61l2.59-1.49c.15-.09.13-.25-.05-.36l-2.49-1.44a.68.68,0,0,0-.62,0l-2.59,1.5c-.16.09-.14.25.05.35l2.49,1.45A.71.71,0,0,0,437,261.61Z" transform="translate(-81.06 -134.48)"/><path class="cls-8" d="M428.39,266.58l2.58-1.5c.16-.09.14-.25,0-.35l-2.5-1.44a.68.68,0,0,0-.62,0l-2.58,1.49c-.16.09-.14.25,0,.36l2.5,1.44A.68.68,0,0,0,428.39,266.58Z" transform="translate(-81.06 -134.48)"/><path class="cls-8" d="M419.75,271.54l2.59-1.49c.15-.09.13-.25,0-.36l-2.49-1.44a.65.65,0,0,0-.62,0l-2.59,1.49c-.16.09-.14.25.05.35l2.49,1.45A.71.71,0,0,0,419.75,271.54Z" transform="translate(-81.06 -134.48)"/><path class="cls-8" d="M411.12,276.51l2.58-1.5c.16-.09.14-.25,0-.35l-2.5-1.44a.68.68,0,0,0-.62,0L408,274.68c-.16.09-.14.25,0,.36l2.5,1.44A.68.68,0,0,0,411.12,276.51Z" transform="translate(-81.06 -134.48)"/><path class="cls-11" d="M457.55,260.45l-.06,0a1.81,1.81,0,0,0-.27-.18l-18-10.42a5,5,0,0,0-4.48-.18l-44.55,25.82c-1.06-.76-1.11-1.79-.05-2.4l44.6-25.85a5,5,0,0,1,4.48.18l18,10.42C458.55,258.63,458.69,259.79,457.55,260.45Z" transform="translate(-81.06 -134.48)"/><path class="cls-1" d="M397.75,330.67l-25.36-14.52a6.16,6.16,0,0,1-2.58-4.93v-9.07c0-1.91,1.15-2.78,2.58-2l25.36,14.52a6.2,6.2,0,0,1,2.58,4.94v9.07C400.33,330.62,399.18,331.5,397.75,330.67Z" transform="translate(-81.06 -134.48)"/><path class="cls-7" d="M371.13,299.92a2.54,2.54,0,0,0-.64,1.89v9.07a6.16,6.16,0,0,0,2.58,4.93l25.36,14.52a1.87,1.87,0,0,0,1.26.28,1.55,1.55,0,0,1-1.94.06l-25.36-14.52a6.16,6.16,0,0,1-2.58-4.93v-9.07C369.81,300.86,370.34,300.05,371.13,299.92Z" transform="translate(-81.06 -134.48)"/><path class="cls-10" d="M390.12,320.82l-2.32-1.34a1.33,1.33,0,0,1-.57-1.08v-2.48c0-.42.25-.61.57-.43l2.32,1.35a1.34,1.34,0,0,1,.57,1.07v2.49C390.69,320.81,390.43,321,390.12,320.82Z" transform="translate(-81.06 -134.48)"/><path class="cls-7" d="M382.34,316.33,380,315a1.36,1.36,0,0,1-.57-1.08v-2.48c0-.42.26-.61.57-.43l2.32,1.34a1.37,1.37,0,0,1,.57,1.08v2.49C382.91,316.32,382.65,316.51,382.34,316.33Z" transform="translate(-81.06 -134.48)"/><path class="cls-1" d="M397.75,396.21l-25.36-14.52a6.17,6.17,0,0,1-2.58-4.94v-9.07c0-1.9,1.15-2.77,2.58-1.95l25.36,14.52a6.17,6.17,0,0,1,2.58,4.94v9.07C400.33,396.16,399.18,397,397.75,396.21Z" transform="translate(-81.06 -134.48)"/><path class="cls-7" d="M371.13,365.46a2.5,2.5,0,0,0-.64,1.88v9.07a6.17,6.17,0,0,0,2.58,4.94l25.36,14.52a1.8,1.8,0,0,0,1.26.27,1.54,1.54,0,0,1-1.94.07l-25.36-14.52a6.17,6.17,0,0,1-2.58-4.94v-9.07C369.81,366.39,370.34,365.59,371.13,365.46Z" transform="translate(-81.06 -134.48)"/><path class="cls-10" d="M390.12,386.36,387.8,385a1.35,1.35,0,0,1-.57-1.08v-2.49c0-.41.25-.6.57-.42l2.32,1.34a1.36,1.36,0,0,1,.57,1.08v2.48C390.69,386.35,390.43,386.54,390.12,386.36Z" transform="translate(-81.06 -134.48)"/><path class="cls-7" d="M382.34,381.87,380,380.52a1.35,1.35,0,0,1-.57-1.07V377c0-.41.26-.6.57-.42l2.32,1.34a1.36,1.36,0,0,1,.57,1.08v2.48C382.91,381.86,382.65,382.05,382.34,381.87Z" transform="translate(-81.06 -134.48)"/><path class="cls-1" d="M397.75,429l-25.36-14.52a6.2,6.2,0,0,1-2.58-4.94v-9.07c0-1.9,1.15-2.78,2.58-1.95L397.75,413a6.17,6.17,0,0,1,2.58,4.94V427C400.33,428.93,399.18,429.8,397.75,429Z" transform="translate(-81.06 -134.48)"/><path class="cls-7" d="M371.13,398.22a2.54,2.54,0,0,0-.64,1.89v9.07a6.2,6.2,0,0,0,2.58,4.94l25.36,14.52a1.85,1.85,0,0,0,1.26.27,1.54,1.54,0,0,1-1.94.07l-25.36-14.52a6.2,6.2,0,0,1-2.58-4.94v-9.07C369.81,399.16,370.34,398.36,371.13,398.22Z" transform="translate(-81.06 -134.48)"/><path class="cls-10" d="M390.12,419.13l-2.32-1.35a1.33,1.33,0,0,1-.57-1.07v-2.49c0-.41.25-.6.57-.42l2.32,1.34a1.36,1.36,0,0,1,.57,1.08v2.48C390.69,419.12,390.43,419.31,390.12,419.13Z" transform="translate(-81.06 -134.48)"/><path class="cls-7" d="M382.34,414.64,380,413.29a1.35,1.35,0,0,1-.57-1.07v-2.49c0-.41.26-.6.57-.42l2.32,1.34a1.35,1.35,0,0,1,.57,1.07v2.49C382.91,414.62,382.65,414.81,382.34,414.64Z" transform="translate(-81.06 -134.48)"/><path class="cls-1" d="M397.75,363.44l-25.36-14.52a6.17,6.17,0,0,1-2.58-4.94v-9.06c0-1.91,1.15-2.78,2.58-2l25.36,14.52a6.2,6.2,0,0,1,2.58,4.94v9.07C400.33,363.39,399.18,364.27,397.75,363.44Z" transform="translate(-81.06 -134.48)"/><path class="cls-7" d="M371.13,332.69a2.52,2.52,0,0,0-.64,1.89v9.06a6.17,6.17,0,0,0,2.58,4.94l25.36,14.52a1.87,1.87,0,0,0,1.26.28,1.55,1.55,0,0,1-1.94.06l-25.36-14.52a6.17,6.17,0,0,1-2.58-4.94v-9.06C369.81,333.62,370.34,332.82,371.13,332.69Z" transform="translate(-81.06 -134.48)"/><path class="cls-10" d="M390.12,353.59l-2.32-1.34a1.33,1.33,0,0,1-.57-1.08v-2.48c0-.42.25-.61.57-.43l2.32,1.34a1.36,1.36,0,0,1,.57,1.08v2.48C390.69,353.58,390.43,353.77,390.12,353.59Z" transform="translate(-81.06 -134.48)"/><path class="cls-7" d="M382.34,349.1,380,347.76a1.37,1.37,0,0,1-.57-1.08v-2.49c0-.41.26-.6.57-.42l2.32,1.34a1.36,1.36,0,0,1,.57,1.08v2.48C382.91,349.09,382.65,349.28,382.34,349.1Z" transform="translate(-81.06 -134.48)"/><path class="cls-11" d="M419.72,321.39l58.51-33.78a5.68,5.68,0,0,0,2.37-4.53V271.92c0-1.74-1.06-2.55-2.37-1.79l-58.51,33.78a5.68,5.68,0,0,0-2.38,4.53V319.6C417.34,321.34,418.41,322.15,419.72,321.39Z" transform="translate(-81.06 -134.48)"/><path class="cls-13" d="M421.4,317.48l55.15-31.84a2.91,2.91,0,0,0,1.2-2.3V275c0-.88-.54-1.29-1.2-.91L421.4,305.88a2.89,2.89,0,0,0-1.21,2.3v8.39C420.19,317.45,420.73,317.86,421.4,317.48Z" transform="translate(-81.06 -134.48)"/><path class="cls-8" d="M465.05,288l8.23-4.75a2.78,2.78,0,0,0,1.17-2.23h0c0-.86-.52-1.26-1.17-.88l-8.23,4.75a2.81,2.81,0,0,0-1.17,2.23h0C463.88,288,464.41,288.41,465.05,288Z" transform="translate(-81.06 -134.48)"/><path class="cls-1" d="M458,290.52c0,.86.6,1.21,1.35.78a3,3,0,0,0,1.35-2.33c0-.86-.61-1.21-1.35-.78A3,3,0,0,0,458,290.52Z" transform="translate(-81.06 -134.48)"/><path class="cls-1" d="M453.28,293.27c0,.86.6,1.21,1.35.78a3,3,0,0,0,1.35-2.34c0-.86-.61-1.2-1.35-.77A3,3,0,0,0,453.28,293.27Z" transform="translate(-81.06 -134.48)"/><path class="cls-8" d="M448.52,296c0,.86.6,1.21,1.35.78a3,3,0,0,0,1.35-2.34c0-.86-.6-1.21-1.35-.78A3,3,0,0,0,448.52,296Z" transform="translate(-81.06 -134.48)"/><path class="cls-1" d="M443.76,298.77c0,.86.61,1.21,1.35.78a3,3,0,0,0,1.35-2.34c0-.86-.6-1.21-1.35-.78A3,3,0,0,0,443.76,298.77Z" transform="translate(-81.06 -134.48)"/><path class="cls-1" d="M423.71,312.81l2.78-1.6a1.81,1.81,0,0,0,.75-1.44v-2.93c0-.55-.34-.8-.75-.57l-2.78,1.61a1.78,1.78,0,0,0-.74,1.43v2.93C423,312.79,423.3,313.05,423.71,312.81Z" transform="translate(-81.06 -134.48)"/><path class="cls-11" d="M419.72,341.06l58.51-33.78a5.66,5.66,0,0,0,2.37-4.53V291.6c0-1.75-1.06-2.55-2.37-1.8l-58.51,33.78a5.7,5.7,0,0,0-2.38,4.54v11.15C417.34,341,418.41,341.82,419.72,341.06Z" transform="translate(-81.06 -134.48)"/><path class="cls-13" d="M421.4,337.15l55.15-31.84a2.88,2.88,0,0,0,1.2-2.3v-8.38c0-.89-.54-1.3-1.2-.91L421.4,325.56a2.86,2.86,0,0,0-1.21,2.3v8.38C420.19,337.13,420.73,337.54,421.4,337.15Z" transform="translate(-81.06 -134.48)"/><path class="cls-8" d="M465.05,307.71l8.23-4.76a2.78,2.78,0,0,0,1.17-2.23h0c0-.86-.52-1.25-1.17-.88l-8.23,4.75a2.81,2.81,0,0,0-1.17,2.23h0C463.88,307.68,464.41,308.08,465.05,307.71Z" transform="translate(-81.06 -134.48)"/><path class="cls-7" d="M458,310.2c0,.86.6,1.21,1.35.78a3,3,0,0,0,1.35-2.34c0-.86-.61-1.21-1.35-.78A3,3,0,0,0,458,310.2Z" transform="translate(-81.06 -134.48)"/><path class="cls-1" d="M453.28,313c0,.86.6,1.21,1.35.77a3,3,0,0,0,1.35-2.33c0-.86-.61-1.21-1.35-.78A3,3,0,0,0,453.28,313Z" transform="translate(-81.06 -134.48)"/><path class="cls-8" d="M448.52,315.69c0,.86.6,1.21,1.35.78a3,3,0,0,0,1.35-2.33c0-.86-.6-1.21-1.35-.78A3,3,0,0,0,448.52,315.69Z" transform="translate(-81.06 -134.48)"/><path class="cls-1" d="M443.76,318.44c0,.86.61,1.21,1.35.78a3,3,0,0,0,1.35-2.34c0-.86-.6-1.21-1.35-.78A3,3,0,0,0,443.76,318.44Z" transform="translate(-81.06 -134.48)"/><path class="cls-1" d="M423.71,332.48l2.78-1.6a1.81,1.81,0,0,0,.75-1.43v-2.93c0-.56-.34-.81-.75-.57l-2.78,1.6A1.8,1.8,0,0,0,423,329v2.93C423,332.47,423.3,332.72,423.71,332.48Z" transform="translate(-81.06 -134.48)"/><path class="cls-11" d="M419.72,360.74,478.23,327a5.69,5.69,0,0,0,2.37-4.53V311.27c0-1.75-1.06-2.55-2.37-1.79l-58.51,33.78a5.67,5.67,0,0,0-2.38,4.53V359C417.34,360.69,418.41,361.49,419.72,360.74Z" transform="translate(-81.06 -134.48)"/><path class="cls-13" d="M421.4,356.83,476.55,325a2.91,2.91,0,0,0,1.2-2.3V314.3c0-.89-.54-1.29-1.2-.91L421.4,345.23a2.86,2.86,0,0,0-1.21,2.3v8.39C420.19,356.8,420.73,357.21,421.4,356.83Z" transform="translate(-81.06 -134.48)"/><path class="cls-8" d="M465.05,327.38l8.23-4.75a2.78,2.78,0,0,0,1.17-2.23h0c0-.86-.52-1.26-1.17-.89l-8.23,4.76a2.81,2.81,0,0,0-1.17,2.23h0C463.88,327.36,464.41,327.75,465.05,327.38Z" transform="translate(-81.06 -134.48)"/><path class="cls-7" d="M458,329.87c0,.86.6,1.21,1.35.78a3,3,0,0,0,1.35-2.34c0-.86-.61-1.2-1.35-.77A3,3,0,0,0,458,329.87Z" transform="translate(-81.06 -134.48)"/><path class="cls-1" d="M453.28,332.62c0,.86.6,1.21,1.35.78a3,3,0,0,0,1.35-2.34c0-.86-.61-1.21-1.35-.78A3,3,0,0,0,453.28,332.62Z" transform="translate(-81.06 -134.48)"/><path class="cls-8" d="M448.52,335.37c0,.86.6,1.21,1.35.78a3,3,0,0,0,1.35-2.34c0-.86-.6-1.21-1.35-.78A3,3,0,0,0,448.52,335.37Z" transform="translate(-81.06 -134.48)"/><path class="cls-1" d="M443.76,338.12c0,.86.61,1.2,1.35.77a3,3,0,0,0,1.35-2.33c0-.86-.6-1.21-1.35-.78A3,3,0,0,0,443.76,338.12Z" transform="translate(-81.06 -134.48)"/><path class="cls-1" d="M423.71,352.16l2.78-1.6a1.83,1.83,0,0,0,.75-1.44v-2.93c0-.55-.34-.81-.75-.57l-2.78,1.6a1.8,1.8,0,0,0-.74,1.44v2.93C423,352.14,423.3,352.39,423.71,352.16Z" transform="translate(-81.06 -134.48)"/><path class="cls-11" d="M419.72,380.41l58.51-33.78a5.66,5.66,0,0,0,2.37-4.53V330.94c0-1.74-1.06-2.54-2.37-1.79l-58.51,33.78a5.7,5.7,0,0,0-2.38,4.53v11.16C417.34,380.37,418.41,381.17,419.72,380.41Z" transform="translate(-81.06 -134.48)"/><path class="cls-13" d="M421.4,376.5l55.15-31.84a2.88,2.88,0,0,0,1.2-2.3V334c0-.88-.54-1.29-1.2-.91L421.4,364.9a2.89,2.89,0,0,0-1.21,2.3v8.39C420.19,376.48,420.73,376.88,421.4,376.5Z" transform="translate(-81.06 -134.48)"/><path class="cls-8" d="M465.05,347.05l8.23-4.75a2.78,2.78,0,0,0,1.17-2.23h0c0-.86-.52-1.25-1.17-.88l-8.23,4.75a2.81,2.81,0,0,0-1.17,2.23h0C463.88,347,464.41,347.43,465.05,347.05Z" transform="translate(-81.06 -134.48)"/><path class="cls-1" d="M458,349.55c0,.86.6,1.21,1.35.78a3,3,0,0,0,1.35-2.34c0-.86-.61-1.21-1.35-.78A3,3,0,0,0,458,349.55Z" transform="translate(-81.06 -134.48)"/><path class="cls-1" d="M453.28,352.29c0,.86.6,1.21,1.35.78a3,3,0,0,0,1.35-2.33c0-.86-.61-1.21-1.35-.78A3,3,0,0,0,453.28,352.29Z" transform="translate(-81.06 -134.48)"/><path class="cls-8" d="M448.52,355c0,.86.6,1.21,1.35.78a3,3,0,0,0,1.35-2.34c0-.86-.6-1.2-1.35-.77A3,3,0,0,0,448.52,355Z" transform="translate(-81.06 -134.48)"/><path class="cls-1" d="M443.76,357.79c0,.86.61,1.21,1.35.78a3,3,0,0,0,1.35-2.34c0-.86-.6-1.21-1.35-.78A3,3,0,0,0,443.76,357.79Z" transform="translate(-81.06 -134.48)"/><path class="cls-8" d="M423.71,371.83l2.78-1.6a1.81,1.81,0,0,0,.75-1.43v-2.94c0-.55-.34-.8-.75-.56l-2.78,1.6a1.8,1.8,0,0,0-.74,1.43v2.93C423,371.81,423.3,372.07,423.71,371.83Z" transform="translate(-81.06 -134.48)"/><path class="cls-11" d="M419.72,400.09l58.51-33.78a5.69,5.69,0,0,0,2.37-4.53V350.62c0-1.75-1.06-2.55-2.37-1.79l-58.51,33.78a5.67,5.67,0,0,0-2.38,4.53v11.15C417.34,400,418.41,400.84,419.72,400.09Z" transform="translate(-81.06 -134.48)"/><path class="cls-13" d="M421.4,396.17l55.15-31.84a2.88,2.88,0,0,0,1.2-2.3v-8.38c0-.89-.54-1.3-1.2-.91L421.4,384.58a2.86,2.86,0,0,0-1.21,2.3v8.38C420.19,396.15,420.73,396.56,421.4,396.17Z" transform="translate(-81.06 -134.48)"/><path class="cls-8" d="M465.05,366.73l8.23-4.75a2.81,2.81,0,0,0,1.17-2.24h0c0-.86-.52-1.25-1.17-.88l-8.23,4.75a2.84,2.84,0,0,0-1.17,2.24h0C463.88,366.71,464.41,367.1,465.05,366.73Z" transform="translate(-81.06 -134.48)"/><path class="cls-1" d="M458,369.22c0,.86.6,1.21,1.35.78a3,3,0,0,0,1.35-2.34c0-.86-.61-1.21-1.35-.78A3,3,0,0,0,458,369.22Z" transform="translate(-81.06 -134.48)"/><path class="cls-7" d="M453.28,372c0,.86.6,1.21,1.35.78a3,3,0,0,0,1.35-2.34c0-.86-.61-1.21-1.35-.78A3,3,0,0,0,453.28,372Z" transform="translate(-81.06 -134.48)"/><path class="cls-8" d="M448.52,374.72c0,.86.6,1.2,1.35.77a3,3,0,0,0,1.35-2.33c0-.86-.6-1.21-1.35-.78A3,3,0,0,0,448.52,374.72Z" transform="translate(-81.06 -134.48)"/><path class="cls-7" d="M443.76,377.46c0,.86.61,1.21,1.35.78a3,3,0,0,0,1.35-2.33c0-.86-.6-1.21-1.35-.78A3,3,0,0,0,443.76,377.46Z" transform="translate(-81.06 -134.48)"/><path class="cls-8" d="M423.71,391.5l2.78-1.6a1.81,1.81,0,0,0,.75-1.43v-2.93c0-.55-.34-.81-.75-.57l-2.78,1.6A1.8,1.8,0,0,0,423,388v2.94C423,391.49,423.3,391.74,423.71,391.5Z" transform="translate(-81.06 -134.48)"/><path class="cls-11" d="M419.72,419.76,478.23,386a5.68,5.68,0,0,0,2.37-4.53V370.29c0-1.74-1.06-2.55-2.37-1.79l-58.51,33.78a5.68,5.68,0,0,0-2.38,4.53V418C417.34,419.71,418.41,420.52,419.72,419.76Z" transform="translate(-81.06 -134.48)"/><path class="cls-13" d="M421.4,415.85,476.55,384a2.91,2.91,0,0,0,1.2-2.3v-8.39c0-.88-.54-1.29-1.2-.91L421.4,404.25a2.89,2.89,0,0,0-1.21,2.3v8.39C420.19,415.82,420.73,416.23,421.4,415.85Z" transform="translate(-81.06 -134.48)"/><path class="cls-8" d="M465.05,386.4l8.23-4.75a2.78,2.78,0,0,0,1.17-2.23h0c0-.86-.52-1.26-1.17-.88l-8.23,4.75a2.81,2.81,0,0,0-1.17,2.23h0C463.88,386.38,464.41,386.78,465.05,386.4Z" transform="translate(-81.06 -134.48)"/><path class="cls-1" d="M458,388.89c0,.86.6,1.21,1.35.78a3,3,0,0,0,1.35-2.33c0-.86-.61-1.21-1.35-.78A3,3,0,0,0,458,388.89Z" transform="translate(-81.06 -134.48)"/><path class="cls-1" d="M453.28,391.64c0,.86.6,1.21,1.35.78a3,3,0,0,0,1.35-2.34c0-.86-.61-1.2-1.35-.77A3,3,0,0,0,453.28,391.64Z" transform="translate(-81.06 -134.48)"/><path class="cls-8" d="M448.52,394.39c0,.86.6,1.21,1.35.78a3,3,0,0,0,1.35-2.34c0-.86-.6-1.21-1.35-.78A3,3,0,0,0,448.52,394.39Z" transform="translate(-81.06 -134.48)"/><path class="cls-1" d="M443.76,397.14c0,.86.61,1.21,1.35.78a3,3,0,0,0,1.35-2.34c0-.86-.6-1.21-1.35-.78A3,3,0,0,0,443.76,397.14Z" transform="translate(-81.06 -134.48)"/><path class="cls-1" d="M423.71,411.18l2.78-1.6a1.81,1.81,0,0,0,.75-1.44v-2.93c0-.55-.34-.8-.75-.57l-2.78,1.61a1.78,1.78,0,0,0-.74,1.43v2.93C423,411.16,423.3,411.42,423.71,411.18Z" transform="translate(-81.06 -134.48)"/><path class="cls-11" d="M419.72,439.43l58.51-33.78a5.66,5.66,0,0,0,2.37-4.53V390c0-1.75-1.06-2.55-2.37-1.8L419.72,422a5.7,5.7,0,0,0-2.38,4.53v11.16C417.34,439.39,418.41,440.19,419.72,439.43Z" transform="translate(-81.06 -134.48)"/><path class="cls-13" d="M421.4,435.52l55.15-31.84a2.88,2.88,0,0,0,1.2-2.3V393c0-.89-.54-1.3-1.2-.91L421.4,423.93a2.86,2.86,0,0,0-1.21,2.3v8.38C420.19,435.5,420.73,435.91,421.4,435.52Z" transform="translate(-81.06 -134.48)"/><path class="cls-8" d="M465.05,406.08l8.23-4.76a2.78,2.78,0,0,0,1.17-2.23h0c0-.86-.52-1.25-1.17-.88L465.05,403a2.81,2.81,0,0,0-1.17,2.23h0C463.88,406.05,464.41,406.45,465.05,406.08Z" transform="translate(-81.06 -134.48)"/><path class="cls-7" d="M456.53,409.63c0,1.63,1.15,2.29,2.55,1.47a5.61,5.61,0,0,0,2.55-4.41c0-1.62-1.14-2.28-2.55-1.47A5.65,5.65,0,0,0,456.53,409.63Z" transform="translate(-81.06 -134.48)"/><path class="cls-1" d="M446.68,415.4c0,.86.6,1.21,1.35.78a3,3,0,0,0,1.35-2.34c0-.86-.61-1.21-1.35-.78A3,3,0,0,0,446.68,415.4Z" transform="translate(-81.06 -134.48)"/><path class="cls-8" d="M441.92,418.15c0,.86.6,1.21,1.35.78a3,3,0,0,0,1.35-2.34c0-.86-.61-1.21-1.35-.78A3,3,0,0,0,441.92,418.15Z" transform="translate(-81.06 -134.48)"/><path class="cls-1" d="M437.16,420.9c0,.86.6,1.21,1.35.78a3,3,0,0,0,1.35-2.34c0-.86-.61-1.21-1.35-.78A3,3,0,0,0,437.16,420.9Z" transform="translate(-81.06 -134.48)"/><path class="cls-8" d="M423.71,430.85l2.78-1.6a1.81,1.81,0,0,0,.75-1.43v-2.93c0-.56-.34-.81-.75-.57l-2.78,1.6a1.8,1.8,0,0,0-.74,1.43v2.93C423,430.84,423.3,431.09,423.71,430.85Z" transform="translate(-81.06 -134.48)"/><path class="cls-9" d="M256.88,483.88h0V338.08l58-15.17,10.68-6.17c2.45-1.41,6.73-1.23,9.56.4l10,5.75,30.91,0L366.8,463.62a2.78,2.78,0,0,1-1.64,2.56l-57.85,43.65c-2.45,1.41-6.73,1.23-9.56-.4l-38.54-22.26C257.57,486.23,256.79,485,256.88,483.88Z" transform="translate(-81.06 -134.48)"/><path class="cls-14" d="M330,315.8a11,11,0,0,1,5.13,1.34l10,5.75,30.91,0V469.06a2.76,2.76,0,0,1-1.64,2.56l-67,38.21a8.61,8.61,0,0,1-4.43.94l-.69-147.1Z" transform="translate(-81.06 -134.48)"/><path class="cls-15" d="M306.7,510.13a10.93,10.93,0,0,1-7.64-.09V361.93h7.64Z" transform="translate(-81.06 -134.48)"/><path class="cls-14" d="M307.31,363.69l67-38.21c2.45-1.41,2.14-3.88-.69-5.51l-38.54-22.26c-2.83-1.63-7.11-1.81-9.56-.4l-67,38.21c-2.45,1.41-2.14,3.88.69,5.51l38.54,22.26C300.58,364.92,304.86,365.1,307.31,363.69Z" transform="translate(-81.06 -134.48)"/><path class="cls-12" d="M259.21,338.32l38.54,22.26c2.83,1.63,7.11,1.81,9.56.4l67-38.21a3.53,3.53,0,0,0,1.22-1.08c.84,1.35.46,2.82-1.22,3.79l-67,38.21c-2.45,1.41-6.73,1.23-9.56-.4L259.21,341c-2.2-1.26-2.87-3-1.91-4.43A5.25,5.25,0,0,0,259.21,338.32Z" transform="translate(-81.06 -134.48)"/><path class="cls-4" d="M305.42,348.2,350,322.35c1.15-.66,1-1.82-.32-2.58l-18-10.42a5,5,0,0,0-4.47-.18L282.58,335c-1.14.66-1,1.82.33,2.58l18,10.42A5,5,0,0,0,305.42,348.2Z" transform="translate(-81.06 -134.48)"/><path class="cls-14" d="M329.5,323.51l2.58-1.49c.16-.09.14-.25,0-.36l-2.5-1.44a.68.68,0,0,0-.62,0l-2.58,1.5c-.16.09-.14.25,0,.35l2.5,1.44A.68.68,0,0,0,329.5,323.51Z" transform="translate(-81.06 -134.48)"/><path class="cls-14" d="M320.86,328.47l2.59-1.49c.16-.09.14-.25-.05-.35l-2.49-1.45a.71.71,0,0,0-.62,0l-2.59,1.49c-.15.09-.13.25.05.36l2.49,1.44A.68.68,0,0,0,320.86,328.47Z" transform="translate(-81.06 -134.48)"/><path class="cls-14" d="M312.23,333.44l2.58-1.49c.16-.09.14-.25,0-.36l-2.5-1.44a.68.68,0,0,0-.62,0l-2.58,1.5c-.16.09-.14.25,0,.35l2.5,1.44A.68.68,0,0,0,312.23,333.44Z" transform="translate(-81.06 -134.48)"/><path class="cls-14" d="M303.59,338.4l2.59-1.49c.16-.09.14-.25-.05-.35l-2.49-1.45a.71.71,0,0,0-.62,0l-2.59,1.49c-.15.09-.13.25.05.36l2.49,1.44A.65.65,0,0,0,303.59,338.4Z" transform="translate(-81.06 -134.48)"/><path class="cls-9" d="M350,322.35l0,0c-.09-.06-.17-.13-.27-.19l-18-10.41a5,5,0,0,0-4.47-.19l-44.55,25.83c-1.06-.76-1.11-1.79-.06-2.4l44.61-25.85a5,5,0,0,1,4.47.18l18,10.42C351,320.53,351.17,321.69,350,322.35Z" transform="translate(-81.06 -134.48)"/><path class="cls-16" d="M290.23,392.57l-25.36-14.52a6.17,6.17,0,0,1-2.59-4.93v-9.07c0-1.91,1.16-2.78,2.59-2l25.36,14.52a6.22,6.22,0,0,1,2.58,4.94v9.07C292.81,392.52,291.65,393.4,290.23,392.57Z" transform="translate(-81.06 -134.48)"/><path class="cls-7" d="M263.61,361.82a2.53,2.53,0,0,0-.65,1.89v9.07a6.17,6.17,0,0,0,2.59,4.93l25.36,14.52a1.85,1.85,0,0,0,1.25.28,1.54,1.54,0,0,1-1.93.06l-25.36-14.52a6.17,6.17,0,0,1-2.59-4.93v-9.07C262.28,362.75,262.82,362,263.61,361.82Z" transform="translate(-81.06 -134.48)"/><path class="cls-9" d="M282.6,382.72l-2.33-1.34a1.35,1.35,0,0,1-.56-1.08v-2.48c0-.42.25-.61.56-.43l2.33,1.34a1.36,1.36,0,0,1,.56,1.08v2.48C283.16,382.71,282.91,382.9,282.6,382.72Z" transform="translate(-81.06 -134.48)"/><path class="cls-7" d="M274.82,378.23l-2.33-1.34a1.35,1.35,0,0,1-.56-1.08v-2.48c0-.42.25-.61.56-.43l2.33,1.34a1.35,1.35,0,0,1,.56,1.08v2.48C275.38,378.22,275.13,378.41,274.82,378.23Z" transform="translate(-81.06 -134.48)"/><path class="cls-16" d="M290.23,458.11l-25.36-14.52a6.2,6.2,0,0,1-2.59-4.94v-9.07c0-1.9,1.16-2.78,2.59-1.95l25.36,14.52a6.19,6.19,0,0,1,2.58,4.94v9.07C292.81,458.06,291.65,458.93,290.23,458.11Z" transform="translate(-81.06 -134.48)"/><path class="cls-7" d="M263.61,427.36a2.5,2.5,0,0,0-.65,1.88v9.07a6.2,6.2,0,0,0,2.59,4.94l25.36,14.52a1.84,1.84,0,0,0,1.25.27,1.53,1.53,0,0,1-1.93.07l-25.36-14.52a6.2,6.2,0,0,1-2.59-4.94v-9.07C262.28,428.29,262.82,427.49,263.61,427.36Z" transform="translate(-81.06 -134.48)"/><path class="cls-9" d="M282.6,448.26l-2.33-1.35a1.34,1.34,0,0,1-.56-1.07v-2.49c0-.41.25-.6.56-.42l2.33,1.34a1.35,1.35,0,0,1,.56,1.08v2.48C283.16,448.25,282.91,448.44,282.6,448.26Z" transform="translate(-81.06 -134.48)"/><path class="cls-7" d="M274.82,443.77l-2.33-1.35a1.34,1.34,0,0,1-.56-1.07v-2.49c0-.41.25-.6.56-.42l2.33,1.34a1.35,1.35,0,0,1,.56,1.08v2.48C275.38,443.75,275.13,444,274.82,443.77Z" transform="translate(-81.06 -134.48)"/><path class="cls-16" d="M290.23,490.88l-25.36-14.52a6.2,6.2,0,0,1-2.59-4.94v-9.07c0-1.9,1.16-2.78,2.59-2l25.36,14.52a6.19,6.19,0,0,1,2.58,4.93v9.07C292.81,490.83,291.65,491.7,290.23,490.88Z" transform="translate(-81.06 -134.48)"/><path class="cls-7" d="M263.61,460.12A2.54,2.54,0,0,0,263,462v9.07a6.2,6.2,0,0,0,2.59,4.94l25.36,14.52a1.9,1.9,0,0,0,1.25.27,1.54,1.54,0,0,1-1.93.07l-25.36-14.52a6.2,6.2,0,0,1-2.59-4.94v-9.07C262.28,461.06,262.82,460.26,263.61,460.12Z" transform="translate(-81.06 -134.48)"/><path class="cls-9" d="M282.6,481l-2.33-1.35a1.34,1.34,0,0,1-.56-1.07v-2.49c0-.41.25-.6.56-.42L282.6,477a1.34,1.34,0,0,1,.56,1.07v2.49C283.16,481,282.91,481.2,282.6,481Z" transform="translate(-81.06 -134.48)"/><path class="cls-7" d="M274.82,476.53l-2.33-1.34a1.35,1.35,0,0,1-.56-1.08v-2.48c0-.42.25-.61.56-.43l2.33,1.35a1.34,1.34,0,0,1,.56,1.07v2.49C275.38,476.52,275.13,476.71,274.82,476.53Z" transform="translate(-81.06 -134.48)"/><path class="cls-16" d="M290.23,425.34l-25.36-14.52a6.17,6.17,0,0,1-2.59-4.94v-9.07c0-1.9,1.16-2.77,2.59-1.95l25.36,14.52a6.21,6.21,0,0,1,2.58,4.94v9.07C292.81,425.29,291.65,426.16,290.23,425.34Z" transform="translate(-81.06 -134.48)"/><path class="cls-7" d="M263.61,394.59a2.5,2.5,0,0,0-.65,1.88v9.07a6.17,6.17,0,0,0,2.59,4.94L290.91,425a1.78,1.78,0,0,0,1.25.27,1.53,1.53,0,0,1-1.93.07l-25.36-14.52a6.17,6.17,0,0,1-2.59-4.94v-9.07C262.28,395.52,262.82,394.72,263.61,394.59Z" transform="translate(-81.06 -134.48)"/><path class="cls-9" d="M282.6,415.49l-2.33-1.34a1.36,1.36,0,0,1-.56-1.08v-2.49c0-.41.25-.6.56-.42l2.33,1.34a1.35,1.35,0,0,1,.56,1.08v2.48C283.16,415.48,282.91,415.67,282.6,415.49Z" transform="translate(-81.06 -134.48)"/><path class="cls-7" d="M274.82,411l-2.33-1.35a1.34,1.34,0,0,1-.56-1.07v-2.49c0-.41.25-.6.56-.42l2.33,1.34a1.35,1.35,0,0,1,.56,1.08v2.48C275.38,411,275.13,411.18,274.82,411Z" transform="translate(-81.06 -134.48)"/><path class="cls-15" d="M312.19,383.29l58.51-33.78a5.69,5.69,0,0,0,2.37-4.53V333.82c0-1.75-1.06-2.55-2.37-1.79l-58.51,33.78a5.68,5.68,0,0,0-2.37,4.53V381.5C309.82,383.24,310.88,384.05,312.19,383.29Z" transform="translate(-81.06 -134.48)"/><path class="cls-13" d="M313.87,379.38,369,347.54a2.89,2.89,0,0,0,1.21-2.3v-8.39c0-.89-.54-1.29-1.21-.91l-55.15,31.84a2.9,2.9,0,0,0-1.2,2.3v8.39C312.67,379.35,313.21,379.76,313.87,379.38Z" transform="translate(-81.06 -134.48)"/><path class="cls-14" d="M357.53,349.93l8.23-4.75a2.78,2.78,0,0,0,1.17-2.23h0c0-.86-.52-1.26-1.17-.89l-8.23,4.76a2.78,2.78,0,0,0-1.17,2.23h0C356.36,349.91,356.88,350.3,357.53,349.93Z" transform="translate(-81.06 -134.48)"/><path class="cls-9" d="M350.52,352.42c0,.86.6,1.21,1.35.78a3,3,0,0,0,1.34-2.33c0-.86-.6-1.21-1.34-.78A3,3,0,0,0,350.52,352.42Z" transform="translate(-81.06 -134.48)"/><path class="cls-9" d="M345.76,355.17c0,.86.6,1.21,1.35.78a3,3,0,0,0,1.35-2.34c0-.86-.61-1.21-1.35-.78A3,3,0,0,0,345.76,355.17Z" transform="translate(-81.06 -134.48)"/><path class="cls-14" d="M341,357.92c0,.86.6,1.21,1.35.78a3,3,0,0,0,1.35-2.34c0-.86-.61-1.21-1.35-.78A3,3,0,0,0,341,357.92Z" transform="translate(-81.06 -134.48)"/><path class="cls-9" d="M336.24,360.67c0,.86.6,1.2,1.35.77a3,3,0,0,0,1.35-2.33c0-.86-.61-1.21-1.35-.78A3,3,0,0,0,336.24,360.67Z" transform="translate(-81.06 -134.48)"/><path class="cls-9" d="M316.19,374.71l2.77-1.6a1.78,1.78,0,0,0,.75-1.44v-2.93c0-.55-.33-.81-.75-.57l-2.77,1.6a1.81,1.81,0,0,0-.75,1.44v2.93C315.44,374.69,315.78,375,316.19,374.71Z" transform="translate(-81.06 -134.48)"/><path class="cls-15" d="M312.19,403l58.51-33.78a5.66,5.66,0,0,0,2.37-4.53V353.49c0-1.74-1.06-2.54-2.37-1.79l-58.51,33.78a5.69,5.69,0,0,0-2.37,4.53v11.16C309.82,402.92,310.88,403.72,312.19,403Z" transform="translate(-81.06 -134.48)"/><path class="cls-13" d="M313.87,399.05,369,367.21a2.86,2.86,0,0,0,1.21-2.3v-8.39c0-.88-.54-1.29-1.21-.91l-55.15,31.85a2.88,2.88,0,0,0-1.2,2.29v8.39C312.67,399,313.21,399.43,313.87,399.05Z" transform="translate(-81.06 -134.48)"/><path class="cls-14" d="M357.53,369.61l8.23-4.76a2.78,2.78,0,0,0,1.17-2.23h0c0-.86-.52-1.25-1.17-.88l-8.23,4.75a2.78,2.78,0,0,0-1.17,2.23h0C356.36,369.58,356.88,370,357.53,369.61Z" transform="translate(-81.06 -134.48)"/><path class="cls-7" d="M350.52,372.1c0,.86.6,1.21,1.35.78a3,3,0,0,0,1.34-2.34c0-.86-.6-1.21-1.34-.78A3,3,0,0,0,350.52,372.1Z" transform="translate(-81.06 -134.48)"/><path class="cls-9" d="M345.76,374.84c0,.86.6,1.21,1.35.78a3,3,0,0,0,1.35-2.33c0-.86-.61-1.21-1.35-.78A3,3,0,0,0,345.76,374.84Z" transform="translate(-81.06 -134.48)"/><path class="cls-14" d="M341,377.59c0,.86.6,1.21,1.35.78A3,3,0,0,0,343.7,376c0-.86-.61-1.2-1.35-.77A3,3,0,0,0,341,377.59Z" transform="translate(-81.06 -134.48)"/><path class="cls-9" d="M336.24,380.34c0,.86.6,1.21,1.35.78a3,3,0,0,0,1.35-2.34c0-.86-.61-1.21-1.35-.78A3,3,0,0,0,336.24,380.34Z" transform="translate(-81.06 -134.48)"/><path class="cls-9" d="M316.19,394.38l2.77-1.6a1.78,1.78,0,0,0,.75-1.43v-2.94c0-.55-.33-.8-.75-.56l-2.77,1.6a1.81,1.81,0,0,0-.75,1.43v2.93C315.44,394.37,315.78,394.62,316.19,394.38Z" transform="translate(-81.06 -134.48)"/><path class="cls-15" d="M312.19,422.64l58.51-33.78a5.69,5.69,0,0,0,2.37-4.53V373.17c0-1.75-1.06-2.55-2.37-1.79l-58.51,33.78a5.66,5.66,0,0,0-2.37,4.53v11.15C309.82,422.59,310.88,423.39,312.19,422.64Z" transform="translate(-81.06 -134.48)"/><path class="cls-13" d="M313.87,418.72,369,386.88a2.86,2.86,0,0,0,1.21-2.29V376.2c0-.89-.54-1.3-1.21-.91l-55.15,31.84a2.88,2.88,0,0,0-1.2,2.3v8.39C312.67,418.7,313.21,419.11,313.87,418.72Z" transform="translate(-81.06 -134.48)"/><path class="cls-14" d="M357.53,389.28l8.23-4.75a2.79,2.79,0,0,0,1.17-2.23h0c0-.87-.52-1.26-1.17-.89l-8.23,4.75a2.81,2.81,0,0,0-1.17,2.24h0C356.36,389.26,356.88,389.65,357.53,389.28Z" transform="translate(-81.06 -134.48)"/><path class="cls-7" d="M350.52,391.77c0,.86.6,1.21,1.35.78a3,3,0,0,0,1.34-2.34c0-.86-.6-1.21-1.34-.78A3,3,0,0,0,350.52,391.77Z" transform="translate(-81.06 -134.48)"/><path class="cls-9" d="M345.76,394.52c0,.86.6,1.21,1.35.78a3,3,0,0,0,1.35-2.34c0-.86-.61-1.21-1.35-.78A3,3,0,0,0,345.76,394.52Z" transform="translate(-81.06 -134.48)"/><path class="cls-14" d="M341,397.27c0,.86.6,1.21,1.35.77a3,3,0,0,0,1.35-2.33c0-.86-.61-1.21-1.35-.78A3,3,0,0,0,341,397.27Z" transform="translate(-81.06 -134.48)"/><path class="cls-9" d="M336.24,400c0,.86.6,1.21,1.35.78a3,3,0,0,0,1.35-2.33c0-.86-.61-1.21-1.35-.78A3,3,0,0,0,336.24,400Z" transform="translate(-81.06 -134.48)"/><path class="cls-9" d="M316.19,414.05l2.77-1.6a1.78,1.78,0,0,0,.75-1.43v-2.93c0-.55-.33-.81-.75-.57l-2.77,1.6a1.81,1.81,0,0,0-.75,1.43v2.94C315.44,414,315.78,414.29,316.19,414.05Z" transform="translate(-81.06 -134.48)"/><path class="cls-15" d="M312.19,442.31l58.51-33.78a5.68,5.68,0,0,0,2.37-4.53V392.84c0-1.74-1.06-2.55-2.37-1.79l-58.51,33.78a5.69,5.69,0,0,0-2.37,4.53v11.16C309.82,442.26,310.88,443.07,312.19,442.31Z" transform="translate(-81.06 -134.48)"/><path class="cls-13" d="M313.87,438.4,369,406.56a2.88,2.88,0,0,0,1.21-2.3v-8.39c0-.88-.54-1.29-1.21-.91L313.87,426.8a2.91,2.91,0,0,0-1.2,2.3v8.39C312.67,438.38,313.21,438.78,313.87,438.4Z" transform="translate(-81.06 -134.48)"/><path class="cls-14" d="M357.53,409l8.23-4.75a2.78,2.78,0,0,0,1.17-2.23h0c0-.86-.52-1.26-1.17-.88l-8.23,4.75a2.78,2.78,0,0,0-1.17,2.23h0C356.36,408.93,356.88,409.33,357.53,409Z" transform="translate(-81.06 -134.48)"/><path class="cls-9" d="M350.52,411.45c0,.86.6,1.2,1.35.77a3,3,0,0,0,1.34-2.33c0-.86-.6-1.21-1.34-.78A3,3,0,0,0,350.52,411.45Z" transform="translate(-81.06 -134.48)"/><path class="cls-9" d="M345.76,414.19c0,.86.6,1.21,1.35.78a3,3,0,0,0,1.35-2.33c0-.87-.61-1.21-1.35-.78A3,3,0,0,0,345.76,414.19Z" transform="translate(-81.06 -134.48)"/><path class="cls-14" d="M341,416.94c0,.86.6,1.21,1.35.78a3,3,0,0,0,1.35-2.34c0-.86-.61-1.21-1.35-.78A3,3,0,0,0,341,416.94Z" transform="translate(-81.06 -134.48)"/><path class="cls-9" d="M336.24,419.69c0,.86.6,1.21,1.35.78a3,3,0,0,0,1.35-2.34c0-.86-.61-1.21-1.35-.78A3,3,0,0,0,336.24,419.69Z" transform="translate(-81.06 -134.48)"/><path class="cls-14" d="M316.19,433.73l2.77-1.6a1.78,1.78,0,0,0,.75-1.43v-2.94c0-.55-.33-.8-.75-.56l-2.77,1.6a1.79,1.79,0,0,0-.75,1.43v2.93C315.44,433.71,315.78,434,316.19,433.73Z" transform="translate(-81.06 -134.48)"/><path class="cls-15" d="M312.19,462,370.7,428.2a5.66,5.66,0,0,0,2.37-4.53V412.52c0-1.75-1.06-2.55-2.37-1.8L312.19,444.5a5.69,5.69,0,0,0-2.37,4.54v11.15C309.82,461.94,310.88,462.74,312.19,462Z" transform="translate(-81.06 -134.48)"/><path class="cls-13" d="M313.87,458.07,369,426.23a2.86,2.86,0,0,0,1.21-2.3v-8.38c0-.89-.54-1.3-1.21-.91l-55.15,31.84a2.88,2.88,0,0,0-1.2,2.3v8.38C312.67,458.05,313.21,458.46,313.87,458.07Z" transform="translate(-81.06 -134.48)"/><path class="cls-14" d="M357.53,428.63l8.23-4.75a2.81,2.81,0,0,0,1.17-2.24h0c0-.86-.52-1.25-1.17-.88l-8.23,4.75a2.78,2.78,0,0,0-1.17,2.23h0C356.36,428.6,356.88,429,357.53,428.63Z" transform="translate(-81.06 -134.48)"/><path class="cls-9" d="M350.52,431.12c0,.86.6,1.21,1.35.78a3,3,0,0,0,1.34-2.34c0-.86-.6-1.21-1.34-.78A3,3,0,0,0,350.52,431.12Z" transform="translate(-81.06 -134.48)"/><path class="cls-7" d="M345.76,433.87c0,.86.6,1.21,1.35.78a3,3,0,0,0,1.35-2.34c0-.86-.61-1.21-1.35-.78A3,3,0,0,0,345.76,433.87Z" transform="translate(-81.06 -134.48)"/><path class="cls-14" d="M341,436.61c0,.86.6,1.21,1.35.78a3,3,0,0,0,1.35-2.33c0-.86-.61-1.21-1.35-.78A3,3,0,0,0,341,436.61Z" transform="translate(-81.06 -134.48)"/><path class="cls-7" d="M336.24,439.36c0,.86.6,1.21,1.35.78a3,3,0,0,0,1.35-2.34c0-.86-.61-1.2-1.35-.77A3,3,0,0,0,336.24,439.36Z" transform="translate(-81.06 -134.48)"/><path class="cls-14" d="M316.19,453.4l2.77-1.6a1.78,1.78,0,0,0,.75-1.43v-2.93c0-.56-.33-.81-.75-.57l-2.77,1.6a1.81,1.81,0,0,0-.75,1.43v2.94C315.44,453.39,315.78,453.64,316.19,453.4Z" transform="translate(-81.06 -134.48)"/><path class="cls-15" d="M312.19,481.66l58.51-33.78a5.69,5.69,0,0,0,2.37-4.53V432.19c0-1.75-1.06-2.55-2.37-1.79l-58.51,33.78a5.66,5.66,0,0,0-2.37,4.53v11.16C309.82,481.61,310.88,482.41,312.19,481.66Z" transform="translate(-81.06 -134.48)"/><path class="cls-13" d="M313.87,477.75,369,445.91a2.89,2.89,0,0,0,1.21-2.3v-8.39c0-.89-.54-1.29-1.21-.91l-55.15,31.84a2.88,2.88,0,0,0-1.2,2.3v8.39C312.67,477.72,313.21,478.13,313.87,477.75Z" transform="translate(-81.06 -134.48)"/><path class="cls-14" d="M357.53,448.3l8.23-4.75a2.78,2.78,0,0,0,1.17-2.23h0c0-.86-.52-1.26-1.17-.89l-8.23,4.76a2.78,2.78,0,0,0-1.17,2.23h0C356.36,448.28,356.88,448.67,357.53,448.3Z" transform="translate(-81.06 -134.48)"/><path class="cls-9" d="M350.52,450.79c0,.86.6,1.21,1.35.78a3,3,0,0,0,1.34-2.33c0-.86-.6-1.21-1.34-.78A3,3,0,0,0,350.52,450.79Z" transform="translate(-81.06 -134.48)"/><path class="cls-9" d="M345.76,453.54c0,.86.6,1.21,1.35.78a3,3,0,0,0,1.35-2.34c0-.86-.61-1.21-1.35-.78A3,3,0,0,0,345.76,453.54Z" transform="translate(-81.06 -134.48)"/><path class="cls-14" d="M341,456.29c0,.86.6,1.21,1.35.78a3,3,0,0,0,1.35-2.34c0-.86-.61-1.21-1.35-.78A3,3,0,0,0,341,456.29Z" transform="translate(-81.06 -134.48)"/><path class="cls-9" d="M336.24,459c0,.86.6,1.2,1.35.77a3,3,0,0,0,1.35-2.33c0-.86-.61-1.21-1.35-.78A3,3,0,0,0,336.24,459Z" transform="translate(-81.06 -134.48)"/><path class="cls-9" d="M316.19,473.08l2.77-1.6a1.78,1.78,0,0,0,.75-1.44v-2.93c0-.55-.33-.81-.75-.57l-2.77,1.6a1.81,1.81,0,0,0-.75,1.44v2.93C315.44,473.06,315.78,473.32,316.19,473.08Z" transform="translate(-81.06 -134.48)"/><path class="cls-15" d="M312.19,501.33l58.51-33.78a5.66,5.66,0,0,0,2.37-4.53V451.86c0-1.74-1.06-2.54-2.37-1.79l-58.51,33.78a5.69,5.69,0,0,0-2.37,4.53v11.16C309.82,501.29,310.88,502.09,312.19,501.33Z" transform="translate(-81.06 -134.48)"/><path class="cls-13" d="M313.87,497.42,369,465.58a2.86,2.86,0,0,0,1.21-2.3v-8.39c0-.88-.54-1.29-1.21-.91l-55.15,31.85a2.88,2.88,0,0,0-1.2,2.29v8.39C312.67,497.4,313.21,497.8,313.87,497.42Z" transform="translate(-81.06 -134.48)"/><path class="cls-14" d="M357.53,468l8.23-4.76a2.78,2.78,0,0,0,1.17-2.23h0c0-.86-.52-1.25-1.17-.88l-8.23,4.75a2.78,2.78,0,0,0-1.17,2.23h0C356.36,468,356.88,468.35,357.53,468Z" transform="translate(-81.06 -134.48)"/><path class="cls-7" d="M349,471.53c0,1.63,1.14,2.29,2.55,1.47a5.62,5.62,0,0,0,2.55-4.41c0-1.63-1.14-2.28-2.55-1.47A5.62,5.62,0,0,0,349,471.53Z" transform="translate(-81.06 -134.48)"/><path class="cls-9" d="M339.16,477.3c0,.86.6,1.21,1.34.78a3,3,0,0,0,1.35-2.34c0-.86-.6-1.21-1.35-.78A3,3,0,0,0,339.16,477.3Z" transform="translate(-81.06 -134.48)"/><path class="cls-14" d="M334.4,480.05c0,.86.6,1.21,1.35.78a3,3,0,0,0,1.34-2.34c0-.86-.6-1.21-1.34-.78A3,3,0,0,0,334.4,480.05Z" transform="translate(-81.06 -134.48)"/><path class="cls-9" d="M329.64,482.79c0,.87.6,1.21,1.35.78a3,3,0,0,0,1.35-2.33c0-.86-.61-1.21-1.35-.78A3,3,0,0,0,329.64,482.79Z" transform="translate(-81.06 -134.48)"/><path class="cls-14" d="M316.19,492.75l2.77-1.6a1.78,1.78,0,0,0,.75-1.43v-2.94c0-.55-.33-.8-.75-.56l-2.77,1.6a1.81,1.81,0,0,0-.75,1.43v2.93C315.44,492.74,315.78,493,316.19,492.75Z" transform="translate(-81.06 -134.48)"/><path class="cls-8" d="M331.57,251.23l67-38.2c2.45-1.41,2.14-3.89-.68-5.52l-38.55-22.25c-2.83-1.64-7.11-1.82-9.56-.4l-67,38.2c-2.45,1.42-2.14,3.89.69,5.52L322,250.84C324.84,252.47,329.12,252.65,331.57,251.23Z" transform="translate(-81.06 -134.48)"/><path class="cls-8" d="M224,313.13l67-38.2c2.45-1.42,2.14-3.89-.69-5.52L251.8,247.15c-2.82-1.63-7.1-1.81-9.55-.39l-67,38.2c-2.45,1.41-2.14,3.88.69,5.52l38.54,22.25C217.31,314.37,221.59,314.54,224,313.13Z" transform="translate(-81.06 -134.48)"/><path class="cls-8" d="M414.84,299.13l67-38.2c2.45-1.42,2.14-3.89-.68-5.52L442.6,233.15c-2.83-1.63-7.11-1.81-9.56-.39L366,271c-2.45,1.41-2.14,3.89.69,5.52l38.55,22.25C408.11,300.37,412.39,300.55,414.84,299.13Z" transform="translate(-81.06 -134.48)"/><path class="cls-17" d="M349.77,184.86l-43.92,25,40.24,23.24,48.09-27.76-34.85-20.12C356.5,183.62,352.22,183.44,349.77,184.86Z" transform="translate(-81.06 -134.48)"/><path class="cls-1" d="M396.88,180l-7.42-4.28,27.35-15.79a1.43,1.43,0,0,0,0-2.7L388.87,141.1a5.17,5.17,0,0,0-4.69,0l-27.35,15.79-7.41-4.29,27.35-15.79c5.38-3.1,14.13-3.1,19.52,0l27.94,16.13c5.38,3.11,5.38,8.17,0,11.27Z" transform="translate(-81.06 -134.48)"/><path class="cls-8" d="M408.85,181.89c0-4-2.42-8.57-5.39-10.29L353.91,143a3.47,3.47,0,0,0-3.49-.3h0l-59.17,34.38,57.22,43.11,58.28-33.83a2.65,2.65,0,0,0,.52-.29h0A5.06,5.06,0,0,0,408.85,181.89Z" transform="translate(-81.06 -134.48)"/><path class="cls-10" d="M348.47,220.18l58.28-33.83a2.65,2.65,0,0,0,.52-.29h0a5.06,5.06,0,0,0,1.58-4.16,13.2,13.2,0,0,0-1.46-5.73L341,214.52Z" transform="translate(-81.06 -134.48)"/><path class="cls-11" d="M344.74,220l-49.55-28.61c-3-1.71-5.39-6.32-5.39-10.29h0c0-4,2.41-5.78,5.39-4.07l49.55,28.61c3,1.72,5.39,6.33,5.39,10.29h0C350.13,219.93,347.71,221.75,344.74,220Z" transform="translate(-81.06 -134.48)"/><path class="cls-7" d="M345.34,205.4l-49.55-28.61a3.43,3.43,0,0,0-3.57-.25,3.76,3.76,0,0,1,3,.52l49.55,28.61c3,1.72,5.39,6.33,5.39,10.29h0c0,2.14-.71,3.65-1.83,4.32,1.46-.44,2.42-2.09,2.42-4.59h0C350.72,211.72,348.31,207.12,345.34,205.4Z" transform="translate(-81.06 -134.48)"/><path class="cls-7" d="M337.32,210.38l-6-3.43a2.59,2.59,0,0,1-1.07-2h0c0-.79.48-1.16,1.07-.82l6,3.44a2.57,2.57,0,0,1,1.07,2h0C338.39,210.36,337.91,210.73,337.32,210.38Z" transform="translate(-81.06 -134.48)"/><path class="cls-11" d="M344,169.71c1.8-1.07,1.78-2.76,0-3.78a7.2,7.2,0,0,0-6.55.07c-1.8,1.06-1.78,2.75,0,3.78A7.27,7.27,0,0,0,344,169.71Z" transform="translate(-81.06 -134.48)"/><path class="cls-7" d="M354,175.33c1.79-1.06,1.78-2.76,0-3.78a7.2,7.2,0,0,0-6.55.07c-1.8,1.06-1.78,2.75,0,3.78A7.27,7.27,0,0,0,354,175.33Z" transform="translate(-81.06 -134.48)"/><path class="cls-7" d="M364,181c1.8-1.06,1.78-2.75,0-3.78a7.24,7.24,0,0,0-6.54.07c-1.8,1.06-1.78,2.76,0,3.78A7.21,7.21,0,0,0,364,181Z" transform="translate(-81.06 -134.48)"/><path class="cls-9" d="M252.48,270.05a3.88,3.88,0,0,0-3.48,0l-32.82,19a1.06,1.06,0,0,0,0,2,3.81,3.81,0,0,0,3.48,0l32.82-19A1.06,1.06,0,0,0,252.48,270.05Z" transform="translate(-81.06 -134.48)"/><polygon class="cls-3" points="386.99 394.18 369.21 383.92 386.99 373.65 404.77 383.92 386.99 394.18"/><polygon class="cls-1" points="404.77 370.88 386.99 381.15 386.99 360.62 404.77 350.35 404.77 370.88"/><polygon class="cls-8" points="386.99 360.62 369.21 350.35 386.99 340.09 404.76 350.35 386.99 360.62"/><polygon class="cls-11" points="386.99 381.15 369.21 370.88 369.21 350.35 386.99 360.62 386.99 381.15"/><polygon class="cls-7" points="380.58 370.06 375.61 367.19 375.61 361.44 380.58 364.31 380.58 370.06"/><polygon class="cls-3" points="90.1 397.18 72.32 386.92 90.1 376.65 107.88 386.92 90.1 397.18"/><polygon class="cls-1" points="107.88 373.88 90.1 384.15 90.1 363.62 107.88 353.35 107.88 373.88"/><polygon class="cls-8" points="90.1 363.62 72.32 353.35 90.1 343.09 107.88 353.35 90.1 363.62"/><polygon class="cls-11" points="90.1 384.15 72.32 373.88 72.32 353.35 90.1 363.62 90.1 384.15"/><polygon class="cls-7" points="83.7 373.06 78.73 370.19 78.73 364.44 83.7 367.31 83.7 373.06"/></svg>