<svg id="Layer_1" data-name="Layer 1" xmlns="http://www.w3.org/2000/svg" xmlns:xlink="http://www.w3.org/1999/xlink" viewBox="0 0 480.51 480.3"><defs><style>.cls-1{fill:none;}.cls-2{fill:url(#linear-gradient);}.cls-3{fill:#91b3fa;}.cls-4{fill:url(#linear-gradient-2);}.cls-5{fill:#fff;opacity:0.56;}.cls-6{fill:url(#linear-gradient-3);}.cls-7{fill:url(#linear-gradient-4);}.cls-8{fill:url(#linear-gradient-5);}.cls-9{fill:url(#linear-gradient-6);}.cls-10{clip-path:url(#clip-path);}.cls-11{fill:url(#linear-gradient-7);}.cls-12{fill:url(#linear-gradient-8);}.cls-13{fill:url(#linear-gradient-9);}.cls-14{fill:url(#linear-gradient-10);}.cls-15{fill:url(#linear-gradient-11);}.cls-16{fill:url(#linear-gradient-12);}.cls-17{fill:url(#linear-gradient-13);}.cls-18{fill:url(#linear-gradient-14);}.cls-19{fill:url(#linear-gradient-15);}.cls-20{fill:url(#linear-gradient-16);}.cls-21{clip-path:url(#clip-path-2);}.cls-22{fill:url(#linear-gradient-17);}.cls-23{fill:url(#linear-gradient-18);}.cls-24{fill:url(#linear-gradient-19);}.cls-25{fill:url(#linear-gradient-20);}.cls-26{fill:url(#linear-gradient-21);}.cls-27{fill:url(#linear-gradient-22);}.cls-28{fill:url(#linear-gradient-23);}.cls-29{fill:url(#linear-gradient-24);}.cls-30{fill:url(#linear-gradient-25);}.cls-31{fill:url(#linear-gradient-26);}.cls-32{fill:url(#linear-gradient-27);}</style><linearGradient id="linear-gradient" x1="632.5" y1="633.86" x2="130.52" y2="202.04" gradientUnits="userSpaceOnUse"><stop offset="0" stop-color="#dae3fe"/><stop offset="1" stop-color="#e9effd"/></linearGradient><linearGradient id="linear-gradient-2" x1="-8.31" y1="267.73" x2="366.83" y2="772.41" gradientUnits="userSpaceOnUse"><stop offset="0" stop-color="#f59960"/><stop offset="1" stop-color="#4F81BD"/></linearGradient><linearGradient id="linear-gradient-3" x1="29.27" y1="239.8" x2="404.41" y2="744.48" xlink:href="#linear-gradient-2"/><linearGradient id="linear-gradient-4" x1="5712.92" y1="3830" x2="6088.06" y2="4334.68" gradientTransform="translate(7404.38 -1528.11) rotate(131.57)" xlink:href="#linear-gradient-2"/><linearGradient id="linear-gradient-5" x1="5750.5" y1="3802.07" x2="6125.63" y2="4306.75" gradientTransform="translate(7404.38 -1528.11) rotate(131.57)" xlink:href="#linear-gradient-2"/><linearGradient id="linear-gradient-6" x1="99.07" y1="174.49" x2="745.9" y2="747.54" gradientUnits="userSpaceOnUse"><stop offset="0" stop-color="#4f52ff"/><stop offset="1" stop-color="#4042e2"/></linearGradient><clipPath id="clip-path" transform="translate(-78.62 -107.7)"><circle id="SVGID" class="cls-1" cx="210.24" cy="267.39" r="101.46"/></clipPath><linearGradient id="linear-gradient-7" x1="251.06" y1="212.7" x2="149.4" y2="419.61" gradientUnits="userSpaceOnUse"><stop offset="0" stop-color="#090056"/><stop offset="1" stop-color="#020039"/></linearGradient><linearGradient id="linear-gradient-8" x1="367.92" y1="428.47" x2="413.42" y2="428.47" gradientTransform="translate(-233.98 -149.69) rotate(-11.71)" gradientUnits="userSpaceOnUse"><stop offset="0" stop-color="#feb3b1"/><stop offset="1" stop-color="#ff928e"/></linearGradient><linearGradient id="linear-gradient-9" x1="202.74" y1="188.96" x2="101.09" y2="395.87" xlink:href="#linear-gradient-7"/><linearGradient id="linear-gradient-10" x1="271.12" y1="582.89" x2="305.12" y2="582.89" xlink:href="#linear-gradient-8"/><linearGradient id="linear-gradient-11" x1="333.19" y1="253.05" x2="231.54" y2="459.97" xlink:href="#linear-gradient-7"/><linearGradient id="linear-gradient-12" x1="510.42" y1="555.46" x2="556.77" y2="555.46" xlink:href="#linear-gradient-8"/><linearGradient id="linear-gradient-13" x1="425.97" y1="413.2" x2="387.15" y2="368.54" xlink:href="#linear-gradient-8"/><linearGradient id="linear-gradient-14" x1="348.3" y1="33.99" x2="267.33" y2="112.26" xlink:href="#linear-gradient-7"/><linearGradient id="linear-gradient-15" x1="414.21" y1="423.42" x2="375.39" y2="378.76" xlink:href="#linear-gradient-8"/><linearGradient id="linear-gradient-16" x1="-1328.52" y1="21.59" x2="-681.69" y2="594.64" gradientTransform="matrix(-0.97, -0.25, -0.25, 0.97, -486.53, -84.32)" xlink:href="#linear-gradient-6"/><clipPath id="clip-path-2" transform="translate(-78.62 -107.7)"><path id="SVGID-2" data-name="SVGID" class="cls-1" d="M446.91,544.22c-38,8-78.31-8.38-100.89-36.86-9.19-11.59-109.77-50.56-113-66C221.65,387.94,346.17,315,399.58,303.7s126.21,59.71,137.53,113.13c5.06,23.83-22.6,61.57-33.32,81.46C490.48,523,476.49,538,446.91,544.22Z"/></clipPath><linearGradient id="linear-gradient-17" x1="356.93" y1="327.42" x2="557.99" y2="482.6" xlink:href="#linear-gradient-7"/><linearGradient id="linear-gradient-18" x1="302.49" y1="512.03" x2="351.02" y2="486.9" gradientTransform="matrix(1, 0, 0, 1, 0, 0)" xlink:href="#linear-gradient-8"/><linearGradient id="linear-gradient-19" x1="582.19" y1="548.16" x2="421.61" y2="480.01" xlink:href="#linear-gradient-2"/><linearGradient id="linear-gradient-20" x1="415.52" y1="446.78" x2="421.29" y2="405.76" gradientTransform="matrix(1, 0, 0, 1, 0, 0)" xlink:href="#linear-gradient-8"/><linearGradient id="linear-gradient-21" x1="389.03" y1="358.88" x2="443.05" y2="420.99" gradientTransform="matrix(1, 0, 0, 1, 0, 0)" xlink:href="#linear-gradient-8"/><linearGradient id="linear-gradient-22" x1="366.12" y1="315.51" x2="567.18" y2="470.69" xlink:href="#linear-gradient-7"/><linearGradient id="linear-gradient-23" x1="402.53" y1="347.14" x2="456.55" y2="409.25" gradientTransform="matrix(1, 0, 0, 1, 0, 0)" xlink:href="#linear-gradient-8"/><linearGradient id="linear-gradient-24" x1="292.82" y1="479.67" x2="333.84" y2="426.8" xlink:href="#linear-gradient-7"/><linearGradient id="linear-gradient-25" x1="301.79" y1="465.33" x2="322.01" y2="438.76" xlink:href="#linear-gradient-6"/><linearGradient id="linear-gradient-26" x1="319.88" y1="428" x2="312.95" y2="529.41" xlink:href="#linear-gradient-7"/><linearGradient id="linear-gradient-27" x1="376.05" y1="516" x2="519.93" y2="324.46" gradientTransform="matrix(1, 0, 0, 1, 0, 0)" xlink:href="#linear-gradient-8"/></defs><path class="cls-2" d="M499,521.78c-12.35,12.73-23.41,20.22-31.87,25.87-82.54,55.11-176.9,39.23-206.07,33.8-47.07-8.76-86.8-14.94-120.93-45.78-77.57-70.08-73.79-216.26-14.52-306.82,7-10.74,66.2-98.46,160.76-110.82,2.31-.3,4-.47,5.55-.63,14.63-1.55,105.28-9.73,179.19,52.2a220.33,220.33,0,0,1,43.4,49.24C572.22,308,572.4,446.1,499,521.78Z" transform="translate(-78.62 -107.7)"/><path class="cls-3" d="M221.65,492.31a1.73,1.73,0,0,1-1.65-1.79c.08-1.84.08-3.71,0-5.56a1.73,1.73,0,0,1,1.61-1.79h0a1.71,1.71,0,0,1,1.79,1.64c.09,1.95.09,3.92,0,5.85a1.71,1.71,0,0,1-1.6,1.65ZM219,476c-.34-1.82-.75-3.64-1.23-5.42a1.72,1.72,0,1,1,3.31-.9c.51,1.87.94,3.79,1.29,5.7a1.72,1.72,0,0,1-1.38,2l-.2,0A1.71,1.71,0,0,1,219,476Zm-4.21-13.94c-.73-1.7-1.54-3.38-2.41-5a1.72,1.72,0,0,1,3-1.62c.92,1.72,1.77,3.49,2.54,5.27A1.73,1.73,0,0,1,217,463a1.68,1.68,0,0,1-.57.13A1.72,1.72,0,0,1,214.77,462.05Zm-7.22-12.65c-1.09-1.49-2.25-3-3.46-4.35a1.71,1.71,0,1,1,2.58-2.25c1.28,1.46,2.51,3,3.66,4.57a1.72,1.72,0,0,1-.38,2.4,1.68,1.68,0,0,1-.9.33A1.74,1.74,0,0,1,207.55,449.4Zm-9.85-10.73c-1.39-1.21-2.85-2.38-4.35-3.47a1.72,1.72,0,1,1,2-2.77c1.57,1.15,3.11,2.38,4.57,3.65a1.71,1.71,0,0,1,.17,2.42,1.73,1.73,0,0,1-1.19.59A1.68,1.68,0,0,1,197.7,438.67Zm-12-8.28c-1.62-.87-3.31-1.69-5-2.42a1.72,1.72,0,0,1,1.36-3.15c1.79.77,3.56,1.63,5.27,2.55a1.71,1.71,0,0,1-.71,3.22A1.69,1.69,0,0,1,185.71,430.39Zm-63.71-.8a1.72,1.72,0,0,1,.7-2.32c1.72-.91,3.49-1.76,5.28-2.53a1.72,1.72,0,0,1,1.35,3.16c-1.7.72-3.39,1.53-5,2.4a1.8,1.8,0,0,1-.7.2A1.7,1.7,0,0,1,122,429.59ZM172.2,425c-1.78-.49-3.6-.91-5.41-1.25a1.71,1.71,0,1,1,.62-3.37c1.91.35,3.83.79,5.7,1.31a1.72,1.72,0,0,1-.34,3.37A1.85,1.85,0,0,1,172.2,425Zm-36.44-1.25a1.71,1.71,0,0,1,1.2-2.1c1.88-.51,3.8-.94,5.71-1.29a1.72,1.72,0,1,1,.61,3.38c-1.81.33-3.64.74-5.42,1.22a2,2,0,0,1-.34.06A1.71,1.71,0,0,1,135.76,423.73Zm22.06-1c-1.84-.08-3.71-.08-5.56,0a1.72,1.72,0,0,1-.18-3.43h0c1.94-.08,3.91-.08,5.85,0a1.72,1.72,0,0,1,0,3.43Z" transform="translate(-78.62 -107.7)"/><path class="cls-3" d="M113.54,437.11a1.73,1.73,0,0,0,1-.37c.69-.55,1.41-1.1,2.13-1.62a1.72,1.72,0,0,0-2-2.77c-.75.55-1.5,1.12-2.23,1.7a1.72,1.72,0,0,0,1.17,3.06Z" transform="translate(-78.62 -107.7)"/><path class="cls-3" d="M88.53,483.06a1.72,1.72,0,0,0,1.59-1.55c.09-.88.19-1.78.31-2.66a1.72,1.72,0,0,0-3.4-.47c-.12.93-.23,1.87-.32,2.8a1.72,1.72,0,0,0,1.54,1.87Z" transform="translate(-78.62 -107.7)"/><path class="cls-3" d="M155.84,556.31a1.72,1.72,0,0,1-.05-3.43c1.81,0,3.64-.13,5.47-.31a1.72,1.72,0,0,1,.33,3.42c-.79.08-1.58.14-2.37.19C158.09,556.25,157,556.3,155.84,556.31Zm12.91-3.13a1.71,1.71,0,0,1,1.27-2.06c1.77-.42,3.54-.92,5.27-1.49a1.72,1.72,0,0,1,1.07,3.26c-1.82.6-3.68,1.12-5.55,1.57l-.29,0A1.71,1.71,0,0,1,168.75,553.18Zm-22.25,2.63c-1.89-.24-3.8-.55-5.68-.95a1.72,1.72,0,0,1,.71-3.36c1.78.38,3.59.68,5.39.9a1.72,1.72,0,0,1-.1,3.42Zm36.23-7.22a1.72,1.72,0,0,1,.79-2.3c1.63-.79,3.25-1.67,4.81-2.6a1.72,1.72,0,0,1,1.76,2.95c-1.64,1-3.35,1.9-5.06,2.74a1.7,1.7,0,0,1-.65.17A1.72,1.72,0,0,1,182.73,548.59Zm-50.9,3.72c-1.79-.64-3.58-1.37-5.33-2.17a1.72,1.72,0,0,1,1.43-3.12c1.65.76,3.36,1.45,5.06,2.06a1.72,1.72,0,0,1-.47,3.33A1.53,1.53,0,0,1,131.83,552.31Zm-13.54-6.62c-1.62-1-3.21-2.13-4.73-3.28a1.72,1.72,0,0,1,2.07-2.74c1.45,1.1,3,2.15,4.49,3.12a1.72,1.72,0,0,1,.53,2.37,1.72,1.72,0,0,1-2.36.53Zm-11.79-9.42c-1.35-1.35-2.66-2.78-3.9-4.24a1.71,1.71,0,0,1,2.62-2.21c1.17,1.38,2.42,2.73,3.71,4a1.71,1.71,0,0,1,0,2.42,1.7,1.7,0,0,1-2.43,0ZM97.06,524.5c-1-1.61-2-3.29-2.88-5a1.72,1.72,0,0,1,3-1.59c.84,1.61,1.76,3.21,2.73,4.74a1.71,1.71,0,0,1-.52,2.37,1.73,1.73,0,0,1-2.37-.53Zm-6.64-13.56c-.64-1.8-1.22-3.65-1.71-5.5a1.72,1.72,0,1,1,3.32-.88c.47,1.76,1,3.51,1.62,5.22a1.72,1.72,0,0,1-1,2.2,2,2,0,0,1-.47.09A1.71,1.71,0,0,1,90.42,510.94Zm-3.49-14.67c-.17-1.4-.31-2.82-.39-4.22,0-.51-.06-1-.08-1.52a1.71,1.71,0,1,1,3.42-.14c0,.48.05,1,.08,1.44.08,1.33.21,2.68.38,4a1.72,1.72,0,0,1-1.49,1.92h-.11A1.73,1.73,0,0,1,86.93,496.27Z" transform="translate(-78.62 -107.7)"/><path class="cls-3" d="M196.84,541.64a1.66,1.66,0,0,0,1-.37c.73-.58,1.46-1.19,2.16-1.81a1.71,1.71,0,1,0-2.25-2.58c-.68.58-1.37,1.16-2.05,1.71a1.73,1.73,0,0,0-.27,2.42A1.71,1.71,0,0,0,196.84,541.64Z" transform="translate(-78.62 -107.7)"/><path class="cls-4" d="M200.08,512.4a.8.8,0,0,0,0-.93l-5.65-8a42.28,42.28,0,0,0,3.12-13.42l8.58-4.65a.79.79,0,0,0,.41-.83l-1.91-11.56a.82.82,0,0,0-.66-.66l-9.62-1.62a42.28,42.28,0,0,0-7.29-11.7l2.78-9.35a.79.79,0,0,0-.3-.88L180,442a.8.8,0,0,0-.93,0l-8,5.66a42.49,42.49,0,0,0-13.42-3.13L153.07,436a.8.8,0,0,0-.84-.4l-11.55,1.91a.81.81,0,0,0-.66.66l-1.63,9.62a42.58,42.58,0,0,0-11.69,7.28l-9.36-2.78a.81.81,0,0,0-.88.3l-6.81,9.53a.8.8,0,0,0,0,.93l5.65,8a42.42,42.42,0,0,0-3.12,13.41l-8.58,4.65a.8.8,0,0,0-.41.84l1.92,11.55a.81.81,0,0,0,.65.66l9.62,1.62a42.28,42.28,0,0,0,7.29,11.7l-2.78,9.35a.79.79,0,0,0,.3.88l9.52,6.82a.8.8,0,0,0,.93,0l8-5.65A42.82,42.82,0,0,0,152,529.94l4.64,8.58a.82.82,0,0,0,.84.41L169.05,537a.81.81,0,0,0,.66-.66l1.63-9.62A42.58,42.58,0,0,0,183,519.45l9.36,2.78a.79.79,0,0,0,.88-.3Z" transform="translate(-78.62 -107.7)"/><path class="cls-5" d="M153.89,499a11.74,11.74,0,1,1,1.73,0A12.51,12.51,0,0,1,153.89,499ZM149,480.36a9,9,0,1,0,6.57-2.1,10,10,0,0,0-1.34,0A9,9,0,0,0,149,480.36Z" transform="translate(-78.62 -107.7)"/><path class="cls-5" d="M156.46,516c1-.07,2-.18,2.95-.34h0l.93-.17a29.83,29.83,0,0,0,4.46-1.26l.06,0,.16-.06.33-.12a.7.7,0,0,0,.43-.69.54.54,0,0,0-.05-.21.68.68,0,0,0-.89-.38,27.59,27.59,0,0,1-37.36-21.12,27,27,0,0,1-.32-2.82,27.57,27.57,0,0,1,54.71-6.2c.15.92.26,1.85.32,2.78a27.56,27.56,0,0,1-1.86,11.82.63.63,0,0,0,0,.3.67.67,0,0,0,.43.59.69.69,0,0,0,.89-.38,28.79,28.79,0,0,0,1.95-12.41,28.9,28.9,0,0,0-33.62-26.74,28.94,28.94,0,0,0-24.15,30.32,26.82,26.82,0,0,0,.34,3A29,29,0,0,0,156.46,516Z" transform="translate(-78.62 -107.7)"/><path class="cls-3" d="M283.14,533.73a1.06,1.06,0,0,0,1-.83c.2-.88.37-1.77.52-2.66a1.06,1.06,0,1,0-2.09-.34c-.14.85-.31,1.7-.5,2.54a1.06,1.06,0,0,0,.8,1.26A1.12,1.12,0,0,0,283.14,533.73Z" transform="translate(-78.62 -107.7)"/><path class="cls-3" d="M284.09,525.64a1,1,0,0,1-1-1.1c.05-1.47,0-3-.06-4.44,0-.31,0-.62-.07-.94a1.06,1.06,0,0,1,1-1.14,1.09,1.09,0,0,1,1.14,1c0,.32.06.65.08,1,.09,1.55.11,3.12.06,4.67a1.07,1.07,0,0,1-1,1Zm-1.93-11.8a41.88,41.88,0,0,0-1.42-5.19,1.06,1.06,0,1,1,2-.69,48,48,0,0,1,1.49,5.44,1.06,1.06,0,0,1-.82,1.26l-.15,0A1.07,1.07,0,0,1,282.16,513.84Zm-3.48-10.17A42.29,42.29,0,0,0,276,499a1.06,1.06,0,0,1,.31-1.47,1.05,1.05,0,0,1,1.46.31,44.91,44.91,0,0,1,2.79,4.91,1.06,1.06,0,0,1-.49,1.42,1,1,0,0,1-.4.1A1.06,1.06,0,0,1,278.68,503.67Zm-5.87-9a42.62,42.62,0,0,0-3.71-3.89,1.05,1.05,0,0,1,1.43-1.55,45.42,45.42,0,0,1,3.9,4.07,1.06,1.06,0,0,1-.12,1.5,1.12,1.12,0,0,1-.62.25A1.07,1.07,0,0,1,272.81,494.67Zm-7.88-7.29a44.15,44.15,0,0,0-4.56-2.87,1.06,1.06,0,0,1,1-1.86,44.5,44.5,0,0,1,4.77,3,1.06,1.06,0,0,1,.25,1.48,1.1,1.1,0,0,1-.8.44A1.06,1.06,0,0,1,264.93,487.38Zm-9.42-5.16a44.82,44.82,0,0,0-5.11-1.67,1.06,1.06,0,0,1,.53-2.05,46.57,46.57,0,0,1,5.36,1.75,1.06,1.06,0,0,1,.59,1.38,1,1,0,0,1-.92.66A1,1,0,0,1,255.51,482.22Zm-10.4-2.7a43.47,43.47,0,0,0-5.36-.36,1.06,1.06,0,1,1,0-2.12,46,46,0,0,1,5.63.38,1.06,1.06,0,0,1,.91,1.19,1,1,0,0,1-1,.92Zm-17.32.11a1.06,1.06,0,0,1,.78-1.28,46,46,0,0,1,4.82-.9l.74-.1a1.06,1.06,0,0,1,.24,2.11l-.7.09a41.88,41.88,0,0,0-4.6.86l-.18,0A1.07,1.07,0,0,1,227.79,479.63Z" transform="translate(-78.62 -107.7)"/><path class="cls-3" d="M241.7,568.54a44.69,44.69,0,0,1-5.55,0,1.06,1.06,0,0,1,.15-2.12,42.61,42.61,0,0,0,5.3,0,1.06,1.06,0,0,1,.12,2.12Zm4.3-1.48a1.05,1.05,0,0,1,.86-1.22,45.46,45.46,0,0,0,5.16-1.21,1.06,1.06,0,0,1,.6,2,45.05,45.05,0,0,1-5.4,1.27h-.11A1,1,0,0,1,246,567.06Zm-15.35.7a47.06,47.06,0,0,1-5.37-1.4,1.06,1.06,0,0,1,.65-2,43,43,0,0,0,5.13,1.34,1.06,1.06,0,0,1-.14,2.09A1.22,1.22,0,0,1,230.65,567.76Zm25.79-3.56a1.06,1.06,0,0,1,.55-1.39,44.52,44.52,0,0,0,4.71-2.42,1.06,1.06,0,1,1,1.08,1.82,46,46,0,0,1-4.94,2.54.94.94,0,0,1-.36.08A1.05,1.05,0,0,1,256.44,564.2Zm-36.32.12a47.84,47.84,0,0,1-4.88-2.64,1.06,1.06,0,1,1,1.12-1.8A43.62,43.62,0,0,0,221,562.4a1.06,1.06,0,0,1-.39,2A1,1,0,0,1,220.12,564.32Zm-9.4-5.86a45.34,45.34,0,0,1-4.11-3.73,1.06,1.06,0,1,1,1.52-1.48,44,44,0,0,0,3.92,3.56,1.06,1.06,0,0,1,.16,1.49,1,1,0,0,1-1.49.16ZM203,550.52a45.75,45.75,0,0,1-3.09-4.61,1.06,1.06,0,0,1,1.83-1.07,44.42,44.42,0,0,0,3,4.4,1.06,1.06,0,0,1-.21,1.48,1.12,1.12,0,0,1-.57.22A1,1,0,0,1,203,550.52Z" transform="translate(-78.62 -107.7)"/><path class="cls-3" d="M266.83,559.28a1,1,0,0,0,.58-.22c.72-.55,1.42-1.13,2.1-1.72a1.06,1.06,0,1,0-1.4-1.59c-.64.55-1.31,1.11-2,1.64a1.06,1.06,0,0,0-.19,1.48A1.07,1.07,0,0,0,266.83,559.28Z" transform="translate(-78.62 -107.7)"/><path class="cls-6" d="M269.64,539.3a.51.51,0,0,0,0-.62l-3.78-5.33a28.31,28.31,0,0,0,2.09-9l5.74-3.11a.56.56,0,0,0,.28-.56L272.68,513a.51.51,0,0,0-.44-.44l-6.43-1.09a28.67,28.67,0,0,0-4.88-7.83l1.86-6.26a.53.53,0,0,0-.2-.59l-6.37-4.56a.54.54,0,0,0-.62,0L250.27,496a28.11,28.11,0,0,0-9-2.09l-3.11-5.74a.52.52,0,0,0-.56-.28l-7.73,1.28a.55.55,0,0,0-.44.44l-1.09,6.44a28.23,28.23,0,0,0-7.82,4.88l-6.26-1.87a.54.54,0,0,0-.59.21l-4.56,6.37a.54.54,0,0,0,0,.62l3.78,5.33a28.59,28.59,0,0,0-2.09,9l-5.74,3.11a.54.54,0,0,0-.27.56l1.28,7.73a.52.52,0,0,0,.44.44l6.44,1.09a28.4,28.4,0,0,0,4.87,7.83L216,547.58a.56.56,0,0,0,.2.59l6.37,4.56a.56.56,0,0,0,.63,0L228.5,549a28.36,28.36,0,0,0,9,2.08l3.11,5.74a.52.52,0,0,0,.56.28l7.73-1.28a.54.54,0,0,0,.44-.44l1.09-6.44a28.23,28.23,0,0,0,7.82-4.88l6.27,1.87a.53.53,0,0,0,.58-.21Z" transform="translate(-78.62 -107.7)"/><path class="cls-5" d="M238.72,530.46a8,8,0,1,1,1.19,0A7.89,7.89,0,0,1,238.72,530.46ZM233.51,522a5.91,5.91,0,0,0,5.39,6.37h0a5.9,5.9,0,0,0,1-11.76,8.48,8.48,0,0,0-.87,0A5.91,5.91,0,0,0,233.51,522Z" transform="translate(-78.62 -107.7)"/><path class="cls-5" d="M240.51,542.29a20.15,20.15,0,0,0,2-.23,19.6,19.6,0,0,0,3.92-1.07l.17-.07a1,1,0,0,0,.67-1,1.23,1.23,0,0,0-.07-.32,1.07,1.07,0,0,0-1.38-.6,17.75,17.75,0,0,1-3.66,1h0l-.21,0a17.74,17.74,0,0,1-13-3l0,0-.09-.07a17.76,17.76,0,0,1-7.23-11.6,16.33,16.33,0,0,1-.2-1.82,17.85,17.85,0,0,1,35.42-4c.09.6.16,1.2.2,1.8a17.75,17.75,0,0,1-1.2,7.66,1,1,0,0,0-.07.45,1,1,0,0,0,.67.92,1.06,1.06,0,0,0,1.37-.6,20,20,0,0,0,1.35-8.56c-.05-.67-.12-1.34-.23-2a20,20,0,0,0-39.63,4.49,20.21,20.21,0,0,0,.23,2A20,20,0,0,0,240.51,542.29Z" transform="translate(-78.62 -107.7)"/><path class="cls-3" d="M427.46,227.14a1.71,1.71,0,0,1,2.43,0c1.32,1.28,2.73,2.52,4.16,3.68a1.72,1.72,0,0,1,.28,2.39l0,0a1.74,1.74,0,0,1-2.42.25c-1.51-1.23-3-2.53-4.38-3.88a1.72,1.72,0,0,1-.17-2.29Zm14,8.83c1.58.95,3.22,1.85,4.87,2.67a1.72,1.72,0,1,1-1.52,3.08c-1.74-.86-3.46-1.81-5.13-2.82a1.71,1.71,0,0,1-.57-2.36l.11-.16A1.71,1.71,0,0,1,441.44,236Zm13.22,6.1c1.75.58,3.55,1.09,5.35,1.52a1.72,1.72,0,1,1-.8,3.34c-1.89-.45-3.78-1-5.63-1.6a1.72,1.72,0,0,1-1.09-2.17,2,2,0,0,1,.28-.52A1.72,1.72,0,0,1,454.66,242.07Zm14.25,3c1.84.17,3.71.27,5.56.29a1.71,1.71,0,0,1,1.7,1.73,1.73,1.73,0,0,1-1.73,1.7c-1.95,0-3.91-.12-5.85-.31a1.72,1.72,0,0,1-1.55-1.87,1.76,1.76,0,0,1,.36-.89A1.72,1.72,0,0,1,468.91,245.07Zm14.57-.26c1.83-.23,3.67-.55,5.48-.95a1.72,1.72,0,0,1,.73,3.36c-1.9.41-3.84.75-5.77,1a1.72,1.72,0,0,1-.44-3.41Zm14.15-3.47c1.73-.63,3.46-1.35,5.13-2.13a1.71,1.71,0,1,1,1.45,3.1c-1.76.83-3.58,1.58-5.4,2.25a1.71,1.71,0,0,1-1.94-2.66A1.67,1.67,0,0,1,497.63,241.34Zm42.88-47.13a1.72,1.72,0,0,1,1.27,2.07c-.46,1.88-1,3.78-1.62,5.62a1.71,1.71,0,1,1-3.25-1.08c.58-1.76,1.1-3.55,1.53-5.35a1.86,1.86,0,0,1,.31-.65A1.71,1.71,0,0,1,540.51,194.21Zm-29.87,40.62c1.55-1,3.07-2.09,4.53-3.23a1.72,1.72,0,0,1,2.11,2.71c-1.53,1.19-3.14,2.33-4.77,3.39a1.71,1.71,0,0,1-2.28-2.49A1.49,1.49,0,0,1,510.64,234.83Zm25.12-26.44a1.71,1.71,0,0,1,.77,2.3c-.86,1.74-1.81,3.46-2.82,5.12a1.71,1.71,0,1,1-2.93-1.78c1-1.58,1.86-3.22,2.68-4.87a1.81,1.81,0,0,1,.19-.29A1.71,1.71,0,0,1,535.76,208.39Zm-13.88,17.18c1.28-1.33,2.52-2.73,3.69-4.16a1.7,1.7,0,0,1,2.41-.25,1.73,1.73,0,0,1,.27,2.39l0,0c-1.23,1.5-2.54,3-3.89,4.37a1.71,1.71,0,0,1-2.58-2.24A.53.53,0,0,1,521.88,225.57Z" transform="translate(-78.62 -107.7)"/><path class="cls-3" d="M540.5,182.9a1.66,1.66,0,0,0-.36,1c0,.88-.12,1.78-.2,2.66a1.71,1.71,0,1,0,3.41.33c.09-.93.16-1.88.21-2.81a1.71,1.71,0,0,0-3.06-1.14Z" transform="translate(-78.62 -107.7)"/><path class="cls-3" d="M522.73,133.69a1.71,1.71,0,0,0,.09,2.22c.61.65,1.21,1.32,1.79,2a1.72,1.72,0,0,0,2.6-2.24c-.61-.71-1.24-1.41-1.87-2.1a1.72,1.72,0,0,0-2.43-.08A1.12,1.12,0,0,0,522.73,133.69Z" transform="translate(-78.62 -107.7)"/><path class="cls-3" d="M423.25,135.43a1.72,1.72,0,0,1,2.6,2.24c-1.18,1.37-2.31,2.81-3.39,4.29a1.72,1.72,0,0,1-2.78-2c.47-.64.94-1.27,1.43-1.9C421.8,137.16,422.52,136.28,423.25,135.43ZM417,147.16a1.73,1.73,0,0,1,.7,2.33c-.86,1.6-1.66,3.26-2.39,4.92a1.71,1.71,0,0,1-3.14-1.36c.75-1.76,1.6-3.5,2.51-5.19a1.25,1.25,0,0,1,.16-.24A1.71,1.71,0,0,1,417,147.16Zm12.8-18.38c1.43-1.26,2.93-2.48,4.47-3.62a1.72,1.72,0,0,1,2.05,2.76c-1.46,1.08-2.89,2.24-4.25,3.44a1.72,1.72,0,0,1-2.49-2.34A1,1,0,0,1,429.83,128.78Zm-18.64,31.89a1.73,1.73,0,0,1,1.19,2.12c-.49,1.75-.91,3.54-1.24,5.32a1.72,1.72,0,1,1-3.38-.64c.36-1.88.8-3.76,1.31-5.6a1.69,1.69,0,0,1,.3-.6A1.74,1.74,0,0,1,411.19,160.67Zm31-40.54c1.68-.92,3.41-1.78,5.17-2.55a1.71,1.71,0,1,1,1.38,3.14c-1.66.73-3.31,1.55-4.9,2.42a1.72,1.72,0,0,1-2.18-2.56A1.65,1.65,0,0,1,442.17,120.13Zm13.95-5.74c1.84-.53,3.72-1,5.59-1.36a1.71,1.71,0,0,1,.68,3.36c-1.78.36-3.57.79-5.32,1.3a1.72,1.72,0,0,1-1.83-2.71A1.75,1.75,0,0,1,456.12,114.39ZM471,111.83c1.91-.12,3.85-.16,5.75-.11a1.72,1.72,0,0,1-.07,3.43c-1.82,0-3.66,0-5.47.1a1.71,1.71,0,0,1-1.82-1.61,1.69,1.69,0,0,1,.36-1.16A1.72,1.72,0,0,1,471,111.83Zm15.07.74c1.89.3,3.79.69,5.64,1.15a1.72,1.72,0,0,1-.83,3.33c-1.76-.44-3.56-.81-5.36-1.09a1.72,1.72,0,0,1-1.08-2.75A1.71,1.71,0,0,1,486.06,112.57Zm14.55,4c1.77.71,3.53,1.5,5.24,2.36a1.72,1.72,0,1,1-1.54,3.07c-1.62-.82-3.3-1.57-5-2.25a1.71,1.71,0,0,1-.95-2.23,1.58,1.58,0,0,1,.24-.42A1.69,1.69,0,0,1,500.61,116.61Zm13.29,7.12c1.16.8,2.31,1.64,3.42,2.5l1.19,1a1.72,1.72,0,0,1-2.17,2.66l-1.13-.9c-1.06-.82-2.15-1.62-3.25-2.38a1.71,1.71,0,0,1-.44-2.38l.06-.09A1.71,1.71,0,0,1,513.9,123.73Z" transform="translate(-78.62 -107.7)"/><path class="cls-3" d="M407,175.84a1.72,1.72,0,0,0-.36,1c-.05.92-.08,1.87-.08,2.81a1.72,1.72,0,0,0,3.43,0c0-.89,0-1.79.08-2.67a1.72,1.72,0,0,0-1.63-1.8A1.7,1.7,0,0,0,407,175.84Z" transform="translate(-78.62 -107.7)"/><path class="cls-7" d="M426.74,197.67a.8.8,0,0,0,.7.61l9.7,1.06a42.82,42.82,0,0,0,8,11.24l-2.21,9.5a.79.79,0,0,0,.35.86l9.91,6.23a.81.81,0,0,0,.93,0l7.61-6.12a42.43,42.43,0,0,0,13.58,2.31l5.15,8.29a.82.82,0,0,0,.86.36l11.42-2.6a.82.82,0,0,0,.62-.7l1.05-9.7a42.63,42.63,0,0,0,11.24-8l9.5,2.22a.8.8,0,0,0,.86-.36l6.23-9.91a.81.81,0,0,0-.05-.93l-6.12-7.6a42.48,42.48,0,0,0,2.31-13.58l8.29-5.15a.82.82,0,0,0,.36-.86l-2.6-11.42a.82.82,0,0,0-.7-.62l-9.7-1.05a42.47,42.47,0,0,0-8-11.24l2.22-9.5a.8.8,0,0,0-.36-.86L498,133.89a.8.8,0,0,0-.93.06l-7.6,6.11a42.46,42.46,0,0,0-13.58-2.3l-5.15-8.29a.8.8,0,0,0-.86-.36l-11.42,2.6a.81.81,0,0,0-.62.69l-1.05,9.71a42.66,42.66,0,0,0-11.24,8l-9.5-2.21a.79.79,0,0,0-.86.35l-6.23,9.91a.78.78,0,0,0,.05.93l6.11,7.6a42.52,42.52,0,0,0-2.3,13.59l-8.29,5.15a.8.8,0,0,0-.36.86Z" transform="translate(-78.62 -107.7)"/><path class="cls-5" d="M467.44,172a11.76,11.76,0,1,1-1.16,1.28A10.73,10.73,0,0,1,467.44,172Zm17.14,8.72a9,9,0,1,0-2.79,6.32,8.38,8.38,0,0,0,.9-1A8.89,8.89,0,0,0,484.58,180.74Z" transform="translate(-78.62 -107.7)"/><path class="cls-5" d="M453,162.66a29.46,29.46,0,0,0-1.71,2.43h0c-.17.27-.33.54-.49.81a29.05,29.05,0,0,0-2,4.17l0,.06-.06.17-.12.33a.68.68,0,0,0,.22.77.72.72,0,0,0,.19.11.69.69,0,0,0,.88-.41,28.36,28.36,0,0,1,2.58-5.28,27.59,27.59,0,0,1,38-8.66c.81.51,1.58,1.05,2.33,1.63a27.57,27.57,0,0,1-31.67,45,26.2,26.2,0,0,1-2.3-1.6,27.66,27.66,0,0,1-7.61-9.24.6.6,0,0,0-.19-.23.68.68,0,0,0-1,.85,28.86,28.86,0,0,0,8,9.7c.77.6,1.57,1.16,2.41,1.69a28.94,28.94,0,0,0,33.24-47.29,28,28,0,0,0-2.44-1.71A28.93,28.93,0,0,0,453,162.66Z" transform="translate(-78.62 -107.7)"/><path class="cls-3" d="M355.67,245.65a1.06,1.06,0,0,0,0,1.27c.52.73,1.08,1.45,1.65,2.15a1.06,1.06,0,0,0,1.64-1.34c-.54-.66-1.07-1.35-1.57-2a1.06,1.06,0,0,0-1.48-.24A1.1,1.1,0,0,0,355.67,245.65Z" transform="translate(-78.62 -107.7)"/><path class="cls-3" d="M361.09,251.72a1.06,1.06,0,0,1,1.5,0A44.34,44.34,0,0,0,366,254.6l.75.57a1.05,1.05,0,0,1,.21,1.48,1.09,1.09,0,0,1-1.48.21c-.26-.19-.53-.39-.78-.59a46.48,46.48,0,0,1-3.53-3,1.07,1.07,0,0,1-.1-1.42Zm10.11,6.4A43.26,43.26,0,0,0,376,260.5a1.06,1.06,0,0,1-.82,1.95,45.63,45.63,0,0,1-5.06-2.49,1.06,1.06,0,0,1-.4-1.45l.09-.13A1.06,1.06,0,0,1,371.2,258.12Zm9.91,4.14a42.54,42.54,0,0,0,5.27,1.12,1.06,1.06,0,1,1-.32,2.1,45.57,45.57,0,0,1-5.52-1.18,1,1,0,0,1-.73-1.3,1,1,0,0,1,.18-.37A1.05,1.05,0,0,1,381.11,262.26Zm10.63,1.58a42,42,0,0,0,5.38-.2,1.06,1.06,0,1,1,.21,2.11,44.25,44.25,0,0,1-5.64.21,1.06,1.06,0,0,1,.05-2.12Zm10.69-1.06a44.27,44.27,0,0,0,5.17-1.5,1.05,1.05,0,0,1,1.35.64,1.07,1.07,0,0,1-.64,1.36,45.88,45.88,0,0,1-5.41,1.57,1.06,1.06,0,0,1-1.27-.8,1.06,1.06,0,0,1,.8-1.27Zm10.11-3.62a43,43,0,0,0,4.64-2.72,1.07,1.07,0,0,1,1.47.29,1.05,1.05,0,0,1-.29,1.47,43,43,0,0,1-4.87,2.85,1.06,1.06,0,0,1-1.31-1.6A1.12,1.12,0,0,1,412.54,259.16Zm8.91-6a44.07,44.07,0,0,0,3.84-3.77,1.06,1.06,0,0,1,1.5-.08,1.08,1.08,0,0,1,.08,1.5,44.17,44.17,0,0,1-4,4,1,1,0,0,1-1.49-.1,1.07,1.07,0,0,1,0-1.35Zm11.42-13a1.08,1.08,0,0,1,.44,1.44,48.6,48.6,0,0,1-2.52,4.2l-.42.61a1.06,1.06,0,0,1-1.74-1.21c.13-.19.27-.38.4-.58a45.67,45.67,0,0,0,2.4-4,.91.91,0,0,1,.11-.16A1.06,1.06,0,0,1,432.87,240.14Z" transform="translate(-78.62 -107.7)"/><path class="cls-3" d="M357.13,191.55a44,44,0,0,1,3.72-4.12,1.06,1.06,0,0,1,1.48,1.52,45.48,45.48,0,0,0-3.55,3.92,1.06,1.06,0,0,1-1.66-1.31Zm-1.75,4.19a1.06,1.06,0,0,1,.34,1.46,44.37,44.37,0,0,0-2.51,4.66,1.06,1.06,0,0,1-1.93-.9,47.84,47.84,0,0,1,2.64-4.88L354,196A1.06,1.06,0,0,1,355.38,195.74Zm9.67-11.94a45.75,45.75,0,0,1,4.61-3.09,1.05,1.05,0,0,1,1.45.38,1.07,1.07,0,0,1-.38,1.45,41.68,41.68,0,0,0-4.4,3,1.06,1.06,0,0,1-1.48-1.5A1.21,1.21,0,0,1,365.05,183.8Zm-14.46,21.65a1.06,1.06,0,0,1,.68,1.34,43.18,43.18,0,0,0-1.31,5.12,1.06,1.06,0,0,1-1.24.84,1,1,0,0,1-.84-1.24,43.76,43.76,0,0,1,1.38-5.38,1.09,1.09,0,0,1,.17-.32A1.07,1.07,0,0,1,350.59,205.45Zm24-27.25a46.47,46.47,0,0,1,5.22-1.89,1.06,1.06,0,0,1,1.32.71,1.07,1.07,0,0,1-.72,1.32,43.35,43.35,0,0,0-5,1.81,1.07,1.07,0,0,1-1.4-.56,1.06,1.06,0,0,1,.14-1.07A1,1,0,0,1,374.6,178.2Zm10.63-3.14a46.4,46.4,0,0,1,5.51-.6,1.07,1.07,0,0,1,1.11,1,1.06,1.06,0,0,1-1,1.11,42.49,42.49,0,0,0-5.26.57,1.06,1.06,0,0,1-1.22-.87,1,1,0,0,1,.21-.83A1,1,0,0,1,385.23,175.06Zm11.07-.52a46.32,46.32,0,0,1,5.5.76,1.06,1.06,0,1,1-.42,2.07,43.7,43.7,0,0,0-5.24-.71,1.06,1.06,0,0,1-1-1.14,1.14,1.14,0,0,1,.22-.57A1.09,1.09,0,0,1,396.3,174.54Z" transform="translate(-78.62 -107.7)"/><path class="cls-3" d="M347.38,216.49a1.07,1.07,0,0,0-.23.58c-.06.9-.09,1.82-.1,2.71a1.07,1.07,0,0,0,1.05,1.07,1.06,1.06,0,0,0,1.07-1.06c0-.85,0-1.71.1-2.58a1.06,1.06,0,0,0-1.89-.72Z" transform="translate(-78.62 -107.7)"/><path class="cls-8" d="M360.46,231.85a.53.53,0,0,0,.46.42l6.5.7a28.15,28.15,0,0,0,5.33,7.52l-1.49,6.36a.56.56,0,0,0,.24.58l6.63,4.17a.54.54,0,0,0,.62,0l5.09-4.09a28.54,28.54,0,0,0,9.09,1.54l3.45,5.55a.54.54,0,0,0,.57.24l7.64-1.74a.56.56,0,0,0,.42-.47l.7-6.49a28.37,28.37,0,0,0,7.52-5.33l6.36,1.48a.52.52,0,0,0,.57-.23l4.18-6.64a.54.54,0,0,0,0-.62l-4.09-5.09a28.43,28.43,0,0,0,1.54-9.08l5.55-3.45a.55.55,0,0,0,.24-.58l-1.74-7.64a.53.53,0,0,0-.47-.41l-6.49-.7a28.65,28.65,0,0,0-5.33-7.53l1.48-6.35a.53.53,0,0,0-.24-.58l-6.63-4.17a.53.53,0,0,0-.62,0l-5.09,4.09a28.5,28.5,0,0,0-9.09-1.55l-3.44-5.54a.54.54,0,0,0-.58-.24l-7.64,1.74a.53.53,0,0,0-.41.46l-.71,6.5A28.54,28.54,0,0,0,373,200l-6.35-1.49a.55.55,0,0,0-.58.24l-4.17,6.63a.54.54,0,0,0,0,.63l4.09,5.08a28.55,28.55,0,0,0-1.55,9.09L359,223.64a.51.51,0,0,0-.24.57Z" transform="translate(-78.62 -107.7)"/><path class="cls-5" d="M387.59,214.59a7.94,7.94,0,1,1-.8.88A8.26,8.26,0,0,1,387.59,214.59Zm9.8,1.73a5.89,5.89,0,0,0-8.34-.2h0a5.92,5.92,0,0,0-1.82,4.13,5.83,5.83,0,0,0,1.63,4.21,5.9,5.9,0,1,0,8.53-8.14Z" transform="translate(-78.62 -107.7)"/><path class="cls-5" d="M377.56,208.08a16.46,16.46,0,0,0-1.17,1.66,20.58,20.58,0,0,0-1.81,3.64l-.06.17a1.06,1.06,0,0,0,.34,1.2,1.18,1.18,0,0,0,.29.16,1.06,1.06,0,0,0,1.36-.63,18,18,0,0,1,1.67-3.41h0l.12-.18a17.62,17.62,0,0,1,6.38-6,18.3,18.3,0,0,1,4.49-1.72h0l.12,0a17.7,17.7,0,0,1,13.46,2.29q.78.5,1.5,1.05a17.85,17.85,0,0,1-20.5,29.16,17.08,17.08,0,0,1-1.48-1,17.73,17.73,0,0,1-4.93-6,1,1,0,0,0-.29-.35A1.05,1.05,0,0,0,376,228a1.06,1.06,0,0,0-.47,1.42A19.93,19.93,0,0,0,381,236.1c.54.42,1.09.81,1.66,1.17a20,20,0,0,0,22.94-32.63c-.54-.42-1.1-.81-1.68-1.18A20,20,0,0,0,377.56,208.08Z" transform="translate(-78.62 -107.7)"/><path class="cls-9" d="M82.51,237.27l-3.57,15.59a12.57,12.57,0,0,0,5.6,13.47L95.32,273a10.52,10.52,0,0,1,4.9,8.39,112.48,112.48,0,0,0,4.27,25.22,10.49,10.49,0,0,1-1.87,9.54l-8,9.9a12.57,12.57,0,0,0-.87,14.56l8.5,13.55a12.57,12.57,0,0,0,13.48,5.57l12.39-2.88a10.52,10.52,0,0,1,9.41,2.47,111.39,111.39,0,0,0,20.84,14.83,10.49,10.49,0,0,1,5.41,8.07l1.35,12.63a12.58,12.58,0,0,0,9.69,10.9l15.59,3.58a12.59,12.59,0,0,0,13.47-5.6L210.62,393a10.47,10.47,0,0,1,8.38-4.9,111.83,111.83,0,0,0,25.22-4.28,10.55,10.55,0,0,1,9.55,1.88l9.89,8a12.57,12.57,0,0,0,14.56.86l13.56-8.5a12.56,12.56,0,0,0,5.56-13.48l-2.88-12.38a10.52,10.52,0,0,1,2.48-9.41,113,113,0,0,0,14.83-20.84,10.49,10.49,0,0,1,8.06-5.42l12.63-1.35a12.55,12.55,0,0,0,10.9-9.68l3.58-15.6a12.54,12.54,0,0,0-5.6-13.46l-10.78-6.72a10.5,10.5,0,0,1-4.9-8.39,112.48,112.48,0,0,0-4.27-25.22,10.5,10.5,0,0,1,1.87-9.54l8-9.9a12.57,12.57,0,0,0,.86-14.56l-8.49-13.55A12.58,12.58,0,0,0,310.12,191l-12.38,2.87a10.52,10.52,0,0,1-9.41-2.47,112.18,112.18,0,0,0-20.84-14.83,10.49,10.49,0,0,1-5.41-8.06l-1.36-12.63A12.57,12.57,0,0,0,251,144.94l-15.59-3.57A12.55,12.55,0,0,0,222,147l-6.72,10.78a10.53,10.53,0,0,1-8.38,4.9,112,112,0,0,0-25.23,4.27,10.5,10.5,0,0,1-9.54-1.87l-9.89-8a12.55,12.55,0,0,0-14.56-.87l-13.56,8.5a12.56,12.56,0,0,0-5.56,13.48l2.87,12.39a10.5,10.5,0,0,1-2.47,9.4,112.72,112.72,0,0,0-14.83,20.85,10.52,10.52,0,0,1-8.06,5.41l-12.63,1.35A12.57,12.57,0,0,0,82.51,237.27Zm42.24,8.26a93.1,93.1,0,1,1,58.35,118A93.09,93.09,0,0,1,124.75,245.53Z" transform="translate(-78.62 -107.7)"/><g class="cls-10"><path class="cls-11" d="M182,376.07s-42.17-87.14-6.91-175.23c0,0,45.66-11.46,108.3,23.75,0,0-38.38,51-25.63,140.91C257.77,365.5,202.54,385.22,182,376.07Z" transform="translate(-78.62 -107.7)"/></g><path class="cls-12" d="M234.39,165.89,216,199.76a7.3,7.3,0,0,0,2,9.33c5,3.78,13.47,8.26,22.66,5.16a9.94,9.94,0,0,0,6.27-6.47l9.25-29.68Z" transform="translate(-78.62 -107.7)"/><path class="cls-13" d="M157.25,356s-23.63-79.74,25.81-115.81l-8-39.38S92.64,256.76,147.3,353.3Z" transform="translate(-78.62 -107.7)"/><path class="cls-14" d="M147.3,353.3s.74,12.8,12.86,11.76c12.75-1.1,14,14.73,24.67,9a1.86,1.86,0,0,0,.93-2.16c-1.54-5.23-8.58-23.49-31.19-22.69Z" transform="translate(-78.62 -107.7)"/><path class="cls-15" d="M283.4,224.59s39.56,61.24,95.89,59.92l3.94,8s-75.1,23.84-121.72-34.93Z" transform="translate(-78.62 -107.7)"/><path class="cls-16" d="M378.74,289.52a5.42,5.42,0,0,1,3.73-8.34,5.61,5.61,0,0,1,.59-.06c6.59-.51,13.12-2.29,15.39-4.25A1.77,1.77,0,0,1,401,277c.8,1,.48,2.94-5.42,6.37,0,0,14.37,3.78,24.84-2.76,10.21-6.37-2.27,22.59-36.62,13.33a7.29,7.29,0,0,1-4.18-3.08Z" transform="translate(-78.62 -107.7)"/><path class="cls-17" d="M265,135.7s13.75,41.85-3.39,51-33.82-30.69-33.82-30.69S231,113.22,265,135.7Z" transform="translate(-78.62 -107.7)"/><path class="cls-18" d="M234.39,165.89c-.49.91-8.94,8.51-16.28-.07s-3.36-15.87,5.19-18.1c0,0-5.92-2.33-3-7.51a5.49,5.49,0,0,1,7.72-2.42s-3.71-32.94,24.74-29.89,25.55,19.51,24.07,24.54-13.89,13.5-30.09,7.94a7.14,7.14,0,0,1,.77,9.37c-3.56,5.47-14.78,9-14.78,9Z" transform="translate(-78.62 -107.7)"/><path class="cls-19" d="M240.51,165.65s-4.32-12.92-10.59-7.64c-8.07,6.81,7.54,12.25,7.54,12.25Z" transform="translate(-78.62 -107.7)"/><path class="cls-20" d="M296,439.88l-1,15.52a12.2,12.2,0,0,0,7.49,12l11.39,4.75a10.17,10.17,0,0,1,6,7.27A109.26,109.26,0,0,0,328,503a10.22,10.22,0,0,1-.3,9.45l-6.09,10.75A12.19,12.19,0,0,0,323,537.27l10.28,11.67a12.2,12.2,0,0,0,13.81,3.21l11.43-4.7a10.16,10.16,0,0,1,9.4.89,109.37,109.37,0,0,0,22.33,10.94,10.22,10.22,0,0,1,6.46,6.89l3.29,11.9A12.18,12.18,0,0,0,411,587l15.52,1a12.19,12.19,0,0,0,12-7.49l4.75-11.4a10.24,10.24,0,0,1,7.27-6A108.86,108.86,0,0,0,474.11,555a10.22,10.22,0,0,1,9.45.29l10.75,6.1a12.2,12.2,0,0,0,14.1-1.46l11.66-10.28a12.22,12.22,0,0,0,3.22-13.81l-4.71-11.43a10.24,10.24,0,0,1,.89-9.41,108.56,108.56,0,0,0,10.95-22.32,10.2,10.2,0,0,1,6.88-6.46l11.9-3.29a12.21,12.21,0,0,0,8.94-11l1-15.52a12.21,12.21,0,0,0-7.49-12l-11.39-4.75a10.18,10.18,0,0,1-6-7.27,109.26,109.26,0,0,0-8.07-23.52,10.22,10.22,0,0,1,.3-9.44l6.1-10.75a12.2,12.2,0,0,0-1.47-14.1l-10.28-11.67A12.23,12.23,0,0,0,507,359.67l-11.42,4.71a10.21,10.21,0,0,1-9.41-.9,109.12,109.12,0,0,0-22.33-10.94,10.2,10.2,0,0,1-6.46-6.88l-3.28-11.9a12.22,12.22,0,0,0-11-8.94l-15.52-1a12.21,12.21,0,0,0-12,7.49l-4.75,11.4a10.24,10.24,0,0,1-7.27,6A108.86,108.86,0,0,0,380,356.81a10.22,10.22,0,0,1-9.45-.29l-10.75-6.1a12.22,12.22,0,0,0-14.1,1.46L334,362.17A12.2,12.2,0,0,0,330.8,376l4.71,11.43a10.24,10.24,0,0,1-.89,9.41,109.42,109.42,0,0,0-10.95,22.33,10.2,10.2,0,0,1-6.88,6.46l-11.9,3.28A12.23,12.23,0,0,0,296,439.88Zm41.81,1.28a90.5,90.5,0,1,1,74.54,104A90.49,90.49,0,0,1,337.76,441.16Z" transform="translate(-78.62 -107.7)"/><g class="cls-21"><path class="cls-22" d="M388.9,358.8s-15.47-28.15,21.34-30.22c0,0,15.95-7.61,21.4,7.95,0,0,12.86,4,8.94,20,0,0,28.47-21.72,50.62,2.32S505,402.06,492.72,410c0,0,12.5,2.3,10.94,16.17s-25.19,30.2-45,19.66c0,0-42.27,18.6-50.43-12.71,0,0-24.29-7.26-10.28-39.17S388.9,358.8,388.9,358.8Z" transform="translate(-78.62 -107.7)"/><path class="cls-23" d="M340.9,464.7s10.29,33.94,39,33.38,31.92-56.73,31.92-56.73l15.8,53.8s-10.9,30.46-51.1,24.92-48.7-48.74-48.7-48.74-21.13,4.51-23.55-17.5a1.68,1.68,0,0,1,2.76-1.46c4.27,3.66,12.57,9.48,20.79,8C339.58,458.26,340.9,464.7,340.9,464.7Z" transform="translate(-78.62 -107.7)"/><path class="cls-24" d="M407.32,429.16c6.32-4.1,25.39-13.81,49.74-1.68a12.38,12.38,0,0,1,6.87,10.85c.37,20.48,3.08,80.52,22.07,101.32,0,0-14.28,29.29-42.65,17.28,0,0-23.33-41.85-42.54-57.61-13.26-10.89,0-55.36,3.47-66.18A7.36,7.36,0,0,1,407.32,429.16Z" transform="translate(-78.62 -107.7)"/><path class="cls-25" d="M415.48,385.87s18.69,26,23.18,38.59a22.83,22.83,0,0,1-23,2.85S406.08,398.68,403,394Z" transform="translate(-78.62 -107.7)"/><path class="cls-26" d="M389.74,350.48S373.85,395.81,393,402s30.53-26,30.53-26,.25-22.35-8.28-27.42S389.74,350.48,389.74,350.48Z" transform="translate(-78.62 -107.7)"/><path class="cls-27" d="M399.54,337.91s-11.47,6.5-11.57,12.57,20.59,5.66,26,4.35l10.88,21.23s6.65-24.88-2-35.63S399.54,337.91,399.54,337.91Z" transform="translate(-78.62 -107.7)"/><path class="cls-28" d="M417.57,374.81s6.92-15.12,13.36-8.45-5.38,16.53-11.19,14Z" transform="translate(-78.62 -107.7)"/><path class="cls-29" d="M260.56,441.35l90.66,34.31a2.21,2.21,0,0,0,2.12-.3l19.9-14.87a2.22,2.22,0,0,0-.28-3.74c-12.25-6.6-58.57-30.74-88.64-35.16a2.24,2.24,0,0,0-1.57.37L260.1,437.42A2.23,2.23,0,0,0,260.56,441.35Z" transform="translate(-78.62 -107.7)"/><path class="cls-30" d="M261.37,435.4l89.82,37.31a2.21,2.21,0,0,0,2.15-.24l20.84-14.77a2.23,2.23,0,0,0-.36-3.85c-14.91-6.72-72.51-32.54-88-36.94a2.22,2.22,0,0,0-1.78.25l-23,14.28A2.23,2.23,0,0,0,261.37,435.4Z" transform="translate(-78.62 -107.7)"/><path class="cls-31" d="M264.34,426.37l87.46,43.68a2.24,2.24,0,0,0,2.3-.18l20.11-14.39a2.23,2.23,0,0,0-.37-3.85l-87.95-39.91a2.23,2.23,0,0,0-2,.07l-19.63,10.62A2.23,2.23,0,0,0,264.34,426.37Z" transform="translate(-78.62 -107.7)"/><path class="cls-32" d="M322.25,464.7s7.18,3.18,9.45,1.79c5.9-3.59,17.25-9.14,24.13-7.27,9.54,2.58,23.2,19.32,37.72,31.11s47.7,16.62,60.23,1.16-12-47.65,2.86-57.05,28.75,39.55,27.41,51.25-14.53,45.47-58.22,40.2-68.92-50.42-68.92-50.42-12.46,1.5-19.49,1.06S322.25,464.7,322.25,464.7Z" transform="translate(-78.62 -107.7)"/></g></svg>