<svg id="Layer_1" data-name="Layer 1" xmlns="http://www.w3.org/2000/svg" xmlns:xlink="http://www.w3.org/1999/xlink" viewBox="0 0 601.6 472.35"><defs><style>.cls-1{fill:url(#linear-gradient);}.cls-2{opacity:0.3;}.cls-3{fill:#91b3fa;}.cls-4{fill:#bdd0fb;}.cls-5{fill:url(#linear-gradient-2);}.cls-6{fill:url(#linear-gradient-3);}.cls-7{opacity:0.6;}.cls-8{fill:url(#linear-gradient-4);}.cls-15,.cls-9{opacity:0.87;}.cls-10,.cls-11,.cls-15{fill:#fff;}.cls-11{fill-rule:evenodd;}.cls-12{fill:url(#linear-gradient-5);}.cls-13{opacity:0.89;}.cls-14{fill:url(#linear-gradient-6);}.cls-16{fill:url(#linear-gradient-7);}.cls-17{fill:url(#linear-gradient-8);}.cls-18{fill:url(#linear-gradient-9);}.cls-19{fill:url(#linear-gradient-10);}.cls-20{fill:url(#linear-gradient-11);}.cls-21{fill:url(#linear-gradient-12);}.cls-22{fill:url(#linear-gradient-13);}.cls-23{fill:url(#linear-gradient-14);}.cls-24{fill:url(#linear-gradient-15);}.cls-25{fill:url(#linear-gradient-16);}.cls-26{fill:url(#linear-gradient-17);}.cls-27{fill:url(#linear-gradient-18);}.cls-28{fill:url(#linear-gradient-19);}.cls-29{fill:url(#linear-gradient-20);}.cls-30{fill:#7d97f4;}</style><linearGradient id="linear-gradient" x1="25.77" y1="361.52" x2="627.47" y2="361.52" gradientTransform="translate(3.06 1.18) rotate(0.61)" gradientUnits="userSpaceOnUse"><stop offset="0" stop-color="#dae3fe"/><stop offset="1" stop-color="#e9effd"/></linearGradient><linearGradient id="linear-gradient-2" x1="347.47" y1="665.05" x2="329.14" y2="262.77" gradientUnits="userSpaceOnUse"><stop offset="0" stop-color="#4f52ff"/><stop offset="1" stop-color="#4042e2"/></linearGradient><linearGradient id="linear-gradient-3" x1="423.72" y1="181.03" x2="538.33" y2="-103.2" xlink:href="#linear-gradient-2"/><linearGradient id="linear-gradient-4" x1="241.76" y1="227.29" x2="325.84" y2="479.53" gradientUnits="userSpaceOnUse"><stop offset="0" stop-color="#f59960"/><stop offset="1" stop-color="#4F81BD"/></linearGradient><linearGradient id="linear-gradient-5" x1="108.27" y1="77.95" x2="184.97" y2="308.06" xlink:href="#linear-gradient-4"/><linearGradient id="linear-gradient-6" x1="182.56" y1="121.93" x2="222.1" y2="246.56" xlink:href="#linear-gradient-4"/><linearGradient id="linear-gradient-7" x1="164.12" y1="214.54" x2="200.33" y2="270.7" xlink:href="#linear-gradient-4"/><linearGradient id="linear-gradient-8" x1="250.21" y1="179.41" x2="309.17" y2="356.3" xlink:href="#linear-gradient-4"/><linearGradient id="linear-gradient-9" x1="363.74" y1="397.33" x2="315.61" y2="569.24" xlink:href="#linear-gradient-4"/><linearGradient id="linear-gradient-10" x1="354.29" y1="523.8" x2="421.45" y2="523.8" gradientUnits="userSpaceOnUse"><stop offset="0" stop-color="#febbba"/><stop offset="1" stop-color="#ff928e"/></linearGradient><linearGradient id="linear-gradient-11" x1="304.17" y1="380.65" x2="256.04" y2="552.56" xlink:href="#linear-gradient-4"/><linearGradient id="linear-gradient-12" x1="290.22" y1="424.69" x2="334.78" y2="424.69" xlink:href="#linear-gradient-10"/><linearGradient id="linear-gradient-13" x1="238.33" y1="362.21" x2="190.2" y2="534.13" xlink:href="#linear-gradient-4"/><linearGradient id="linear-gradient-14" x1="258.38" y1="367.83" x2="210.25" y2="539.74" gradientUnits="userSpaceOnUse"><stop offset="0" stop-color="#e1473d"/><stop offset="1" stop-color="#e9605a"/></linearGradient><linearGradient id="linear-gradient-15" x1="259.83" y1="524.61" x2="89.25" y2="821.04" xlink:href="#linear-gradient-10"/><linearGradient id="linear-gradient-16" x1="619.03" y1="-889.04" x2="563.33" y2="-815.36" gradientTransform="translate(-37.89 1389.97) rotate(-14.47)" xlink:href="#linear-gradient-10"/><linearGradient id="linear-gradient-17" x1="576.49" y1="-871.27" x2="643.02" y2="-871.27" gradientTransform="translate(-37.89 1389.97) rotate(-14.47)" gradientUnits="userSpaceOnUse"><stop offset="0" stop-color="#09005d"/><stop offset="1" stop-color="#1a0f91"/></linearGradient><linearGradient id="linear-gradient-18" x1="537.45" y1="-830.69" x2="582.13" y2="-876.52" gradientTransform="translate(-37.89 1389.97) rotate(-14.47)" xlink:href="#linear-gradient-10"/><linearGradient id="linear-gradient-19" x1="10260.54" y1="1161.68" x2="10173.19" y2="1185.62" gradientTransform="matrix(-1, -0.05, -0.05, 1, 10587.88, -132.34)" xlink:href="#linear-gradient-17"/><linearGradient id="linear-gradient-20" x1="10219.56" y1="464.65" x2="10157.58" y2="530.15" gradientTransform="matrix(-1, 0, 0, 1, 10620.05, 0)" xlink:href="#linear-gradient-17"/></defs><path class="cls-1" d="M609.4,390.61c-10.31-12.23-22.52-24.19-25.56-40.68-5.26-28.53,18.8-52.55,26.89-80.28,5.59-19.17,3-41.1-6.74-58s-26.59-28.39-44.47-30.42c-30.76-3.49-61.14,19.46-91.4,12.39C443.89,188,425,164,400.33,161.17c-29-3.31-53.34,23.29-81.15,33.11C285.92,206,250.13,193,217.7,178.78s-66.54-30.06-101-23.79c-38.3,7-70.75,44-76.32,87.08C34.9,284.76,77,319.52,40.31,370.45c-11.47,15.92-19.23,38.17-14.44,57.89,4.65,19.15,25.18,31.45,25.12,51.32-.05,15.68-13.36,28-14.59,43.64-1,13.41,7.42,25.91,17.93,32.38s22.76,8.16,34.68,9.73l-3.56,4.21c60,6.69,120.51,6,180.85,5.27l285.47-3.36c9.78-.11,19.8-.28,29-4.17s17.42-12.34,18.92-23.18c2.56-18.45-14.49-34.67-12.7-53.24,2.28-23.7,32.17-32.54,38.08-55.45C629.2,419.29,619.7,402.84,609.4,390.61Z" transform="translate(-24.43 -102.98)"/><g class="cls-2"><path class="cls-3" d="M494.42,207.44a2,2,0,0,1-1.35-2.49c.62-2.06,1.15-4.18,1.59-6.3a2,2,0,0,1,2.33-1.57h0a2,2,0,0,1,1.56,2.37c-.46,2.23-1,4.46-1.68,6.63a2,2,0,0,1-2.29,1.4Zm1.68-19.25c.14-2.15.2-4.34.16-6.49a2,2,0,1,1,4-.07c0,2.27,0,4.56-.17,6.83a2,2,0,0,1-2.14,1.87l-.24,0A2,2,0,0,1,496.1,188.19Zm-.75-17c-.34-2.13-.77-4.27-1.29-6.36a2,2,0,0,1,3.9-1c.54,2.21,1,4.46,1.35,6.71a2,2,0,0,1-1.67,2.29,1.94,1.94,0,0,1-.68,0A2,2,0,0,1,495.35,171.19Zm-4.53-16.41c-.8-2-1.71-4-2.68-5.92a2,2,0,1,1,3.58-1.8c1,2,2,4.12,2.82,6.23a2,2,0,0,1-1.11,2.61,2.06,2.06,0,0,1-1.12.11A2,2,0,0,1,490.82,154.78Zm-8.07-15c-1.23-1.78-2.55-3.52-3.92-5.18a2,2,0,1,1,3.09-2.56c1.45,1.75,2.83,3.59,4.12,5.45a2,2,0,0,1-.5,2.79,2,2,0,0,1-2.79-.5ZM471.56,127c-1.59-1.46-3.26-2.87-5-4.19a2,2,0,1,1,2.45-3.17c1.8,1.38,3.56,2.87,5.23,4.4a2,2,0,0,1-1.73,3.45A2.07,2.07,0,0,1,471.56,127ZM399.63,107.7a2,2,0,0,1,1.47-2.42c2.2-.54,4.46-1,6.7-1.35a2,2,0,0,1,.62,4c-2.13.33-4.27.76-6.37,1.27a2,2,0,0,1-2.42-1.47Zm58.19,9.24c-1.88-1.07-3.82-2.06-5.78-3a2,2,0,0,1,1.68-3.64c2.06,1,4.11,2,6.08,3.13a2,2,0,0,1-1.36,3.71A2.12,2.12,0,0,1,457.82,116.94ZM416.9,105a2,2,0,0,1,2-2c2.27,0,4.57,0,6.84.19a2,2,0,1,1-.28,4c-2.15-.15-4.34-.21-6.5-.18a1.8,1.8,0,0,1-.4,0A2,2,0,0,1,416.9,105Zm25.28,5.21c-2.06-.62-4.18-1.16-6.29-1.6a2,2,0,0,1,.78-3.94h0c2.22.47,4.45,1,6.62,1.69a2,2,0,0,1-.94,3.89Z" transform="translate(-24.43 -102.98)"/><path class="cls-3" d="M387.89,113.78a2.05,2.05,0,0,0,1.19-.14c.94-.43,1.91-.84,2.88-1.23a2,2,0,0,0-1.5-3.72c-1,.41-2,.84-3,1.29a2,2,0,0,0,.45,3.8Z" transform="translate(-24.43 -102.98)"/></g><g class="cls-2"><path class="cls-3" d="M346.32,158.61a2,2,0,0,0,2.25-1.3c.35-1,.73-1.95,1.12-2.91a2,2,0,1,0-3.72-1.51c-.41,1-.8,2-1.17,3.07a2,2,0,0,0,1.21,2.56A1.58,1.58,0,0,0,346.32,158.61Z" transform="translate(-24.43 -102.98)"/><path class="cls-3" d="M401.45,261a2,2,0,1,1,.93-3.9c2.05.49,4.16.9,6.28,1.23a2,2,0,1,1-.61,4c-.92-.14-1.83-.29-2.74-.46C404,261.55,402.72,261.28,401.45,261Zm15.52.17a2,2,0,0,1,2-2c2.12,0,4.27,0,6.39-.16a2,2,0,0,1,.27,4c-2.23.15-4.49.21-6.73.17a1.87,1.87,0,0,1-.34,0A2,2,0,0,1,417,261.14Zm-26-3.43c-2.08-.81-4.15-1.72-6.16-2.71a2,2,0,1,1,1.77-3.6c1.9.94,3.87,1.8,5.85,2.57a2,2,0,0,1-1.1,3.84A2.42,2.42,0,0,1,391,257.71ZM434.13,260a2,2,0,0,1,1.55-2.37c2.08-.43,4.16-1,6.2-1.56a2,2,0,1,1,1.14,3.84c-2.14.64-4.33,1.19-6.52,1.65a2,2,0,0,1-.78,0A2,2,0,0,1,434.13,260Zm-58.72-10.44c-1.85-1.25-3.67-2.6-5.41-4a2,2,0,1,1,2.51-3.12c1.66,1.33,3.39,2.61,5.14,3.79a2,2,0,0,1-2.24,3.33ZM362,238.12c-1.54-1.63-3-3.34-4.41-5.08a2,2,0,1,1,3.13-2.5c1.32,1.66,2.73,3.28,4.19,4.82a2,2,0,0,1-.08,2.84,2,2,0,0,1-1.75.51A1.94,1.94,0,0,1,362,238.12Zm-10.63-14.07c-1.15-1.92-2.23-3.91-3.2-5.92a2,2,0,1,1,3.6-1.75c.93,1.9,1.95,3.79,3,5.62a2,2,0,0,1-.69,2.75,2.06,2.06,0,0,1-1.4.25A2,2,0,0,1,351.35,224.05ZM344,208c-.7-2.12-1.31-4.3-1.83-6.47a2,2,0,1,1,3.9-.93c.49,2.07,1.08,4.14,1.74,6.16a2,2,0,0,1-1.28,2.53,2.12,2.12,0,0,1-1,.06A2,2,0,0,1,344,208Zm-3.61-17.27c-.21-2.22-.33-4.48-.35-6.71a2,2,0,1,1,4-.05c0,2.13.13,4.28.33,6.38a2,2,0,0,1-1.8,2.19,2.09,2.09,0,0,1-.56,0A2,2,0,0,1,340.43,190.73Zm.28-17.62c.2-1.63.46-3.28.76-4.89.11-.58.23-1.16.35-1.74a2,2,0,0,1,3.92.82l-.33,1.66c-.28,1.54-.53,3.1-.72,4.65a2,2,0,0,1-2.24,1.74l-.13,0A2,2,0,0,1,340.71,173.11Z" transform="translate(-24.43 -102.98)"/><path class="cls-3" d="M452.11,256.17a2.09,2.09,0,0,0,1.2-.14c1-.45,2-.93,3-1.43a2,2,0,1,0-1.81-3.58c-.93.47-1.88.93-2.81,1.35a2,2,0,0,0,.46,3.8Z" transform="translate(-24.43 -102.98)"/></g><path class="cls-3" d="M464.2,224a.92.92,0,0,0,.27-1.05l-4.11-10.65A49.53,49.53,0,0,0,467.77,198l11.05-2.79a1,1,0,0,0,.71-.83l1.15-13.64a.92.92,0,0,0-.55-.93l-10.42-4.62a49.79,49.79,0,0,0-4.89-15.34l5.85-9.79a1,1,0,0,0-.09-1.09l-8.82-10.46a1,1,0,0,0-1.06-.27l-10.64,4.11a49.75,49.75,0,0,0-14.29-7.4L433,123.89a.93.93,0,0,0-.82-.7L418.51,122a.93.93,0,0,0-.93.56L413,133a49.69,49.69,0,0,0-15.34,4.88l-9.8-5.84a.92.92,0,0,0-1.08.09L376.28,141a.93.93,0,0,0-.27,1l4.11,10.64a49.69,49.69,0,0,0-7.4,14.3l-11.06,2.79a.93.93,0,0,0-.7.83L359.8,184.2a1,1,0,0,0,.55.94l10.43,4.62a49.77,49.77,0,0,0,4.88,15.34l-5.84,9.79a1,1,0,0,0,.08,1.09l8.83,10.46a.94.94,0,0,0,1,.27l10.64-4.11a49.68,49.68,0,0,0,14.3,7.4l2.79,11.05a1,1,0,0,0,.83.71L422,242.92a.94.94,0,0,0,.94-.56l4.61-10.42a49.62,49.62,0,0,0,15.34-4.89l9.8,5.85a.93.93,0,0,0,1.08-.09Z" transform="translate(-24.43 -102.98)"/><path class="cls-4" d="M415.76,195.48a13.75,13.75,0,0,1-1.54-25.37,13.74,13.74,0,1,1,1.54,25.37ZM415.62,173a10.55,10.55,0,1,0,8.06-.49,11.59,11.59,0,0,0-1.51-.4A10.54,10.54,0,0,0,415.62,173Z" transform="translate(-24.43 -102.98)"/><path class="cls-4" d="M413.77,215.47c1.13.21,2.28.36,3.44.46h0c.37,0,.73.06,1.1.08a32.55,32.55,0,0,0,5.41-.15h.08l.2,0,.41-.05a.79.79,0,0,0,.68-.64.7.7,0,0,0,0-.25.81.81,0,0,0-.9-.7,32.65,32.65,0,0,1-6.85.15A32.25,32.25,0,0,1,388,179.51c.1-1.11.25-2.21.45-3.29a32.22,32.22,0,1,1,57.8,24.84,1,1,0,0,0-.14.32.81.81,0,0,0,.32.8.8.8,0,0,0,1.12-.18,33.78,33.78,0,0,0,5.79-13.5c.21-1.12.36-2.25.46-3.4a33.82,33.82,0,0,0-66.93-9.18c-.21,1.14-.37,2.29-.47,3.45a33.84,33.84,0,0,0,27.4,36.1Z" transform="translate(-24.43 -102.98)"/><g class="cls-2"><path class="cls-3" d="M552.12,272.07a1.23,1.23,0,0,0,1.33-.66c.48-.93.94-1.9,1.36-2.86a1.24,1.24,0,0,0-.64-1.63,1.23,1.23,0,0,0-1.63.64c-.4.92-.84,1.83-1.29,2.73a1.23,1.23,0,0,0,.54,1.66A1.1,1.1,0,0,0,552.12,272.07Z" transform="translate(-24.43 -102.98)"/><path class="cls-3" d="M555.53,263.19a1.25,1.25,0,0,1-.84-1.54c.49-1.66.9-3.36,1.22-5,.07-.36.13-.72.19-1.08a1.23,1.23,0,0,1,1.42-1,1.28,1.28,0,0,1,1,1.42c-.06.38-.13.76-.2,1.13a53.74,53.74,0,0,1-1.27,5.3,1.25,1.25,0,0,1-1.42.87Zm1.22-13.93a50.76,50.76,0,0,0-.12-6.29,1.24,1.24,0,0,1,2.47-.2,53.82,53.82,0,0,1,.13,6.6,1.24,1.24,0,0,1-1.3,1.18l-.17,0A1.23,1.23,0,0,1,556.75,249.26Zm-1-12.51a49.08,49.08,0,0,0-1.66-6.07,1.24,1.24,0,0,1,2.35-.8,54.41,54.41,0,0,1,1.74,6.36,1.26,1.26,0,0,1-1,1.47,1.29,1.29,0,0,1-.48,0A1.25,1.25,0,0,1,555.74,236.75Zm-4-11.89a51.62,51.62,0,0,0-3.1-5.47,1.24,1.24,0,1,1,2.08-1.35,53.86,53.86,0,0,1,3.24,5.74,1.24,1.24,0,0,1-.57,1.66,1.23,1.23,0,0,1-1.65-.58Zm-6.84-10.53a50.41,50.41,0,0,0-4.33-4.56,1.24,1.24,0,1,1,1.69-1.81,54,54,0,0,1,4.54,4.78,1.24,1.24,0,0,1-1.18,2A1.22,1.22,0,0,1,544.85,214.33Zm-9.18-8.56a50.52,50.52,0,0,0-5.31-3.36,1.24,1.24,0,0,1,1.2-2.17,51.14,51.14,0,0,1,5.56,3.53,1.23,1.23,0,0,1,.28,1.73,1.25,1.25,0,0,1-1.23.49A1.32,1.32,0,0,1,535.67,205.77Zm-11-6.05a49.7,49.7,0,0,0-6-1.95,1.24,1.24,0,0,1,.63-2.4,52,52,0,0,1,6.26,2,1.24,1.24,0,0,1-.68,2.37A.62.62,0,0,1,524.68,199.72ZM505,194.86a1.24,1.24,0,0,1,1.25-1.23A55.06,55.06,0,0,1,512,194l.86.11a1.23,1.23,0,0,1,1.06,1.39,1.24,1.24,0,0,1-1.39,1.07l-.82-.1a50,50,0,0,0-5.45-.35l-.22,0A1.24,1.24,0,0,1,505,194.86Z" transform="translate(-24.43 -102.98)"/></g><g class="cls-2"><path class="cls-3" d="M495.17,299.56a55.59,55.59,0,0,1-6.27-1.66,1.24,1.24,0,1,1,.78-2.35,53.12,53.12,0,0,0,6,1.58,1.24,1.24,0,0,1-.48,2.43Zm5.28-.44a1.24,1.24,0,0,1,1.34-1.13,51,51,0,0,0,6.18.11,1.24,1.24,0,0,1,.11,2.48,54,54,0,0,1-6.49-.13h-.13A1.24,1.24,0,0,1,500.45,299.12Zm-17.58-3.64a53,53,0,0,1-5.68-3.12,1.24,1.24,0,0,1,1.33-2.1,51.82,51.82,0,0,0,5.42,3,1.24,1.24,0,0,1-1.07,2.23Zm30.24,3.41a1.23,1.23,0,0,1,1-1.42,51.62,51.62,0,0,0,6-1.38,1.24,1.24,0,1,1,.7,2.37,52.73,52.73,0,0,1-6.33,1.45,1.55,1.55,0,0,1-.43,0A1.25,1.25,0,0,1,513.11,298.89Zm-41.17-10.33a52.11,52.11,0,0,1-4.76-4.4,1.23,1.23,0,1,1,1.78-1.71,53.25,53.25,0,0,0,4.55,4.2,1.24,1.24,0,0,1,.17,1.74,1.25,1.25,0,0,1-1.19.43A1.21,1.21,0,0,1,471.94,288.56Zm-9-9.34a52.23,52.23,0,0,1-3.57-5.42,1.23,1.23,0,1,1,2.14-1.23,51.7,51.7,0,0,0,3.41,5.16,1.24,1.24,0,0,1-.25,1.74,1.26,1.26,0,0,1-1,.22A1.19,1.19,0,0,1,463,279.22ZM456.51,268a55.61,55.61,0,0,1-2.17-6.12,1.25,1.25,0,0,1,.85-1.53,1.23,1.23,0,0,1,1.53.85,53.17,53.17,0,0,0,2.07,5.83,1.23,1.23,0,0,1-.65,1.62,1.26,1.26,0,0,1-.71.08A1.24,1.24,0,0,1,456.51,268Z" transform="translate(-24.43 -102.98)"/><path class="cls-3" d="M526.29,296.31a1.19,1.19,0,0,0,.72-.08c1-.42,1.94-.87,2.87-1.34a1.24,1.24,0,1,0-1.12-2.21c-.88.44-1.8.88-2.73,1.28a1.23,1.23,0,0,0,.26,2.35Z" transform="translate(-24.43 -102.98)"/></g><path class="cls-3" d="M535.24,274.49a.64.64,0,0,0,.18-.7l-2.75-7.12a33.33,33.33,0,0,0,5-9.57l7.4-1.87a.62.62,0,0,0,.47-.55l.77-9.12a.61.61,0,0,0-.37-.63l-7-3.09a33.29,33.29,0,0,0-3.27-10.26l3.91-6.56a.62.62,0,0,0-.06-.72l-5.9-7a.62.62,0,0,0-.71-.18l-7.12,2.75a33.43,33.43,0,0,0-9.56-5l-1.87-7.4a.66.66,0,0,0-.56-.47l-9.12-.77a.63.63,0,0,0-.63.37l-3.08,7a33.71,33.71,0,0,0-10.27,3.27L484.13,213a.63.63,0,0,0-.73.06l-7,5.9a.64.64,0,0,0-.18.71l2.75,7.12a33.08,33.08,0,0,0-5,9.57l-7.4,1.86a.63.63,0,0,0-.47.56l-.78,9.12a.64.64,0,0,0,.37.63l7,3.09A33.11,33.11,0,0,0,476,261.85l-3.91,6.56a.62.62,0,0,0,.05.72l5.91,7a.6.6,0,0,0,.7.18l7.12-2.75a33.35,33.35,0,0,0,9.57,5l1.87,7.39a.62.62,0,0,0,.55.47l9.13.78a.64.64,0,0,0,.62-.37l3.09-7A33.17,33.17,0,0,0,521,276.54l6.55,3.92a.65.65,0,0,0,.73-.06Z" transform="translate(-24.43 -102.98)"/><path class="cls-4" d="M502.76,255.57a9.38,9.38,0,0,1-5.8-11.91,9.37,9.37,0,1,1,7.15,12.27A11.23,11.23,0,0,1,502.76,255.57Zm-3.46-11.1a6.89,6.89,0,0,0,4.27,8.76h0a6.89,6.89,0,0,0,4.5-13,7.49,7.49,0,0,0-1-.26A6.91,6.91,0,0,0,499.3,244.47Z" transform="translate(-24.43 -102.98)"/><path class="cls-4" d="M501.38,269.48a22.52,22.52,0,0,0,2.35.32,23.56,23.56,0,0,0,4.75-.07l.21,0a1.23,1.23,0,0,0,1.06-1,1.26,1.26,0,0,0,0-.39,1.25,1.25,0,0,0-1.39-1.07,20.59,20.59,0,0,1-4.44.09h0l-.24,0a20.65,20.65,0,0,1-9.62-3.43,21.22,21.22,0,0,1-4.2-3.74l0,0-.09-.11a20.68,20.68,0,0,1-4.83-15.21,21.38,21.38,0,0,1,.28-2.13,20.86,20.86,0,1,1,37.42,16.08,1.16,1.16,0,0,0-.21.5,1.24,1.24,0,0,0,2.22.95,23.21,23.21,0,0,0,4-9.31,20.73,20.73,0,0,0,.32-2.35,23.33,23.33,0,0,0-46.17-6.33,20.94,20.94,0,0,0-.32,2.38A23.36,23.36,0,0,0,501.38,269.48Z" transform="translate(-24.43 -102.98)"/><path class="cls-5" d="M100.08,360.28a86.15,86.15,0,0,1,63.56-63.53,88.94,88.94,0,0,1,59.75,6,10.18,10.18,0,0,0,14.3-6.6A139.06,139.06,0,0,1,511.37,331c0,2,0,4.82-.08,7.49.27,5.74,2.78,8.18,6.52,8.79a61.57,61.57,0,0,1,55.05,58.53c1.5,35.13-27.08,64.23-62.24,64.23H185.41C129.74,470,86.15,418.29,100.08,360.28Z" transform="translate(-24.43 -102.98)"/><path class="cls-6" d="M125.27,372A76.92,76.92,0,0,1,182,315.31a79.47,79.47,0,0,1,53.36,5.35,9.1,9.1,0,0,0,12.77-5.89,124.16,124.16,0,0,1,244.36,31.1c0,1.82,0,4.31-.07,6.69.24,5.13,2.48,7.31,5.82,7.86a55,55,0,0,1,49.15,52.25C548.74,444,523.21,470,491.82,470H201.45C151.75,470,112.83,423.83,125.27,372Z" transform="translate(-24.43 -102.98)"/><path class="cls-4" d="M499.43,312.76a.87.87,0,0,1-.84-.67c-12.49-54.76-44.31-81.43-68.79-94.16-26.54-13.8-50.39-14.66-50.62-14.67a.86.86,0,0,1-.84-.88.87.87,0,0,1,.89-.84c.24,0,24.48.89,51.36,14.86a127.85,127.85,0,0,1,40.46,32.86c13.81,17,23.64,38,29.22,62.45a.86.86,0,0,1-.65,1Z" transform="translate(-24.43 -102.98)"/><g class="cls-7"><path class="cls-4" d="M405,532.91s115-186.06,58.69-240.52c-31.45-30.43-96.61-22.09-123.6,3.91V270.86a2.85,2.85,0,0,0-5.54-1l-19.48,54.38,45.07,16a2.85,2.85,0,0,0,3.15-4.51l-18.74-22.66s159.53-48.76-37.72,198.16Z" transform="translate(-24.43 -102.98)"/></g><path class="cls-8" d="M301.55,278.21l-62-3.22a8.42,8.42,0,0,0-9,8.79l1.61,57.05a8.36,8.36,0,0,0,9,8L300,345.9a8.08,8.08,0,0,0,7.4-7.93l1.44-51.1C309,282.32,305.74,278.43,301.55,278.21Z" transform="translate(-24.43 -102.98)"/><g class="cls-9"><path class="cls-10" d="M268.67,335.06A23.37,23.37,0,1,1,292,311.69,23.39,23.39,0,0,1,268.67,335.06Zm0-42.82a19.45,19.45,0,1,0,19.45,19.45A19.47,19.47,0,0,0,268.67,292.24Z" transform="translate(-24.43 -102.98)"/><path class="cls-11" d="M261.35,320.69v-16.8a2.31,2.31,0,0,1,3.49-2L279,310.3a2.32,2.32,0,0,1,0,4l-14.16,8.39A2.31,2.31,0,0,1,261.35,320.69Z" transform="translate(-24.43 -102.98)"/></g><path class="cls-12" d="M162.81,124.41l-56.59-3a7.69,7.69,0,0,0-8.18,8l1.46,52.05a7.63,7.63,0,0,0,8.17,7.28l53.74-2.65a7.4,7.4,0,0,0,6.76-7.24l1.31-46.62C169.59,128.15,166.63,124.61,162.81,124.41Z" transform="translate(-24.43 -102.98)"/><g class="cls-13"><path class="cls-10" d="M153.27,175.12H113.6a5.54,5.54,0,0,1-5.54-5.54v-28.9a5.55,5.55,0,0,1,5.54-5.54h39.67a5.54,5.54,0,0,1,5.53,5.54v28.9A5.54,5.54,0,0,1,153.27,175.12ZM113.6,139a1.69,1.69,0,0,0-1.69,1.69v28.9a1.69,1.69,0,0,0,1.69,1.7h39.67a1.7,1.7,0,0,0,1.69-1.7v-28.9a1.69,1.69,0,0,0-1.69-1.69Z" transform="translate(-24.43 -102.98)"/><path class="cls-10" d="M133.44,156.23a2,2,0,0,1-1.11-.35l-22.22-15.76a1.92,1.92,0,0,1,2.23-3.13l21.1,15,20.83-14.79a1.92,1.92,0,1,1,2.23,3.13l-21.94,15.59A2,2,0,0,1,133.44,156.23Z" transform="translate(-24.43 -102.98)"/><path class="cls-10" d="M111.52,174.24l-.56-3.81.26,1.91-1.61-1.05c.42-.68,8.43-14.68,13.71-23.93a1.92,1.92,0,0,1,3.34,1.91l-6.86,12-4.73,8.26C112.45,174.09,112.45,174.09,111.52,174.24Z" transform="translate(-24.43 -102.98)"/><path class="cls-10" d="M155.23,174.24c-.93-.15-.93-.15-3.54-4.7-1.3-2.26-3-5.26-4.73-8.26-3.44-6-6.86-12-6.86-12a1.92,1.92,0,0,1,3.33-1.91c5.28,9.25,13.29,23.25,13.71,23.93l-1.61,1.05Z" transform="translate(-24.43 -102.98)"/></g><path class="cls-14" d="M233,164.09l-54.39-2.83a7.4,7.4,0,0,0-7.87,7.71l1.41,50a7.34,7.34,0,0,0,7.85,7l51.66-2.55a7.1,7.1,0,0,0,6.49-7l1.26-44.81C239.5,167.69,236.65,164.28,233,164.09Z" transform="translate(-24.43 -102.98)"/><path class="cls-15" d="M209,173.47a1.38,1.38,0,0,0-1.85,1.31v25a11.76,11.76,0,0,0-7.46-2.53c-5.75,0-10.42,3.73-10.42,8.34s4.67,8.33,10.42,8.33,10.41-3.73,10.41-8.33c0,0,0-.08,0-.12h0V180.61c4.12.63,6.93,3.76,8.57,6.32a1.23,1.23,0,0,0,2.27-.74C220.48,178.45,212.62,174.77,209,173.47Z" transform="translate(-24.43 -102.98)"/><path class="cls-16" d="M217.74,236.29l-45.69-2.38a6.21,6.21,0,0,0-6.6,6.47l1.18,42a6.17,6.17,0,0,0,6.59,5.89l43.39-2.15a6,6,0,0,0,5.46-5.84l1.05-37.64A6,6,0,0,0,217.74,236.29Z" transform="translate(-24.43 -102.98)"/><g class="cls-9"><path class="cls-10" d="M209.66,279.23H176.89a6.58,6.58,0,0,1-6.58-6.57V251.05a6.58,6.58,0,0,1,6.58-6.57h32.77a6.58,6.58,0,0,1,6.58,6.57v21.61A6.58,6.58,0,0,1,209.66,279.23Zm-32.77-31.65a3.48,3.48,0,0,0-3.48,3.47v21.61a3.48,3.48,0,0,0,3.48,3.47h32.77a3.48,3.48,0,0,0,3.48-3.47V251.05a3.48,3.48,0,0,0-3.48-3.47Z" transform="translate(-24.43 -102.98)"/><path class="cls-10" d="M210,243.54a2.18,2.18,0,0,1-2.17,2.18h-5.58a2.19,2.19,0,0,1-2.18-2.18h0a2.18,2.18,0,0,1,2.18-2.17h5.58a2.17,2.17,0,0,1,2.17,2.17Z" transform="translate(-24.43 -102.98)"/><rect class="cls-10" x="174.43" y="148.94" width="9.31" height="3.72" rx="1.7"/><path class="cls-10" d="M189,272.41h-.78a9.86,9.86,0,0,1-9.85-9.85v-.79a9.86,9.86,0,0,1,9.85-9.85H189a9.86,9.86,0,0,1,9.85,9.85v.79A9.86,9.86,0,0,1,189,272.41ZM188.23,255a6.75,6.75,0,0,0-6.75,6.74v.79a6.75,6.75,0,0,0,6.75,6.74H189a6.75,6.75,0,0,0,6.75-6.74v-.79A6.75,6.75,0,0,0,189,255Z" transform="translate(-24.43 -102.98)"/></g><path class="cls-17" d="M292.14,215.12l-43.5-2.26a5.9,5.9,0,0,0-6.29,6.16l1.12,40a5.87,5.87,0,0,0,6.28,5.6l41.31-2a5.68,5.68,0,0,0,5.2-5.56l1-35.84A5.73,5.73,0,0,0,292.14,215.12Z" transform="translate(-24.43 -102.98)"/><g class="cls-13"><path class="cls-10" d="M286.44,220.27H255.69c-2.85,0-6.08,1.49-6.08,4.43v17.1c0,2.82,3.26,5.65,6.08,5.65h21.15c.73,0,1.14.86,1.14,1.59v2.52c0,1.05,1,1.43,1.54,1.6a2.11,2.11,0,0,0,1.18.43,1.46,1.46,0,0,0,1.11-.5l4.55-5.37c2.87-.07,4-3.1,4-5.92V224.7C290.39,221.9,289.24,220.27,286.44,220.27Zm1,21.53c0,1.33.07,2.7-1,2.7h-1.15l-5,5.52v-3.71c0-.73,0-1.81-.77-1.81H255.69c-1.31,0-3.71-1.39-3.71-2.7V225.4c0-1.91,2.38-2.18,3.71-2.18h30.75c1.3,0,1,.18,1,1.48Z" transform="translate(-24.43 -102.98)"/><rect class="cls-10" x="230.5" y="124.37" width="29.55" height="2.36" rx="1.03"/><rect class="cls-10" x="230.5" y="130.28" width="29.55" height="2.36" rx="1.03"/><rect class="cls-10" x="230.5" y="136.19" width="29.55" height="2.36" rx="1.03"/></g><path class="cls-18" d="M355.67,520.74c-25.48,1.53-17.54-39.17-17.08-40.78l-38.67,27.31S302,529,334.12,540.45a40,40,0,0,0,22.14,1.6A35.06,35.06,0,0,1,355.67,520.74Z" transform="translate(-24.43 -102.98)"/><path class="cls-19" d="M404.93,508.49c-9.5-6.6-20.25,0-20.25,0-12.69,8.3-22.09,11.83-29,12.25a35.06,35.06,0,0,0,.59,21.31c14.22-3.06,24.39-13.35,28.81-18.63a4.59,4.59,0,0,1,6.36-.69c2,1.56,3.89,3.7,3.54,5.95-.68,4.43,4.47,5.84,4.85,4.23s-1.76-11.14-1.76-11.14,10.3,10.35,14.32,14.33,9.07,0,9.07,0S414.42,515.09,404.93,508.49Z" transform="translate(-24.43 -102.98)"/><path class="cls-20" d="M236.88,417.1s37.06-14.84,106,42.11c0,0,5.76,11.92-.53,22.54s-66.17,62.33-74.4,91c0,0-35.68,11.59-72.57-15.9C195.42,556.86,198.67,477,236.88,417.1Z" transform="translate(-24.43 -102.98)"/><path class="cls-21" d="M310.15,403.86,291.9,426a7.24,7.24,0,0,0-.95,7.8c2.53,5.17,8.54,12.69,21.86,11.65a11.19,11.19,0,0,0,9.21-6.28l12.76-26.37Z" transform="translate(-24.43 -102.98)"/><path class="cls-22" d="M208.19,511.83c-4.31-17.52,39.27-56.59,39.27-56.59L236.88,417.1s-94.1,62.65-70.12,113c3.44,7.22,8,12.28,13.3,15.66C187.63,525.39,199.71,516,208.19,511.83Z" transform="translate(-24.43 -102.98)"/><path class="cls-23" d="M208.16,509.28a1,1,0,0,1-1-.79c-4.4-17.91,37.79-56,39.59-57.59a1,1,0,0,1,1.37,1.53c-.43.39-43.07,38.85-39,55.57a1,1,0,0,1-.76,1.25Z" transform="translate(-24.43 -102.98)"/><path class="cls-24" d="M274.19,510.32s-51.67,20.06-64.28,5a8.48,8.48,0,0,1-1.72-3.46c-8.48,4.21-20.56,13.56-28.13,34,27.17,17.37,73.62-9.66,86.18-17.63a9.37,9.37,0,0,1,6.94-1.27c4.85,1,13.21,2.48,17.73,1.79,6.6-1,16.08,22.27,26.79,15.09C317.7,543.77,308.53,503.28,274.19,510.32Z" transform="translate(-24.43 -102.98)"/><path class="cls-25" d="M349.85,371.37c.18.71-4.28,49.06-4.28,49.06L318,417.3l-2.58-46.45S346.77,359.47,349.85,371.37Z" transform="translate(-24.43 -102.98)"/><path class="cls-26" d="M322.61,380.47,322.06,405a3.24,3.24,0,0,0,.1.93c.48,1.87,2.6,8.17,8.92,5.61,5.73-2.33,11-4.36,14.87-3.63a3.43,3.43,0,0,1,2.78,3.69A146.81,146.81,0,0,1,345,434.34a3.43,3.43,0,0,1-3.91,2.47c-5.26-.93-16.3-3.2-24.76-7.1a3.44,3.44,0,0,1-2-2.89c-.41-6.14-1.74-24.79-2.91-29.93-1.1-4.83-7.42-7.1-10.14-7.86a3.36,3.36,0,0,1-2.07-1.67c-1.54-2.89-4-9.71,4.53-13.54a3.44,3.44,0,0,0,1.68-4.66c-1.71-3.49-2.87-9,3.62-12.79s12.18-.74,15.31,2a3.43,3.43,0,0,0,4.4,0,2.69,2.69,0,0,1,3.08-.24,3.38,3.38,0,0,0,4.6-2c1.29-3.59,4.27-7.62,11.19-7.2,12.27.74,15.1,13.94,12.78,22.12s-15.58,6.61-22.5,3.38c-5.26-2.46-11.32,1.38-13.92,3.37A3.44,3.44,0,0,0,322.61,380.47Z" transform="translate(-24.43 -102.98)"/><path class="cls-27" d="M311.27,405.83s3.43-14.41-2-17.25-12.81-.25-10.05,9.62C302.63,410.47,311.27,405.83,311.27,405.83Z" transform="translate(-24.43 -102.98)"/><path class="cls-28" d="M300.66,549.88h.25l108.41-.12a4.86,4.86,0,0,0,0-9.71l-108.41.12a4.85,4.85,0,0,0-.24,9.7Z" transform="translate(-24.43 -102.98)"/><path class="cls-29" d="M506.78,451.45H416.5a17.21,17.21,0,0,0-15.57,9.87l-41.74,88.5h112.2a10.46,10.46,0,0,0,9.73-6.61l32.37-81.9A7.21,7.21,0,0,0,506.78,451.45Z" transform="translate(-24.43 -102.98)"/><ellipse class="cls-30" cx="449.94" cy="499.01" rx="11.56" ry="7.11" transform="translate(-187.35 671.44) rotate(-72.16)"/><path class="cls-30" d="M115.54,556.83a5.7,5.7,0,0,1,.81-4,3.6,3.6,0,0,1,3-1.75H508.41a4.3,4.3,0,0,1,3.73,2.55,6.71,6.71,0,0,1,.29,5.31l-4.21,11.41c-1,2.61-3.06,4.29-5.36,4.29H122c-2.14,0-4-1.9-4.39-4.53Z" transform="translate(-24.43 -102.98)"/></svg>