<svg id="Layer_1" data-name="Layer 1" xmlns="http://www.w3.org/2000/svg" xmlns:xlink="http://www.w3.org/1999/xlink" viewBox="0 0 590.35 367.27"><defs><style>.cls-1{fill:url(#linear-gradient);}.cls-2{fill:#91b3fa;}.cls-3{fill:#bdd0fb;}.cls-4{fill:url(#linear-gradient-2);}.cls-5{fill:url(#linear-gradient-3);}.cls-6{fill:url(#linear-gradient-4);}.cls-7{fill:#3d3638;}.cls-8{fill:#4F81BD;}.cls-9{opacity:0.51;}.cls-10{fill:#fff;}.cls-11{fill:#f59960;}.cls-12{fill:#232c38;}.cls-13{fill:#7d97f4;}.cls-14{fill:#5a85d1;}.cls-15{fill:url(#linear-gradient-5);}.cls-16{fill:url(#linear-gradient-6);}.cls-17{fill:url(#linear-gradient-7);}.cls-18{opacity:0.64;}.cls-19{fill:url(#linear-gradient-8);}.cls-20{fill:url(#linear-gradient-9);}.cls-21{fill:url(#linear-gradient-10);}.cls-22{fill:url(#linear-gradient-11);}.cls-23{fill:url(#linear-gradient-12);}.cls-24{fill:url(#linear-gradient-13);}.cls-25{fill:url(#linear-gradient-14);}.cls-26{fill:url(#linear-gradient-15);}.cls-27{fill:url(#linear-gradient-16);}.cls-28{fill:url(#linear-gradient-17);}.cls-29{fill:url(#linear-gradient-18);}.cls-30{fill:url(#linear-gradient-19);}.cls-31{fill:url(#linear-gradient-20);}.cls-32{fill:url(#linear-gradient-21);}.cls-33{fill:#f8a570;}.cls-34{fill:url(#linear-gradient-22);}.cls-35{fill:url(#linear-gradient-23);}.cls-36{fill:url(#linear-gradient-24);}.cls-37{fill:url(#linear-gradient-25);}.cls-38{fill:url(#linear-gradient-26);}.cls-39{fill:url(#linear-gradient-27);}.cls-40{fill:url(#linear-gradient-28);}.cls-41{fill:url(#linear-gradient-29);}.cls-42{fill:url(#linear-gradient-30);}.cls-43{fill:url(#linear-gradient-31);}.cls-44{fill:url(#linear-gradient-32);}.cls-45{fill:url(#linear-gradient-33);}</style><linearGradient id="linear-gradient" x1="49.61" y1="317.73" x2="622.22" y2="317.73" gradientUnits="userSpaceOnUse"><stop offset="0" stop-color="#dae3fe"/><stop offset="1" stop-color="#e9effd"/></linearGradient><linearGradient id="linear-gradient-2" x1="530.86" y1="329.36" x2="599.22" y2="329.36" xlink:href="#linear-gradient"/><linearGradient id="linear-gradient-3" x1="91.94" y1="243.85" x2="169.07" y2="243.85" xlink:href="#linear-gradient"/><linearGradient id="linear-gradient-4" x1="79.58" y1="375.21" x2="135.66" y2="375.21" xlink:href="#linear-gradient"/><linearGradient id="linear-gradient-5" x1="176.58" y1="337.21" x2="144.73" y2="386.03" gradientUnits="userSpaceOnUse"><stop offset="0" stop-color="#4042e2"/><stop offset="1" stop-color="#4f52ff"/></linearGradient><linearGradient id="linear-gradient-6" x1="191.81" y1="347.14" x2="159.96" y2="395.96" xlink:href="#linear-gradient-5"/><linearGradient id="linear-gradient-7" x1="207.78" y1="357.56" x2="175.93" y2="406.38" xlink:href="#linear-gradient-5"/><linearGradient id="linear-gradient-8" x1="-6760.41" y1="476.69" x2="-6758.71" y2="444.32" gradientTransform="matrix(-1, 0, 0, 1, -6527.46, 0)" xlink:href="#linear-gradient-5"/><linearGradient id="linear-gradient-9" x1="-6769.61" y1="507.91" x2="-6755.19" y2="507.91" gradientTransform="matrix(-1, 0, 0, 1, -6527.46, 0)" gradientUnits="userSpaceOnUse"><stop offset="0" stop-color="#09005d"/><stop offset="1" stop-color="#1a0f91"/></linearGradient><linearGradient id="linear-gradient-10" x1="-6768.23" y1="503.85" x2="-6764.06" y2="503.85" gradientTransform="matrix(-1, 0, 0, 1, -6527.46, 0)" gradientUnits="userSpaceOnUse"><stop offset="0" stop-color="#ff928e"/><stop offset="1" stop-color="#feb3b1"/></linearGradient><linearGradient id="linear-gradient-11" x1="-6791.19" y1="475.08" x2="-6789.49" y2="442.7" gradientTransform="matrix(-1, 0, 0, 1, -6527.46, 0)" xlink:href="#linear-gradient-5"/><linearGradient id="linear-gradient-12" x1="-6796.04" y1="508.84" x2="-6787.69" y2="508.84" xlink:href="#linear-gradient-9"/><linearGradient id="linear-gradient-13" x1="-6791.7" y1="501.67" x2="-6786.71" y2="501.67" xlink:href="#linear-gradient-10"/><linearGradient id="linear-gradient-14" x1="-6751.31" y1="447.8" x2="-6793.94" y2="517.62" gradientTransform="matrix(-1, 0, 0, 1, -6527.46, 0)" xlink:href="#linear-gradient-5"/><linearGradient id="linear-gradient-15" x1="245.7" y1="444.31" x2="236.83" y2="455.01" xlink:href="#linear-gradient-5"/><linearGradient id="linear-gradient-16" x1="-6723.03" y1="396.51" x2="-6742.8" y2="422.23" xlink:href="#linear-gradient-10"/><linearGradient id="linear-gradient-17" x1="216.82" y1="415.36" x2="181.44" y2="425.94" gradientTransform="matrix(1, 0, 0, 1, 0, 0)" xlink:href="#linear-gradient-9"/><linearGradient id="linear-gradient-18" x1="237.66" y1="393.3" x2="238.31" y2="413.67" gradientTransform="matrix(1, 0, 0, 1, 0, 0)" xlink:href="#linear-gradient-10"/><linearGradient id="linear-gradient-19" x1="-6757.83" y1="319.06" x2="-6759.53" y2="337.46" xlink:href="#linear-gradient-10"/><linearGradient id="linear-gradient-20" x1="-6769.94" y1="384.82" x2="-6758.44" y2="399.62" xlink:href="#linear-gradient-9"/><linearGradient id="linear-gradient-21" x1="-6761.85" y1="318.69" x2="-6763.55" y2="337.09" xlink:href="#linear-gradient-10"/><linearGradient id="linear-gradient-22" x1="-6757.88" y1="425.46" x2="-6764.97" y2="436.08" xlink:href="#linear-gradient-10"/><linearGradient id="linear-gradient-23" x1="244.56" y1="427.17" x2="237.62" y2="437.58" gradientTransform="matrix(1, 0, 0, 1, 0, 0)" xlink:href="#linear-gradient-10"/><linearGradient id="linear-gradient-24" x1="229.39" y1="437.55" x2="206.24" y2="468.19" xlink:href="#linear-gradient-5"/><linearGradient id="linear-gradient-25" x1="113.53" y1="398.67" x2="108.7" y2="421.39" gradientTransform="matrix(1, 0, 0, 1, 0, 0)" xlink:href="#linear-gradient-10"/><linearGradient id="linear-gradient-26" x1="108.62" y1="384.98" x2="116.45" y2="400.51" gradientTransform="matrix(1, 0, 0, 1, 0, 0)" xlink:href="#linear-gradient-10"/><linearGradient id="linear-gradient-27" x1="116.47" y1="376.65" x2="88.53" y2="442.96" gradientTransform="matrix(1, 0, 0, 1, 0, 0)" xlink:href="#linear-gradient-9"/><linearGradient id="linear-gradient-28" x1="104.21" y1="387.2" x2="112.04" y2="402.74" gradientTransform="matrix(1, 0, 0, 1, 0, 0)" xlink:href="#linear-gradient-10"/><linearGradient id="linear-gradient-29" x1="131.39" y1="480.28" x2="86.88" y2="497.64" gradientTransform="matrix(1, 0, 0, 1, 0, 0)" xlink:href="#linear-gradient-10"/><linearGradient id="linear-gradient-30" x1="121.34" y1="488.95" x2="95.23" y2="513.75" gradientTransform="matrix(1, 0, 0, 1, 0, 0)" xlink:href="#linear-gradient-9"/><linearGradient id="linear-gradient-31" x1="133.04" y1="476.8" x2="112.42" y2="488.55" gradientTransform="matrix(1, 0, 0, 1, 0, 0)" xlink:href="#linear-gradient-10"/><linearGradient id="linear-gradient-32" x1="114.35" y1="481.29" x2="113.04" y2="493.17" gradientTransform="matrix(1, 0, 0, 1, 0, 0)" xlink:href="#linear-gradient-9"/><linearGradient id="linear-gradient-33" x1="118.54" y1="419.64" x2="107.7" y2="423.81" gradientTransform="matrix(1, 0, 0, 1, 0, 0)" xlink:href="#linear-gradient-10"/></defs><path class="cls-1" d="M331,485.2s-194.43,2.1-248.58-45S48.61,346.11,90.07,332.8s48.54-27.14,26.23-45.8-50.65-57-3.6-95.48,100.74,16.8,142.79,9.46,25.4-32.08,80.7-15,43.11-32.65,87.57-37.15,39.91,51.72,85.64,30.49S592.53,161,612.19,194.74s11.12,79.11-32,106.17-38.5,25.21-22.38,51.8,30.57,114-42.81,126.51S331,485.2,331,485.2Z" transform="translate(-43.11 -148.57)"/><path class="cls-2" d="M629.51,200.85c-11.76,4.2-38.71,4-73.2,2.72-42.26-1.57-51.23,31.55-42.78,54.56,6,16.2,13.87,30.32,22.1,53.38l4.68-2.32c-3.31-14.42-4.49-23.27.75-33.56,6-11.8,8.67-1.42,46.31-12.37,29.24-8.5,41.82-43.58,46-58.82A3,3,0,0,0,629.51,200.85Z" transform="translate(-43.11 -148.57)"/><path class="cls-3" d="M535.74,301.11c-.88-1.32-1.65-2.64-2.41-4s-1.46-2.72-2.14-4.11a79.05,79.05,0,0,1-3.62-8.53,58.43,58.43,0,0,1-3.62-18.2,39,39,0,0,1,.92-9.32,31.91,31.91,0,0,1,3.39-8.78,35.2,35.2,0,0,1,5.79-7.38c1.12-1.06,2.22-2.14,3.4-3.14.58-.51,1.14-1,1.75-1.51l1.81-1.46a67.69,67.69,0,0,1,7.69-5.19,56.44,56.44,0,0,1,8.42-3.91,61.55,61.55,0,0,1,8.92-2.51c3-.61,6.08-1,9.12-1.36,6.1-.65,12.2-1,18.21-1.95A79.26,79.26,0,0,0,611,215.11h0a.35.35,0,0,1,.47.2.36.36,0,0,1-.2.46,80,80,0,0,1-17.69,5c-6.06,1-12.19,1.46-18.23,2.18-3,.36-6,.81-9,1.44a60.53,60.53,0,0,0-8.69,2.54,55.85,55.85,0,0,0-8.15,3.89A69.81,69.81,0,0,0,542,236l-1.75,1.45c-.59.47-1.13,1-1.7,1.5-1.14,1-2.21,2.06-3.3,3.11a33.84,33.84,0,0,0-5.45,7,29.66,29.66,0,0,0-3.16,8.29,36.67,36.67,0,0,0-.84,8.87,56.53,56.53,0,0,0,3.48,17.62,84.84,84.84,0,0,0,3.48,8.37q1,2,2.07,4c.73,1.31,1.49,2.64,2.29,3.88v0a.86.86,0,0,1-1.43.94Z" transform="translate(-43.11 -148.57)"/><path class="cls-3" d="M535.36,421.57a.3.3,0,0,1-.56-.22,86.94,86.94,0,0,0,1.36-34.6c-3.37-21.29-24.31-71.36,15.4-84.81,35-11.85,56-15.8,65.2-23.75a2.14,2.14,0,0,1,3.55,1.47c.84,12.85.91,47-20.63,57.64C573,350.51,544.85,341.83,537,352.72,529.4,363.29,547.63,399,535.36,421.57Z" transform="translate(-43.11 -148.57)"/><path class="cls-4" d="M531.87,361.1c-.39-2.31-.63-4.59-.79-6.89s-.24-4.61-.22-6.92a71.38,71.38,0,0,1,1.39-13.8,53.51,53.51,0,0,1,1.84-6.75,45,45,0,0,1,2.88-6.42,35.34,35.34,0,0,1,4.11-5.79c.41-.43.84-.85,1.25-1.27.22-.21.41-.44.64-.63l.68-.58.68-.58a7.36,7.36,0,0,1,.7-.55l1.46-1,.36-.25.39-.23L548,309a14,14,0,0,1,1.57-.85l1.62-.75c.27-.13.55-.23.82-.33l.83-.31a39.87,39.87,0,0,1,6.8-1.81,69.41,69.41,0,0,1,13.85-.63c2.27.05,4.53.09,6.77-.06a33.45,33.45,0,0,0,6.6-1,29.37,29.37,0,0,0,6.22-2.45,40.82,40.82,0,0,0,5.66-3.71.3.3,0,0,1,.41,0,.31.31,0,0,1,0,.4,32.48,32.48,0,0,1-11.86,7.07,34.87,34.87,0,0,1-6.86,1.36c-2.31.23-4.63.27-6.91.3s-4.56,0-6.8.13a50.54,50.54,0,0,0-6.64.76,39.11,39.11,0,0,0-6.39,1.8l-.78.3c-.26.1-.51.2-.76.32l-1.49.69c-.5.21-1,.53-1.43.79l-.71.41-.35.21-.33.23-1.33,1a5.11,5.11,0,0,0-.64.51l-.62.53-.62.53c-.21.18-.39.39-.58.58l-1.14,1.17a34.49,34.49,0,0,0-3.82,5.36,40.57,40.57,0,0,0-2.73,6,52,52,0,0,0-1.84,6.43c-.14.54-.22,1.09-.33,1.64s-.22,1.1-.3,1.66-.18,1.1-.26,1.66l-.21,1.67c-.26,2.24-.41,4.48-.5,6.74a89.54,89.54,0,0,0,.52,13.51v0a.77.77,0,0,1-.68.86A.79.79,0,0,1,531.87,361.1Z" transform="translate(-43.11 -148.57)"/><path class="cls-3" d="M167,332.5s-3.08-40.56-22.79-49.52S88.4,270.77,81.28,212.81c-4.17-33.93-6.5-48.72-7.71-55.14a3.86,3.86,0,0,1,4.12-4.56c18,1.57,76.67,9.53,92.59,47.47C189.16,245.54,167,332.5,167,332.5Z" transform="translate(-43.11 -148.57)"/><path class="cls-5" d="M92.84,168.06c11.67,8.86,22,19.24,31.69,30.21,2.36,2.79,4.75,5.56,7,8.46l1.7,2.15.85,1.08.82,1.1,3.26,4.41.82,1.11.77,1.13L141.3,220l1.55,2.27.78,1.13.74,1.15c1.95,3.1,4,6.13,5.79,9.36.48.79.9,1.61,1.34,2.42s.88,1.62,1.3,2.44l1.22,2.47.61,1.24.57,1.26,1.15,2.51,1.06,2.55c.36.84.71,1.69,1,2.56l1,2.58a151.33,151.33,0,0,1,6,21.19,173.82,173.82,0,0,1,3.13,21.76c.28,3.66.45,7.32.49,11s0,7.32-.32,11a1,1,0,0,1-2-.13v0c.08-1.77.09-3.59.08-5.39s0-3.61-.13-5.42c-.14-3.61-.41-7.21-.78-10.8a176.71,176.71,0,0,0-3.42-21.37A163.54,163.54,0,0,0,156.45,255a137,137,0,0,0-9-19.56c-1.75-3.12-3.74-6.16-5.64-9.23l-.72-1.15-.76-1.12-1.51-2.25-1.52-2.25-.76-1.12-.79-1.11c-4.15-5.92-8.6-11.63-13.18-17.24s-9.47-11-14.53-16.15A207.77,207.77,0,0,0,92.16,169l0,0a.56.56,0,0,1,.7-.87Z" transform="translate(-43.11 -148.57)"/><path class="cls-2" d="M164.61,439.92c2.72,1.65-23.8-38.4-28-98-2-28.1,1-62.84-13.63-77.6-12.18-12.28-57.51-9.15-72.37-7.75a2.2,2.2,0,0,0-1.36,3.75c6.5,6.5,20.3,21.71,23,36.06,3.55,18.92,20.08,32.19,35.52,36.74s23.91,8.39,29.38,34.19S156.87,435.25,164.61,439.92Z" transform="translate(-43.11 -148.57)"/><path class="cls-3" d="M70.5,266.2a71.82,71.82,0,0,1,26.68,9.29,56.21,56.21,0,0,1,11.29,8.74,48.69,48.69,0,0,1,8.5,11.54l.82,1.6c.27.53.49,1.09.73,1.64s.49,1.1.71,1.65l.64,1.64c.87,2.19,1.72,4.38,2.55,6.59q2.51,6.6,4.8,13.28c3.06,8.9,5.85,17.9,8.09,27.06a.41.41,0,0,1-.3.49.4.4,0,0,1-.48-.28h0q-2-6.72-4.33-13.39t-4.67-13.27l-2.44-6.61-2.51-6.57c-.83-2.19-1.69-4.38-2.56-6.56l-.64-1.63c-.22-.55-.46-1.06-.69-1.59s-.44-1.07-.7-1.58l-.78-1.54a48.07,48.07,0,0,0-8.07-11.15A52.5,52.5,0,0,0,102,280.9l-.67-.55-.7-.52c-.47-.34-.92-.7-1.4-1-1-.65-1.9-1.32-2.89-1.92a71.53,71.53,0,0,0-12.49-6.19,73.9,73.9,0,0,0-13.44-3.84h0a.33.33,0,0,1-.26-.38A.33.33,0,0,1,70.5,266.2Z" transform="translate(-43.11 -148.57)"/><path class="cls-3" d="M152.06,436.08c1.56.6-10.12-15.09-12.57-29.81s-8.67-39.62-23.16-53.28-28.65-13.45-44.7,2.31c-13.37,13.14-21.87,20-27.12,21.65a2.05,2.05,0,0,0-1,3.12c4.17,5.95,15.58,19.41,31.82,16.52,20.71-3.7,44.45-20.15,53.45-9.71s8.73,16.87,9.58,22.21S141.73,432.05,152.06,436.08Z" transform="translate(-43.11 -148.57)"/><path class="cls-6" d="M79.67,372.82A41.52,41.52,0,0,1,83,369.34a46.77,46.77,0,0,1,3.6-3.14,39.51,39.51,0,0,1,8.18-5.07,27.15,27.15,0,0,1,4.62-1.61,20.23,20.23,0,0,1,4.91-.58c.42,0,.84,0,1.25.05s.84.08,1.24.15l2.39.45,2.36.62,2.3.8a27.54,27.54,0,0,1,8.29,5.09,34.22,34.22,0,0,1,6.18,7.42l.65,1c.22.34.39.7.59,1,.38.71.79,1.4,1.15,2.11l1,2.16c.35.71.62,1.47.92,2.2a83,83,0,0,1,3,9,.34.34,0,0,1-.65.21h0c-1.09-2.95-2.15-5.91-3.5-8.73-.63-1.43-1.38-2.8-2.09-4.18-.37-.69-.78-1.35-1.17-2-.21-.33-.38-.67-.61-1l-.65-1a35.49,35.49,0,0,0-6.07-6.91,26.91,26.91,0,0,0-7.81-4.65l-2.16-.74-2.22-.57-2.27-.42c-.37-.06-.73-.08-1.1-.13s-.74,0-1.11-.06a18.14,18.14,0,0,0-4.45.5,25.83,25.83,0,0,0-4.34,1.4,43.22,43.22,0,0,0-8,4.55c-1.27.91-2.52,1.84-3.72,2.84s-2.38,2-3.5,3.11h0a.36.36,0,0,1-.51,0A.35.35,0,0,1,79.67,372.82Z" transform="translate(-43.11 -148.57)"/><path class="cls-7" d="M535.7,470.94a7.27,7.27,0,0,1-7.25,7.25H136.05a7.28,7.28,0,0,1-7.26-7.25l-3.27-225.51c0-4,4.7-11.77,13.31-11.18l383.5-9.93A18.29,18.29,0,0,1,541.09,243Z" transform="translate(-43.11 -148.57)"/><path class="cls-8" d="M528.54,464a6.89,6.89,0,0,1-6.86,6.87H145.51a6.89,6.89,0,0,1-6.87-6.87l-3.08-204.71c.37-12.32,11.17-16.75,17.71-16.49l367.55-9.86A12.87,12.87,0,0,1,534,246.07Z" transform="translate(-43.11 -148.57)"/><g class="cls-9"><path class="cls-10" d="M142.71,366.26a.53.53,0,0,1-.54-.53l-.25-16.6a.55.55,0,0,1,1.09,0l.24,16.6a.54.54,0,0,1-.53.55Z" transform="translate(-43.11 -148.57)"/><path class="cls-10" d="M142.11,325.58a.55.55,0,0,1-.54-.53l-.93-63.59c0-4.24,1.32-7.63,3.88-10.08,4.66-4.46,11.94-4.24,12.25-4.23L274.15,244a.53.53,0,0,1,.55.53.53.53,0,0,1-.53.55l-117.4,3.15c-.33,0-7.17-.22-11.5,3.93-2.34,2.24-3.53,5.37-3.55,9.3l.93,63.57a.54.54,0,0,1-.53.55Z" transform="translate(-43.11 -148.57)"/></g><path class="cls-11" d="M155.22,452.63c.39-16.92.24-166.75-.73-179.69s19.18-15.37,50.13-16.83,292-7.22,298.72-7.76c15.11-1.23,18.24,21.35,16.73,70.38-1.14,36.83-3,97.51-3.89,125.42a15.4,15.4,0,0,1-15.36,14.92c-62.82.17-303.6.86-319.63,1.34C162.74,461,155.06,459.33,155.22,452.63Z" transform="translate(-43.11 -148.57)"/><rect class="cls-12" x="61.8" y="328.52" width="462.63" height="19.81" rx="9.91"/><path class="cls-13" d="M203.38,281.39,225,305.1c-13.55,10.22-22,30.28.63,54.14L195.17,374C173.79,336.59,176.82,307,203.38,281.39Z" transform="translate(-43.11 -148.57)"/><path class="cls-14" d="M190.62,365.42l21,.34,3.77-20.7c11.54,23.71,38.82,33.61,70,23.5l15.76,29.3C256.15,418.39,210.56,407.86,190.62,365.42Z" transform="translate(-43.11 -148.57)"/><path class="cls-14" d="M366.85,334.1c17-33.67,62-46.09,94.32-27.65L494,295.6c-38.28-51.05-107.83-41.37-151,9.66Z" transform="translate(-43.11 -148.57)"/><path class="cls-13" d="M442.45,369.74l13.9,32.48c50.74-21.13,66.09-92.68,20.28-124.21l.34,21.05-21.56,4.48C487.16,318.6,473,361.29,442.45,369.74Z" transform="translate(-43.11 -148.57)"/><path class="cls-14" d="M351.89,378.93C400,413.5,442,418,475.55,390.54l-23.61-8.39,6.57-21c-29.43,20.43-56.78,13.78-83-7.13Z" transform="translate(-43.11 -148.57)"/><path class="cls-14" d="M203.38,281.39v22.77l21.66.94c14.05-9.11,34.38-8.38,60-.19l14.88-33C261,255.27,229.11,259.25,203.38,281.39Z" transform="translate(-43.11 -148.57)"/><path class="cls-2" d="M285,304.91l-12.16-25.34,27-7.64a145.67,145.67,0,0,1,43,33.33c12.43,27.39,29.5,50.76,50.85,60.74l-28,.3,4.32,24.44a223.13,223.13,0,0,1-30.89-22l-21-37.41C310.8,320.19,300.57,311.12,285,304.91Z" transform="translate(-43.11 -148.57)"/><path class="cls-3" d="M342.92,305.26c-8.23,8.79-13.62,21.77-21.35,31-12.34,14.7-27.72,33.69-55.48,36.16l22.66,11.73-13.49,22.12c45.27-9,76.94-38.52,91.59-72.16V301.73Z" transform="translate(-43.11 -148.57)"/><path class="cls-13" d="M465.34,440.41a.55.55,0,0,1-.27.12.46.46,0,0,1-.5-.42c-.06-.62-.1-1.25-.13-1.86a.47.47,0,0,1,.44-.49.46.46,0,0,1,.48.44c0,.61.08,1.22.13,1.83A.47.47,0,0,1,465.34,440.41Z" transform="translate(-43.11 -148.57)"/><path class="cls-13" d="M542.71,397.24a.45.45,0,0,1-.58,0c-1-.75-2-1.46-3.11-2.13a.46.46,0,1,1,.5-.78c1.07.68,2.14,1.41,3.16,2.17a.45.45,0,0,1,.09.64S542.73,397.22,542.71,397.24Zm-8.55-5.09a.47.47,0,0,1-.51.08c-1.13-.53-2.3-1-3.47-1.45a.46.46,0,0,1,.32-.86c1.2.44,2.39.93,3.54,1.47a.47.47,0,0,1,.23.61A.58.58,0,0,1,534.16,392.15Zm-9.42-3.24a.45.45,0,0,1-.42.11c-1.22-.28-2.46-.52-3.69-.71a.47.47,0,0,1-.39-.53.48.48,0,0,1,.53-.39c1.26.2,2.52.44,3.76.73a.47.47,0,0,1,.35.56A.43.43,0,0,1,524.74,388.91ZM465.31,432.4a.44.44,0,0,1-.35.11.46.46,0,0,1-.42-.49c.1-1.27.25-2.55.45-3.81a.46.46,0,0,1,.53-.38.46.46,0,0,1,.38.53c-.19,1.23-.34,2.49-.44,3.73A.51.51,0,0,1,465.31,432.4Zm49.55-44.75a.44.44,0,0,1-.32.12c-1.24,0-2.51,0-3.76.06a.47.47,0,0,1-.48-.44.46.46,0,0,1,.43-.49c1.28-.07,2.56-.09,3.84,0a.45.45,0,0,1,.29.8Zm-47.75,35a.44.44,0,0,1-.44.1.46.46,0,0,1-.31-.57c.35-1.22.76-2.45,1.21-3.64a.47.47,0,1,1,.87.33c-.44,1.17-.85,2.37-1.2,3.57A.38.38,0,0,1,467.11,422.6Zm37.83-34.16a.57.57,0,0,1-.22.11c-1.23.22-2.46.5-3.67.83a.48.48,0,0,1-.57-.33.47.47,0,0,1,.33-.57c1.23-.33,2.49-.61,3.74-.84a.46.46,0,0,1,.39.8Zm-34.09,24.94a.46.46,0,0,1-.71-.56c.6-1.13,1.24-2.24,1.93-3.32a.46.46,0,1,1,.78.5c-.67,1.05-1.31,2.15-1.9,3.25A.41.41,0,0,1,470.85,413.38Zm24.54-22.14a.57.57,0,0,1-.13.08c-1.16.48-2.31,1-3.43,1.56a.46.46,0,0,1-.41-.83c1.13-.57,2.31-1.1,3.49-1.58a.46.46,0,0,1,.48.77Zm-8.78,4.68-.05,0c-1,.7-2.06,1.45-3,2.22a.46.46,0,0,1-.65-.07.47.47,0,0,1,.07-.65c1-.79,2-1.55,3.1-2.26a.46.46,0,0,1,.57.72Zm-10.2,9.19a.46.46,0,0,1-.61,0,.47.47,0,0,1-.06-.65c.82-1,1.69-1.93,2.58-2.84a.46.46,0,0,1,.65,0,.47.47,0,0,1,0,.65c-.88.9-1.73,1.84-2.53,2.8Z" transform="translate(-43.11 -148.57)"/><path class="cls-13" d="M548.73,402.56a.47.47,0,0,1-.64,0c-.42-.43-.85-.87-1.29-1.29a.47.47,0,0,1,0-.66.48.48,0,0,1,.65,0c.45.43.89.88,1.32,1.32a.47.47,0,0,1,0,.66Z" transform="translate(-43.11 -148.57)"/><path class="cls-13" d="M562.25,437.94a.48.48,0,0,1-.33.12.46.46,0,0,1-.44-.48c0-.61,0-1.23,0-1.83a.47.47,0,0,1,.93,0c0,.61,0,1.24,0,1.86A.45.45,0,0,1,562.25,437.94Z" transform="translate(-43.11 -148.57)"/><path class="cls-13" d="M546.28,472.22l-.31.28a.46.46,0,0,1-.65,0,.47.47,0,0,1,0-.65h0l.3-.27c.81-.74,1.61-1.5,2.37-2.29a.46.46,0,0,1,.65,0,.45.45,0,0,1,0,.65C547.92,470.69,547.11,471.48,546.28,472.22Zm-5.09,4-.05,0c-1,.71-2.11,1.39-3.19,2a.47.47,0,0,1-.63-.17.46.46,0,0,1,.17-.63c1.06-.62,2.11-1.28,3.13-2a.46.46,0,0,1,.57.72Zm11.42-10.94a.48.48,0,0,1-.59,0,.47.47,0,0,1-.09-.65c.74-1,1.44-2,2.1-3.05a.46.46,0,1,1,.78.5c-.67,1.05-1.39,2.1-2.14,3.1Zm-20,15.65a.41.41,0,0,1-.13.08c-1.15.49-2.34.94-3.53,1.33a.46.46,0,0,1-.29-.87c1.16-.39,2.33-.83,3.46-1.31a.47.47,0,0,1,.61.24A.47.47,0,0,1,532.59,480.94Zm25.06-24.05a.46.46,0,0,1-.73-.54c.52-1.11,1-2.26,1.45-3.41a.46.46,0,0,1,.59-.27.47.47,0,0,1,.27.6c-.45,1.17-.94,2.34-1.47,3.47A.42.42,0,0,1,557.65,456.89Zm-34.42,26.93a.42.42,0,0,1-.22.11c-1.22.25-2.48.45-3.72.6a.47.47,0,0,1-.52-.4.46.46,0,0,1,.41-.52c1.22-.15,2.45-.34,3.65-.58a.45.45,0,0,1,.54.36A.43.43,0,0,1,523.23,483.82Zm37.67-36.17a.48.48,0,0,1-.42.1.47.47,0,0,1-.34-.56c.3-1.19.54-2.41.74-3.63a.46.46,0,0,1,.53-.38.46.46,0,0,1,.38.53c-.2,1.24-.45,2.48-.75,3.7A.42.42,0,0,1,560.9,447.65Zm-47.42,37.11a.43.43,0,0,1-.31.12c-1.25,0-2.52-.06-3.77-.17a.46.46,0,0,1,.08-.92c1.23.11,2.47.16,3.7.17a.47.47,0,0,1,.46.46A.46.46,0,0,1,513.48,484.76Zm-9.74-1a.47.47,0,0,1-.4.11c-1-.21-1.94-.44-2.89-.71l-.77-.21a.46.46,0,1,1,.26-.89l.75.21c.94.26,1.89.49,2.84.69a.47.47,0,0,1,.36.55A.58.58,0,0,1,503.74,483.72Zm-9.34-3a.44.44,0,0,1-.49.08c-1.15-.5-2.29-1-3.4-1.63a.46.46,0,0,1-.2-.62.47.47,0,0,1,.63-.2c1.09.58,2.21,1.12,3.34,1.6a.47.47,0,0,1,.24.61A.48.48,0,0,1,494.4,480.75ZM485.85,476a.47.47,0,0,1-.57,0c-1-.72-2-1.49-3-2.29a.46.46,0,0,1-.06-.65.47.47,0,0,1,.65-.06c.95.78,1.94,1.54,2.95,2.24a.46.46,0,0,1,.11.64A.27.27,0,0,1,485.85,476Z" transform="translate(-43.11 -148.57)"/><path class="cls-13" d="M478.43,469.55a.47.47,0,0,1-.65,0c-.42-.45-.84-.92-1.25-1.39a.48.48,0,0,1,0-.65.45.45,0,0,1,.65.05c.4.46.82.91,1.23,1.35a.45.45,0,0,1,0,.65Z" transform="translate(-43.11 -148.57)"/><path class="cls-13" d="M482.47,456.69a.58.58,0,0,0,.61.3l7-1.08a30.77,30.77,0,0,0,7.7,6.39l.23,7.08a.58.58,0,0,0,.41.54l8.13,2.51a.57.57,0,0,0,.64-.21l4.19-5.72a31,31,0,0,0,10-.93l5.18,4.84a.59.59,0,0,0,.67.1l7.52-4a.57.57,0,0,0,.3-.6l-1.08-7a30.77,30.77,0,0,0,6.39-7.7l7.08-.23a.59.59,0,0,0,.54-.41l2.51-8.13a.58.58,0,0,0-.21-.64l-5.72-4.19a30.79,30.79,0,0,0-.94-10l4.85-5.17a.58.58,0,0,0,.09-.67l-4-7.52a.58.58,0,0,0-.6-.31l-7,1.09a31,31,0,0,0-7.7-6.39l-.23-7.09a.6.6,0,0,0-.42-.54l-8.12-2.51a.6.6,0,0,0-.65.22l-4.18,5.72a30.78,30.78,0,0,0-10,.93l-5.17-4.85a.59.59,0,0,0-.67-.09l-7.53,4a.58.58,0,0,0-.3.61l1.09,7a30.77,30.77,0,0,0-6.39,7.7l-7.09.23a.59.59,0,0,0-.54.41l-2.51,8.13a.57.57,0,0,0,.22.64l5.72,4.19a30.7,30.7,0,0,0,.93,10l-4.85,5.18a.58.58,0,0,0-.09.67Z" transform="translate(-43.11 -148.57)"/><path class="cls-2" d="M519,441.61h0a8.27,8.27,0,1,1,2.71-5.7A8.19,8.19,0,0,1,519,441.62Zm-10.12-11.22a6.86,6.86,0,0,0,9.19,10.2h0a6.86,6.86,0,0,0-9.18-10.19Z" transform="translate(-43.11 -148.57)"/><path class="cls-2" d="M527.91,451.12a21.25,21.25,0,0,1-20.5,4.55,21.54,21.54,0,0,1-4.15-1.78l.67-1.21a20.6,20.6,0,0,0,3.89,1.66,19.84,19.84,0,0,0,21.72-7l0,0,0,0a19.84,19.84,0,1,0-35.2-7.12l-1.35.33a21.22,21.22,0,0,1,26.88-25.31,21,21,0,0,1,9.47,6,20.7,20.7,0,0,1,3,4.34,21.19,21.19,0,0,1-4.52,25.64Z" transform="translate(-43.11 -148.57)"/><path class="cls-13" d="M592.65,389.71a.32.32,0,0,1-.13-.23c0-.36,0-.73-.07-1.09a.27.27,0,0,1,.25-.3.29.29,0,0,1,.3.25c0,.37.06.74.07,1.12a.28.28,0,0,1-.26.29A.42.42,0,0,1,592.65,389.71Z" transform="translate(-43.11 -148.57)"/><path class="cls-13" d="M552.36,413.55c-.55-.34-1.1-.7-1.62-1.07a.28.28,0,0,1-.06-.39.27.27,0,0,1,.38-.06c.61.43,1.23.84,1.87,1.22h0a.28.28,0,0,1,.09.38.28.28,0,0,1-.38.1Zm3.57,1.83a.28.28,0,0,1,.25-.49c.68.28,1.39.54,2.1.77a.28.28,0,0,1,.17.35.26.26,0,0,1-.34.18c-.73-.24-1.45-.5-2.15-.79Zm5.68,1.67a.28.28,0,0,1-.13-.29.27.27,0,0,1,.32-.22c.73.13,1.48.23,2.22.29a.29.29,0,0,1,.25.3.27.27,0,0,1-.3.25c-.76-.06-1.52-.17-2.26-.3A.29.29,0,0,1,561.61,417.05Zm5.91.37a.26.26,0,0,1-.13-.22.27.27,0,0,1,.26-.29c.74,0,1.49-.11,2.22-.21a.28.28,0,1,1,.08.55c-.75.1-1.52.17-2.27.21A.27.27,0,0,1,567.52,417.42Zm5.84-1a.25.25,0,0,1-.12-.16.26.26,0,0,1,.19-.34c.71-.2,1.43-.44,2.12-.7a.28.28,0,0,1,.2.52c-.71.27-1.44.5-2.17.71A.28.28,0,0,1,573.36,416.46Zm5.48-2.23a.36.36,0,0,1-.1-.11.28.28,0,0,1,.11-.37c.66-.36,1.3-.74,1.92-1.15a.27.27,0,0,1,.38.08.27.27,0,0,1-.07.38c-.64.42-1.29.81-2,1.17A.28.28,0,0,1,578.84,414.23Zm4.86-3.39a.2.2,0,0,1-.07-.06.27.27,0,0,1,0-.39c.56-.49,1.1-1,1.61-1.54a.28.28,0,0,1,.4,0,.27.27,0,0,1,0,.39c-.52.55-1.08,1.08-1.65,1.58A.27.27,0,0,1,583.7,410.84Zm4-4.39h0a.27.27,0,0,1-.06-.38c.38-.54.75-1.09,1.09-1.65l.14-.22a.28.28,0,0,1,.38-.1h0a.28.28,0,0,1,.09.38,1.76,1.76,0,0,1-.14.23c-.34.57-.72,1.14-1.11,1.68A.27.27,0,0,1,587.68,406.45Zm2.9-5.16a.28.28,0,0,1-.11-.34c.29-.68.55-1.39.78-2.1a.28.28,0,0,1,.35-.17.26.26,0,0,1,.18.34c-.24.73-.51,1.45-.8,2.14a.27.27,0,0,1-.36.15Zm1.69-5.67a.28.28,0,0,1-.13-.29c.13-.73.23-1.48.3-2.22a.28.28,0,0,1,.3-.25.29.29,0,0,1,.25.31c-.07.75-.17,1.51-.31,2.26a.27.27,0,0,1-.32.22Z" transform="translate(-43.11 -148.57)"/><path class="cls-13" d="M547.92,410.14l0,0-.79-.79a.28.28,0,0,1,.4-.38c.25.26.51.52.78.77a.28.28,0,0,1,0,.39A.29.29,0,0,1,547.92,410.14Z" transform="translate(-43.11 -148.57)"/><path class="cls-13" d="M539.7,391.08a.26.26,0,0,1-.13-.23c0-.37,0-.75,0-1.12a.29.29,0,0,1,.29-.27.28.28,0,0,1,.26.29c0,.36,0,.73,0,1.09a.27.27,0,0,1-.27.28A.28.28,0,0,1,539.7,391.08Z" transform="translate(-43.11 -148.57)"/><path class="cls-13" d="M540.11,386.38a.26.26,0,0,1-.13-.28c.13-.73.29-1.47.48-2.2a.28.28,0,0,1,.54.15c-.19.7-.35,1.43-.48,2.15a.27.27,0,0,1-.32.22Zm1.63-5.59a.26.26,0,0,1-.11-.34c.28-.69.6-1.38.94-2a.28.28,0,0,1,.5.25c-.34.65-.65,1.32-.93,2a.28.28,0,0,1-.36.15Zm2.81-5.1v0a.26.26,0,0,1-.07-.38c.43-.61.89-1.21,1.37-1.78a.28.28,0,1,1,.42.36c-.47.56-.92,1.14-1.34,1.74A.28.28,0,0,1,544.55,375.69Zm3.87-4.36s0,0-.06-.06a.26.26,0,0,1,0-.39c.55-.5,1.13-1,1.72-1.43a.28.28,0,0,1,.39.05.27.27,0,0,1,0,.39c-.58.44-1.15.91-1.69,1.4A.27.27,0,0,1,548.42,371.33Zm4.72-3.41a.28.28,0,0,1-.09-.1.27.27,0,0,1,.1-.38c.65-.37,1.32-.71,2-1a.28.28,0,1,1,.23.51c-.66.3-1.32.64-2,1A.28.28,0,0,1,553.14,367.92Zm5.35-2.3a.4.4,0,0,1-.12-.16.28.28,0,0,1,.19-.34c.71-.22,1.44-.41,2.17-.57a.28.28,0,0,1,.33.21.28.28,0,0,1-.21.33c-.71.16-1.43.34-2.13.56A.31.31,0,0,1,558.49,365.62Zm5.73-1.08a.25.25,0,0,1-.13-.21.28.28,0,0,1,.25-.3c.75,0,1.5-.08,2.25-.07a.28.28,0,0,1,.27.28.27.27,0,0,1-.28.27c-.73,0-1.47,0-2.2.07A.23.23,0,0,1,564.22,364.54Zm5.82.22a.29.29,0,0,1-.13-.28.27.27,0,0,1,.32-.23c.73.1,1.47.25,2.2.42a.28.28,0,0,1,.21.33.29.29,0,0,1-.33.21c-.72-.17-1.45-.31-2.17-.42Zm5.64,1.47a.27.27,0,0,1-.12-.33.27.27,0,0,1,.36-.16,22.06,22.06,0,0,1,2.06.89.27.27,0,0,1,.13.37.29.29,0,0,1-.37.13c-.65-.32-1.33-.61-2-.88Zm7,4,0,0c-.58-.46-1.17-.89-1.78-1.3a.27.27,0,0,1-.08-.38.27.27,0,0,1,.38-.08c.63.42,1.24.86,1.82,1.32a.28.28,0,0,1-.31.46Z" transform="translate(-43.11 -148.57)"/><path class="cls-13" d="M586.08,373.47l-.06-.06c-.24-.27-.49-.54-.74-.8a.28.28,0,0,1,.4-.39c.25.27.51.55.75.83a.28.28,0,0,1,0,.39A.29.29,0,0,1,586.08,373.47Z" transform="translate(-43.11 -148.57)"/><path class="cls-13" d="M583.19,379.32a.31.31,0,0,0-.33-.16l-3.83.6a16.75,16.75,0,0,0-4.21-3.48l-.13-3.86a.33.33,0,0,0-.23-.3L570,370.76a.33.33,0,0,0-.35.12L567.4,374a16.7,16.7,0,0,0-5.43.52l-2.83-2.64a.34.34,0,0,0-.37-.05l-4.1,2.18a.32.32,0,0,0-.16.33l.6,3.82a16.93,16.93,0,0,0-3.48,4.21l-3.86.14a.3.3,0,0,0-.29.22l-1.36,4.44a.32.32,0,0,0,.12.35l3.12,2.27a17,17,0,0,0,.52,5.44l-2.64,2.83a.3.3,0,0,0,0,.36l2.17,4.1a.33.33,0,0,0,.33.17l3.82-.61a16.89,16.89,0,0,0,4.21,3.48l.14,3.86a.31.31,0,0,0,.22.3l4.44,1.36a.32.32,0,0,0,.35-.12l2.28-3.13a16.73,16.73,0,0,0,5.43-.52l2.83,2.64a.34.34,0,0,0,.37.05l4.09-2.18a.32.32,0,0,0,.17-.33l-.6-3.82a16.68,16.68,0,0,0,3.47-4.21l3.87-.13a.33.33,0,0,0,.29-.23l1.36-4.44a.32.32,0,0,0-.12-.35l-3.12-2.27a17,17,0,0,0-.52-5.44l2.63-2.83a.29.29,0,0,0,.05-.36Z" transform="translate(-43.11 -148.57)"/><path class="cls-2" d="M563.92,394.8a4.17,4.17,0,0,1-1-.83,4.53,4.53,0,1,1,1,.83Zm4.29-7a3.66,3.66,0,0,0-1.75-.53h0a3.69,3.69,0,1,0,2.57,1.21A3.76,3.76,0,0,0,568.21,387.76Zm-1.73-.95h0Z" transform="translate(-43.11 -148.57)"/><path class="cls-2" d="M560.14,400.89a11.64,11.64,0,0,1-5-13.31,11.88,11.88,0,0,1,1.2-2.66,11.63,11.63,0,0,1,13.31-5l.27.08a11.12,11.12,0,0,1,1.8.78l.2.11-.4.72a11.35,11.35,0,0,0-2.12-.9h0a10.78,10.78,0,1,0,6.07,15.94,11.2,11.2,0,0,0,1.11-2.46,10.87,10.87,0,0,0,.16-5.74l.8-.2a11.49,11.49,0,0,1-.17,6.18,12.05,12.05,0,0,1-1.19,2.66,11.63,11.63,0,0,1-13.31,5A11.24,11.24,0,0,1,560.14,400.89Z" transform="translate(-43.11 -148.57)"/><path class="cls-13" d="M73.58,370.63,207.73,370a2.3,2.3,0,0,1,2.32,2.32l-.28,47a2.3,2.3,0,0,1-2.37,2.28c-11.83-.35-133.08-1.91-135.4-1.81s-1-37-.7-46.94A2.3,2.3,0,0,1,73.58,370.63Z" transform="translate(-43.11 -148.57)"/><path class="cls-3" d="M207.47,419.78h0c-7.56-.22-80-1.13-114.83-1.56L73.29,418h-.18l0-.17c-.83-4.65-.81-20.17,0-44.89a.47.47,0,0,1,.47-.46l134.16-.59a.48.48,0,0,1,.34.14.44.44,0,0,1,.14.35l-.28,47A.48.48,0,0,1,207.47,419.78Zm-134-2.24,19.16.24c34.82.44,107.27,1.34,114.84,1.57h0s0,0,0-.05l.29-47-.05-.26v.22l-134.15.58a0,0,0,0,0,0,.05C72.71,397.31,72.69,412.72,73.47,417.54Z" transform="translate(-43.11 -148.57)"/><path class="cls-3" d="M79.32,382.76h0c0,1.27.42,2.3.94,2.3h51.39c.52,0,.95-1,.95-2.3h0c0-1.27-.43-2.3-.95-2.3H80.26C79.74,380.46,79.32,381.49,79.32,382.76Z" transform="translate(-43.11 -148.57)"/><path class="cls-3" d="M79.32,390.6h0c0,1.27.42,2.3.94,2.3h51.39c.52,0,.95-1,.95-2.3h0c0-1.27-.43-2.3-.95-2.3H80.26C79.74,388.3,79.32,389.33,79.32,390.6Z" transform="translate(-43.11 -148.57)"/><path class="cls-3" d="M79.32,398.44h0c0,1.27.42,2.29.94,2.29h51.39c.52,0,.95-1,.95-2.29h0c0-1.27-.43-2.3-.95-2.3H80.26C79.74,396.14,79.32,397.17,79.32,398.44Z" transform="translate(-43.11 -148.57)"/><path class="cls-3" d="M79.32,406.27h0c0,1.27.42,2.3.94,2.3h51.39c.52,0,.95-1,.95-2.3h0c0-1.27-.43-2.3-.95-2.3H80.26C79.74,404,79.32,405,79.32,406.27Z" transform="translate(-43.11 -148.57)"/><circle class="cls-3" cx="145.62" cy="384.38" r="8.94" transform="translate(-305.05 289.22) rotate(-76.72)"/><circle class="cls-3" cx="167.83" cy="384.38" r="8.94" transform="translate(-177.43 -55.08) rotate(-22.5)"/><circle class="cls-3" cx="190.05" cy="384.67" r="8.94" transform="translate(-263.21 362.08) rotate(-80.78)"/><path class="cls-15" d="M150.93,382.49a5.65,5.65,0,0,1,.43,2.18,5.74,5.74,0,1,1-5.74-5.74h.29v-1.46h-.29a7.2,7.2,0,1,0,7.19,7.2,7,7,0,0,0-.55-2.76Z" transform="translate(-43.11 -148.57)"/><path class="cls-16" d="M170.8,389.53a5.74,5.74,0,1,1-3.06-10.6H168v-1.46h-.29a7.2,7.2,0,1,0,3.78,13.32Z" transform="translate(-43.11 -148.57)"/><path class="cls-17" d="M194.84,387.9a5.74,5.74,0,1,1-4.75-9h.29v-1.46h-.29A7.2,7.2,0,1,0,196,388.75Z" transform="translate(-43.11 -148.57)"/><g class="cls-18"><path class="cls-3" d="M152.9,397.1H138.33a1.66,1.66,0,0,0,0,3.32H152.9a1.66,1.66,0,1,0,0-3.32Z" transform="translate(-43.11 -148.57)"/><path class="cls-3" d="M175.12,397.1H160.55a1.66,1.66,0,0,0,0,3.32h14.57a1.66,1.66,0,0,0,0-3.32Z" transform="translate(-43.11 -148.57)"/><path class="cls-3" d="M182.77,400.42h14.56a1.66,1.66,0,1,0,0-3.32H182.77a1.66,1.66,0,1,0,0,3.32Z" transform="translate(-43.11 -148.57)"/><rect class="cls-3" x="93.57" y="253.69" width="17.88" height="13.06" rx="1.66"/><rect class="cls-3" x="115.78" y="253.69" width="17.88" height="13.06" rx="1.66"/><rect class="cls-3" x="138" y="253.69" width="17.88" height="13.06" rx="1.66"/></g><path class="cls-19" d="M227.73,510.1c2.55.22,7,.58,10.43.73a10.07,10.07,0,0,0,4-.39c0,.08,0,.15,0,.22a.72.72,0,0,1-.68.68,119.39,119.39,0,0,1-13.66,0,.51.51,0,0,1-.41-.77C227.49,510.42,227.61,510.26,227.73,510.1Z" transform="translate(-43.11 -148.57)"/><path class="cls-20" d="M238.16,510.83c-3.48-.15-7.88-.51-10.43-.73,2.5-3.06,10.43-5.13,10.43-5.13h2.24a9.45,9.45,0,0,1,1.75,5.47A10.07,10.07,0,0,1,238.16,510.83Z" transform="translate(-43.11 -148.57)"/><path class="cls-21" d="M240.78,501.31l-.21,4.15a.94.94,0,0,1-.81.89,3.61,3.61,0,0,1-1.68-.14,1.15,1.15,0,0,1-.76-.86l-.72-4Z" transform="translate(-43.11 -148.57)"/><path class="cls-22" d="M266.77,514.88a2.17,2.17,0,0,0,1.81-1.73v0a2,2,0,0,1-1,2.11,5.1,5.1,0,0,1-2.67.54,2.5,2.5,0,0,1-2-1.2h0C263.77,515.15,264.93,515.22,266.77,514.88Z" transform="translate(-43.11 -148.57)"/><path class="cls-23" d="M261.57,502.59h1.85c2.81-.07,4.58,7.6,5.16,10.56a2.17,2.17,0,0,1-1.81,1.73c-1.84.34-3,.27-3.83-.26A27,27,0,0,1,260.3,506,3.21,3.21,0,0,1,261.57,502.59Z" transform="translate(-43.11 -148.57)"/><path class="cls-24" d="M263.18,498.74l1,4.08a1.13,1.13,0,0,1-.58,1.26,4,4,0,0,1-2.12.51.94.94,0,0,1-.76-.62l-1.5-4.29Z" transform="translate(-43.11 -148.57)"/><path class="cls-25" d="M227.11,445s9.16,57.29,9,57.6a7.64,7.64,0,0,0,5.29.15s-.83-30.62-2.77-42.36c0,0,15.64,27.37,20.61,41a12.21,12.21,0,0,0,4.73-1.72s-16.84-49.26-21.33-55.82Z" transform="translate(-43.11 -148.57)"/><path class="cls-26" d="M238.28,460.1a.29.29,0,0,1-.23-.12l-3.36-5.38-2.41-.48a.28.28,0,0,1-.21-.31.27.27,0,0,1,.31-.21l2.52.51a.3.3,0,0,1,.17.12l3.43,5.47a.26.26,0,0,1-.09.36A.22.22,0,0,1,238.28,460.1Z" transform="translate(-43.11 -148.57)"/><path class="cls-27" d="M185.05,388.93A61,61,0,0,1,195,392a3.45,3.45,0,0,1,1.68,1.69c1.13,2.47,4.49,8.65,11,11.59a18,18,0,0,0-3.11,8.21c-3.92-2.92-7.31-7.79-8.93-15.78a3.19,3.19,0,0,1-2.78-.08c-.82-.4-1.76-1-2.47-1.4a3.22,3.22,0,0,1-1.43-1.92,11.14,11.14,0,0,1-.11-3l-3.18-1A1.14,1.14,0,0,1,185.05,388.93Z" transform="translate(-43.11 -148.57)"/><path class="cls-7" d="M204.59,413.52a18,18,0,0,1,3.11-8.21c4.05,1.84,9.33,2.42,16,.09a7,7,0,0,1,1.92-.37c3.58-.21,15.36-.6,25.11,2.62a7.61,7.61,0,0,1,4.57,4.16c2.64,6.06,6.91,19.84-5,26.8a29.1,29.1,0,0,0-2.86-5.41c1.91-3.22,2.48-7.62-.91-13.35-2.47,6.67-3.63,16.4-3.87,20.71a9.19,9.19,0,0,0,.73,4.14l.06.14a.49.49,0,0,1-.35.67,56.23,56.23,0,0,1-15.69.92.85.85,0,0,1-.76-.65c-3.24-13.67-3.25-23-2.46-28.89C221.25,417.56,212,419,204.59,413.52Z" transform="translate(-43.11 -148.57)"/><path class="cls-28" d="M226.64,408.58s-1.59,2.5-2.37,8.4Z" transform="translate(-43.11 -148.57)"/><path class="cls-29" d="M240.74,397.06a91.71,91.71,0,0,0,1.27,9.25.71.71,0,0,1-.34.82,7,7,0,0,1-6.74-.1,1.48,1.48,0,0,1-.83-1.41l.29-6.9Z" transform="translate(-43.11 -148.57)"/><path class="cls-30" d="M234.24,387.93s-2.16,5-2.3,7.56-.71,4.3,2.3,4.82a6.41,6.41,0,0,0,6.92-3.57s2.16-4,1.67-5.63S234.24,387.93,234.24,387.93Z" transform="translate(-43.11 -148.57)"/><path class="cls-31" d="M240.13,394.88l-.17-.08a.41.41,0,0,1-.2-.57c.43-.82,1.25-2.7.18-3.13-1.37-.57-6.83-1.68-8-3.62a3.61,3.61,0,0,1,1.38-5,.22.22,0,0,1,.27.09l.13.24a.2.2,0,0,0,.37,0h0a.2.2,0,0,1,.37-.05c.36.58,1.34,1.52,4,2,3.72.69,6.17,2.19,6.23,4.75a.21.21,0,0,0,.32.17c.27-.16.71-.24,1.3.25,1,.86.6,3.08-1.63,4.91a.2.2,0,0,0,0,.33c.4.26,1,.89-.56,1.73a5.37,5.37,0,0,1-3.29.72.21.21,0,0,1-.17-.25l.5-2.25a.2.2,0,0,0-.2-.25Z" transform="translate(-43.11 -148.57)"/><path class="cls-32" d="M240,395.35s.82-3.17,2.25-2.28-.74,3.55-1.88,3.67Z" transform="translate(-43.11 -148.57)"/><path class="cls-33" d="M194,397a.23.23,0,0,1-.2-.1,23.38,23.38,0,0,0-3-3.15,1.33,1.33,0,0,1-.76-.83,1,1,0,0,1,.2-.82.26.26,0,0,1,.27-.11l2.7.54.12.06,1.43,1.23a.26.26,0,1,1-.34.39L193.09,393l-2.45-.49a.36.36,0,0,0,0,.26c0,.16.21.33.5.5a22.83,22.83,0,0,1,3.11,3.27.27.27,0,0,1,0,.37A.25.25,0,0,1,194,397Z" transform="translate(-43.11 -148.57)"/><path class="cls-34" d="M240.1,443.48l-9.74-.21s8.49-2.4,9-1.75a29.78,29.78,0,0,0,8.15-8.32,29.1,29.1,0,0,1,2.86,5.41C247.81,440.13,244.41,442.77,240.1,443.48Z" transform="translate(-43.11 -148.57)"/><path class="cls-35" d="M240.38,441.8s.2,3.88-4.9,3.31c-2.77-.3-7.24-2.88-7.24-2.88S239.89,442.19,240.38,441.8Z" transform="translate(-43.11 -148.57)"/><path class="cls-36" d="M238.38,442.84h0l-24.23,0a1.07,1.07,0,1,1,0-2.14l24.23,0a1.08,1.08,0,0,1,0,2.15Z" transform="translate(-43.11 -148.57)"/><path class="cls-7" d="M192.32,421.07H212.5a3.83,3.83,0,0,1,3.47,2.19l9.33,19.56H200.23a2.33,2.33,0,0,1-2.17-1.46l-7.24-18.11A1.6,1.6,0,0,1,192.32,421.07Z" transform="translate(-43.11 -148.57)"/><path class="cls-13" d="M206.53,431.11c.44,1.34.12,2.65-.72,2.91s-1.86-.6-2.3-1.95-.12-2.65.72-2.91S206.1,429.76,206.53,431.11Z" transform="translate(-43.11 -148.57)"/><path class="cls-7" d="M119,411.39c-1-1.57-2.59-2.59-3.59-4.12a7.45,7.45,0,0,1-.47-6.62c.68-1.79,1.89-3.32,2.58-5.1a8.59,8.59,0,0,0,.53-5.82c-.37-2.11-1.2-4.36-3.22-5.57a12.1,12.1,0,0,0-8.46-1.24,15.67,15.67,0,0,0-8,3.93A11.37,11.37,0,0,0,94.7,395c0,2.05.69,4.17,0,6.11a4.8,4.8,0,0,1-3.39,3.08c-1.73.4-3.53-.19-5.3-.16a7.71,7.71,0,0,0-4.85,1.81,6.49,6.49,0,0,0-2.27,4A4.78,4.78,0,0,0,80.45,414c.81.69,2,1.15,2.25,2.17s-.64,2.3-1.74,2.76-2.34.51-3.45.92a6.39,6.39,0,0,0-3.82,6.41,9,9,0,0,0,4.08,6.56,15.67,15.67,0,0,0,7.55,2.39,64.63,64.63,0,0,0,8-.12c3-.15,6.15-.19,9-1.16a24.57,24.57,0,0,0,7.8-4.88,8.44,8.44,0,0,0,2.75-3.34c.36-1,.36-2.11.78-3.08.9-2.09,3.38-3,4.82-4.75A5.79,5.79,0,0,0,119,411.39Z" transform="translate(-43.11 -148.57)"/><path class="cls-13" d="M85.9,415.14h0a3.76,3.76,0,0,1-2.3-6c1.16-1.5,3.21-1.9,5.2-2.17l3.61-.49c2-.27,4.13-.67,5.31-2.18s1-3.8.76-5.92c0-.25-.06-.49-.08-.73a15.54,15.54,0,0,1,.94-7.84,8.87,8.87,0,0,1,5.74-5.2.08.08,0,0,1,.11.06.09.09,0,0,1-.07.11,8.72,8.72,0,0,0-5.61,5.11,15.36,15.36,0,0,0-.93,7.74c0,.24,0,.48.08.73.25,2.16.5,4.39-.8,6.06s-3.34,2-5.42,2.25l-3.61.49c-2,.26-4,.64-5.08,2.09a3.57,3.57,0,0,0,2.18,5.7.11.11,0,0,1,.08.11A.1.1,0,0,1,85.9,415.14Z" transform="translate(-43.11 -148.57)"/><path class="cls-13" d="M87,414a.18.18,0,0,1-.13,0,5.78,5.78,0,0,1-1.24-1.48,2,2,0,0,1,0-2,2.67,2.67,0,0,1,1.19-.84,14.94,14.94,0,0,1,3.45-1c.77-.13,1.56-.2,2.32-.26a22.9,22.9,0,0,0,3-.38,6,6,0,0,0,4.17-2.79c.73-1.48.46-3.13.17-4.88a10.8,10.8,0,0,1-.14-4.27.18.18,0,0,1,.22-.14.18.18,0,0,1,.13.22,10.69,10.69,0,0,0,.15,4.13c.29,1.73.58,3.51-.2,5.1a6.36,6.36,0,0,1-4.42,3,24.15,24.15,0,0,1-3,.39c-.75.06-1.53.13-2.29.25A14.53,14.53,0,0,0,87,410a2.29,2.29,0,0,0-1,.71,1.62,1.62,0,0,0,0,1.6,5.26,5.26,0,0,0,1.16,1.38A.18.18,0,0,1,87,414Z" transform="translate(-43.11 -148.57)"/><path class="cls-8" d="M116.32,407.83a11.78,11.78,0,0,0-11.6,2.76,3,3,0,0,0-.91,2.94c1.21,4.75,4.38,18.8,1.31,24.8,0,0,5.15,5.87,10.95,1.3,0,0,2.74-11.14,6.18-16,2.38-3.35-3.49-12.79-5-15.07A1.73,1.73,0,0,0,116.32,407.83Z" transform="translate(-43.11 -148.57)"/><path class="cls-37" d="M111.69,398.34s-2.67,7.19-2.91,10.38a5.47,5.47,0,0,0,5.5-.79s.4-7.22.82-8.51Z" transform="translate(-43.11 -148.57)"/><path class="cls-38" d="M115.4,388.54s6.54,9.47,2.5,12.12-8.7-4.07-8.7-4.07-1.47-5.15.19-6.87S115.4,388.54,115.4,388.54Z" transform="translate(-43.11 -148.57)"/><path class="cls-39" d="M112.34,386.25s3.07.78,3.47,2.17-4.4,2.61-5.74,2.66l-1.17,5.59s-3.11-5.33-1.8-8.36S112.34,386.25,112.34,386.25Z" transform="translate(-43.11 -148.57)"/><path class="cls-40" d="M110.51,395.92s-2.55-3.06-3.62-1.11,2.29,3.48,3.47,2.53Z" transform="translate(-43.11 -148.57)"/><path class="cls-41" d="M122.37,463.23c0,.5.8,4.55,1.25,6.7a3.54,3.54,0,0,1-.43,2.54l-17.26,28a4,4,0,0,0-.46,1.09,24.2,24.2,0,0,0-.73,7.53l.84,1.82-3.75-.91-.65-10.11,1.07-.63a5.15,5.15,0,0,0,2.09-2.36c1.58-3.67,5.5-13,6.55-17.57,1.19-5.19,7-9.32,7-9.32l-1-2.42Z" transform="translate(-43.11 -148.57)"/><path class="cls-42" d="M97.71,506.47a23.07,23.07,0,0,0,2.34-4.44c.26-1.25,1-3.45,2.2-2.76a73.84,73.84,0,0,1,.25,8.47c-.24,2.37,2.65,2.34,2.65,2.34a2.73,2.73,0,0,1,1.37.72.67.67,0,0,1-.47,1.13,16,16,0,0,1-4-.29,1.24,1.24,0,0,1-1-1.15l-.3-7-2.62,3.19Z" transform="translate(-43.11 -148.57)"/><path class="cls-43" d="M112.25,467.57s-1,25.29-1.13,28.88.38,11.57,3.94,14l-1.59,1.13a20.78,20.78,0,0,1-3.79-4.93,29.68,29.68,0,0,0-2.73-4.3l.74-1.45a3.25,3.25,0,0,0,.29-2.06c-.72-3.78-3.11-16.35-3.78-19.06a12.2,12.2,0,0,1,2.19-11C109.36,465.31,112.25,467.57,112.25,467.57Z" transform="translate(-43.11 -148.57)"/><path class="cls-44" d="M108.2,512.65a.22.22,0,0,1-.22-.19,33.5,33.5,0,0,0-.94-5.12c-.46-1-1.92-5.26.09-5.58,0,0,4.84,7.33,5.78,8.32a1.86,1.86,0,0,0,2.15.38,3.63,3.63,0,0,1,1.61,1.19.65.65,0,0,1-.53,1.05l-3.35,0a2.36,2.36,0,0,1-2.18-1.52c-.56-1.48-1.54-3.65-2.7-4.62l.51,5.87a.22.22,0,0,1-.22.24Z" transform="translate(-43.11 -148.57)"/><path class="cls-7" d="M116.9,436.92a11.9,11.9,0,0,0,.3,6.36L124,468.47a.78.78,0,0,1-.5.94,48,48,0,0,1-18.88,2,1.1,1.1,0,0,1-1-.87c-.59-2.87-2.6-12.66-3-14.67-1.58-7.66-3.34-15.93,5.09-20.77C109.51,436.79,113.08,437.82,116.9,436.92Z" transform="translate(-43.11 -148.57)"/><path class="cls-45" d="M104,411.52s-8.28,6.66-10.46,15.9,11.77,10.46,11.77,10.46,1.93-2.09,4.17-1.3.23-3.69-2.4-3.72-1.45,2.07-5.14.32-5.77-6.82,3.62-14.38a4.21,4.21,0,0,0,1.25-1.64C108.7,412.66,107.32,409.67,104,411.52Z" transform="translate(-43.11 -148.57)"/></svg>