<svg xmlns="http://www.w3.org/2000/svg" xmlns:xlink="http://www.w3.org/1999/xlink" viewBox="0 0 528.26 552.5"><defs><style>.cls-1{fill:none;}.cls-2{isolation:isolate;}.cls-3{fill:#f4f7fa;}.cls-14,.cls-4,.cls-7{fill:#d8dee8;}.cls-5{clip-path:url(#clip-path);}.cls-6{clip-path:url(#clip-path-2);}.cls-14,.cls-7{opacity:0.8;}.cls-8{fill:url(#linear-gradient);}.cls-9{fill:url(#linear-gradient-2);}.cls-10{fill:url(#linear-gradient-3);}.cls-11{fill:url(#linear-gradient-4);}.cls-12{fill:url(#linear-gradient-5);}.cls-13{fill:url(#linear-gradient-6);}.cls-14{mix-blend-mode:multiply;}.cls-15{fill:#fff;}.cls-16{fill:url(#linear-gradient-7);}.cls-17{fill:url(#linear-gradient-8);}.cls-18{fill:url(#linear-gradient-9);}.cls-19{fill:url(#linear-gradient-10);}.cls-20{fill:url(#linear-gradient-11);}.cls-21{fill:url(#linear-gradient-12);}.cls-22{fill:url(#linear-gradient-13);}.cls-23{fill:#fcb148;}.cls-24{opacity:0.5;}</style><clipPath id="clip-path" transform="translate(-84.05 -74.04)"><path class="cls-1" d="M462.08,107c16.71,23.93-2.89,62.72,21.91,80.72,24.15,17.51,53.8-11.2,76.55,3.88,33.76,22.37,27.59,124.72-21.75,188.31C524,399,511.55,406.43,506.05,428.06c-11.79,46.44,29.66,74.07,21.77,97C510.06,576.82,237,620.22,127.36,464.78c-51.18-72.59-58.83-177.42-13.11-257C196.88,63.87,424.57,53.26,462.08,107Z"/></clipPath><clipPath id="clip-path-2" transform="translate(-84.05 -74.04)"><circle class="cls-1" cx="422.46" cy="416.35" r="185.43"/></clipPath><linearGradient id="linear-gradient" x1="-797.41" y1="571.72" x2="-797.4" y2="571.72" gradientTransform="matrix(-1, 0, 0, 1, -436.77, -74.04)" gradientUnits="userSpaceOnUse"><stop offset="0" stop-color="#fcb148"/><stop offset="0.05" stop-color="#fdba46"/><stop offset="0.14" stop-color="#ffc244"/><stop offset="0.32" stop-color="#ffc444"/><stop offset="0.48" stop-color="#fdb946"/><stop offset="0.78" stop-color="#f99c4d"/><stop offset="0.87" stop-color="#f8924f"/><stop offset="1" stop-color="#f8924f"/></linearGradient><linearGradient id="linear-gradient-2" x1="-912.68" y1="442.36" x2="-754.88" y2="442.36" gradientTransform="matrix(-1, 0, 0, 1, -352.71, 0)" gradientUnits="userSpaceOnUse"><stop offset="0" stop-color="#fcb148"/><stop offset="0.05" stop-color="#fdba46"/><stop offset="0.14" stop-color="#ffc244"/><stop offset="0.32" stop-color="#ffc444"/><stop offset="0.45" stop-color="#fdb942"/><stop offset="0.68" stop-color="#f99c3e"/><stop offset="0.87" stop-color="#4F81BD"/><stop offset="1" stop-color="#4F81BD"/></linearGradient><linearGradient id="linear-gradient-3" x1="-736.05" y1="363.88" x2="-664.98" y2="363.88" gradientTransform="matrix(-1, 0, 0, 1, -352.71, 0)" xlink:href="#linear-gradient"/><linearGradient id="linear-gradient-4" x1="-742.69" y1="452.04" x2="-654.44" y2="452.04" xlink:href="#linear-gradient-2"/><linearGradient id="linear-gradient-5" x1="-716.49" y1="350.11" x2="-707.34" y2="350.11" gradientTransform="matrix(-1, 0, 0, 1, -352.71, 0)" xlink:href="#linear-gradient"/><linearGradient id="linear-gradient-6" x1="-724.68" y1="354.36" x2="-717.31" y2="354.36" gradientTransform="matrix(-1, 0, 0, 1, -352.71, 0)" xlink:href="#linear-gradient"/><linearGradient id="linear-gradient-7" x1="-918.99" y1="426.07" x2="-575.27" y2="576.78" gradientTransform="matrix(-1, 0, 0, 1, -436.77, -74.04)" gradientUnits="userSpaceOnUse"><stop offset="0" stop-color="#444b8c"/><stop offset="1" stop-color="#26264f"/></linearGradient><linearGradient id="linear-gradient-8" x1="-922.21" y1="433.4" x2="-578.48" y2="584.12" xlink:href="#linear-gradient-7"/><linearGradient id="linear-gradient-9" x1="-678.63" y1="418.74" x2="-334.91" y2="569.46" xlink:href="#linear-gradient-7"/><linearGradient id="linear-gradient-10" x1="-883.88" y1="345.98" x2="-540.15" y2="496.69" xlink:href="#linear-gradient-7"/><linearGradient id="linear-gradient-11" x1="-702.78" y1="366.03" x2="-359.06" y2="516.75" xlink:href="#linear-gradient-7"/><linearGradient id="linear-gradient-12" x1="-901.31" y1="385.74" x2="-557.58" y2="536.46" xlink:href="#linear-gradient-7"/><linearGradient id="linear-gradient-13" x1="-879.21" y1="341.04" x2="-535.48" y2="491.76" xlink:href="#linear-gradient-7"/></defs><g class="cls-2"><g id="Layer_1" data-name="Layer 1"><path class="cls-3" d="M476.63,105c17.36,24.84-3,65.13,22.76,83.82,25.07,18.19,55.87-11.63,79.5,4,35.05,23.23,28.65,129.52-22.6,195.56-15.41,19.86-28.29,27.59-34,50.05-12.25,48.24,30.79,76.93,22.6,100.78C526.46,592.93,242.84,638,129,476.58c-53.15-75.39-61.1-184.25-13.61-266.94C201.23,60.24,437.68,49.22,476.63,105Z" transform="translate(-84.05 -74.04)"/><path class="cls-4" d="M116.77,511.64a61.06,61.06,0,0,0,2.93,8.68,8,8,0,0,0-.71.48,11.37,11.37,0,0,0-2.42,15.09c3.2,4.94,9.46,6.2,14,2.81.23-.18.46-.37.67-.57a57.66,57.66,0,0,0,6.54,6c-.14.27-.28.54-.4.82a11.36,11.36,0,0,0,4.9,14.47c5,2.59,11,.3,13.32-5.11a8.46,8.46,0,0,0,.31-.84,51.3,51.3,0,0,0,8.39,1.68c0,.3,0,.61,0,.92.51,6,5.39,10.44,10.91,10s9.58-5.69,9.08-11.67c0-.31-.07-.61-.12-.91a51.63,51.63,0,0,0,8-3.05,8.57,8.57,0,0,0,.45.77,9.61,9.61,0,0,0,14,2.81A11.35,11.35,0,0,0,209,538.89a7.54,7.54,0,0,0-.53-.73,57.87,57.87,0,0,0,5.44-7c.25.15.5.31.77.44,5,2.59,11,.3,13.31-5.11a11.35,11.35,0,0,0-4.9-14.47c-.26-.13-.52-.25-.78-.35a63.94,63.94,0,0,0,1.44-9.05,8.14,8.14,0,0,0,.85,0c5.52-.46,9.58-5.68,9.08-11.66s-5.39-10.44-10.91-10l-.84.12A62.34,62.34,0,0,0,219,472.4a8,8,0,0,0,.71-.48,11.35,11.35,0,0,0,2.41-15.09,9.62,9.62,0,0,0-14-2.81c-.24.18-.46.37-.68.57a56.73,56.73,0,0,0-6.53-6c.14-.27.28-.54.4-.82a11.36,11.36,0,0,0-4.9-14.47c-5-2.59-11-.3-13.32,5.11-.12.28-.22.56-.31.84a51.3,51.3,0,0,0-8.39-1.68c0-.3,0-.61,0-.92-.51-6-5.39-10.44-10.91-10s-9.58,5.69-9.08,11.67c0,.31.07.61.12.91a51.63,51.63,0,0,0-8,3.05,8.57,8.57,0,0,0-.45-.77,9.62,9.62,0,0,0-14-2.81,11.35,11.35,0,0,0-2.41,15.09,7.54,7.54,0,0,0,.53.73,59,59,0,0,0-5.45,7c-.24-.15-.49-.3-.76-.44-5-2.59-11-.3-13.31,5.11a11.35,11.35,0,0,0,4.9,14.47,6.68,6.68,0,0,0,.78.35,64.17,64.17,0,0,0-1.44,9,8.14,8.14,0,0,0-.85,0c-5.52.46-9.58,5.68-9.08,11.66s5.39,10.44,10.9,10C116.21,511.73,116.49,511.69,116.77,511.64Zm16.31-12.22c-1.83-21.7,12.93-40.66,33-42.35s37.76,14.54,39.59,36.23-12.93,40.66-33,42.35S134.9,521.11,133.08,499.42Z" transform="translate(-84.05 -74.04)"/><path class="cls-4" d="M495.25,276.89a45.7,45.7,0,0,0,2.17,6.42,6.06,6.06,0,0,0-.53.35,8.38,8.38,0,0,0-1.78,11.15,7.1,7.1,0,0,0,10.33,2.08,5,5,0,0,0,.5-.42,41.89,41.89,0,0,0,4.83,4.42c-.1.2-.2.4-.29.61a8.4,8.4,0,0,0,3.62,10.7,7.11,7.11,0,0,0,9.84-3.78c.09-.21.16-.41.24-.62a38.77,38.77,0,0,0,6.19,1.24c0,.22,0,.45,0,.68.37,4.41,4,7.71,8.06,7.37s7.08-4.2,6.71-8.62c0-.23,0-.45-.09-.67a37.93,37.93,0,0,0,5.91-2.26,6.48,6.48,0,0,0,.33.57,7.11,7.11,0,0,0,10.34,2.08A8.4,8.4,0,0,0,563.44,297c-.12-.19-.26-.37-.39-.55a42.19,42.19,0,0,0,4-5.16l.56.32a7.11,7.11,0,0,0,9.84-3.77,8.39,8.39,0,0,0-3.62-10.7,6,6,0,0,0-.58-.26,46,46,0,0,0,1.07-6.69c.2,0,.41,0,.62,0,4.08-.34,7.09-4.2,6.72-8.62s-4-7.72-8.06-7.37l-.63.08a45.53,45.53,0,0,0-2.16-6.41c.18-.11.35-.23.52-.35a8.41,8.41,0,0,0,1.79-11.16,7.11,7.11,0,0,0-10.34-2.07l-.5.41a42.9,42.9,0,0,0-4.83-4.42,5.59,5.59,0,0,0,.3-.6,8.41,8.41,0,0,0-3.63-10.7,7.11,7.11,0,0,0-9.84,3.78,6.56,6.56,0,0,0-.23.62,38,38,0,0,0-6.2-1.24c0-.22,0-.45,0-.68-.37-4.42-4-7.72-8.06-7.37s-7.08,4.2-6.71,8.62c0,.22,0,.45.09.67a37.81,37.81,0,0,0-5.9,2.26c-.11-.2-.21-.39-.34-.58A7.1,7.1,0,0,0,506.59,223a8.39,8.39,0,0,0-1.79,11.15c.13.19.26.37.4.55a42.26,42.26,0,0,0-4,5.16c-.18-.11-.36-.23-.56-.33a7.11,7.11,0,0,0-9.84,3.78,8.39,8.39,0,0,0,3.62,10.7c.19.1.39.18.58.26a45.73,45.73,0,0,0-1.06,6.69c-.21,0-.42,0-.63,0-4.08.35-7.09,4.21-6.71,8.62s4,7.72,8.06,7.38C494.84,277,495,276.93,495.25,276.89Zm12.05-9c-1.35-16,9.57-30.05,24.38-31.3s27.91,10.74,29.26,26.78-9.56,30.05-24.37,31.3S508.66,283.89,507.3,267.86Z" transform="translate(-84.05 -74.04)"/><g class="cls-5"><g class="cls-6"><path class="cls-7" d="M304.37,440.18c0,27.35,6,50.57,20.25,71.64.1.15.1,2.45.19,2.59l.63.91c.06.09.27.17.27.26h0c23.34,34.2,63.34,56.36,108.21,56.36a77.2,77.2,0,0,0,10.77-.67h0s0,.22,0,.22c1.77-.14,3.53-.21,5.27-.43.62-.07,1.25-.1,1.86-.18s1.1-.13,1.64-.21.95-.13,1.42-.21l.31,0c1.16-.19,2.3-.39,3.45-.61h0A132.47,132.47,0,0,0,560,401c-.6-1.94-4.6.89-5.1-1l.24-3.13c-1.49-3.16-2-6.61-3.41-9.66-.55-1.21-1.05-2.26-1.64-3.46-3.21-6.58-7.26-11.86-11.48-17.78-.39-.54-.43-1.68-.82-2.21-1.56-2.13-5.42-2.39-7.11-4.42-2.53-3-3.6-6.91-6.39-9.71-7.27-7.29-12.38-16.44-21.19-21.88q-4.08-2.53-8.36-4.76a132.15,132.15,0,0,0-143.93,14.42c-.09.07.91.73.82.81-6.59,5.37-12.17,10.22-17.23,16.65-.06.08-1.19.36-1.25.43l-.69.89c-.09.11.51.78.43.89-6.8,8.9-13.29,18.54-18.05,29.32-.22.48-2.59,1.46-2.79,1.95-1.69,4-2.9,8-4.53,12.14-.21.54,2,.75,1.81,1.29l1.28.83s1.67,1.13,1.67,1.15C308.65,415.8,304.37,427,304.37,440.18Z" transform="translate(-84.05 -74.04)"/><polygon class="cls-8" points="360.64 497.68 360.64 497.67 360.63 497.67 360.64 497.68 360.64 497.68"/><path class="cls-9" d="M405,484.65c2.83,4,11.6,9.12,5.65,19.18s.41,11.93,4.47,11,16.74-1.45,14.63,4.31-5.73,7.92-1.09,10.15,6.6,8,11.35,16,15.92,1.08,12.6,9.08-5.9,7.22-5.59,12.8c.08,1.53-.94,3.1-2.31,4.59,1.77-.14,3.54-.32,5.3-.54.62-.07,1.25-.15,1.86-.24l1.64-.23,1.42-.22c.1,0,.07,0,.18-.05,1.13-.19,1.72-.4,3.21-.61h0c1-.94.37-2,.22-3.07-1.48-10.29,12.72-17.36,15.1-24.57s0-11.49.57-17.45-1.39-13.84,2-18.85,17.23-6.68,19.86-16.76-3.51-25.13-5.9-27.7,11.43-14.24,18-14.61,4-13.68,15.11-11.66,31.23-4.27,27.09-11C547,418.65,541.22,406.46,560,401c-.6-1.94-1.34-3.85-1.84-5.75h0c-1.49-3.16-2.49-6.27-3.86-9.31-.55-1.22-1.16-2.43-1.74-3.63a133.38,133.38,0,0,0-11.2-18.78c-.38-.54-.78-1.07-1.17-1.6q-2.35-3.19-4.89-6.24-3.79-4.56-8-8.76a132.16,132.16,0,0,0-24.2-19.19c-3.71,2.6-7.95,4.2-11.61,2.23-9-5-3.06-5.8.61-6a4.69,4.69,0,0,0,2.64-1,130.88,130.88,0,0,0-21.72-9c.56,5.07,7.45,13.21,2.38,12.22-5.9-1.12-8.31-17.06-12.64-11.77s4.8,12.29-3.84,8.25-9.8-12.92-19.44-8.58-8.81,9.6-11.51,9.09-11.41,5.34-6.14,10.16S432,332.1,440,330.24s7.79,4.69,11.46,6.18,21.73-7.26,26.15.6,6.36,13.25-.27,13.05-7.05-1.9-6.53,3-.67,8.57-6.68,4-4.64-9.09-9.32-6.89-5.23.21-10.21-3.41-11.52-4-13.23,4.12,1.21,9.94,10,10.34,9.75-2.33,12.54,5,14.35,16.72,24.52,20.59,14.12,9.62,13.88,17.36,3.58,15.92,6.13,9.54,9.73-17.2,17-10,20.1,20,6,22.34-6.72-10.81-13.84-8.17,4.5,8.46-.25,10.56-6.74,1.13-6.71,7.61-1.57,12.76-7.34,10-13.18-15.43-21.52-7.92-7.77,6.55-12.15,4.36-7.17,4.37-9,7.36-8.84-.06-14.54,8.84-7.94,10.48-14.44,7.28-9.15-.82-10.85,3.67-5.69.1-7.62,6S402.18,480.66,405,484.65Z" transform="translate(-84.05 -74.04)"/><path class="cls-10" d="M382.73,376.87c4.6-9.89-18.23-8.78-22.27-8s-13.58-6.77-14.79-10.23-3.29-1.83-10.51-1.93-.84-1.71,7.11-4.33,1.15-2.88,8.46-8.65c3.15-2.53,2.16-4.68.06-6.28a132.54,132.54,0,0,0-38.53,50.94,2.47,2.47,0,0,1,.68-.11c5.06,0,6.18-11.22,8.78-13.39s-.07,6.14-.7,9.56,1.39.54,3.91,3.68,7.1,3.2,7.52-1.51,3.73-9.33,10.46-11.48,12.55-.38,18,1.73S378.08,386.68,382.73,376.87Z" transform="translate(-84.05 -74.04)"/><path class="cls-11" d="M325.39,515.58c-.45-3.4-1.2-6.9.22-8.19,3.44-3.2,4.2-11.91,3-16.32s-10.48-4.18-4.18-11.53,12-16.12,9.37-21.12-1.85-5.37,3.12-5.34,7.16.25,12.12-4.18,11.8,10.59,30.48-1.5,8-32.8,1-32.86-15.27-3.67-9.5-12.26-3.24-9.84-7.63-7.88-12.21-3.27-20.16-5.61-7.62,10.65-12,13.25-12.79.53-17.13-3.63c-3.09-3-3.77.5-6.83,3.78a132.38,132.38,0,0,0,18.13,113.39Z" transform="translate(-84.05 -74.04)"/><path class="cls-12" d="M358.8,360.41s-5.82-2.64-3.71-6.87,5.41-17.21,7.83-13.12-1.16,12.08-.37,15.52S363.36,361.2,358.8,360.41Z" transform="translate(-84.05 -74.04)"/><path class="cls-13" d="M364.62,356.44c.08-1.36-.78-6.9,3.58-6.73,0,0,6.31,2.63,2.61,7.11S364.52,357.81,364.62,356.44Z" transform="translate(-84.05 -74.04)"/><path class="cls-14" d="M302.15,439.86A130.86,130.86,0,0,0,325.62,515a.43.43,0,0,1,.09.26h0a131.61,131.61,0,0,0,108.38,56.25,80.21,80.21,0,0,0,11-.58.57.57,0,0,0,0,.13c1.77-.14,3.53-.16,5.27-.38.63-.07,1.25-.07,1.86-.15s1.1-.11,1.64-.2l1.42-.19.31,0c1.16-.19,2.3-.38,3.45-.6h0A132.14,132.14,0,0,0,565.36,454.17a114.58,114.58,0,0,1-86.15,74.39h0a9.17,9.17,0,0,1-3,.56l-.28.06c-.4.07-.81.14-1.22.19s-.94.14-1.41.2l-1.61.18c-1.51.19-3,.53-4.55.66,0,0,0,.14,0,.14h0c-3.1,0-6.19.25-9.36.25a113.82,113.82,0,0,1-93.5-48.94c0-.08-.12-.18-.17-.26a114.06,114.06,0,0,1-15.58-97.71s.05,0,.05-.05h0A77.13,77.13,0,0,1,352.8,372a114.17,114.17,0,0,1,69-63.55,131.37,131.37,0,0,0-70.68,28.75,132.78,132.78,0,0,0-38.69,50.94c-1.91,4.47-3.13,9.06-5.11,13.76h0s.15,0,.15.06A131.66,131.66,0,0,0,302.15,439.86Z" transform="translate(-84.05 -74.04)"/></g><path class="cls-15" d="M465.88,471h0a.81.81,0,0,0,.72-.84c-.8-23.29,5.18-41.89,17.77-55.23,19.44-20.59,48.26-21.51,48.55-21.52a.69.69,0,0,0,.72-.7.7.7,0,0,0-.74-.68h0c-.29,0-29.73.87-49.59,21.91-12.88,13.64-19,32.6-18.18,56.31A.77.77,0,0,0,465.88,471Z" transform="translate(-84.05 -74.04)"/><path class="cls-15" d="M424.67,497.65a.75.75,0,0,0,.73-.61c1.89-9.86,6.34-17.08,13.23-21.44,12.42-7.89,28.77-3.84,28.93-3.8a.74.74,0,1,0,.37-1.44c-.69-.18-17.12-4.26-30.09,4-7.25,4.6-11.93,12.15-13.91,22.43a.76.76,0,0,0,.59.88Z" transform="translate(-84.05 -74.04)"/><path class="cls-15" d="M423.2,499.23a.75.75,0,0,0,.75-.7,93.67,93.67,0,0,0-6.45-36.39,65.21,65.21,0,0,0-19-26.48c-10.31-8.43-23.52-13.47-39.28-15a.74.74,0,0,0-.14,1.48c28.07,2.7,47.28,16.34,57.08,40.54a92,92,0,0,1,6.34,35.74.75.75,0,0,0,.7.79Z" transform="translate(-84.05 -74.04)"/><circle class="cls-16" cx="381.83" cy="396.04" r="6.58"/><circle class="cls-17" cx="340.61" cy="422.86" r="6.58"/><path class="cls-15" d="M310.44,426.85c3-.46,18.35-3.49,26.38-18.34a36.19,36.19,0,0,0-.23-34.32,28.95,28.95,0,0,1,21.52,46.48l2,1.5a31.45,31.45,0,0,0-25.21-50.52h-.52l-2.2,0,1.16,1.87a33.75,33.75,0,0,1,1.28,33.76c-7.62,14.1-22.85,16.8-24.56,17.06Z" transform="translate(-84.05 -74.04)"/><circle class="cls-18" cx="226.2" cy="351.57" r="6.58"/><circle class="cls-19" cx="275.06" cy="347.38" r="6.58"/><circle class="cls-20" cx="250.35" cy="298.86" r="6.58"/><path class="cls-15" d="M534,393.2c.78-1.47,7.43-14.73.61-28.89-7-14.51-21.93-17.35-23.61-17.63l-.41,2.46c1.55.26,15.32,2.88,21.77,16.25,6.29,13.05.16,25.28-.56,26.64Z" transform="translate(-84.05 -74.04)"/><circle class="cls-21" cx="448.88" cy="318.57" r="6.58"/><circle class="cls-22" cx="426.77" cy="273.87" r="6.58"/><circle class="cls-23" cx="395.27" cy="477.21" r="2.44"/><circle class="cls-23" cx="491.74" cy="547.68" r="2.44" transform="translate(-308.23 302.68) rotate(-34.65)"/><circle class="cls-23" cx="503.98" cy="545.44" r="2.44" transform="translate(-304.78 309.24) rotate(-34.65)"/><circle class="cls-23" cx="431.47" cy="470.64" r="2.44"/><circle class="cls-23" cx="525.9" cy="545.44" r="2.44" transform="translate(-98.05 -60.19) rotate(-1.49)"/><circle class="cls-23" cx="534.58" cy="547.54" r="2.44" transform="translate(-300.55 327.01) rotate(-34.65)"/><circle class="cls-23" cx="541.89" cy="550.83" r="2.44" transform="translate(-291.99 663.35) rotate(-59.44)"/><circle class="cls-23" cx="462.54" cy="481.54" r="2.44"/><circle class="cls-23" cx="465" cy="487.22" r="2.44"/><circle class="cls-23" cx="549.27" cy="567.71" r="2.44" transform="translate(-307.35 328.92) rotate(-33.91)"/><circle class="cls-23" cx="547.1" cy="574.82" r="2.44" transform="translate(-98.8 -59.63) rotate(-1.49)"/><path class="cls-23" d="M540,582.89a2.44,2.44,0,1,1,3,1.75A2.44,2.44,0,0,1,540,582.89Z" transform="translate(-84.05 -74.04)"/><circle class="cls-23" cx="451.69" cy="515.59" r="2.44"/><circle class="cls-23" cx="527.18" cy="596.62" r="2.44" transform="translate(-99.38 -60.14) rotate(-1.49)"/><circle class="cls-23" cx="441.85" cy="525.41" r="2.44"/><circle class="cls-23" cx="432.69" cy="529.21" r="2.44"/><circle class="cls-23" cx="425.07" cy="533.68" r="2.44"/><circle class="cls-23" cx="505.53" cy="608.86" r="2.44" transform="translate(-337.74 311.52) rotate(-33.91)"/><circle class="cls-23" cx="409.12" cy="539.66" r="2.44"/><circle class="cls-23" cx="407.29" cy="540.32" r="2.44"/><circle class="cls-23" cx="480.84" cy="617.07" r="2.44" transform="translate(-379.04 643.35) rotate(-59.44)"/><circle class="cls-23" cx="468.67" cy="619.22" r="2.44" transform="translate(-349.79 292.72) rotate(-33.91)"/><circle class="cls-23" cx="389.33" cy="545.8" r="2.44"/><circle class="cls-23" cx="373.03" cy="546.01" r="2.44"/><circle class="cls-23" cx="371.88" cy="548.95" r="2.44"/><circle class="cls-23" cx="362.74" cy="545.48" r="2.44"/><circle class="cls-23" cx="437.92" cy="617.25" r="2.44" transform="translate(-396.47 642.03) rotate(-62.15)"/><circle class="cls-23" cx="355.24" cy="550.06" r="2.44"/><circle class="cls-23" cx="346.81" cy="539.83" r="2.44"/><path class="cls-23" d="M423.66,609.71a2.44,2.44,0,1,1,3,1.76A2.45,2.45,0,0,1,423.66,609.71Z" transform="translate(-84.05 -74.04)"/><circle class="cls-23" cx="423.56" cy="603.42" r="2.44" transform="translate(-348.65 264.87) rotate(-33.91)"/><circle class="cls-23" cx="339.23" cy="522.93" r="2.44"/><circle class="cls-23" cx="341.43" cy="515.95" r="2.44"/><circle class="cls-23" cx="430.13" cy="582.59" r="2.44" transform="translate(-335.91 264.99) rotate(-33.91)"/><circle class="cls-23" cx="436.99" cy="575.25" r="2.44" transform="translate(-368.36 461.09) rotate(-49.59)"/><circle class="cls-23" cx="445.63" cy="568.25" r="2.44" transform="translate(-249.69 878.72) rotate(-84.07)"/><circle class="cls-23" cx="455.96" cy="561.51" r="2.44" transform="translate(-321.24 694.23) rotate(-67.53)"/><path class="cls-23" d="M465.69,554a2.44,2.44,0,1,1-.36,3.44A2.43,2.43,0,0,1,465.69,554Z" transform="translate(-84.05 -74.04)"/><circle class="cls-23" cx="369.7" cy="456.7" r="2.44"/><path class="cls-23" d="M435.54,537.22a2.44,2.44,0,1,1-.36,3.44A2.43,2.43,0,0,1,435.54,537.22Z" transform="translate(-84.05 -74.04)"/><circle class="cls-23" cx="338.37" cy="474.58" r="2.44"/><circle class="cls-23" cx="409.67" cy="558.79" r="2.44" transform="translate(-344.21 307.52) rotate(-38.93)"/><circle class="cls-23" cx="399.98" cy="569.63" r="2.44" transform="translate(-250.52 91.12) rotate(-19.4)"/><path class="cls-23" d="M391.61,578.18a2.44,2.44,0,1,1-.35,3.43A2.45,2.45,0,0,1,391.61,578.18Z" transform="translate(-84.05 -74.04)"/><path class="cls-23" d="M388.4,588.46a2.44,2.44,0,1,1-.35,3.43A2.45,2.45,0,0,1,388.4,588.46Z" transform="translate(-84.05 -74.04)"/><circle class="cls-23" cx="306.1" cy="525.85" r="2.44"/><circle class="cls-23" cx="393.81" cy="608.01" r="2.44" transform="translate(-341.86 850.43) rotate(-82.97)"/><circle class="cls-23" cx="316.99" cy="540.85" r="2.44"/><circle class="cls-23" cx="411.07" cy="619.88" r="2.44" transform="translate(-318.25 915.77) rotate(-86.28)"/><circle class="cls-23" cx="423.85" cy="623.02" r="2.44" transform="translate(-392.64 371.95) rotate(-42.18)"/><circle class="cls-23" cx="471.3" cy="523.86" r="2.44" transform="translate(-308.57 338.49) rotate(-38.93)"/><circle class="cls-23" cx="405.08" cy="444.76" r="2.44"/><circle class="cls-23" cx="507.08" cy="515.67" r="2.44" transform="translate(-267.53 226.74) rotate(-28.2)"/><circle class="cls-23" cx="523.76" cy="514.55" r="2.44" transform="translate(-289.83 523.39) rotate(-50.97)"/><path class="cls-23" d="M539,517.91a2.44,2.44,0,1,1,2.17-2.68A2.44,2.44,0,0,1,539,517.91Z" transform="translate(-84.05 -74.04)"/><circle class="cls-23" cx="551.74" cy="518.31" r="2.44" transform="translate(-263.48 248.15) rotate(-28.2)"/><circle class="cls-23" cx="561.92" cy="523.6" r="2.44" transform="translate(-280.46 327.72) rotate(-33.85)"/><circle class="cls-23" cx="569.04" cy="530.15" r="2.44" transform="translate(-267.02 257.73) rotate(-28.2)"/><circle class="cls-23" cx="572.6" cy="538.41" r="2.44" transform="translate(-270.5 260.39) rotate(-28.2)"/><path class="cls-23" d="M573.14,550.5a2.44,2.44,0,1,1,2.17-2.68A2.45,2.45,0,0,1,573.14,550.5Z" transform="translate(-84.05 -74.04)"/><path class="cls-23" d="M569.91,560.72a2.44,2.44,0,1,1,2.18-2.68A2.44,2.44,0,0,1,569.91,560.72Z" transform="translate(-84.05 -74.04)"/><circle class="cls-23" cx="563.11" cy="568.9" r="2.44" transform="translate(-276.05 760.48) rotate(-64.67)"/><circle class="cls-23" cx="566.19" cy="564.82" r="2.44" transform="translate(-270.6 760.92) rotate(-64.67)"/><circle class="cls-23" cx="578.56" cy="550.72" r="2.44" transform="translate(-57.28 1054.22) rotate(-89.89)"/><circle class="cls-23" cx="587.07" cy="537.09" r="2.44" transform="translate(-233.59 763.93) rotate(-64.67)"/><circle class="cls-23" cx="591.31" cy="524.3" r="2.44" transform="translate(-126.33 922.61) rotate(-78.27)"/><circle class="cls-23" cx="506.89" cy="438.1" r="2.44"/><path class="cls-23" d="M587.18,504.25a2.44,2.44,0,1,1,1.47-3.12A2.43,2.43,0,0,1,587.18,504.25Z" transform="translate(-84.05 -74.04)"/><circle class="cls-23" cx="493.12" cy="419.14" r="2.44"/><path class="cls-23" d="M565,489.17a2.44,2.44,0,1,1,1.47-3.12A2.44,2.44,0,0,1,565,489.17Z" transform="translate(-84.05 -74.04)"/><circle class="cls-23" cx="463.75" cy="408.91" r="2.44"/><path class="cls-23" d="M529.54,484.14A2.44,2.44,0,1,1,531,481,2.44,2.44,0,0,1,529.54,484.14Z" transform="translate(-84.05 -74.04)"/><circle class="cls-23" cx="423.19" cy="409.12" r="2.44"/><circle class="cls-23" cx="484.85" cy="487.2" r="2.44" transform="translate(-250.79 194.36) rotate(-26.58)"/><circle class="cls-23" cx="377.81" cy="419.78" r="2.44"/><path class="cls-23" d="M440.26,504.69a2.44,2.44,0,1,1,1.48-3.12A2.43,2.43,0,0,1,440.26,504.69Z" transform="translate(-84.05 -74.04)"/><circle class="cls-23" cx="334.37" cy="439.28" r="2.44"/><circle class="cls-23" cx="315.44" cy="451.1" r="2.44"/><path class="cls-23" d="M384.53,540.43a2.44,2.44,0,1,1,1.48-3.12A2.44,2.44,0,0,1,384.53,540.43Z" transform="translate(-84.05 -74.04)"/><path class="cls-23" d="M371.9,554a2.44,2.44,0,1,1,1.47-3.12A2.44,2.44,0,0,1,371.9,554Z" transform="translate(-84.05 -74.04)"/><path class="cls-23" d="M363.23,568a2.44,2.44,0,1,1,1.48-3.12A2.44,2.44,0,0,1,363.23,568Z" transform="translate(-84.05 -74.04)"/><circle class="cls-23" cx="274.13" cy="504.44" r="2.44"/><path class="cls-23" d="M359.27,593a2.44,2.44,0,1,1,1.47-3.12A2.44,2.44,0,0,1,359.27,593Z" transform="translate(-84.05 -74.04)"/><circle class="cls-23" cx="363.4" cy="600.92" r="2.44" transform="matrix(0.79, -0.62, 0.62, 0.79, -376.9, 276.87)"/><path class="cls-23" d="M372.92,612a2.44,2.44,0,1,1,1.48-3.12A2.45,2.45,0,0,1,372.92,612Z" transform="translate(-84.05 -74.04)"/><circle class="cls-23" cx="385.22" cy="616.19" r="2.44" transform="translate(-420.58 626.74) rotate(-64.67)"/><path class="cls-23" d="M362.29,608.09a2.44,2.44,0,1,1,1.47-3.12A2.43,2.43,0,0,1,362.29,608.09Z" transform="translate(-84.05 -74.04)"/><circle class="cls-23" cx="346.16" cy="598.14" r="2.44" transform="translate(-336.67 869.15) rotate(-89.89)"/><circle class="cls-23" cx="335.49" cy="588.22" r="2.44" transform="translate(-393.36 721.04) rotate(-78.09)"/><path class="cls-23" d="M330.75,578a2.44,2.44,0,1,1,1.48-3.12A2.44,2.44,0,0,1,330.75,578Z" transform="translate(-84.05 -74.04)"/><circle class="cls-23" cx="245.83" cy="487.15" r="2.44"/><circle class="cls-23" cx="250.58" cy="472.28" r="2.44"/><circle class="cls-23" cx="260.75" cy="456.03" r="2.44"/><circle class="cls-23" cx="275.44" cy="440.2" r="2.44"/><path class="cls-23" d="M379.05,501.07a2.44,2.44,0,1,1,1.48-3.12A2.44,2.44,0,0,1,379.05,501.07Z" transform="translate(-84.05 -74.04)"/><circle class="cls-23" cx="400.69" cy="484.74" r="2.44" transform="translate(-168.84 810.49) rotate(-89.89)"/><circle class="cls-23" cx="425.22" cy="472.17" r="2.44" transform="translate(-132.64 821.52) rotate(-89.78)"/><path class="cls-23" d="M452.49,464.23a2.44,2.44,0,1,1,1.48-3.12A2.44,2.44,0,0,1,452.49,464.23Z" transform="translate(-84.05 -74.04)"/><path class="cls-23" d="M479.49,456.74a2.44,2.44,0,1,1,1.47-3.12A2.44,2.44,0,0,1,479.49,456.74Z" transform="translate(-84.05 -74.04)"/><circle class="cls-23" cx="420.87" cy="375.55" r="2.44"/><path class="cls-23" d="M530.75,450.2a2.44,2.44,0,1,1,1.48-3.12A2.43,2.43,0,0,1,530.75,450.2Z" transform="translate(-84.05 -74.04)"/><path class="cls-23" d="M553.44,451.81a2.44,2.44,0,1,1,1.48-3.12A2.45,2.45,0,0,1,553.44,451.81Z" transform="translate(-84.05 -74.04)"/><circle class="cls-23" cx="487.99" cy="379.89" r="2.44"/><path class="cls-23" d="M588,463.55a2.44,2.44,0,1,1,1.47-3.12A2.43,2.43,0,0,1,588,463.55Z" transform="translate(-84.05 -74.04)"/><circle class="cls-23" cx="597.75" cy="471.35" r="2.44" transform="translate(40.05 993.23) rotate(-89.78)"/><circle class="cls-23" cx="519.13" cy="409.85" r="2.44"/><path class="cls-23" d="M610.69,471.92a2.44,2.44,0,1,1,1.48-3.12A2.45,2.45,0,0,1,610.69,471.92Z" transform="translate(-84.05 -74.04)"/><circle class="cls-23" cx="525.43" cy="379.86" r="2.44"/><path class="cls-23" d="M604.13,442.43a2.44,2.44,0,1,1,1.47-3.12A2.44,2.44,0,0,1,604.13,442.43Z" transform="translate(-84.05 -74.04)"/><circle class="cls-23" cx="609.27" cy="440.5" r="2.44" transform="translate(-133.58 728.73) rotate(-64.67)"/><path class="cls-23" d="M592.19,431.15a2.44,2.44,0,1,1,1.47-3.12A2.44,2.44,0,0,1,592.19,431.15Z" transform="translate(-84.05 -74.04)"/><circle class="cls-23" cx="490.37" cy="346.7" r="2.44"/><path class="cls-23" d="M553.7,417.87a2.44,2.44,0,1,1,1.48-3.12A2.45,2.45,0,0,1,553.7,417.87Z" transform="translate(-84.05 -74.04)"/><path class="cls-23" d="M528.73,416.23a2.44,2.44,0,1,1,1.47-3.12A2.44,2.44,0,0,1,528.73,416.23Z" transform="translate(-84.05 -74.04)"/><path class="cls-23" d="M500.9,418.14a2.44,2.44,0,1,1,1.48-3.12A2.45,2.45,0,0,1,500.9,418.14Z" transform="translate(-84.05 -74.04)"/><path class="cls-23" d="M471.39,423.42a2.44,2.44,0,1,1,1.48-3.12A2.43,2.43,0,0,1,471.39,423.42Z" transform="translate(-84.05 -74.04)"/><path class="cls-23" d="M441.44,432a2.44,2.44,0,1,1,1.48-3.12A2.44,2.44,0,0,1,441.44,432Z" transform="translate(-84.05 -74.04)"/><path class="cls-23" d="M412.3,443.47a2.44,2.44,0,1,1,1.47-3.12A2.44,2.44,0,0,1,412.3,443.47Z" transform="translate(-84.05 -74.04)"/><circle class="cls-23" cx="383.97" cy="454.85" r="2.44" transform="translate(-289 467.38) rotate(-58.19)"/><path class="cls-23" d="M359,473.29a2.44,2.44,0,1,1,2.66-2.2A2.45,2.45,0,0,1,359,473.29Z" transform="translate(-84.05 -74.04)"/><circle class="cls-23" cx="254.16" cy="413.75" r="2.44"/><circle class="cls-23" cx="237.9" cy="431.58" r="2.44"/><path class="cls-23" d="M310.79,525.91a2.44,2.44,0,1,1,2.66-2.2A2.44,2.44,0,0,1,310.79,525.91Z" transform="translate(-84.05 -74.04)"/><path class="cls-23" d="M305.07,542.9a2.44,2.44,0,1,1,2.66-2.2A2.44,2.44,0,0,1,305.07,542.9Z" transform="translate(-84.05 -74.04)"/><path class="cls-23" d="M305.64,558.6a2.44,2.44,0,1,1,2.66-2.2A2.45,2.45,0,0,1,305.64,558.6Z" transform="translate(-84.05 -74.04)"/><path class="cls-23" d="M292.39,549.47a2.44,2.44,0,1,1,2.66-2.2A2.44,2.44,0,0,1,292.39,549.47Z" transform="translate(-84.05 -74.04)"/><circle class="cls-23" cx="202.03" cy="458.35" r="2.44"/><path class="cls-23" d="M278.56,522.85a2.44,2.44,0,1,1,2.66-2.2A2.43,2.43,0,0,1,278.56,522.85Z" transform="translate(-84.05 -74.04)"/><path class="cls-23" d="M285.67,518.07a2.44,2.44,0,1,1,2.66-2.2A2.44,2.44,0,0,1,285.67,518.07Z" transform="translate(-84.05 -74.04)"/><path class="cls-23" d="M291.62,500.06a2.44,2.44,0,1,1,.46-4.86,2.44,2.44,0,0,1-.46,4.86Z" transform="translate(-84.05 -74.04)"/><path class="cls-23" d="M272.54,508.05a2.44,2.44,0,1,1,2.66-2.2A2.44,2.44,0,0,1,272.54,508.05Z" transform="translate(-84.05 -74.04)"/><circle class="cls-23" cx="188.29" cy="414.54" r="2.44"/><circle class="cls-23" cx="303.53" cy="478.81" r="2.44" transform="translate(-112.69 -54.64) rotate(-3.5)"/><circle class="cls-23" cx="320.95" cy="460.06" r="2.44" transform="translate(-87.78 -71.42) rotate(-0.47)"/><circle class="cls-23" cx="259.08" cy="367.85" r="2.44"/><circle class="cls-23" cx="285.2" cy="351.25" r="2.44"/><circle class="cls-23" cx="314.69" cy="336.13" r="2.44"/><path class="cls-23" d="M427.79,396.49a2.44,2.44,0,1,1,.11,3.45A2.45,2.45,0,0,1,427.79,396.49Z" transform="translate(-84.05 -74.04)"/><path class="cls-23" d="M459.85,387.58A2.44,2.44,0,1,1,460,391,2.44,2.44,0,0,1,459.85,387.58Z" transform="translate(-84.05 -74.04)"/><circle class="cls-23" cx="492.88" cy="383.39" r="2.44" transform="translate(-87.15 -70.02) rotate(-0.47)"/><circle class="cls-23" cx="438.33" cy="307.52" r="2.44"/><circle class="cls-23" cx="464.8" cy="309.33" r="2.44"/><circle class="cls-23" cx="487.7" cy="314.54" r="2.44"/><circle class="cls-23" cx="589.79" cy="397.33" r="2.44" transform="translate(-94.84 704.13) rotate(-66.35)"/><circle class="cls-23" cx="518.25" cy="335.36" r="2.44"/><circle class="cls-23" cx="517.59" cy="320.7" r="2.44"/><circle class="cls-23" cx="595.15" cy="380.21" r="2.44" transform="translate(39.27 831.66) rotate(-80.65)"/><circle class="cls-23" cx="498.01" cy="293.96" r="2.44"/><path class="cls-23" d="M562.5,356.79a2.44,2.44,0,1,1-1,3.29A2.44,2.44,0,0,1,562.5,356.79Z" transform="translate(-84.05 -74.04)"/><circle class="cls-23" cx="497.24" cy="279.42" r="2.44"/><circle class="cls-23" cx="484.85" cy="267.48" r="2.44"/><circle class="cls-23" cx="562.76" cy="330.5" r="2.44" transform="translate(-119.38 -4.74) rotate(-6.83)"/><circle class="cls-23" cx="501.52" cy="325.83" r="2.44" transform="translate(-106.9 -35.84) rotate(-4.27)"/><path class="cls-23" d="M510.3,304.54a2.44,2.44,0,1,1,.41,3.43A2.44,2.44,0,0,1,510.3,304.54Z" transform="translate(-84.05 -74.04)"/><circle class="cls-23" cx="449.86" cy="237.04" r="2.44"/><path class="cls-23" d="M526.37,300.44a2.44,2.44,0,1,1,.41,3.43A2.44,2.44,0,0,1,526.37,300.44Z" transform="translate(-84.05 -74.04)"/><path class="cls-23" d="M511.09,293.12a2.44,2.44,0,1,1,.41,3.42A2.44,2.44,0,0,1,511.09,293.12Z" transform="translate(-84.05 -74.04)"/><circle class="cls-23" cx="487.09" cy="304.28" r="2.44" transform="translate(-116.8 -13.93) rotate(-6.83)"/><circle class="cls-23" cx="493.62" cy="290.14" r="2.44" transform="matrix(1, -0.04, 0.04, 1, -94.13, -56.18)"/><circle class="cls-23" cx="404.99" cy="209.96" r="2.44"/><circle class="cls-23" cx="386.85" cy="215.1" r="2.44"/><circle class="cls-23" cx="388.47" cy="206.17" r="2.44"/><circle class="cls-23" cx="361.82" cy="216.43" r="2.44"/><circle class="cls-23" cx="456.56" cy="279.45" r="2.44"/><circle class="cls-23" cx="513.26" cy="351.78" r="2.44" transform="translate(55.88 775.55) rotate(-87.56)"/><circle class="cls-23" cx="483.24" cy="353.83" r="2.44" transform="translate(-199.36 301.14) rotate(-38.25)"/><circle class="cls-23" cx="375.17" cy="232.18" r="2.44"/><circle class="cls-23" cx="472.07" cy="327.66" r="2.44" transform="translate(-53.1 621.89) rotate(-74.62)"/><circle class="cls-23" cx="356.69" cy="259.19" r="2.44"/><circle class="cls-23" cx="324.96" cy="268.19" r="2.44"/><path class="cls-23" d="M416.71,369.54a2.44,2.44,0,1,1,3.16,1.38A2.44,2.44,0,0,1,416.71,369.54Z" transform="translate(-84.05 -74.04)"/><path class="cls-23" d="M385.11,381.91a2.44,2.44,0,1,1,3.16,1.39A2.44,2.44,0,0,1,385.11,381.91Z" transform="translate(-84.05 -74.04)"/><circle class="cls-23" cx="367.37" cy="285.69" r="2.44"/><circle class="cls-23" cx="444.14" cy="253.36" r="2.44"/><circle class="cls-23" cx="550.94" cy="332.79" r="2.44" transform="translate(49.02 748.32) rotate(-80.65)"/><circle class="cls-23" cx="466.66" cy="245.09" r="2.44"/><path class="cls-23" d="M313.79,571.16a2.44,2.44,0,1,1-.42-3.42A2.44,2.44,0,0,1,313.79,571.16Z" transform="translate(-84.05 -74.04)"/><circle class="cls-23" cx="239.52" cy="506.98" r="2.44"/><path class="cls-23" d="M609.76,425.94a2.44,2.44,0,1,1,1.48-3.12A2.44,2.44,0,0,1,609.76,425.94Z" transform="translate(-84.05 -74.04)"/><path class="cls-23" d="M604.62,500a2.44,2.44,0,1,1,1.48-3.12A2.45,2.45,0,0,1,604.62,500Z" transform="translate(-84.05 -74.04)"/><circle class="cls-23" cx="599.04" cy="513.31" r="2.44" transform="translate(-205.24 761.14) rotate(-64.67)"/><path class="cls-23" d="M554,581.79a2.44,2.44,0,1,1,1.48-3.12A2.44,2.44,0,0,1,554,581.79Z" transform="translate(-84.05 -74.04)"/><path class="cls-23" d="M541.41,592.22a2.44,2.44,0,1,1,1.47-3.12A2.43,2.43,0,0,1,541.41,592.22Z" transform="translate(-84.05 -74.04)"/><circle class="cls-23" cx="293.91" cy="280.55" r="2.44"/><circle class="cls-23" cx="370.76" cy="331.61" r="2.44" transform="translate(-123.75 -23.41) rotate(-7.42)"/><circle class="cls-23" cx="400" cy="320.05" r="2.44" transform="translate(-122.02 -19.74) rotate(-7.42)"/><circle class="cls-23" cx="429.93" cy="311.6" r="2.44" transform="translate(-184.93 224.15) rotate(-34.49)"/><circle class="cls-23" cx="419.71" cy="295.52" r="2.44" transform="translate(-177.47 207.62) rotate(-33.6)"/><circle class="cls-23" cx="325.77" cy="210.84" r="2.44"/><circle class="cls-23" cx="432.35" cy="280.63" r="2.44" transform="translate(-129.52 13.28) rotate(-10.96)"/><path class="cls-23" d="M451.05,280.24a2.44,2.44,0,1,1,3.16,1.39A2.44,2.44,0,0,1,451.05,280.24Z" transform="translate(-84.05 -74.04)"/><path class="cls-23" d="M448.33,278.45a2.44,2.44,0,1,1,3.17,1.38A2.44,2.44,0,0,1,448.33,278.45Z" transform="translate(-84.05 -74.04)"/><circle class="cls-23" cx="435.55" cy="276.03" r="2.44" transform="translate(-163.8 221.08) rotate(-34.49)"/><path class="cls-23" d="M416.55,278.48a2.44,2.44,0,1,1,3.16,1.38A2.44,2.44,0,0,1,416.55,278.48Z" transform="translate(-84.05 -74.04)"/><circle class="cls-23" cx="400.84" cy="280.84" r="2.44" transform="matrix(0.82, -0.57, 0.57, 0.82, -172.62, 202.27)"/><path class="cls-23" d="M384.21,292.39a2.44,2.44,0,1,1,3.16,1.39A2.44,2.44,0,0,1,384.21,292.39Z" transform="translate(-84.05 -74.04)"/><circle class="cls-23" cx="299.01" cy="211.77" r="2.44"/><path class="cls-23" d="M378.65,287.47a2.44,2.44,0,1,1,3.16,1.38A2.42,2.42,0,0,1,378.65,287.47Z" transform="translate(-84.05 -74.04)"/><path class="cls-23" d="M361.94,301.05a2.44,2.44,0,1,1,3.16,1.38A2.44,2.44,0,0,1,361.94,301.05Z" transform="translate(-84.05 -74.04)"/><circle class="cls-23" cx="365.2" cy="292.89" r="2.44" transform="translate(-161.7 67.05) rotate(-19.81)"/><path class="cls-23" d="M366.27,291.89a2.44,2.44,0,1,1,3.16,1.39A2.44,2.44,0,0,1,366.27,291.89Z" transform="translate(-84.05 -74.04)"/><circle class="cls-23" cx="348.58" cy="300.91" r="2.44" transform="translate(-192.33 169.16) rotate(-33.6)"/><circle class="cls-23" cx="259.23" cy="236.78" r="2.44"/><circle class="cls-23" cx="237.24" cy="246.99" r="2.44"/><circle class="cls-23" cx="249.86" cy="236.67" r="2.44"/><circle class="cls-23" cx="281.96" cy="239.29" r="2.44"/><circle class="cls-23" cx="392.49" cy="302.9" r="2.44" transform="translate(-186.58 201.42) rotate(-34.49)"/><path class="cls-23" d="M340.81,346.33a2.44,2.44,0,1,1,3.16,1.39A2.44,2.44,0,0,1,340.81,346.33Z" transform="translate(-84.05 -74.04)"/><circle class="cls-23" cx="235.2" cy="266.03" r="2.44"/><circle class="cls-23" cx="224.34" cy="261.76" r="2.44"/><circle class="cls-23" cx="311.47" cy="331.25" r="2.44" transform="translate(-129.83 -24.07) rotate(-8.55)"/><path class="cls-23" d="M293.65,350.34a2.44,2.44,0,1,1,3.17,1.38A2.44,2.44,0,0,1,293.65,350.34Z" transform="translate(-84.05 -74.04)"/><circle class="cls-23" cx="300.27" cy="355.22" r="2.44" transform="translate(-230.47 151.5) rotate(-33.6)"/><path class="cls-23" d="M316.31,362.28a2.44,2.44,0,1,1,3.16,1.38A2.44,2.44,0,0,1,316.31,362.28Z" transform="translate(-84.05 -74.04)"/><circle class="cls-23" cx="202.9" cy="288.98" r="2.44"/><circle class="cls-23" cx="201.52" cy="297.28" r="2.44"/><circle class="cls-23" cx="213.7" cy="304.47" r="2.44"/><circle class="cls-23" cx="191.49" cy="313.1" r="2.44"/><circle class="cls-23" cx="197.08" cy="322.16" r="2.44"/><circle class="cls-23" cx="186.4" cy="328.26" r="2.44"/><path class="cls-23" d="M267.79,414.67a2.44,2.44,0,1,1,3.16,1.38A2.45,2.45,0,0,1,267.79,414.67Z" transform="translate(-84.05 -74.04)"/><circle class="cls-23" cx="198.77" cy="348.93" r="2.44"/><circle class="cls-23" cx="300.32" cy="404.27" r="2.44" transform="translate(-268.31 193.09) rotate(-37.59)"/><circle class="cls-23" cx="238.56" cy="311.96" r="2.44"/><circle class="cls-23" cx="264.77" cy="295.2" r="2.44"/><path class="cls-23" d="M355.39,397.38a2.44,2.44,0,1,1,3.17,1.38A2.45,2.45,0,0,1,355.39,397.38Z" transform="translate(-84.05 -74.04)"/><path class="cls-23" d="M328.17,414a2.44,2.44,0,1,1,3.16,1.38A2.44,2.44,0,0,1,328.17,414Z" transform="translate(-84.05 -74.04)"/><path class="cls-23" d="M305.63,433.13a2.44,2.44,0,1,1,3.16,1.39A2.44,2.44,0,0,1,305.63,433.13Z" transform="translate(-84.05 -74.04)"/><path class="cls-23" d="M288.13,451.83a2.44,2.44,0,1,1,3.16,1.39A2.44,2.44,0,0,1,288.13,451.83Z" transform="translate(-84.05 -74.04)"/><circle class="cls-23" cx="270.96" cy="442" r="2.44" transform="translate(-138.84 -35.37) rotate(-7.42)"/><circle class="cls-23" cx="180.08" cy="356.58" r="2.44"/><path class="cls-23" d="M262.61,447.14a2.44,2.44,0,1,1,3.16,1.38A2.43,2.43,0,0,1,262.61,447.14Z" transform="translate(-84.05 -74.04)"/><path class="cls-23" d="M262.7,460.92a2.44,2.44,0,1,1,3.16,1.39A2.44,2.44,0,0,1,262.7,460.92Z" transform="translate(-84.05 -74.04)"/><circle class="cls-23" cx="264.71" cy="476.71" r="2.44" transform="translate(-319.9 186.41) rotate(-37.59)"/><circle class="cls-23" cx="278.37" cy="470.45" r="2.44" transform="translate(-142.45 -34.18) rotate(-7.42)"/></g><g class="cls-24"><path class="cls-4" d="M271.1,373.69a4.06,4.06,0,0,0,3.36-6.33c-.42-.63-.83-1.27-1.24-1.91a88.18,88.18,0,1,1,149.11-94.18c.61,1,1.18,1.91,1.7,2.81a4.06,4.06,0,1,0,7-4.05c-.57-1-1.2-2-1.86-3.09A96.3,96.3,0,1,0,266.35,369.78c.44.69.91,1.41,1.39,2.12A4,4,0,0,0,271.1,373.69Z" transform="translate(-84.05 -74.04)"/><path class="cls-4" d="M254,420.73a4.06,4.06,0,0,0,2.81-7,131.42,131.42,0,0,1-20.46-25c-38.8-61.43-20.39-143,41-181.76s143-20.38,181.75,41.05a131.29,131.29,0,0,1,14.25,30.61,4.06,4.06,0,0,0,7.74-2.46A139.86,139.86,0,1,0,251.23,419.61,4.1,4.1,0,0,0,254,420.73Z" transform="translate(-84.05 -74.04)"/><path class="cls-4" d="M250.46,472a4.06,4.06,0,0,0,2.22-7.46A174.34,174.34,0,1,1,520.86,297.17a4.06,4.06,0,1,0,8.06-1A182.45,182.45,0,1,0,248.26,471.31,4,4,0,0,0,250.46,472Z" transform="translate(-84.05 -74.04)"/><path class="cls-4" d="M299.66,333.71a4.36,4.36,0,0,0,.93-.11,4.06,4.06,0,0,0,3-4.88,45.37,45.37,0,0,1,72.86-45.51,4.06,4.06,0,1,0,5-6.39,53.48,53.48,0,0,0-85.76,53.76A4.05,4.05,0,0,0,299.66,333.71Z" transform="translate(-84.05 -74.04)"/></g><path class="cls-4" d="M377.69,283h0a4.06,4.06,0,1,0-4.06-4A4.05,4.05,0,0,0,377.7,283Z" transform="translate(-84.05 -74.04)"/></g></g></svg>