<svg id="Layer_1" data-name="Layer 1" xmlns="http://www.w3.org/2000/svg" xmlns:xlink="http://www.w3.org/1999/xlink" viewBox="0 0 407.33 353.54"><defs><style>.cls-1{fill:#0b0244;opacity:0.13;}.cls-14,.cls-15,.cls-16,.cls-17,.cls-18,.cls-2,.cls-6{opacity:0.7;}.cls-3{fill:url(#linear-gradient);}.cls-4{fill:url(#linear-gradient-2);}.cls-5{fill:url(#linear-gradient-3);}.cls-6{fill:url(#linear-gradient-4);}.cls-7{fill:url(#linear-gradient-5);}.cls-8{fill:url(#linear-gradient-6);}.cls-9{fill:url(#linear-gradient-7);}.cls-10{fill:url(#linear-gradient-8);}.cls-11{fill:url(#linear-gradient-9);}.cls-12{fill:url(#linear-gradient-10);}.cls-13{fill:url(#linear-gradient-11);}.cls-14{fill:url(#linear-gradient-12);}.cls-15{fill:url(#linear-gradient-13);}.cls-16{fill:url(#linear-gradient-14);}.cls-17{fill:url(#linear-gradient-15);}.cls-18{fill:url(#linear-gradient-16);}.cls-19{fill:url(#linear-gradient-17);}.cls-20{fill:#848cef;}.cls-21{fill:#0f054c;}.cls-22,.cls-23,.cls-24,.cls-25,.cls-26,.cls-27,.cls-28{opacity:0.5;}.cls-22{fill:url(#Áåçûìÿííûé_ãðàäèåíò_254);}.cls-23{fill:url(#Áåçûìÿííûé_ãðàäèåíò_254-2);}.cls-24{fill:url(#Áåçûìÿííûé_ãðàäèåíò_254-3);}.cls-25{fill:url(#Áåçûìÿííûé_ãðàäèåíò_254-4);}.cls-26,.cls-29{fill:#42e8e0;}.cls-27{fill:url(#Áåçûìÿííûé_ãðàäèåíò_254-5);}.cls-28{fill:url(#linear-gradient-18);}.cls-29{opacity:0.8;}.cls-30{fill:#a66039;}.cls-31{fill:#fff;}</style><linearGradient id="linear-gradient" x1="-179.05" y1="287.16" x2="-122.2" y2="287.16" gradientTransform="matrix(-0.88, 0.47, 0.47, 0.88, -111.71, 104.21)" gradientUnits="userSpaceOnUse"><stop offset="0" stop-color="#f58c4d"/><stop offset="0.17" stop-color="#f0894c"/><stop offset="0.38" stop-color="#e28249"/><stop offset="0.6" stop-color="#ca7645"/><stop offset="0.83" stop-color="#a9653f"/><stop offset="1" stop-color="#8c5639"/></linearGradient><linearGradient id="linear-gradient-2" x1="-59.33" y1="271.66" x2="-2.48" y2="271.66" gradientTransform="matrix(0.97, -0.23, 0.23, 0.97, 206.57, -16.15)" xlink:href="#linear-gradient"/><linearGradient id="linear-gradient-3" x1="-270.99" y1="256.18" x2="-221.39" y2="256.18" gradientTransform="matrix(1, -0.1, 0.1, 1, 446.49, -62.99)" xlink:href="#linear-gradient"/><linearGradient id="linear-gradient-4" x1="-414.79" y1="257.62" x2="-369.61" y2="257.62" gradientTransform="translate(611.4 -76.19) rotate(-0.05)" xlink:href="#linear-gradient"/><linearGradient id="linear-gradient-5" x1="-317.47" y1="198.87" x2="-279.3" y2="198.87" gradientTransform="translate(498.12 -69.53) rotate(-3.85)" xlink:href="#linear-gradient"/><linearGradient id="linear-gradient-6" x1="-74.21" y1="129.77" x2="-36.05" y2="129.77" gradientTransform="translate(233.82 -21.46) rotate(-13.05)" xlink:href="#linear-gradient"/><linearGradient id="linear-gradient-7" x1="-137.96" y1="230.78" x2="-86.51" y2="230.78" gradientTransform="matrix(-0.9, 0.44, 0.44, 0.9, -56.41, 83.23)" xlink:href="#linear-gradient"/><linearGradient id="linear-gradient-8" x1="84.7" y1="162.19" x2="128.69" y2="162.19" gradientTransform="matrix(-0.95, 0.3, 0.3, 0.95, 193.01, 9.7)" xlink:href="#linear-gradient"/><linearGradient id="linear-gradient-9" x1="304.12" y1="134.51" x2="342.86" y2="134.51" gradientTransform="matrix(-0.99, 0.16, 0.16, 0.99, 440.16, -25.73)" xlink:href="#linear-gradient"/><linearGradient id="linear-gradient-10" x1="751.73" y1="225.22" x2="787.95" y2="225.22" gradientTransform="matrix(-0.99, -0.15, -0.15, 0.99, 942.46, 14.06)" xlink:href="#linear-gradient"/><linearGradient id="linear-gradient-11" x1="1572.56" y1="1750.13" x2="1603.64" y2="1750.13" gradientTransform="matrix(-0.16, -0.99, -0.99, 0.16, 2175.89, 1370.24)" xlink:href="#linear-gradient"/><linearGradient id="linear-gradient-12" x1="1021.16" y1="269.4" x2="1170.46" y2="269.4" gradientTransform="matrix(-0.94, -0.34, -0.34, 0.94, 1314.52, 308.45)" gradientUnits="userSpaceOnUse"><stop offset="0" stop-color="#f8d6c3" stop-opacity="0.7"/><stop offset="0.2" stop-color="#f8d1ba" stop-opacity="0.72"/><stop offset="0.44" stop-color="#f7c1a2" stop-opacity="0.77"/><stop offset="0.7" stop-color="#f6a878" stop-opacity="0.86"/><stop offset="0.97" stop-color="#f4843f" stop-opacity="0.99"/><stop offset="1" stop-color="#4F81BD"/></linearGradient><linearGradient id="linear-gradient-13" x1="-308.94" y1="376.61" x2="-232.25" y2="376.61" gradientTransform="translate(767.47 -20.87) rotate(22.42)" xlink:href="#linear-gradient-12"/><linearGradient id="linear-gradient-14" x1="-306.1" y1="376.46" x2="-233.08" y2="376.46" gradientTransform="translate(767.47 -20.87) rotate(22.42)" xlink:href="#linear-gradient-12"/><linearGradient id="linear-gradient-15" x1="97.13" y1="206.63" x2="153.59" y2="206.63" gradientTransform="translate(215.48 -21.9) rotate(7.08)" xlink:href="#linear-gradient-12"/><linearGradient id="linear-gradient-16" x1="99.22" y1="206.51" x2="152.98" y2="206.51" gradientTransform="translate(215.48 -21.9) rotate(7.08)" xlink:href="#linear-gradient-12"/><linearGradient id="linear-gradient-17" x1="37.65" y1="293.51" x2="354.3" y2="293.51" gradientUnits="userSpaceOnUse"><stop offset="0" stop-color="#4d5595"/><stop offset="0.15" stop-color="#545c9c"/><stop offset="0.38" stop-color="#686eae"/><stop offset="0.65" stop-color="#888dcd"/><stop offset="0.95" stop-color="#b4b6f7"/><stop offset="1" stop-color="#bcbeff"/></linearGradient><linearGradient id="Áåçûìÿííûé_ãðàäèåíò_254" x1="127.26" y1="250.72" x2="317.33" y2="250.72" gradientUnits="userSpaceOnUse"><stop offset="0" stop-color="#42e8e0"/><stop offset="0.15" stop-color="#43e3e0"/><stop offset="0.33" stop-color="#45d5df"/><stop offset="0.52" stop-color="#49bddd"/><stop offset="0.72" stop-color="#4e9cdb"/><stop offset="0.93" stop-color="#5472d8"/><stop offset="1" stop-color="#5761d7"/></linearGradient><linearGradient id="Áåçûìÿííûé_ãðàäèåíò_254-2" x1="222.29" y1="216.37" x2="317.33" y2="216.37" xlink:href="#Áåçûìÿííûé_ãðàäèåíò_254"/><linearGradient id="Áåçûìÿííûé_ãðàäèåíò_254-3" x1="127.26" y1="216.37" x2="222.3" y2="216.37" xlink:href="#Áåçûìÿííûé_ãðàäèåíò_254"/><linearGradient id="Áåçûìÿííûé_ãðàäèåíò_254-4" x1="127.26" y1="236.88" x2="317.33" y2="236.88" xlink:href="#Áåçûìÿííûé_ãðàäèåíò_254"/><linearGradient id="Áåçûìÿííûé_ãðàäèåíò_254-5" x1="222.3" y1="271.24" x2="317.33" y2="271.24" xlink:href="#Áåçûìÿííûé_ãðàäèåíò_254"/><linearGradient id="linear-gradient-18" x1="127.26" y1="271.24" x2="222.3" y2="271.24" gradientUnits="userSpaceOnUse"><stop offset="0" stop-color="#6ccace"/><stop offset="0.17" stop-color="#6bc5ce"/><stop offset="0.38" stop-color="#68b7d0"/><stop offset="0.6" stop-color="#639fd2"/><stop offset="0.83" stop-color="#5d7ed5"/><stop offset="1" stop-color="#5761d7"/></linearGradient></defs><path class="cls-1" d="M215.5,253.54a4.72,4.72,0,0,0-3.64-.78,25.46,25.46,0,0,0-17.17,13.89c-5.38,11.51,3,19.42,4.75,20.9a66.76,66.76,0,0,1-4.58,5.84c-2.54-1.38-5.23-2.86-8-4.45-4.54-2.55-9.36-5.39-14.41-8.43l-3.79-2.33L166.69,277l-1.92-1.22-3.92-2.48-3.83-2.5c1.25-1.22,3.67-3.65,6.62-6.91,2.71.12,17.15.28,22.93-10.11,4.89-8.8,0-14.87-2.57-17.22a4.13,4.13,0,0,0-3.11-.94,27.7,27.7,0,0,0-18.12,10.25c-7.11,9.22-1,16.47.21,17.78-2.88,3.18-5.24,5.57-6.5,6.8-2.51-1.63-5-3.33-7.49-5-1.35-.9-2.64-1.84-4-2.76s-2.66-1.86-4-2.8c-4.29-3.12-8.58-6.3-12.74-9.56.65-.47,1.73-1.28,3.14-2.36s3.46-2.7,5.61-4.47c2.27.25,15.92,1.32,22.86-7.64,5.81-7.5,2.12-13.13.07-15.35a3.71,3.71,0,0,0-2.76-1,29.42,29.42,0,0,0-18.33,8c-7.76,7.58-3.5,14.2-2.41,15.62-4,3.33-7.26,5.75-8.66,6.78-.74-.59-1.49-1.17-2.22-1.76-6.93-5.52-13.5-11.19-19.48-16.81a64.05,64.05,0,0,0,7.42-5c.8-.61,1.63-1.29,2.49-2,2.17.14,13.27.42,18.1-7.39,4.11-6.65.53-11.35-1.37-13.18a3.16,3.16,0,0,0-2.38-.76A22.29,22.29,0,0,0,116,210.58c-5.7,6.76-1.61,12.27-.55,13.48a67.54,67.54,0,0,1-9.73,6.87c-2.51-2.36-4.92-4.72-7.2-7.05-1.58-1.61-3.1-3.22-4.56-4.8a.1.1,0,0,0,0-.07c0-.11-.16-.23-.34-.26l-1.51-1.66c.46-.83,2.47-4.45,4.89-9,2.27-.11,12.56-1.06,15-9.51,2.11-7.28-2.52-11.75-4.79-13.45a3.22,3.22,0,0,0-2.45-.53,17.14,17.14,0,0,0-11.57,9.3c-3.63,7.67,1.9,13,3.11,14-2.18,4.09-4,7.42-4.68,8.63a180,180,0,0,1-12.11-15.06L77.77,199c-.57-.8-1-1.59-1.55-2.35l-.4-.62c1-.71,4.57-3.9.65-10.9A25.89,25.89,0,0,0,65.59,174.8a2.31,2.31,0,0,0-2-.11c-1.67.89-4.92,3.57-2.2,10.11,3.21,7.7,12.11,10.8,13.85,11.34l.37.59c.49.77.95,1.57,1.51,2.37s1.14,1.63,1.73,2.47a179.14,179.14,0,0,0,13.43,17c-2.79-.45-9.67-1.56-17.58-2.77-1.09-1.06-6.71-5.93-20.12-7.83-11.56-1.65-17.51,0-19.66.89a.76.76,0,0,0-.3,1.33c1.56,1.8,6.31,5.93,18.5,8.35,14.12,2.79,20.33-1.36,21.55-2.33,8.36,1.28,15.59,2.45,18,2.84q2.27,2.53,4.74,5.13c2.76,2.89,5.71,5.83,8.82,8.77-1.79.3-6.73,1.06-13.57,1.79-1.46-.88-9.33-5.17-22.94-4.44-11.62.63-16.23,3.74-17.75,5.16-.45.42-.27,1.06.44,1.55,2.42,1.66,9.08,5.23,21.7,5.33,14.62.1,18.12-5.83,18.72-7.16,7-.75,12.09-1.54,13.82-1.82,5.44,5.14,11.35,10.31,17.56,15.37q2,1.67,4.11,3.31c-1.61.36-6.51,1.45-13.31,2.77-1.92-.91-11.57-5-25.91-2.68-12.32,2-16.42,6.13-17.66,8-.37.54,0,1.27.91,1.76,3.07,1.68,11.22,5.13,24.83,3.87,16-1.49,17.95-9.06,18.17-10.49,7-1.36,12-2.47,13.46-2.81,3.52,2.77,7.12,5.49,10.72,8.16,1.31,1,2.64,1.9,3.94,2.85s2.6,1.89,3.94,2.8c2.66,1.83,5.25,3.66,7.9,5.4l1,.65c-1.11.5-4.25,1.87-9.27,3.7-2.31-.86-14.24-4.77-29.53-.32-13.08,3.8-16.43,9.25-17.27,11.59-.26.69.38,1.53,1.51,2,3.89,1.68,13.93,4.92,28.64,1.86,17.59-3.66,17.27-13.18,17.09-14.76,5.1-1.86,8.28-3.25,9.36-3.73l2.41,1.6,3.9,2.52,1.91,1.24,1.93,1.21,3.79,2.38c5,3.09,9.83,6,14.37,8.58,3.05,1.77,6,3.41,8.7,4.92-1.06.52-4.3,2.09-9.32,4.16-1.92-.7-15.54-5.24-32.56.26-14.08,4.54-17.41,10.69-18.2,13.32-.23.78.51,1.7,1.78,2.22,4.36,1.78,15.54,5.15,31.45,1.39,18.68-4.41,18.13-14.71,17.83-16.74,5.26-2.16,8.62-3.8,9.6-4.29,5.12,2.82,9.58,5.16,13.12,7,2.77,1.42,5,2.52,6.5,3.26s2.36,1.13,2.36,1.13l1.5-1.6s-.79-.36-2.29-1.08-3.69-1.78-6.46-3.16c-3.67-1.85-8.37-4.27-13.77-7.19a66.58,66.58,0,0,0,4.65-5.91c2.48-.09,18.89-1.12,22.63-14.22C225.81,262.72,218.9,256.06,215.5,253.54Z" transform="translate(-34.39 -73.82)"/><g class="cls-2"><path class="cls-3" d="M188.09,284.84S179,302.19,154,301c-19.09-.92-26.57-9.57-29-13.56a2.89,2.89,0,0,1,.47-3.62c3.35-3.2,12.65-10.15,30.75-11C179.85,271.8,188.09,284.84,188.09,284.84Z" transform="translate(-34.39 -73.82)"/></g><g class="cls-2"><path class="cls-4" d="M213.89,275.1s18.33,7,36.25-10.38C263.86,251.41,263.76,240,263,235.36a2.9,2.9,0,0,0-2.74-2.41c-4.63-.18-16.2.75-30.32,12.1C211.46,259.87,213.89,275.1,213.89,275.1Z" transform="translate(-34.39 -73.82)"/></g><g class="cls-2"><path class="cls-5" d="M202.21,229.61s15,8.19,32.56-4.73C248.2,215,249.45,205.09,249.3,201a2.5,2.5,0,0,0-2.08-2.39c-4-.71-14.1-1.27-27.64,6.89C201.9,216.15,202.21,229.61,202.21,229.61Z" transform="translate(-34.39 -73.82)"/></g><path class="cls-6" d="M196.82,192.56s12.93,8.72,29.93-1.48c13-7.82,15-16.69,15.24-20.41a2.31,2.31,0,0,0-1.69-2.36c-3.56-1-12.68-2.35-25.66,3.88C197.7,180.33,196.82,192.56,196.82,192.56Z" transform="translate(-34.39 -73.82)"/><g class="cls-2"><path class="cls-7" d="M195.33,159.28s11.39,6.63,25.15-2.92C231,149,232.2,141.45,232.17,138.3a1.94,1.94,0,0,0-1.55-1.89c-3.05-.63-10.82-1.27-21.41,4.71C195.39,148.93,195.33,159.28,195.33,159.28Z" transform="translate(-34.39 -73.82)"/></g><g class="cls-2"><path class="cls-8" d="M192.88,130.61s12.3,4.72,24.36-6.91c9.23-8.92,9.18-16.59,8.65-19.69a1.93,1.93,0,0,0-1.83-1.62c-3.12-.14-10.88.47-20.38,8.07C191.28,120.38,192.88,130.61,192.88,130.61Z" transform="translate(-34.39 -73.82)"/></g><g class="cls-2"><path class="cls-9" d="M174.94,240.07s-8.78,15.42-31.29,13.6c-17.25-1.4-23.76-9.45-25.86-13.13a2.64,2.64,0,0,1,.53-3.26c3.13-2.8,11.75-8.81,28.15-9C167.87,228,174.94,240.07,174.94,240.07Z" transform="translate(-34.39 -73.82)"/></g><g class="cls-2"><path class="cls-10" d="M164.86,200s-9.4,11.92-28.19,7.5c-14.4-3.38-18.88-11-20.18-14.39a2.24,2.24,0,0,1,.86-2.69c3-2,11.06-5.94,24.94-4C160.42,188.91,164.86,200,164.86,200Z" transform="translate(-34.39 -73.82)"/></g><g class="cls-2"><path class="cls-11" d="M163,164.9s-9.73,9.17-25.53,2.88c-12.11-4.82-15-12.05-15.71-15.17a2,2,0,0,1,1.1-2.23c2.88-1.32,10.41-3.74,22.25-.25C160.58,154.67,163,164.9,163,164.9Z" transform="translate(-34.39 -73.82)"/></g><g class="cls-2"><path class="cls-12" d="M164.21,133s-11.28,5.37-23.55-4.74c-9.4-7.75-9.92-15-9.64-18a1.83,1.83,0,0,1,1.61-1.66c2.94-.36,10.33-.36,19.88,6.13C165,123.21,164.21,133,164.21,133Z" transform="translate(-34.39 -73.82)"/></g><g class="cls-2"><path class="cls-13" d="M184.33,107S177,99.19,181.94,86.5c3.83-9.72,9.62-12.08,12.12-12.64a1.58,1.58,0,0,1,1.79.87c1.07,2.3,3,8.33.27,17.85C192.52,105,184.33,107,184.33,107Z" transform="translate(-34.39 -73.82)"/></g><path class="cls-14" d="M140.6,286.78a.34.34,0,0,1,.36-.32,260,260,0,0,0,60.11-3.9c-1.15-3-2.34-6.3-3.55-9.78-1.81-5.15-3.6-10.79-5.41-16.78-.43-1.5-.87-3-1.32-4.57l-.66-2.32-.63-2.37q-.63-2.38-1.28-4.81c-.24-1-.49-2-.74-3-3.76.61-25.17,3.74-55.46,1.84a.34.34,0,1,1,0-.68c30.08,1.89,51.37-1.2,55.26-1.83L187,237c-.84-3.31-1.54-6.7-2.29-10.13-.4-1.71-.7-3.45-1-5.19s-.69-3.49-1-5.26c-.83-4.9-1.63-9.86-2.29-14.86-4-.23-29.29-1.85-53.1-6.62a.34.34,0,0,1-.26-.4.33.33,0,0,1,.4-.27c23.49,4.71,48.44,6.34,52.86,6.6-.26-2-.5-4-.7-5.93-1-9-1.62-18.13-1.79-27-4.13-.57-24.84-3.67-44.73-11.3a.33.33,0,0,1-.2-.44.34.34,0,0,1,.44-.19c19.68,7.54,40.17,10.64,44.48,11.24-.09-5.08,0-10.09.15-15q.17-4.36.48-8.58c-4.35-3.17-27.22-19.78-38.27-26.5a.34.34,0,0,1-.11-.47.34.34,0,0,1,.47-.11c10.8,6.57,32.88,22.57,38,26.27a231.59,231.59,0,0,1,3.77-27.58l.77-3.92c.25-1.28.59-2.51.88-3.72.59-2.41,1.15-4.7,1.68-6.85l1.76-5.94c.57-1.83,1-3.54,1.54-5,2.14-6,3.35-9.4,3.35-9.4l.22.08S191.28,84,189.24,90c-.51,1.5-.93,3.21-1.47,5l-1.68,6c-.5,2.16-1,4.44-1.58,6.86-.27,1.21-.6,2.44-.83,3.71s-.47,2.59-.71,3.93A232.19,232.19,0,0,0,179.79,140c4.29-3.16,26.13-19.34,38.2-29.28a.34.34,0,1,1,.43.53c-12.63,10.4-35.92,27.61-38.69,29.65-.07.91-.13,1.84-.18,2.76a.36.36,0,0,1,.07.48s-.07,0-.11.08c-.15,2.65-.27,5.35-.33,8.09-.1,4-.1,8,0,12.06A139.12,139.12,0,0,0,223,143.62a.34.34,0,0,1,.39.56,143.51,143.51,0,0,1-32.14,17,107.23,107.23,0,0,1-12.1,3.87,294.23,294.23,0,0,0,2.22,29.64c.12,1.06.27,2.11.41,3.16a387.26,387.26,0,0,0,48.41-21.27.35.35,0,0,1,.47.14.34.34,0,0,1-.14.46,378,378,0,0,1-43.29,19.39c-2.42.92-4.26,1.58-5.36,2,.8,5.88,1.81,11.72,2.87,17.47.34,1.74.72,3.48,1.07,5.2s.69,3.45,1.1,5.15c.76,3.2,1.46,6.38,2.28,9.48a367,367,0,0,0,48.64-28.34.34.34,0,0,1,.48.09.34.34,0,0,1-.08.47c-20.5,14.46-42.59,25.43-48.87,28.46.42,1.59.83,3.18,1.23,4.75l1.34,4.76c.22.78.43,1.57.65,2.34l.7,2.3c.46,1.53.91,3,1.36,4.52,1.88,5.92,3.73,11.49,5.61,16.58,1.14,3.16,2.27,6.13,3.36,8.91,4.17-2.24,25.59-14.24,48.73-36.7a.34.34,0,1,1,.47.49c-23.3,22.62-44.89,34.68-49,36.85,2.33,5.9,4.48,10.87,6.21,14.7,1.3,2.87,2.37,5.11,3.11,6.62s1.15,2.28,1.15,2.28l-3,1.57s-.43-.84-1.16-2.38-1.79-3.83-3.07-6.76c-1.62-3.73-3.62-8.52-5.78-14.17a260.3,260.3,0,0,1-60.39,3.93A.35.35,0,0,1,140.6,286.78Z" transform="translate(-34.39 -73.82)"/><path class="cls-1" d="M431.86,270c7.2-10.17,10.1-18.08,9.84-23.76,0-.05,0-.1,0-.15h0c-.35-6.31-4.62-9.84-11.17-10.63h0l-.45-.05h0a31.89,31.89,0,0,0-8.67.45c-8.66,1.54-14.4,5.78-15.28,10.69a8.9,8.9,0,0,1-4.08,6.08l-.14.08a15.49,15.49,0,0,1-6.55,1.91c-7,.66-13,2.9-16.22,6.24-1.76,1.82-3.49,3.73-5.17,5.74-28.06,33.44-59.25,50.52-69.68,57.74-1.46,1-1.4,2.23-.43,3.2h0l.23.21h0a8.27,8.27,0,0,0,6.22,1.37,281.33,281.33,0,0,0,29-5.57h0l.15,0,.32-.08h.06c16.63-4.14,36.83-10.77,55.11-21.19l.71-.42h0a3.79,3.79,0,0,0,.34-.2H396c3.83-2.52,5.55-5.8,5.05-9.15-.2-1.4.33-3,2-4.83,3.73-4.18,10.56-6.66,17.51-8.88,4.1-1.31,7.33-3.28,9.14-5.66l0,0q1.08-1.44,2.07-2.82c.05-.07.1-.15.16-.22Z" transform="translate(-34.39 -73.82)"/><path class="cls-15" d="M429.17,189.83l0-.09c20-65.26,5.76-90.25-16.35-79.81-9.79,4.62-15.69,14.71-15.82,25.54a28.55,28.55,0,0,1-2,10.83,13.83,13.83,0,0,1-9,8.33,27.83,27.83,0,0,0-17.73,16q-2.57,6.33-5,13.25c-26.53,77-59.69,118.78-70.5,136a6.51,6.51,0,0,0,7.87,9.54c15.89-6.16,59.27-26.11,93.51-71a28.72,28.72,0,0,0,5.28-22.17,21.1,21.1,0,0,1,1.39-10.81c3.57-9.67,11.07-16.06,18.74-21.93A27.27,27.27,0,0,0,429.17,189.83Z" transform="translate(-34.39 -73.82)"/><path class="cls-16" d="M396.5,187.24l34.58-3.91.15-.54-34.51,3.9q10.77-26.5,20.16-56.89l21.48,0-.06-.52-21.26,0q3.25-10.56,6.33-21.57l-.53,0c-5.84,20.85-11.95,39.71-18.16,56.75l-11.16-15.3-.32.45L404.46,165a565.58,565.58,0,0,1-24.92,58.4l-19.16-31.35c-.08.21-.15.42-.23.62L379.27,224c-14,28-27.53,48-38.9,62l-2,2.46-8.86-27.25-.35.63L338,288.9c-22.5,26.93-40.31,35.94-45.11,38,.1.14.2.29.31.43,3.49-1.54,13.21-6.44,26.37-18.37l13.8,4.05.18-.11.35-.22.07,0L320,308.58a203,203,0,0,0,20.76-22.23,300.47,300.47,0,0,0,23-33l31.22,4,.36-.48-31.28-4a430.16,430.16,0,0,0,21.82-41.18Q391.32,200,396.5,187.24Z" transform="translate(-34.39 -73.82)"/><path class="cls-17" d="M347.13,163.5v-.06C348.6,113.21,333.64,98.23,320,110a20.86,20.86,0,0,0-6.26,21.21,21.09,21.09,0,0,1,.69,8.08,10.16,10.16,0,0,1-4.8,7.68,20.44,20.44,0,0,0-9.48,14.8c-.39,3.33-.71,6.79-.94,10.38-3.85,59.82-19.25,96-23.57,110.31a4.8,4.8,0,0,0,7.45,5.24A164.42,164.42,0,0,0,335.64,219a21.18,21.18,0,0,0-.58-16.77A15.55,15.55,0,0,1,334,194.3c.65-7.56,4.73-13.56,9-19.22A20.05,20.05,0,0,0,347.13,163.5Z" transform="translate(-34.39 -73.82)"/><path class="cls-18" d="M323.43,168l23.79-9.5c0-.14,0-.28,0-.42l-23.75,9.49c1.66-14,2.74-28.75,3.24-44.32l15.24-4.2c0-.12-.09-.23-.14-.35l-15.09,4.15q.25-8.13.3-16.55l-.39.08c-.09,15.94-.75,30.52-1.84,43.83l-10.91-8.69c0,.12-.09.25-.13.38l11,8.77A417.67,417.67,0,0,1,318.44,197l-19.72-18.53c0,.16,0,.33,0,.49l19.67,18.48c-4.5,22.56-10.21,39.41-15.54,51.6-.32.73-.64,1.44-1,2.14l-11.59-17.62-.12.51,11.53,17.52C290.94,275.11,280,285,277,287.39l.3.24c2.19-1.76,8.13-7.14,15.16-18.17l10.58.18.11-.11.2-.22,0,0-10.69-.19a148.66,148.66,0,0,0,10.4-19.83,220.31,220.31,0,0,0,9.9-27.87L336,218.14c.06-.13.11-.27.17-.41l-23,3.25a316.08,316.08,0,0,0,7.47-33.48Q322.24,178.07,323.43,168Z" transform="translate(-34.39 -73.82)"/><polygon class="cls-19" points="345.85 250.71 345.85 264.98 222.3 336.32 98.74 264.98 98.74 250.7 345.85 250.71"/><polygon class="cls-20" points="222.3 322.04 98.74 250.7 222.29 179.37 345.85 250.71 222.3 322.04"/><polygon class="cls-21" points="222.3 305.59 127.27 250.72 222.29 195.85 317.33 250.72 222.3 305.59"/><polygon class="cls-22" points="222.3 305.59 127.26 250.72 222.29 195.85 317.33 250.72 222.3 305.59"/><polygon class="cls-23" points="222.29 182.02 317.33 236.89 317.33 250.72 222.29 195.85 222.29 182.02"/><polygon class="cls-24" points="222.3 195.85 127.26 250.72 127.26 236.88 222.29 182.02 222.3 195.85"/><polygon class="cls-25" points="222.3 291.75 127.26 236.88 222.29 182.02 317.33 236.89 222.3 291.75"/><polygon class="cls-26" points="222.3 258.81 184.32 236.88 222.3 214.96 260.27 236.88 222.3 258.81"/><polygon class="cls-26" points="222.3 216.98 258.52 237.89 260.27 236.88 222.3 214.96 184.32 236.88 186.07 237.89 222.3 216.98"/><polygon class="cls-27" points="222.3 291.75 222.3 305.59 317.33 250.72 317.33 236.89 222.3 291.75"/><polygon class="cls-28" points="127.26 236.88 127.26 250.72 222.3 305.59 222.3 291.75 127.26 236.88"/><polygon class="cls-29" points="222.3 290.24 128.57 236.13 127.26 236.88 222.3 291.75 317.33 236.89 316.02 236.13 222.3 290.24"/><path class="cls-30" d="M287.71,427.35a.63.63,0,0,1-.33-.09L271.3,418a11.37,11.37,0,0,1-5.21-9v-3.88a10.09,10.09,0,0,0-4.56-7.89l-3.36-1.94a.65.65,0,0,1-.24-.89.66.66,0,0,1,.9-.24l3.36,1.94a11.35,11.35,0,0,1,5.21,9V409a10.08,10.08,0,0,0,4.55,7.89L288,426.13a.64.64,0,0,1,.24.89A.65.65,0,0,1,287.71,427.35Z" transform="translate(-34.39 -73.82)"/><path class="cls-30" d="M294,423.75a.66.66,0,0,1-.33-.09l-16.08-9.28a11.39,11.39,0,0,1-5.21-9v-3.88a10.07,10.07,0,0,0-4.56-7.89l-3.35-1.94a.66.66,0,0,1-.25-.9.67.67,0,0,1,.9-.24l3.36,1.94a11.39,11.39,0,0,1,5.21,9v3.88a10.09,10.09,0,0,0,4.56,7.89l16.08,9.28a.67.67,0,0,1,.24.9A.65.65,0,0,1,294,423.75Z" transform="translate(-34.39 -73.82)"/><path class="cls-30" d="M300.21,420.15a.62.62,0,0,1-.32-.09l-16.08-9.29a11.34,11.34,0,0,1-5.22-9v-3.87A10.12,10.12,0,0,0,274,390L270.68,388a.66.66,0,0,1,.65-1.14l3.36,1.94a11.36,11.36,0,0,1,5.22,9v3.87a10.09,10.09,0,0,0,4.55,7.9l16.08,9.28a.66.66,0,0,1-.33,1.23Z" transform="translate(-34.39 -73.82)"/><path class="cls-30" d="M306.47,416.54a.66.66,0,0,1-.33-.09l-16.08-9.28a11.37,11.37,0,0,1-5.21-9v-3.88a10.09,10.09,0,0,0-4.56-7.89l-3.36-1.94a.65.65,0,0,1-.24-.89.65.65,0,0,1,.9-.24l3.36,1.94a11.35,11.35,0,0,1,5.21,9v3.88a10.07,10.07,0,0,0,4.56,7.89l16.08,9.29a.65.65,0,0,1,.24.89A.68.68,0,0,1,306.47,416.54Z" transform="translate(-34.39 -73.82)"/><path class="cls-30" d="M312.72,412.94a.68.68,0,0,1-.33-.09l-16.08-9.28a11.39,11.39,0,0,1-5.21-9v-3.88a10.08,10.08,0,0,0-4.55-7.89l-3.36-1.94a.66.66,0,0,1,.65-1.14l3.36,1.94a11.37,11.37,0,0,1,5.21,9v3.88a10.09,10.09,0,0,0,4.56,7.89l16.08,9.28a.67.67,0,0,1,.24.9A.65.65,0,0,1,312.72,412.94Z" transform="translate(-34.39 -73.82)"/><path class="cls-30" d="M319,409.33a.62.62,0,0,1-.32-.09L302.57,400a11.37,11.37,0,0,1-5.21-9v-3.87a10.1,10.1,0,0,0-4.56-7.9l-3.36-1.94a.65.65,0,1,1,.66-1.13l3.36,1.94a11.36,11.36,0,0,1,5.21,9v3.87a10.12,10.12,0,0,0,4.55,7.9l16.08,9.28a.65.65,0,0,1,.24.89A.63.63,0,0,1,319,409.33Z" transform="translate(-34.39 -73.82)"/><path class="cls-30" d="M325.23,405.73a.66.66,0,0,1-.33-.09l-16.08-9.28a11.39,11.39,0,0,1-5.21-9v-3.88a10.07,10.07,0,0,0-4.56-7.89l-3.35-1.94a.64.64,0,0,1-.24-.89.65.65,0,0,1,.89-.25l3.36,1.94a11.39,11.39,0,0,1,5.21,9v3.88a10.09,10.09,0,0,0,4.56,7.89l16.08,9.29a.65.65,0,0,1-.33,1.22Z" transform="translate(-34.39 -73.82)"/><path class="cls-30" d="M331.48,402.13a.68.68,0,0,1-.33-.09l-16.07-9.29a11.34,11.34,0,0,1-5.22-9v-3.88a10.08,10.08,0,0,0-4.55-7.89L302,370a.66.66,0,0,1,.65-1.14l3.36,1.94a11.36,11.36,0,0,1,5.22,9v3.88a10.08,10.08,0,0,0,4.55,7.89l16.08,9.28a.66.66,0,0,1,.24.9A.65.65,0,0,1,331.48,402.13Z" transform="translate(-34.39 -73.82)"/><path class="cls-30" d="M337.74,398.52a.63.63,0,0,1-.33-.09l-16.08-9.28a11.37,11.37,0,0,1-5.21-9v-3.88a10.09,10.09,0,0,0-4.56-7.89l-3.36-1.94a.65.65,0,1,1,.66-1.13l3.36,1.94a11.35,11.35,0,0,1,5.21,9v3.88A10.07,10.07,0,0,0,322,388l16.07,9.29a.64.64,0,0,1,.24.89A.65.65,0,0,1,337.74,398.52Z" transform="translate(-34.39 -73.82)"/><path class="cls-30" d="M344,394.92a.68.68,0,0,1-.33-.09l-16.08-9.28a11.39,11.39,0,0,1-5.21-9v-3.88a10.07,10.07,0,0,0-4.56-7.89l-3.35-1.94a.65.65,0,0,1-.24-.9.65.65,0,0,1,.89-.24l3.36,1.94a11.39,11.39,0,0,1,5.21,9v3.88a10.09,10.09,0,0,0,4.56,7.89l16.08,9.28a.67.67,0,0,1,.24.9A.65.65,0,0,1,344,394.92Z" transform="translate(-34.39 -73.82)"/><path class="cls-30" d="M350.24,391.31a.61.61,0,0,1-.32-.08l-16.08-9.29a11.34,11.34,0,0,1-5.22-9V369a10.1,10.1,0,0,0-4.55-7.9l-3.36-1.93a.66.66,0,0,1,.66-1.14l3.35,1.94a11.36,11.36,0,0,1,5.22,9v3.87a10.1,10.1,0,0,0,4.55,7.9l16.08,9.28a.65.65,0,0,1,.24.9A.65.65,0,0,1,350.24,391.31Z" transform="translate(-34.39 -73.82)"/><path class="cls-30" d="M356.5,387.71a.66.66,0,0,1-.33-.09l-16.08-9.28a11.37,11.37,0,0,1-5.21-9v-3.88a10.09,10.09,0,0,0-4.56-7.89L327,355.6a.65.65,0,0,1-.24-.89.65.65,0,0,1,.9-.24L331,356.4a11.39,11.39,0,0,1,5.21,9v3.88a10.09,10.09,0,0,0,4.56,7.89l16.08,9.29a.65.65,0,0,1-.33,1.22Z" transform="translate(-34.39 -73.82)"/><path class="cls-30" d="M362.75,384.11a.68.68,0,0,1-.33-.09l-16.07-9.29a11.34,11.34,0,0,1-5.22-9v-3.88a10.08,10.08,0,0,0-4.55-7.89L333.22,352a.66.66,0,0,1,.65-1.14l3.36,1.94a11.36,11.36,0,0,1,5.22,9v3.88A10.08,10.08,0,0,0,347,373.6l16.08,9.28a.66.66,0,0,1,.24.9A.65.65,0,0,1,362.75,384.11Z" transform="translate(-34.39 -73.82)"/><path class="cls-30" d="M369,380.5a.63.63,0,0,1-.33-.09l-16.08-9.28a11.37,11.37,0,0,1-5.21-9v-3.87a10.1,10.1,0,0,0-4.56-7.9l-3.36-1.94a.65.65,0,1,1,.66-1.13l3.36,1.94a11.36,11.36,0,0,1,5.21,9v3.87a10.1,10.1,0,0,0,4.56,7.9l16.07,9.28a.65.65,0,0,1-.32,1.22Z" transform="translate(-34.39 -73.82)"/><path class="cls-30" d="M375.26,376.9a.68.68,0,0,1-.33-.09l-16.08-9.28a11.39,11.39,0,0,1-5.21-9v-3.88a10.07,10.07,0,0,0-4.56-7.89l-3.35-1.94a.66.66,0,0,1,.65-1.14l3.36,1.94a11.39,11.39,0,0,1,5.21,9v3.88a10.09,10.09,0,0,0,4.56,7.89l16.08,9.29a.65.65,0,0,1-.33,1.22Z" transform="translate(-34.39 -73.82)"/><path class="cls-30" d="M381.51,373.29a.61.61,0,0,1-.32-.08l-16.08-9.29a11.34,11.34,0,0,1-5.22-9V351a10.08,10.08,0,0,0-4.55-7.89L352,341.19a.66.66,0,1,1,.66-1.14L356,342a11.36,11.36,0,0,1,5.22,9v3.88a10.08,10.08,0,0,0,4.55,7.89l16.08,9.28a.65.65,0,0,1,.24.9A.65.65,0,0,1,381.51,373.29Z" transform="translate(-34.39 -73.82)"/><path class="cls-30" d="M387.77,369.69a.66.66,0,0,1-.33-.09l-16.08-9.28a11.37,11.37,0,0,1-5.21-9v-3.88a10.09,10.09,0,0,0-4.56-7.89l-3.36-1.94a.65.65,0,1,1,.66-1.13l3.36,1.94a11.35,11.35,0,0,1,5.21,9v3.88a10.07,10.07,0,0,0,4.56,7.89l16.08,9.29a.65.65,0,0,1,.24.89A.68.68,0,0,1,387.77,369.69Z" transform="translate(-34.39 -73.82)"/><path class="cls-30" d="M394,366.09a.68.68,0,0,1-.33-.09l-16.08-9.28a11.39,11.39,0,0,1-5.21-9v-3.88a10.08,10.08,0,0,0-4.55-7.89L364.49,334a.66.66,0,0,1,.65-1.14l3.36,1.94a11.37,11.37,0,0,1,5.21,9v3.88a10.09,10.09,0,0,0,4.56,7.89l16.08,9.28a.67.67,0,0,1,.24.9A.65.65,0,0,1,394,366.09Z" transform="translate(-34.39 -73.82)"/><path class="cls-30" d="M400.27,362.48a.61.61,0,0,1-.32-.08l-16.08-9.29a11.36,11.36,0,0,1-5.21-9v-3.87a10.11,10.11,0,0,0-4.56-7.9l-3.36-1.94a.65.65,0,0,1-.24-.89.66.66,0,0,1,.9-.24l3.36,1.94a11.36,11.36,0,0,1,5.21,9v3.87a10.1,10.1,0,0,0,4.55,7.9l16.08,9.28a.65.65,0,0,1-.33,1.22Z" transform="translate(-34.39 -73.82)"/><path class="cls-30" d="M406.53,358.88a.68.68,0,0,1-.33-.09l-16.08-9.28a11.39,11.39,0,0,1-5.21-9V336.6a10.07,10.07,0,0,0-4.56-7.89L377,326.77a.65.65,0,0,1,.65-1.13l3.36,1.93a11.39,11.39,0,0,1,5.21,9v3.88a10.09,10.09,0,0,0,4.56,7.89l16.08,9.29a.65.65,0,0,1-.33,1.22Z" transform="translate(-34.39 -73.82)"/><path class="cls-30" d="M225.22,427.35a.65.65,0,0,1-.56-.33.64.64,0,0,1,.24-.89L241,416.84a10.07,10.07,0,0,0,4.56-7.89v-3.88a11.35,11.35,0,0,1,5.21-9l3.36-1.94a.65.65,0,1,1,.66,1.13l-3.36,1.94a10.09,10.09,0,0,0-4.56,7.89V409a11.37,11.37,0,0,1-5.21,9l-16.08,9.28A.63.63,0,0,1,225.22,427.35Z" transform="translate(-34.39 -73.82)"/><path class="cls-30" d="M219,423.75a.65.65,0,0,1-.57-.33.67.67,0,0,1,.24-.9l16.08-9.28a10.09,10.09,0,0,0,4.56-7.89v-3.88a11.39,11.39,0,0,1,5.21-9l3.36-1.94a.65.65,0,0,1,.89.24.65.65,0,0,1-.24.9l-3.35,1.94a10.07,10.07,0,0,0-4.56,7.89v3.88a11.39,11.39,0,0,1-5.21,9l-16.08,9.28A.68.68,0,0,1,219,423.75Z" transform="translate(-34.39 -73.82)"/><path class="cls-30" d="M212.72,420.15a.66.66,0,0,1-.33-1.23l16.08-9.28a10.09,10.09,0,0,0,4.55-7.9v-3.87a11.36,11.36,0,0,1,5.22-9l3.35-1.94a.66.66,0,1,1,.66,1.14L238.89,390a10.12,10.12,0,0,0-4.55,7.9v3.87a11.34,11.34,0,0,1-5.22,9L213,420.06A.62.62,0,0,1,212.72,420.15Z" transform="translate(-34.39 -73.82)"/><path class="cls-30" d="M206.46,416.54a.67.67,0,0,1-.57-.33.65.65,0,0,1,.24-.89L222.21,406a10.09,10.09,0,0,0,4.56-7.89v-3.88a11.35,11.35,0,0,1,5.21-9l3.36-1.94a.65.65,0,1,1,.66,1.13l-3.36,1.94a10.09,10.09,0,0,0-4.56,7.89v3.88a11.37,11.37,0,0,1-5.21,9l-16.08,9.28A.66.66,0,0,1,206.46,416.54Z" transform="translate(-34.39 -73.82)"/><path class="cls-30" d="M200.21,412.94a.65.65,0,0,1-.57-.33.67.67,0,0,1,.24-.9L216,402.43a10.08,10.08,0,0,0,4.55-7.89v-3.88a11.36,11.36,0,0,1,5.22-9l3.36-1.94a.66.66,0,0,1,.65,1.14l-3.36,1.94a10.08,10.08,0,0,0-4.55,7.89v3.88a11.37,11.37,0,0,1-5.22,9l-16.07,9.28A.68.68,0,0,1,200.21,412.94Z" transform="translate(-34.39 -73.82)"/><path class="cls-30" d="M194,409.33a.65.65,0,0,1-.32-1.22l16.07-9.28a10.1,10.1,0,0,0,4.56-7.9v-3.87a11.36,11.36,0,0,1,5.21-9l3.36-1.94a.65.65,0,1,1,.66,1.13l-3.36,1.94a10.1,10.1,0,0,0-4.56,7.9v3.87a11.37,11.37,0,0,1-5.21,9l-16.08,9.28A.63.63,0,0,1,194,409.33Z" transform="translate(-34.39 -73.82)"/><path class="cls-30" d="M187.7,405.73a.65.65,0,0,1-.33-1.22l16.08-9.29a10.09,10.09,0,0,0,4.56-7.89v-3.88a11.39,11.39,0,0,1,5.21-9l3.36-1.94a.65.65,0,0,1,.89.25.64.64,0,0,1-.24.89l-3.35,1.94a10.07,10.07,0,0,0-4.56,7.89v3.88a11.37,11.37,0,0,1-5.21,9L188,405.64A.68.68,0,0,1,187.7,405.73Z" transform="translate(-34.39 -73.82)"/><path class="cls-30" d="M181.45,402.13a.66.66,0,0,1-.33-1.23l16.08-9.28a10.08,10.08,0,0,0,4.55-7.89v-3.88a11.36,11.36,0,0,1,5.22-9l3.35-1.94A.66.66,0,1,1,211,370L207.62,372a10.08,10.08,0,0,0-4.55,7.89v3.88a11.34,11.34,0,0,1-5.22,9L181.77,402A.62.62,0,0,1,181.45,402.13Z" transform="translate(-34.39 -73.82)"/><path class="cls-30" d="M175.19,398.52a.68.68,0,0,1-.57-.33.65.65,0,0,1,.24-.89L190.94,388a10.07,10.07,0,0,0,4.56-7.89v-3.88a11.35,11.35,0,0,1,5.21-9l3.36-1.94a.65.65,0,1,1,.66,1.13l-3.36,1.94a10.09,10.09,0,0,0-4.56,7.89v3.88a11.37,11.37,0,0,1-5.21,9l-16.08,9.28A.66.66,0,0,1,175.19,398.52Z" transform="translate(-34.39 -73.82)"/><path class="cls-30" d="M168.94,394.92a.65.65,0,0,1-.57-.33.67.67,0,0,1,.24-.9l16.08-9.28a10.09,10.09,0,0,0,4.56-7.89v-3.88a11.39,11.39,0,0,1,5.21-9l3.36-1.94a.66.66,0,0,1,.65,1.14l-3.36,1.94a10.08,10.08,0,0,0-4.55,7.89v3.88a11.37,11.37,0,0,1-5.22,9l-16.07,9.28A.68.68,0,0,1,168.94,394.92Z" transform="translate(-34.39 -73.82)"/><path class="cls-30" d="M162.68,391.31a.65.65,0,0,1-.32-1.22l16.07-9.28a10.08,10.08,0,0,0,4.56-7.9V369a11.37,11.37,0,0,1,5.21-9l3.36-1.94a.66.66,0,1,1,.66,1.14l-3.36,1.93a10.11,10.11,0,0,0-4.56,7.9v3.87a11.36,11.36,0,0,1-5.21,9L163,391.23A.62.62,0,0,1,162.68,391.31Z" transform="translate(-34.39 -73.82)"/><path class="cls-30" d="M156.43,387.71a.65.65,0,0,1-.33-1.22l16.08-9.29a10.09,10.09,0,0,0,4.56-7.89v-3.88a11.39,11.39,0,0,1,5.21-9l3.36-1.93a.66.66,0,0,1,.9.24.65.65,0,0,1-.25.89l-3.35,1.94a10.07,10.07,0,0,0-4.56,7.89v3.88a11.37,11.37,0,0,1-5.21,9l-16.08,9.28A.66.66,0,0,1,156.43,387.71Z" transform="translate(-34.39 -73.82)"/><path class="cls-30" d="M150.18,384.11a.66.66,0,0,1-.33-1.23l16.08-9.28a10.08,10.08,0,0,0,4.55-7.89v-3.88a11.36,11.36,0,0,1,5.22-9l3.36-1.94a.65.65,0,0,1,.89.24.66.66,0,0,1-.24.9l-3.36,1.94a10.08,10.08,0,0,0-4.55,7.89v3.88a11.34,11.34,0,0,1-5.22,9L150.5,384A.62.62,0,0,1,150.18,384.11Z" transform="translate(-34.39 -73.82)"/><path class="cls-30" d="M143.92,380.5a.65.65,0,0,1-.33-1.22L159.67,370a10.1,10.1,0,0,0,4.56-7.9v-3.87a11.36,11.36,0,0,1,5.21-9l3.36-1.94a.65.65,0,1,1,.66,1.13l-3.36,1.94a10.1,10.1,0,0,0-4.56,7.9v3.87a11.37,11.37,0,0,1-5.21,9l-16.08,9.28A.66.66,0,0,1,143.92,380.5Z" transform="translate(-34.39 -73.82)"/><path class="cls-30" d="M137.67,376.9a.65.65,0,0,1-.33-1.22l16.08-9.29A10.09,10.09,0,0,0,158,358.5v-3.88a11.39,11.39,0,0,1,5.21-9l3.36-1.94a.66.66,0,0,1,.65,1.14l-3.36,1.94a10.08,10.08,0,0,0-4.55,7.89v3.88a11.39,11.39,0,0,1-5.21,9L138,376.81A.68.68,0,0,1,137.67,376.9Z" transform="translate(-34.39 -73.82)"/><path class="cls-30" d="M131.42,373.29a.65.65,0,0,1-.57-.32.65.65,0,0,1,.24-.9l16.08-9.28a10.08,10.08,0,0,0,4.55-7.89V351a11.36,11.36,0,0,1,5.22-9l3.35-1.94a.66.66,0,0,1,.66,1.14l-3.36,1.94A10.09,10.09,0,0,0,153,351v3.88a11.35,11.35,0,0,1-5.21,9l-16.08,9.29A.61.61,0,0,1,131.42,373.29Z" transform="translate(-34.39 -73.82)"/><path class="cls-30" d="M125.16,369.69a.65.65,0,0,1-.33-1.22l16.08-9.29a10.09,10.09,0,0,0,4.56-7.89v-3.88a11.35,11.35,0,0,1,5.21-9l3.36-1.94a.65.65,0,1,1,.66,1.13l-3.36,1.94a10.07,10.07,0,0,0-4.56,7.89v3.88a11.37,11.37,0,0,1-5.21,9l-16.08,9.28A.66.66,0,0,1,125.16,369.69Z" transform="translate(-34.39 -73.82)"/><path class="cls-30" d="M118.91,366.09a.65.65,0,0,1-.57-.33.67.67,0,0,1,.24-.9l16.08-9.28a10.08,10.08,0,0,0,4.55-7.89v-3.88a11.36,11.36,0,0,1,5.22-9l3.36-1.94a.66.66,0,0,1,.65,1.14l-3.36,1.94a10.08,10.08,0,0,0-4.55,7.89v3.88a11.37,11.37,0,0,1-5.22,9L119.24,366A.68.68,0,0,1,118.91,366.09Z" transform="translate(-34.39 -73.82)"/><path class="cls-30" d="M112.65,362.48a.67.67,0,0,1-.57-.32.66.66,0,0,1,.25-.9L128.4,352a10.08,10.08,0,0,0,4.56-7.9v-3.87a11.36,11.36,0,0,1,5.21-9l3.36-1.94a.66.66,0,0,1,.9.24.65.65,0,0,1-.24.89l-3.36,1.94a10.11,10.11,0,0,0-4.56,7.9v3.87a11.36,11.36,0,0,1-5.21,9L113,362.4A.62.62,0,0,1,112.65,362.48Z" transform="translate(-34.39 -73.82)"/><path class="cls-30" d="M106.4,358.88a.65.65,0,0,1-.33-1.22l16.08-9.29a10.09,10.09,0,0,0,4.56-7.89V336.6a11.39,11.39,0,0,1,5.21-9l3.36-1.93a.65.65,0,0,1,.89.24.64.64,0,0,1-.24.89l-3.35,1.94A10.07,10.07,0,0,0,128,336.6v3.88a11.37,11.37,0,0,1-5.21,9l-16.08,9.28A.68.68,0,0,1,106.4,358.88Z" transform="translate(-34.39 -73.82)"/><polygon class="cls-31" points="222.3 320.37 100.19 249.87 98.74 250.7 222.3 322.04 345.85 250.71 344.41 249.87 222.3 320.37"/></svg>