<svg id="Layer_1" data-name="Layer 1" xmlns="http://www.w3.org/2000/svg" xmlns:xlink="http://www.w3.org/1999/xlink" viewBox="0 0 618.18 400.64"><defs><style>.cls-1{fill:url(#linear-gradient);}.cls-2{fill:#bdd0fb;}.cls-3{fill:#91b3fa;}.cls-4{fill:#7d97f4;}.cls-5,.cls-8{fill:#fff;}.cls-5{opacity:0.5;}.cls-6{fill:url(#linear-gradient-2);}.cls-7{fill:#4F81BD;}.cls-9{fill:#f6a574;}.cls-10{fill:url(#linear-gradient-3);}.cls-11{opacity:0.6;}.cls-12{opacity:0.85;}.cls-13{fill:url(#linear-gradient-4);}.cls-14{fill:url(#linear-gradient-5);}.cls-15{fill:url(#linear-gradient-6);}.cls-16{fill:url(#linear-gradient-7);}.cls-17{fill:url(#linear-gradient-8);}.cls-18{fill:url(#linear-gradient-9);}.cls-19{fill:url(#linear-gradient-10);}.cls-20{fill:url(#linear-gradient-11);}.cls-21{fill:url(#linear-gradient-12);}.cls-22{fill:url(#linear-gradient-13);}.cls-23{fill:url(#linear-gradient-14);}.cls-24{fill:url(#linear-gradient-15);}.cls-25{fill:url(#linear-gradient-16);}.cls-26{fill:url(#linear-gradient-17);}.cls-27{fill:url(#linear-gradient-18);}.cls-28{fill:url(#linear-gradient-19);}.cls-29{fill:url(#linear-gradient-20);}.cls-30{fill:url(#linear-gradient-21);}.cls-31{fill:url(#linear-gradient-22);}.cls-32{fill:#c06b39;}.cls-33{fill:url(#linear-gradient-23);}.cls-34{fill:url(#linear-gradient-24);}.cls-35{fill:url(#linear-gradient-25);}.cls-36{fill:url(#linear-gradient-26);}.cls-37{fill:url(#linear-gradient-27);}.cls-38{fill:url(#linear-gradient-28);}.cls-39{fill:url(#linear-gradient-29);}.cls-40{fill:url(#linear-gradient-30);}.cls-41{fill:url(#linear-gradient-31);}.cls-42{fill:url(#linear-gradient-32);}.cls-43{fill:url(#linear-gradient-33);}.cls-44{fill:url(#linear-gradient-34);}.cls-45{fill:url(#linear-gradient-35);}.cls-46{fill:url(#linear-gradient-36);}.cls-47{fill:url(#linear-gradient-37);}.cls-48{fill:url(#linear-gradient-38);}.cls-49{fill:url(#linear-gradient-39);}.cls-50{fill:url(#linear-gradient-40);}.cls-51{fill:url(#linear-gradient-41);}.cls-52{fill:url(#linear-gradient-42);}.cls-53{fill:url(#linear-gradient-43);}.cls-54{fill:url(#linear-gradient-44);}.cls-55{fill:url(#linear-gradient-45);}.cls-56{fill:url(#linear-gradient-46);}.cls-57{fill:url(#linear-gradient-47);}.cls-58{fill:url(#linear-gradient-48);}.cls-59{fill:url(#linear-gradient-49);}.cls-60{fill:url(#linear-gradient-50);}.cls-61{fill:url(#linear-gradient-51);}.cls-62{fill:url(#linear-gradient-52);}.cls-63{fill:url(#linear-gradient-53);}.cls-64{fill:url(#linear-gradient-54);}.cls-65{fill:url(#linear-gradient-55);}.cls-66{fill:url(#linear-gradient-56);}.cls-67{fill:url(#linear-gradient-57);}.cls-68{fill:url(#linear-gradient-58);}.cls-69{fill:url(#linear-gradient-59);}.cls-70{fill:#faf3fe;}</style><linearGradient id="linear-gradient" x1="59.46" y1="364.5" x2="641.55" y2="364.5" gradientUnits="userSpaceOnUse"><stop offset="0" stop-color="#dae3fe"/><stop offset="1" stop-color="#e9effd"/></linearGradient><linearGradient id="linear-gradient-2" x1="300.88" y1="526.51" x2="397.01" y2="238.09" gradientUnits="userSpaceOnUse"><stop offset="0" stop-color="#09005d"/><stop offset="1" stop-color="#1a0f91"/></linearGradient><linearGradient id="linear-gradient-3" x1="318.81" y1="213.62" x2="318.81" y2="345.71" xlink:href="#linear-gradient-2"/><linearGradient id="linear-gradient-4" x1="56.18" y1="347.67" x2="59.47" y2="347.67" xlink:href="#linear-gradient"/><linearGradient id="linear-gradient-5" x1="56.18" y1="352.5" x2="59.47" y2="352.5" xlink:href="#linear-gradient"/><linearGradient id="linear-gradient-6" x1="56.18" y1="357.32" x2="59.47" y2="357.32" xlink:href="#linear-gradient"/><linearGradient id="linear-gradient-7" x1="62.5" y1="403.09" x2="114.69" y2="403.09" gradientTransform="matrix(0.23, 0.97, -0.97, 0.23, 460.54, 224.25)" xlink:href="#linear-gradient"/><linearGradient id="linear-gradient-8" x1="127.4" y1="382.8" x2="127.45" y2="382.8" gradientUnits="userSpaceOnUse"><stop offset="0" stop-color="#4042e2"/><stop offset="1" stop-color="#4f52ff"/></linearGradient><linearGradient id="linear-gradient-9" x1="127.4" y1="405.98" x2="127.45" y2="405.98" xlink:href="#linear-gradient-2"/><linearGradient id="linear-gradient-10" x1="127.4" y1="429.16" x2="127.45" y2="429.16" xlink:href="#linear-gradient-8"/><linearGradient id="linear-gradient-11" x1="7431.11" y1="553.97" x2="7441.63" y2="553.97" gradientTransform="translate(-7366.62)" xlink:href="#linear-gradient-2"/><linearGradient id="linear-gradient-12" x1="7417.01" y1="481.82" x2="7431.04" y2="481.82" gradientTransform="translate(-7366.62)" gradientUnits="userSpaceOnUse"><stop offset="0" stop-color="#ff928e"/><stop offset="1" stop-color="#feb3b1"/></linearGradient><linearGradient id="linear-gradient-13" x1="7434.04" y1="542" x2="7432.03" y2="559.53" xlink:href="#linear-gradient-12"/><linearGradient id="linear-gradient-14" x1="7447.13" y1="554.25" x2="7462.26" y2="554.25" gradientTransform="translate(-7366.62)" xlink:href="#linear-gradient-2"/><linearGradient id="linear-gradient-15" x1="7450.4" y1="543.87" x2="7448.39" y2="561.4" xlink:href="#linear-gradient-12"/><linearGradient id="linear-gradient-16" x1="7474.27" y1="463.7" x2="7410.02" y2="563.4" gradientTransform="translate(-7366.62)" xlink:href="#linear-gradient-2"/><linearGradient id="linear-gradient-17" x1="7482.58" y1="408.85" x2="7468.6" y2="428.58" xlink:href="#linear-gradient-12"/><linearGradient id="linear-gradient-18" x1="7476.66" y1="404.66" x2="7462.68" y2="424.39" xlink:href="#linear-gradient-12"/><linearGradient id="linear-gradient-19" x1="7438.48" y1="428.57" x2="7430.81" y2="461.72" xlink:href="#linear-gradient-12"/><linearGradient id="linear-gradient-20" x1="3231.76" y1="4449.14" x2="3218.15" y2="4467.14" gradientTransform="translate(-5383.88 -274.24) rotate(-46.73)" xlink:href="#linear-gradient-12"/><linearGradient id="linear-gradient-21" x1="3221.37" y1="4453.46" x2="3237.62" y2="4453.46" gradientTransform="translate(-5383.88 -274.24) rotate(-46.73)" xlink:href="#linear-gradient-2"/><linearGradient id="linear-gradient-22" x1="3211.83" y1="4463.39" x2="3222.75" y2="4452.2" gradientTransform="translate(-5383.88 -274.24) rotate(-46.73)" xlink:href="#linear-gradient-12"/><linearGradient id="linear-gradient-23" x1="7438.24" y1="490.47" x2="7432.85" y2="500.06" gradientTransform="translate(-7366.62)" xlink:href="#linear-gradient-2"/><linearGradient id="linear-gradient-24" x1="354.1" y1="103.17" x2="343.8" y2="260.14" xlink:href="#linear-gradient-2"/><linearGradient id="linear-gradient-25" x1="412.92" y1="224.55" x2="238.8" y2="489.59" xlink:href="#linear-gradient-8"/><linearGradient id="linear-gradient-26" x1="372.83" y1="276.93" x2="350.53" y2="355.84" gradientUnits="userSpaceOnUse"><stop offset="0" stop-color="#a22b25"/><stop offset="1" stop-color="#c0423c"/></linearGradient><linearGradient id="linear-gradient-27" x1="-3965.62" y1="384.26" x2="-3955.14" y2="410.55" gradientTransform="translate(4443.12)" xlink:href="#linear-gradient-2"/><linearGradient id="linear-gradient-28" x1="-3987.25" y1="399.45" x2="-3967.88" y2="443.51" gradientTransform="translate(4443.12)" xlink:href="#linear-gradient-26"/><linearGradient id="linear-gradient-29" x1="-3927.3" y1="552.59" x2="-3918.41" y2="552.59" gradientTransform="translate(4443.12)" xlink:href="#linear-gradient-8"/><linearGradient id="linear-gradient-30" x1="-3964.86" y1="587.64" x2="-3952.07" y2="438.15" gradientTransform="translate(4443.12)" xlink:href="#linear-gradient-26"/><linearGradient id="linear-gradient-31" x1="-3968.6" y1="550.97" x2="-3954.21" y2="550.97" gradientTransform="translate(4443.12)" xlink:href="#linear-gradient-8"/><linearGradient id="linear-gradient-32" x1="-3939.13" y1="589.87" x2="-3926.34" y2="440.34" gradientTransform="translate(4443.12)" xlink:href="#linear-gradient-26"/><linearGradient id="linear-gradient-33" x1="484.68" y1="418.06" x2="465.12" y2="473.29" xlink:href="#linear-gradient-8"/><linearGradient id="linear-gradient-34" x1="496.04" y1="464.7" x2="526.35" y2="402.95" xlink:href="#linear-gradient-8"/><linearGradient id="linear-gradient-35" x1="-3966.26" y1="440.29" x2="-3963.86" y2="422.71" gradientTransform="translate(4443.12)" xlink:href="#linear-gradient-26"/><linearGradient id="linear-gradient-36" x1="-3956.36" y1="448.86" x2="-3940.4" y2="448.86" gradientTransform="translate(4443.12)" xlink:href="#linear-gradient-26"/><linearGradient id="linear-gradient-37" x1="-3972.33" y1="417.63" x2="-3951.36" y2="380.32" gradientTransform="translate(4443.12)" xlink:href="#linear-gradient-26"/><linearGradient id="linear-gradient-38" x1="-3967.82" y1="385.14" x2="-3957.34" y2="411.43" gradientTransform="translate(4443.12)" xlink:href="#linear-gradient-2"/><linearGradient id="linear-gradient-39" x1="-3967.87" y1="420.13" x2="-3946.9" y2="382.83" gradientTransform="translate(4443.12)" xlink:href="#linear-gradient-26"/><linearGradient id="linear-gradient-40" x1="-3991.07" y1="401.13" x2="-3971.71" y2="445.19" gradientTransform="translate(4443.12)" xlink:href="#linear-gradient-26"/><linearGradient id="linear-gradient-41" x1="-4000.3" y1="384.88" x2="-3995.74" y2="384.88" gradientTransform="translate(4443.12)" xlink:href="#linear-gradient-26"/><linearGradient id="linear-gradient-42" x1="-615.51" y1="497.22" x2="-621.72" y2="509.43" gradientTransform="matrix(-0.98, -0.22, -0.22, 0.98, 35.53, -77.68)" xlink:href="#linear-gradient-2"/><linearGradient id="linear-gradient-43" x1="-623.91" y1="495.38" x2="-617.72" y2="495.38" gradientTransform="matrix(-0.98, -0.22, -0.22, 0.98, 35.53, -77.68)" xlink:href="#linear-gradient-12"/><linearGradient id="linear-gradient-44" x1="-632.47" y1="479.01" x2="-606.18" y2="442.17" gradientTransform="matrix(-0.98, -0.22, -0.22, 0.98, 35.53, -77.68)" gradientUnits="userSpaceOnUse"><stop offset="0" stop-color="#2b3582"/><stop offset="0.23" stop-color="#252a70"/><stop offset="0.73" stop-color="#19164f"/><stop offset="1" stop-color="#150e42"/></linearGradient><linearGradient id="linear-gradient-45" x1="-615.71" y1="502.86" x2="-637.23" y2="531.01" gradientTransform="matrix(-0.98, -0.22, -0.22, 0.98, 35.53, -77.68)" xlink:href="#linear-gradient-2"/><linearGradient id="linear-gradient-46" x1="-628.38" y1="501.08" x2="-622.58" y2="501.08" gradientTransform="matrix(-0.98, -0.22, -0.22, 0.98, 35.53, -77.68)" xlink:href="#linear-gradient-12"/><linearGradient id="linear-gradient-47" x1="-641.95" y1="497.37" x2="-640.5" y2="448.11" gradientTransform="matrix(-0.98, -0.22, -0.22, 0.98, 35.53, -77.68)" xlink:href="#linear-gradient-2"/><linearGradient id="linear-gradient-48" x1="-357.37" y1="175.39" x2="-279.56" y2="97.01" gradientTransform="matrix(-0.98, -0.22, -0.22, 0.98, 35.53, -77.68)" xlink:href="#linear-gradient-8"/><linearGradient id="linear-gradient-49" x1="-607.49" y1="439.98" x2="-587.24" y2="439.98" gradientTransform="matrix(-0.98, -0.22, -0.22, 0.98, 35.53, -77.68)" xlink:href="#linear-gradient-12"/><linearGradient id="linear-gradient-50" x1="552.63" y1="445.8" x2="591.11" y2="514.07" xlink:href="#linear-gradient-8"/><linearGradient id="linear-gradient-51" x1="552.64" y1="442.44" x2="561.79" y2="463.59" gradientTransform="matrix(1, 0, 0, 1, 0, 0)" xlink:href="#linear-gradient-12"/><linearGradient id="linear-gradient-52" x1="567.42" y1="437.47" x2="605.89" y2="505.74" xlink:href="#linear-gradient-8"/><linearGradient id="linear-gradient-53" x1="593.65" y1="447.61" x2="583.35" y2="474.2" gradientTransform="matrix(1, 0, 0, 1, 0, 0)" xlink:href="#linear-gradient-12"/><linearGradient id="linear-gradient-54" x1="6662.6" y1="2417.4" x2="6669.75" y2="2402.11" gradientTransform="matrix(-0.99, -0.13, -0.13, 0.99, 7730.17, -274.05)" xlink:href="#linear-gradient-12"/><linearGradient id="linear-gradient-55" x1="7015.11" y1="1635.47" x2="7029.79" y2="1654.38" gradientTransform="matrix(-0.99, -0.13, -0.13, 0.99, 7730.17, -274.05)" gradientUnits="userSpaceOnUse"><stop offset="0" stop-color="#e1473d"/><stop offset="1" stop-color="#e9605a"/></linearGradient><linearGradient id="linear-gradient-56" x1="6658.2" y1="2415.35" x2="6665.35" y2="2400.05" gradientTransform="matrix(-0.99, -0.13, -0.13, 0.99, 7730.17, -274.05)" xlink:href="#linear-gradient-12"/><linearGradient id="linear-gradient-57" x1="10968.15" y1="1158.38" x2="10941.81" y2="1165.6" gradientTransform="translate(-10454.95 -132.34) rotate(-2.83)" xlink:href="#linear-gradient-2"/><linearGradient id="linear-gradient-58" x1="11008.73" y1="465.8" x2="10990.04" y2="485.56" gradientTransform="translate(-10487.12)" xlink:href="#linear-gradient-2"/><linearGradient id="linear-gradient-59" x1="10997.43" y1="470.72" x2="10988.95" y2="483.49" gradientTransform="translate(-10487.12)" gradientUnits="userSpaceOnUse"><stop offset="0" stop-color="#53d8ff"/><stop offset="1" stop-color="#3840f7"/></linearGradient></defs><path class="cls-1" d="M625.08,384.06c-10.09-11.06-22-21.85-25.14-36.88-5.38-26,17.64-48.16,25.18-73.54A65.92,65.92,0,0,0,618,220.78c-9.63-15.32-26-25.65-43.33-27.33-29.79-2.9-58.95,18.35-88.29,12.19-23.5-4.92-42.06-26.65-65.92-29-28.06-2.74-51.35,21.78-78.15,31-32.06,11.05-66.82-.5-98.33-13.16s-64.68-26.8-97.91-20.73c-37,6.74-68,40.85-72.93,80.22-4.9,39,36.21,70.34,1.21,117.19-10.93,14.64-18.21,35-13.37,53,4.69,17.44,24.68,28.47,24.83,46.6.11,14.32-12.64,25.71-13.67,40-.88,12.25,7.45,23.58,17.68,29.39s22.1,7.22,33.64,8.54l-3.4,3.87c58.14,5.52,116.65,4.3,175,3.06l276.12-5.84c9.46-.2,19.15-.44,28-4.09s16.72-11.43,18.06-21.34c2.29-16.87-14.37-31.51-12.83-48.47,2-21.67,30.78-30,36.27-51C644.53,410.05,635.17,395.12,625.08,384.06Z" transform="translate(-23.37 -158.32)"/><path class="cls-2" d="M534.93,179.16c8.48,25.39,51.8,175.13-81.41,241,0,0-53.9-91.24,77.56-241.8A2.27,2.27,0,0,1,534.93,179.16Z" transform="translate(-23.37 -158.32)"/><path class="cls-3" d="M526.67,204.72c-.67,8.54-1.51,17-2.42,25.55s-1.94,17-3,25.47c-2.23,16.95-4.84,33.86-8,50.68S506.45,340,501.91,356.5q-3.37,12.4-7.65,24.54a218.16,218.16,0,0,1-9.9,23.79,1.15,1.15,0,1,1-2.06-1h0a214.33,214.33,0,0,0,9.93-23.47q4.33-12,7.77-24.35c4.63-16.41,8.36-33.09,11.61-49.85s6-33.64,8.28-50.56q1.76-12.69,3.21-25.42c1-8.49,1.87-17,2.59-25.49h0a.48.48,0,0,1,.52-.45A.49.49,0,0,1,526.67,204.72Z" transform="translate(-23.37 -158.32)"/><path class="cls-3" d="M613.32,207.73a2.55,2.55,0,0,0-4.81-1.12c-11.56,22.82-43.75,81.69-80.74,109-60.24,44.45-110.62,126-88,177.92C439.81,493.51,618.16,495.92,613.32,207.73Z" transform="translate(-23.37 -158.32)"/><path class="cls-4" d="M601.57,241.22c-.21.74-.46,1.38-.69,2.05l-.74,2-1.51,4q-1.54,3.95-3.14,7.88-3.19,7.84-6.58,15.63c-4.51,10.37-9.29,20.62-14.23,30.79s-10.12,20.23-15.52,30.17l-2,3.73-2.07,3.71c-1.39,2.46-2.73,4.95-4.16,7.39l-4.24,7.35-4.35,7.28a549,549,0,0,1-38.43,55.93c-.86,1.12-1.75,2.22-2.66,3.31l-2.69,3.28-2.7,3.27c-.91,1.09-1.85,2.14-2.78,3.21-1.86,2.13-3.68,4.3-5.59,6.39l-5.77,6.23A299.74,299.74,0,0,1,457,468a.29.29,0,1,1-.38-.43h0A321.23,321.23,0,0,0,480.84,444l5.68-6.27c1.88-2.1,3.67-4.28,5.51-6.41.91-1.08,1.84-2.14,2.74-3.23l2.65-3.3,2.65-3.29c.89-1.09,1.77-2.2,2.62-3.32l5.15-6.72c1.7-2.25,3.34-4.54,5-6.81.83-1.14,1.68-2.27,2.49-3.42l2.43-3.47,2.42-3.46c.82-1.16,1.62-2.31,2.4-3.49,6.36-9.32,12.35-18.89,18.25-28.51,11.72-19.29,22.45-39.17,32.55-59.37q7.54-15.15,14.5-30.6,3.5-7.73,6.82-15.51c1.1-2.6,2.19-5.2,3.26-7.82l1.57-3.93.77-2c.24-.65.51-1.33.7-1.94l0-.06a.29.29,0,0,1,.36-.19A.28.28,0,0,1,601.57,241.22Z" transform="translate(-23.37 -158.32)"/><path class="cls-2" d="M455.38,551.67s1.73-36.62,39.6-72.74C530.12,445.41,616.36,368,636.92,324.44a2,2,0,0,1,3.76.86c-.37,22.89-5.8,80.14-46.85,136.13C540.91,533.62,455.38,551.67,455.38,551.67Z" transform="translate(-23.37 -158.32)"/><path class="cls-3" d="M622.49,365.05a83.69,83.69,0,0,1-3.85,14.68c-.2.6-.39,1.21-.61,1.8l-.68,1.78L616,386.86l-1.51,3.49c-.51,1.16-1,2.34-1.56,3.47a179.47,179.47,0,0,1-15.33,26.26c-1.38,2.14-3,4.11-4.5,6.15s-3,4.09-4.69,6l-4.89,5.83c-.79,1-1.68,1.9-2.54,2.83l-2.6,2.79-2.59,2.79-1.3,1.39-1.37,1.32-5.45,5.31c-.92.88-1.81,1.79-2.74,2.64l-2.81,2.55-5.62,5.11-5.67,5c-1.89,1.67-3.77,3.36-5.69,5q-5.73,5-11.53,9.87c-3.85,3.28-7.76,6.5-11.64,9.74L510.2,504c-7.84,6.37-15.7,12.74-23.32,19.34-1.93,1.63-3.77,3.34-5.65,5-1,.83-1.83,1.72-2.74,2.6s-1.83,1.73-2.7,2.63c-1.72,1.84-3.51,3.62-5.1,5.57l-1.23,1.43c-.2.25-.41.48-.6.73l-.56.75-2.26,3h0a.29.29,0,0,1-.41.06.29.29,0,0,1-.07-.39,89.81,89.81,0,0,1,9.49-11.89c.87-.93,1.78-1.81,2.66-2.72s1.77-1.82,2.7-2.68c1.84-1.74,3.66-3.51,5.56-5.19,7.51-6.8,15.32-13.23,23.06-19.73s15.51-13,23.19-19.52,15.26-13.23,22.79-20l5.6-5.1,2.8-2.55c.93-.84,1.82-1.73,2.73-2.6l5.44-5.24,1.36-1.31,1.3-1.37,2.58-2.75A223,223,0,0,0,596.13,419a176.63,176.63,0,0,0,15.76-25.72c.61-1.11,1.09-2.27,1.65-3.4l1.61-3.42,1.47-3.48.74-1.74c.23-.59.44-1.18.66-1.77.44-1.18.91-2.36,1.31-3.55l1.18-3.59a73.73,73.73,0,0,0,1.91-7.33,0,0,0,0,1,0,0A.05.05,0,0,1,622.49,365.05Z" transform="translate(-23.37 -158.32)"/><path class="cls-2" d="M182,467.93s-36.71-155-112.79-239.58a9.66,9.66,0,0,0-16.51,3.88C39.15,281.55,13.23,431.15,182,467.93Z" transform="translate(-23.37 -158.32)"/><path class="cls-3" d="M166.51,457.93a.42.42,0,0,1-.55.64c-15.65-11.64-76.17-68.85-98.51-182.85a.29.29,0,0,1,.57-.15C75.62,302,106.68,399.44,166.51,457.93Z" transform="translate(-23.37 -158.32)"/><path class="cls-3" d="M170.92,349.16s14.64-111.55-14.39-186.46a6.82,6.82,0,0,0-11.87-1.58C123.38,190.3,68.75,282.56,170.92,349.16Z" transform="translate(-23.37 -158.32)"/><path class="cls-4" d="M163.23,338.69a.3.3,0,0,1-.52.28c-7.41-11.61-33-64.56-19.18-145.43a.21.21,0,0,1,.41,0C142.33,212.94,138.4,285.06,163.23,338.69Z" transform="translate(-23.37 -158.32)"/><path class="cls-2" d="M23.76,396.71a.8.8,0,0,1,.5-1.48c13.65,1.47,63.25,9.88,100.47,55.67,34.06,41.9,51.09,76.88,56.9,90.14a3.75,3.75,0,0,1-3.8,5.24c-16.89-1.69-63.94-8.87-83.62-37.59C70.69,474.38,58.68,418.27,23.76,396.71Z" transform="translate(-23.37 -158.32)"/><path class="cls-5" d="M63.83,420.41s44.43,16.76,114.24,121.05C178.07,541.46,102.36,440.37,63.83,420.41Z" transform="translate(-23.37 -158.32)"/><path class="cls-6" d="M549.11,537a7.54,7.54,0,0,1-7.52,7.52H134.53A7.55,7.55,0,0,1,127,537l-3.39-233.92c0-4.14,4.87-12.21,13.81-11.61l397.82-10.29a19,19,0,0,1,19.46,19.4Z" transform="translate(-23.37 -158.32)"/><path class="cls-7" d="M541.68,529.76a7.14,7.14,0,0,1-7.12,7.12H144.34a7.14,7.14,0,0,1-7.12-7.12L134,317.4c.38-12.78,11.59-17.37,18.38-17.1l381.28-10.23a13.33,13.33,0,0,1,13.67,13.64Z" transform="translate(-23.37 -158.32)"/><path class="cls-8" d="M141.44,428.4a.58.58,0,0,1-.58-.56l-.25-17.22a.59.59,0,0,1,.57-.59h0a.57.57,0,0,1,.57.57l.25,17.22a.56.56,0,0,1-.56.58Z" transform="translate(-23.37 -158.32)"/><path class="cls-8" d="M140.82,386.2a.58.58,0,0,1-.58-.57l-1-66c0-4.4,1.38-7.92,4-10.47,4.83-4.63,12.39-4.4,12.71-4.38l121.76-3.27a.55.55,0,0,1,.59.56.57.57,0,0,1-.55.59L156,306c-.34,0-7.43-.23-11.92,4.07-2.42,2.32-3.66,5.56-3.67,9.63l1,65.95a.56.56,0,0,1-.56.58Z" transform="translate(-23.37 -158.32)"/><path class="cls-9" d="M154.41,518c.41-17.55.26-173-.75-186.4s19.9-15.94,52-17.45,302.91-7.5,309.88-8.06c15.68-1.27,18.92,22.16,17.35,73-1.18,38.21-3.13,101.16-4,130.1a16,16,0,0,1-15.93,15.48c-65.17.18-314.95.9-331.57,1.39C162.22,526.62,154.25,524.94,154.41,518Z" transform="translate(-23.37 -158.32)"/><rect class="cls-10" x="78.86" y="377.56" width="479.91" height="20.55" rx="7.51"/><g class="cls-11"><rect class="cls-8" x="146.98" y="280.56" width="17.79" height="76.96"/><rect class="cls-8" x="176.7" y="307.01" width="17.79" height="50.51"/><rect class="cls-8" x="206.42" y="241.64" width="17.79" height="115.89"/><rect class="cls-8" x="236.13" y="329.68" width="17.79" height="27.84"/><rect class="cls-8" x="265.85" y="257.13" width="17.79" height="100.39"/><rect class="cls-8" x="295.57" y="274.51" width="17.79" height="83.01"/><rect class="cls-8" x="325.29" y="293.41" width="17.79" height="64.12"/><rect class="cls-8" x="355.01" y="218.21" width="17.79" height="139.31"/><rect class="cls-8" x="384.73" y="232.95" width="17.79" height="124.58"/><rect class="cls-8" x="414.45" y="255.24" width="17.79" height="102.28"/><rect class="cls-8" x="444.16" y="332.27" width="17.79" height="25.26"/><rect class="cls-8" x="473.88" y="283.2" width="17.79" height="74.32"/></g><path class="cls-4" d="M51.19,341.18,238.38,338a13.12,13.12,0,0,1,13.14,14l-6.44,110.81a11.42,11.42,0,0,1-11.17,10.87L54,475.51a8.3,8.3,0,0,1-8.28-8.09L41.38,351.78A10.11,10.11,0,0,1,51.19,341.18Z" transform="translate(-23.37 -158.32)"/><path class="cls-3" d="M44.51,354.08A9.71,9.71,0,0,1,54.06,344l182.31-3a12.61,12.61,0,0,1,12.79,13.36l-6.27,105.42A11,11,0,0,1,232,470.11L56.77,471.8a8,8,0,0,1-8.07-7.69Z" transform="translate(-23.37 -158.32)"/><path class="cls-2" d="M48.37,357.24a9.27,9.27,0,0,1,9.1-9.61l173.6-2.86a12,12,0,0,1,12.18,12.71l-6,100.39a10.48,10.48,0,0,1-10.36,9.85L60.05,469.33A7.6,7.6,0,0,1,52.37,462Z" transform="translate(-23.37 -158.32)"/><path class="cls-4" d="M236.79,340.9l-183.07,3a9.75,9.75,0,0,0-9.59,10.13l.29,7.76H249.19l.45-7.5A12.67,12.67,0,0,0,236.79,340.9Z" transform="translate(-23.37 -158.32)"/><g class="cls-12"><path class="cls-13" d="M59.47,347.67A1.65,1.65,0,1,1,57.83,346,1.65,1.65,0,0,1,59.47,347.67Z" transform="translate(-23.37 -158.32)"/><path class="cls-14" d="M59.47,352.5a1.65,1.65,0,1,1-1.64-1.65A1.64,1.64,0,0,1,59.47,352.5Z" transform="translate(-23.37 -158.32)"/><path class="cls-15" d="M59.47,357.32a1.65,1.65,0,1,1-1.64-1.64A1.65,1.65,0,0,1,59.47,357.32Z" transform="translate(-23.37 -158.32)"/></g><circle class="cls-16" cx="88.59" cy="403.09" r="26.1" transform="translate(-347.44 238.38) rotate(-76.72)"/><circle class="cls-4" cx="65.22" cy="244.76" r="5.75"/><path class="cls-3" d="M102.58,412.51a16.76,16.76,0,1,1-13.86-26.19q.42,0,.84,0V382.1l-.84,0A21,21,0,1,0,106,415Z" transform="translate(-23.37 -158.32)"/><path class="cls-4" d="M134.63,383.24a3.83,3.83,0,1,1-3.8-3.85A3.83,3.83,0,0,1,134.63,383.24Z" transform="translate(-23.37 -158.32)"/><path class="cls-17" d="M127.4,383a3.15,3.15,0,0,1,0-.43Z" transform="translate(-23.37 -158.32)"/><path class="cls-4" d="M134.63,406.42a3.83,3.83,0,1,1-3.8-3.85A3.83,3.83,0,0,1,134.63,406.42Z" transform="translate(-23.37 -158.32)"/><path class="cls-18" d="M127.4,406.19a3.15,3.15,0,0,1,0-.43Z" transform="translate(-23.37 -158.32)"/><path class="cls-4" d="M134.63,429.6a3.83,3.83,0,1,1-3.8-3.85A3.83,3.83,0,0,1,134.63,429.6Z" transform="translate(-23.37 -158.32)"/><path class="cls-19" d="M127.4,429.37a3.15,3.15,0,0,1,0-.43Z" transform="translate(-23.37 -158.32)"/><path class="cls-3" d="M140.51,383l0,.65c0,1.77,1.15,3.17,2.49,3.17l74.4.16c1.39,0,2.52-1.47,2.52-3.29h0c0-1.79-1.09-3.25-2.46-3.28l-74.42-.81C141.63,379.6,140.46,381.16,140.51,383Z" transform="translate(-23.37 -158.32)"/><path class="cls-3" d="M140.51,406.11l0,.65c0,1.76,1.15,3.16,2.49,3.17l74.4.15c1.39,0,2.52-1.46,2.52-3.29h0c0-1.78-1.09-3.24-2.46-3.28l-74.42-.8C141.63,402.67,140.46,404.22,140.51,406.11Z" transform="translate(-23.37 -158.32)"/><path class="cls-3" d="M140.51,429.18l0,.65c0,1.76,1.15,3.16,2.49,3.17l74.4.15c1.39,0,2.52-1.47,2.52-3.29h0c0-1.79-1.09-3.24-2.46-3.28l-74.42-.8C141.63,425.74,140.46,427.29,140.51,429.18Z" transform="translate(-23.37 -158.32)"/><path class="cls-3" d="M229.18,452.46a4.62,4.62,0,0,0-4.67-5.1L64.78,450.19a4.61,4.61,0,0,0-4.47,5.34l.71,4.41a4.6,4.6,0,0,0,4.57,3.88l158.31-.62a4.61,4.61,0,0,0,4.57-4.12Z" transform="translate(-23.37 -158.32)"/><path class="cls-20" d="M75,557.71a.93.93,0,0,0,0-.23c-1.19-4.7-7.06-7.62-7.06-7.62L65.6,550c-1.34,4.14-1.17,6.67-1,7.81l0,.09A55.37,55.37,0,0,0,75,557.71Z" transform="translate(-23.37 -158.32)"/><path class="cls-2" d="M64.67,557.94a1,1,0,0,0,.74.74c2.73.58,7.08.12,8.9-.12a.84.84,0,0,0,.7-.85A55.37,55.37,0,0,1,64.67,557.94Z" transform="translate(-23.37 -158.32)"/><path class="cls-21" d="M55.44,474.59a21.78,21.78,0,0,1-5,3.69,42.09,42.09,0,0,0,9.23,8.2L60.76,489l3.66-4.38S57.86,481.4,55.44,474.59Z" transform="translate(-23.37 -158.32)"/><path class="cls-22" d="M64.66,546.57l1,4.75a.77.77,0,0,0,.66.64,6.67,6.67,0,0,0,1.53,0,1,1,0,0,0,.77-1.14l-.68-4.22Z" transform="translate(-23.37 -158.32)"/><path class="cls-2" d="M85.1,557.89a13.58,13.58,0,0,1-4.59-.66c0,.26,0,.52,0,.79a.51.51,0,0,0,.48.52l14.13-.09a.65.65,0,0,0,.52-.94C93.8,557.66,89.08,558,85.1,557.89Z" transform="translate(-23.37 -158.32)"/><path class="cls-23" d="M95.65,557.51a.39.39,0,0,0-.06-.11,18,18,0,0,0-10.7-6.72l-3-.1a14.54,14.54,0,0,0-1.37,6.65,13.58,13.58,0,0,0,4.59.66C89.08,558,93.8,557.66,95.65,557.51Z" transform="translate(-23.37 -158.32)"/><path class="cls-24" d="M81.32,546c0,.22.44,3.64.6,5a.66.66,0,0,0,.56.59,6.9,6.9,0,0,0,2.07,0,.89.89,0,0,0,.67-.89v-5.36Z" transform="translate(-23.37 -158.32)"/><path class="cls-25" d="M78.9,483.75A267.75,267.75,0,0,1,86,546.1,1.34,1.34,0,0,1,85,547.41a16,16,0,0,1-3.37.39,1.26,1.26,0,0,1-1.19-1c-1-6-6.86-39.63-10.19-45.09,0,0-2.2,30-1.5,45.52a.74.74,0,0,1-.65.77,12.61,12.61,0,0,1-2.7,0,1,1,0,0,1-.88-.84c-.72-5.05-4.9-35.15-4.72-56.82,0-1.23,3.23-6.54,3.23-6.54Z" transform="translate(-23.37 -158.32)"/><path class="cls-7" d="M102.66,424.29c-3.19,5.94-8.49,12-17.1,13.62-8,1.5-22.23,3.35-28,4.07a7,7,0,0,0-4.44,2.39c-4.51,5.22-14.4,19.51-2.76,33.91a21.78,21.78,0,0,0,5-3.69c-1.29-3.64-1.39-8.28,1.31-14,.09.45.21.9.34,1.34A82.57,82.57,0,0,1,61,485.83a.74.74,0,0,0,.47.69c4.9,2,14.33.8,17.49.33a1.07,1.07,0,0,0,.89-1.21c-1.55-11.26,6.42-29.78,8.53-34.42a3.12,3.12,0,0,1,1.53-1.53c12-5.44,17.28-13.83,19.4-21.39A11.56,11.56,0,0,0,102.66,424.29Z" transform="translate(-23.37 -158.32)"/><path class="cls-26" d="M109.32,428.3a36.51,36.51,0,0,0,.58-17.09h-2.75a44.45,44.45,0,0,1-4.49,13.08A11.56,11.56,0,0,1,109.32,428.3Z" transform="translate(-23.37 -158.32)"/><path class="cls-27" d="M108.12,412.67s-4.18-5.41-2.82-8.23,6-2.55,6-2.55l.65,2.21a2.75,2.75,0,0,1-.07,1.77l-2.57,6.8Z" transform="translate(-23.37 -158.32)"/><path class="cls-28" d="M66.06,431.15l-.94,9.65s5.43,1.64,9.37-1.15l-2.77-8.77Z" transform="translate(-23.37 -158.32)"/><path class="cls-29" d="M72.36,420.16c.13.12,5.51,10.69,5.51,10.69l-6.1,2.94-6.59-9.26S70.17,418.1,72.36,420.16Z" transform="translate(-23.37 -158.32)"/><path class="cls-30" d="M67.88,424.79a1,1,0,0,0,.08.86l3,5.07a1,1,0,0,0,.17.21c.36.33,1.6,1.31,2.55,0a8.67,8.67,0,0,1,2.41-2.6,1,1,0,0,1,1.31.43,36.37,36.37,0,0,1,2.08,4.94,1,1,0,0,1-.56,1.19,27.26,27.26,0,0,1-5.84,1.7,1,1,0,0,1-.92-.39c-.94-1.28-3.56-4.84-4.46-5.74s-2.37-.51-3.06-.31a1,1,0,0,1-.78-.11,2.14,2.14,0,0,1-.81-3.26,1,1,0,0,0-.3-1.32,2.16,2.16,0,0,1-.82-3.06,3,3,0,0,1,3.28-1.6,1,1,0,0,0,1.06-.59.66.66,0,0,1,.51-.4,1,1,0,0,0,.76-1.11A2.48,2.48,0,0,1,69,415.83c2.63-1.45,4.94.91,5.53,2.9s-2.36,3.39-4.21,3.63C68.93,422.53,68.18,424,67.88,424.79Z" transform="translate(-23.37 -158.32)"/><path class="cls-31" d="M68.88,432.31s-1.17-3.43-2.66-3.3-2.68,1.61-.83,3.29C67.7,434.39,68.88,432.31,68.88,432.31Z" transform="translate(-23.37 -158.32)"/><path class="cls-32" d="M56.26,459.74c-2-5.41-1.26-11.93-1.26-12l.55.06c0,.07-.71,6.47,1.22,11.75Z" transform="translate(-23.37 -158.32)"/><path class="cls-33" d="M70,501a.29.29,0,0,1-.27-.2c-.6-2.32-5.11-4.88-5.16-4.9a.29.29,0,0,1-.1-.38.27.27,0,0,1,.37-.1c.2.11,4.76,2.69,5.42,5.24A.28.28,0,0,1,70,501Z" transform="translate(-23.37 -158.32)"/><path class="cls-34" d="M466.46,289.61a24,24,0,0,0-13.68-20.13L350.86,221.07a24,24,0,0,0-20.62,0L228.32,269.48a24,24,0,0,0-13.68,20.13c-9.56,147.77,85.19,201.61,116.25,215.21a24.05,24.05,0,0,0,19.32,0C381.27,491.22,476,437.38,466.46,289.61Z" transform="translate(-23.37 -158.32)"/><path class="cls-3" d="M309.72,241.46a1.44,1.44,0,0,1-.62-2.74l24.08-11.44a1.44,1.44,0,0,1,1.24,2.6l-24.08,11.44A1.37,1.37,0,0,1,309.72,241.46Z" transform="translate(-23.37 -158.32)"/><path class="cls-3" d="M222.43,321.22a1.43,1.43,0,0,1-1.43-1.39c-.33-9.61-.16-19.63.5-29.78a17.14,17.14,0,0,1,9.76-14.36l68.57-32.56a1.44,1.44,0,0,1,1.23,2.6L232.5,278.29a14.26,14.26,0,0,0-8.13,11.94c-.65,10.06-.82,20-.5,29.5a1.43,1.43,0,0,1-1.39,1.49Z" transform="translate(-23.37 -158.32)"/><path class="cls-35" d="M441.81,295.37a6,6,0,0,0-3.41-5.11L343.12,245a5.94,5.94,0,0,0-5.14,0L242.7,290.26a6,6,0,0,0-3.42,5.11c-2.81,55.13,9.92,101.12,37.88,136.77A169,169,0,0,0,338,480.68a6,6,0,0,0,5.08,0,169,169,0,0,0,60.85-48.54C431.9,396.49,444.63,350.5,441.81,295.37Z" transform="translate(-23.37 -158.32)"/><path class="cls-7" d="M312.38,354.6h-9.5V316.76a29.46,29.46,0,0,1,25.88-29.22l19.42-2.36a29.43,29.43,0,0,1,33,29.22v33h-9.49v-33a19.93,19.93,0,0,0-22.35-19.79L329.91,297a20,20,0,0,0-17.53,19.79Z" transform="translate(-23.37 -158.32)"/><path class="cls-7" d="M300.08,346.1l83.24-4.61a5.89,5.89,0,0,1,6.22,5.89v65.94a5.9,5.9,0,0,1-5.9,5.9H302.4a5.89,5.89,0,0,1-5.89-5.7l-2-61.34A5.9,5.9,0,0,1,300.08,346.1Z" transform="translate(-23.37 -158.32)"/><path class="cls-36" d="M355.59,400.33l-5-14.48a4.85,4.85,0,0,1,1.11-5,13.72,13.72,0,1,0-18.4,1,4.88,4.88,0,0,1,1.59,5.4l-4.55,13.06a4.9,4.9,0,0,0,4.62,6.5H351A4.89,4.89,0,0,0,355.59,400.33Z" transform="translate(-23.37 -158.32)"/><path class="cls-37" d="M483.72,398.4s3.53,1.72,4.18,3.7c.52,1.58,4.43,1.79,4.81,4.9a3.57,3.57,0,0,0,3,3.14c4,.62,10.14,2.69,11.12,9.62.75,5.29-1.94,7.29-4.77,8a4,4,0,0,0-3,4.62c.4,2-.2,4.34-3.69,6.18-7.81,4.13-15.61-9.76-15.61-9.76l-1.6-24.25Z" transform="translate(-23.37 -158.32)"/><path class="cls-38" d="M446.94,385.62s10.05,27.4,27.18,36c0,0-5.7,9.3-8.67,9.86,0,0-18.3-23.42-20.17-42.61Z" transform="translate(-23.37 -158.32)"/><path class="cls-39" d="M515.83,550.46l.5,4.16a1.72,1.72,0,0,0,1.51,1.5,26.76,26.76,0,0,0,5.56.09,1.48,1.48,0,0,0,1.24-1.91,15.28,15.28,0,0,0-2.79-5.43h-4.61A1.42,1.42,0,0,0,515.83,550.46Z" transform="translate(-23.37 -158.32)"/><path class="cls-40" d="M479.72,501.78l-.78,4.57s2.61,26.4,3.07,37a8.36,8.36,0,0,1-1.22,4.7l-4.54,7.36,11.52-6.8.23-1.4-1.89-2.59L488.58,515a9,9,0,0,0-1-5l-2.38-4.48Z" transform="translate(-23.37 -158.32)"/><path class="cls-41" d="M475.5,556.43h3.67a2.2,2.2,0,0,0,1.76-.86c1.14-1.49,3.52-4.39,4.65-4.47,1.53-.1,1.33,5.33,1.33,5.33h.86l1.09-6.75a4,4,0,0,0-2.1-4.17h0a5.64,5.64,0,0,1-2.24,3.72c-1.9,1.15-7.71,5.24-7.71,5.24a5.29,5.29,0,0,0-1.49,0A1,1,0,0,0,475.5,556.43Z" transform="translate(-23.37 -158.32)"/><path class="cls-42" d="M495.49,504s15.27,29,17.69,35.57a63.09,63.09,0,0,1,3.31,12.65c.06.82,1.07,1.6,3.87,1.6a2.7,2.7,0,0,0,2.5-1.14,1.64,1.64,0,0,0,.06-1.58c-.89-1.79-3.69-7.5-4.73-10.09-1.23-3.09-3.9-17.11-5.36-22s-3.12-10.16-9.48-15C503.35,504,499,499.67,495.49,504Z" transform="translate(-23.37 -158.32)"/><path class="cls-43" d="M485.85,456.5c-3.94-16.69,6-26.12,6-26.12-6.3-6.05-17.77-8.79-17.77-8.79s-10.94,8-9.64,14.26c.76,3.67,7.69,22,7.69,22A15.21,15.21,0,0,0,485.85,456.5Z" transform="translate(-23.37 -158.32)"/><path class="cls-44" d="M494.58,464.76c-1.6-4.83-8.73-8.26-8.73-8.26a15.21,15.21,0,0,1-13.68,1.33,27.45,27.45,0,0,0-.45,10.6c1,5.11,7.22,37.92,7.22,37.92,9.81,2,24.89-2,24.89-2C497.59,493.26,496.18,469.59,494.58,464.76Z" transform="translate(-23.37 -158.32)"/><path class="cls-45" d="M481.28,410.56l3.2,14.38c.31,1.27-.85,1.06-2.13.82-2.1-.4-4.8-1.21-5.7-2.84a1.53,1.53,0,0,1-.17-.55l-1.37-10a1.79,1.79,0,0,1,1.05-1.88l2.65-1.18A1.8,1.8,0,0,1,481.28,410.56Z" transform="translate(-23.37 -158.32)"/><path class="cls-46" d="M491.89,430.38s22.34,16,2.85,32.78a5,5,0,0,1-2.2,1.28,24.31,24.31,0,0,0-4,2.73.76.76,0,0,1-1.11-.19h0a1,1,0,0,1-.06-1l2.77-5.85a2.14,2.14,0,0,1,2.77-.12h0a1.05,1.05,0,0,0,1.6-.36c1.5-3.07,4.35-12.09-7.29-22.29a1.25,1.25,0,0,1-.28-1.53C487.72,434.26,489.6,431.14,491.89,430.38Z" transform="translate(-23.37 -158.32)"/><path class="cls-47" d="M477.52,396.87s-3.79,1.6-6.37,7.08-.65,8,1.77,8.35a11.31,11.31,0,0,0,9.86-3.24C486.6,405.52,482.45,395,477.52,396.87Z" transform="translate(-23.37 -158.32)"/><path class="cls-48" d="M480.21,406.13s2.86-8-4.25-8.11l-1.67,1.17s-2.61-4.45,1.67-6.57,9.29-.37,11.11,5.4,2.13,9.63-.9,12.39-4.28-.37-4.28-.37,1.65-2.58,1-4-2.22.28-2.22.28Z" transform="translate(-23.37 -158.32)"/><path class="cls-49" d="M481,407s1.45-4.12,3.38-2.48-1.57,3.81-2.94,4.52Z" transform="translate(-23.37 -158.32)"/><path class="cls-50" d="M446,390.6c-.16.49,1.62,1.23,2.66-.76,0-1,.62-5,.05-5.83a75.64,75.64,0,0,0-8.94-9.34,1.41,1.41,0,0,0-.17,1.95l2.86,3a13.64,13.64,0,0,0-1.67,3.3,4,4,0,0,0,.4,3,35,35,0,0,0,1.83,3A4,4,0,0,0,446,390.6Z" transform="translate(-23.37 -158.32)"/><path class="cls-51" d="M444.51,388.57a27.61,27.61,0,0,0-1.33-5.21,1.71,1.71,0,0,1-.32-1.33,1.26,1.26,0,0,1,.7-.76l.17-.08,2.81,2.38.84,2.27-.54.2-.79-2.13-2.39-2a.56.56,0,0,0-.24.3,1.24,1.24,0,0,0,.25.88c.6,1,1.37,5.23,1.4,5.41Z" transform="translate(-23.37 -158.32)"/><rect class="cls-4" x="540.02" y="357.69" width="3.52" height="39.65"/><path class="cls-4" d="M580.56,556.43H549.75v-1.57a.82.82,0,0,1,.82-.81h29.11a.87.87,0,0,1,.88.88Z" transform="translate(-23.37 -158.32)"/><rect class="cls-4" x="521.85" y="348.64" width="41.17" height="11.68" rx="4.02"/><path class="cls-52" d="M534,542.51s-11.37,4.89-10.72,10c0,0,11.76-2.25,13.86-5.61s.95-5.31.95-5.31Z" transform="translate(-23.37 -158.32)"/><path class="cls-53" d="M536.76,536.91l.58,5a1.66,1.66,0,0,1-1.05,1.75,4.23,4.23,0,0,1-1.44.22,1.91,1.91,0,0,1-1.87-1.4l-1.12-4Z" transform="translate(-23.37 -158.32)"/><path class="cls-54" d="M561.6,498.63s-20.92-1-31.32,5.11.52,35.2.52,35.2,2.72.58,6.64-1.51c0,0-5.59-21.33,4.11-25a55.85,55.85,0,0,1,22.2-3.15l-2.09-9.95Z" transform="translate(-23.37 -158.32)"/><path class="cls-55" d="M525.54,550.28c2.38-.52,9.43-3.44,10.5-3.4s2.59,1.64,2.59,1.64a2.86,2.86,0,0,1-.51,2.14c-1.81,1.41-5.73,4-10.28,4.3a7.62,7.62,0,0,1-6.51-2.41A9.34,9.34,0,0,1,525.54,550.28Z" transform="translate(-23.37 -158.32)"/><path class="cls-3" d="M527.84,555c4.55-.28,8.47-2.89,10.28-4.3a8.83,8.83,0,0,1-3.35,2.92c-4.6,2.6-12.21,2.22-13.71,1.64-1.21-.47-.84-1.6.27-2.67A7.62,7.62,0,0,0,527.84,555Z" transform="translate(-23.37 -158.32)"/><path class="cls-56" d="M541.13,545.91a17.08,17.08,0,0,1-2.79,3.34,1.89,1.89,0,0,1-1.76.53,4.61,4.61,0,0,1-1.26-.44,1.23,1.23,0,0,1-.48-1.67l2.44-4.43Z" transform="translate(-23.37 -158.32)"/><path class="cls-57" d="M582.33,496.88s1.83,12.95-3.45,15.6S562,516.86,558,523.58s-11.15,19.9-17.67,23.69c0,0-3.72-1.21-4.81-3,0,0,7.74-20.34,11-25.28,2.79-4.28,6.88-10.45,12.69-13.12,1.66-.76,1.79-2.53,1.5-4.33l-.54-3.29Z" transform="translate(-23.37 -158.32)"/><path class="cls-58" d="M533.4,482.2c7.4,2.11,10.72-18.72,10.69-19.22l11.34,13.26s-6.76,11.9-17,13.17a12.08,12.08,0,0,1-6.62-1A10.58,10.58,0,0,0,533.4,482.2Z" transform="translate(-23.37 -158.32)"/><path class="cls-59" d="M519.7,475.38c3.22-1.32,6,1.32,6,1.32,3.2,3.27,5.73,4.92,7.74,5.5a10.58,10.58,0,0,1-1.56,6.24,16.49,16.49,0,0,1-7.27-7.37,1.39,1.39,0,0,0-1.83-.62c-.68.33-1.38.84-1.43,1.52-.08,1.35-1.69,1.43-1.7.93a20.23,20.23,0,0,1,1.24-3.16s-3.7,2.38-5.15,3.28-2.67-.59-2.67-.59S516.47,476.71,519.7,475.38Z" transform="translate(-23.37 -158.32)"/><path class="cls-60" d="M579.48,454.4s-10-6.78-34,5.49c0,0-2.47,3.14-1.31,6.67s15.42,22.67,16,31.65c0,0,9.75,5.74,22.41.05C582.58,498.26,586.82,474.54,579.48,454.4Z" transform="translate(-23.37 -158.32)"/><path class="cls-61" d="M558.77,445.73l3.93,7.7a2.18,2.18,0,0,1-.23,2.36,6.26,6.26,0,0,1-7.2,2,3.41,3.41,0,0,1-2.3-2.45l-2-8.6Z" transform="translate(-23.37 -158.32)"/><path class="cls-62" d="M586.84,481.3c.68-4.68-11.69-13.76-11.69-13.76l4.33-13.14s23.6,16.85,18.64,30.61a9.6,9.6,0,0,1-3.07,4.43C592.55,484.31,589.16,482.18,586.84,481.3Z" transform="translate(-23.37 -158.32)"/><path class="cls-63" d="M569.58,482.6s14,3.91,16.9-.35a2.21,2.21,0,0,0,.36-.95c2.32.88,5.71,3,8.21,8.14-6.64,5.22-19.45-.64-22.93-2.39a2.48,2.48,0,0,0-1.85-.16,16.42,16.42,0,0,1-4.58.92c-1.74-.09-3.62,6.23-6.6,4.63C559.09,492.44,560.45,481.64,569.58,482.6Z" transform="translate(-23.37 -158.32)"/><path class="cls-64" d="M550.56,433.8s-3.66,6.09-4.3,9.45-1.65,5.47,2.18,6.67a8.4,8.4,0,0,0,9.62-3.46s3.49-4.84,3.15-7S550.56,433.8,550.56,433.8Z" transform="translate(-23.37 -158.32)"/><path class="cls-65" d="M557,443.86l-.49-.07s2.59-3.92.9-4.89-8.62-3.36-9.82-6.09a4.73,4.73,0,0,1,2.66-6.21.27.27,0,0,1,.32.17l.12.33a.27.27,0,0,0,.5,0h0a.27.27,0,0,1,.49,0c.37.81,1.48,2.21,4.81,3.28,4.72,1.53,7.66,3.91,7.29,7.27a.27.27,0,0,0,.39.27c.38-.17,1-.2,1.65.55,1.18,1.29.25,4.11-3,6.11a.27.27,0,0,0,0,.43c.49.41,1.17,1.34-1,2.16s-3.45.55-3.9.37a.26.26,0,0,1-.16-.3l.57-2.94a.27.27,0,0,0-.23-.32Z" transform="translate(-23.37 -158.32)"/><path class="cls-66" d="M556.84,444.46s1.62-4,3.32-2.59-1.57,4.5-3.08,4.46Z" transform="translate(-23.37 -158.32)"/><path class="cls-67" d="M551.72,491.51h-.08l-32.69,0a1.46,1.46,0,1,1,0-2.92l32.69,0a1.47,1.47,0,0,1,.08,2.93Z" transform="translate(-23.37 -158.32)"/><path class="cls-68" d="M489.56,461.82h27.22a5.2,5.2,0,0,1,4.7,3l12.59,26.69H500.23a3.13,3.13,0,0,1-2.93-2l-9.76-24.69A2.17,2.17,0,0,1,489.56,461.82Z" transform="translate(-23.37 -158.32)"/><path class="cls-69" d="M508.74,475.51c.59,1.83.15,3.61-1,4s-2.52-.82-3.11-2.66-.16-3.61,1-4S508.15,473.68,508.74,475.51Z" transform="translate(-23.37 -158.32)"/><path class="cls-4" d="M494,556.43a1.47,1.47,0,0,1-.54-.1,1.17,1.17,0,0,1-.72-1.61l28.81-59.78a1.44,1.44,0,0,1,1.81-.64,1.18,1.18,0,0,1,.72,1.61l-28.82,59.78A1.37,1.37,0,0,1,494,556.43Z" transform="translate(-23.37 -158.32)"/><path class="cls-4" d="M526.43,556.43a1.37,1.37,0,0,1-1.26-.74l-28.81-59.78a1.18,1.18,0,0,1,.71-1.61,1.44,1.44,0,0,1,1.81.64l28.81,59.78a1.17,1.17,0,0,1-.72,1.61A1.44,1.44,0,0,1,526.43,556.43Z" transform="translate(-23.37 -158.32)"/><path class="cls-4" d="M583.16,556.43a1.47,1.47,0,0,1-.54-.1,1.17,1.17,0,0,1-.72-1.61l28.81-59.78a1.44,1.44,0,0,1,1.81-.64,1.19,1.19,0,0,1,.72,1.61l-28.82,59.78A1.37,1.37,0,0,1,583.16,556.43Z" transform="translate(-23.37 -158.32)"/><path class="cls-4" d="M615.62,556.43a1.37,1.37,0,0,1-1.26-.74l-28.82-59.78a1.19,1.19,0,0,1,.72-1.61,1.44,1.44,0,0,1,1.81.64l28.81,59.78a1.17,1.17,0,0,1-.72,1.61A1.47,1.47,0,0,1,615.62,556.43Z" transform="translate(-23.37 -158.32)"/><path class="cls-2" d="M619,493a1.69,1.69,0,0,0-.27-1.23,1.26,1.26,0,0,0-1-.54H486.65a1.45,1.45,0,0,0-1.26.79,2,2,0,0,0-.1,1.64l1.42,3.54a2,2,0,0,0,1.81,1.32H616.83a1.56,1.56,0,0,0,1.47-1.4Z" transform="translate(-23.37 -158.32)"/><path class="cls-3" d="M534.55,221.08l-93.72-.53a4.93,4.93,0,0,0-4.25,7.46l.47.78a4.93,4.93,0,0,0,4.22,2.39h93.25a4.92,4.92,0,0,0,4.92-4.92V226A4.91,4.91,0,0,0,534.55,221.08Z" transform="translate(-23.37 -158.32)"/><path class="cls-3" d="M547.64,226.11v.15a4.92,4.92,0,0,0,4.92,4.92h20.81a4.93,4.93,0,0,0,4.75-3.65h0a4.92,4.92,0,0,0-4.72-6.19l-20.8-.15A4.92,4.92,0,0,0,547.64,226.11Z" transform="translate(-23.37 -158.32)"/><path class="cls-3" d="M512,238.74l-71.17-.53a4.93,4.93,0,0,0-4.25,7.46l.47.78a4.93,4.93,0,0,0,4.22,2.39H512a4.93,4.93,0,0,0,4.92-4.92v-.26A4.92,4.92,0,0,0,512,238.74Z" transform="translate(-23.37 -158.32)"/><path class="cls-3" d="M525.1,243.76v.16a4.92,4.92,0,0,0,4.92,4.92h20.8a4.91,4.91,0,0,0,4.75-3.65h0a4.91,4.91,0,0,0-4.71-6.19l-20.81-.15A4.91,4.91,0,0,0,525.1,243.76Z" transform="translate(-23.37 -158.32)"/><path class="cls-70" d="M520,453.79a1.15,1.15,0,0,1-1-1.79c.32-.47.63-.95.94-1.43a1.15,1.15,0,0,1,1.93,1.25c-.31.49-.63,1-1,1.46A1.17,1.17,0,0,1,520,453.79Zm3.05-4.87a1.21,1.21,0,0,1-.58-.16,1.16,1.16,0,0,1-.41-1.58c.29-.49.57-1,.85-1.48a1.15,1.15,0,0,1,2,1.13c-.29.51-.58,1-.88,1.52A1.15,1.15,0,0,1,523.08,448.92Zm2.77-5a1.25,1.25,0,0,1-.52-.13,1.15,1.15,0,0,1-.5-1.55l.77-1.53a1.15,1.15,0,1,1,2.06,1l-.78,1.56A1.16,1.16,0,0,1,525.85,443.88Zm2.48-5.2a1.06,1.06,0,0,1-.46-.1,1.13,1.13,0,0,1-.59-1.51c.23-.52.45-1.05.67-1.57a1.15,1.15,0,0,1,1.51-.61,1.13,1.13,0,0,1,.61,1.5c-.22.54-.45,1.07-.69,1.61A1.14,1.14,0,0,1,528.33,438.68Zm2.17-5.33a1.12,1.12,0,0,1-.4-.07,1.15,1.15,0,0,1-.68-1.48c.2-.53.39-1.07.58-1.6a1.15,1.15,0,1,1,2.17.76c-.19.55-.39,1.1-.59,1.64A1.14,1.14,0,0,1,530.5,433.35Zm-286.17-2.17a1.15,1.15,0,1,1,0-2.3h1.72a1.16,1.16,0,0,1,0,2.31Zm-4-.07h0l-1.74-.07a1.15,1.15,0,1,1,.11-2.3l1.71.07a1.15,1.15,0,0,1,0,2.3Zm9.77-.07a1.15,1.15,0,0,1-.05-2.3c.57,0,1.13-.05,1.7-.09a1.15,1.15,0,1,1,.14,2.3l-1.74.09Zm-15.51-.27h-.1l-1.73-.16a1.15,1.15,0,0,1,.22-2.29l1.7.15a1.15,1.15,0,0,1-.09,2.3Zm21.24-.11a1.15,1.15,0,0,1-.1-2.3c.57,0,1.14-.1,1.7-.15a1.14,1.14,0,0,1,1.26,1,1.15,1.15,0,0,1-1,1.26l-1.73.16Zm-27-.51h-.15c-.57-.07-1.15-.15-1.72-.24a1.15,1.15,0,1,1,.33-2.27l1.69.23a1.15,1.15,0,0,1-.15,2.29Zm32.67-.1a1.15,1.15,0,0,1-.14-2.29l1.7-.22a1.15,1.15,0,0,1,.31,2.28l-1.72.22Zm-38.35-.79a.65.65,0,0,1-.2,0l-1.72-.32a1.14,1.14,0,0,1-.9-1.35,1.15,1.15,0,0,1,1.35-.91l1.68.32a1.15,1.15,0,0,1-.21,2.28Zm44,0a1.15,1.15,0,0,1-.18-2.28l1.68-.29a1.15,1.15,0,1,1,.4,2.26l-1.71.3Zm5.66-1a1.15,1.15,0,0,1-.23-2.28l1.68-.35a1.15,1.15,0,0,1,.48,2.25l-1.7.36Zm-55.33-.08a1.09,1.09,0,0,1-.26,0l-1.7-.4a1.15,1.15,0,0,1,.55-2.23l1.66.39a1.15,1.15,0,0,1-.25,2.27Zm314.8-.2a1,1,0,0,1-.33,0,1.15,1.15,0,0,1-.77-1.43c.17-.54.33-1.09.48-1.64a1.15,1.15,0,0,1,2.22.63c-.16.56-.33,1.12-.5,1.68A1.13,1.13,0,0,1,532.34,427.9Zm-253.86-1a1.13,1.13,0,0,1-1.11-.88,1.15,1.15,0,0,1,.85-1.39l1.66-.41a1.15,1.15,0,0,1,.56,2.24l-1.69.41A1.24,1.24,0,0,1,278.48,426.93ZM212,426.68a1.12,1.12,0,0,1-.31-.05q-.84-.22-1.68-.48a1.15,1.15,0,0,1,.66-2.21l1.64.48a1.15,1.15,0,0,1-.31,2.26Zm72.09-1.19a1.14,1.14,0,0,1-1.1-.84,1.16,1.16,0,0,1,.8-1.42l1.65-.46A1.15,1.15,0,0,1,286,425l-1.68.47A1.06,1.06,0,0,1,284.05,425.49Zm-77.59-.5a1.19,1.19,0,0,1-.37-.06l-1.65-.57a1.15,1.15,0,0,1,.76-2.17l1.62.55a1.15,1.15,0,0,1-.36,2.25Zm83.12-1.12a1.15,1.15,0,0,1-.35-2.25l1.64-.52a1.15,1.15,0,0,1,.71,2.19l-1.66.53A1.33,1.33,0,0,1,289.58,423.87ZM201,423a1.15,1.15,0,0,1-.41-.08L199,422.3a1.15,1.15,0,1,1,.87-2.13l1.59.64A1.15,1.15,0,0,1,201,423Zm332.81-.68-.27,0a1.14,1.14,0,0,1-.85-1.38c.13-.56.25-1.11.37-1.67a1.15,1.15,0,0,1,2.25.49c-.12.57-.25,1.14-.38,1.71A1.16,1.16,0,0,1,533.85,422.35Zm-238.8-.28a1.15,1.15,0,0,1-.38-2.24l1.62-.57a1.15,1.15,0,1,1,.77,2.17l-1.64.58A1.19,1.19,0,0,1,295.05,422.07Zm-99.32-1.26a1.28,1.28,0,0,1-.47-.1l-1.59-.73a1.15,1.15,0,0,1-.56-1.53,1.16,1.16,0,0,1,1.53-.56l1.56.72a1.15,1.15,0,0,1-.47,2.2Zm104.73-.7a1.15,1.15,0,0,1-.41-2.23l1.61-.61a1.15,1.15,0,1,1,.83,2.14l-1.62.62A1,1,0,0,1,300.46,420.11Zm-109.93-1.79a1.08,1.08,0,0,1-.52-.13l-1.55-.8a1.15,1.15,0,0,1,1.08-2l1.51.79a1.15,1.15,0,0,1-.52,2.18ZM305.82,418a1.15,1.15,0,0,1-.44-2.22l1.58-.66a1.15,1.15,0,0,1,.9,2.12l-1.61.67A1.11,1.11,0,0,1,305.82,418ZM535,416.71h-.19a1.16,1.16,0,0,1-.95-1.33q.15-.84.27-1.68a1.15,1.15,0,0,1,2.28.34c-.09.57-.18,1.15-.28,1.72A1.14,1.14,0,0,1,535,416.71Zm-223.88-1a1.15,1.15,0,0,1-.46-2.21l1.57-.7a1.15,1.15,0,1,1,.94,2.1l-1.58.71A1.1,1.1,0,0,1,311.11,415.74Zm-125.64-.17a1.1,1.1,0,0,1-.58-.16l-1.5-.89a1.15,1.15,0,1,1,1.18-2l1.48.87a1.15,1.15,0,0,1-.58,2.15Zm130.88-2.23a1.15,1.15,0,0,1-.49-2.19l1.55-.74a1.15,1.15,0,0,1,1,2.08l-1.57.74A1.09,1.09,0,0,1,316.35,413.34Zm-135.79-.79a1.16,1.16,0,0,1-.63-.19l-1.45-1a1.15,1.15,0,1,1,1.29-1.9l1.42.94a1.17,1.17,0,0,1,.34,1.6A1.18,1.18,0,0,1,180.56,412.55ZM535.76,411h-.12a1.16,1.16,0,0,1-1-1.26c.06-.57.11-1.13.15-1.7A1.17,1.17,0,0,1,536,407a1.15,1.15,0,0,1,1,1.24c0,.58-.09,1.16-.15,1.75A1.15,1.15,0,0,1,535.76,411Zm-214.23-.18a1.16,1.16,0,0,1-1-.64,1.14,1.14,0,0,1,.51-1.54l1.54-.78a1.15,1.15,0,0,1,1,2.05c-.52.26-1,.53-1.55.78A1,1,0,0,1,321.53,410.83Zm-145.7-1.57a1.13,1.13,0,0,1-.68-.22l-1.4-1.05a1.15,1.15,0,1,1,1.39-1.83l1.37,1a1.15,1.15,0,0,1-.68,2.07Zm150.82-1.07a1.14,1.14,0,0,1-1-.61,1.15,1.15,0,0,1,.48-1.56c.5-.26,1-.53,1.51-.81a1.15,1.15,0,1,1,1.09,2l-1.53.82A1.12,1.12,0,0,1,326.65,408.19Zm-155.36-2.48a1.16,1.16,0,0,1-.73-.26c-.45-.38-.9-.75-1.34-1.14a1.15,1.15,0,0,1-.12-1.62,1.16,1.16,0,0,1,1.63-.12l1.3,1.11a1.15,1.15,0,0,1,.15,1.62A1.17,1.17,0,0,1,171.29,405.71Zm160.42-.26a1.16,1.16,0,0,1-.57-2.16l1.51-.84a1.15,1.15,0,0,1,1.13,2l-1.52.85A1.11,1.11,0,0,1,331.71,405.45Zm204.41-.18h0a1.15,1.15,0,0,1-1.12-1.18c0-.57,0-1.14,0-1.7a1.15,1.15,0,0,1,1.15-1.14h0a1.14,1.14,0,0,1,1.14,1.15c0,.59,0,1.17,0,1.75A1.15,1.15,0,0,1,536.12,405.27ZM336.71,402.6a1.15,1.15,0,0,1-.58-2.14l1.48-.87a1.15,1.15,0,1,1,1.17,2l-1.5.87A1.1,1.1,0,0,1,336.71,402.6ZM167,401.9a1.16,1.16,0,0,1-.79-.32c-.42-.4-.85-.8-1.26-1.21a1.13,1.13,0,0,1,0-1.62,1.14,1.14,0,0,1,1.63,0c.4.39.81.79,1.23,1.18a1.15,1.15,0,0,1,0,1.62A1.12,1.12,0,0,1,167,401.9Zm174.67-2.24a1.15,1.15,0,0,1-.6-2.13l1.47-.9a1.15,1.15,0,0,1,1.58.38,1.14,1.14,0,0,1-.37,1.58l-1.48.9A1.09,1.09,0,0,1,341.65,399.66Zm194.42-.14a1.14,1.14,0,0,1-1.14-1.1c0-.56-.06-1.13-.1-1.7a1.15,1.15,0,0,1,2.3-.15c0,.58.07,1.16.09,1.75a1.15,1.15,0,0,1-1.09,1.2Zm-373.16-1.7a1.15,1.15,0,0,1-.84-.36l-1.18-1.29a1.14,1.14,0,0,1,.08-1.62,1.15,1.15,0,0,1,1.63.08l1.15,1.26a1.14,1.14,0,0,1-.84,1.93Zm183.63-1.19a1.15,1.15,0,0,1-.61-2.12l1.45-.92a1.14,1.14,0,0,1,1.59.35,1.16,1.16,0,0,1-.35,1.59l-1.46.92A1.17,1.17,0,0,1,346.54,396.63Zm189.06-2.84a1.15,1.15,0,0,1-1.14-1c-.07-.56-.15-1.12-.23-1.68a1.15,1.15,0,0,1,2.28-.34c.08.58.16,1.16.23,1.74a1.15,1.15,0,0,1-1,1.28Zm-184.22-.27a1.15,1.15,0,0,1-.63-2.11l1.44-1a1.15,1.15,0,0,1,1.27,1.92l-1.45.95A1.11,1.11,0,0,1,351.38,393.52Zm-192.26,0a1.15,1.15,0,0,1-.89-.42l-1.1-1.36a1.16,1.16,0,0,1,.2-1.62,1.15,1.15,0,0,1,1.61.19c.35.45.71.89,1.07,1.33a1.16,1.16,0,0,1-.16,1.62A1.19,1.19,0,0,1,159.12,393.5Zm197.05-3.16a1.15,1.15,0,0,1-.65-2.11l1.42-1a1.15,1.15,0,1,1,1.3,1.9l-1.43,1A1.18,1.18,0,0,1,356.17,390.34Zm-200.54-1.41a1.13,1.13,0,0,1-.94-.48c-.34-.47-.67-.95-1-1.43a1.15,1.15,0,0,1,1.9-1.3l1,1.4a1.14,1.14,0,0,1-.93,1.81Zm379-.82a1.14,1.14,0,0,1-1.13-.92c-.11-.55-.23-1.1-.36-1.66a1.15,1.15,0,1,1,2.24-.51c.13.57.26,1.14.38,1.71a1.17,1.17,0,0,1-.9,1.36A.9.9,0,0,1,534.67,388.11Zm-173.76-1a1.15,1.15,0,0,1-.66-2.09l1.4-1a1.15,1.15,0,1,1,1.33,1.88l-1.42,1A1.14,1.14,0,0,1,360.91,387.08Zm-208.45-2.94a1.12,1.12,0,0,1-1-.55c-.31-.49-.6-1-.9-1.5a1.15,1.15,0,0,1,2-1.16l.87,1.46a1.15,1.15,0,0,1-.38,1.58A1.09,1.09,0,0,1,152.46,384.14Zm213.14-.38a1.14,1.14,0,0,1-.93-.48,1.16,1.16,0,0,1,.26-1.61l1.4-1a1.15,1.15,0,0,1,1.35,1.87l-1.41,1A1.18,1.18,0,0,1,365.6,383.76Zm167.69-1.23a1.16,1.16,0,0,1-1.11-.83c-.15-.55-.32-1.09-.49-1.63a1.15,1.15,0,0,1,2.2-.69l.51,1.68a1.15,1.15,0,0,1-.79,1.42A1.19,1.19,0,0,1,533.29,382.53Zm-163-2.13a1.15,1.15,0,0,1-.68-2.08l1.4-1a1.15,1.15,0,0,1,1.61.26,1.14,1.14,0,0,1-.26,1.6l-1.39,1A1.15,1.15,0,0,1,370.27,380.4Zm-220.62-1.26a1.15,1.15,0,0,1-1-.62c-.26-.52-.53-1-.78-1.56a1.14,1.14,0,0,1,.53-1.54,1.13,1.13,0,0,1,1.53.53c.25.51.51,1,.77,1.51a1.16,1.16,0,0,1-.5,1.56A1.23,1.23,0,0,1,149.65,379.14Zm381.82-2.07a1.14,1.14,0,0,1-1.07-.74c-.2-.53-.41-1.06-.62-1.58a1.15,1.15,0,0,1,2.13-.87c.22.54.43,1.09.64,1.63a1.17,1.17,0,0,1-.67,1.49A1.14,1.14,0,0,1,531.47,377.07ZM374.92,377a1.15,1.15,0,0,1-.68-2.08l1.4-1a1.15,1.15,0,1,1,1.36,1.86l-1.4,1A1.13,1.13,0,0,1,374.92,377ZM147.2,373.94a1.14,1.14,0,0,1-1.06-.7c-.23-.53-.45-1.07-.67-1.61a1.15,1.15,0,0,1,.64-1.5,1.14,1.14,0,0,1,1.49.64c.22.53.43,1.05.65,1.57a1.15,1.15,0,0,1-.6,1.51A1.2,1.2,0,0,1,147.2,373.94Zm232.37-.32a1.15,1.15,0,0,1-.68-2.08l1.4-1a1.15,1.15,0,0,1,1.35,1.86l-1.39,1A1.15,1.15,0,0,1,379.57,373.62Zm149.66-1.84a1.15,1.15,0,0,1-1-.66q-.36-.78-.75-1.53A1.16,1.16,0,0,1,528,368a1.15,1.15,0,0,1,1.54.52c.26.52.52,1.05.77,1.57a1.17,1.17,0,0,1-.55,1.54A1.24,1.24,0,0,1,529.23,371.78Zm-145-1.54a1.15,1.15,0,0,1-.68-2.09l1.4-1A1.15,1.15,0,0,1,386.3,369l-1.4,1A1.14,1.14,0,0,1,384.23,370.24Zm-239.09-1.67a1.15,1.15,0,0,1-1.09-.78c-.19-.55-.37-1.11-.54-1.67a1.15,1.15,0,1,1,2.19-.68c.17.54.35,1.08.53,1.61a1.16,1.16,0,0,1-.72,1.46A1.19,1.19,0,0,1,145.14,368.57Zm243.76-1.68a1.15,1.15,0,0,1-.67-2.09l1.42-1a1.15,1.15,0,1,1,1.32,1.88l-1.4,1A1.14,1.14,0,0,1,388.9,366.89Zm137.67-.21a1.15,1.15,0,0,1-1-.58c-.28-.49-.57-1-.87-1.46a1.15,1.15,0,0,1,2-1.2c.3.5.6,1,.89,1.51a1.14,1.14,0,0,1-.42,1.57A1.1,1.1,0,0,1,526.57,366.68Zm-133-3.1a1.17,1.17,0,0,1-.95-.49,1.14,1.14,0,0,1,.3-1.6l1.42-1a1.15,1.15,0,1,1,1.3,1.89l-1.41,1A1.14,1.14,0,0,1,393.61,363.58Zm-250.09-.53a1.14,1.14,0,0,1-1.12-.87c-.14-.56-.28-1.13-.41-1.7a1.15,1.15,0,1,1,2.25-.51q.18.82.39,1.65a1.15,1.15,0,0,1-.83,1.4Zm380-1.24a1.14,1.14,0,0,1-.94-.49q-.49-.7-1-1.38a1.16,1.16,0,0,1,.25-1.61,1.14,1.14,0,0,1,1.61.25l1,1.43a1.15,1.15,0,0,1-.29,1.6A1.14,1.14,0,0,1,523.49,361.81Zm-125.12-1.46a1.15,1.15,0,0,1-.64-2.11l1.44-1a1.16,1.16,0,0,1,1.6.33,1.15,1.15,0,0,1-.33,1.59l-1.43.95A1.1,1.1,0,0,1,398.37,360.35Zm-256-2.92a1.15,1.15,0,0,1-1.13-1c-.1-.58-.19-1.16-.28-1.73a1.16,1.16,0,0,1,1-1.31,1.14,1.14,0,0,1,1.3,1q.12.84.27,1.68a1.16,1.16,0,0,1-.94,1.33Zm377.69-.2a1.15,1.15,0,0,1-.89-.42l-1.1-1.29a1.15,1.15,0,1,1,1.73-1.51c.39.44.77.88,1.14,1.33a1.15,1.15,0,0,1-.15,1.62A1.12,1.12,0,0,1,520,357.23Zm-116.84,0a1.15,1.15,0,0,1-.62-2.12l1.47-.93a1.15,1.15,0,0,1,1.22,2l-1.45.92A1.15,1.15,0,0,1,403.18,357.2Zm4.89-3a1.17,1.17,0,0,1-1-.55,1.15,1.15,0,0,1,.39-1.58l1.49-.9a1.15,1.15,0,0,1,1.57.41,1.13,1.13,0,0,1-.4,1.57l-1.47.89A1.14,1.14,0,0,1,408.07,354.16ZM516.15,353a1.12,1.12,0,0,1-.81-.34c-.4-.4-.8-.8-1.21-1.19a1.15,1.15,0,0,1,1.58-1.66q.64.6,1.26,1.23a1.13,1.13,0,0,1,0,1.62A1.1,1.1,0,0,1,516.15,353Zm-374.57-1.25a1.13,1.13,0,0,1-1.14-1c-.06-.58-.11-1.16-.15-1.75a1.15,1.15,0,0,1,2.3-.16c0,.57.09,1.13.14,1.69a1.16,1.16,0,0,1-1,1.26ZM413,351.25a1.15,1.15,0,0,1-.57-2.15l1.51-.85a1.15,1.15,0,1,1,1.12,2l-1.5.84A1.12,1.12,0,0,1,413,351.25Zm98.89-2.17a1.17,1.17,0,0,1-.74-.27c-.43-.36-.87-.71-1.31-1.06a1.15,1.15,0,1,1,1.42-1.81c.46.36.91.73,1.36,1.11a1.15,1.15,0,0,1-.73,2Zm-93.84-.59a1.14,1.14,0,0,1-1-.61,1.16,1.16,0,0,1,.48-1.56l1.54-.8a1.15,1.15,0,0,1,1.05,2.05l-1.52.79A1.12,1.12,0,0,1,418.08,348.49ZM141.26,346a1.15,1.15,0,0,1-1.15-1.13c0-.55,0-1.1,0-1.65v-.1a1.15,1.15,0,0,1,2.3,0v.1c0,.54,0,1.07,0,1.61a1.15,1.15,0,0,1-1.13,1.17Zm282-.07a1.15,1.15,0,0,1-.5-2.19l1.57-.74a1.15,1.15,0,1,1,1,2.08l-1.55.74A1.24,1.24,0,0,1,423.22,345.91Zm84.11-.3a1.13,1.13,0,0,1-.65-.2l-1.41-.93a1.15,1.15,0,1,1,1.24-1.94c.5.32,1,.64,1.47,1a1.16,1.16,0,0,1,.3,1.6A1.13,1.13,0,0,1,507.33,345.61Zm-78.88-2.09a1.17,1.17,0,0,1-1.06-.69,1.15,1.15,0,0,1,.6-1.51c.54-.24,1.07-.46,1.61-.68a1.15,1.15,0,0,1,.88,2.12l-1.57.67A1.25,1.25,0,0,1,428.45,343.52Zm74-.91a1.12,1.12,0,0,1-.55-.14c-.49-.27-1-.53-1.49-.79a1.15,1.15,0,1,1,1-2.05l1.56.82a1.16,1.16,0,0,1,.46,1.56A1.15,1.15,0,0,1,502.42,342.61Zm-68.63-1.24a1.14,1.14,0,0,1-.4-2.22c.54-.21,1.09-.41,1.64-.6a1.15,1.15,0,0,1,.77,2.17l-1.61.58A1.12,1.12,0,0,1,433.79,341.37Zm-292.44-1.14h-.06A1.14,1.14,0,0,1,140.2,339c0-.58.06-1.16.1-1.75a1.15,1.15,0,0,1,2.3.17c0,.56-.08,1.13-.1,1.7A1.16,1.16,0,0,1,141.35,340.23Zm355.9-.13a1,1,0,0,1-.45-.1l-1.57-.64a1.15,1.15,0,0,1-.64-1.5,1.14,1.14,0,0,1,1.49-.64c.55.21,1.09.44,1.63.67a1.15,1.15,0,0,1-.46,2.21Zm-58-.6a1.15,1.15,0,0,1-.35-2.25c.56-.17,1.11-.35,1.67-.51a1.15,1.15,0,1,1,.66,2.2l-1.63.5A1.12,1.12,0,0,1,439.23,339.5Zm52.64-1.43a1.12,1.12,0,0,1-.36-.05c-.53-.18-1.07-.34-1.62-.5a1.15,1.15,0,0,1,.66-2.21c.56.16,1.12.34,1.67.52a1.15,1.15,0,0,1-.35,2.24Zm-47.11-.17a1.16,1.16,0,0,1-1.12-.86,1.15,1.15,0,0,1,.83-1.4l1.69-.43a1.15,1.15,0,1,1,.54,2.24l-1.65.42Zm5.6-1.3a1.15,1.15,0,0,1-.23-2.27l1.71-.34a1.15,1.15,0,1,1,.43,2.26l-1.68.33A.9.9,0,0,1,450.36,336.6Zm36-.06a1.09,1.09,0,0,1-.26,0c-.55-.13-1.11-.25-1.66-.36a1.15,1.15,0,1,1,.46-2.26c.57.12,1.15.24,1.72.38a1.15,1.15,0,0,1-.26,2.27Zm-30.3-.92a1.15,1.15,0,0,1-.17-2.29l1.73-.24a1.15,1.15,0,1,1,.29,2.28l-1.69.23Zm24.65-.15h-.17l-1.69-.23a1.15,1.15,0,1,1,.29-2.28l1.73.23a1.15,1.15,0,0,1-.16,2.29ZM461.74,335a1.15,1.15,0,0,1-.09-2.3l1.74-.13a1.15,1.15,0,0,1,.15,2.3l-1.7.13Zm13.22-.11h-.08c-.57,0-1.13-.08-1.7-.1a1.16,1.16,0,0,1-1.09-1.21,1.13,1.13,0,0,1,1.2-1.09l1.75.1a1.15,1.15,0,0,1-.08,2.3Zm-7.48-.19a1.15,1.15,0,0,1,0-2.3h1.7a1.17,1.17,0,0,1,1.17,1.15,1.12,1.12,0,0,1-1.12,1.15h-1.73Zm-325.64-.16h-.14a1.16,1.16,0,0,1-1-1.28c.07-.58.15-1.16.23-1.73a1.15,1.15,0,1,1,2.28.32c-.08.56-.15,1.12-.22,1.69A1.15,1.15,0,0,1,141.84,334.5Zm.88-5.68-.22,0a1.15,1.15,0,0,1-.91-1.35c.1-.57.22-1.14.34-1.71a1.15,1.15,0,0,1,2.25.47c-.12.56-.23,1.11-.33,1.67A1.16,1.16,0,0,1,142.72,328.82Zm1.26-5.61a1.35,1.35,0,0,1-.29,0,1.15,1.15,0,0,1-.83-1.4c.15-.57.3-1.13.46-1.69a1.15,1.15,0,1,1,2.21.62c-.15.55-.3,1.09-.44,1.64A1.16,1.16,0,0,1,144,323.21Zm1.62-5.52a1.15,1.15,0,0,1-1.09-1.51c.18-.56.37-1.11.56-1.66a1.15,1.15,0,1,1,2.17.77c-.19.53-.37,1.07-.55,1.61A1.16,1.16,0,0,1,145.6,317.69Zm2-5.4a1.11,1.11,0,0,1-.43-.09,1.15,1.15,0,0,1-.64-1.49c.22-.54.45-1.08.68-1.62a1.15,1.15,0,1,1,2.11.9c-.22.53-.44,1.05-.65,1.58A1.15,1.15,0,0,1,147.58,312.29Zm2.33-5.26a1.11,1.11,0,0,1-.5-.12,1.14,1.14,0,0,1-.53-1.53c.25-.53.51-1.05.77-1.57a1.15,1.15,0,1,1,2,1c-.25.51-.51,1-.75,1.53A1.16,1.16,0,0,1,149.91,307Zm2.67-5.1a1.18,1.18,0,0,1-.57-.15,1.15,1.15,0,0,1-.43-1.57c.29-.5.58-1,.88-1.51a1.13,1.13,0,0,1,1.57-.4,1.15,1.15,0,0,1,.41,1.57c-.29.49-.58,1-.86,1.48A1.15,1.15,0,0,1,152.58,301.93Zm3-4.91a1.11,1.11,0,0,1-.63-.19,1.15,1.15,0,0,1-.33-1.59c.32-.49.65-1,1-1.45a1.15,1.15,0,1,1,1.89,1.3l-1,1.41A1.14,1.14,0,0,1,155.58,297Zm3.33-4.7a1.13,1.13,0,0,1-.7-.23,1.15,1.15,0,0,1-.22-1.61c.35-.47.71-.93,1.07-1.39a1.16,1.16,0,0,1,1.81,1.44c-.36.44-.7.89-1.05,1.34A1.13,1.13,0,0,1,158.91,292.32Zm3.63-4.45a1.16,1.16,0,0,1-.75-.29,1.14,1.14,0,0,1-.11-1.62c.38-.44.77-.87,1.17-1.31a1.15,1.15,0,0,1,1.62-.07,1.16,1.16,0,0,1,.08,1.63c-.39.42-.77.84-1.14,1.27A1.16,1.16,0,0,1,162.54,287.87Zm4-4.19a1.15,1.15,0,0,1-.81-2l1.26-1.22a1.16,1.16,0,0,1,1.63.05,1.15,1.15,0,0,1,0,1.62l-1.22,1.19A1.17,1.17,0,0,1,166.49,283.68Zm4.24-3.89a1.15,1.15,0,0,1-.75-2c.44-.38.89-.75,1.35-1.12a1.15,1.15,0,0,1,1.45,1.79c-.44.35-.88.72-1.31,1.08A1.1,1.1,0,0,1,170.73,279.79Zm4.51-3.56a1.18,1.18,0,0,1-.93-.47,1.16,1.16,0,0,1,.25-1.61c.47-.35.95-.68,1.43-1A1.15,1.15,0,0,1,177.3,275l-1.38,1A1.15,1.15,0,0,1,175.24,276.23ZM180,273a1.17,1.17,0,0,1-1-.55,1.15,1.15,0,0,1,.38-1.58l1.5-.9a1.15,1.15,0,1,1,1.16,2c-.49.28-1,.57-1.45.87A1.22,1.22,0,0,1,180,273Zm5-2.81a1.15,1.15,0,0,1-.52-2.18l1-.52a1.15,1.15,0,0,1,1,2.07l-1,.5A1.12,1.12,0,0,1,185,270.22Z" transform="translate(-23.37 -158.32)"/><polygon class="cls-4" points="170.36 96.41 172.76 104.29 177.06 99.27 170.36 96.41"/><path class="cls-3" d="M227.77,239.4,212.2,264.55a2.09,2.09,0,0,1-1.34.94,2.06,2.06,0,0,1-1.6-.31l-24.67-16.59a.83.83,0,0,1-.35-.86.85.85,0,0,1,.67-.65Z" transform="translate(-23.37 -158.32)"/><polygon class="cls-4" points="170.36 96.41 204.4 81.07 174.33 99.1 174.91 101.31 170.36 96.41"/><polygon class="cls-4" points="176.7 100.68 172.76 104.29 174.33 99.1 176.7 100.68"/></svg>