<svg xmlns="http://www.w3.org/2000/svg" xmlns:xlink="http://www.w3.org/1999/xlink" viewBox="0 0 535.65 460.3"><defs><style>.cls-1{fill:url(#linear-gradient);}.cls-2{fill:#d8dee8;}.cls-3{fill:none;}.cls-4{isolation:isolate;}.cls-5{opacity:0.7;}.cls-6{clip-path:url(#clip-path);}.cls-7{fill:#fff;}.cls-8{clip-path:url(#clip-path-2);}.cls-11,.cls-12,.cls-9{fill:#97a6b7;}.cls-10{fill:#f4f7fa;}.cls-11{opacity:0.5;}.cls-11,.cls-12{mix-blend-mode:multiply;}.cls-12{opacity:0.1;}.cls-13{fill:url(#linear-gradient-3);}.cls-14{fill:#f58c4d;}.cls-15{fill:url(#linear-gradient-4);}.cls-16{clip-path:url(#clip-path-3);}.cls-17{fill:url(#linear-gradient-5);}.cls-18{fill:url(#linear-gradient-6);}.cls-19{fill:url(#linear-gradient-7);}.cls-20{fill:url(#linear-gradient-8);}.cls-21{fill:url(#linear-gradient-9);}.cls-22{fill:url(#linear-gradient-10);}.cls-23{fill:url(#linear-gradient-11);}.cls-24{fill:url(#linear-gradient-12);}.cls-25{fill:url(#linear-gradient-13);}</style><linearGradient id="linear-gradient" x1="256.97" y1="285.44" x2="515.71" y2="285.44" gradientUnits="userSpaceOnUse"><stop offset="0" stop-color="#e38ddd"/><stop offset="0.69" stop-color="#ad7aee"/><stop offset="1" stop-color="#9571f6"/></linearGradient><clipPath id="clip-path" transform="translate(-58.3 -81.44)"><path id="SVGID" class="cls-1" d="M260.12,441.93c-10.16-22.87,6.07-57.22,23.36-76.45,20.2-22.46,33.74-15.29,48.09-34,26.71-34.79-9.29-73.89,14.86-111.11,19.75-30.42,51.31-15.84,71.64-50.53,14.67-25,5.3-44.65,25.25-62.23,1.7-1.5,20.33-17.45,40.15-11.95,20,5.55,29.54,29.7,31.72,45.88,4,29.9-16.41,37-24.63,74.24-11.2,50.66,20.07,67.42,4.12,103-13.18,29.4-37.54,24.75-51.5,57.63-13,30.53,3.34,45.64-7.35,65.34C411.24,487.11,280.85,488.57,260.12,441.93Z"/></clipPath><clipPath id="clip-path-2" transform="translate(-58.3 -81.44)"><path id="SVGID-2" data-name="SVGID" class="cls-2" d="M275.38,483.29c-4.29-22.84,17.71-50.41,37.46-64.09,23-16,33.75-6.6,50.71-20.42,31.58-25.72,7.41-68.76,37.19-97.22,24.35-23.28,49.74-3.35,75.54-30.35,18.61-19.48,14.33-39.22,36.12-50.84,1.86-1,22.1-11.42,38.84-2.21s20.34,33.15,18.85,48.24c-2.74,27.89-22.74,30-38.13,61.82-21,43.38,3.72,65.22-18.3,94-18.19,23.74-39.21,14.33-58.86,41.06-18.24,24.82-6.74,41.95-20.61,57.48C402.27,556.43,284.14,529.87,275.38,483.29Z"/></clipPath><linearGradient id="linear-gradient-3" x1="221.39" y1="275.82" x2="368.43" y2="275.82" gradientUnits="userSpaceOnUse"><stop offset="0.49" stop-color="#ebeff2"/><stop offset="1" stop-color="#fff"/></linearGradient><linearGradient id="linear-gradient-4" x1="322.79" y1="283.13" x2="90.31" y2="507.36" gradientUnits="userSpaceOnUse"><stop offset="0" stop-color="#fcb148"/><stop offset="0.05" stop-color="#fdba46"/><stop offset="0.14" stop-color="#ffc244"/><stop offset="0.32" stop-color="#ffc444"/><stop offset="0.45" stop-color="#fdb942"/><stop offset="0.68" stop-color="#f99c3e"/><stop offset="0.87" stop-color="#4F81BD"/><stop offset="1" stop-color="#4F81BD"/></linearGradient><clipPath id="clip-path-3" transform="translate(-58.3 -81.44)"><circle id="SVGID-3" data-name="SVGID" class="cls-3" cx="154.86" cy="437.34" r="74.44"/></clipPath><linearGradient id="linear-gradient-5" x1="184.81" y1="397.22" x2="110.23" y2="549.03" gradientUnits="userSpaceOnUse"><stop offset="0" stop-color="#090056"/><stop offset="1" stop-color="#020039"/></linearGradient><linearGradient id="linear-gradient-6" x1="274.5" y1="602.3" x2="307.88" y2="602.3" gradientTransform="translate(-233.98 -149.69) rotate(-11.71)" gradientUnits="userSpaceOnUse"><stop offset="0" stop-color="#feb3b1"/><stop offset="1" stop-color="#ff928e"/></linearGradient><linearGradient id="linear-gradient-7" x1="149.36" y1="379.8" x2="74.78" y2="531.61" xlink:href="#linear-gradient-5"/><linearGradient id="linear-gradient-8" x1="203.49" y1="715.6" x2="228.43" y2="715.6" xlink:href="#linear-gradient-6"/><linearGradient id="linear-gradient-9" x1="245.07" y1="426.82" x2="170.49" y2="578.63" xlink:href="#linear-gradient-5"/><linearGradient id="linear-gradient-10" x1="379.06" y1="695.48" x2="413.07" y2="695.48" xlink:href="#linear-gradient-6"/><linearGradient id="linear-gradient-11" x1="317.09" y1="591.1" x2="288.61" y2="558.34" xlink:href="#linear-gradient-6"/><linearGradient id="linear-gradient-12" x1="256.15" y1="266.1" x2="196.75" y2="323.52" xlink:href="#linear-gradient-5"/><linearGradient id="linear-gradient-13" x1="308.47" y1="598.6" x2="279.99" y2="565.83" xlink:href="#linear-gradient-6"/></defs><g class="cls-4"><g id="Layer_1" data-name="Layer 1"><g class="cls-5"><path id="SVGID-4" data-name="SVGID" class="cls-1" d="M260.12,441.93c-10.16-22.87,6.07-57.22,23.36-76.45,20.2-22.46,33.74-15.29,48.09-34,26.71-34.79-9.29-73.89,14.86-111.11,19.75-30.42,51.31-15.84,71.64-50.53,14.67-25,5.3-44.65,25.25-62.23,1.7-1.5,20.33-17.45,40.15-11.95,20,5.55,29.54,29.7,31.72,45.88,4,29.9-16.41,37-24.63,74.24-11.2,50.66,20.07,67.42,4.12,103-13.18,29.4-37.54,24.75-51.5,57.63-13,30.53,3.34,45.64-7.35,65.34C411.24,487.11,280.85,488.57,260.12,441.93Z" transform="translate(-58.3 -81.44)"/><g class="cls-6"><path class="cls-7" d="M274.45,477.67H273.4a.45.45,0,1,1,0-.9h0a148,148,0,0,0,62.85-13.32c18.58-8.5,37.79-17.3,48-36.31,7.73-14.38,5.65-25.85,3-40.37-2.56-14.16-5.75-31.78,0-57.52,3.28-14.7,7.37-33,22.24-49.07,8.67-9.36,16.45-12.91,23.32-16.05,7.17-3.27,12.83-5.85,16.89-14,6.62-13.33,4.64-25.66,2.36-39.94-1.42-8.84-2.88-18-2.63-28.59.71-29.9,18.27-60.16,52.19-89.93a.45.45,0,0,1,.6.68c-33.72,29.6-51.18,59.63-51.88,89.27-.25,10.54,1.21,19.63,2.61,28.42,2.31,14.44,4.31,26.91-2.44,40.5-4.19,8.45-10.28,11.22-17.32,14.44-6.79,3.1-14.49,6.61-23,15.84-14.71,15.9-18.76,34-22,48.64-5.72,25.57-2.55,43.09,0,57.17,2.66,14.7,4.76,26.3-3.12,41-10.37,19.28-29.72,28.14-48.43,36.71A148.34,148.34,0,0,1,274.45,477.67Z" transform="translate(-58.3 -81.44)"/><path class="cls-7" d="M403.43,289a.45.45,0,0,1-.44-.32c-13.12-41.87-12.42-73.06-9.51-91.86,3.15-20.4,9.52-31,9.59-31.15a.45.45,0,0,1,.62-.15.46.46,0,0,1,.15.63c-.06.1-6.35,10.63-9.47,30.87-2.88,18.69-3.57,49.72,9.49,91.39a.45.45,0,0,1-.3.57A.3.3,0,0,1,403.43,289Z" transform="translate(-58.3 -81.44)"/><path class="cls-7" d="M384.69,350.92a.46.46,0,0,1-.07-.91c52.12-7.73,80.32-34.18,94.8-55,15.69-22.56,19.1-43.54,19.13-43.74a.46.46,0,0,1,.52-.38.44.44,0,0,1,.38.51c0,.22-3.48,21.4-19.28,44.13-14.59,21-43,47.61-95.42,55.39Z" transform="translate(-58.3 -81.44)"/><path class="cls-7" d="M357,455.27a.47.47,0,0,1-.33-.14c-34.21-36.9-42.66-71.94-43.72-94.84-1.14-24.83,5.91-41.16,6-41.33a.44.44,0,0,1,.59-.23.46.46,0,0,1,.24.6c-.07.16-7.05,16.34-5.91,41,1.07,22.74,9.47,57.54,43.47,94.21a.46.46,0,0,1,0,.64A.47.47,0,0,1,357,455.27Z" transform="translate(-58.3 -81.44)"/><path class="cls-7" d="M451.06,177a.45.45,0,0,1-.13-.89c38.37-11.37,56.92-36,65.73-54.71a105.31,105.31,0,0,0,10-38.19.44.44,0,0,1,.46-.44.44.44,0,0,1,.44.46,106,106,0,0,1-10.11,38.56c-8.88,18.85-27.6,43.73-66.29,55.19A.32.32,0,0,1,451.06,177Z" transform="translate(-58.3 -81.44)"/></g></g><g class="cls-5"><path id="SVGID-5" data-name="SVGID" class="cls-2" d="M275.38,483.29c-4.29-22.84,17.71-50.41,37.46-64.09,23-16,33.75-6.6,50.71-20.42,31.58-25.72,7.41-68.76,37.19-97.22,24.35-23.28,49.74-3.35,75.54-30.35,18.61-19.48,14.33-39.22,36.12-50.84,1.86-1,22.1-11.42,38.84-2.21s20.34,33.15,18.85,48.24c-2.74,27.89-22.74,30-38.13,61.82-21,43.38,3.72,65.22-18.3,94-18.19,23.74-39.21,14.33-58.86,41.06-18.24,24.82-6.74,41.95-20.61,57.48C402.27,556.43,284.14,529.87,275.38,483.29Z" transform="translate(-58.3 -81.44)"/><g class="cls-8"><path class="cls-7" d="M313.06,522.64a140.5,140.5,0,0,1-33.36-4.06.59.59,0,0,1-.44-.71.61.61,0,0,1,.71-.43,136.88,136.88,0,0,0,59.57,1.41c18.58-3.71,37.79-7.55,51.06-22.5,10-11.29,10.59-22.08,11.32-35.73.72-13.36,1.61-30,12.33-52,6.11-12.6,13.73-28.28,30.64-39.65,9.86-6.63,17.67-8.18,24.56-9.54,7.15-1.42,12.8-2.54,18.17-9,8.8-10.59,9.65-22.14,10.63-35.5.62-8.29,1.25-16.87,3.75-26.43,7.05-26.91,29.41-50.54,66.47-70.21a.6.6,0,0,1,.8.25.58.58,0,0,1-.25.79c-36.76,19.51-58.92,42.89-65.88,69.47-2.48,9.46-3.11,18-3.71,26.21-1,13.57-1.87,25.29-10.91,36.17-5.63,6.78-11.75,8-18.84,9.4-6.78,1.35-14.47,2.87-24.13,9.37-16.65,11.19-24.19,26.71-30.25,39.18-10.61,21.85-11.49,38.34-12.2,51.59-.75,13.88-1.33,24.85-11.62,36.45C378,512.38,358.54,516.25,339.77,520A136.59,136.59,0,0,1,313.06,522.64Z" transform="translate(-58.3 -81.44)"/><path class="cls-7" d="M437.68,375.87a.59.59,0,0,1-.59-.54c-2.91-40.68,4.41-68.74,11.06-85.12,7.22-17.79,15.28-26.07,15.36-26.15a.58.58,0,0,1,.83,0,.59.59,0,0,1,0,.83c-.08.08-8,8.24-15.13,25.85-6.59,16.25-13.84,44.11-10.94,84.51a.59.59,0,0,1-.55.63Z" transform="translate(-58.3 -81.44)"/><path class="cls-7" d="M421.61,428.47c-4.55,0-9.26-.2-14.16-.61a.59.59,0,0,1-.54-.64.6.6,0,0,1,.64-.54c48.66,4.16,79.75-13.67,97.26-29.36,19-17,26.57-35.23,26.64-35.41a.59.59,0,0,1,.77-.33.6.6,0,0,1,.32.77c-.08.18-7.73,18.63-26.9,35.81C489.71,412.44,462.68,428.47,421.61,428.47Z" transform="translate(-58.3 -81.44)"/><path class="cls-7" d="M360.2,516.25a.6.6,0,0,1-.51-.3c-23.05-40.7-23.19-74.21-19.24-95.15,4.28-22.73,14.17-36,14.27-36.14a.59.59,0,0,1,.82-.12.6.6,0,0,1,.12.83c-.1.13-9.85,13.23-14.07,35.71-3.89,20.74-3.73,53.93,19.12,94.29a.58.58,0,0,1-.22.8A.6.6,0,0,1,360.2,516.25Z" transform="translate(-58.3 -81.44)"/><path class="cls-7" d="M504.65,284.91a.59.59,0,0,1,0-1.17c37-2.07,59-20.35,71-35.33a97.4,97.4,0,0,0,17.19-32.3.59.59,0,0,1,1.14.29,98.8,98.8,0,0,1-17.41,32.75c-12.09,15.16-34.35,33.67-71.83,35.76Z" transform="translate(-58.3 -81.44)"/></g></g><polygon class="cls-9" points="381.36 212 381.36 457.02 346.88 449.6 346.88 235.27 378.24 214.11 380.97 212.26 381.36 212"/><rect class="cls-10" x="381.36" y="211.76" width="95.83" height="245.27"/><rect class="cls-9" x="399.61" y="238.85" width="12.17" height="202.07"/><rect class="cls-9" x="424.97" y="238.85" width="12.68" height="202.07"/><rect class="cls-9" x="450.32" y="238.85" width="12.68" height="202.07"/><rect class="cls-11" x="407.73" y="238.85" width="4.06" height="202.07"/><rect class="cls-11" x="433.59" y="238.85" width="4.06" height="202.07"/><rect class="cls-11" x="459.44" y="238.85" width="4.06" height="202.07"/><path class="cls-12" d="M535.49,538.45v0H439.66L405.18,531V506.11c16-27.76,10.71-39.31,14.16-59.9,3.37-20.11-3.74-126,17.19-150.66a17.55,17.55,0,0,1,2.38-2.35l.35.51.4.57c10.89,15.73,15.88,23.24,18.25,31.23,2.31,7.78,2.14,16,2.52,32.74.46,20.57.37,38.47,5.59,50.8a30.33,30.33,0,0,0,4.06,7,25.62,25.62,0,0,0,13.18,8.78c.64.2,1.29.38,2,.54a29.78,29.78,0,0,1,6.65,2.51,36.47,36.47,0,0,1,4.06,2.42,56.63,56.63,0,0,1,12.67,12.28,91.39,91.39,0,0,1,9.13,14.62c1.25,2.47,2.44,5.05,3.55,7.72l.51,1.24a135.85,135.85,0,0,1,9.56,52.26A42.38,42.38,0,0,0,535.49,538.45Z" transform="translate(-58.3 -81.44)"/><rect class="cls-13" x="221.39" y="94.62" width="147.04" height="362.41"/><rect class="cls-9" x="232.55" y="129.03" width="124.73" height="22.7"/><rect class="cls-9" x="232.55" y="169.3" width="124.73" height="22.7"/><rect class="cls-9" x="232.55" y="209.56" width="124.73" height="22.7"/><rect class="cls-9" x="232.55" y="249.83" width="124.73" height="22.7"/><rect class="cls-9" x="232.55" y="290.1" width="124.73" height="22.7"/><rect class="cls-9" x="232.55" y="330.37" width="124.73" height="22.7"/><rect class="cls-9" x="232.55" y="370.63" width="124.73" height="22.7"/><polygon class="cls-9" points="221.39 94.62 221.39 457.02 181.84 457.02 181.84 129.03 220.25 95.61 221.23 94.76 221.39 94.62"/><rect class="cls-11" x="169.68" y="183.94" width="24.34" height="5.12"/><rect class="cls-11" x="169.68" y="247.63" width="24.34" height="5.12"/><rect class="cls-11" x="169.68" y="311.33" width="24.34" height="5.12"/><rect class="cls-11" x="169.68" y="375.03" width="24.34" height="5.12"/><rect class="cls-11" x="232.55" y="129.03" width="124.73" height="4.39"/><rect class="cls-11" x="232.55" y="169.3" width="124.73" height="4.39"/><rect class="cls-11" x="232.55" y="209.56" width="124.73" height="4.39"/><rect class="cls-11" x="232.55" y="249.83" width="124.73" height="4.39"/><rect class="cls-11" x="232.55" y="290.1" width="124.73" height="4.39"/><rect class="cls-11" x="232.55" y="330.37" width="124.73" height="4.39"/><rect class="cls-11" x="232.55" y="370.63" width="124.73" height="4.39"/><path class="cls-12" d="M421.84,538.47H279.69l-39.55-11v-70.2c1.56-4.38,3.22-8.54,5-12.37,16.67-35.78,11.24-50.33,14.73-76.52,3.44-25.85-4.07-164.53,18.66-191.34.3-.35.6-.68.91-1,0,0,.05.09.08.14l.16.29c9,16.28,14,25.68,16.94,34,.52,1.49,1,2.94,1.36,4.39a81.9,81.9,0,0,1,2.45,18.3c.21,4.87.3,10.55.41,17.58,0,1.4,0,2.87.07,4.39,0,.88,0,1.78,0,2.69.1,5.36.17,10.58.27,15.61.12,6.14.29,12,.59,17.57.08,1.49.17,2.95.27,4.4a140,140,0,0,0,2.35,18.3c1.43,6.93,3.54,12.85,6.68,17.57a28,28,0,0,0,3.58,4.39,26,26,0,0,0,11.07,6.54C331.41,343.92,336.9,348,342,354a88.52,88.52,0,0,1,11.44,17.57c.72,1.42,1.43,2.89,2.12,4.39a159,159,0,0,1,7,18.3c1.76,5.59,3.31,11.48,4.62,17.58.32,1.45.61,2.91.89,4.39,1.15,5.94,2.05,12.06,2.69,18.3.6,5.78,1,11.65,1.09,17.57,0,1.46.05,2.92.05,4.4,0,.9,0,1.8,0,2.71a73.69,73.69,0,0,0,1.33,15.59C380.57,511.42,416,514.29,421.84,538.47Z" transform="translate(-58.3 -81.44)"/><rect class="cls-11" x="105.25" y="183.44" width="24.84" height="5.12"/><rect class="cls-11" x="105.25" y="247.13" width="24.84" height="5.12"/><rect class="cls-11" x="105.25" y="310.83" width="24.84" height="5.12"/><polygon class="cls-9" points="79.93 148.8 79.93 457.02 40.38 447.68 40.38 178.06 79.93 148.8"/><rect class="cls-10" x="79.93" y="149.53" width="123.72" height="307.5"/><rect class="cls-9" x="102.24" y="186.14" width="24.34" height="48.32"/><rect class="cls-9" x="135.7" y="186.14" width="24.84" height="48.32"/><rect class="cls-9" x="169.68" y="186.14" width="24.34" height="48.32"/><rect class="cls-9" x="102.24" y="249.83" width="24.34" height="48.32"/><rect class="cls-9" x="135.7" y="249.83" width="24.84" height="48.32"/><rect class="cls-9" x="169.68" y="249.83" width="24.34" height="48.32"/><rect class="cls-9" x="102.24" y="313.53" width="24.34" height="48.32"/><rect class="cls-9" x="135.7" y="313.53" width="24.84" height="48.32"/><rect class="cls-9" x="169.68" y="313.53" width="24.34" height="48.32"/><rect class="cls-9" x="102.24" y="377.22" width="24.34" height="48.32"/><rect class="cls-9" x="135.7" y="377.22" width="24.84" height="48.32"/><rect class="cls-9" x="169.68" y="377.22" width="24.34" height="48.32"/><rect class="cls-11" x="102.24" y="186.14" width="24.34" height="5.12"/><rect class="cls-11" x="102.24" y="249.83" width="24.34" height="5.12"/><rect class="cls-11" x="102.24" y="313.53" width="24.34" height="5.12"/><rect class="cls-11" x="102.24" y="377.22" width="24.34" height="5.12"/><path class="cls-12" d="M261.94,533.36v5.11H138.23l-39.55-9.35V483.5a159.27,159.27,0,0,1,9.63-27c14.54-30,9.8-42.23,12.84-64.19s-3.71-141,17.08-161.31c19.43,33.92,18.08,32.45,18.76,68.58.36,19.32.33,36.41,3.55,49.09,2.78,11,8,18.73,18.08,21.68a23.9,23.9,0,0,1,6.25,2.93c6.54,4.21,12.69,11.82,17.91,21.72,6.85,13,12.11,29.93,14.56,48.32.67,5,1.13,10.17,1.36,15.37.07,1.73.12,3.47.14,5.22,0,1.51,0,3,0,4.54,0,.54,0,1.06,0,1.58.1,13.14,3.85,22.19,9.13,29.14a55.14,55.14,0,0,0,7.37,7.84C245.83,516.31,258.13,521.94,261.94,533.36Z" transform="translate(-58.3 -81.44)"/><path class="cls-14" d="M161.67,213.6a1.22,1.22,0,0,1-1.22-1.24v-4.14a1.22,1.22,0,1,1,2.44,0v4.14A1.22,1.22,0,0,1,161.67,213.6Z" transform="translate(-58.3 -81.44)"/><path class="cls-14" d="M161.67,201.18a1.23,1.23,0,0,1-1.22-1.24v-8.28a1.22,1.22,0,1,1,2.44,0v8.28A1.22,1.22,0,0,1,161.67,201.18Zm0-16.56a1.23,1.23,0,0,1-1.22-1.25v-8.28a1.22,1.22,0,1,1,2.44,0v8.28A1.23,1.23,0,0,1,161.67,184.62Zm0-16.57a1.22,1.22,0,0,1-1.22-1.24v-8.28a1.22,1.22,0,1,1,2.44,0v8.28A1.22,1.22,0,0,1,161.67,168.05Zm0-16.56a1.23,1.23,0,0,1-1.22-1.24V142a1.22,1.22,0,1,1,2.44,0v8.28A1.22,1.22,0,0,1,161.67,151.49Z" transform="translate(-58.3 -81.44)"/><path class="cls-14" d="M161.67,132.44a1.22,1.22,0,0,1-1.22-1.24v-4.56c0-.68.37-1.32,1.06-1.32h3.72a1.22,1.22,0,1,1,0,2.44h-2.34v3.44A1.22,1.22,0,0,1,161.67,132.44Z" transform="translate(-58.3 -81.44)"/><path class="cls-14" d="M331.7,127.76h-8.28a1.22,1.22,0,1,1,0-2.44h8.28a1.22,1.22,0,1,1,0,2.44Zm-16.56,0h-8.29a1.22,1.22,0,1,1,0-2.44h8.29a1.22,1.22,0,1,1,0,2.44Zm-16.57,0h-8.28a1.22,1.22,0,1,1,0-2.44h8.28a1.22,1.22,0,1,1,0,2.44Zm-16.56,0h-8.28a1.22,1.22,0,1,1,0-2.44H282a1.22,1.22,0,1,1,0,2.44Zm-16.57,0h-8.28a1.22,1.22,0,1,1,0-2.44h8.28a1.22,1.22,0,1,1,0,2.44Zm-16.56,0H240.6a1.22,1.22,0,1,1,0-2.44h8.28a1.22,1.22,0,1,1,0,2.44Zm-16.56,0H224a1.22,1.22,0,1,1,0-2.44h8.28a1.22,1.22,0,1,1,0,2.44Zm-16.57,0h-8.28a1.22,1.22,0,1,1,0-2.44h8.28a1.22,1.22,0,1,1,0,2.44Zm-16.56,0h-8.28a1.22,1.22,0,1,1,0-2.44h8.28a1.22,1.22,0,1,1,0,2.44Zm-16.56,0h-8.29a1.22,1.22,0,1,1,0-2.44h8.29a1.22,1.22,0,1,1,0,2.44Z" transform="translate(-58.3 -81.44)"/><path class="cls-14" d="M347.76,132.44a1.22,1.22,0,0,1-1.22-1.24v-3.44h-3.25a1.22,1.22,0,1,1,0-2.44h4.56a1.23,1.23,0,0,1,1.13,1.32v4.56A1.22,1.22,0,0,1,347.76,132.44Z" transform="translate(-58.3 -81.44)"/><path class="cls-14" d="M347.76,147.35a1.22,1.22,0,0,1-1.22-1.24v-7.46a1.22,1.22,0,1,1,2.44,0v7.46A1.23,1.23,0,0,1,347.76,147.35Z" transform="translate(-58.3 -81.44)"/><path class="cls-14" d="M347.76,158.94a1.22,1.22,0,0,1-1.22-1.24v-4.14a1.22,1.22,0,1,1,2.44,0v4.14A1.22,1.22,0,0,1,347.76,158.94Z" transform="translate(-58.3 -81.44)"/><circle class="cls-14" cx="161.2" cy="211.84" r="7.14" transform="translate(-140.31 238.62) rotate(-76.72)"/><circle class="cls-14" cx="289.24" cy="76.57" r="7.14"/><path class="cls-14" d="M497.28,284a1.22,1.22,0,0,1-1.22-1.24V277a1.22,1.22,0,1,1,2.44,0v5.8A1.23,1.23,0,0,1,497.28,284Zm0-14.08a1.22,1.22,0,0,1-1.22-1.24V260.4a1.22,1.22,0,1,1,2.44,0v8.28A1.23,1.23,0,0,1,497.28,269.92Zm0-16.56a1.23,1.23,0,0,1-1.22-1.25v-8.28a1.22,1.22,0,1,1,2.44,0v8.28A1.23,1.23,0,0,1,497.28,253.36Zm0-16.57a1.22,1.22,0,0,1-1.22-1.24v-8.28a1.22,1.22,0,1,1,2.44,0v8.28A1.22,1.22,0,0,1,497.28,236.79Zm0-16.56a1.22,1.22,0,0,1-1.22-1.24V210.7a1.22,1.22,0,1,1,2.44,0V219A1.23,1.23,0,0,1,497.28,220.23Zm0-16.57a1.22,1.22,0,0,1-1.22-1.24v-8.28a1.22,1.22,0,1,1,2.44,0v8.28A1.22,1.22,0,0,1,497.28,203.66Zm0-16.56a1.22,1.22,0,0,1-1.22-1.24v-8.28a1.22,1.22,0,1,1,2.44,0v8.28A1.22,1.22,0,0,1,497.28,187.1Zm0-16.56a1.22,1.22,0,0,1-1.22-1.24V161a1.22,1.22,0,1,1,2.44,0v8.29A1.23,1.23,0,0,1,497.28,170.54Zm-186.9-3.32a1.22,1.22,0,0,1-1.22-1.24V157.7a1.22,1.22,0,1,1,2.44,0V166A1.22,1.22,0,0,1,310.38,167.22ZM497.28,154a1.22,1.22,0,0,1-1.22-1.24v-8.28a1.22,1.22,0,1,1,2.44,0v8.28A1.22,1.22,0,0,1,497.28,154Zm-186.9-3.31a1.22,1.22,0,0,1-1.22-1.24v-8.28a1.22,1.22,0,1,1,2.44,0v8.28A1.22,1.22,0,0,1,310.38,150.66Zm186.9-13.25a1.22,1.22,0,0,1-1.22-1.24v-8.28a1.22,1.22,0,1,1,2.44,0v8.28A1.23,1.23,0,0,1,497.28,137.41Zm-186.9-3.31a1.22,1.22,0,0,1-1.22-1.24v-8.29a1.22,1.22,0,1,1,2.44,0v8.29A1.23,1.23,0,0,1,310.38,134.1Zm186.9-13.25a1.23,1.23,0,0,1-1.22-1.25v-8.28a1.22,1.22,0,1,1,2.44,0v8.28A1.23,1.23,0,0,1,497.28,120.85Zm-186.9-3.32a1.22,1.22,0,0,1-1.22-1.24V108a1.22,1.22,0,1,1,2.44,0v8.28A1.22,1.22,0,0,1,310.38,117.53Zm186.9-13.25a1.22,1.22,0,0,1-1.22-1.24V94.76a1.22,1.22,0,1,1,2.44,0V103A1.22,1.22,0,0,1,497.28,104.28ZM310.38,101a1.22,1.22,0,0,1-1.22-1.24V91.45a1.22,1.22,0,1,1,2.44,0v8.28A1.23,1.23,0,0,1,310.38,101Zm186.9-13.25a1.22,1.22,0,0,1-1.22-1.24v-2.6h-3.69a1.22,1.22,0,1,1,0-2.44h4.55c.69,0,1.58.62,1.58,1.31v3.73A1.23,1.23,0,0,1,497.28,87.72ZM310.49,84.35a1.27,1.27,0,0,1-1.33-1.19v-.41a1.46,1.46,0,0,1,1.42-1.31h7.87a1.22,1.22,0,1,1,0,2.44h-6.94C311.28,83.88,310.86,84.35,310.49,84.35Zm173.59-.47H475.8a1.22,1.22,0,1,1,0-2.44h8.28a1.22,1.22,0,1,1,0,2.44Zm-16.56,0h-8.28a1.22,1.22,0,1,1,0-2.44h8.28a1.22,1.22,0,1,1,0,2.44Zm-16.56,0h-8.28a1.22,1.22,0,1,1,0-2.44H451a1.22,1.22,0,1,1,0,2.44Zm-16.57,0h-8.28a1.22,1.22,0,1,1,0-2.44h8.28a1.22,1.22,0,1,1,0,2.44Zm-16.56,0h-8.28a1.22,1.22,0,1,1,0-2.44h8.28a1.22,1.22,0,1,1,0,2.44Zm-16.56,0H393a1.22,1.22,0,1,1,0-2.44h8.29a1.22,1.22,0,1,1,0,2.44Zm-16.57,0h-8.28a1.22,1.22,0,1,1,0-2.44h8.28a1.22,1.22,0,1,1,0,2.44Zm-16.56,0h-8.28a1.22,1.22,0,1,1,0-2.44h8.28a1.22,1.22,0,1,1,0,2.44Zm-16.56,0h-8.29a1.22,1.22,0,1,1,0-2.44h8.29a1.22,1.22,0,1,1,0,2.44Zm-16.57,0h-8.28a1.22,1.22,0,1,1,0-2.44H335a1.22,1.22,0,1,1,0,2.44Z" transform="translate(-58.3 -81.44)"/><circle class="cls-14" cx="251.97" cy="80.71" r="7.14"/><circle class="cls-14" cx="438.32" cy="198.31" r="7.14"/><path class="cls-15" d="M61.15,415.24l-2.62,11.44a9.21,9.21,0,0,0,4.11,9.88l7.91,4.93a7.7,7.7,0,0,1,3.59,6.15,82.39,82.39,0,0,0,3.14,18.51,7.71,7.71,0,0,1-1.38,7l-5.85,7.26a9.21,9.21,0,0,0-.64,10.68l6.24,10a9.21,9.21,0,0,0,9.89,4.08L94.63,503a7.71,7.71,0,0,1,6.9,1.81,82,82,0,0,0,15.29,10.88,7.71,7.71,0,0,1,4,5.92l1,9.26a9.24,9.24,0,0,0,7.11,8l11.44,2.62a9.21,9.21,0,0,0,9.88-4.11l4.93-7.91a7.67,7.67,0,0,1,6.15-3.59,82.39,82.39,0,0,0,18.51-3.14,7.73,7.73,0,0,1,7,1.37l7.26,5.86a9.21,9.21,0,0,0,10.68.63l9.94-6.23a9.21,9.21,0,0,0,4.09-9.89l-2.11-9.09a7.71,7.71,0,0,1,1.81-6.9,82,82,0,0,0,10.88-15.29,7.68,7.68,0,0,1,5.92-4l9.26-1a9.2,9.2,0,0,0,8-7.1l2.63-11.44a9.21,9.21,0,0,0-4.11-9.88l-7.91-4.93a7.74,7.74,0,0,1-3.6-6.15,81.73,81.73,0,0,0-3.13-18.51,7.73,7.73,0,0,1,1.37-7l5.86-7.26a9.21,9.21,0,0,0,.63-10.68L238,385.35a9.21,9.21,0,0,0-9.89-4.08l-9.09,2.11a7.74,7.74,0,0,1-6.9-1.81,82,82,0,0,0-15.29-10.88,7.68,7.68,0,0,1-4-5.92l-1-9.27a9.22,9.22,0,0,0-7.1-8l-11.44-2.62a9.21,9.21,0,0,0-9.88,4.11l-4.93,7.91a7.7,7.7,0,0,1-6.15,3.59,82.3,82.3,0,0,0-18.51,3.14,7.7,7.7,0,0,1-7-1.38l-7.26-5.85a9.21,9.21,0,0,0-10.68-.64L99,362a9.21,9.21,0,0,0-4.08,9.89L97,381a7.74,7.74,0,0,1-1.81,6.9,82.56,82.56,0,0,0-10.89,15.29,7.69,7.69,0,0,1-5.91,4l-9.27,1A9.23,9.23,0,0,0,61.15,415.24Zm31,6.06A68.31,68.31,0,1,1,135,507.9,68.3,68.3,0,0,1,92.14,421.3Z" transform="translate(-58.3 -81.44)"/><g class="cls-16"><path class="cls-17" d="M134.15,517.08s-30.94-63.94-5.07-128.56c0,0,33.5-8.41,79.46,17.42,0,0-28.16,37.45-18.8,103.38C189.74,509.32,149.21,523.79,134.15,517.08Z" transform="translate(-58.3 -81.44)"/></g><path class="cls-18" d="M172.58,362.87l-13.51,24.85a5.36,5.36,0,0,0,1.49,6.84c3.69,2.78,9.89,6.06,16.63,3.79a7.29,7.29,0,0,0,4.6-4.75l6.79-21.77Z" transform="translate(-58.3 -81.44)"/><path class="cls-19" d="M116,502.38s-17.34-58.51,18.94-85l-5.84-28.88s-60.5,41-20.4,111.85Z" transform="translate(-58.3 -81.44)"/><path class="cls-20" d="M108.68,500.37s.55,9.39,9.44,8.63c9.36-.8,10.3,10.81,18.1,6.63a1.37,1.37,0,0,0,.68-1.59c-1.13-3.83-6.29-17.23-22.88-16.65Z" transform="translate(-58.3 -81.44)"/><path class="cls-21" d="M208.54,405.94s29,44.93,70.36,44l2.88,5.9s-55.09,17.49-89.3-25.62Z" transform="translate(-58.3 -81.44)"/><path class="cls-22" d="M278.49,453.58a4,4,0,0,1,2.73-6.12l.44,0c4.83-.37,9.63-1.67,11.29-3.11a1.3,1.3,0,0,1,1.86.11c.59.75.36,2.16-4,4.67,0,0,10.54,2.77,18.22-2,7.49-4.67-1.66,16.58-26.86,9.78a5.27,5.27,0,0,1-3.07-2.26Z" transform="translate(-58.3 -81.44)"/><path class="cls-23" d="M195,340.72s10.09,30.71-2.49,37.45-24.81-22.52-24.81-22.52S170.05,324.23,195,340.72Z" transform="translate(-58.3 -81.44)"/><path class="cls-24" d="M172.58,362.87c-.36.67-6.56,6.24-11.94-.05s-2.47-11.64,3.8-13.28c0,0-4.34-1.71-2.18-5.51a4,4,0,0,1,5.66-1.78s-2.72-24.16,18.16-21.92,18.74,14.31,17.66,18-10.19,9.9-22.09,5.83a5.23,5.23,0,0,1,.57,6.87c-2.61,4-10.84,6.61-10.84,6.61Z" transform="translate(-58.3 -81.44)"/><path class="cls-25" d="M177.07,362.7s-3.17-9.48-7.77-5.61c-5.92,5,5.54,9,5.54,9Z" transform="translate(-58.3 -81.44)"/></g></g></svg>