<svg id="Layer_1" data-name="Layer 1" xmlns="http://www.w3.org/2000/svg" viewBox="0 0 513.29 356.32"><defs><style>.cls-1{fill:#a66039;}.cls-2{fill:#eb4680;}.cls-3{fill:#f6b188;}.cls-4{fill:#c06b39;}.cls-5{fill:#f8d6c3;}.cls-6{fill:#4F81BD;}.cls-7{fill:#0fbab8;}</style></defs><path class="cls-1" d="M438.26,212.48,409,229.27c-2.8,1.61-1.08,4.46,2.88,4.62h.22l-3.1,1.8c-2.8,1.61-1.08,4.46,2.88,4.62.7,0,1.4,53.58,2.1,53.64L438.29,280l0,0h.12V212.46Z" transform="translate(-73.75 -164.12)"/><path class="cls-2" d="M411.94,284.59l.17-.1h-.22S411.92,284.53,411.94,284.59Z" transform="translate(-73.75 -164.12)"/><path class="cls-3" d="M438.26,256.64,409,273.43c-2.8,1.61-1.08,4.46,2.88,4.61l.22,0-3.1,1.79a2.4,2.4,0,0,0-1.37,1.76,2.37,2.37,0,0,1,1.37-1.75l29.25-16.79.12,0v-6.43Z" transform="translate(-73.75 -164.12)"/><path class="cls-4" d="M337.75,287.48a13.87,13.87,0,0,1,5.61,6.51c.91-2.29,1-58.23.21-60.55,1.56-4.76-.39-10-5.82-13.53-10.33-6.67-28-6.91-38.77-.71-4.53,2.62-7.07,6-7.63,9.37-.29,1.78-4,2.58-6.16,1.31l-28.84-16.3v67.56l28.84,16.3c2.2,1.27,5.87.47,6.16-1.31.56-3.42,3.1-6.75,7.63-9.37C309.72,280.56,327.42,280.81,337.75,287.48Z" transform="translate(-73.75 -164.12)"/><path class="cls-1" d="M291.35,296.13c.56-3.42,3.1-6.75,7.63-9.37,10.74-6.2,28.44-5.95,38.77.72a13.87,13.87,0,0,1,5.61,6.51c.91-2.29,1-58.23.21-60.55,1.56-4.76-.39-10-5.82-13.53-10.33-6.67-28-6.91-38.77-.71-4.53,2.62-7.07,6-7.63,9.37Z" transform="translate(-73.75 -164.12)"/><path class="cls-5" d="M291.35,279.16c.56-3.43,3.1-6.76,7.63-9.38,10.74-6.2,28.44-5.95,38.77.72a13.37,13.37,0,0,1,5.87,7.37,1.43,1.43,0,0,0-.05-.28c1.56-4.75-.39-10-5.82-13.52-10.33-6.67-28-6.92-38.77-.72-4.53,2.62-7.07,5.95-7.63,9.38-.29,1.78-4,2.57-6.16,1.31l-28.84-16.31v6.43l28.84,16.31C287.39,281.73,291.06,280.94,291.35,279.16Z" transform="translate(-73.75 -164.12)"/><path class="cls-4" d="M347.31,264.88l-29-15.87a2.22,2.22,0,0,1-.81-.76v66.1c-.49.72-.3,1.58.81,2.22l29,15.88Z" transform="translate(-73.75 -164.12)"/><path class="cls-1" d="M347.31,332.45l29.58-17.08c2.8-1.61,7.68-.59,7.95,1.7.42,3.61,3.14,7.17,8.16,9.86,9.67,5.19,25.06,5.22,34.69.08,5.19-2.78,7.88-6.49,8.1-10.25h.13V249.2l-.13,0c-.24,3.75-2.92,7.45-8.1,10.21-9.63,5.15-25,5.12-34.69-.07-5-2.7-7.74-6.25-8.16-9.87-.27-2.28-5.15-3.3-7.95-1.69l-29.58,17.07Z" transform="translate(-73.75 -164.12)"/><path class="cls-2" d="M317.51,358.51a1.23,1.23,0,0,0,0,1.45Z" transform="translate(-73.75 -164.12)"/><path class="cls-5" d="M318.32,293.85a2.22,2.22,0,0,1-.81-.76v5.75a2.31,2.31,0,0,0,.81.76l29,15.87v-5.75Z" transform="translate(-73.75 -164.12)"/><path class="cls-5" d="M435.79,293.38c-.24,3.75-2.92,8.31-8.1,11.08-9.63,5.14-25,5.11-34.69-.08-5-2.69-7.74-6.24-8.16-9.86-.27-2.29-5.15-3.31-7.95-1.7L347.31,309.9v5.57l29.58-17.07c2.8-1.62,7.68-.6,7.95,1.69.42,3.62,3.14,7.17,8.16,9.87,9.67,5.18,25.06,5.22,34.69.07,5.18-2.77,7.86-6.47,8.1-10.22l.13,0v-5.57Z" transform="translate(-73.75 -164.12)"/><path class="cls-6" d="M299,219.2c10.74-6.2,28.44-6,38.77.71,8.36,5.39,8.53,15,.21,20.43-4.67,3-10.9,4.75-17.32,5.1-3.11.18-4.53,2.29-2.32,3.57l29,15.87,29.58-17.07c2.8-1.61,7.68-.59,7.95,1.69.42,3.62,3.14,7.18,8.16,9.87,9.67,5.19,25.06,5.22,34.69.07,10.65-5.69,10.84-15.33.6-21.24a36.17,36.17,0,0,0-16.4-4.31c-4-.16-5.68-3-2.88-4.62l29.28-16.81-81.4-45.78a19.1,19.1,0,0,0-19.12,0l-81.42,46.9,28.84,16.3c2.2,1.27,5.87.47,6.16-1.31C291.91,225.15,294.45,221.82,299,219.2Z" transform="translate(-73.75 -164.12)"/><path class="cls-3" d="M337.75,219.91c3.88,2.5,6,5.91,6.29,9.38.44-4.14-1.67-8.4-6.29-11.38-10.33-6.67-28-6.91-38.77-.71-4.53,2.61-7.07,6-7.63,9.37-.29,1.78-4,2.58-6.16,1.31L258.1,212.57l-1.75,1,28.84,16.3c2.2,1.27,5.87.47,6.16-1.31.56-3.42,3.1-6.75,7.63-9.37C309.72,213,327.42,213.24,337.75,219.91Z" transform="translate(-73.75 -164.12)"/><path class="cls-3" d="M427.69,257.44c-9.63,5.15-25,5.12-34.69-.07-5-2.7-7.74-6.25-8.16-9.87-.27-2.28-5.15-3.3-7.95-1.69l-29.58,17.07-29-15.87a2.88,2.88,0,0,1-.59-.46c-.72.76-.66,1.74.59,2.46l29,15.87,29.58-17.07c2.8-1.61,7.68-.59,7.95,1.69.42,3.62,3.14,7.18,8.16,9.87,9.67,5.19,25.06,5.22,34.69.07,5.93-3.16,8.6-7.55,8.06-11.84C435.36,251.22,432.7,254.77,427.69,257.44Z" transform="translate(-73.75 -164.12)"/><path class="cls-3" d="M409,227.27c-1.43.82-1.68,2-1.05,2.92a3.23,3.23,0,0,1,1.05-.92l29.28-16.81-1.76-1Z" transform="translate(-73.75 -164.12)"/><path class="cls-1" d="M231.47,345.24a33.91,33.91,0,0,0,14.86-4.52c4.78-3,7-6.89,6.61-10.75h.17V262.42l-.16,0c.32,3.85-1.86,7.75-6.62,10.7s-10.77,4.43-17,4.66c-4,.14-5.7,2.95-2.88,4.57l3.17,1.84h-.29C225.34,284.38,231.47,345.24,231.47,345.24ZM253,270c0,.11,0,.22,0,.33,0-.11,0-.22,0-.33Z" transform="translate(-73.75 -164.12)"/><path class="cls-1" d="M227.41,318.58c-2.2,1.27-5.88.43-6.19-1.36-.66-3.71-3.65-7.32-9-10-9.59-4.9-25.44-5-35.07-.16-7.65,3.83-10.47,9.53-8.55,14.78-.86,2.32-.79,58.25.23,60.56,1.29-2.91,4-5.64,8.32-7.78,9.63-4.81,25.48-4.74,35.07.17,5.31,2.71,8.3,6.32,9,10,.31,1.79,4,2.63,6.19,1.36L258.35,368V300.39Z" transform="translate(-73.75 -164.12)"/><path class="cls-1" d="M221.22,317.22c-.66-3.71-3.65-7.32-9-10-9.59-4.9-25.44-5-35.07-.16-7.65,3.83-10.47,9.53-8.55,14.78-.86,2.32-.79,58.25.23,60.56,1.29-2.91,4-5.64,8.32-7.78,9.63-4.81,25.48-4.74,35.07.17,5.31,2.71,8.3,6.32,9,10Z" transform="translate(-73.75 -164.12)"/><path class="cls-7" d="M168.64,359.53a9.33,9.33,0,0,1-.33-1.11c-.19,5.48-.28,15.19-.26,25C168.08,371.27,168.27,360.52,168.64,359.53Z" transform="translate(-73.75 -164.12)"/><path class="cls-5" d="M227.41,354.16c-2.2,1.27-5.88.43-6.19-1.36-.66-3.71-3.65-7.32-9-10-9.59-4.91-25.44-5-35.07-.17-7.43,3.72-10.3,9.21-8.69,14.34,1-3.28,3.93-6.38,8.69-8.77,9.63-4.81,25.48-4.73,35.07.17,5.31,2.71,8.3,6.32,9,10,.31,1.8,4,2.63,6.19,1.36l30.94-18.19V336Z" transform="translate(-73.75 -164.12)"/><path class="cls-1" d="M166.49,421.46v0h0l28-16.3c.85-.49,1.14-1.11,1-1.7V336.24a1.78,1.78,0,0,1-1,1.35l-28,16.3h0Z" transform="translate(-73.75 -164.12)"/><path class="cls-6" d="M166.49,353.89h0l28-16.3c2.18-1.26.78-3.39-2.3-3.57a37.4,37.4,0,0,1-16.29-4.46c-10.9-6.3-10.48-16.64,1.3-22.54,9.63-4.82,25.48-4.74,35.07.16,5.31,2.72,8.3,6.33,9,10,.31,1.79,4,2.63,6.19,1.36l30.94-18.19-31.93-18c-2.82-1.62-1.08-4.43,2.88-4.57,6.26-.23,12.4-1.78,17-4.66,8.93-5.55,8.89-14.43-.08-20-9.93-6.19-26.63-6.36-36.8-.49-4.55,2.63-7,6-7.37,9.45-.24,2.28-5.17,3.26-8,1.63l-28.49-16.16h0L73.76,301.06h0Z" transform="translate(-73.75 -164.12)"/><path class="cls-3" d="M246.33,271.05c-4.63,2.88-10.77,4.43-17,4.65-3.33.12-5.07,2.12-3.89,3.72a5,5,0,0,1,3.89-1.6c6.26-.23,12.4-1.78,17-4.66,4.88-3,7.06-7.06,6.59-11C252.52,265.4,250.34,268.56,246.33,271.05Z" transform="translate(-73.75 -164.12)"/><path class="cls-3" d="M227.41,316.46c-2.2,1.27-5.88.44-6.19-1.36-.66-3.71-3.65-7.32-9-10-9.59-4.9-25.44-5-35.07-.17-6.66,3.34-9.69,8.1-9.09,12.74.43-3.93,3.44-7.79,9.09-10.62,9.63-4.82,25.48-4.74,35.07.16,5.31,2.72,8.3,6.33,9,10,.31,1.79,4,2.63,6.19,1.36l30.94-18.19-1.84-1Z" transform="translate(-73.75 -164.12)"/><path class="cls-3" d="M194.48,335.47l-28,16.3h0L75.58,300l-1.82,1.06h0l92.74,52.82h0l28-16.3c1.27-.74,1.3-1.75.52-2.52A2.46,2.46,0,0,1,194.48,335.47Z" transform="translate(-73.75 -164.12)"/><polygon class="cls-4" points="92.75 189.77 92.75 257.34 0.01 204.51 0.01 136.96 92.75 189.77"/><path class="cls-7" d="M195.5,436.08a1.29,1.29,0,0,0,0-.48Z" transform="translate(-73.75 -164.12)"/><path class="cls-5" d="M194.48,378.74a1.77,1.77,0,0,0,1-1.34v-5.58a1.77,1.77,0,0,1-1,1.35l-28,16.3h0V395h0Z" transform="translate(-73.75 -164.12)"/><polygon class="cls-5" points="0.01 172.54 0.01 178.11 92.75 230.93 92.75 225.35 0.01 172.54"/><path class="cls-4" d="M435.37,327.71l-3.17-1.83.29,0c4-.14,5.7-2.95,2.88-4.58L405,304h0v67.56l25.28,14.41c.72-.06,1.44-53.62,2.17-53.64C436.45,332.15,438.19,329.34,435.37,327.71Z" transform="translate(-73.75 -164.12)"/><path class="cls-2" d="M432.2,377.75l.16.1c0-.05,0-.07,0-.11Z" transform="translate(-73.75 -164.12)"/><path class="cls-5" d="M435.37,374.44l-3.17-1.83.29,0c4-.14,5.7-2.95,2.88-3.21L405,352.06v5.48h0l30.33,17.33a2.45,2.45,0,0,1,1.37,1.71C436.85,375.83,436.43,375.05,435.37,374.44Z" transform="translate(-73.75 -164.12)"/><path class="cls-4" d="M485,277a37.39,37.39,0,0,0-16.28-4.46c-2-.11-3.26-1-3.34-2h-.06v67.56h.06c.07,1,1.34,1.92,3.34,2A37.26,37.26,0,0,1,485,344.61c3.54,2,5.87,4.52,7,7.13,1-2.31,1.09-58.23.24-60.55C494.08,286.25,491.68,280.89,485,277Z" transform="translate(-73.75 -164.12)"/><polygon class="cls-1" points="513.21 140.73 422.7 192.01 422.7 259.57 513.21 208.29 513.21 140.73"/><path class="cls-4" d="M467.69,339.94c-2.81-1.62-7.74-.65-8,1.64-.37,3.44-2.83,6.82-7.37,9.44-10.18,5.88-26.87,5.71-36.8-.48-4.39-2.74-6.63-6.26-6.74-9.8h-.05V408.3h.05c.1,3.54,2.34,7.07,6.74,9.81,9.93,6.19,26.62,6.36,36.8.48,4.54-2.62,7-6,7.37-9.44.24-2.28,5.17-3.26,8-1.64l28.76,16.18V356.12Z" transform="translate(-73.75 -164.12)"/><path class="cls-1" d="M459.71,341.58c-.37,3.44-2.83,6.82-7.37,9.44-10.18,5.88-26.87,5.71-36.8-.48-4.39-2.74-6.63-6.26-6.74-9.8h-.05V408.3h.05c.1,3.54,2.34,7.07,6.74,9.81,9.93,6.19,26.62,6.36,36.8.48,4.54-2.62,7-6,7.37-9.44Z" transform="translate(-73.75 -164.12)"/><path class="cls-5" d="M496.45,404.22,467.69,388c-2.81-1.62-7.74-.65-8,1.64-.36,3.44-2.82,6.82-7.36,9.44-10.18,5.88-26.87,5.71-36.8-.48-4.39-2.74-6.63-6.26-6.74-9.8h-.05v5.49h.05c.11,3.54,2.35,7.06,6.74,9.8,9.93,6.18,26.62,6.35,36.8.48,4.54-2.63,7-6,7.36-9.45.25-2.28,5.18-3.25,8-1.63l28.76,16.18L587,358.43V353Z" transform="translate(-73.75 -164.12)"/><path class="cls-6" d="M587,304.87l-91.4-52.17L466.42,269c-2.18,1.26-.78,3.39,2.31,3.57A37.39,37.39,0,0,1,485,277c10.9,6.3,10.48,16.64-1.3,22.54-9.62,4.82-25.47,4.74-35.07-.16-5.31-2.72-8.29-6.33-8.95-10-.32-1.79-4-2.63-6.19-1.36L405,304l30.33,17.32c2.82,1.63,1.08,4.44-2.88,4.58-6.27.22-12.4,1.77-17,4.66-8.92,5.55-8.88,14.43.09,20,9.93,6.19,26.62,6.36,36.8.48,4.54-2.62,7-6,7.37-9.44.24-2.29,5.17-3.26,8-1.64l28.76,16.18Z" transform="translate(-73.75 -164.12)"/><path class="cls-3" d="M468.73,272.58A37.39,37.39,0,0,1,485,277c4.74,2.74,7.34,6.25,7.79,9.82.45-4.26-2.14-8.61-7.79-11.87a37.26,37.26,0,0,0-16.28-4.47,4.3,4.3,0,0,1-2.86-1.08C464.57,270.7,466,272.42,468.73,272.58Z" transform="translate(-73.75 -164.12)"/><path class="cls-3" d="M496.45,354.07l-28.76-16.19c-2.81-1.62-7.74-.64-8,1.64-.37,3.44-2.83,6.82-7.37,9.45-10.18,5.87-26.87,5.7-36.8-.49-4.08-2.54-6.3-5.77-6.68-9.05-.47,4,1.74,8,6.68,11.11,9.93,6.19,26.62,6.36,36.8.48,4.54-2.62,7-6,7.37-9.44.24-2.29,5.17-3.26,8-1.64l28.76,16.18L587,304.87l-1.81-1Z" transform="translate(-73.75 -164.12)"/><path class="cls-3" d="M436.4,322.17c.66-.94.43-2.1-1-2.94l-28.51-16.29L405,304l30.33,17.32A3.31,3.31,0,0,1,436.4,322.17Z" transform="translate(-73.75 -164.12)"/><path class="cls-4" d="M250.55,385.19l-.23,0,3.11-1.79c2.79-1.62,1.07-4.47-2.88-4.62a36.22,36.22,0,0,1-16.41-4.32c-4.38-2.52-6.83-5.73-7.39-9v4.7a8.58,8.58,0,0,0,0,2.77v57.16c-.74,4.26,1.72,8.68,7.39,12a35,35,0,0,0,14.31,4.17l5-56.38C256.22,388.19,254.5,385.34,250.55,385.19Z" transform="translate(-73.75 -164.12)"/><path class="cls-1" d="M339.58,368.79c-6.42.36-12.65,2.06-17.32,5.11-5.47,3.57-7.38,8.67-5.78,13.33-.8,2.32-.73,58.25.22,60.55a14.13,14.13,0,0,1,5.56-6.32c4.67-3,10.9-4.75,17.32-5.1,2-.12,3.32-1.07,3.36-2.07V366.9C342.77,367.84,341.5,368.69,339.58,368.79Z" transform="translate(-73.75 -164.12)"/><path class="cls-6" d="M311.41,452.88l90.53-52.17h0L375,384.36c-2.2-1.27-5.87-.48-6.16,1.3-.56,3.43-3.1,6.76-7.63,9.38-10.84,6.25-28.76,5.95-39.05-.89-8.4-5.59-8.37-14.74.07-20.25,4.67-3,10.9-4.75,17.32-5.11,3.11-.17,4.53-2.28,2.32-3.56l-28.26-16.69-28.1,16.3c-2.8,1.61-7.67.59-7.94-1.7-.42-3.62-3.15-7.17-8.17-9.86-9.67-5.19-25.06-5.22-34.69-.08-10.65,5.7-10.84,15.33-.6,21.24a36.19,36.19,0,0,0,16.41,4.32c3.95.15,5.67,3,2.88,4.62l-30.32,17.33h0Z" transform="translate(-73.75 -164.12)"/><path class="cls-3" d="M234.14,374.44a36.19,36.19,0,0,0,16.41,4.32,4.94,4.94,0,0,1,3.87,1.62c1.18-1.6-.55-3.64-3.87-3.77a36.18,36.18,0,0,1-16.41-4.31c-4.5-2.6-7-5.92-7.45-9.3C226.23,367.1,228.69,371.3,234.14,374.44Z" transform="translate(-73.75 -164.12)"/><path class="cls-3" d="M339.58,366.65c-6.42.36-12.65,2.06-17.32,5.11S315.53,378.93,316,383c.36-3.32,2.44-6.57,6.27-9.07,4.67-3,10.9-4.75,17.32-5.11,2.81-.15,4.21-1.89,2.83-3.16A4.45,4.45,0,0,1,339.58,366.65Z" transform="translate(-73.75 -164.12)"/><polygon class="cls-3" points="328.18 236.59 326.38 235.5 237.66 286.62 151.2 235.54 149.36 236.59 149.38 236.59 149.37 236.6 237.66 288.76 328.19 236.6 328.17 236.59 328.18 236.59"/><polygon class="cls-1" points="328.17 236.59 328.17 304.16 237.66 356.32 237.66 288.76 328.17 236.59"/><polygon class="cls-4" points="237.66 288.76 237.66 356.32 149.36 304.15 149.36 236.6 237.66 288.76"/><polygon class="cls-5" points="237.66 327.69 149.36 275.52 149.36 281.18 237.66 333.35 328.17 281.18 328.17 275.52 237.66 327.69"/></svg>