<svg id="Layer_1" data-name="Layer 1" xmlns="http://www.w3.org/2000/svg" viewBox="0 0 553.25 384.97"><defs><style>.cls-1{fill:#ececec;}.cls-2{fill:#1a2e35;}.cls-3{fill:#375a64;}.cls-4{fill:#fff;}.cls-5{fill:#ff4f5b;}.cls-6{opacity:0.2;}.cls-7{fill:#4F81BD;}.cls-8{fill:#ffbf9d;}.cls-9{fill:#ff9a6c;}.cls-10{fill:#e1e1e1;}.cls-11,.cls-12{opacity:0.3;}</style></defs><path class="cls-1" d="M457.19,187.54c4.69-10.95,1.85-22.37-5.86-31.45a33,33,0,0,0-32.28-10.47,36.09,36.09,0,0,0-71.57,4.66,27,27,0,0,0-20.63,36.65Z" transform="translate(-51.92 -115.95)"/><path class="cls-2" d="M270.22,495.15l-116.05,0c0,.16,0,.32,0,.48l116.1,0c162.25,0,293.82-.12,293.82-.26S432.47,495.15,270.22,495.15Z" transform="translate(-51.92 -115.95)"/><path class="cls-2" d="M336.12,252H60.52a8.6,8.6,0,0,0-8.6,8.6V455.23a8.6,8.6,0,0,0,8.6,8.61H166.3s6.72,20.8-14.13,31.57h98.9s-23.55-8.07-17.49-31.57H336.12a8.61,8.61,0,0,0,8.61-8.6V260.57A8.61,8.61,0,0,0,336.12,252Z" transform="translate(-51.92 -115.95)"/><path class="cls-3" d="M202,443.36c3.75,5.36-2.12,11.23-7.48,7.48a2,2,0,0,1-.46-.46c-3.74-5.36,2.12-11.22,7.48-7.48A2,2,0,0,1,202,443.36Z" transform="translate(-51.92 -115.95)"/><path class="cls-4" d="M14.44,139.58H278.37a9.7,9.7,0,0,1,9.7,9.7v163a0,0,0,0,1,0,0H4.75a0,0,0,0,1,0,0v-163A9.7,9.7,0,0,1,14.44,139.58Z"/><path class="cls-5" d="M120.49,331.07l2.69,49.52a3.34,3.34,0,0,0,3.31,3.16l89.11.65a3.34,3.34,0,0,0,3.37-3.32l.28-38.54a3.35,3.35,0,0,0-3.34-3.37l-54.8-.05a3.3,3.3,0,0,1-2.36-1l-9.46-9.45a3.36,3.36,0,0,0-2.34-1l-23.1-.17A3.34,3.34,0,0,0,120.49,331.07Z" transform="translate(-51.92 -115.95)"/><g class="cls-6"><path d="M120.49,331.07l2.69,49.52a3.34,3.34,0,0,0,3.31,3.16l89.11.65a3.34,3.34,0,0,0,3.37-3.32l.28-38.54a3.35,3.35,0,0,0-3.34-3.37l-54.8-.05a3.3,3.3,0,0,1-2.36-1l-9.46-9.45a3.36,3.36,0,0,0-2.34-1l-23.1-.17A3.34,3.34,0,0,0,120.49,331.07Z" transform="translate(-51.92 -115.95)"/></g><rect class="cls-4" x="130.16" y="293.62" width="65.97" height="90.28" transform="translate(-177.81 -17.67) rotate(-24.52)"/><path class="cls-2" d="M211.89,366.13l-.2-.4-.54-1.15c-.49-1-1.18-2.54-2.09-4.48l-7.77-16.84c-6.62-14.44-16-34.91-27.14-59.14l.39.15-60,27.41h0l.16-.44c14,30.69,26.91,59.1,37.42,82.16l-.36-.13,43.64-19.76L207.56,368l3.21-1.43,1.12-.48s-.34.18-1,.51l-3.13,1.46-12.05,5.57L152,393.75l-.24.12-.11-.25-37.53-82.1-.14-.3.3-.14h0l60-27.36.27-.12.12.27c11,24.35,20.38,44.93,27,59.45l7.6,16.84,2,4.45c.21.49.38.86.5,1.14A2.09,2.09,0,0,1,211.89,366.13Z" transform="translate(-51.92 -115.95)"/><path class="cls-2" d="M158.64,311.14c.07.17-6.4,3.28-14.45,6.95s-14.64,6.52-14.72,6.36,6.39-3.28,14.45-7S158.56,311,158.64,311.14Z" transform="translate(-51.92 -115.95)"/><path class="cls-2" d="M177.67,311.08c.07.16-9.93,4.89-22.34,10.55s-22.53,10.12-22.6,9.95,9.92-4.89,22.33-10.55S177.59,310.91,177.67,311.08Z" transform="translate(-51.92 -115.95)"/><path class="cls-2" d="M181.06,318.52c.08.17-9.92,4.89-22.33,10.56S136.2,339.19,136.12,339s9.93-4.89,22.34-10.55S181,318.36,181.06,318.52Z" transform="translate(-51.92 -115.95)"/><path class="cls-2" d="M184.46,326c.08.17-9.92,4.89-22.33,10.55s-22.53,10.12-22.61,10,9.92-4.88,22.34-10.55S184.39,325.8,184.46,326Z" transform="translate(-51.92 -115.95)"/><path class="cls-2" d="M187.86,333.42c.07.16-9.93,4.89-22.33,10.55s-22.54,10.12-22.61,9.95,9.92-4.89,22.33-10.55S187.78,333.25,187.86,333.42Z" transform="translate(-51.92 -115.95)"/><path class="cls-2" d="M191.26,340.86c.07.17-9.93,4.89-22.34,10.55s-22.53,10.12-22.61,10,9.93-4.89,22.34-10.56S191.18,340.7,191.26,340.86Z" transform="translate(-51.92 -115.95)"/><path class="cls-2" d="M194.65,348.31c.08.16-9.92,4.89-22.33,10.55s-22.53,10.12-22.61,9.95,9.92-4.89,22.34-10.55S194.58,348.14,194.65,348.31Z" transform="translate(-51.92 -115.95)"/><path class="cls-2" d="M177.26,365.23c.08.17-5.27,2.77-11.94,5.81s-12.14,5.38-12.21,5.22,5.27-2.77,11.94-5.81S177.19,365.07,177.26,365.23Z" transform="translate(-51.92 -115.95)"/><rect class="cls-4" x="141.32" y="284.73" width="68.51" height="93.75" transform="translate(-126.68 -63.85) rotate(-13.95)"/><path class="cls-2" d="M220.11,368.84s-.05-.15-.12-.44-.2-.74-.34-1.29c-.3-1.15-.72-2.81-1.27-5l-4.72-18.67c-4-16-9.71-38.69-16.44-65.55l.37.23L131.12,294.7h0l.25-.41c8.42,34,16.21,65.46,22.54,91l-.34-.21,48.32-11.85L215.33,370l3.55-.85,1.23-.28s-.38.12-1.16.32l-3.48.9-13.36,3.39L153.7,385.63l-.27.06-.07-.27c-6.36-25.53-14.2-57-22.66-91l-.08-.34L131,294h0l66.48-16.48.3-.08.08.3c6.63,27,12.23,49.75,16.19,65.82,1.94,8,3.48,14.3,4.54,18.64.52,2.14.91,3.78,1.19,4.92.12.54.22,1,.29,1.26A2.78,2.78,0,0,1,220.11,368.84Z" transform="translate(-51.92 -115.95)"/><path class="cls-2" d="M176.23,302.56c.05.18-7.15,2.13-16.07,4.34s-16.19,3.87-16.24,3.69,7.15-2.13,16.08-4.35S176.19,302.38,176.23,302.56Z" transform="translate(-51.92 -115.95)"/><path class="cls-2" d="M195.67,306.12c.05.19-11.06,3.11-24.81,6.52s-24.93,6-25,5.85S157,315.39,170.7,312,195.63,305.94,195.67,306.12Z" transform="translate(-51.92 -115.95)"/><path class="cls-2" d="M197.72,314.37c0,.19-11.06,3.1-24.81,6.52s-24.93,6-25,5.85,11.06-3.1,24.81-6.52S197.67,314.19,197.72,314.37Z" transform="translate(-51.92 -115.95)"/><path class="cls-2" d="M199.77,322.62c0,.18-11.06,3.1-24.81,6.51s-24.93,6-25,5.86,11.06-3.1,24.81-6.52S199.72,322.44,199.77,322.62Z" transform="translate(-51.92 -115.95)"/><path class="cls-2" d="M201.82,330.87c0,.18-11.07,3.1-24.81,6.51s-24.93,6-25,5.85,11.06-3.1,24.81-6.51S201.77,330.68,201.82,330.87Z" transform="translate(-51.92 -115.95)"/><path class="cls-2" d="M203.87,339.12c0,.18-11.07,3.1-24.81,6.51s-24.93,6-25,5.85,11.06-3.1,24.81-6.51S203.82,338.93,203.87,339.12Z" transform="translate(-51.92 -115.95)"/><path class="cls-2" d="M205.91,347.36c.05.19-11.06,3.1-24.8,6.52s-24.93,6-25,5.85,11.06-3.1,24.81-6.52S205.87,347.18,205.91,347.36Z" transform="translate(-51.92 -115.95)"/><path class="cls-2" d="M184.94,361.33c0,.18-5.91,1.82-13.3,3.65s-13.42,3.18-13.46,3,5.91-1.82,13.3-3.66S184.89,361.15,184.94,361.33Z" transform="translate(-51.92 -115.95)"/><path class="cls-7" d="M114.17,337.8l7,60.72a2.16,2.16,0,0,0,2.12,1.9l94.89.7a2.14,2.14,0,0,0,2.15-2l5.23-60.63a2.16,2.16,0,0,0-2.13-2.34l-107.09-.78A2.16,2.16,0,0,0,114.17,337.8Z" transform="translate(-51.92 -115.95)"/><path class="cls-4" d="M183.19,369.09c-.2,0-.1-1.82-1.2-4.41a13.07,13.07,0,0,0-2.72-4,12.38,12.38,0,0,0-15.42-1.53c-2.34,1.54-3.3,3.11-3.45,3s.12-.46.6-1.12a11.39,11.39,0,0,1,2.45-2.46,12.42,12.42,0,0,1,4.72-2.12A12.64,12.64,0,0,1,179.93,360a12.57,12.57,0,0,1,2.72,4.4,11.68,11.68,0,0,1,.67,3.41A3.36,3.36,0,0,1,183.19,369.09Z" transform="translate(-51.92 -115.95)"/><path class="cls-4" d="M177.24,364.67c.17-.22,2.92,1.6,6.16,4.06l.18.13-.78.24c1.31-3.74,2.57-6.66,2.82-6.57s-.58,3.16-1.87,6.9l-.23.65-.55-.42-.18-.14C179.56,367.07,177.07,364.89,177.24,364.67Z" transform="translate(-51.92 -115.95)"/><path class="cls-4" d="M159.72,367c.2,0-.12,1.76.62,4.39a12.69,12.69,0,0,0,2.08,4.22,12.22,12.22,0,0,0,4.4,3.63,13.77,13.77,0,0,0,1.39.59c.48.14.95.3,1.42.39a12.64,12.64,0,0,0,2.76.29,12.5,12.5,0,0,0,4.62-.94,14,14,0,0,0,2.82-1.55c.64-.44,1-.72,1-.66s-.2.42-.78,1a11,11,0,0,1-2.79,1.9,12.14,12.14,0,0,1-4.87,1.21,12.33,12.33,0,0,1-3-.25c-.51-.09-1-.26-1.54-.4a15.08,15.08,0,0,1-1.51-.63,12.51,12.51,0,0,1-6.73-8.59,11.15,11.15,0,0,1-.25-1.91c0-.57,0-1.06,0-1.45C159.55,367.44,159.65,367,159.72,367Z" transform="translate(-51.92 -115.95)"/><path class="cls-4" d="M165.08,372.14c-.19.2-2.71-1.94-5.61-4.77l-.17-.16.8-.14c-1.76,3.55-3.36,6.29-3.6,6.17s1-3.06,2.7-6.61l.31-.62.49.48.17.16C163.07,369.48,165.27,371.94,165.08,372.14Z" transform="translate(-51.92 -115.95)"/><rect class="cls-3" x="374.6" y="275.06" width="127.17" height="34.44"/><rect class="cls-2" x="378.01" y="279.39" width="6.85" height="26.36"/><path class="cls-4" d="M444.85,400.89a2.18,2.18,0,1,1-2.18-2.18A2.18,2.18,0,0,1,444.85,400.89Z" transform="translate(-51.92 -115.95)"/><path class="cls-4" d="M444.85,410.2a2.18,2.18,0,1,1-2.18-2.17A2.17,2.17,0,0,1,444.85,410.2Z" transform="translate(-51.92 -115.95)"/><rect class="cls-2" x="401.64" y="282.76" width="6.73" height="20.25"/><rect class="cls-2" x="411.36" y="282.76" width="6.73" height="20.25"/><rect class="cls-2" x="421.09" y="282.76" width="6.73" height="20.25"/><rect class="cls-2" x="430.81" y="282.76" width="6.73" height="20.25"/><rect class="cls-2" x="440.54" y="282.76" width="6.73" height="20.25"/><rect class="cls-2" x="450.26" y="282.76" width="6.73" height="20.25"/><rect class="cls-2" x="459.99" y="282.76" width="6.73" height="20.25"/><rect class="cls-2" x="469.71" y="282.76" width="6.73" height="20.25"/><rect class="cls-2" x="479.43" y="282.76" width="6.73" height="20.25"/><rect class="cls-2" x="489.16" y="282.76" width="6.73" height="20.25"/><rect class="cls-2" x="501.77" y="275.06" width="22.72" height="34.44"/><rect class="cls-3" x="374.6" y="313.06" width="127.17" height="34.44"/><rect class="cls-2" x="378.01" y="317.39" width="6.85" height="26.36"/><path class="cls-4" d="M444.85,438.88a2.18,2.18,0,1,1-2.18-2.17A2.17,2.17,0,0,1,444.85,438.88Z" transform="translate(-51.92 -115.95)"/><path class="cls-4" d="M444.85,448.2a2.18,2.18,0,1,1-2.18-2.18A2.18,2.18,0,0,1,444.85,448.2Z" transform="translate(-51.92 -115.95)"/><rect class="cls-2" x="401.64" y="320.75" width="6.73" height="20.25"/><rect class="cls-2" x="411.36" y="320.75" width="6.73" height="20.25"/><rect class="cls-2" x="421.09" y="320.75" width="6.73" height="20.25"/><rect class="cls-2" x="430.81" y="320.75" width="6.73" height="20.25"/><rect class="cls-2" x="440.54" y="320.75" width="6.73" height="20.25"/><rect class="cls-2" x="450.26" y="320.75" width="6.73" height="20.25"/><rect class="cls-2" x="459.99" y="320.75" width="6.73" height="20.25"/><rect class="cls-2" x="469.71" y="320.75" width="6.73" height="20.25"/><rect class="cls-2" x="479.43" y="320.75" width="6.73" height="20.25"/><rect class="cls-2" x="489.16" y="320.75" width="6.73" height="20.25"/><rect class="cls-2" x="501.77" y="313.06" width="22.72" height="34.44"/><rect class="cls-3" x="374.6" y="350.53" width="127.17" height="34.44"/><rect class="cls-2" x="378.01" y="354.86" width="6.85" height="26.36"/><path class="cls-4" d="M444.85,476.35a2.18,2.18,0,1,1-2.18-2.17A2.17,2.17,0,0,1,444.85,476.35Z" transform="translate(-51.92 -115.95)"/><path class="cls-4" d="M444.85,485.67a2.18,2.18,0,1,1-2.18-2.18A2.17,2.17,0,0,1,444.85,485.67Z" transform="translate(-51.92 -115.95)"/><rect class="cls-2" x="401.64" y="358.22" width="6.73" height="20.25"/><rect class="cls-2" x="411.36" y="358.22" width="6.73" height="20.25"/><rect class="cls-2" x="421.09" y="358.22" width="6.73" height="20.25"/><rect class="cls-2" x="430.81" y="358.22" width="6.73" height="20.25"/><rect class="cls-2" x="440.54" y="358.22" width="6.73" height="20.25"/><rect class="cls-2" x="450.26" y="358.22" width="6.73" height="20.25"/><rect class="cls-2" x="459.99" y="358.22" width="6.73" height="20.25"/><rect class="cls-2" x="469.71" y="358.22" width="6.73" height="20.25"/><rect class="cls-2" x="479.43" y="358.22" width="6.73" height="20.25"/><rect class="cls-2" x="489.16" y="358.22" width="6.73" height="20.25"/><rect class="cls-2" x="501.77" y="350.53" width="22.72" height="34.44"/><rect class="cls-2" x="524.49" y="292.07" width="8.67" height="6.02"/><path class="cls-2" d="M472.32,245.73v-6.47a.92.92,0,0,1,.91-.92h6a.92.92,0,0,1,.92.92v6.47a3.93,3.93,0,0,1-3.93,3.93h0A3.92,3.92,0,0,1,472.32,245.73Z" transform="translate(-51.92 -115.95)"/><rect class="cls-2" x="524.49" y="328.58" width="8.67" height="6.02"/><rect class="cls-2" x="524.49" y="363.66" width="8.67" height="6.02"/><rect class="cls-2" x="365.34" y="363.66" width="8.67" height="6.02"/><path class="cls-2" d="M605,428.31a6.9,6.9,0,0,1,0,1.23,10,10,0,0,1-.1,1.44,15.68,15.68,0,0,1-.3,1.9,17,17,0,0,1-.64,2.25c-.15.39-.26.81-.45,1.21s-.39.83-.59,1.25a19.57,19.57,0,0,1-8.57,8.57l-1.25.59a13,13,0,0,1-1.22.45,15.14,15.14,0,0,1-2.24.64,15.85,15.85,0,0,1-1.9.31,8.7,8.7,0,0,1-1.44.09,6,6,0,0,1-1.24,0c0-.12,1.77-.06,4.49-.72a17.45,17.45,0,0,0,2.19-.68c.38-.16.79-.28,1.18-.47l1.21-.6a21.41,21.41,0,0,0,4.82-3.54,21.72,21.72,0,0,0,3.54-4.82l.6-1.21c.19-.39.31-.8.47-1.18a17.85,17.85,0,0,0,.68-2.18C604.91,430.07,604.84,428.3,605,428.31Z" transform="translate(-51.92 -115.95)"/><path class="cls-2" d="M605,390.48a7,7,0,0,1,0,1.23,10.17,10.17,0,0,1-.1,1.45,15.54,15.54,0,0,1-.3,1.89,16.17,16.17,0,0,1-.64,2.25c-.15.39-.26.81-.45,1.22s-.39.82-.59,1.25a21,21,0,0,1-3.61,5,20.8,20.8,0,0,1-5,3.6l-1.25.59c-.4.19-.83.31-1.22.46a16.34,16.34,0,0,1-2.24.63,14.07,14.07,0,0,1-1.9.31,8.7,8.7,0,0,1-1.44.09,5.22,5.22,0,0,1-1.24,0c0-.12,1.77-.06,4.49-.72a17.45,17.45,0,0,0,2.19-.68,12.58,12.58,0,0,0,1.18-.47l1.21-.59a21.46,21.46,0,0,0,4.82-3.55,21.72,21.72,0,0,0,3.54-4.82l.6-1.21c.19-.39.31-.8.47-1.18a17.85,17.85,0,0,0,.68-2.18C604.91,392.24,604.84,390.47,605,390.48Z" transform="translate(-51.92 -115.95)"/><path class="cls-2" d="M421.59,482.62s-.15,0-.46,0l-1.34,0-5.18.05-19,.08-62.77.07H306.41c-2.78,0-5.49.08-8.17-.12a27.47,27.47,0,0,1-7.59-1.83,17.65,17.65,0,0,1-1.71-.79,11.65,11.65,0,0,1-1.64-.87l-1.56-1-1.44-1.08a12.32,12.32,0,0,1-1.35-1.14c-.43-.4-.88-.77-1.27-1.19a29,29,0,0,1-2.19-2.57,27.11,27.11,0,0,1-3.19-5.47,26.74,26.74,0,0,1-2.12-10.63c0-3.18,0-5.93.05-8.18s0-4,0-5.17c0-.58,0-1,0-1.35s0-.46,0-.46a4.13,4.13,0,0,1,0,.46c0,.33,0,.77,0,1.35,0,1.2,0,2.94.05,5.17s0,5,0,8.18a26.56,26.56,0,0,0,2.17,10.48,26.13,26.13,0,0,0,3.18,5.37A26.57,26.57,0,0,0,282,474.6c.38.41.83.77,1.25,1.16a11.94,11.94,0,0,0,1.33,1.12l1.42,1.06,1.54.93a11.93,11.93,0,0,0,1.62.86,16.1,16.1,0,0,0,1.69.76,26.45,26.45,0,0,0,7.45,1.78c2.61.19,5.36.08,8.13.11h26.41l62.77.08,19,.08,5.18.05,1.34,0Z" transform="translate(-51.92 -115.95)"/><path class="cls-2" d="M476.24,248s0,.31,0,.92,0,1.51,0,2.68v10.33c0,9-.06,21.95-.11,38,0,8-.06,16.8-.09,26.22,0,2.36,0,4.75,0,7.19,0,1.22,0,2.45,0,3.68s.12,2.47.19,3.71a33.93,33.93,0,0,0,5,14.39,33.23,33.23,0,0,0,11.53,11.09c.3.18.58.37.89.53l.93.45,1.88.9,2,.72a13.7,13.7,0,0,0,2,.64l2.05.53c.68.17,1.39.23,2.09.35a31.51,31.51,0,0,0,4.25.37c11.52.07,23.47,0,35.7,0h44.3a16.49,16.49,0,0,1,16.35,15.75c0,21.21,0,40.3,0,56.34,0,4,0,7.83,0,11.44,0,1.8,0,3.56,0,5.26a31,31,0,0,1-.25,4.95,21.2,21.2,0,0,1-3.06,8.31,21.43,21.43,0,0,1-5,5.5,20.74,20.74,0,0,1-9.4,4.08c-.59.08-1.1.17-1.55.21l-1.13,0c-.6,0-.91,0-.91,0l.91-.07,1.12-.07c.45,0,1-.15,1.54-.23a20.9,20.9,0,0,0,9.3-4.14,21,21,0,0,0,7.94-13.7,32.63,32.63,0,0,0,.22-4.9c0-1.7,0-3.46,0-5.26,0-3.61,0-7.43,0-11.44,0-16-.06-35.12-.09-56.32a16,16,0,0,0-15.88-15.26H544.52c-12.23,0-24.17,0-35.71,0a31.09,31.09,0,0,1-4.32-.38c-.71-.12-1.42-.19-2.12-.36l-2.08-.53a15,15,0,0,1-2-.65l-2-.74-1.9-.91-.95-.46c-.31-.17-.6-.36-.9-.54a33.72,33.72,0,0,1-11.68-11.26,34.34,34.34,0,0,1-5.08-14.6c-.07-1.26-.14-2.52-.18-3.76s0-2.46,0-3.68c0-2.44,0-4.83,0-7.19.05-9.43.11-18.21.16-26.22.11-16,.2-29,.26-38,.05-4.47.08-8,.1-10.33,0-1.17,0-2.06,0-2.68S476.24,248,476.24,248Z" transform="translate(-51.92 -115.95)"/><path class="cls-2" d="M440.51,254.23c-2.21-.51-2.7-3.12-2.9-4.59a5,5,0,0,1,1.33-4.09c2-2.06,5.31-2,8-1.16a39,39,0,0,0,6.51,1.88c2.18.37,5.11-.52,8.19,1,2.36,1.13,2.05,3.25,3.21,4s1.84,1.44,3,2.22c1.52,1,1.63,3.17,1.32,5s-.88,3.69-.18,5.36c.5,1.16,1.56,2,2,3.21a3.72,3.72,0,0,1-1.63,4.47,6.46,6.46,0,0,0-1.57.87,5.44,5.44,0,0,0-.93,2.37,4.21,4.21,0,0,1-3.69,2.85,3.79,3.79,0,0,1-3.73-2.69,8.17,8.17,0,0,1,.48-4.1,26.06,26.06,0,0,0,.51-11.15" transform="translate(-51.92 -115.95)"/><path class="cls-8" d="M460.29,289.05l-14.53-1.16c-.09-1.7,0-8.26,0-8.26s-6.05-.94-6.13-7,1-19.94,1-19.94h0a21,21,0,0,1,21.12,2.66l.89.69Z" transform="translate(-51.92 -115.95)"/><path class="cls-9" d="M445.78,279.54a14.06,14.06,0,0,0,7.88-2.24s-1.86,4.35-7.9,3.81Z" transform="translate(-51.92 -115.95)"/><path class="cls-2" d="M440.51,254.23a10.1,10.1,0,0,0,8.49,0c3.25-1.33,7-1.82,7.72-1.13s.69,3.93,3.73,5.1c0,0-.67,6.15,1.8,6.11s1.64-9.69,1.64-9.69l-5.79-3.38-6.46-1.73-6.25.41-4.88,1Z" transform="translate(-51.92 -115.95)"/><path class="cls-8" d="M461.91,262.31c.1,0,4.15-1.23,4,2.91s-4.25,3.15-4.26,3S461.91,262.31,461.91,262.31Z" transform="translate(-51.92 -115.95)"/><path class="cls-9" d="M463,266.72s.07.06.19.12a.71.71,0,0,0,.53,0,1.74,1.74,0,0,0,.88-1.57,2.5,2.5,0,0,0-.17-1,.85.85,0,0,0-.52-.57.37.37,0,0,0-.43.19c-.06.11,0,.19-.06.2s-.09-.07-.05-.24a.43.43,0,0,1,.17-.25.54.54,0,0,1,.4-.1,1,1,0,0,1,.73.67,2.43,2.43,0,0,1,.22,1.16,1.88,1.88,0,0,1-1.11,1.75.79.79,0,0,1-.66-.13C463,266.82,463,266.73,463,266.72Z" transform="translate(-51.92 -115.95)"/><path class="cls-2" d="M453.48,252.18a8.69,8.69,0,0,0,9.17,8.21,16.15,16.15,0,0,0-2.53-6.57c-1.45-1.88-4-3.12-6.24-2.34" transform="translate(-51.92 -115.95)"/><polygon class="cls-10" points="356.43 346.94 357.76 361.51 372.83 363.13 372.83 345.25 356.43 346.94"/><polygon class="cls-3" points="357.02 353.32 372.83 353.32 372.83 355.06 357.21 355.45 357.02 353.32"/><polygon class="cls-3" points="357.33 356.71 357.5 358.65 372.83 358.57 372.83 356.62 357.33 356.71"/><polygon class="cls-3" points="357.76 361.51 357.66 360.38 372.83 360.11 372.82 361.21 357.76 361.51"/><path class="cls-5" d="M409.7,479l-.06-1.63,15.3-.57.24,5.36-.94.09c-4.2.4-21.35,1.74-24.19,1C396.87,482.44,409.7,479,409.7,479Z" transform="translate(-51.92 -115.95)"/><g class="cls-11"><path class="cls-4" d="M419.65,482.27a5.28,5.28,0,0,1,1.82-3.32A5.15,5.15,0,0,1,425,477.7l.18,4.26Z" transform="translate(-51.92 -115.95)"/></g><g class="cls-11"><path class="cls-4" d="M403.44,480.92s-4.48,1.49-3.89,2.21,18,0,25.63-.95l0-.34-20.27,1S404.33,480.92,403.44,480.92Z" transform="translate(-51.92 -115.95)"/></g><path class="cls-2" d="M425.38,481.82l-.26,0-.75.07-2.76.23c-2.34.18-5.57.38-9.14.53s-6.8.21-9.14.22h-2.78l-.75,0h-.26a.76.76,0,0,1,.26,0l.75,0,2.78-.06c2.34,0,5.57-.13,9.14-.27s6.79-.33,9.13-.48l2.76-.17.76,0Z" transform="translate(-51.92 -115.95)"/><path class="cls-2" d="M404.88,483.06a6.82,6.82,0,0,0-.57-1.3,6,6,0,0,0-1-1,2.47,2.47,0,0,1,1.56,2.32Z" transform="translate(-51.92 -115.95)"/><path class="cls-2" d="M409.28,480.6s-.27-.22-.5-.56-.4-.65-.35-.67.26.22.5.56S409.32,480.57,409.28,480.6Z" transform="translate(-51.92 -115.95)"/><path class="cls-2" d="M410.49,479.9s-.28-.11-.55-.34-.47-.44-.44-.48.28.12.56.34S410.52,479.86,410.49,479.9Z" transform="translate(-51.92 -115.95)"/><path class="cls-2" d="M411.21,478.43a1.8,1.8,0,0,1-.79.13,1.69,1.69,0,0,1-.8-.05,1.8,1.8,0,0,1,.79-.13A1.86,1.86,0,0,1,411.21,478.43Z" transform="translate(-51.92 -115.95)"/><path class="cls-2" d="M411.44,477.41a1.61,1.61,0,0,1-.88.29,1.52,1.52,0,0,1-.92-.09,4.83,4.83,0,0,1,.9-.09A4.44,4.44,0,0,1,411.44,477.41Z" transform="translate(-51.92 -115.95)"/><path class="cls-2" d="M408.71,479.29a3,3,0,0,1-1,0,7.15,7.15,0,0,1-1.05-.19,2.76,2.76,0,0,1-.6-.22.56.56,0,0,1-.26-.3.4.4,0,0,1,.13-.39,1.78,1.78,0,0,1,2.24.43,1.72,1.72,0,0,1,.35.64c0,.17,0,.26,0,.26a3.31,3.31,0,0,0-.48-.81,1.71,1.71,0,0,0-.86-.51,1.51,1.51,0,0,0-1.16.12c-.16.13-.09.31.09.4a2.69,2.69,0,0,0,.56.21,5.81,5.81,0,0,0,1,.23C408.34,479.28,408.71,479.26,408.71,479.29Z" transform="translate(-51.92 -115.95)"/><path class="cls-2" d="M408.46,479.35a1,1,0,0,1-.14-.67,1.61,1.61,0,0,1,.24-.73,1,1,0,0,1,.79-.53.39.39,0,0,1,.32.44,1,1,0,0,1-.15.44,2.82,2.82,0,0,1-.43.61c-.3.32-.54.44-.55.42s.19-.18.45-.5a3.06,3.06,0,0,0,.38-.61c.13-.21.21-.58,0-.62s-.49.24-.63.44a1.7,1.7,0,0,0-.25.65A3.26,3.26,0,0,0,408.46,479.35Z" transform="translate(-51.92 -115.95)"/><path class="cls-2" d="M424.9,477.66s-.44,0-1.12.09a4.75,4.75,0,0,0-3.86,3.34c-.21.66-.21,1.1-.25,1.1a.94.94,0,0,1,0-.31,4.14,4.14,0,0,1,.13-.83,4.63,4.63,0,0,1,4-3.43,4,4,0,0,1,.84,0A1,1,0,0,1,424.9,477.66Z" transform="translate(-51.92 -115.95)"/><path class="cls-2" d="M417.68,480.87a9.1,9.1,0,0,1-2.22.31,8.64,8.64,0,0,1-2.23-.09c0-.06,1,0,2.22-.1S417.67,480.81,417.68,480.87Z" transform="translate(-51.92 -115.95)"/><path class="cls-2" d="M420.66,480.74s-.07.22-.16.45-.14.44-.2.43-.08-.23,0-.5S420.63,480.71,420.66,480.74Z" transform="translate(-51.92 -115.95)"/><path class="cls-2" d="M421.73,479.3s-.05.19-.21.36-.3.27-.34.24.06-.2.21-.36S421.69,479.26,421.73,479.3Z" transform="translate(-51.92 -115.95)"/><path class="cls-2" d="M423.31,478.59c0,.06-.21.06-.43.15s-.37.21-.42.18.08-.25.36-.35S423.33,478.55,423.31,478.59Z" transform="translate(-51.92 -115.95)"/><path class="cls-2" d="M424.45,478.25s-.07.12-.19.18-.24.06-.26,0,.06-.13.19-.18S424.43,478.2,424.45,478.25Z" transform="translate(-51.92 -115.95)"/><polygon class="cls-3" points="356.81 351.02 356.89 351.9 372.83 351.68 372.83 350.63 356.81 351.02"/><polygon class="cls-10" points="318.29 311.83 312.87 325.41 325.57 333.69 333.68 317.76 318.29 311.83"/><polygon class="cls-3" points="315.92 317.77 330.01 324.95 329.22 326.5 315.12 319.76 315.92 317.77"/><polygon class="cls-3" points="314.65 320.94 313.93 322.75 327.63 329.63 328.52 327.89 314.65 320.94"/><polygon class="cls-3" points="312.87 325.41 313.29 324.36 326.93 331.01 326.42 331.97 312.87 325.41"/><path class="cls-5" d="M364.1,442.76l.68-1.47,13.9,6.43-2.22,4.88-.88-.34c-3.92-1.55-19.82-8.14-22-10.09C351.11,440,364.1,442.76,364.1,442.76Z" transform="translate(-51.92 -115.95)"/><g class="cls-11"><path class="cls-4" d="M371.49,450.18a5.31,5.31,0,0,1,3.12-2.14,5.16,5.16,0,0,1,3.7.48l-1.77,3.87Z" transform="translate(-51.92 -115.95)"/></g><g class="cls-11"><path class="cls-4" d="M357.66,441.62s-4.67-.71-4.47.21,16,8.18,23.27,10.77l.12-.32L358.06,444S358.45,442,357.66,441.62Z" transform="translate(-51.92 -115.95)"/></g><path class="cls-2" d="M376.8,452.37l-.25-.08-.7-.28-2.57-1c-2.16-.9-5.13-2.19-8.38-3.68s-6.16-2.9-8.25-4l-2.47-1.26-.66-.35a2,2,0,0,1-.23-.14l.24.1.68.33,2.5,1.21c2.11,1,5,2.41,8.27,3.9s6.2,2.79,8.35,3.72l2.55,1.1.68.3A1,1,0,0,1,376.8,452.37Z" transform="translate(-51.92 -115.95)"/><path class="cls-2" d="M358,444.18a6.88,6.88,0,0,0,.08-1.42,6.51,6.51,0,0,0-.42-1.36,2.05,2.05,0,0,1,.6,1.34A2.08,2.08,0,0,1,358,444.18Z" transform="translate(-51.92 -115.95)"/><path class="cls-2" d="M363,444c-.05,0-.14-.32-.2-.73a1.67,1.67,0,0,1,0-.75c.05,0,.14.32.2.73A1.67,1.67,0,0,1,363,444Z" transform="translate(-51.92 -115.95)"/><path class="cls-2" d="M364.4,443.91s-.2-.23-.34-.55a1.31,1.31,0,0,1-.17-.63c.05,0,.2.23.34.55S364.45,443.89,364.4,443.91Z" transform="translate(-51.92 -115.95)"/><path class="cls-2" d="M365.71,442.93a2.17,2.17,0,0,1-.77-.24,1.93,1.93,0,0,1-.69-.41s.37.06.77.24S365.73,442.88,365.71,442.93Z" transform="translate(-51.92 -115.95)"/><path class="cls-2" d="M366.38,442.12a1.69,1.69,0,0,1-.92-.14,1.66,1.66,0,0,1-.78-.49,4.54,4.54,0,0,1,.85.32A4.28,4.28,0,0,1,366.38,442.12Z" transform="translate(-51.92 -115.95)"/><path class="cls-2" d="M363.09,442.56a3,3,0,0,1-.89-.41,6,6,0,0,1-.85-.65,3.37,3.37,0,0,1-.44-.47.53.53,0,0,1-.09-.38.36.36,0,0,1,.3-.29,1.81,1.81,0,0,1,1.8,1.4,1.63,1.63,0,0,1,0,.73.55.55,0,0,1-.08.25,2.83,2.83,0,0,0-.06-.94,1.83,1.83,0,0,0-.53-.85,1.48,1.48,0,0,0-1.1-.41c-.19,0-.21.23-.09.39a2.43,2.43,0,0,0,.4.45,6.2,6.2,0,0,0,.81.66C362.76,442.38,363.1,442.53,363.09,442.56Z" transform="translate(-51.92 -115.95)"/><path class="cls-2" d="M362.84,442.5a1,1,0,0,1,.18-.67,1.73,1.73,0,0,1,.54-.54,1,1,0,0,1,.95-.11.39.39,0,0,1,.09.54,1.06,1.06,0,0,1-.34.33,2.77,2.77,0,0,1-.66.34,1.41,1.41,0,0,1-.68.13s.25-.08.63-.25a3.11,3.11,0,0,0,.61-.36c.21-.13.45-.43.25-.58a.91.91,0,0,0-.76.11,1.6,1.6,0,0,0-.52.47A3.91,3.91,0,0,0,362.84,442.5Z" transform="translate(-51.92 -115.95)"/><path class="cls-2" d="M378.26,448.45s-.38-.22-1-.43a4.91,4.91,0,0,0-2.66-.11,5.05,5.05,0,0,0-2.3,1.33c-.48.5-.68.89-.71.87a1,1,0,0,1,.12-.28,4.35,4.35,0,0,1,.5-.68,4.58,4.58,0,0,1,5.84-.89A1.11,1.11,0,0,1,378.26,448.45Z" transform="translate(-51.92 -115.95)"/><path class="cls-2" d="M370.37,448a8.32,8.32,0,0,1-2.12-.73,8.69,8.69,0,0,1-1.95-1.09s.91.42,2,.92S370.38,448,370.37,448Z" transform="translate(-51.92 -115.95)"/><path class="cls-2" d="M373.08,449.27c0,.05-.16.16-.35.33s-.32.32-.37.3,0-.26.25-.44S373.07,449.23,373.08,449.27Z" transform="translate(-51.92 -115.95)"/><path class="cls-2" d="M374.69,448.47s-.14.15-.35.23-.39.1-.41.06.14-.15.35-.23S374.67,448.42,374.69,448.47Z" transform="translate(-51.92 -115.95)"/><path class="cls-2" d="M376.42,448.56s-.21,0-.45-.07-.43,0-.45,0,.18-.19.47-.16S376.45,448.52,376.42,448.56Z" transform="translate(-51.92 -115.95)"/><path class="cls-2" d="M377.59,448.76c0,.06-.12.09-.25.08s-.24,0-.24-.11.11-.08.25-.07S377.59,448.71,377.59,448.76Z" transform="translate(-51.92 -115.95)"/><polygon class="cls-3" points="316.77 315.63 316.44 316.45 330.76 323.49 331.24 322.55 316.77 315.63"/><path class="cls-2" d="M475.27,364.33S408.48,345.5,402,348.11s-40.92,80.1-40.92,80.1L384,439.08l31.55-66.14s44.69,24.65,53.47,17.32C479.66,381.37,475.41,361.3,475.27,364.33Z" transform="translate(-51.92 -115.95)"/><path class="cls-2" d="M467.73,365.32c-1,.27-55.09,0-64.15,10.69-3.65,4.31-1.23,91.12-1.23,91.12l23.69-.58.65-75,38.55,0a3.65,3.65,0,0,0,3.65-3.84Z" transform="translate(-51.92 -115.95)"/><path class="cls-3" d="M467.57,387.71a2,2,0,0,1-.57-.09l-1.59-.37-5.84-1.43c-4.92-1.24-11.72-3-19.12-5.29-3.69-1.18-7.18-2.42-10.31-3.64-7-2.78-.24.31-8.18-3.56-2.29-1.11-4.11-2.07-5.34-2.79l-1.41-.82a1.83,1.83,0,0,1-.47-.32,3.74,3.74,0,0,1,.52.23l1.46.74c1.25.66,3.09,1.57,5.39,2.63s5.08,2.24,8.2,3.46,6.61,2.41,10.3,3.58c7.37,2.32,14.16,4.1,19.05,5.43l5.8,1.59,1.57.46A2.43,2.43,0,0,1,467.57,387.71Z" transform="translate(-51.92 -115.95)"/><path class="cls-3" d="M414.54,369.2a9.51,9.51,0,0,1-1.59.06,19.34,19.34,0,0,0-4.25.45,7.37,7.37,0,0,0-4.92,3.51c-1.12,2.09-1.2,4.8-1.22,7.56-.08,5.57-.18,10.61-.28,14.27-.06,1.75-.11,3.2-.15,4.32A9.57,9.57,0,0,1,402,401a9,9,0,0,1-.08-1.59c0-1.11,0-2.56,0-4.32,0-3.65,0-8.7.12-14.27,0-2.76.11-5.56,1.33-7.78a6.73,6.73,0,0,1,2.43-2.53,9.33,9.33,0,0,1,2.82-1.11,17,17,0,0,1,4.34-.29A8.13,8.13,0,0,1,414.54,369.2Z" transform="translate(-51.92 -115.95)"/><path class="cls-3" d="M407.49,269.73c.29.4,10.55,29.16,10.55,29.16l-16.63,3.33-9.19-23.42Z" transform="translate(-51.92 -115.95)"/><polygon class="cls-2" points="366.12 182.94 367.58 182.05 356.97 152.92 355.4 153.88 366.12 182.94"/><path class="cls-2" d="M401,277.94a.72.72,0,0,1-.5.88.71.71,0,0,1-.87-.5.7.7,0,0,1,.49-.87A.71.71,0,0,1,401,277.94Z" transform="translate(-51.92 -115.95)"/><path class="cls-8" d="M426.47,304.24l-15.89,15.59L400.8,296h0l-.23-1.28,6.24-5-3.72-4.58a4.74,4.74,0,0,0-7-.32l-1.9,1.89a6.69,6.69,0,0,0-2,5.11c.16,3.29.49,6.8.48,6.49h0l5.6,32.93a11.85,11.85,0,0,0,7.4,10.32c5.64,2.33,11.76-5.07,15-7.88l20.9-19Z" transform="translate(-51.92 -115.95)"/><path class="cls-5" d="M491,321.09l-20.11,3.13-.48-1.2,6.38,43.15L427.59,352,429,326.7l-16.75-12.08L425.09,295a22.62,22.62,0,0,1,15.12-9c1.78-.24,3.12-.36,4-.47a25.7,25.7,0,0,0,15.5,0h0a23.09,23.09,0,0,1,6.42,1.23c1.52.52,3,.93,4.37,1.33A17.74,17.74,0,0,1,482,298.59Z" transform="translate(-51.92 -115.95)"/><path class="cls-8" d="M431,369.91c-.17-2,8.14-3.12,8.84-3.26s.51-1.16-.11-1c-.9.24-10.35,2.51-10.53.54-.11-1.09,1.87-1.09,1.87-1.09s9-1.47,8.88-2.4-5.43-.25-7.21.11-2.64-.34-2.15-1.25c.34-.61,5.75-1.84,7.51-2.15s6.62-1.09,3.92-2.65-4.19-3.79-4.18-4.67a1,1,0,0,1,1.81-.39,11.23,11.23,0,0,0,2.37,2.07,7.6,7.6,0,0,0,2.28,1.09c1,.27,1.77.46,2.47.6,4.72-1.49,17.87-6.15,27.17-14.51,1.68-1.51-2.74-17-2.74-17l17.94-2.37,2.56,15.26c3.49,20.76-43,31.19-43,31.19v0a92.07,92.07,0,0,1-9.3,3.83c-4.45,1.35-4.58,1-4.65.41-.18-1.46,7.74-2.67,5.89-3.4S431.11,371.45,431,369.91Z" transform="translate(-51.92 -115.95)"/><path class="cls-2" d="M428.76,328.43a17.73,17.73,0,0,1-.16-3.16c0-1.95,0-4.64.1-7.61s.19-5.51.26-7.61a21.85,21.85,0,0,1,.21-3.15,17.73,17.73,0,0,1,.16,3.16c0,1.95,0,4.64-.11,7.61s-.18,5.5-.25,7.61A22,22,0,0,1,428.76,328.43Z" transform="translate(-51.92 -115.95)"/><path class="cls-2" d="M491,321.09a2.14,2.14,0,0,1-.46.11l-1.36.24-5.06.8-7.67,1.15c-1.47.21-3,.46-4.62.67l-5.05.6-.25,0,0-.26c-.26-2.25-.47-4.6-.8-7-.55-4.32-1.08-8.44-1.55-12.2a26.64,26.64,0,0,1,.11-10.05c.73-2.77,1.78-4.95,3-6.06a4.61,4.61,0,0,1,1.56-1,2.45,2.45,0,0,1,.62-.15,5.5,5.5,0,0,0-2,1.31,13.52,13.52,0,0,0-2.78,6,27.16,27.16,0,0,0,0,9.91c.49,3.75,1,7.86,1.59,12.18.34,2.42.54,4.81.79,7.06l-.28-.23,5.05-.57,4.62-.63,7.69-1,5.08-.65,1.37-.15A1.52,1.52,0,0,1,491,321.09Z" transform="translate(-51.92 -115.95)"/><path class="cls-12" d="M463.93,299.93s-2.26,27.16,0,27.7,4.28.8,4.28.8,4.32,13.4,4.27,13-1.61-17.23-1.61-17.23l-4.14.18Z" transform="translate(-51.92 -115.95)"/><polygon class="cls-12" points="376.84 193.49 372.89 207.72 377.11 210.75 376.84 193.49"/><path class="cls-7" d="M585.8,239.55c7.26-17,2.85-34.67-9.09-48.75a51.11,51.11,0,0,0-50-16.22,55.92,55.92,0,0,0-110.91,7.21,41.86,41.86,0,0,0-32,56.8Z" transform="translate(-51.92 -115.95)"/><path class="cls-4" d="M501.56,196.18c-.37,0-.17-3.38-2.22-8.19a23.94,23.94,0,0,0-5.06-7.44,23.47,23.47,0,0,0-9.36-5.6,23.06,23.06,0,0,0-19.26,2.74c-4.35,2.88-6.14,5.78-6.41,5.56-.09-.06.23-.85,1.11-2.08a21.14,21.14,0,0,1,4.55-4.56,22.9,22.9,0,0,1,8.77-3.94,23.46,23.46,0,0,1,21.83,6.67,23.43,23.43,0,0,1,5.06,8.17,21.42,21.42,0,0,1,1.24,6.32C501.77,195.36,501.69,196.18,501.56,196.18Z" transform="translate(-51.92 -115.95)"/><path class="cls-4" d="M490.52,188c.31-.41,5.43,3,11.43,7.52l.34.26-1.45.43c2.44-6.94,4.77-12.35,5.25-12.19s-1.08,5.86-3.49,12.81l-.42,1.21-1-.78-.34-.25C494.82,192.42,490.21,188.39,490.52,188Z" transform="translate(-51.92 -115.95)"/><path class="cls-4" d="M458,192.35c.38,0-.23,3.28,1.15,8.16a23.62,23.62,0,0,0,3.87,7.83,22.52,22.52,0,0,0,8.18,6.75,25.29,25.29,0,0,0,2.58,1.1c.89.25,1.75.55,2.63.72a23.51,23.51,0,0,0,5.13.52,23.1,23.1,0,0,0,8.56-1.73,26.18,26.18,0,0,0,5.25-2.89c1.18-.81,1.8-1.32,1.91-1.21s-.38.76-1.45,1.78a20.39,20.39,0,0,1-5.17,3.52,22.42,22.42,0,0,1-9.06,2.25,23.54,23.54,0,0,1-5.54-.45c-1-.18-1.9-.49-2.86-.76a26.09,26.09,0,0,1-2.81-1.17,23.27,23.27,0,0,1-8.73-7.41,22.85,22.85,0,0,1-4.24-12.09c0-1.05,0-2,.08-2.69C457.67,193.12,457.85,192.33,458,192.35Z" transform="translate(-51.92 -115.95)"/><path class="cls-4" d="M467.94,201.84c-.36.37-5-3.6-10.43-8.86-.1-.11-.21-.21-.3-.3l1.49-.25c-3.27,6.58-6.24,11.68-6.7,11.45s1.78-5.68,5-12.28l.57-1.15.92.9.3.29C464.21,196.9,468.3,201.47,467.94,201.84Z" transform="translate(-51.92 -115.95)"/></svg>