<svg id="Layer_1" data-name="Layer 1" xmlns="http://www.w3.org/2000/svg" xmlns:xlink="http://www.w3.org/1999/xlink" viewBox="0 0 526.16 396.73"><defs><style>.cls-1,.cls-12{fill:#092138;}.cls-1{opacity:0.14;}.cls-2{fill:#d4ecff;}.cls-3{fill:#173d7a;}.cls-4{fill:url(#Áåçûìÿííûé_ãðàäèåíò_3);}.cls-5{fill:url(#Áåçûìÿííûé_ãðàäèåíò_3-2);}.cls-6{fill:url(#Áåçûìÿííûé_ãðàäèåíò_3-3);}.cls-7{fill:url(#Áåçûìÿííûé_ãðàäèåíò_3-4);}.cls-8{fill:#fff;}.cls-9{fill:url(#Áåçûìÿííûé_ãðàäèåíò_3-5);}.cls-10{fill:#ff2c9c;}.cls-11{fill:#4F81BD;}.cls-12{opacity:0.2;}.cls-13{fill:url(#Áåçûìÿííûé_ãðàäèåíò_24);}.cls-14{fill:url(#Áåçûìÿííûé_ãðàäèåíò_24-2);}.cls-15{fill:url(#Áåçûìÿííûé_ãðàäèåíò_3-6);}.cls-16{fill:#f9efea;}.cls-17{fill:#5793ce;}.cls-18{fill:#c06b39;}.cls-19{fill:#da7539;}.cls-20{fill:#396caa;}.cls-21{fill:#a66039;}.cls-22{fill:#f7caaf;}</style><linearGradient id="Áåçûìÿííûé_ãðàäèåíò_3" x1="509.31" y1="392.39" x2="618.67" y2="319.74" gradientUnits="userSpaceOnUse"><stop offset="0" stop-color="#c0bff6"/><stop offset="0.29" stop-color="#c5c4f7"/><stop offset="0.64" stop-color="#d3d2f9"/><stop offset="1" stop-color="#e9e9fd"/></linearGradient><linearGradient id="Áåçûìÿííûé_ãðàäèåíò_3-2" x1="462.95" y1="253.88" x2="572.31" y2="181.24" xlink:href="#Áåçûìÿííûé_ãðàäèåíò_3"/><linearGradient id="Áåçûìÿííûé_ãðàäèåíò_3-3" x1="504.39" y1="384.98" x2="613.76" y2="312.34" gradientTransform="translate(286.96 -135.29) rotate(30.45)" xlink:href="#Áåçûìÿííûé_ãðàäèåíò_3"/><linearGradient id="Áåçûìÿííûé_ãðàäèåíò_3-4" x1="502.51" y1="382.15" x2="611.88" y2="309.51" xlink:href="#Áåçûìÿííûé_ãðàäèåíò_3"/><linearGradient id="Áåçûìÿííûé_ãðàäèåíò_3-5" x1="506.25" y1="387.78" x2="615.61" y2="315.13" xlink:href="#Áåçûìÿííûé_ãðàäèåíò_3"/><linearGradient id="Áåçûìÿííûé_ãðàäèåíò_24" x1="84.81" y1="342.97" x2="553.81" y2="342.97" gradientUnits="userSpaceOnUse"><stop offset="0" stop-color="#5761d7"/><stop offset="0.18" stop-color="#5c66d9"/><stop offset="0.39" stop-color="#6a73df"/><stop offset="0.61" stop-color="#8289e8"/><stop offset="0.85" stop-color="#a3a7f5"/><stop offset="1" stop-color="#bcbeff"/></linearGradient><linearGradient id="Áåçûìÿííûé_ãðàäèåíò_24-2" x1="245.09" y1="342.96" x2="553.81" y2="342.96" xlink:href="#Áåçûìÿííûé_ãðàäèåíò_24"/><linearGradient id="Áåçûìÿííûé_ãðàäèåíò_3-6" x1="84.86" y1="323.05" x2="553.81" y2="323.05" xlink:href="#Áåçûìÿííûé_ãðàäèåíò_3"/></defs><path class="cls-1" d="M550.2,400.42a17.22,17.22,0,0,0-15.57,0l-200.88,116c-4.3,2.48-4.3,6.51,0,9a17.22,17.22,0,0,0,15.57,0l200.88-116C554.5,406.93,554.5,402.9,550.2,400.42Z" transform="translate(-44.25 -135.32)"/><path class="cls-2" d="M570.3,354.81h0a.79.79,0,0,0-.85-.37l-10.94,2.37,4.31,7.33,7.4-8.41A.78.78,0,0,0,570.3,354.81Z" transform="translate(-44.25 -135.32)"/><path class="cls-3" d="M566,360.22a5.48,5.48,0,0,0-2.51-4.27,1.79,1.79,0,0,0-1.64-.2,69.76,69.76,0,0,0-36,9.63l-.79.46L538.67,389l4-2.66a70,70,0,0,0,21-21.74l1.72-2.81A1.79,1.79,0,0,0,566,360.22Z" transform="translate(-44.25 -135.32)"/><path class="cls-4" d="M541.4,382.8c0-6.05-4.35-13.36-9.61-16.35s-9.49-.49-9.44,5.55,4.35,13.36,9.61,16.34S541.44,388.84,541.4,382.8Z" transform="translate(-44.25 -135.32)"/><polygon class="cls-5" points="413.77 303.87 494.41 253.63 480.83 230.52 397.72 276.56 413.77 303.87"/><ellipse class="cls-2" cx="450" cy="425.54" rx="9.15" ry="15.84" transform="translate(-197.84 151.41) rotate(-30.45)"/><ellipse class="cls-2" cx="445.4" cy="428.24" rx="9.15" ry="15.84" transform="translate(-199.84 149.45) rotate(-30.45)"/><rect class="cls-6" x="330.19" y="443.75" width="123.75" height="31.68" transform="translate(-223.08 126.73) rotate(-30.45)"/><path class="cls-7" d="M350,497.33c-.05-7.14-5.14-15.79-11.35-19.31s-11.21-.59-11.15,6.55,5.14,15.79,11.35,19.31S350,504.47,350,497.33Z" transform="translate(-44.25 -135.32)"/><ellipse class="cls-3" cx="338.72" cy="490.95" rx="5.37" ry="9.93" transform="translate(-266.46 152.83) rotate(-35.52)"/><path class="cls-8" d="M462.06,431.44c-.05-7.14-5.13-15.79-11.35-19.31-2.5-1.42-4.8-1.78-6.65-1.25,2-2.11,5.32-2.35,9.09-.22,6.21,3.52,11.29,12.17,11.35,19.31,0,4.27-1.74,7-4.49,7.8A8.82,8.82,0,0,0,462.06,431.44Z" transform="translate(-44.25 -135.32)"/><path class="cls-3" d="M462.06,431.44c-.05-7.14-5.13-15.79-11.35-19.31-3.11-1.76-5.91-1.91-7.92-.73L436.74,415l2.88,4.9a25.29,25.29,0,0,0,10.3,17.51l2.88,4.9,6-3.55h0C460.86,437.53,462.09,435,462.06,431.44Z" transform="translate(-44.25 -135.32)"/><path class="cls-9" d="M456,435c-.06-7.14-5.14-15.79-11.35-19.31s-11.21-.59-11.15,6.55,5.14,15.79,11.35,19.32S456.08,442.14,456,435Z" transform="translate(-44.25 -135.32)"/><path class="cls-10" d="M342.31,495.08a10.67,10.67,0,0,0-4.89-8.34c-2.69-1.52-4.84-.25-4.82,2.83a10.7,10.7,0,0,0,4.9,8.33C340.18,499.42,342.34,498.16,342.31,495.08Z" transform="translate(-44.25 -135.32)"/><path class="cls-11" d="M342.31,495.08a10.67,10.67,0,0,0-4.89-8.34,3.4,3.4,0,0,0-3.42-.31l-22.62,13.29a6.84,6.84,0,0,0,6.93,11.79l22.61-13.29h0A3.39,3.39,0,0,0,342.31,495.08Z" transform="translate(-44.25 -135.32)"/><path class="cls-3" d="M367.45,453.48l-3.39-1.92c-1.95-1.11-4.53-.83-7.26.77l-11.62,6.83a8.86,8.86,0,0,0-3.94,6.95l.05,5.82a4.84,4.84,0,0,1-1.17,2.92l.43,2.7-2.89-1.66h0a1.49,1.49,0,0,1-.69-1.41l-.05-5.82c0-5.3,3.65-11.81,8.22-14.49l11.62-6.83c3.89-2.29,7.55-2.68,10.32-1.11l3.39,1.93c1.95,1.1,4.52.82,7.25-.78l46.84-27.53a1.49,1.49,0,0,1,1.55-.15h0l2.89,1.66-2.47,1a4.79,4.79,0,0,1-1.93,2.55l-46.84,27.54C373.88,454.66,370.22,455.05,367.45,453.48Z" transform="translate(-44.25 -135.32)"/><path class="cls-3" d="M367,453.24c-1.95-1.11-4.52-.83-7.25.77l-11.62,6.83a8.83,8.83,0,0,0-3.94,7l0,5.82a4.8,4.8,0,0,1-2.14,3.77c-1.19.7-2.16.15-2.18-1.23l0-5.82c0-5.3,3.65-11.81,8.22-14.49L359.7,449c3.88-2.29,7.54-2.68,10.32-1.11l3.38,1.93c2,1.1,4.53.82,7.26-.78l46.84-27.53c1.19-.7,2.16-.15,2.17,1.23a4.76,4.76,0,0,1-2.13,3.77L380.7,454.06c-3.89,2.28-7.55,2.67-10.32,1.1Z" transform="translate(-44.25 -135.32)"/><path class="cls-8" d="M344,468.75l.05,5.82s0,.08,0,.12a4.16,4.16,0,0,0,.16-1.08l0-5.82a4.32,4.32,0,0,1,0-.5A6.78,6.78,0,0,0,344,468.75Z" transform="translate(-44.25 -135.32)"/><path class="cls-12" d="M536.83,326.61l-131.2-76c-7.13-4.13-19.59-3.63-27.83,1.11L102.44,410.22c-8.24,4.74-9.15,11.93-2,16.06l131.2,76c7.13,4.13,19.59,3.63,27.83-1.12L534.81,342.68C543.05,337.93,544,330.74,536.83,326.61Z" transform="translate(-44.25 -135.32)"/><path class="cls-13" d="M227.81,474.44,91.26,395.36c-4.48-2.59-6.57-6.1-6.42-9.74h0l0-19.81,7.59,8.89c.5-.32,1-.65,1.53-1L373.31,213c11.09-6.38,27.85-7.05,37.44-1.5l134.62,78c2.73-3,8.44-9.28,8.44-9.28l-.06,19.38h0c.2,4.37-2.91,9-9.17,12.62L265.25,472.94C254.16,479.32,237.4,480,227.81,474.44Z" transform="translate(-44.25 -135.32)"/><path class="cls-3" d="M154,425.93l7.87,4.54c1,.6,1.89,0,1.89-1.43h0a4.57,4.57,0,0,0-1.89-3.62L154,420.88c-1-.6-1.89,0-1.89,1.43h0A4.55,4.55,0,0,0,154,425.93Z" transform="translate(-44.25 -135.32)"/><path class="cls-14" d="M373.31,213c11.09-6.38,27.85-7.05,37.44-1.5l134.62,78c2.73-3,8.44-9.28,8.44-9.28l-.06,19.38h0c.21,4.37-2.91,9-9.17,12.62L265.25,472.94a43.22,43.22,0,0,1-20.16,5.23l.26-191.53Z" transform="translate(-44.25 -135.32)"/><path class="cls-15" d="M547.35,270.65,410.8,191.58c-9.58-5.55-26.35-4.88-37.44,1.5L94,353.83c-11.09,6.39-12.31,16.06-2.72,21.61l136.54,79.08c9.59,5.55,26.36,4.88,37.44-1.5L544.63,292.26C555.72,285.88,556.94,276.21,547.35,270.65Z" transform="translate(-44.25 -135.32)"/><path class="cls-8" d="M227.76,456.63,91.22,377.56c-5-2.86-7-6.83-6.32-10.87.24,3.29,2.34,6.39,6.42,8.75l136.54,79.08c9.59,5.55,26.35,4.88,37.44-1.5L544.63,292.26c5.37-3.09,8.4-6.95,9-10.74.32,4.43-2.77,9.19-9.14,12.86L265.2,455.13C254.11,461.51,237.35,462.18,227.76,456.63Z" transform="translate(-44.25 -135.32)"/><path class="cls-3" d="M536.83,273.77l-131.2-76c-7.13-4.13-19.59-3.63-27.83,1.12L102.44,357.37c-8.24,4.75-9.15,11.94-2,16.07l131.2,76c7.13,4.12,19.59,3.62,27.83-1.12L534.81,289.83C543.05,285.09,544,277.9,536.83,273.77Z" transform="translate(-44.25 -135.32)"/><polygon class="cls-16" points="220.42 274.63 127.84 221.18 133.75 217.77 226.33 271.22 220.42 274.63"/><polygon class="cls-16" points="156 259.05 109.12 231.98 115.03 228.57 161.91 255.63 156 259.05"/><polygon class="cls-11" points="178.75 272.18 163.55 263.4 169.46 259.99 184.66 268.77 178.75 272.18"/><polygon class="cls-8" points="201.71 285.44 186.5 276.66 192.41 273.25 207.62 282.02 201.71 285.44"/><polygon class="cls-8" points="156.53 248.55 118.48 226.58 124.39 223.17 162.44 245.13 156.53 248.55"/><polygon class="cls-16" points="202.97 275.36 164.92 253.39 170.83 249.98 208.88 271.95 202.97 275.36"/><path class="cls-11" d="M219.06,363.73a7.63,7.63,0,0,1-6.9,0c-1.9-1.1-1.9-2.88,0-4a7.63,7.63,0,0,1,6.9,0C221,360.85,221,362.63,219.06,363.73Z" transform="translate(-44.25 -135.32)"/><path class="cls-8" d="M229.36,369.68a7.69,7.69,0,0,1-6.9,0c-1.9-1.1-1.9-2.89,0-4a7.69,7.69,0,0,1,6.9,0C231.26,366.79,231.26,368.58,229.36,369.68Z" transform="translate(-44.25 -135.32)"/><path class="cls-2" d="M239.66,375.62a7.63,7.63,0,0,1-6.9,0c-1.9-1.1-1.9-2.88,0-4a7.63,7.63,0,0,1,6.9,0C241.56,372.74,241.56,374.52,239.66,375.62Z" transform="translate(-44.25 -135.32)"/><path class="cls-11" d="M250,381.57a7.61,7.61,0,0,1-6.89,0c-1.91-1.1-1.91-2.88,0-4a7.61,7.61,0,0,1,6.89,0C251.86,378.69,251.86,380.47,250,381.57Z" transform="translate(-44.25 -135.32)"/><path class="cls-8" d="M260.26,387.52a7.61,7.61,0,0,1-6.89,0c-1.91-1.1-1.91-2.88,0-4a7.61,7.61,0,0,1,6.89,0C262.17,384.64,262.17,386.42,260.26,387.52Z" transform="translate(-44.25 -135.32)"/><polygon class="cls-11" points="423.07 139.03 407.49 130.03 413.55 126.53 429.13 135.53 423.07 139.03"/><polygon class="cls-8" points="444.78 151.56 429.19 142.56 435.25 139.06 450.84 148.06 444.78 151.56"/><polygon class="cls-8" points="353.45 98.45 337.86 89.45 343.92 85.96 359.5 94.96 353.45 98.45"/><polygon class="cls-8" points="419.6 148.1 397.89 135.57 403.95 132.07 425.66 144.6 419.6 148.1"/><polygon class="cls-16" points="435.19 157.1 425.66 151.6 431.72 148.1 441.25 153.6 435.19 157.1"/><polygon class="cls-17" points="299.46 136.74 287.96 130.1 291.5 128.06 303 134.7 299.46 136.74"/><polygon class="cls-17" points="336.6 151.04 294.15 126.53 297.69 124.49 340.13 148.99 336.6 151.04"/><polygon class="cls-17" points="357.82 163.29 341.9 154.1 345.44 152.06 361.36 161.25 357.82 163.29"/><polygon class="cls-17" points="326.87 152.57 303.88 139.29 307.42 137.25 330.41 150.53 326.87 152.57"/><path class="cls-8" d="M418.88,318.13l-15.24-8.8,15.23-8.79,15.24,8.79Zm-9.53-8.8,9.53,5.5,9.52-5.5-9.53-5.5Z" transform="translate(-44.25 -135.32)"/><polygon class="cls-17" points="279.12 148.48 267.63 141.85 271.16 139.81 282.66 146.44 279.12 148.48"/><polygon class="cls-17" points="292.39 147.97 274.7 137.76 278.24 135.72 295.92 145.93 292.39 147.97"/><polygon class="cls-17" points="321.57 164.82 297.69 151.04 301.23 148.99 325.1 162.78 321.57 164.82"/><polygon class="cls-17" points="322.45 173.5 283.54 151.04 287.08 148.99 325.99 171.46 322.45 173.5"/><path class="cls-8" d="M398.54,329.87l-15.23-8.79,15.23-8.8,15.23,8.8ZM389,321.08l9.53,5.5,9.53-5.5-9.53-5.51Z" transform="translate(-44.25 -135.32)"/><polygon class="cls-17" points="275.59 168.9 248.17 153.08 251.71 151.04 279.12 166.86 275.59 168.9"/><polygon class="cls-17" points="267.63 157.16 254.36 149.5 257.9 147.46 271.17 155.12 267.63 157.16"/><polygon class="cls-17" points="294.15 172.48 272.93 160.22 276.47 158.18 297.69 170.44 294.15 172.48"/><polygon class="cls-17" points="312.72 183.2 298.58 175.03 302.11 172.99 316.26 181.16 312.72 183.2"/><polygon class="cls-17" points="303 184.73 280.01 171.46 283.54 169.41 306.54 182.69 303 184.73"/><path class="cls-8" d="M378.2,341.61,363,332.82,378.2,324l15.23,8.8Zm-9.53-8.79,9.53,5.5,9.53-5.5-9.53-5.51Z" transform="translate(-44.25 -135.32)"/><polygon class="cls-17" points="239.33 171.46 227.84 164.82 231.37 162.78 242.87 169.41 239.33 171.46"/><polygon class="cls-17" points="264.98 179.11 234.03 161.25 237.56 159.2 268.51 177.07 264.98 179.11"/><polygon class="cls-17" points="288.85 192.9 269.4 181.67 272.93 179.63 292.39 190.86 288.85 192.9"/><path class="cls-8" d="M357.86,353.35l-15.23-8.79,15.23-8.79,15.23,8.79Zm-9.52-8.79,9.52,5.5,9.53-5.5-9.53-5.5Z" transform="translate(-44.25 -135.32)"/><polygon class="cls-17" points="219 183.2 207.5 176.56 211.04 174.52 222.53 181.16 219 183.2"/><polygon class="cls-17" points="239.33 187.79 213.69 172.99 217.23 170.95 242.87 185.75 239.33 187.79"/><polygon class="cls-17" points="265.86 203.11 245.52 191.37 249.06 189.32 269.4 201.07 265.86 203.11"/><polygon class="cls-17" points="233.14 191.37 222.53 185.24 226.07 183.2 236.68 189.32 233.14 191.37"/><path class="cls-8" d="M337.53,365.09,322.3,356.3l15.23-8.79,15.23,8.79ZM328,356.3l9.53,5.5,9.53-5.5-9.53-5.5Z" transform="translate(-44.25 -135.32)"/><polygon class="cls-17" points="198.66 194.94 187.16 188.3 190.7 186.26 202.19 192.9 198.66 194.94"/><polygon class="cls-17" points="220.76 200.56 193.35 184.73 196.89 182.69 224.3 198.51 220.76 200.56"/><polygon class="cls-17" points="234.03 208.21 226.07 203.62 229.61 201.58 237.56 206.17 234.03 208.21"/><polygon class="cls-17" points="246.41 215.36 238.45 210.77 241.99 208.72 249.94 213.32 246.41 215.36"/><polygon class="cls-17" points="212.81 203.11 203.08 197.49 206.62 195.45 216.34 201.07 212.81 203.11"/><path class="cls-8" d="M318.07,376.32l-15.23-8.79,15.23-8.79,15.23,8.79Zm-9.52-8.79,9.52,5.5,9.53-5.5-9.53-5.5Z" transform="translate(-44.25 -135.32)"/><path class="cls-11" d="M321.21,369.16H332c1.56,0,2.82-.73,2.82-1.63s-1.26-1.63-2.82-1.63H321.2v-6.22c0-.9-1.26-1.63-2.82-1.63s-2.82.73-2.82,1.63v6.22H304.78c-1.55,0-2.82.73-2.82,1.63s1.27,1.63,2.82,1.63h10.78v6.22c0,.9,1.26,1.63,2.82,1.63s2.83-.73,2.83-1.63Z" transform="translate(-44.25 -135.32)"/><path class="cls-11" d="M362.07,345.68h10.78c1.56,0,2.82-.73,2.82-1.63s-1.26-1.63-2.82-1.63H362.07V336.2c0-.9-1.26-1.63-2.82-1.63s-2.82.73-2.82,1.63v6.22H345.65c-1.56,0-2.82.73-2.82,1.63s1.26,1.63,2.82,1.63h10.78v6.22c0,.9,1.26,1.63,2.82,1.63s2.82-.73,2.82-1.63Z" transform="translate(-44.25 -135.32)"/><path class="cls-11" d="M382.62,333.72H393.4c1.55,0,2.82-.73,2.82-1.63s-1.27-1.63-2.82-1.63H382.62v-6.22c0-.9-1.26-1.63-2.82-1.63s-2.82.73-2.82,1.62v6.23H366.2c-1.56,0-2.82.73-2.82,1.63s1.26,1.62,2.82,1.63H377v6.22c0,.9,1.26,1.63,2.82,1.63s2.82-.73,2.82-1.63Z" transform="translate(-44.25 -135.32)"/><path class="cls-18" d="M440.89,197.45l-21,.33a22.35,22.35,0,0,0-6.63-5.58c-11.55-6.67-29.71-7.18-42.29-1.55l-12.48-11.74-19.21.3c1-.62,1.92-1.23,3-1.83,26.7-15.41,70-15.41,96.7,0a51.16,51.16,0,0,1,12,9.36Z" transform="translate(-44.25 -135.32)"/><polygon class="cls-11" points="295.02 13.39 295.02 43.89 314.24 43.59 314.24 13.09 295.02 13.39"/><polygon class="cls-18" points="326.72 24.83 326.72 55.32 314.24 43.59 314.24 13.09 326.72 24.83"/><path class="cls-18" d="M419.89,167.28v30.5l-27.62-22.51L371,190.65v-30.5l19.61-9.51s27,8.26,28.4,8.61S419.89,167.28,419.89,167.28Z" transform="translate(-44.25 -135.32)"/><polygon class="cls-18" points="396.64 31.63 396.64 62.13 375.64 62.46 375.64 31.96 396.64 31.63"/><polygon class="cls-19" points="406.69 20.92 406.69 51.42 396.64 62.13 396.64 31.63 406.69 20.92"/><path class="cls-11" d="M440.89,167l-21,.32a22.19,22.19,0,0,0-6.63-5.57c-11.55-6.67-29.71-7.19-42.29-1.56l-12.48-11.74-19.21.3c1-.62,1.92-1.23,3-1.82,26.7-15.42,70-15.42,96.7,0a50.64,50.64,0,0,1,12,9.36Z" transform="translate(-44.25 -135.32)"/><path class="cls-17" d="M364.65,163.9v28l-18.18-4.36s1.06-16.4,1.45-16.84S364.65,163.9,364.65,163.9Z" transform="translate(-44.25 -135.32)"/><path class="cls-3" d="M378.4,191.94v30.49l-2,2.09-12.82-7.38s2-23.28,2.22-23.75S378.4,191.94,378.4,191.94Z" transform="translate(-44.25 -135.32)"/><path class="cls-20" d="M353.66,184.06l11,10.34c-9.16,7.24-8.08,17.45,3.25,24a38.92,38.92,0,0,0,10.5,4L367,234.53,377.11,244c-12.78-1.48-25-5.07-34.88-10.79-23-13.25-26.16-33.58-9.64-48.82Z" transform="translate(-44.25 -135.32)"/><polygon class="cls-20" points="332.85 78.18 332.85 108.68 307.93 99.05 277.96 70.46 278.07 38.08 309.78 63.21 332.85 78.18"/><path class="cls-2" d="M353.66,153.57l11,10.33c-9.16,7.24-8.08,17.46,3.25,24a39.25,39.25,0,0,0,10.5,4L367,204l10.07,9.46c-12.78-1.47-25-5.06-34.88-10.78-23-13.26-26.16-33.58-9.64-48.82Z" transform="translate(-44.25 -135.32)"/><path class="cls-20" d="M377.19,234.38l10-10.67c9.3.56,18.94-1.21,26.06-5.32,7.36-4.25,10.39-10,9.1-15.57l23.84-.37,9.17-9.77c8,13.76,2.55,29.57-16.44,40.53-14,8.06-32.44,11.89-50.72,11.53Z" transform="translate(-44.25 -135.32)"/><polygon class="cls-20" points="343.96 78.92 343.96 109.42 414.69 70.22 414.69 39.71 404.36 43.89 343.96 78.92"/><polygon class="cls-3" points="332.94 68.56 332.94 99.05 343.96 109.42 343.96 78.92 332.94 68.56"/><path class="cls-17" d="M377.19,203.88l10-10.67c9.3.57,18.94-1.2,26.06-5.32,7.36-4.24,10.39-10,9.1-15.57L446.2,172l9.17-9.77c8,13.76,2.55,29.57-16.44,40.53-14,8.06-32.44,11.9-50.72,11.54Z" transform="translate(-44.25 -135.32)"/><polygon class="cls-1" points="469.06 97.61 447.37 85.09 469.06 72.57 490.75 85.09 469.06 97.61"/><polygon class="cls-18" points="490.75 69.2 469.06 81.72 469.06 56.67 490.75 44.15 490.75 69.2"/><polygon class="cls-11" points="469.06 56.67 447.37 44.15 469.06 31.63 490.75 44.15 469.06 56.67"/><polygon class="cls-11" points="469.06 81.72 447.37 69.2 447.37 44.15 469.06 56.67 469.06 81.72"/><polygon class="cls-8" points="461.25 68.19 455.19 64.69 455.19 57.68 461.25 61.18 461.25 68.19"/><polygon class="cls-1" points="450.84 396.73 428.26 383.69 450.84 370.66 473.42 383.69 450.84 396.73"/><polygon class="cls-21" points="473.42 367.14 450.84 380.18 450.84 354.11 473.42 341.07 473.42 367.14"/><polygon class="cls-22" points="450.84 354.11 428.26 341.07 450.84 328.04 473.42 341.07 450.84 354.11"/><polygon class="cls-11" points="450.84 380.18 428.26 367.14 428.26 341.07 450.84 354.11 450.84 380.18"/><polygon class="cls-8" points="442.71 366.09 436.39 362.45 436.39 355.16 442.71 358.8 442.71 366.09"/><ellipse class="cls-1" cx="45.76" cy="358.88" rx="36.81" ry="21.25"/><path class="cls-11" d="M135.77,465.38V452.53h-2.43c-2.18-3.75-5.8-7.28-11-10.26C104.5,432,75.52,432,57.66,442.27c-5.18,3-8.8,6.51-11,10.26H44.26v12.78h0c0,6.78,4.43,13.57,13.4,18.75,17.87,10.32,46.84,10.32,64.71,0C131.3,478.9,135.77,472.14,135.77,465.38Z" transform="translate(-44.25 -135.32)"/><path class="cls-18" d="M122.37,442.27c-8.94-5.16-20.65-7.74-32.36-7.74V491.8c11.71,0,23.42-2.58,32.36-7.74s13.4-11.92,13.4-18.68V452.53h-2.43C131.16,448.78,127.54,445.25,122.37,442.27Z" transform="translate(-44.25 -135.32)"/><ellipse class="cls-11" cx="45.76" cy="317.21" rx="45.76" ry="26.42"/><path class="cls-8" d="M122.37,471.21c-17.87,10.32-46.84,10.32-64.71,0-8.57-4.94-13-11.36-13.34-17.84-.38,7,4,14.15,13.34,19.52,17.87,10.32,46.84,10.32,64.71,0,9.3-5.37,13.71-12.48,13.33-19.52C135.34,459.85,130.93,466.27,122.37,471.21Z" transform="translate(-44.25 -135.32)"/><path class="cls-8" d="M68,461.28a2.07,2.07,0,0,1-1.21-1.69l0-17.21c0-1.31,1.85-2.37,4.12-2.37S75,441.07,75,442.39l0,14.27,41.43-5.07c2.22-.27,4.41.55,4.88,1.83s-1,2.55-3.17,2.82l-46.41,5.68a6.46,6.46,0,0,1-3.45-.48Z" transform="translate(-44.25 -135.32)"/></svg>