<svg id="Layer_1" data-name="Layer 1" xmlns="http://www.w3.org/2000/svg" xmlns:xlink="http://www.w3.org/1999/xlink" viewBox="0 0 614.71 391.96"><defs><style>.cls-1{fill:url(#linear-gradient);}.cls-2{fill:url(#linear-gradient-2);}.cls-3{fill:#bdd0fb;}.cls-4{fill:url(#linear-gradient-3);}.cls-11,.cls-39,.cls-40,.cls-43,.cls-5{fill:#fff;}.cls-5{opacity:0.5;}.cls-6{fill:url(#linear-gradient-4);}.cls-7{fill:url(#linear-gradient-5);}.cls-8{fill:url(#linear-gradient-6);}.cls-9{fill:url(#linear-gradient-7);}.cls-10{fill:url(#linear-gradient-8);}.cls-12{fill:#c06b39;}.cls-13{fill:url(#linear-gradient-9);}.cls-14{fill:url(#linear-gradient-10);}.cls-15{fill:url(#linear-gradient-11);}.cls-16{fill:url(#linear-gradient-12);}.cls-17{fill:url(#linear-gradient-13);}.cls-18{fill:url(#linear-gradient-14);}.cls-19{fill:url(#linear-gradient-15);}.cls-20{fill:url(#linear-gradient-16);}.cls-21{fill:url(#linear-gradient-17);}.cls-22{fill:url(#linear-gradient-18);}.cls-23{fill:url(#linear-gradient-19);}.cls-24{fill:url(#linear-gradient-20);}.cls-25{fill:url(#linear-gradient-21);}.cls-26{fill:url(#linear-gradient-22);}.cls-27{fill:url(#linear-gradient-23);}.cls-28{fill:url(#linear-gradient-24);}.cls-29{fill:url(#linear-gradient-25);}.cls-30{fill:url(#linear-gradient-26);}.cls-31{fill:url(#linear-gradient-27);}.cls-32{fill:url(#linear-gradient-28);}.cls-33{fill:url(#linear-gradient-29);}.cls-34{fill:url(#linear-gradient-30);}.cls-35{fill:url(#linear-gradient-31);}.cls-36{fill:url(#linear-gradient-32);}.cls-37{fill:url(#linear-gradient-33);}.cls-38{fill:url(#linear-gradient-34);}.cls-39{opacity:0.2;}.cls-40{opacity:0.53;}.cls-41{opacity:0.64;}.cls-42{fill:url(#linear-gradient-35);}.cls-43{opacity:0.56;}.cls-44{fill:url(#linear-gradient-36);}.cls-45{fill:#7d97f4;}.cls-46{fill:#91b3fa;}</style><linearGradient id="linear-gradient" x1="647.61" y1="444.32" x2="431.53" y2="71.08" gradientUnits="userSpaceOnUse"><stop offset="0" stop-color="#e6ecfd"/><stop offset="1" stop-color="#e9effd"/></linearGradient><linearGradient id="linear-gradient-2" x1="401.07" y1="582.05" x2="194.79" y2="225.75" xlink:href="#linear-gradient"/><linearGradient id="linear-gradient-3" x1="482.74" y1="363.25" x2="592.66" y2="363.25" gradientUnits="userSpaceOnUse"><stop offset="0" stop-color="#dae3fe"/><stop offset="1" stop-color="#e9effd"/></linearGradient><linearGradient id="linear-gradient-4" x1="78.82" y1="451.91" x2="163.54" y2="451.91" xlink:href="#linear-gradient-3"/><linearGradient id="linear-gradient-5" x1="131.39" y1="239.29" x2="197.79" y2="239.29" xlink:href="#linear-gradient-3"/><linearGradient id="linear-gradient-6" x1="79.87" y1="318.34" x2="161.32" y2="318.34" xlink:href="#linear-gradient-3"/><linearGradient id="linear-gradient-7" x1="77.64" y1="392.96" x2="152.06" y2="392.96" xlink:href="#linear-gradient-3"/><linearGradient id="linear-gradient-8" x1="321.86" y1="521.26" x2="322.61" y2="415.4" gradientUnits="userSpaceOnUse"><stop offset="0" stop-color="#f59960"/><stop offset="1" stop-color="#4F81BD"/></linearGradient><linearGradient id="linear-gradient-9" x1="330.78" y1="154.98" x2="317.58" y2="251.79" xlink:href="#linear-gradient-8"/><linearGradient id="linear-gradient-10" x1="318.66" y1="456.26" x2="326.16" y2="239.29" xlink:href="#linear-gradient-8"/><linearGradient id="linear-gradient-11" x1="305.28" y1="417.29" x2="382.15" y2="417.29" gradientUnits="userSpaceOnUse"><stop offset="0" stop-color="#febbba"/><stop offset="1" stop-color="#ff928e"/></linearGradient><linearGradient id="linear-gradient-12" x1="408.93" y1="356.93" x2="413.45" y2="472.39" gradientUnits="userSpaceOnUse"><stop offset="0" stop-color="#09005d"/><stop offset="1" stop-color="#1a0f91"/></linearGradient><linearGradient id="linear-gradient-13" x1="250.91" y1="348.46" x2="210.64" y2="389.55" xlink:href="#linear-gradient-12"/><linearGradient id="linear-gradient-14" x1="352.99" y1="343.64" x2="168.82" y2="435.25" xlink:href="#linear-gradient-11"/><linearGradient id="linear-gradient-15" x1="351.22" y1="328.59" x2="333.43" y2="347.17" xlink:href="#linear-gradient-11"/><linearGradient id="linear-gradient-16" x1="353.56" y1="342.93" x2="232.96" y2="402.92" xlink:href="#linear-gradient-11"/><linearGradient id="linear-gradient-17" x1="253.94" y1="318.75" x2="51.77" y2="585.41" xlink:href="#linear-gradient-12"/><linearGradient id="linear-gradient-18" x1="197.24" y1="362.37" x2="213.26" y2="318.61" xlink:href="#linear-gradient-11"/><linearGradient id="linear-gradient-19" x1="274.63" y1="419.01" x2="218.75" y2="460.1" xlink:href="#linear-gradient-11"/><linearGradient id="linear-gradient-20" x1="162.56" y1="337.57" x2="187.58" y2="396.63" xlink:href="#linear-gradient-12"/><linearGradient id="linear-gradient-21" x1="187.99" y1="326.73" x2="213.04" y2="385.84" xlink:href="#linear-gradient-12"/><linearGradient id="linear-gradient-22" x1="232.84" y1="300.18" x2="185.85" y2="336.13" xlink:href="#linear-gradient-11"/><linearGradient id="linear-gradient-23" x1="199.76" y1="271.71" x2="243.53" y2="328.05" gradientUnits="userSpaceOnUse"><stop offset="0" stop-color="#090056"/><stop offset="1" stop-color="#020039"/></linearGradient><linearGradient id="linear-gradient-24" x1="227.01" y1="292.56" x2="180.02" y2="328.51" xlink:href="#linear-gradient-11"/><linearGradient id="linear-gradient-25" x1="303.89" y1="436.72" x2="322.83" y2="436.72" xlink:href="#linear-gradient-11"/><linearGradient id="linear-gradient-26" x1="445.9" y1="394.24" x2="611.49" y2="482.39" xlink:href="#linear-gradient-12"/><linearGradient id="linear-gradient-27" x1="477.29" y1="340.4" x2="464.96" y2="303.42" xlink:href="#linear-gradient-11"/><linearGradient id="linear-gradient-28" x1="544.49" y1="434.99" x2="570.79" y2="552.92" gradientUnits="userSpaceOnUse"><stop offset="0" stop-color="#4f52ff"/><stop offset="1" stop-color="#4042e2"/></linearGradient><linearGradient id="linear-gradient-29" x1="466.43" y1="357.52" x2="637.77" y2="448.74" xlink:href="#linear-gradient-12"/><linearGradient id="linear-gradient-30" x1="496.42" y1="394.97" x2="549.06" y2="422.99" xlink:href="#linear-gradient-28"/><linearGradient id="linear-gradient-31" x1="552.13" y1="448.12" x2="512.07" y2="525.16" xlink:href="#linear-gradient-11"/><linearGradient id="linear-gradient-32" x1="2567.67" y1="3546.89" x2="2523.37" y2="3605.5" gradientTransform="matrix(-0.69, -0.73, -0.73, 0.69, 4809.96, -274.24)" xlink:href="#linear-gradient-11"/><linearGradient id="linear-gradient-33" x1="2533.83" y1="3560.96" x2="2586.76" y2="3560.96" gradientTransform="matrix(-0.69, -0.73, -0.73, 0.69, 4809.96, -274.24)" xlink:href="#linear-gradient-23"/><linearGradient id="linear-gradient-34" x1="2502.78" y1="3593.31" x2="2538.32" y2="3556.85" gradientTransform="matrix(-0.69, -0.73, -0.73, 0.69, 4809.96, -274.24)" xlink:href="#linear-gradient-11"/><linearGradient id="linear-gradient-35" x1="235.46" y1="108.35" x2="444.17" y2="240.35" xlink:href="#linear-gradient-28"/><linearGradient id="linear-gradient-36" x1="199.01" y1="165.99" x2="407.72" y2="297.99" xlink:href="#linear-gradient-28"/></defs><path class="cls-1" d="M413.24,173c-8.74,13.56,9.66,40.41,46.25,93.78,43.07,62.82,97.41,142.09,138.74,129.66,30.43-9.14,49.7-66.74,40.75-111.14C617.64,179.5,434.37,140.18,413.24,173Z" transform="translate(-26.47 -122.36)"/><path class="cls-2" d="M602.47,473.63c-1,7.45-11.65,29.56-315.06,32.37-157.06,1.46-184.59-4.19-209.13-28.93-53-53.45-58.68-162.44-13-231.66C127,152,259.19,166.2,329.8,194.27a121.09,121.09,0,0,1,20.43,10c109.7,69.12,110.1,141.82,223.51,237.38C593.58,458.38,603.73,464.61,602.47,473.63Z" transform="translate(-26.47 -122.36)"/><path class="cls-3" d="M471.92,480.57a1,1,0,0,1-1.88-.51c5.75-23.46,4.32-13.26,9.13-33.24,12-50-.56-73.88-1.49-100.32s19.4-57.4,62.21-41.59c35,12.92,62.54,22.17,76,21.81a3.2,3.2,0,0,1,2.74,5c-9.39,14.24-34.08,46-66.94,44.9-42.29-1.42-41.53-13-51.66-2.88s-11,21.05-12.68,41.59C485.87,433,485.76,434.32,471.92,480.57Z" transform="translate(-26.47 -122.36)"/><path class="cls-4" d="M485.61,398.16a85.51,85.51,0,0,1-2-9.88,88.32,88.32,0,0,1-.86-10,63.37,63.37,0,0,1,2.42-20,42.14,42.14,0,0,1,4.13-9.35,34.6,34.6,0,0,1,6.51-8,38.46,38.46,0,0,1,8.53-5.69c1.51-.71,3-1.45,4.56-2.08s3.1-1.27,4.67-1.86a75.48,75.48,0,0,1,9.7-2.74,61.31,61.31,0,0,1,10-1.18,63.6,63.6,0,0,1,10.05.45c3.32.4,6.6,1,9.84,1.71,6.49,1.42,12.85,3.09,19.31,4.2a85.44,85.44,0,0,0,19.56,1.21h0a.56.56,0,0,1,.08,1.11,86.64,86.64,0,0,1-19.9-.69c-6.58-.95-13-2.55-19.46-3.81a79.45,79.45,0,0,0-19.39-1.79,59.66,59.66,0,0,0-9.59,1.25,73.55,73.55,0,0,0-9.3,2.77c-1.52.59-3,1.17-4.51,1.86s-2.94,1.37-4.4,2.08a35.83,35.83,0,0,0-7.86,5.31A35.26,35.26,0,0,0,488,359.1a60.57,60.57,0,0,0-2.34,19.09,92.89,92.89,0,0,0,.74,9.71,80.52,80.52,0,0,0,1.78,9.53v.05a1.34,1.34,0,0,1-2.6.68Z" transform="translate(-26.47 -122.36)"/><path class="cls-5" d="M495.42,482a19.45,19.45,0,0,0,3.32-.89A33.6,33.6,0,0,0,502,479.8a49.17,49.17,0,0,0,6.05-3.49,78.68,78.68,0,0,0,10.81-8.9,156.52,156.52,0,0,0,18-21.71c2.76-3.84,5.47-7.74,8.43-11.51A49.17,49.17,0,0,1,555.46,424a25.82,25.82,0,0,1,13.66-4.7,43.73,43.73,0,0,1,14.19,1.92.31.31,0,0,1-.15.6h0a45.76,45.76,0,0,0-13.95-1.23,27,27,0,0,0-6.72,1.53,25.16,25.16,0,0,0-6,3.29,49,49,0,0,0-9.6,10.05c-2.85,3.73-5.48,7.67-8.22,11.55s-5.56,7.73-8.54,11.46c-.76.92-1.55,1.82-2.32,2.73s-1.54,1.83-2.38,2.7L523,466.53,520.36,469A68.58,68.58,0,0,1,509,477.8,41.39,41.39,0,0,1,502.5,481a23.68,23.68,0,0,1-7,1.79.4.4,0,0,1-.09-.8Z" transform="translate(-26.47 -122.36)"/><path class="cls-3" d="M165.93,479.89s-35.7,24.78-57.72,2.52c-20.48-20.69-20.3-43.12-41.83-48a3.37,3.37,0,0,1-1.77-5.51c6.66-7.62,23.09-20.86,51.61-11.44C154.91,430.25,165.93,479.89,165.93,479.89Z" transform="translate(-26.47 -122.36)"/><path class="cls-6" d="M163.14,478.83a21.59,21.59,0,0,1-6.57-1.21,37.36,37.36,0,0,1-6.12-2.57,63,63,0,0,1-11-7.34l-2.53-2.13-2.41-2.26c-.81-.74-1.57-1.53-2.33-2.32s-1.54-1.57-2.29-2.37c-3-3.24-5.77-6.59-8.51-10s-5.38-6.83-8.21-10.08a44.6,44.6,0,0,0-9.35-8.62,22.5,22.5,0,0,0-5.69-2.65,24.65,24.65,0,0,0-6.23-1,41.43,41.43,0,0,0-12.68,1.93h0a.3.3,0,0,1-.38-.22.3.3,0,0,1,.19-.37A40,40,0,0,1,91.92,425a23.65,23.65,0,0,1,6.64.81,24.56,24.56,0,0,1,6.18,2.66,45,45,0,0,1,10,8.72c2.93,3.27,5.65,6.68,8.41,10A145.51,145.51,0,0,0,140.89,466a72.79,72.79,0,0,0,10.4,7.5,45.62,45.62,0,0,0,5.73,2.85,29.91,29.91,0,0,0,3,1,17.12,17.12,0,0,0,3.09.63h0a.4.4,0,0,1,.37.44A.41.41,0,0,1,163.14,478.83Z" transform="translate(-26.47 -122.36)"/><path class="cls-3" d="M195,317.58s-2.05-35.65-19.22-43.84-48.8-11.6-54.13-62.6c-3.12-29.85-4.93-42.87-5.89-48.53a3.38,3.38,0,0,1,3.68-3.93c15.76,1.66,67.16,9.58,80.54,43.14C215.79,241.59,195,317.58,195,317.58Z" transform="translate(-26.47 -122.36)"/><path class="cls-7" d="M132.65,171.8a150.44,150.44,0,0,1,14.56,12.68l1.72,1.69,1.68,1.73c1.13,1.15,2.25,2.3,3.33,3.49,2.21,2.35,4.3,4.79,6.42,7.22s4.12,4.95,6.06,7.53,3.86,5.16,5.74,7.78a178.83,178.83,0,0,1,10.28,16.43c.77,1.44,1.56,2.87,2.3,4.31l2,4.45,1,2.23.87,2.28,1.71,4.56,1.46,4.65.73,2.33.6,2.36c.4,1.57.82,3.14,1.18,4.72l1,4.76a139.71,139.71,0,0,1,1.94,38.68,1.39,1.39,0,0,1-2.78-.18v-.09a145.45,145.45,0,0,0-.56-18.88,172.71,172.71,0,0,0-2.77-18.7l-1-4.61c-.38-1.53-.81-3-1.2-4.56l-.61-2.28-.72-2.24-1.44-4.48-1.69-4.4-.83-2.19-1-2.15-1.92-4.28c-.72-1.39-1.47-2.76-2.2-4.15-1.41-2.78-3.12-5.46-4.72-8.19-.79-1.36-1.7-2.66-2.54-4s-1.68-2.68-2.6-4c-3.51-5.27-7.29-10.35-11.18-15.36-2-2.46-4-4.94-6-7.34-1-1.22-2.06-2.41-3.11-3.6l-1.58-1.78-1.61-1.75c-4.29-4.67-8.76-9.22-13.46-13.46l0,0a.79.79,0,0,1,1-1.22Z" transform="translate(-26.47 -122.36)"/><path class="cls-3" d="M199.35,476.48c3.34,1.91-29.94-45.86-36.73-118-3.2-34-.59-76.18-18.74-93.65-15.1-14.53-69.94-9.44-87.91-7.33a2.68,2.68,0,0,0-1.54,4.59c8.07,7.69,25.22,25.73,28.89,43,4.84,22.82,25.25,38.44,44.09,43.51s29.22,9.49,36.57,40.6S189.83,471,199.35,476.48Z" transform="translate(-26.47 -122.36)"/><path class="cls-8" d="M80.35,268.61A86.27,86.27,0,0,1,113,279.06a67.38,67.38,0,0,1,14,10.26,59.17,59.17,0,0,1,10.65,13.77l1,1.92c.34.64.63,1.31.94,2s.63,1.32.9,2l.83,2c1.11,2.63,2.21,5.27,3.28,7.91q3.21,7.94,6.18,16c4,10.71,7.57,21.54,10.51,32.59a.53.53,0,0,1-.38.66.54.54,0,0,1-.66-.35v0c-1.79-5.38-3.67-10.76-5.66-16.08s-4-10.65-6.07-15.94l-3.14-7.93-3.23-7.89q-1.62-4-3.29-7.87l-.83-2c-.28-.65-.59-1.26-.88-1.9s-.56-1.27-.89-1.89l-1-1.84a58.77,58.77,0,0,0-10.08-13.25,64.87,64.87,0,0,0-6.34-5.48L118,285l-.86-.6c-.57-.41-1.13-.83-1.71-1.22-1.18-.76-2.34-1.55-3.56-2.25a87.54,87.54,0,0,0-15.28-7.15,90.12,90.12,0,0,0-16.37-4.31h0a.43.43,0,0,1,.12-.86Z" transform="translate(-26.47 -122.36)"/><path class="cls-3" d="M167.56,482c2.06,1.08-11.57-22.37-12.62-43s-5.7-55.93-23.52-77-37.34-23-61.93-3.84c-20.49,16-33.27,24.05-40.77,25.55a2.83,2.83,0,0,0-1.9,4.13c4.81,8.85,18.4,29.19,41.22,27.76,29.12-1.83,64.4-20.76,75.16-5s9.37,24.63,9.7,32.11S154,474.81,167.56,482Z" transform="translate(-26.47 -122.36)"/><path class="cls-9" d="M77.79,383.45a57.1,57.1,0,0,1,5.07-4.28c1.76-1.33,3.57-2.61,5.46-3.77a55.06,55.06,0,0,1,12.06-5.7,38,38,0,0,1,6.62-1.49,27.7,27.7,0,0,1,6.87,0c.57.09,1.15.15,1.71.27s1.15.24,1.69.4l3.22,1,3.15,1.22,3,1.47a38.39,38.39,0,0,1,10.63,8.32,47.58,47.58,0,0,1,7.34,11.2l.73,1.5c.26.49.44,1,.66,1.53.41,1,.85,2,1.24,3.08l1.08,3.14c.38,1,.62,2.11.93,3.17a114.6,114.6,0,0,1,2.75,12.89.47.47,0,0,1-.4.56.49.49,0,0,1-.55-.36v0c-1-4.23-2-8.47-3.45-12.56-.65-2.07-1.46-4.08-2.22-6.1-.4-1-.87-2-1.3-2.95-.23-.49-.42-1-.68-1.47l-.75-1.42a48.31,48.31,0,0,0-7.27-10.46,37.17,37.17,0,0,0-10-7.64l-2.86-1.35-3-1.14-3-.92c-.51-.15-1-.24-1.5-.36s-1-.17-1.52-.26a25.72,25.72,0,0,0-6.2,0,35.94,35.94,0,0,0-6.19,1.25,60.31,60.31,0,0,0-11.8,5c-1.88,1.05-3.75,2.13-5.57,3.31s-3.59,2.43-5.3,3.74h0a.5.5,0,0,1-.66-.76Z" transform="translate(-26.47 -122.36)"/><path class="cls-10" d="M153.81,360.34l3.58,111.18a36.18,36.18,0,0,0,36,34.94L459.67,508a26.09,26.09,0,0,0,26-22.21c4.16-28.08,9.47-78.32,3.5-125.47Z" transform="translate(-26.47 -122.36)"/><path class="cls-11" d="M450.24,501.19h-1.95a.32.32,0,1,1,0-.64h1.94a.32.32,0,0,1,.32.32A.32.32,0,0,1,450.24,501.19Zm4.52,0a.32.32,0,0,1,0-.64c.63,0,1.27-.11,1.9-.19a.32.32,0,0,1,.37.27.33.33,0,0,1-.28.37c-.64.09-1.3.15-2,.19Zm-11,0h0l-1.94,0a.32.32,0,0,1,0-.64h1.94a.32.32,0,0,1,.32.32A.32.32,0,0,1,443.77,501.16Zm-6.46,0h-1.95a.33.33,0,0,1-.32-.33.32.32,0,0,1,.33-.32h1.94a.32.32,0,0,1,.32.33A.33.33,0,0,1,437.31,501.12Zm-6.47,0H428.9a.32.32,0,0,1-.32-.33.34.34,0,0,1,.32-.32h1.94a.33.33,0,0,1,0,.65Zm-6.46,0h-1.94a.33.33,0,1,1,0-.65h0l1.94,0a.32.32,0,0,1,.32.32A.32.32,0,0,1,424.38,501Zm-6.47,0H416a.32.32,0,0,1-.32-.32.33.33,0,0,1,.32-.32h1.94a.32.32,0,0,1,.33.32A.33.33,0,0,1,417.91,501Zm-6.46,0h0l-1.94,0a.32.32,0,0,1-.33-.32.33.33,0,0,1,.33-.32h1.94a.32.32,0,0,1,.32.32A.33.33,0,0,1,411.45,501Zm-6.47,0H403a.33.33,0,0,1-.32-.33.32.32,0,0,1,.32-.32H405a.33.33,0,0,1,.33.33A.34.34,0,0,1,405,500.93Zm-6.46,0h-1.94a.33.33,0,1,1,0-.65h1.94a.32.32,0,0,1,.32.33A.32.32,0,0,1,398.52,500.89Zm-6.47,0h-1.94a.32.32,0,0,1-.32-.33.33.33,0,0,1,.32-.32h1.94a.34.34,0,0,1,.33.33A.32.32,0,0,1,392.05,500.85Zm-6.46,0h-1.94a.32.32,0,0,1-.32-.32.32.32,0,0,1,.32-.33h0l1.94,0a.32.32,0,0,1,0,.64Zm-6.47,0h-1.94a.32.32,0,0,1-.32-.32.32.32,0,0,1,.32-.32h1.95a.33.33,0,0,1,.32.32A.32.32,0,0,1,379.12,500.77Zm-6.46,0h-1.94a.32.32,0,0,1-.32-.33.32.32,0,0,1,.32-.32h1.94a.33.33,0,0,1,0,.65Zm-6.47,0h-1.94a.33.33,0,0,1,0-.65h1.95a.33.33,0,0,1,0,.65Zm-6.46,0h-1.94a.33.33,0,0,1,0-.65h1.94a.33.33,0,0,1,.32.33A.32.32,0,0,1,359.73,500.66Zm-6.47,0h-1.94a.32.32,0,0,1-.32-.32.36.36,0,0,1,.33-.33l1.94,0a.32.32,0,1,1,0,.64Zm-6.46,0h-1.94a.32.32,0,0,1,0-.64h1.94a.32.32,0,1,1,0,.64Zm-6.47,0h0l-1.94,0a.32.32,0,0,1-.32-.32.34.34,0,0,1,.33-.32h1.94a.32.32,0,0,1,.32.32A.33.33,0,0,1,340.33,500.55Zm-6.46,0h-1.94a.32.32,0,0,1-.32-.33.32.32,0,0,1,.32-.32h1.94a.33.33,0,0,1,0,.65Zm-6.47,0h-1.94a.32.32,0,0,1-.32-.33.35.35,0,0,1,.33-.32h1.94a.33.33,0,0,1,0,.65Zm-6.46,0H319a.33.33,0,0,1,0-.65h0l1.94,0a.32.32,0,1,1,0,.64Zm-6.46,0h-2a.32.32,0,1,1,0-.64h1.94a.32.32,0,0,1,.32.32A.32.32,0,0,1,314.48,500.39Zm-6.47,0h0l-1.94,0a.32.32,0,1,1,0-.64H308a.33.33,0,0,1,0,.65Zm-6.46,0H299.6a.33.33,0,0,1-.32-.33.32.32,0,0,1,.33-.32h1.94a.32.32,0,0,1,.32.33A.33.33,0,0,1,301.55,500.32Zm-6.47,0h-1.94a.33.33,0,0,1,0-.65h1.94a.33.33,0,0,1,0,.65Zm-6.46,0h-1.94a.33.33,0,1,1,0-.65h1.94a.33.33,0,0,1,.32.33A.32.32,0,0,1,288.62,500.24Zm-6.47,0h-1.94a.32.32,0,1,1,0-.64h1.94a.31.31,0,0,1,.32.32A.32.32,0,0,1,282.15,500.2Zm-6.46,0h-1.94a.32.32,0,0,1-.33-.32.33.33,0,0,1,.33-.32h1.94a.32.32,0,0,1,.32.32A.32.32,0,0,1,275.69,500.16Zm-6.47,0h-1.94a.33.33,0,0,1-.32-.33.32.32,0,0,1,.32-.32h1.94a.33.33,0,0,1,.33.33A.34.34,0,0,1,269.22,500.13Zm-6.46,0h-1.94a.33.33,0,0,1-.33-.33.35.35,0,0,1,.33-.32h1.94a.32.32,0,0,1,.32.33A.32.32,0,0,1,262.76,500.09Zm-6.47,0h-1.94a.32.32,0,0,1-.32-.33.33.33,0,0,1,.32-.32h1.94a.34.34,0,0,1,.33.33A.33.33,0,0,1,256.29,500.05Zm-6.46,0h-1.94a.32.32,0,0,1-.32-.32.34.34,0,0,1,.32-.33l1.94,0a.32.32,0,0,1,0,.64Zm-6.47,0h-1.94a.32.32,0,0,1-.32-.32.32.32,0,0,1,.32-.32h1.94a.32.32,0,1,1,0,.64Zm217.73,0a.33.33,0,0,1-.31-.22.33.33,0,0,1,.21-.41c.6-.2,1.2-.43,1.79-.67a.32.32,0,0,1,.42.17.32.32,0,0,1-.17.42c-.6.26-1.22.49-1.84.69Zm-224.19,0H235a.32.32,0,0,1-.32-.33.32.32,0,0,1,.32-.32h1.94a.33.33,0,0,1,0,.65Zm-6.47,0h-1.94a.33.33,0,0,1,0-.65h1.95a.33.33,0,0,1,0,.65Zm-6.46,0H222a.33.33,0,0,1,0-.65H224a.32.32,0,0,1,.32.33A.32.32,0,0,1,224,499.86Zm-6.47,0h-1.94a.32.32,0,0,1-.32-.32.33.33,0,0,1,.32-.33h0l1.94,0a.32.32,0,1,1,0,.64Zm-6.46,0H209.1a.32.32,0,0,1,0-.64H211a.32.32,0,0,1,0,.64Zm-6.47,0h0l-1.94,0a.32.32,0,0,1-.32-.32.32.32,0,0,1,.32-.32h2a.33.33,0,0,1,.32.32A.33.33,0,0,1,204.57,499.75Zm-6.46-.08h0c-.64,0-1.3-.08-2-.15a.32.32,0,0,1-.28-.35.32.32,0,0,1,.35-.29q1,.11,1.92.15a.32.32,0,0,1,.3.34A.32.32,0,0,1,198.11,499.67Zm-6.39-.92h-.07c-.63-.15-1.27-.32-1.89-.51a.32.32,0,1,1,.18-.62q.93.28,1.86.51a.32.32,0,0,1,.24.39A.33.33,0,0,1,191.72,498.75Zm275.17-1.62a.33.33,0,0,1-.27-.14.32.32,0,0,1,.09-.45q.81-.53,1.56-1.11a.32.32,0,1,1,.4.51c-.52.4-1.05.78-1.6,1.14A.31.31,0,0,1,466.89,497.13Zm-281.27-.47a.28.28,0,0,1-.13,0c-.59-.27-1.18-.55-1.76-.85a.33.33,0,0,1,.3-.58c.56.3,1.14.58,1.72.84a.32.32,0,0,1,.16.43A.31.31,0,0,1,185.62,496.66ZM180,493.47a.32.32,0,0,1-.18-.06c-.53-.38-1.06-.77-1.57-1.17a.32.32,0,0,1,.4-.51c.5.4,1,.78,1.54,1.15a.32.32,0,0,1-.19.59Zm291.77-.54a.37.37,0,0,1-.22-.08.33.33,0,0,1,0-.46c.42-.47.83-1,1.22-1.47a.32.32,0,0,1,.51.39c-.39.52-.82,1-1.25,1.51A.32.32,0,0,1,471.78,492.93ZM175.1,489.28a.33.33,0,0,1-.23-.09c-.45-.47-.9-.95-1.33-1.44a.33.33,0,0,1,0-.46.32.32,0,0,1,.45,0c.42.48.86,1,1.3,1.42a.31.31,0,0,1,0,.45A.35.35,0,0,1,175.1,489.28Zm300.32-1.67a.32.32,0,0,1-.14,0,.33.33,0,0,1-.15-.44c.29-.56.56-1.15.8-1.73a.33.33,0,0,1,.42-.18.32.32,0,0,1,.18.42c-.25.61-.53,1.21-.82,1.79A.32.32,0,0,1,475.42,487.61Zm-304.37-3.35a.32.32,0,0,1-.27-.14c-.36-.55-.71-1.11-1-1.67a.32.32,0,0,1,.56-.32c.32.55.66,1.1,1,1.63a.33.33,0,0,1-.09.45A.41.41,0,0,1,171.05,484.26Zm306.51-2.72h-.07a.33.33,0,0,1-.25-.38c.1-.48.19-1,.26-1.45l.07-.45a.32.32,0,0,1,.36-.27.33.33,0,0,1,.28.37l-.07.45c-.07.49-.16,1-.27,1.48A.32.32,0,0,1,477.56,481.54Zm-309.56-3a.32.32,0,0,1-.29-.2c-.25-.6-.49-1.22-.71-1.83a.32.32,0,0,1,.61-.22c.21.61.45,1.21.69,1.8a.32.32,0,0,1-.17.42A.28.28,0,0,1,168,478.57Zm310.53-3.43h0a.32.32,0,0,1-.27-.36c.09-.63.17-1.28.26-1.92a.33.33,0,0,1,.37-.28.32.32,0,0,1,.27.36c-.09.65-.17,1.29-.26,1.93A.31.31,0,0,1,478.53,475.14ZM166.09,472.4a.33.33,0,0,1-.32-.26c-.13-.64-.25-1.29-.34-1.93a.32.32,0,0,1,.27-.37.33.33,0,0,1,.37.28c.09.62.21,1.26.34,1.89a.33.33,0,0,1-.25.38Zm313.29-3.67h0a.32.32,0,0,1-.28-.36l.24-1.92a.32.32,0,0,1,.36-.28.31.31,0,0,1,.28.36l-.24,1.92A.32.32,0,0,1,479.38,468.73Zm-314-2.75a.32.32,0,0,1-.33-.31l-.06-1.94a.32.32,0,0,1,.32-.33.32.32,0,0,1,.33.31l.06,1.94a.31.31,0,0,1-.31.33Zm314.79-3.66h0a.33.33,0,0,1-.29-.36c.08-.63.15-1.27.22-1.92a.33.33,0,0,1,.36-.29.32.32,0,0,1,.28.36c-.07.65-.14,1.29-.22,1.93A.32.32,0,0,1,480.16,462.32Zm-315-2.8a.32.32,0,0,1-.32-.31l-.07-1.94a.32.32,0,0,1,.32-.33.32.32,0,0,1,.33.31l.06,1.94a.31.31,0,0,1-.31.33Zm315.71-3.63h0a.33.33,0,0,1-.29-.36c.06-.64.13-1.28.2-1.93a.32.32,0,0,1,.35-.29.33.33,0,0,1,.29.36c-.07.65-.13,1.29-.2,1.93A.33.33,0,0,1,480.87,455.89ZM165,453.06a.32.32,0,0,1-.32-.31l-.06-1.94a.31.31,0,0,1,.31-.33.31.31,0,0,1,.33.31l.07,1.94a.34.34,0,0,1-.32.33Zm316.55-3.61h0a.32.32,0,0,1-.29-.35l.18-1.93a.32.32,0,0,1,.64.06c-.06.64-.12,1.29-.17,1.93A.33.33,0,0,1,481.5,449.45ZM164.74,446.6a.33.33,0,0,1-.32-.31l-.06-1.94a.32.32,0,0,1,.31-.34.34.34,0,0,1,.34.32l.06,1.93a.34.34,0,0,1-.32.34ZM482.06,443h0a.33.33,0,0,1-.3-.35l.15-1.93a.33.33,0,0,1,.35-.3.33.33,0,0,1,.3.35l-.16,1.93A.32.32,0,0,1,482.06,443Zm-317.52-2.87a.33.33,0,0,1-.33-.32l-.06-1.93a.34.34,0,0,1,.31-.34.33.33,0,0,1,.34.31l.06,1.94a.32.32,0,0,1-.31.34Zm318-3.58h0a.32.32,0,0,1-.3-.34l.13-1.94a.32.32,0,0,1,.34-.3.33.33,0,0,1,.31.35l-.13,1.93A.33.33,0,0,1,482.54,436.56Zm-318.21-2.88a.32.32,0,0,1-.32-.32l-.07-1.94a.34.34,0,0,1,.32-.33.32.32,0,0,1,.33.31l.06,1.94a.32.32,0,0,1-.31.34ZM483,430.11h0a.32.32,0,0,1-.31-.34c0-.64.07-1.29.11-1.94a.32.32,0,1,1,.64,0c0,.64-.07,1.29-.1,1.93A.32.32,0,0,1,483,430.11Zm-318.83-2.9a.31.31,0,0,1-.32-.31l-.06-1.94a.31.31,0,0,1,.31-.33.32.32,0,0,1,.33.31l.06,1.94a.31.31,0,0,1-.31.33Zm319.15-3.56h0a.32.32,0,0,1-.31-.34c0-.64.06-1.28.08-1.93a.33.33,0,0,1,.65,0c0,.65-.05,1.3-.08,1.94A.32.32,0,0,1,483.27,423.65Zm-319.36-2.9a.33.33,0,0,1-.32-.31l-.06-1.94a.31.31,0,0,1,.31-.33.32.32,0,0,1,.33.31l.07,1.94a.32.32,0,0,1-.32.33Zm319.59-3.56h0a.32.32,0,0,1-.31-.33c0-.65,0-1.29.05-1.94a.32.32,0,0,1,.33-.32.34.34,0,0,1,.32.34l-.06,1.94A.32.32,0,0,1,483.5,417.19Zm-319.79-2.9a.33.33,0,0,1-.33-.31l-.06-1.94a.31.31,0,0,1,.31-.33.33.33,0,0,1,.34.31L164,414a.33.33,0,0,1-.31.33Zm319.93-3.56h0a.33.33,0,0,1-.32-.33l0-1.94a.33.33,0,0,1,.32-.32.32.32,0,0,1,.32.33c0,.64,0,1.29,0,1.94A.34.34,0,0,1,483.64,410.73Zm-320.14-2.9a.33.33,0,0,1-.33-.31l-.06-1.94a.34.34,0,0,1,.32-.34.34.34,0,0,1,.33.32l.06,1.94a.32.32,0,0,1-.31.33Zm320.19-3.57a.32.32,0,0,1-.32-.32V402a.32.32,0,0,1,.32-.32h0a.32.32,0,0,1,.32.32c0,.59,0,1.19,0,1.78v.16A.32.32,0,0,1,483.69,404.26Zm-320.4-2.89a.32.32,0,0,1-.32-.32l-.07-1.93a.34.34,0,0,1,.32-.34.31.31,0,0,1,.33.32l.06,1.93a.32.32,0,0,1-.31.34Zm320.36-3.57a.33.33,0,0,1-.33-.32l0-1.94a.33.33,0,0,1,.32-.33.34.34,0,0,1,.33.32l0,1.94a.32.32,0,0,1-.32.33Zm-320.57-2.89a.32.32,0,0,1-.32-.32l-.06-1.94a.32.32,0,0,1,.31-.33.33.33,0,0,1,.33.31l.07,1.94a.34.34,0,0,1-.32.34Zm320.41-3.57a.33.33,0,0,1-.32-.32l-.06-1.93a.32.32,0,0,1,.31-.34.31.31,0,0,1,.33.31c0,.65.05,1.3.07,1.94a.34.34,0,0,1-.31.34Zm-320.62-2.9a.32.32,0,0,1-.32-.31l-.06-1.94a.32.32,0,0,1,.31-.33.32.32,0,0,1,.34.31l.06,1.94a.32.32,0,0,1-.32.33Zm320.36-3.56a.33.33,0,0,1-.32-.31c0-.64-.06-1.29-.1-1.93a.32.32,0,0,1,.31-.34.32.32,0,0,1,.34.3c0,.65.06,1.29.1,1.94a.32.32,0,0,1-.31.34ZM162.67,382a.33.33,0,0,1-.33-.31l-.06-1.94a.33.33,0,0,1,.65,0l.06,1.94a.31.31,0,0,1-.31.33Zm320.19-3.56a.33.33,0,0,1-.33-.3c0-.64-.09-1.29-.13-1.93a.32.32,0,1,1,.64-.05c0,.65.1,1.29.14,1.94a.32.32,0,0,1-.3.34Zm-320.4-2.9a.32.32,0,0,1-.32-.31l-.07-1.94a.32.32,0,0,1,.32-.33.31.31,0,0,1,.33.31l.06,1.94a.31.31,0,0,1-.31.33ZM482.35,372a.33.33,0,0,1-.32-.3c0-.64-.11-1.28-.17-1.93a.32.32,0,0,1,.29-.35.33.33,0,0,1,.35.29l.18,1.94a.33.33,0,0,1-.3.35Zm-320.1-2.92a.32.32,0,0,1-.32-.31l-.06-1.94a.32.32,0,0,1,.31-.34.33.33,0,0,1,.33.32l.06,1.94a.32.32,0,0,1-.31.33Zm319.47-3.51a.33.33,0,0,1-.32-.29c-.07-.65-.14-1.29-.22-1.93a.33.33,0,1,1,.65-.07l.21,1.93a.31.31,0,0,1-.28.35ZM162,362.6a.33.33,0,0,1-.32-.31l-.07-2.28h1.17a.33.33,0,0,1,0,.65h-.51l.06,1.6a.34.34,0,0,1-.32.34Zm317.56-1.94h-1.94a.33.33,0,0,1,0-.65h1.94a.33.33,0,0,1,0,.65Zm-6.46,0H471.2a.33.33,0,1,1,0-.65h1.94a.33.33,0,0,1,0,.65Zm-6.47,0h-1.94a.33.33,0,0,1,0-.65h1.94a.33.33,0,0,1,0,.65Zm-6.46,0h-1.94a.33.33,0,1,1,0-.65h1.94a.33.33,0,0,1,0,.65Zm-6.47,0H451.8a.33.33,0,0,1,0-.65h1.94a.33.33,0,0,1,0,.65Zm-6.46,0h-1.94a.33.33,0,1,1,0-.65h1.94a.33.33,0,0,1,0,.65Zm-6.47,0h-1.94a.33.33,0,0,1,0-.65h1.94a.33.33,0,0,1,0,.65Zm-6.46,0h-1.94a.33.33,0,1,1,0-.65h1.94a.33.33,0,0,1,0,.65Zm-6.47,0h-1.94a.33.33,0,0,1,0-.65h1.94a.33.33,0,0,1,0,.65Zm-6.46,0h-1.94a.33.33,0,1,1,0-.65h1.94a.33.33,0,0,1,0,.65Zm-6.47,0H413a.33.33,0,0,1,0-.65H415a.33.33,0,0,1,0,.65Zm-6.46,0h-1.94a.33.33,0,1,1,0-.65h1.94a.33.33,0,0,1,0,.65Zm-6.47,0h-1.94a.33.33,0,0,1,0-.65H402a.33.33,0,0,1,0,.65Zm-6.46,0h-1.94a.33.33,0,1,1,0-.65h1.94a.33.33,0,0,1,0,.65Zm-6.47,0h-1.94a.33.33,0,0,1,0-.65h1.94a.33.33,0,0,1,0,.65Zm-6.46,0h-1.94a.33.33,0,1,1,0-.65h1.94a.33.33,0,0,1,0,.65Zm-6.47,0h-1.94a.33.33,0,0,1,0-.65h1.94a.33.33,0,1,1,0,.65Zm-6.46,0h-1.94a.33.33,0,1,1,0-.65h1.94a.33.33,0,0,1,0,.65Zm-6.47,0h-1.94a.33.33,0,0,1,0-.65h1.94a.33.33,0,1,1,0,.65Zm-6.46,0h-1.94a.33.33,0,1,1,0-.65h1.94a.33.33,0,0,1,0,.65Zm-6.47,0h-1.94a.33.33,0,0,1,0-.65h1.94a.33.33,0,1,1,0,.65Zm-6.46,0H341.9a.33.33,0,1,1,0-.65h1.94a.33.33,0,0,1,0,.65Zm-6.47,0h-1.94a.33.33,0,0,1,0-.65h1.94a.33.33,0,1,1,0,.65Zm-6.46,0H329a.33.33,0,1,1,0-.65h1.94a.33.33,0,0,1,0,.65Zm-6.47,0H322.5a.33.33,0,0,1,0-.65h1.94a.33.33,0,1,1,0,.65Zm-6.46,0H316a.33.33,0,0,1,0-.65H318a.33.33,0,0,1,0,.65Zm-6.47,0h-1.94a.33.33,0,0,1,0-.65h1.94a.33.33,0,1,1,0,.65Zm-6.46,0h-1.94a.33.33,0,0,1,0-.65h1.94a.33.33,0,0,1,0,.65Zm-6.47,0h-1.94a.33.33,0,0,1,0-.65h1.94a.33.33,0,1,1,0,.65Zm-6.46,0h-1.94a.33.33,0,0,1,0-.65h1.94a.33.33,0,0,1,0,.65Zm-6.47,0h-1.94a.33.33,0,0,1,0-.65h1.94a.33.33,0,1,1,0,.65Zm-6.46,0h-1.94a.33.33,0,0,1,0-.65h1.94a.33.33,0,0,1,0,.65Zm-6.47,0h-1.94a.33.33,0,0,1,0-.65h1.94a.33.33,0,1,1,0,.65Zm-6.46,0h-1.94a.33.33,0,0,1,0-.65h1.94a.33.33,0,0,1,0,.65Zm-6.47,0h-1.94a.33.33,0,0,1,0-.65h1.94a.33.33,0,1,1,0,.65Zm-6.46,0h-1.94a.33.33,0,0,1,0-.65h1.94a.33.33,0,0,1,0,.65Zm-6.47,0h-1.94a.33.33,0,0,1,0-.65h1.94a.33.33,0,1,1,0,.65Zm-6.46,0h-1.94a.33.33,0,0,1,0-.65h1.94a.33.33,0,0,1,0,.65Zm-6.47,0H232a.33.33,0,0,1,0-.65h1.94a.33.33,0,1,1,0,.65Zm-6.46,0h-1.94a.33.33,0,0,1,0-.65h1.94a.33.33,0,0,1,0,.65Zm-6.47,0h-1.93a.33.33,0,1,1,0-.65H221a.33.33,0,1,1,0,.65Zm-6.46,0H212.6a.33.33,0,0,1,0-.65h1.94a.33.33,0,0,1,0,.65Zm-6.47,0h-1.93a.33.33,0,1,1,0-.65h1.93a.33.33,0,1,1,0,.65Zm-6.46,0h-1.94a.33.33,0,0,1,0-.65h1.94a.33.33,0,0,1,0,.65Zm-6.47,0h-1.93a.33.33,0,1,1,0-.65h1.93a.33.33,0,1,1,0,.65Zm-6.46,0h-1.94a.33.33,0,0,1,0-.65h1.94a.33.33,0,0,1,0,.65Zm-6.46,0h-1.94a.33.33,0,1,1,0-.65h1.94a.33.33,0,0,1,0,.65Zm-6.47,0h-1.94a.33.33,0,0,1,0-.65h1.94a.33.33,0,0,1,0,.65Zm-6.46,0h-1.94a.33.33,0,1,1,0-.65h1.94a.33.33,0,0,1,0,.65Z" transform="translate(-26.47 -122.36)"/><path class="cls-12" d="M231.84,279.62l.8-8.57a6.6,6.6,0,0,1,5-3.85c8.3-1.32,28.87-3.65,38.78,3.76l1.48,10Z" transform="translate(-26.47 -122.36)"/><path class="cls-12" d="M257.76,271.37a11.86,11.86,0,0,1-5.74,0,5.18,5.18,0,0,1-4-5V239.49h13.66v26.83A5.21,5.21,0,0,1,257.76,271.37Z" transform="translate(-26.47 -122.36)"/><path class="cls-12" d="M364.19,279.62l.81-8.57a6.57,6.57,0,0,1,5-3.85c8.29-1.32,28.86-3.65,38.77,3.76l1.48,10Z" transform="translate(-26.47 -122.36)"/><path class="cls-12" d="M390.11,271.37a11.86,11.86,0,0,1-5.74,0,5.18,5.18,0,0,1-4-5V236.66h13.67v29.66A5.21,5.21,0,0,1,390.11,271.37Z" transform="translate(-26.47 -122.36)"/><path class="cls-13" d="M246.67,246.07l147-4.86a7.07,7.07,0,0,0,6.76-5.82,59.68,59.68,0,0,0,.46-18.63,17,17,0,0,0-16.43-14.34c-27.41-.65-97.2-.63-135.67,14.58a13.43,13.43,0,0,0-8.11,9.32,32.5,32.5,0,0,0-.36,14.92A6.34,6.34,0,0,0,246.67,246.07Z" transform="translate(-26.47 -122.36)"/><path class="cls-11" d="M244.13,238.43a.63.63,0,0,1-.64-.58,34.2,34.2,0,0,1,.88-11.07,12.25,12.25,0,0,1,8.34-8.48c8.19-2.4,23.83-6.49,36.61-6.85a.65.65,0,0,1,0,1.3c-12.64.35-28.16,4.4-36.29,6.79a11,11,0,0,0-7.46,7.58,34.07,34.07,0,0,0-.84,10.6.64.64,0,0,1-.58.71Z" transform="translate(-26.47 -122.36)"/><path class="cls-14" d="M163.66,276.28c47.48-.61,252.86-2.77,312.51,4.43a12.17,12.17,0,0,1,10.45,9.41c3.52,15.94,10.61,53,9.77,89.66a10.63,10.63,0,0,1-8.71,10.14L351.51,415.68H303.13L158,386.84a11.36,11.36,0,0,1-9.15-10.54c-.94-18.46-2.42-61.78,2.58-89.66A12.56,12.56,0,0,1,163.66,276.28Z" transform="translate(-26.47 -122.36)"/><path class="cls-11" d="M350.39,404.27h-1.94a.33.33,0,1,1,0-.65h1.94a.33.33,0,0,1,0,.65Zm-6.47,0H342a.33.33,0,0,1,0-.65h1.94a.33.33,0,0,1,0,.65Zm-6.46,0h-1.94a.33.33,0,1,1,0-.65h1.94a.33.33,0,0,1,0,.65Zm-6.47,0h-1.94a.33.33,0,0,1,0-.65H331a.33.33,0,0,1,0,.65Zm-6.46,0h-1.94a.33.33,0,1,1,0-.65h1.94a.33.33,0,0,1,0,.65Zm-6.47,0h-1.94a.33.33,0,0,1,0-.65h1.94a.33.33,0,0,1,0,.65Zm-6.46,0h-1.94a.33.33,0,1,1,0-.65h1.94a.33.33,0,0,1,0,.65Zm-6.47,0h-.84l-2-.39a.32.32,0,0,1,.13-.63l1.9.38h.78a.33.33,0,0,1,0,.65Zm49.7-.84a.31.31,0,0,1-.31-.26.32.32,0,0,1,.25-.38l1.91-.36a.33.33,0,0,1,.38.26.32.32,0,0,1-.26.37l-1.91.37ZM298,403h-.07l-1.9-.38a.32.32,0,0,1,.13-.63l1.9.38a.32.32,0,0,1,.25.38A.32.32,0,0,1,298,403Zm63.23-.78a.32.32,0,0,1-.31-.26.32.32,0,0,1,.25-.38l1.91-.36a.32.32,0,0,1,.38.26.32.32,0,0,1-.26.37l-1.91.36Zm-69.57-.48h-.07l-1.9-.38a.32.32,0,0,1,.13-.63l1.9.38a.32.32,0,0,1,.25.38A.32.32,0,0,1,291.61,401.75Zm75.93-.72a.32.32,0,0,1-.32-.27.32.32,0,0,1,.26-.37l1.9-.36a.32.32,0,0,1,.38.25.32.32,0,0,1-.26.38l-1.9.36Zm-82.28-.54h-.06l-1.9-.38a.31.31,0,0,1-.25-.38.32.32,0,0,1,.38-.25l1.9.38a.32.32,0,0,1,.25.38A.32.32,0,0,1,285.26,400.49Zm88.63-.66a.33.33,0,0,1-.06-.65l1.91-.36a.32.32,0,0,1,.37.26.32.32,0,0,1-.25.38l-1.91.36Zm-95-.6h-.06l-1.9-.38a.32.32,0,0,1-.26-.38.33.33,0,0,1,.38-.25l1.91.38a.32.32,0,0,1,.25.38A.32.32,0,0,1,278.92,399.23Zm101.32-.61a.32.32,0,0,1-.32-.26.34.34,0,0,1,.26-.38l1.91-.36a.33.33,0,0,1,.12.64l-1.91.36ZM272.58,398h-.06l-1.9-.38a.32.32,0,0,1-.26-.38.33.33,0,0,1,.38-.25l1.91.38a.32.32,0,0,1,.25.38A.33.33,0,0,1,272.58,398Zm114-.55a.32.32,0,0,1-.31-.26.32.32,0,0,1,.25-.38l1.91-.36a.33.33,0,0,1,.38.26.34.34,0,0,1-.26.38l-1.91.36Zm-120.35-.71h-.06l-1.9-.38a.32.32,0,0,1-.26-.38.33.33,0,0,1,.38-.25l1.91.38a.32.32,0,0,1,.25.38A.33.33,0,0,1,266.24,396.71ZM393,396.22a.32.32,0,0,1-.06-.64l1.9-.36a.32.32,0,0,1,.38.26.32.32,0,0,1-.26.37l-1.9.36Zm-133-.77h-.06l-1.9-.38a.32.32,0,0,1-.26-.38.33.33,0,0,1,.38-.25l1.9.38a.32.32,0,0,1,.26.38A.33.33,0,0,1,259.9,395.45ZM399.3,395a.33.33,0,0,1-.32-.26.32.32,0,0,1,.26-.38l1.9-.36a.32.32,0,1,1,.12.63l-1.9.36Zm-145.74-.83h-.06l-1.9-.38a.32.32,0,0,1-.26-.38.33.33,0,0,1,.38-.25l1.9.38a.32.32,0,0,1,.26.38A.33.33,0,0,1,253.56,394.19Zm152.09-.37a.33.33,0,0,1-.32-.27.32.32,0,0,1,.26-.37l1.91-.36a.31.31,0,0,1,.37.25.32.32,0,0,1-.25.38l-1.91.36Zm-158.43-.89h-.06l-1.91-.38a.32.32,0,0,1-.25-.38.32.32,0,0,1,.38-.25l1.9.38a.32.32,0,0,1,.26.38A.33.33,0,0,1,247.22,392.93ZM412,392.62a.31.31,0,0,1-.31-.27.33.33,0,0,1,.25-.38l1.91-.36a.34.34,0,0,1,.38.26.33.33,0,0,1-.26.38l-1.91.36Zm-171.12-1h-.06l-1.91-.38a.32.32,0,0,1,.13-.63l1.9.37a.33.33,0,0,1,.26.38A.32.32,0,0,1,240.88,391.66Zm177.47-.25a.31.31,0,0,1-.31-.26.32.32,0,0,1,.26-.38l1.9-.36a.32.32,0,0,1,.38.26.33.33,0,0,1-.26.38l-1.9.36Zm-183.81-1h-.07l-1.9-.38a.32.32,0,0,1-.25-.38.31.31,0,0,1,.38-.25l1.9.37a.32.32,0,0,1,.25.38A.31.31,0,0,1,234.54,390.4Zm190.17-.19a.32.32,0,0,1-.06-.64l1.9-.36a.32.32,0,0,1,.38.26.33.33,0,0,1-.26.38l-1.9.36ZM228.2,389.14h-.07l-1.9-.38a.33.33,0,0,1-.25-.38.31.31,0,0,1,.38-.25l1.9.37a.32.32,0,0,1,.25.38A.31.31,0,0,1,228.2,389.14ZM431.06,389a.33.33,0,0,1-.32-.26.32.32,0,0,1,.26-.38l1.91-.36a.32.32,0,0,1,.37.26.31.31,0,0,1-.25.37l-1.91.36Zm-209.2-1.13h-.07l-1.9-.38a.33.33,0,0,1-.25-.38.31.31,0,0,1,.38-.25l1.9.37a.33.33,0,0,1,.25.38A.31.31,0,0,1,221.86,387.88Zm215.55-.07a.33.33,0,0,1-.32-.27.32.32,0,0,1,.26-.37l1.91-.36a.32.32,0,0,1,.12.63l-1.91.36Zm-221.89-1.19h-.07l-1.9-.38a.33.33,0,0,1-.25-.38.32.32,0,0,1,.38-.26l1.9.38a.33.33,0,0,1,.25.38A.31.31,0,0,1,215.52,386.62Zm228.24,0a.32.32,0,0,1-.31-.27.31.31,0,0,1,.25-.37l1.91-.36a.32.32,0,0,1,.38.25.33.33,0,0,1-.26.38l-1.91.36Zm6.36-1.21a.31.31,0,0,1-.32-.26.33.33,0,0,1,.26-.38l1.9-.36a.33.33,0,0,1,.38.26.32.32,0,0,1-.26.38l-1.9.36Zm-240.95,0h-.06l-1.9-.38a.32.32,0,0,1-.25-.38.32.32,0,0,1,.38-.26l1.9.38a.33.33,0,0,1,.25.38A.31.31,0,0,1,209.17,385.36Zm247.3-1.16a.32.32,0,0,1-.32-.26.33.33,0,0,1,.26-.38l1.9-.36a.32.32,0,0,1,.38.26.33.33,0,0,1-.26.38l-1.9.36Zm-253.64-.1h-.06l-1.9-.38a.33.33,0,1,1,.12-.64l1.91.38a.33.33,0,0,1,.25.38A.31.31,0,0,1,202.83,384.1Zm260-1.1a.33.33,0,0,1-.32-.26.32.32,0,0,1,.26-.38l1.91-.36a.32.32,0,0,1,.37.26.33.33,0,0,1-.25.38l-1.91.36Zm-266.33-.16h-.06l-1.9-.38a.33.33,0,0,1,.12-.64l1.91.38a.33.33,0,0,1,.25.38A.32.32,0,0,1,196.49,382.84Zm272.68-1a.31.31,0,0,1-.31-.26.32.32,0,0,1,.25-.38l1.91-.36a.33.33,0,0,1,.38.26.32.32,0,0,1-.26.37l-1.91.36Zm-279-.22h-.06l-1.9-.38a.33.33,0,1,1,.12-.64l1.91.38a.32.32,0,0,1-.07.64Zm285.37-1a.32.32,0,0,1-.31-.27.31.31,0,0,1,.25-.37l1.91-.36a.32.32,0,1,1,.12.63l-1.91.36Zm-291.71-.28h-.06l-1.9-.37a.33.33,0,0,1-.26-.38.33.33,0,0,1,.38-.26l1.9.38a.32.32,0,0,1-.06.64Zm298.07-.92a.32.32,0,0,1-.32-.27.32.32,0,0,1,.26-.37l1.9-.37a.33.33,0,0,1,.38.26.32.32,0,0,1-.26.38l-1.9.36Zm-304.41-.34h-.06l-1.9-.37a.33.33,0,0,1-.26-.38.33.33,0,0,1,.38-.26l1.9.38a.32.32,0,0,1-.06.64Zm-6.34-1.26h-.06l-1.91-.37a.33.33,0,0,1-.25-.38.33.33,0,0,1,.38-.26l1.9.38a.32.32,0,0,1,.26.38A.33.33,0,0,1,171.13,377.8Zm-6.34-1.26h-.06l-1.91-.37a.33.33,0,0,1-.25-.38.32.32,0,0,1,.38-.26l1.9.38a.32.32,0,0,1,.26.38A.33.33,0,0,1,164.79,376.54Zm319.93-1.29h0a.32.32,0,0,1-.32-.32V373a.32.32,0,0,1,.32-.32h0a.32.32,0,0,1,.33.32v1.94A.32.32,0,0,1,484.72,375.25Zm-324.24-1.72a.34.34,0,0,1-.33-.31c0-.62-.05-1.27-.08-1.94a.32.32,0,1,1,.64,0c0,.67.06,1.32.09,1.94a.32.32,0,0,1-.31.34Zm324.19-4.74a.32.32,0,0,1-.32-.32c0-.64,0-1.29,0-1.93a.31.31,0,0,1,.31-.33.29.29,0,0,1,.33.31c0,.65,0,1.29.05,1.94a.32.32,0,0,1-.32.33ZM160.2,367.07a.32.32,0,0,1-.32-.31l-.08-1.94a.34.34,0,0,1,.31-.34.33.33,0,0,1,.34.31l.07,1.94a.32.32,0,0,1-.31.34Zm324.28-4.74a.32.32,0,0,1-.33-.31c0-.64,0-1.29-.08-1.93a.32.32,0,0,1,.31-.34.32.32,0,0,1,.33.31l.09,1.94a.32.32,0,0,1-.31.33ZM160,360.6a.32.32,0,0,1-.33-.31l-.05-1.94a.31.31,0,0,1,.31-.33.32.32,0,0,1,.33.31l.06,1.94a.31.31,0,0,1-.31.33Zm324.16-4.72a.32.32,0,0,1-.32-.3l-.12-1.94a.32.32,0,1,1,.64,0c.05.64.09,1.29.13,1.94a.33.33,0,0,1-.31.34Zm-324.33-1.74a.32.32,0,0,1-.32-.32l0-1.94a.34.34,0,0,1,.32-.33.32.32,0,0,1,.32.32l0,1.94a.31.31,0,0,1-.31.33Zm323.88-4.71a.33.33,0,0,1-.33-.3c-.05-.64-.1-1.29-.16-1.93a.33.33,0,0,1,.3-.35.33.33,0,0,1,.35.29c0,.65.11,1.29.16,1.94a.33.33,0,0,1-.3.35Zm-324-1.75a.33.33,0,0,1-.32-.32l0-1.94a.32.32,0,0,1,.32-.33h0a.33.33,0,0,1,.33.32l0,1.94a.33.33,0,0,1-.32.33ZM483.11,343a.33.33,0,0,1-.32-.3c-.06-.64-.13-1.28-.19-1.92a.32.32,0,1,1,.64-.07c.07.64.13,1.29.19,1.93a.31.31,0,0,1-.29.35Zm-323.45-1.78a.33.33,0,0,1-.33-.32V339a.33.33,0,0,1,.33-.33h0a.32.32,0,0,1,.32.33v1.94a.32.32,0,0,1-.32.32Zm322.77-4.66a.32.32,0,0,1-.32-.28c-.08-.65-.15-1.29-.23-1.93a.33.33,0,0,1,.28-.36.32.32,0,0,1,.36.29c.08.64.16,1.28.23,1.92a.33.33,0,0,1-.28.36Zm-322.75-1.8h0a.33.33,0,0,1-.32-.33c0-.64,0-1.29,0-1.94a.33.33,0,0,1,.32-.32h0a.33.33,0,0,1,.32.33l0,1.94A.32.32,0,0,1,159.68,334.75Zm322-4.62a.32.32,0,0,1-.32-.28c-.08-.64-.17-1.28-.25-1.92a.31.31,0,0,1,.27-.36.33.33,0,0,1,.37.28c.08.63.17,1.27.25,1.92a.31.31,0,0,1-.28.36Zm-321.86-1.85h0a.32.32,0,0,1-.31-.33c0-.64,0-1.29,0-1.94a.32.32,0,0,1,.34-.31.32.32,0,0,1,.31.33c0,.65,0,1.29-.05,1.94A.31.31,0,0,1,159.78,328.28Zm321-4.55a.32.32,0,0,1-.32-.28c-.1-.64-.19-1.28-.29-1.92a.32.32,0,0,1,.27-.36.31.31,0,0,1,.37.27c.1.63.19,1.27.29,1.92a.33.33,0,0,1-.28.37ZM160,321.82h0a.34.34,0,0,1-.32-.33c0-.65.05-1.3.08-1.95a.35.35,0,0,1,.34-.31.34.34,0,0,1,.31.34c0,.65-.06,1.29-.08,1.94A.33.33,0,0,1,160,321.82Zm319.81-4.48a.32.32,0,0,1-.32-.28c-.11-.64-.21-1.28-.31-1.91a.32.32,0,0,1,.63-.11c.11.64.21,1.27.32,1.92a.33.33,0,0,1-.27.37Zm-319.53-2h0a.33.33,0,0,1-.31-.34c0-.65.07-1.3.11-1.95a.33.33,0,0,1,.65,0c0,.65-.08,1.29-.11,1.94A.33.33,0,0,1,160.25,315.36ZM478.7,311a.31.31,0,0,1-.31-.27c-.12-.65-.23-1.28-.34-1.91a.32.32,0,1,1,.63-.11c.12.62.23,1.26.34,1.91a.32.32,0,0,1-.26.37Zm-318-2.06h0a.32.32,0,0,1-.3-.35c0-.65.09-1.29.15-1.93a.32.32,0,0,1,.34-.3.33.33,0,0,1,.3.35L161,308.6A.32.32,0,0,1,160.66,308.9Zm316.88-4.31a.32.32,0,0,1-.32-.26c-.12-.65-.24-1.28-.36-1.9a.32.32,0,0,1,.25-.38.32.32,0,0,1,.38.25c.12.62.24,1.26.37,1.91a.33.33,0,0,1-.26.38Zm-316.33-2.13h0a.31.31,0,0,1-.29-.35c.06-.65.13-1.29.19-1.93a.33.33,0,0,1,.65.07c-.07.64-.14,1.28-.2,1.92A.33.33,0,0,1,161.21,302.46Zm315.07-4.21A.32.32,0,0,1,476,298l-.4-1.9a.32.32,0,0,1,.25-.38.31.31,0,0,1,.38.25l.4,1.9a.32.32,0,0,1-.25.38ZM161.94,296h-.05a.32.32,0,0,1-.27-.36c.08-.65.17-1.29.26-1.93a.31.31,0,0,1,.36-.27.32.32,0,0,1,.28.36c-.09.63-.18,1.27-.26,1.92A.32.32,0,0,1,161.94,296Zm312.27-3.41h0l-1.92-.22A.33.33,0,0,1,472,292a.32.32,0,0,1,.36-.28l1.93.21a.33.33,0,0,1,.28.36A.32.32,0,0,1,474.21,292.62Zm-6.43-.67h0l-1.93-.18a.31.31,0,0,1-.29-.35.32.32,0,0,1,.35-.29l1.93.17a.33.33,0,0,1,0,.65Zm-6.44-.54h0l-1.93-.14a.33.33,0,0,1-.3-.35.32.32,0,0,1,.35-.29l1.93.14a.33.33,0,0,1,0,.65Zm-6.45-.46h0l-1.94-.12a.33.33,0,0,1-.3-.35.31.31,0,0,1,.34-.3l1.94.12a.33.33,0,0,1,.3.35A.32.32,0,0,1,454.89,291Zm-6.46-.39h0l-1.94-.11a.32.32,0,0,1-.31-.34.34.34,0,0,1,.34-.31l1.94.11a.32.32,0,0,1,.31.34A.34.34,0,0,1,448.43,290.56Zm-6.45-.35h0l-1.94-.09a.33.33,0,0,1,0-.65l1.93.1a.32.32,0,0,1,.31.34A.32.32,0,0,1,442,290.21Zm-6.46-.3h0l-1.93-.08a.32.32,0,0,1-.31-.34.33.33,0,0,1,.34-.31l1.93.08a.32.32,0,0,1,.31.34A.32.32,0,0,1,435.52,289.91Zm-6.46-.27h0l-1.94-.07a.32.32,0,0,1-.31-.34.33.33,0,0,1,.33-.31l1.94.08a.31.31,0,0,1,.31.33A.32.32,0,0,1,429.06,289.64Zm-266.16,0h-.05a.32.32,0,0,1-.27-.37l.11-.61a1.15,1.15,0,0,1,1.12-1H164a.29.29,0,0,1,.32.32.31.31,0,0,1-.31.32h-.17a.49.49,0,0,0-.49.42l-.11.61A.32.32,0,0,1,162.9,289.64Zm259.7-.24h0l-1.94-.07a.31.31,0,0,1-.31-.33.3.3,0,0,1,.33-.31l1.94.06a.32.32,0,0,1,.31.34A.32.32,0,0,1,422.6,289.4Zm-6.46-.22h0l-1.94-.06a.31.31,0,0,1-.31-.33.32.32,0,0,1,.33-.31l1.94.06a.31.31,0,0,1,.31.33A.32.32,0,0,1,416.14,289.18Zm-6.47-.19h0l-1.93-.06a.32.32,0,0,1-.32-.33.32.32,0,0,1,.33-.31l1.94,0a.33.33,0,0,1,0,.65Zm-6.46-.18h0l-1.94-.05a.32.32,0,0,1-.31-.33.31.31,0,0,1,.33-.32l1.94.05a.34.34,0,0,1,.32.34A.33.33,0,0,1,403.21,288.81Zm-6.46-.16h0l-1.94,0a.32.32,0,0,1-.31-.33.31.31,0,0,1,.33-.32l1.94,0a.33.33,0,0,1,.31.34A.32.32,0,0,1,396.75,288.65Zm-6.47-.14h0l-1.94,0a.33.33,0,1,1,0-.65l1.94,0a.32.32,0,0,1,.32.33A.33.33,0,0,1,390.28,288.51Zm-6.46-.13h0l-1.93,0a.32.32,0,0,1-.32-.33.31.31,0,0,1,.33-.32l1.94,0a.31.31,0,0,1,.31.33A.32.32,0,0,1,383.82,288.38Zm-215.31-.1a.33.33,0,0,1,0-.65l1.94,0a.33.33,0,0,1,.32.32.32.32,0,0,1-.32.32l-1.94,0Zm208.85,0h0l-1.94,0a.33.33,0,1,1,0-.65h0l1.94,0a.33.33,0,0,1,.32.33A.32.32,0,0,1,377.36,288.26ZM175,288.2a.33.33,0,0,1-.33-.32.34.34,0,0,1,.32-.33l1.94,0a.31.31,0,0,1,.33.32.32.32,0,0,1-.32.33l-1.94,0Zm195.91-.05h0l-1.94,0a.32.32,0,0,1-.32-.32.31.31,0,0,1,.33-.32l1.94,0a.32.32,0,0,1,.32.32A.33.33,0,0,1,370.89,288.15Zm-189.44,0a.32.32,0,0,1-.33-.32.33.33,0,0,1,.32-.33l1.94,0a.33.33,0,1,1,0,.65l-1.94,0Zm6.46-.07a.32.32,0,0,1-.32-.32.32.32,0,0,1,.32-.32l1.94,0a.32.32,0,1,1,0,.64l-1.94,0Zm176.52,0h0l-1.94,0a.32.32,0,0,1,0-.64h0l1.94,0a.33.33,0,0,1,0,.65Zm-170-.06a.32.32,0,0,1-.32-.32.32.32,0,0,1,.32-.33h1.94a.31.31,0,0,1,.32.32.32.32,0,0,1-.32.32l-1.94,0ZM358,288h0L356,288a.32.32,0,0,1-.32-.33.31.31,0,0,1,.33-.32l1.94,0a.32.32,0,0,1,.32.32A.33.33,0,0,1,358,288Zm-157.11,0a.32.32,0,0,1-.32-.32.32.32,0,0,1,.32-.33h1.94a.32.32,0,1,1,0,.64l-1.94,0Zm150.65,0h0l-1.94,0a.33.33,0,0,1,0-.65l1.94,0a.32.32,0,0,1,.32.33A.32.32,0,0,1,351.5,287.9Zm-144.18,0a.33.33,0,0,1-.33-.32.32.32,0,0,1,.32-.33l1.94,0h0a.33.33,0,0,1,.32.32.32.32,0,0,1-.32.33l-1.94,0Zm6.46-.05a.33.33,0,0,1,0-.65l1.94,0h0a.34.34,0,0,1,.33.33.33.33,0,0,1-.33.32l-1.94,0Zm131.25,0h0l-1.94,0a.32.32,0,0,1-.32-.32.32.32,0,0,1,.32-.32h0l1.94,0a.32.32,0,0,1,.32.32A.32.32,0,0,1,345,287.83Zm-124.78,0a.33.33,0,0,1,0-.65h1.94a.31.31,0,0,1,.32.32.33.33,0,0,1-.32.33Zm118.32,0h-1.94a.32.32,0,0,1-.32-.33.32.32,0,0,1,.32-.32h0l1.94,0a.32.32,0,0,1,0,.64Zm-111.85,0a.33.33,0,1,1,0-.65h1.95a.32.32,0,0,1,.32.32.32.32,0,0,1-.32.32l-1.94,0Zm105.38,0h-1.94a.33.33,0,1,1,0-.65l1.94,0a.32.32,0,0,1,.32.32A.32.32,0,0,1,332.1,287.72Zm-98.92,0a.33.33,0,0,1,0-.65h1.94a.32.32,0,0,1,.33.32.33.33,0,0,1-.33.33Zm92.46,0H323.7a.32.32,0,0,1-.32-.33.33.33,0,0,1,.32-.32h1.94a.32.32,0,0,1,.32.33A.32.32,0,0,1,325.64,287.68Zm-86,0a.32.32,0,0,1,0-.64h1.94a.32.32,0,0,1,0,.64Zm79.52,0h-1.94a.34.34,0,0,1-.32-.33.32.32,0,0,1,.33-.32h1.94a.32.32,0,1,1,0,.64Zm-73.05,0a.32.32,0,1,1,0-.64h1.95a.32.32,0,0,1,.32.32.32.32,0,0,1-.32.32Zm6.46,0a.33.33,0,0,1-.32-.32.32.32,0,0,1,.32-.33h1.94a.33.33,0,0,1,.33.33.32.32,0,0,1-.33.32Zm60.13,0h-1.94a.33.33,0,0,1,0-.65h1.94a.33.33,0,0,1,0,.65Zm-53.66,0a.33.33,0,0,1,0-.65H261a.32.32,0,0,1,.32.33.32.32,0,0,1-.32.32Zm47.19,0H304.3a.33.33,0,0,1-.32-.33.32.32,0,0,1,.33-.32h1.94a.32.32,0,1,1,0,.64Zm-40.72,0a.32.32,0,0,1-.33-.32.33.33,0,0,1,.33-.33h1.94a.32.32,0,0,1,.32.32.33.33,0,0,1-.32.33Zm34.26,0h-1.94a.32.32,0,1,1,0-.64h1.94a.32.32,0,0,1,.32.32A.32.32,0,0,1,299.78,287.58Zm-27.8,0a.33.33,0,0,1,0-.65h1.94a.32.32,0,0,1,.33.32.33.33,0,0,1-.33.33Zm21.33,0h-1.94a.32.32,0,1,1,0-.64h1.94a.32.32,0,0,1,.32.32A.33.33,0,0,1,293.31,287.57Zm-14.86,0a.32.32,0,0,1-.32-.32.32.32,0,0,1,.32-.33h1.93a.33.33,0,0,1,.33.33.32.32,0,0,1-.33.32Zm8.4,0h-1.94a.33.33,0,0,1,0-.65h1.94a.32.32,0,0,1,.32.33A.32.32,0,0,1,286.85,287.56Z" transform="translate(-26.47 -122.36)"/><path class="cls-12" d="M347,436H304.57a11,11,0,0,1-10.89-9.62l-4.89-40.78a10.93,10.93,0,0,1,10.89-12.21h50.91a10.93,10.93,0,0,1,10.92,11.88L357.88,426A11,11,0,0,1,347,436Z" transform="translate(-26.47 -122.36)"/><path class="cls-15" d="M331.14,419.77s-4-10.49-8.64-9.53-9.74,4.54-9.74,4.54l-7.48,10.11s21,8.26,28.37,3.53a161.57,161.57,0,0,0,48.5-.74,106.41,106.41,0,0,1-7.62-23C360.82,412.45,346.05,418.25,331.14,419.77Z" transform="translate(-26.47 -122.36)"/><path class="cls-16" d="M444.69,343.7s-30.69,38.65-70.16,61a106.41,106.41,0,0,0,7.62,23c20.48-3.36,44.18-11.38,64.26-29.2Z" transform="translate(-26.47 -122.36)"/><path class="cls-17" d="M214.66,348.81l1.9,51.17A141.15,141.15,0,0,0,232,404.37c3.06-9.88,9.82-22,15.36-31C227.06,366.16,214.66,348.81,214.66,348.81Z" transform="translate(-26.47 -122.36)"/><path class="cls-18" d="M316.17,347.94c-27.89,30.11-50.47,31.88-68.77,25.41-5.54,9-12.3,21.14-15.36,31,74.47,16.42,92-52,92-52Z" transform="translate(-26.47 -122.36)"/><path class="cls-19" d="M321.82,344.74s3.21-3.45,9.16-2.37,11.24,3.15,14.94,0,5,1.08,5,1.08l-11.09,8.43Z" transform="translate(-26.47 -122.36)"/><path class="cls-20" d="M315.19,350.64s2.2-9.21,8.83-7.95,21.7,9.45,25.58,7.95,8.84-5.12,11.39-3.85l-4.49,5.58S368,345.72,370,349.8l-19.19,10.8S322.76,357.79,315.19,350.64Z" transform="translate(-26.47 -122.36)"/><path class="cls-21" d="M118.11,503.38s-9.52-121.77,59.86-164c0,0,19.39-12.8,43.56,12s16.39,50.55-3.9,74.7-40.94,54.4-36,78.54c-5.76,2.78-16.92,6-31.61,6A73.28,73.28,0,0,1,118.11,503.38Z" transform="translate(-26.47 -122.36)"/><path class="cls-22" d="M212.93,302.36c0,1.62-23.12,34.43-23.12,34.43s4.15,8.17,23.94,14.8l17.09-35.14Z" transform="translate(-26.47 -122.36)"/><path class="cls-23" d="M203.85,415S247.68,451.72,295,435.7a11.32,11.32,0,0,1,8.89.67l13.6,7.19a12.14,12.14,0,0,0,16.1-4.51,25.53,25.53,0,0,0,3.83-10.23L310.79,418l2-3.26s-13-1.11-16.41,8.21c0,0-24.75,10.3-66.51-35.63C229.84,387.36,210.89,403.47,203.85,415Z" transform="translate(-26.47 -122.36)"/><path class="cls-24" d="M201.49,414.85a1,1,0,0,1-.54-.16c-18.51-12.51-27.22-32.69-27.31-32.9a1,1,0,0,1,.52-1.27,1,1,0,0,1,1.27.52c.08.19,8.58,19.87,26.6,32a1,1,0,0,1,.26,1.35A1,1,0,0,1,201.49,414.85Z" transform="translate(-26.47 -122.36)"/><path class="cls-25" d="M229,387a1,1,0,0,1-.82-.44c-.06-.09-5.7-8.87-16.44-28.11-3.27-5.86-7.56-9.56-12.76-11-8.62-2.41-16.93,2.21-17,2.26A1,1,0,1,1,181,348c.36-.2,8.33-5,17.73-2.37a24.39,24.39,0,0,1,14.69,11.88c10.71,19.17,16.32,27.91,16.38,28a1,1,0,0,1-.29,1.34A.91.91,0,0,1,229,387Z" transform="translate(-26.47 -122.36)"/><path class="cls-26" d="M231.12,283.56s8.22,18.88,8.77,28.79,2.69,16.34-8.77,18.34S210,327,204.78,317.1c0,0-8.2-15.21-6.36-21.44S231.12,283.56,231.12,283.56Z" transform="translate(-26.47 -122.36)"/><path class="cls-27" d="M208.69,310l.66-.28a1.58,1.58,0,0,0,.76-2.17c-1.61-3.12-4.76-10.27-.69-11.94,5.24-2.15,26-6.39,30.5-13.76,4.31-7.08.49-16.23-5.25-18.83a.78.78,0,0,0-1,.34l-.48.9a.77.77,0,0,1-1.43-.15h0a.78.78,0,0,0-1.41-.2c-1.37,2.21-5.09,5.78-15,7.62-14.14,2.61-23.49,8.33-23.72,18.1a.78.78,0,0,1-1.2.64c-1.05-.64-2.72-.93-5,.94-3.88,3.27-2.29,11.74,6.22,18.7a.78.78,0,0,1,0,1.25c-1.54,1-3.84,3.39,2.12,6.58,6.16,3.29,10.77,3,12.54,2.73a.78.78,0,0,0,.63-.93L205,311a.78.78,0,0,1,.76-.95Z" transform="translate(-26.47 -122.36)"/><path class="cls-28" d="M209.05,311.81s-3.14-12.06-8.55-8.67,2.81,13.51,7.16,14Z" transform="translate(-26.47 -122.36)"/><path class="cls-29" d="M303.89,436.37s11.14,10.9,13.29,9.31a39.22,39.22,0,0,0,4.56-4.89,4.8,4.8,0,0,0,.33-5.64l-2.63-4a7.59,7.59,0,0,0-11.33-1.65A13.64,13.64,0,0,0,303.89,436.37Z" transform="translate(-26.47 -122.36)"/><path class="cls-30" d="M480.69,507.05s-1.37-40.53-29.83-91.07a81.08,81.08,0,0,1-9.29-52.15l3.12-20.13s39.06-13.22,82.35-.56c0,0,60,37.19,19.91,163.91a79.11,79.11,0,0,1-66.26,0Z" transform="translate(-26.47 -122.36)"/><path class="cls-31" d="M451.34,318l10.13,24.33a4.83,4.83,0,0,0,3.66,2.92c5.84,1,20,2.56,29.23-3.54a2.34,2.34,0,0,0,.63-3.31l-18.71-26.86Z" transform="translate(-26.47 -122.36)"/><path class="cls-3" d="M476.32,432.34a2.24,2.24,0,0,0-1.42,3.21l29.29,56.18a2.25,2.25,0,0,0,2.62,1.12l95.84-27.67a2.25,2.25,0,0,0,1.54-2.78l-16.51-57.16a2.25,2.25,0,0,0-2.73-1.55Z" transform="translate(-26.47 -122.36)"/><path class="cls-3" d="M482.5,425.73a2.37,2.37,0,0,0-1.67,3.11l23.46,63.71a2.34,2.34,0,0,0,2.86,1.44l95.55-27.58a2.36,2.36,0,0,0,1.65-2.76l-13.24-61.32a2.35,2.35,0,0,0-2.85-1.79Z" transform="translate(-26.47 -122.36)"/><path class="cls-32" d="M490.82,419.3a2.92,2.92,0,0,0-2.4,3.54l15.93,68.77a2.91,2.91,0,0,0,3.64,2.14l94.11-27.17a2.92,2.92,0,0,0,2-3.52l-14.48-56.14a2.9,2.9,0,0,0-3.25-2.15Z" transform="translate(-26.47 -122.36)"/><path class="cls-33" d="M567,445.53c7.3-55.17-35.22-97.59-35.22-97.59l-25.29,29.49c19.2,23.94,28.33,45.87,32.5,63.1C544.52,438.92,557.84,436.38,567,445.53Z" transform="translate(-26.47 -122.36)"/><path class="cls-34" d="M539,441.18a.65.65,0,0,1-.63-.5c-5.17-21.37-16.07-42.51-32.38-62.85a.65.65,0,0,1,1-.81c16.43,20.49,27.41,41.8,32.63,63.36a.65.65,0,0,1-.48.78Z" transform="translate(-26.47 -122.36)"/><path class="cls-35" d="M539,440.53c3.88,16,3.47,28,2.88,33.67a4.44,4.44,0,0,1-4.11,4c-2.45.17-5.78.39-8.76.57-3.28.18-6.91-1.89-9.34-3.62A1.47,1.47,0,0,0,517.5,477c1.82,3.55,6.42,6.71,9.6,8.57a1.52,1.52,0,0,1-.35,2.77l-13.58,3.84c22.31,21,37-2.49,37-2.49,9.85-15.22,14.94-30.09,16.8-44.14C557.84,436.38,544.52,438.92,539,440.53Z" transform="translate(-26.47 -122.36)"/><path class="cls-36" d="M461.81,280.77c-.42.4-17.95,34.81-17.95,34.81l19.86,9.59L485.18,295S468.93,274.07,461.81,280.77Z" transform="translate(-26.47 -122.36)"/><path class="cls-37" d="M476.15,298.64l-9.9,16.51a3,3,0,0,1-.55.68c-1.18,1.1-5.21,4.29-8.33-.06-2.66-3.7-5.15-7.07-7.83-8.46a3.16,3.16,0,0,0-4.27,1.41,118.88,118.88,0,0,0-6.78,16.08,3.16,3.16,0,0,0,1.83,3.87c4,1.63,12,4.58,19,5.55a3.18,3.18,0,0,0,3-1.27c3-4.16,11.58-15.78,14.5-18.69,2.72-2.7,7.72-1.68,10-1a3.21,3.21,0,0,0,2.53-.34c2.29-1.37,6.28-4.81,2.63-10.62a3.17,3.17,0,0,1,1-4.31c2.55-1.68,5.33-4.83,2.68-9.94s-7.45-5.64-10.7-5.24a3.28,3.28,0,0,1-3.45-1.92,2.11,2.11,0,0,0-1.63-1.29,3.06,3.06,0,0,1-2.49-3.61c.57-2.93.14-6.73-4.53-9.3-8.58-4.71-16.08,3-18,9.45s7.67,11.06,13.7,11.83c4.43.56,6.86,5.39,7.83,7.92A3.14,3.14,0,0,1,476.15,298.64Z" transform="translate(-26.47 -122.36)"/><path class="cls-38" d="M473.13,320.33s3.81-11.16,8.69-10.75,8.72,5.27,2.67,10.74C477,327.11,473.13,320.33,473.13,320.33Z" transform="translate(-26.47 -122.36)"/><path class="cls-39" d="M567.38,211.2H461a4.11,4.11,0,0,1-4.12-4.11h0A4.11,4.11,0,0,1,461,203H567.38a4.12,4.12,0,0,1,4.12,4.12h0A4.12,4.12,0,0,1,567.38,211.2Z" transform="translate(-26.47 -122.36)"/><path class="cls-40" d="M580.16,227.32H473.81a4.11,4.11,0,0,1-4.12-4.11h0a4.12,4.12,0,0,1,4.12-4.12H580.16a4.13,4.13,0,0,1,4.12,4.12h0A4.12,4.12,0,0,1,580.16,227.32Z" transform="translate(-26.47 -122.36)"/><path class="cls-40" d="M549.92,259.56H473.81a4.11,4.11,0,0,1-4.12-4.11h0a4.12,4.12,0,0,1,4.12-4.12h76.11a4.12,4.12,0,0,1,4.11,4.12h0A4.11,4.11,0,0,1,549.92,259.56Z" transform="translate(-26.47 -122.36)"/><path class="cls-39" d="M592.09,243.44H485.73a4.11,4.11,0,0,1-4.11-4.11h0a4.12,4.12,0,0,1,4.11-4.12H592.09a4.12,4.12,0,0,1,4.11,4.12h0A4.11,4.11,0,0,1,592.09,243.44Z" transform="translate(-26.47 -122.36)"/><path class="cls-39" d="M155.68,429.24H49.32a4.12,4.12,0,0,1-4.11-4.12h0A4.11,4.11,0,0,1,49.32,421H155.68a4.11,4.11,0,0,1,4.11,4.11h0A4.12,4.12,0,0,1,155.68,429.24Z" transform="translate(-26.47 -122.36)"/><path class="cls-40" d="M168.45,445.36H62.1A4.13,4.13,0,0,1,58,441.24h0a4.12,4.12,0,0,1,4.12-4.11H168.45a4.11,4.11,0,0,1,4.12,4.11h0A4.12,4.12,0,0,1,168.45,445.36Z" transform="translate(-26.47 -122.36)"/><path class="cls-40" d="M138.21,477.6H62.1A4.12,4.12,0,0,1,58,473.48h0a4.12,4.12,0,0,1,4.12-4.11h76.11a4.12,4.12,0,0,1,4.12,4.11h0A4.12,4.12,0,0,1,138.21,477.6Z" transform="translate(-26.47 -122.36)"/><path class="cls-39" d="M180.38,461.48H74a4.12,4.12,0,0,1-4.12-4.12h0A4.11,4.11,0,0,1,74,453.25H180.38a4.12,4.12,0,0,1,4.12,4.11h0A4.13,4.13,0,0,1,180.38,461.48Z" transform="translate(-26.47 -122.36)"/><g class="cls-41"><path class="cls-11" d="M298.8,209.14a.92.92,0,0,1-.82-.49c-.41-.74-.8-1.5-1.18-2.26a.94.94,0,1,1,1.69-.83c.37.73.75,1.47,1.14,2.19a.93.93,0,0,1-.83,1.39Z" transform="translate(-26.47 -122.36)"/><path class="cls-11" d="M294.65,199.56a.94.94,0,0,1-.89-.65c-.51-1.56-1-3.17-1.35-4.78a.94.94,0,0,1,1.84-.43c.36,1.56.8,3.11,1.3,4.63a1,1,0,0,1-.6,1.19A1,1,0,0,1,294.65,199.56ZM292,187a1,1,0,0,1-.94-.86c-.16-1.64-.25-3.31-.26-5a.94.94,0,0,1,.93-1h0a1,1,0,0,1,.94.93c0,1.6.1,3.21.26,4.8a1,1,0,0,1-.85,1Zm.21-12.81h-.13a1,1,0,0,1-.81-1.06c.21-1.63.5-3.28.85-4.89a.94.94,0,0,1,1.84.4c-.34,1.56-.62,3.15-.82,4.73A.94.94,0,0,1,292.25,174.22Zm3.06-12.43a1,1,0,0,1-.33-.06.94.94,0,0,1-.56-1.21c.57-1.55,1.22-3.09,1.92-4.58a.94.94,0,1,1,1.7.8c-.67,1.44-1.3,2.93-1.85,4.43A.94.94,0,0,1,295.31,161.79Zm5.74-11.45a1,1,0,0,1-.51-.15.94.94,0,0,1-.28-1.3c.9-1.39,1.87-2.75,2.89-4a.94.94,0,1,1,1.48,1.16c-1,1.26-1.92,2.58-2.79,3.91A.93.93,0,0,1,301.05,150.34Zm8.13-9.89a.92.92,0,0,1-.67-.28.94.94,0,0,1,0-1.34c1.18-1.15,2.42-2.26,3.7-3.3a.94.94,0,1,1,1.19,1.45c-1.23,1-2.44,2.09-3.58,3.2A.93.93,0,0,1,309.18,140.45Zm10.12-7.84a.95.95,0,0,1-.5-1.75c1.41-.86,2.88-1.67,4.35-2.4a.94.94,0,0,1,.84,1.69c-1.43.71-2.84,1.49-4.2,2.32A1,1,0,0,1,319.3,132.61Zm11.61-5.4a.94.94,0,0,1-.3-1.83c1.56-.53,3.16-1,4.77-1.38a.95.95,0,1,1,.44,1.84c-1.55.37-3.11.82-4.62,1.32A.77.77,0,0,1,330.91,127.21Zm30.14-1.73-.2,0c-1.56-.33-3.15-.59-4.74-.79a.94.94,0,1,1,.24-1.87c1.63.2,3.28.48,4.89.82a.95.95,0,0,1-.19,1.87Zm-17.63-1a.94.94,0,0,1-.09-1.88c1.64-.17,3.31-.26,5-.29a.94.94,0,0,1,0,1.88c-1.59,0-3.21.12-4.8.28Z" transform="translate(-26.47 -122.36)"/><path class="cls-11" d="M371.06,128.58a.89.89,0,0,1-.36-.07c-.76-.31-1.54-.62-2.31-.9a.93.93,0,0,1-.56-1.2,1,1,0,0,1,1.21-.57c.79.29,1.59.6,2.38.93a.94.94,0,0,1-.36,1.81Z" transform="translate(-26.47 -122.36)"/></g><g class="cls-41"><path class="cls-11" d="M402.6,160.75a.94.94,0,0,1-.87-.6c-.3-.77-.62-1.53-1-2.28a.94.94,0,1,1,1.72-.76c.34.77.67,1.56,1,2.36a.94.94,0,0,1-.53,1.22A1.07,1.07,0,0,1,402.6,160.75Z" transform="translate(-26.47 -122.36)"/><path class="cls-11" d="M349.08,239c-.71,0-1.41,0-2.11,0a1,1,0,0,1-.91-1,1,1,0,0,1,1-.91c1.56.06,3.15.05,4.73,0a.94.94,0,0,1,.09,1.88C350.94,239,350,239,349.08,239Zm-9.84-.86h-.17c-1.59-.28-3.2-.64-4.77-1.05a.93.93,0,0,1-.67-1.15,1,1,0,0,1,1.15-.67c1.52.4,3.07.74,4.62,1a.94.94,0,0,1-.16,1.87Zm20.33-.1a1,1,0,0,1-.93-.78.94.94,0,0,1,.76-1.09c1.55-.29,3.1-.64,4.61-1a.94.94,0,1,1,.49,1.82c-1.56.42-3.16.79-4.76,1.08Zm12.06-3.63a.93.93,0,0,1-.86-.57.94.94,0,0,1,.5-1.24c1.44-.61,2.88-1.29,4.26-2a1,1,0,0,1,1.28.4.94.94,0,0,1-.39,1.27c-1.44.76-2.92,1.46-4.42,2.1A.94.94,0,0,1,371.63,234.4Zm11-6.17a.94.94,0,0,1-.77-.4.93.93,0,0,1,.22-1.31c1.27-.92,2.52-1.9,3.72-2.92A.94.94,0,0,1,387,225c-1.23,1.06-2.52,2.07-3.84,3A1,1,0,0,1,382.61,228.23ZM392,219.8a.93.93,0,0,1-.62-.24,1,1,0,0,1-.08-1.33c1.05-1.18,2.05-2.41,3-3.66a.94.94,0,1,1,1.5,1.13c-1,1.3-2,2.57-3.09,3.78A1,1,0,0,1,392,219.8Zm7.31-10.27a.94.94,0,0,1-.82-1.4c.76-1.37,1.48-2.8,2.13-4.22a.94.94,0,0,1,1.71.77c-.67,1.48-1.41,2.95-2.2,4.37A.93.93,0,0,1,399.27,209.53Zm4.9-11.61a.84.84,0,0,1-.27,0,.94.94,0,0,1-.64-1.17c.45-1.51.84-3.05,1.16-4.59a.94.94,0,1,1,1.84.38c-.33,1.59-.73,3.19-1.19,4.74A1,1,0,0,1,404.17,197.92Zm2.23-12.41h-.07a.93.93,0,0,1-.87-1c.08-1.25.12-2.52.12-3.77,0-.32,0-.64,0-1a.95.95,0,0,1,1.89,0c0,.33,0,.66,0,1,0,1.29-.05,2.61-.13,3.89A1,1,0,0,1,406.4,185.51Zm-.55-12.58a1,1,0,0,1-.93-.8c-.23-1.56-.54-3.12-.9-4.65a.94.94,0,1,1,1.83-.43c.38,1.57.69,3.18.94,4.79a.93.93,0,0,1-.79,1.07Z" transform="translate(-26.47 -122.36)"/><path class="cls-11" d="M327.11,234.58a.94.94,0,0,1-.37-.07c-.78-.33-1.56-.67-2.33-1a1,1,0,0,1-.45-1.26.94.94,0,0,1,1.25-.45c.74.35,1.5.69,2.26,1a.94.94,0,0,1-.36,1.81Z" transform="translate(-26.47 -122.36)"/></g><path class="cls-42" d="M325.57,217.9a.69.69,0,0,0,.8,0l7.07-4.5a36.66,36.66,0,0,0,11.37,3.26l3.61,7.55a.69.69,0,0,0,.7.39l10-1.15a.67.67,0,0,0,.59-.53l1.81-8.18A36.52,36.52,0,0,0,371.85,209l7.9,2.79a.68.68,0,0,0,.77-.22l6.25-7.87a.69.69,0,0,0,.05-.8l-4.51-7.07a36.66,36.66,0,0,0,3.26-11.37l7.55-3.61a.69.69,0,0,0,.39-.7l-1.14-10a.69.69,0,0,0-.54-.59l-8.17-1.81a36.55,36.55,0,0,0-5.75-10.34l2.79-7.9a.68.68,0,0,0-.22-.77l-7.87-6.25a.69.69,0,0,0-.8,0L364.74,147a36.59,36.59,0,0,0-11.37-3.26l-3.61-7.55a.68.68,0,0,0-.7-.39l-10,1.14a.69.69,0,0,0-.59.54l-1.81,8.17a36.55,36.55,0,0,0-10.34,5.75l-7.9-2.79a.68.68,0,0,0-.77.22l-6.25,7.87a.68.68,0,0,0,0,.8l4.5,7.07a36.51,36.51,0,0,0-3.26,11.37l-7.55,3.61a.69.69,0,0,0-.39.7l1.14,10a.69.69,0,0,0,.54.6l8.18,1.81A36.52,36.52,0,0,0,320.27,203l-2.79,7.9a.68.68,0,0,0,.22.77Z" transform="translate(-26.47 -122.36)"/><path class="cls-43" d="M349.1,191a10.81,10.81,0,1,1,4.44-20.66,10.81,10.81,0,0,1-.63,20h0A10.82,10.82,0,0,1,349.1,191Zm3.15-2.46Zm-3.16-15.4a7.17,7.17,0,0,0-2.49.46,7,7,0,1,0,2.49-.46Z" transform="translate(-26.47 -122.36)"/><path class="cls-43" d="M349.18,204.93h0c-.63,0-1.27,0-1.9-.08l-.54,0a.64.64,0,0,1-.56-.63v-.06a.63.63,0,0,1,.69-.56,23.69,23.69,0,0,0,25.93-22.2c0-.43,0-.86,0-1.3a22.63,22.63,0,0,0-.16-2.71,23.63,23.63,0,0,0-47.1,2.67,22.51,22.51,0,0,0,.16,2.71,23.55,23.55,0,0,0,4.7,11.67.63.63,0,0,1-.11.88.63.63,0,0,1-.88-.11A24.89,24.89,0,1,1,352,204.76h0A24.94,24.94,0,0,1,349.18,204.93Z" transform="translate(-26.47 -122.36)"/><g class="cls-41"><path class="cls-11" d="M238.06,224.89a.62.62,0,0,1-.55-.33c-.26-.46-.5-.94-.74-1.42a.63.63,0,0,1,1.13-.55c.23.47.46.92.71,1.37a.63.63,0,0,1-.25.85A.56.56,0,0,1,238.06,224.89Z" transform="translate(-26.47 -122.36)"/><path class="cls-11" d="M236.14,220.69a.63.63,0,0,1-.59-.41c-.36-1-.67-2-.94-2.95a.63.63,0,1,1,1.21-.33c.26,1,.56,1.92.91,2.85a.62.62,0,0,1-.37.8A.57.57,0,0,1,236.14,220.69Zm-1.57-5.88a.62.62,0,0,1-.62-.52c0-.24-.08-.47-.11-.71q-.18-1.19-.27-2.37a.63.63,0,0,1,1.26-.09c0,.75.14,1.52.25,2.28,0,.22.07.45.11.68a.63.63,0,0,1-.52.73Zm-.45-6.06h0a.63.63,0,0,1-.61-.65c0-1,.09-2.07.21-3.09a.63.63,0,0,1,1.25.14,29.82,29.82,0,0,0-.2,3A.64.64,0,0,1,234.12,208.75Zm.7-6.05h-.13a.64.64,0,0,1-.49-.75c.22-1,.49-2,.8-3a.61.61,0,0,1,.78-.41.62.62,0,0,1,.41.79c-.3.94-.55,1.91-.76,2.88A.62.62,0,0,1,234.82,202.7Zm1.83-5.8a.74.74,0,0,1-.25-.05.63.63,0,0,1-.33-.83c.4-.94.85-1.89,1.34-2.79a.63.63,0,0,1,1.11.59c-.47.88-.91,1.78-1.29,2.69A.64.64,0,0,1,236.65,196.9Zm2.89-5.36a.64.64,0,0,1-.35-.1.63.63,0,0,1-.17-.88c.57-.85,1.19-1.69,1.84-2.49a.63.63,0,0,1,1,.79c-.62.77-1.22,1.58-1.77,2.4A.63.63,0,0,1,239.54,191.54Zm3.84-4.72a.62.62,0,0,1-.44-.18.63.63,0,0,1,0-.89c.72-.73,1.49-1.44,2.28-2.11a.62.62,0,0,1,.88.08.63.63,0,0,1-.07.89c-.76.63-1.5,1.32-2.19,2A.63.63,0,0,1,243.38,186.82Zm4.66-3.91a.63.63,0,0,1-.52-.28.62.62,0,0,1,.16-.87c.85-.59,1.73-1.14,2.63-1.64a.63.63,0,1,1,.62,1.1c-.87.48-1.72,1-2.54,1.57A.59.59,0,0,1,248,182.91Zm5.31-3a.63.63,0,0,1-.26-1.2c.95-.42,1.92-.79,2.9-1.12a.63.63,0,0,1,.4,1.2,29.22,29.22,0,0,0-2.79,1.07A.74.74,0,0,1,253.35,179.94Zm20.87-1.75-.16,0a29.07,29.07,0,0,0-2.92-.6.62.62,0,0,1-.53-.71.63.63,0,0,1,.72-.53c1,.16,2,.37,3,.62a.63.63,0,0,1,.46.76A.64.64,0,0,1,274.22,178.19Zm-15.1-.16a.64.64,0,0,1-.61-.49.62.62,0,0,1,.47-.75c.85-.19,1.71-.36,2.57-.48l.49-.07a.62.62,0,0,1,.7.54.63.63,0,0,1-.54.71l-.46.06c-.83.12-1.66.28-2.48.46Zm9.08-.77h0c-1,0-2-.06-3,0a.62.62,0,0,1-.65-.6.63.63,0,0,1,.6-.65c1,0,2.08,0,3.11,0a.63.63,0,0,1,.59.66A.63.63,0,0,1,268.2,177.26Z" transform="translate(-26.47 -122.36)"/><path class="cls-11" d="M278.63,179.65a.52.52,0,0,1-.24-.05c-.47-.19-.95-.38-1.43-.55a.62.62,0,0,1-.38-.8.62.62,0,0,1,.8-.38c.5.18,1,.37,1.49.57a.63.63,0,0,1-.24,1.21Z" transform="translate(-26.47 -122.36)"/></g><g class="cls-41"><path class="cls-11" d="M296.41,197.86a.62.62,0,0,1-.59-.4c-.19-.48-.38-1-.59-1.42a.64.64,0,0,1,.32-.83.63.63,0,0,1,.83.32c.22.49.42,1,.61,1.48a.62.62,0,0,1-.36.81A.57.57,0,0,1,296.41,197.86Z" transform="translate(-26.47 -122.36)"/><path class="cls-11" d="M266.29,241.65c-.91,0-1.84,0-2.74-.12a.63.63,0,1,1,.1-1.25,30.82,30.82,0,0,0,3.19.11.63.63,0,0,1,.64.61.62.62,0,0,1-.61.64Zm3.81-.23a.63.63,0,0,1-.07-1.25c.3,0,.6-.07.89-.12.76-.11,1.52-.25,2.26-.41a.62.62,0,1,1,.27,1.22c-.77.17-1.56.32-2.34.44l-.93.12Zm-9.73-.32h-.12c-1.08-.21-2.17-.47-3.22-.78a.63.63,0,0,1,.35-1.21,30,30,0,0,0,3.11.75.63.63,0,0,1-.12,1.25ZM276.46,240a.63.63,0,0,1-.2-1.23,31.6,31.6,0,0,0,3-1.15.63.63,0,0,1,.51,1.15c-1,.45-2.05.85-3.1,1.2A.63.63,0,0,1,276.46,240Zm5.94-2.66a.63.63,0,0,1-.32-1.17,31.38,31.38,0,0,0,2.68-1.73.63.63,0,0,1,.74,1c-.9.64-1.84,1.25-2.79,1.8A.6.6,0,0,1,282.4,237.36Zm5.27-3.8a.64.64,0,0,1-.47-.21.62.62,0,0,1,.06-.88c.79-.71,1.56-1.46,2.28-2.24a.62.62,0,0,1,.88,0,.61.61,0,0,1,0,.88c-.75.81-1.55,1.6-2.37,2.33A.66.66,0,0,1,287.67,233.56Zm4.41-4.78a.62.62,0,0,1-.5-1,31.54,31.54,0,0,0,1.79-2.65.62.62,0,0,1,.86-.21.63.63,0,0,1,.22.86c-.58.94-1.2,1.87-1.86,2.75A.63.63,0,0,1,292.08,228.78Zm3.37-5.56a.54.54,0,0,1-.27-.07.62.62,0,0,1-.3-.83,30.05,30.05,0,0,0,1.22-2.95.63.63,0,0,1,1.19.42c-.37,1-.8,2.07-1.27,3.07A.64.64,0,0,1,295.45,223.22Zm2.18-6.14h-.15a.64.64,0,0,1-.46-.76,30.49,30.49,0,0,0,.6-3.14.64.64,0,0,1,.71-.54.64.64,0,0,1,.54.71q-.24,1.65-.63,3.27A.63.63,0,0,1,297.63,217.08Zm.9-6.44h0a.63.63,0,0,1-.6-.65c0-.38,0-.77,0-1.15,0-.68,0-1.36-.06-2.05a.62.62,0,0,1,.58-.66.63.63,0,0,1,.67.58c.05.71.07,1.43.07,2.13,0,.4,0,.8,0,1.19A.64.64,0,0,1,298.53,210.64Zm-.42-6.49a.63.63,0,0,1-.62-.53,29.87,29.87,0,0,0-.68-3.12.63.63,0,1,1,1.21-.33,32.23,32.23,0,0,1,.71,3.24.63.63,0,0,1-.52.73Z" transform="translate(-26.47 -122.36)"/><path class="cls-11" d="M254.1,239.24a.69.69,0,0,1-.24-.05c-.49-.2-1-.42-1.46-.64a.63.63,0,1,1,.53-1.14c.46.22.93.42,1.41.62a.63.63,0,0,1-.24,1.21Z" transform="translate(-26.47 -122.36)"/></g><path class="cls-44" d="M253.09,229.71a.39.39,0,0,0,.45,0l4-2.53a20.38,20.38,0,0,0,6.38,1.83l2,4.25a.39.39,0,0,0,.39.21l5.61-.64a.39.39,0,0,0,.34-.3l1-4.59a20.38,20.38,0,0,0,5.81-3.23l4.44,1.57a.41.41,0,0,0,.43-.12l3.51-4.42a.39.39,0,0,0,0-.45l-2.53-4a20.44,20.44,0,0,0,1.83-6.39l4.24-2a.38.38,0,0,0,.22-.39l-.64-5.61a.39.39,0,0,0-.3-.33l-4.59-1a20.44,20.44,0,0,0-3.23-5.8l1.57-4.44a.39.39,0,0,0-.13-.43l-4.42-3.51a.38.38,0,0,0-.44,0l-4,2.53a20.71,20.71,0,0,0-6.39-1.83l-2-4.24a.4.4,0,0,0-.39-.22l-5.61.65a.38.38,0,0,0-.33.3l-1,4.59a20.41,20.41,0,0,0-5.8,3.22l-4.44-1.56a.37.37,0,0,0-.43.12l-3.51,4.42a.38.38,0,0,0,0,.45l2.53,4a20.46,20.46,0,0,0-1.83,6.38l-4.24,2a.39.39,0,0,0-.22.4l.65,5.6a.37.37,0,0,0,.3.34l4.59,1a20.46,20.46,0,0,0,3.22,5.81l-1.56,4.44a.38.38,0,0,0,.12.43Z" transform="translate(-26.47 -122.36)"/><path class="cls-43" d="M266.3,214.19a5.65,5.65,0,1,1,2-.37h0A5.56,5.56,0,0,1,266.3,214.19Zm1.77-.95h0Zm-1.77-9.08a4.39,4.39,0,1,0,1.55,8.49h0a4.39,4.39,0,0,0-1.55-8.49Z" transform="translate(-26.47 -122.36)"/><path class="cls-43" d="M266.35,222.7h-.52l-.78-.05H265a.62.62,0,0,1-.56-.62v-.07a.63.63,0,0,1,.69-.56,13.41,13.41,0,0,0,2.76,0h0a13,13,0,0,0,11.49-13.76c0-.21,0-.42-.06-.63a13,13,0,0,0-25.9,1.47,12.54,12.54,0,0,0,.09,1.49,13,13,0,0,0,2.58,6.42.58.58,0,0,1,.13.38.63.63,0,0,1-.24.5.62.62,0,0,1-.88-.12,14.13,14.13,0,0,1-2.84-7,12.85,12.85,0,0,1-.1-1.63,14.25,14.25,0,0,1,28.41-1.61,15,15,0,0,1,.09,1.63A14.28,14.28,0,0,1,268,222.61h-.05A14.12,14.12,0,0,1,266.35,222.7Z" transform="translate(-26.47 -122.36)"/><path class="cls-11" d="M145.43,354.55l-1.58.62h0a.53.53,0,0,1-.68-.3.52.52,0,0,1,.3-.68h0l1.62-.63a.52.52,0,1,1,.38,1Z" transform="translate(-26.47 -122.36)"/><path class="cls-11" d="M139.23,357.37l-1.48.84h0a.53.53,0,1,1-.52-.92h0l1.52-.86a.54.54,0,0,1,.72.2.55.55,0,0,1-.2.73Z" transform="translate(-26.47 -122.36)"/><path class="cls-11" d="M133.48,361l-1.36,1h0a.54.54,0,0,1-.65-.86h0l1.39-1.05a.55.55,0,0,1,.76.1.54.54,0,0,1-.11.76Z" transform="translate(-26.47 -122.36)"/><path class="cls-11" d="M128.24,365.38,127,366.57h0a.54.54,0,1,1-.76-.78h0l1.25-1.21a.54.54,0,0,1,.77,0,.55.55,0,0,1,0,.77Z" transform="translate(-26.47 -122.36)"/><path class="cls-11" d="M123.55,370.34l-1.09,1.32h0a.55.55,0,0,1-.78.08.55.55,0,0,1-.07-.78h0l1.1-1.34a.55.55,0,0,1,.86.7Z" transform="translate(-26.47 -122.36)"/><path class="cls-11" d="M119.43,375.79l-.94,1.43h0a.56.56,0,1,1-.93-.61h0l1-1.45a.57.57,0,0,1,.78-.15.55.55,0,0,1,.16.77Z" transform="translate(-26.47 -122.36)"/><path class="cls-11" d="M115.9,381.64l-.79,1.52h0a.56.56,0,0,1-.76.24.58.58,0,0,1-.25-.77h0l.8-1.54a.57.57,0,0,1,1,.53Z" transform="translate(-26.47 -122.36)"/><path class="cls-11" d="M113,387.81l-.64,1.59h0a.57.57,0,0,1-.75.32.59.59,0,0,1-.32-.75h0l.65-1.61a.58.58,0,0,1,.74-.32.57.57,0,0,1,.32.75Z" transform="translate(-26.47 -122.36)"/><path class="cls-11" d="M110.65,394.24l-.49,1.64h0a.58.58,0,0,1-1.12-.32h0l.5-1.66a.58.58,0,0,1,1.11.33Z" transform="translate(-26.47 -122.36)"/><path class="cls-11" d="M109,400.86l-.33,1.68v0a.58.58,0,0,1-.69.46.59.59,0,0,1-.47-.69h0l.33-1.7a.59.59,0,1,1,1.16.22Z" transform="translate(-26.47 -122.36)"/><path class="cls-11" d="M107.92,407.62l-.15,1.7h0a.6.6,0,1,1-1.19-.11h0l.16-1.73a.59.59,0,1,1,1.18.11Z" transform="translate(-26.47 -122.36)"/><path class="cls-11" d="M107.57,414.43l0,1.71v0a.6.6,0,1,1-1.2,0h0l0-1.74a.6.6,0,0,1,.59-.61.61.61,0,0,1,.61.6Z" transform="translate(-26.47 -122.36)"/><path class="cls-11" d="M107.92,421.25l.19,1.7v0a.61.61,0,1,1-1.21.13h0l-.19-1.72a.61.61,0,0,1,.54-.68.62.62,0,0,1,.67.54Z" transform="translate(-26.47 -122.36)"/><path class="cls-11" d="M108.93,428l.35,1.67v0a.62.62,0,1,1-1.21.25h0l-.35-1.7a.62.62,0,0,1,.48-.73.62.62,0,0,1,.73.48Z" transform="translate(-26.47 -122.36)"/><path class="cls-11" d="M110.57,434.65l.5,1.63h0a.62.62,0,0,1-1.19.37h0l-.51-1.66a.62.62,0,1,1,1.19-.37Z" transform="translate(-26.47 -122.36)"/><path class="cls-11" d="M112.8,441.1l.65,1.58v0a.63.63,0,0,1-1.17.48h0l-.66-1.61a.63.63,0,0,1,1.17-.48Z" transform="translate(-26.47 -122.36)"/><path class="cls-11" d="M115.61,447.34l.78,1.51v0a.64.64,0,0,1-1.14.58h0l-.79-1.54a.63.63,0,0,1,.27-.86.64.64,0,0,1,.86.27Z" transform="translate(-26.47 -122.36)"/><path class="cls-11" d="M118.94,453.3l.92,1.44v0a.65.65,0,0,1-.2.89.66.66,0,0,1-.9-.2h0l-.92-1.47a.65.65,0,1,1,1.09-.69Z" transform="translate(-26.47 -122.36)"/><path class="cls-11" d="M122.79,459l1,1.36h0a.65.65,0,1,1-1,.79h0l-1.05-1.38a.65.65,0,0,1,1-.79Z" transform="translate(-26.47 -122.36)"/><path class="cls-11" d="M127.11,464.24l1.15,1.27h0a.65.65,0,0,1,0,.93.66.66,0,0,1-.94,0h0l-1.17-1.29a.66.66,0,0,1,0-.93.67.67,0,0,1,.93,0Z" transform="translate(-26.47 -122.36)"/><path class="cls-11" d="M131.88,469.13l1.26,1.15h0a.68.68,0,0,1,0,.95.66.66,0,0,1-.94,0h0L131,470.1a.67.67,0,0,1,.9-1Z" transform="translate(-26.47 -122.36)"/><path class="cls-11" d="M137.08,473.56l1.36,1h0a.68.68,0,0,1-.81,1.08h0l-1.39-1.05a.68.68,0,0,1,.81-1.08Z" transform="translate(-26.47 -122.36)"/><path class="cls-11" d="M142.67,477.48l1.45.89h0a.67.67,0,0,1,.22.93.68.68,0,0,1-.94.23h0l-1.48-.91a.68.68,0,0,1-.22-.94.67.67,0,0,1,.93-.22Z" transform="translate(-26.47 -122.36)"/><path class="cls-11" d="M148.62,480.81l1.53.74h0a.7.7,0,0,1,.32.92.68.68,0,0,1-.92.32h0L148,482a.68.68,0,1,1,.6-1.23Z" transform="translate(-26.47 -122.36)"/><path class="cls-11" d="M154.86,483.55l1.61.59h0a.7.7,0,0,1-.48,1.31h0l-1.63-.61a.69.69,0,0,1,.48-1.3Z" transform="translate(-26.47 -122.36)"/><path class="cls-11" d="M161.35,485.69l1.65.44h0a.7.7,0,1,1-.36,1.36h0L161,487a.7.7,0,0,1-.5-.86.71.71,0,0,1,.86-.5Z" transform="translate(-26.47 -122.36)"/><path class="cls-11" d="M168,487.21l1.68.29h0a.71.71,0,0,1-.24,1.4h0l-1.72-.29a.71.71,0,0,1-.57-.82.7.7,0,0,1,.81-.58Z" transform="translate(-26.47 -122.36)"/><path class="cls-11" d="M174.76,488.13l1.71.14h0a.72.72,0,1,1-.11,1.43h0l-1.74-.14a.72.72,0,0,1-.65-.78.72.72,0,0,1,.77-.65Z" transform="translate(-26.47 -122.36)"/><path class="cls-11" d="M181.58,488.45h1.73a.73.73,0,1,1,0,1.45h-1.74a.73.73,0,0,1,0-1.45Z" transform="translate(-26.47 -122.36)"/><path class="cls-11" d="M188.41,488.19l1.7-.15h0a.73.73,0,0,1,.14,1.46h0l-1.73.15a.73.73,0,0,1-.13-1.45Z" transform="translate(-26.47 -122.36)"/><path class="cls-11" d="M195.19,487.36l1.68-.29h0a.73.73,0,0,1,.25,1.44h0l-1.72.3a.74.74,0,0,1-.84-.6.73.73,0,0,1,.59-.84Z" transform="translate(-26.47 -122.36)"/><path class="cls-11" d="M201.88,486l1.65-.43h0a.73.73,0,1,1,.36,1.41h0l-1.68.44a.73.73,0,0,1-.89-.53.73.73,0,0,1,.53-.89Z" transform="translate(-26.47 -122.36)"/><path class="cls-11" d="M208.44,484.08l1.61-.56h0a.74.74,0,0,1,.48,1.39h0l-1.65.57a.74.74,0,0,1-.48-1.39Z" transform="translate(-26.47 -122.36)"/><path class="cls-11" d="M214.82,481.65l1.57-.69h0a.74.74,0,1,1,.59,1.35h0l-1.59.7a.74.74,0,0,1-.59-1.35Z" transform="translate(-26.47 -122.36)"/><path class="cls-11" d="M221,478.72l1.51-.8h0a.74.74,0,0,1,1,.31.73.73,0,0,1-.31,1h0l-1.53.82a.74.74,0,0,1-1-.31.73.73,0,0,1,.31-1Z" transform="translate(-26.47 -122.36)"/><path class="cls-11" d="M227,475.36l1.45-.9h0a.74.74,0,1,1,.78,1.26h0l-1.47.91a.74.74,0,1,1-.78-1.25Z" transform="translate(-26.47 -122.36)"/><path class="cls-11" d="M232.69,471.62l1.4-1h0a.73.73,0,0,1,1,.18.74.74,0,0,1-.18,1h0l-1.41,1a.73.73,0,0,1-1-.18.74.74,0,0,1,.17-1Z" transform="translate(-26.47 -122.36)"/><path class="cls-11" d="M238.19,467.54l1.35-1.07h0a.74.74,0,1,1,.93,1.16h0l-1.36,1.08a.74.74,0,0,1-1-.12.73.73,0,0,1,.12-1Z" transform="translate(-26.47 -122.36)"/><path class="cls-11" d="M243.48,463.17l1.29-1.13h0a.73.73,0,0,1,1,.07.74.74,0,0,1-.06,1.05h0l-1.31,1.14a.73.73,0,0,1-1-.07.74.74,0,0,1,.06-1.05Z" transform="translate(-26.47 -122.36)"/><path class="cls-11" d="M248.56,458.57l1.24-1.19h0a.75.75,0,0,1,1,1.08h0l-1.25,1.19a.76.76,0,0,1-1.06,0,.75.75,0,0,1,0-1.06Z" transform="translate(-26.47 -122.36)"/><path class="cls-11" d="M253.46,453.76l1.2-1.23h0a.74.74,0,0,1,1.05,0,.75.75,0,0,1,0,1.06h0l-1.21,1.24a.75.75,0,1,1-1.07-1.05Z" transform="translate(-26.47 -122.36)"/><path class="cls-11" d="M258.2,448.79l1.17-1.26h0a.75.75,0,0,1,1.1,1h0l-1.17,1.27a.75.75,0,0,1-1.1-1Z" transform="translate(-26.47 -122.36)"/><path class="cls-11" d="M262.81,443.69,264,442.4h0a.75.75,0,0,1,1.13,1h0l-1.13,1.3a.75.75,0,1,1-1.13-1Z" transform="translate(-26.47 -122.36)"/><path class="cls-11" d="M267.31,438.49l1.11-1.32h0a.75.75,0,0,1,1.15,1h0l-1.12,1.32a.75.75,0,1,1-1.14-1Z" transform="translate(-26.47 -122.36)"/><path class="cls-11" d="M271.73,433.21l1.09-1.33a.75.75,0,1,1,1.17.95h0l-1.09,1.34a.76.76,0,0,1-1.06.1A.75.75,0,0,1,271.73,433.21Z" transform="translate(-26.47 -122.36)"/><path class="cls-11" d="M276.09,427.88l1.08-1.34a.75.75,0,1,1,1.17.95h0l-1.08,1.34a.76.76,0,0,1-1.06.11A.74.74,0,0,1,276.09,427.88Z" transform="translate(-26.47 -122.36)"/><path class="cls-11" d="M280.41,422.52l1.08-1.34a.75.75,0,1,1,1.18.94h0l-1.08,1.35a.76.76,0,0,1-1.06.11A.75.75,0,0,1,280.41,422.52Z" transform="translate(-26.47 -122.36)"/><path class="cls-11" d="M284.74,417.15l1.08-1.34a.76.76,0,0,1,1.07-.12.77.77,0,0,1,.11,1.07h0l-1.08,1.34a.76.76,0,0,1-1.18-1Z" transform="translate(-26.47 -122.36)"/><path class="cls-11" d="M289.08,411.79l1.09-1.33a.76.76,0,1,1,1.18,1h0l-1.09,1.33a.76.76,0,0,1-1.18-1Z" transform="translate(-26.47 -122.36)"/><path class="cls-11" d="M293.47,406.47l1.11-1.33a.76.76,0,0,1,1.16,1h0l-1.1,1.32a.76.76,0,0,1-1.07.1A.75.75,0,0,1,293.47,406.47Z" transform="translate(-26.47 -122.36)"/><path class="cls-11" d="M297.93,401.2l1.13-1.31a.76.76,0,1,1,1.15,1h0l-1.13,1.3h0a.76.76,0,0,1-1.15-1Z" transform="translate(-26.47 -122.36)"/><path class="cls-11" d="M302.48,396l1.16-1.28a.76.76,0,0,1,1.14,1h0L303.62,397h0a.77.77,0,0,1-1.14-1Z" transform="translate(-26.47 -122.36)"/><path class="cls-11" d="M307.16,390.91l1.19-1.25a.76.76,0,0,1,1.08,0,.77.77,0,0,1,0,1.09h0L308.27,392h0a.77.77,0,0,1-1.11-1.06Z" transform="translate(-26.47 -122.36)"/><path class="cls-11" d="M312,386l1.23-1.22a.77.77,0,0,1,1.09,0,.76.76,0,0,1,0,1.08h0l-1.22,1.2h0A.77.77,0,0,1,312,386Z" transform="translate(-26.47 -122.36)"/><path class="cls-11" d="M317,381.16l1.27-1.17a.78.78,0,0,1,1.09.05.77.77,0,0,1,0,1.09h0L318,382.29h0a.77.77,0,0,1-1-1.14Z" transform="translate(-26.47 -122.36)"/><path class="cls-11" d="M322.16,376.57l1.33-1.11a.76.76,0,0,1,1.08.09.77.77,0,0,1-.09,1.09h0l-1.32,1.1h0a.78.78,0,0,1-1.09-.1A.76.76,0,0,1,322.16,376.57Z" transform="translate(-26.47 -122.36)"/><path class="cls-11" d="M327.55,372.22l1.38-1.05a.78.78,0,0,1,.94,1.24h0l-1.37,1h0a.77.77,0,0,1-.93-1.23Z" transform="translate(-26.47 -122.36)"/><path class="cls-11" d="M333.17,368.16l1.44-1a.78.78,0,0,1,.87,1.29h0l-1.43,1h0a.77.77,0,0,1-.86-1.28Z" transform="translate(-26.47 -122.36)"/><path class="cls-11" d="M339,364.42l1.49-.88a.77.77,0,1,1,.79,1.33h0l-1.48.87h0a.78.78,0,1,1-.78-1.34Z" transform="translate(-26.47 -122.36)"/><path class="cls-11" d="M345.06,361l1.54-.8a.78.78,0,1,1,.71,1.38h0l-1.52.78h0a.76.76,0,0,1-1-.33A.78.78,0,0,1,345.06,361Z" transform="translate(-26.47 -122.36)"/><path class="cls-11" d="M351.28,358l1.59-.71a.78.78,0,0,1,.63,1.42h0l-1.56.7h0a.78.78,0,0,1-1-.39A.79.79,0,0,1,351.28,358Z" transform="translate(-26.47 -122.36)"/><path class="cls-11" d="M357.67,355.25l1.61-.62a.78.78,0,0,1,.57,1.45h0l-1.59.61h0a.78.78,0,0,1-1-.45A.77.77,0,0,1,357.67,355.25Z" transform="translate(-26.47 -122.36)"/><path class="cls-11" d="M364.19,352.9l1.65-.54a.78.78,0,0,1,.48,1.49h0l-1.63.53h0a.78.78,0,1,1-.48-1.48Z" transform="translate(-26.47 -122.36)"/><path class="cls-11" d="M370.83,350.9l1.68-.44a.78.78,0,0,1,.4,1.51h0l-1.65.44h0a.78.78,0,1,1-.4-1.51Z" transform="translate(-26.47 -122.36)"/><path class="cls-11" d="M377.57,349.26l1.7-.35a.79.79,0,0,1,.31,1.54h0l-1.67.35h0a.79.79,0,0,1-.32-1.54Z" transform="translate(-26.47 -122.36)"/><path class="cls-11" d="M384.38,348l1.72-.26a.79.79,0,0,1,.23,1.56h0l-1.69.26h0a.79.79,0,0,1-.24-1.56Z" transform="translate(-26.47 -122.36)"/><path class="cls-11" d="M391.26,347.09l1.72-.17a.8.8,0,0,1,.87.71.79.79,0,0,1-.71.86h0l-1.71.17h0a.79.79,0,1,1-.15-1.57Z" transform="translate(-26.47 -122.36)"/><path class="cls-11" d="M398.17,346.56l1.73-.08a.79.79,0,1,1,.07,1.58h0l-1.71.08h0a.79.79,0,0,1-.07-1.58Z" transform="translate(-26.47 -122.36)"/><path class="cls-11" d="M405.1,346.39l1.74,0a.79.79,0,0,1,.78.8.78.78,0,0,1-.8.78h-1.73a.8.8,0,1,1,0-1.59Z" transform="translate(-26.47 -122.36)"/><path class="cls-11" d="M412,346.6l1.73.11a.79.79,0,1,1-.1,1.58h0l-1.71-.11h0a.79.79,0,1,1,.1-1.58Z" transform="translate(-26.47 -122.36)"/><path class="cls-11" d="M418.94,347.18l1.72.2a.8.8,0,1,1-.18,1.58h0l-1.7-.2h0a.79.79,0,1,1,.18-1.57Z" transform="translate(-26.47 -122.36)"/><path class="cls-11" d="M425.81,348.13l1.71.29a.8.8,0,1,1-.27,1.57h0l-1.69-.29h0a.79.79,0,1,1,.27-1.56Z" transform="translate(-26.47 -122.36)"/><path class="cls-11" d="M432.62,349.44l1.69.39a.8.8,0,1,1-.36,1.56h0l-1.67-.38h0a.8.8,0,1,1,.36-1.56Z" transform="translate(-26.47 -122.36)"/><path class="cls-11" d="M439.35,351.13l1.66.48a.8.8,0,1,1-.44,1.54h0l-1.65-.48h0a.79.79,0,0,1-.54-1A.8.8,0,0,1,439.35,351.13Z" transform="translate(-26.47 -122.36)"/><path class="cls-11" d="M446,353.19l1.64.57a.81.81,0,0,1,.49,1,.8.8,0,0,1-1,.49h0l-1.62-.56h0a.8.8,0,1,1,.53-1.51Z" transform="translate(-26.47 -122.36)"/><path class="cls-11" d="M452.47,355.61l1.6.66a.81.81,0,0,1-.61,1.49h0l-1.58-.65h0a.79.79,0,0,1-.44-1A.81.81,0,0,1,452.47,355.61Z" transform="translate(-26.47 -122.36)"/><path class="cls-11" d="M458.82,358.39l1.57.75a.81.81,0,0,1,.37,1.08.79.79,0,0,1-1.07.37h0l-1.54-.74h0a.8.8,0,0,1,.69-1.45Z" transform="translate(-26.47 -122.36)"/><path class="cls-11" d="M465,361.53l1.52.84a.81.81,0,0,1-.78,1.41h0l-1.5-.82h0a.8.8,0,0,1-.32-1.09A.82.82,0,0,1,465,361.53Z" transform="translate(-26.47 -122.36)"/><path class="cls-11" d="M471,365l1.47.92a.81.81,0,0,1,.25,1.11.82.82,0,0,1-1.12.26h0l-1.44-.91h0A.8.8,0,1,1,471,365Z" transform="translate(-26.47 -122.36)"/><path class="cls-11" d="M476.8,368.84l1.41,1a.81.81,0,0,1-.93,1.32h0l-1.4-1h0a.81.81,0,0,1,.94-1.32Z" transform="translate(-26.47 -122.36)"/><path class="cls-11" d="M482.39,372.91l1.38,1a.81.81,0,0,1-1,1.29h0l-1.37-1h0a.79.79,0,0,1-.15-1.13A.8.8,0,0,1,482.39,372.91Z" transform="translate(-26.47 -122.36)"/><path class="cls-11" d="M487.86,377.12l1.36,1.07a.81.81,0,0,1,.14,1.14.82.82,0,0,1-1.14.14h0l-1.36-1.07a.81.81,0,0,1,1-1.28Z" transform="translate(-26.47 -122.36)"/><path class="cls-11" d="M493.28,381.38l1.36,1.06a.82.82,0,0,1-1,1.29h0l-1.36-1.07a.81.81,0,0,1,1-1.28Z" transform="translate(-26.47 -122.36)"/><path class="cls-11" d="M498.72,385.6l1.38,1h0a.83.83,0,0,1,.16,1.15.81.81,0,0,1-1.14.16h0l-1.38-1.05a.81.81,0,0,1,1-1.3Z" transform="translate(-26.47 -122.36)"/><path class="cls-11" d="M504.25,389.67l1.4,1h0a.82.82,0,0,1-.94,1.34h0l-1.42-1a.81.81,0,0,1-.2-1.13.82.82,0,0,1,1.14-.2Z" transform="translate(-26.47 -122.36)"/><path class="cls-11" d="M509.92,393.51l1.45.91h0a.82.82,0,0,1,.26,1.13.8.8,0,0,1-1.12.26h0l-1.47-.92a.82.82,0,1,1,.87-1.39Z" transform="translate(-26.47 -122.36)"/><path class="cls-11" d="M515.81,397l1.51.79h0a.82.82,0,0,1-.76,1.46h0l-1.54-.81a.82.82,0,0,1-.35-1.1.83.83,0,0,1,1.11-.35Z" transform="translate(-26.47 -122.36)"/><path class="cls-11" d="M521.94,399.93l1.58.64h0a.82.82,0,1,1-.61,1.52h0l-1.62-.65a.82.82,0,1,1,.61-1.52Z" transform="translate(-26.47 -122.36)"/><path class="cls-11" d="M528.35,402.19l1.64.44h0a.83.83,0,0,1-.42,1.6h0l-1.69-.45a.84.84,0,0,1-.59-1,.82.82,0,0,1,1-.58Z" transform="translate(-26.47 -122.36)"/><path class="cls-11" d="M535,403.58l1.68.19h0a.82.82,0,0,1,.73.91.83.83,0,0,1-.92.73h0l-1.74-.21a.82.82,0,1,1,.19-1.63Z" transform="translate(-26.47 -122.36)"/><path class="cls-11" d="M541.71,404l1.69-.09h0a.83.83,0,0,1,.09,1.65h0l-1.76.09a.83.83,0,1,1-.08-1.65Z" transform="translate(-26.47 -122.36)"/><path class="cls-11" d="M548.42,403.2l1.65-.36h0a.84.84,0,0,1,1,.64.83.83,0,0,1-.64,1h0l-1.71.37a.83.83,0,1,1-.35-1.62Z" transform="translate(-26.47 -122.36)"/><path class="cls-11" d="M554.93,401.39l1.58-.6h0a.83.83,0,0,1,.59,1.55h0l-1.63.62a.84.84,0,0,1-1.08-.48.83.83,0,0,1,.49-1.07Z" transform="translate(-26.47 -122.36)"/><path class="cls-11" d="M561.12,398.65l1.49-.82h0a.83.83,0,1,1,.8,1.46h0l-1.53.84a.83.83,0,0,1-.8-1.46Z" transform="translate(-26.47 -122.36)"/><path class="cls-11" d="M566.9,395.1l1.38-1h0a.83.83,0,0,1,1.16.18.84.84,0,0,1-.18,1.17h0l-1.42,1a.83.83,0,0,1-1-1.34Z" transform="translate(-26.47 -122.36)"/><path class="cls-11" d="M572.22,390.87l1.25-1.15v0a.84.84,0,1,1,1.13,1.23h0l-1.28,1.18a.83.83,0,1,1-1.13-1.22Z" transform="translate(-26.47 -122.36)"/><path class="cls-11" d="M577,386.06l1.11-1.28,0,0a.83.83,0,0,1,1.18-.08.84.84,0,0,1,.08,1.18h0l-1.15,1.31a.83.83,0,0,1-1.26-1.09Z" transform="translate(-26.47 -122.36)"/><path class="cls-11" d="M581.27,380.75l1-1.39v0a.83.83,0,0,1,1.17-.2.82.82,0,0,1,.2,1.16h0l-1,1.43a.84.84,0,1,1-1.37-1Z" transform="translate(-26.47 -122.36)"/><path class="cls-11" d="M585,375l.82-1.48,0,0a.83.83,0,1,1,1.46.81h0l-.84,1.53a.84.84,0,0,1-1.14.32.83.83,0,0,1-.33-1.14Z" transform="translate(-26.47 -122.36)"/><path class="cls-11" d="M588,369l.67-1.57v0a.84.84,0,0,1,1.1-.44.83.83,0,0,1,.44,1.1h0l-.68,1.61A.84.84,0,0,1,588,369Z" transform="translate(-26.47 -122.36)"/><path class="cls-11" d="M590.42,362.6l.49-1.63v0a.84.84,0,1,1,1.61.49h0l-.51,1.67a.83.83,0,0,1-1,.56.84.84,0,0,1-.56-1.05Z" transform="translate(-26.47 -122.36)"/><path class="cls-11" d="M592.14,356l.34-1.67v0a.85.85,0,1,1,1.66.33h0l-.34,1.71a.86.86,0,0,1-1,.66.85.85,0,0,1-.66-1Z" transform="translate(-26.47 -122.36)"/><path class="cls-11" d="M593.25,349.29l.18-1.69v0a.84.84,0,0,1,1.68.18h0l-.19,1.73a.84.84,0,1,1-1.68-.18Z" transform="translate(-26.47 -122.36)"/><path class="cls-11" d="M593.76,342.49l0-1.7v0a.85.85,0,1,1,1.7,0h0l0,1.74a.85.85,0,0,1-1.7,0Z" transform="translate(-26.47 -122.36)"/><path class="cls-11" d="M593.7,335.67l-.1-1.7v0a.85.85,0,0,1,1.7-.1h0l.1,1.74a.85.85,0,0,1-.8.9.84.84,0,0,1-.89-.8Z" transform="translate(-26.47 -122.36)"/><path class="cls-11" d="M593.11,328.87l-.24-1.69h0a.85.85,0,1,1,1.69-.23h0l.23,1.72a.85.85,0,1,1-1.68.23Z" transform="translate(-26.47 -122.36)"/><path class="cls-11" d="M592,322.14l-.35-1.67v0a.85.85,0,0,1,.65-1,.86.86,0,0,1,1,.66h0l.36,1.7a.85.85,0,0,1-1.67.35Z" transform="translate(-26.47 -122.36)"/><path class="cls-11" d="M590.4,315.5l-.47-1.65h0a.85.85,0,1,1,1.64-.47h0l.48,1.67a.86.86,0,1,1-1.65.47Z" transform="translate(-26.47 -122.36)"/><path class="cls-11" d="M588.35,309l-.58-1.61h0a.86.86,0,1,1,1.61-.58h0l.59,1.63a.87.87,0,0,1-.51,1.1.86.86,0,0,1-1.1-.52Z" transform="translate(-26.47 -122.36)"/><path class="cls-11" d="M585.86,302.62l-.69-1.57h0a.86.86,0,0,1,1.57-.69h0l.7,1.59a.86.86,0,1,1-1.57.69Z" transform="translate(-26.47 -122.36)"/><path class="cls-11" d="M583,296.43l-.8-1.51h0a.86.86,0,1,1,1.52-.8h0l.8,1.54a.86.86,0,0,1-1.52.8Z" transform="translate(-26.47 -122.36)"/><path class="cls-11" d="M579.63,290.46l-.9-1.46h0a.86.86,0,0,1,1.46-.9h0l.9,1.48a.86.86,0,1,1-1.47.9Z" transform="translate(-26.47 -122.36)"/><path class="cls-11" d="M575.91,284.73l-1-1.38v0a.85.85,0,0,1,.19-1.19.86.86,0,0,1,1.2.19l1,1.41a.86.86,0,0,1-1.39,1h0Z" transform="translate(-26.47 -122.36)"/><path class="cls-11" d="M571.77,279.31l-1.1-1.31h0A.84.84,0,0,1,572,276.9l1.12,1.33a.84.84,0,0,1-.1,1.19.83.83,0,0,1-1.19-.1h0Z" transform="translate(-26.47 -122.36)"/><path class="cls-11" d="M567.27,274.15l-1.17-1.26h0a.82.82,0,0,1,0-1.17.83.83,0,0,1,1.17,0l1.18,1.27a.83.83,0,1,1-1.21,1.14h0Z" transform="translate(-26.47 -122.36)"/><path class="cls-11" d="M562.53,269.19,561.31,268h0a.82.82,0,0,1,1.15-1.16l1.23,1.22a.83.83,0,0,1,0,1.16.82.82,0,0,1-1.16,0Z" transform="translate(-26.47 -122.36)"/><path class="cls-11" d="M557.61,264.4l-1.25-1.18h0a.8.8,0,0,1,1.09-1.18l1.27,1.18a.82.82,0,0,1,0,1.14.8.8,0,0,1-1.14,0h0Z" transform="translate(-26.47 -122.36)"/><path class="cls-11" d="M552.55,259.75l-1.28-1.14h0a.79.79,0,0,1,1-1.18l1.3,1.14a.79.79,0,0,1-1.05,1.19h0Z" transform="translate(-26.47 -122.36)"/><path class="cls-11" d="M547.37,255.23l-1.31-1.11h0a.77.77,0,0,1,1-1.18l1.32,1.11a.78.78,0,0,1-1,1.2h0Z" transform="translate(-26.47 -122.36)"/><path class="cls-11" d="M542.1,250.82l-1.33-1.09h0a.73.73,0,1,1,.92-1.14l1.35,1.07a.76.76,0,0,1,.12,1.05.75.75,0,0,1-1,.11h0Z" transform="translate(-26.47 -122.36)"/><path class="cls-11" d="M536.74,246.52l-1.36-1.06h0a.7.7,0,0,1,.85-1.11l1.37,1.05a.7.7,0,0,1,.13,1,.69.69,0,0,1-1,.13Z" transform="translate(-26.47 -122.36)"/><path class="cls-11" d="M531.28,242.33l-1.38-1h0a.65.65,0,0,1-.13-.92.67.67,0,0,1,.92-.14l1.39,1a.67.67,0,0,1-.78,1.08h0Z" transform="translate(-26.47 -122.36)"/><path class="cls-11" d="M525.73,238.27l-1.41-1h0a.63.63,0,0,1-.15-.87.62.62,0,0,1,.86-.15l1.42,1a.63.63,0,1,1-.72,1h0Z" transform="translate(-26.47 -122.36)"/><path class="cls-11" d="M520.09,234.34l-1.43-1h0a.55.55,0,0,1-.15-.78.56.56,0,0,1,.78-.16l1.44.94a.58.58,0,0,1-.63,1Z" transform="translate(-26.47 -122.36)"/><path class="cls-11" d="M514.35,230.54l-1.45-.92h0a.5.5,0,0,1-.16-.7.51.51,0,0,1,.69-.16l1.47.9a.52.52,0,0,1,.18.72.53.53,0,0,1-.72.17h0Z" transform="translate(-26.47 -122.36)"/><path class="cls-11" d="M508.5,226.94l-1.49-.86h0a.45.45,0,0,1,.43-.78l1.51.85a.46.46,0,1,1-.44.8Z" transform="translate(-26.47 -122.36)"/><path class="cls-11" d="M502.5,223.59l-1.27-.66h0a.36.36,0,1,1,.33-.65l1.3.63a.38.38,0,0,1,.17.51.38.38,0,0,1-.51.18h0Z" transform="translate(-26.47 -122.36)"/><polygon class="cls-45" points="471.06 86.64 468.74 96.24 463.24 90.55 471.06 86.64"/><path class="cls-46" d="M455.72,193.08l20.42,29a2.46,2.46,0,0,0,1.66,1,2.49,2.49,0,0,0,1.9-.48L508,201a1,1,0,0,0,.35-1.06,1,1,0,0,0-.84-.73Z" transform="translate(-26.47 -122.36)"/><polygon class="cls-45" points="471.06 86.64 429.24 70.72 466.5 90.14 465.97 92.83 471.06 86.64"/><polygon class="cls-45" points="463.78 92.2 468.74 96.24 466.5 90.14 463.78 92.2"/></svg>