<svg xmlns="http://www.w3.org/2000/svg" xmlns:xlink="http://www.w3.org/1999/xlink" viewBox="0 0 508.6 471.16"><defs><style>.cls-1{fill:url(#linear-gradient);}.cls-2{fill:url(#linear-gradient-2);}.cls-3{isolation:isolate;}.cls-4{fill:#f4f7fa;}.cls-5{clip-path:url(#clip-path);}.cls-6{opacity:0.8;mix-blend-mode:soft-light;}.cls-7{fill:#fff;}.cls-8{clip-path:url(#clip-path-2);}.cls-9{fill:#d8dee8;}.cls-10,.cls-11{fill:#97a6b7;}.cls-11{opacity:0.1;}.cls-11,.cls-16,.cls-19,.cls-32,.cls-35,.cls-37,.cls-41{mix-blend-mode:multiply;}.cls-12{fill:#e4e9f2;}.cls-13{fill:url(#linear-gradient-5);}.cls-14{fill:url(#linear-gradient-6);}.cls-15{fill:url(#linear-gradient-7);}.cls-16,.cls-32,.cls-41{opacity:0.3;}.cls-16{fill:url(#linear-gradient-8);}.cls-17{fill:url(#linear-gradient-9);}.cls-18{fill:url(#linear-gradient-10);}.cls-19{opacity:0.2;fill:url(#linear-gradient-11);}.cls-20{fill:url(#linear-gradient-12);}.cls-21{fill:url(#linear-gradient-13);}.cls-22{fill:url(#linear-gradient-14);}.cls-23{fill:url(#linear-gradient-15);}.cls-24{fill:url(#linear-gradient-16);}.cls-25{fill:url(#linear-gradient-17);}.cls-26{fill:url(#linear-gradient-18);}.cls-27{fill:url(#linear-gradient-19);}.cls-28{fill:url(#linear-gradient-20);}.cls-29{fill:url(#linear-gradient-21);}.cls-30{fill:url(#linear-gradient-22);}.cls-31{fill:url(#linear-gradient-23);}.cls-33{fill:url(#linear-gradient-24);}.cls-34{fill:url(#linear-gradient-25);}.cls-35,.cls-37{opacity:0.7;}.cls-35{fill:url(#linear-gradient-26);}.cls-36{fill:url(#linear-gradient-27);}.cls-37{fill:url(#linear-gradient-28);}.cls-38{fill:#d5dae0;}.cls-39{fill:url(#linear-gradient-29);}.cls-40{fill:url(#linear-gradient-30);}.cls-41{fill:url(#linear-gradient-31);}</style><linearGradient id="linear-gradient" x1="-390.41" y1="39.6" x2="-525.89" y2="1088.47" gradientTransform="matrix(-1, 0, 0, 1, -182.64, 0)" gradientUnits="userSpaceOnUse"><stop offset="0" stop-color="#ff9085"/><stop offset="1" stop-color="#fb6fbb"/></linearGradient><linearGradient id="linear-gradient-2" x1="-350.06" y1="154.54" x2="-450.83" y2="934.72" gradientTransform="matrix(-1, 0, 0, 1, -182.64, 0)" gradientUnits="userSpaceOnUse"><stop offset="0" stop-color="#e38ddd"/><stop offset="1" stop-color="#9571f6"/></linearGradient><clipPath id="clip-path" transform="translate(-67.9 -96.98)"><path class="cls-1" d="M178.44,253.72c1.64.14,3.21.31,4.64.45,4.45.43,14.19,3.13,17.55-1.3,5.54-7.3-8.53-19.68-12.07-25.25-4.39-6.88-9.82-14.54-10.7-22.9-1.34-12.71,7.37-29.91,18.12-36.55,14.82-9.15,35.53-2.92,48.85,6.07,19.29,13,32.85,34.5,38.35,56.94,5.93,24.18-2.25,49.22.1,73.73,3.68,38.53,58.29-10.56,47.61,90.75-2.35,22.37-6.19,46.84-18.76,66-5.21,7.95-15.63,19-26,18.36-14.72-.9-14.06-21.73-18.63-31.34-5.34-11.24-14.66-20.12-25-26.76-13.16-8.45-28.43-16-33.66-32-3.4-10.36,1.72-21,8.26-29.08,3.61-4.44,11.29-9.52,10.14-16.06-.95-5.43-8.58-9.42-12.56-12.28a321,321,0,0,1-35-28.72c-9.76-9.36-26.27-23.57-24.93-38.79C155.81,252.78,168.47,252.83,178.44,253.72Z"/></clipPath><clipPath id="clip-path-2" transform="translate(-67.9 -96.98)"><path class="cls-2" d="M96.8,289.22c5.15-18.57,21.46-32.63,40.12-37.48,11.36-3,25.23-4,36.81-1.94,16.3,2.84,29.75,13.47,40.24,25.79,12.32,14.48,13.47,32.42,17.88,50.24.86,3.5,6.56,22.74,10.87,11.46,6-15.72,19.42-13,19.43-13,10.49,2.17,18.56,9.88,22.44,19.57,10.36,25.9,7.16,59.55,5,86.7-1,12.77-2.61,25.47-4.51,38.14a8.08,8.08,0,0,1-14.13,4.06c-2.14-2.5-4.38-4.8-6.46-6.82-20-19.43-51.23-22.3-77.6-23.47-15.41-.67-28.1-1.65-41.51-9.92-5.58-3.44-11.64-7.66-14.23-13.94-2.33-5.68-2.79-15.41.73-20.69,4.39-6.58,14.13-6.17,19.93-11,9.37-7.83-15.14-13.28-20.07-14.87-7.87-2.53-13.09-8.81-19-14.25a69.75,69.75,0,0,1-12-13.89C90.73,328.05,92,306.69,96.8,289.22Z"/></clipPath><linearGradient id="linear-gradient-5" x1="-584.98" y1="513.5" x2="-510.39" y2="513.5" gradientTransform="matrix(-1, 0, 0, 1, -250.54, -96.98)" gradientUnits="userSpaceOnUse"><stop offset="0.49" stop-color="#ebeff2"/><stop offset="1" stop-color="#fff"/></linearGradient><linearGradient id="linear-gradient-6" x1="-597.31" y1="528.12" x2="-498.65" y2="528.12" xlink:href="#linear-gradient-5"/><linearGradient id="linear-gradient-7" x1="-750.41" y1="536.14" x2="-559.29" y2="536.14" gradientTransform="matrix(-1, 0, 0, 1, -182.64, 0)" gradientUnits="userSpaceOnUse"><stop offset="0" stop-color="#4F81BD"/><stop offset="1" stop-color="#f36f56"/></linearGradient><linearGradient id="linear-gradient-8" x1="-607.67" y1="507.88" x2="-639.97" y2="596.92" gradientTransform="matrix(-1, 0, 0, 1, -182.64, 0)" gradientUnits="userSpaceOnUse"><stop offset="0" stop-color="#ffc444"/><stop offset="0.59" stop-color="#f8924f"/><stop offset="1" stop-color="#f36f56"/></linearGradient><linearGradient id="linear-gradient-9" x1="-641.04" y1="495.18" x2="-675.26" y2="589.5" xlink:href="#linear-gradient-8"/><linearGradient id="linear-gradient-10" x1="-654.16" y1="353.53" x2="-661.11" y2="580" xlink:href="#linear-gradient-7"/><linearGradient id="linear-gradient-11" x1="-715.03" y1="467.58" x2="-642.04" y2="467.58" xlink:href="#linear-gradient-7"/><linearGradient id="linear-gradient-12" x1="-560.91" y1="104.57" x2="-605.96" y2="147.87" gradientTransform="matrix(-1, 0, 0, 1, -182.64, 0)" gradientUnits="userSpaceOnUse"><stop offset="0" stop-color="#aa80f9"/><stop offset="1" stop-color="#6165d7"/></linearGradient><linearGradient id="linear-gradient-13" x1="-694.81" y1="114.44" x2="-541.67" y2="364.91" xlink:href="#linear-gradient-12"/><linearGradient id="linear-gradient-14" x1="-613.6" y1="257.05" x2="-737.97" y2="6.96" xlink:href="#linear-gradient-12"/><linearGradient id="linear-gradient-15" x1="-706.91" y1="208.53" x2="-586.82" y2="208.53" gradientTransform="matrix(-1, 0, 0, 1, -182.64, 0)" gradientUnits="userSpaceOnUse"><stop offset="0" stop-color="#26264f"/><stop offset="1" stop-color="#444b8c"/></linearGradient><linearGradient id="linear-gradient-16" x1="-627.58" y1="300.47" x2="-662.25" y2="111.5" xlink:href="#linear-gradient-12"/><linearGradient id="linear-gradient-17" x1="-649.53" y1="462.91" x2="-369.55" y2="462.91" xlink:href="#linear-gradient-12"/><linearGradient id="linear-gradient-18" x1="-511.97" y1="400.93" x2="-513.04" y2="335.77" xlink:href="#linear-gradient-12"/><linearGradient id="linear-gradient-19" x1="-511.47" y1="407.68" x2="-511.82" y2="350.68" gradientTransform="matrix(-1, 0, 0, 1, -182.64, 0)" gradientUnits="userSpaceOnUse"><stop offset="0" stop-color="#ab316d"/><stop offset="1" stop-color="#792d3d"/></linearGradient><linearGradient id="linear-gradient-20" x1="-516.19" y1="326.12" x2="-506.93" y2="214.67" xlink:href="#linear-gradient-19"/><linearGradient id="linear-gradient-21" x1="-549.17" y1="323.38" x2="-539.91" y2="211.93" xlink:href="#linear-gradient-19"/><linearGradient id="linear-gradient-22" x1="-478.7" y1="329.23" x2="-469.44" y2="217.78" xlink:href="#linear-gradient-19"/><linearGradient id="linear-gradient-23" x1="-518.64" y1="272.38" x2="-494.07" y2="196.18" gradientTransform="matrix(-1, 0, 0, 1, -182.64, 0)" gradientUnits="userSpaceOnUse"><stop offset="0" stop-color="#311944"/><stop offset="1" stop-color="#6b3976"/></linearGradient><linearGradient id="linear-gradient-24" x1="-518.64" y1="272.38" x2="-494.07" y2="196.18" xlink:href="#linear-gradient-23"/><linearGradient id="linear-gradient-25" x1="-600.3" y1="462.81" x2="-508.75" y2="462.81" xlink:href="#linear-gradient-7"/><linearGradient id="linear-gradient-26" x1="-600.3" y1="440.69" x2="-592.34" y2="440.69" gradientTransform="matrix(-1, 0, 0, 1, -182.64, 0)" gradientUnits="userSpaceOnUse"><stop offset="0" stop-color="#ffc444"/><stop offset="1" stop-color="#f36f56"/></linearGradient><linearGradient id="linear-gradient-27" x1="3614.64" y1="462.81" x2="3706.22" y2="462.81" gradientTransform="translate(-3380.1)" xlink:href="#linear-gradient-7"/><linearGradient id="linear-gradient-28" x1="3614.64" y1="440.69" x2="3622.6" y2="440.69" gradientTransform="translate(-3380.1)" xlink:href="#linear-gradient-26"/><linearGradient id="linear-gradient-29" x1="-483.75" y1="461.92" x2="-271.02" y2="461.92" xlink:href="#linear-gradient-15"/><linearGradient id="linear-gradient-30" x1="-477.79" y1="462.19" x2="-276.99" y2="462.19" gradientTransform="matrix(-1, 0, 0, 1, -182.64, 0)" gradientUnits="userSpaceOnUse"><stop offset="0" stop-color="#4F81BD"/><stop offset="0.04" stop-color="#f48a49"/><stop offset="0.1" stop-color="#f59356"/><stop offset="0.17" stop-color="#f5985e"/><stop offset="0.32" stop-color="#f59960"/><stop offset="0.7" stop-color="#f79555"/><stop offset="0.87" stop-color="#f8924f"/><stop offset="1" stop-color="#f8924f"/></linearGradient><linearGradient id="linear-gradient-31" x1="-477.79" y1="462.27" x2="-344.76" y2="462.27" gradientTransform="matrix(-1, 0, 0, 1, -182.64, 0)" gradientUnits="userSpaceOnUse"><stop offset="0" stop-color="#fcb148"/><stop offset="0.05" stop-color="#fdba46"/><stop offset="0.14" stop-color="#ffc244"/><stop offset="0.32" stop-color="#ffc444"/><stop offset="0.48" stop-color="#fdb946"/><stop offset="0.78" stop-color="#f99c4d"/><stop offset="0.87" stop-color="#f8924f"/><stop offset="1" stop-color="#f8924f"/></linearGradient></defs><g class="cls-3"><g id="Layer_1" data-name="Layer 1"><path class="cls-4" d="M369.73,565.52c122.9-18.61,222.77-134.81,204.63-264-15.48-110.14-112-195.85-227.85-203.95q-12.57-.89-25.43-.52A253.07,253.07,0,0,0,156.63,163.9c-42.25,38.91-69.7,91-74.7,145.56C68.62,454.75,216.88,588.67,369.73,565.52Z" transform="translate(-67.9 -96.98)"/><path class="cls-1" d="M178.44,253.72c1.64.14,3.21.31,4.64.45,4.45.43,14.19,3.13,17.55-1.3,5.54-7.3-8.53-19.68-12.07-25.25-4.39-6.88-9.82-14.54-10.7-22.9-1.34-12.71,7.37-29.91,18.12-36.55,14.82-9.15,35.53-2.92,48.85,6.07,19.29,13,32.85,34.5,38.35,56.94,5.93,24.18-2.25,49.22.1,73.73,3.68,38.53,58.29-10.56,47.61,90.75-2.35,22.37-6.19,46.84-18.76,66-5.21,7.95-15.63,19-26,18.36-14.72-.9-14.06-21.73-18.63-31.34-5.34-11.24-14.66-20.12-25-26.76-13.16-8.45-28.43-16-33.66-32-3.4-10.36,1.72-21,8.26-29.08,3.61-4.44,11.29-9.52,10.14-16.06-.95-5.43-8.58-9.42-12.56-12.28a321,321,0,0,1-35-28.72c-9.76-9.36-26.27-23.57-24.93-38.79C155.81,252.78,168.47,252.83,178.44,253.72Z" transform="translate(-67.9 -96.98)"/><g class="cls-5"><g class="cls-6"><path class="cls-7" d="M256.9,506.49a.76.76,0,0,0,.43-.14c25.13-18,37-45.36,36.16-83.78-.7-33.5-10.52-69.85-20-105-7.47-27.68-14.54-53.83-15.82-74.83-1-16.83-5.84-32.09-14.29-45.37a99.72,99.72,0,0,0-27-27.85,122.07,122.07,0,0,0-37.86-17.86.75.75,0,1,0-.34,1.46,120,120,0,0,1,37.38,17.65c17.26,12.18,38.31,34.56,40.6,72.06C257.45,264,264.53,290.19,272,318c18.69,69.18,39.87,147.59-15.56,187.18a.75.75,0,0,0-.18,1.05A.77.77,0,0,0,256.9,506.49Z" transform="translate(-67.9 -96.98)"/><path class="cls-7" d="M256.31,237.05a.66.66,0,0,0,.23,0c.2-.06,5-1.66,10.21-7.88,4.77-5.67,10.84-16.47,12.66-35.7a.74.74,0,1,0-1.48-.14c-1.78,18.76-7.64,29.27-12.24,34.78-5,6-9.57,7.51-9.61,7.52a.75.75,0,0,0-.48.94A.74.74,0,0,0,256.31,237.05Z" transform="translate(-67.9 -96.98)"/><path class="cls-7" d="M263.78,284a.74.74,0,0,0,.74-.67.75.75,0,0,0-.67-.82c-.12,0-12.94-1.39-29.74-8.8A131.07,131.07,0,0,1,179,227.8a.75.75,0,0,0-1.24.84,132.52,132.52,0,0,0,55.84,46.46c17,7.49,30,8.89,30.14,8.9Z" transform="translate(-67.9 -96.98)"/><path class="cls-7" d="M290.75,398.57a.77.77,0,0,0,.25,0,57.68,57.68,0,0,0,23.05-17.11,56.53,56.53,0,0,0,11.79-25.49c2.28-11.94,1.23-25.49-3.12-40.26a.75.75,0,0,0-1.43.42c9.67,32.84.8,53.11-8.35,64.33a57.4,57.4,0,0,1-22.44,16.7.75.75,0,0,0,.25,1.45Z" transform="translate(-67.9 -96.98)"/><path class="cls-7" d="M286.4,373.36a.75.75,0,0,0,.74-.65.74.74,0,0,0-.64-.84c-.6-.08-59.91-8.14-74.44-30.58a.74.74,0,0,0-1-.22.75.75,0,0,0-.23,1c6.28,9.69,20.91,17.9,43.49,24.39a248.12,248.12,0,0,0,32,6.86Z" transform="translate(-67.9 -96.98)"/></g></g><path class="cls-2" d="M96.8,289.22c5.15-18.57,21.46-32.63,40.12-37.48,11.36-3,25.23-4,36.81-1.94,16.3,2.84,29.75,13.47,40.24,25.79,12.32,14.48,13.47,32.42,17.88,50.24.86,3.5,6.56,22.74,10.87,11.46,6-15.72,19.42-13,19.43-13,10.49,2.17,18.56,9.88,22.44,19.57,10.36,25.9,7.16,59.55,5,86.7-1,12.77-2.61,25.47-4.51,38.14a8.08,8.08,0,0,1-14.13,4.06c-2.14-2.5-4.38-4.8-6.46-6.82-20-19.43-51.23-22.3-77.6-23.47-15.41-.67-28.1-1.65-41.51-9.92-5.58-3.44-11.64-7.66-14.23-13.94-2.33-5.68-2.79-15.41.73-20.69,4.39-6.58,14.13-6.17,19.93-11,9.37-7.83-15.14-13.28-20.07-14.87-7.87-2.53-13.09-8.81-19-14.25a69.75,69.75,0,0,1-12-13.89C90.73,328.05,92,306.69,96.8,289.22Z" transform="translate(-67.9 -96.98)"/><g class="cls-8"><g class="cls-6"><path class="cls-7" d="M288.13,482a.88.88,0,0,0,.32-.07.74.74,0,0,0,.36-1,1091.43,1091.43,0,0,0-59.09-106.3c-20.05-31.46-39.38-57.21-57.44-76.54-22.66-24.24-43.41-38.42-61.7-42.14a.75.75,0,1,0-.3,1.46c18,3.66,38.47,17.69,60.91,41.7,18,19.26,37.27,44.94,57.27,76.33a1089.9,1089.9,0,0,1,59,106.13A.74.74,0,0,0,288.13,482Z" transform="translate(-67.9 -96.98)"/><path class="cls-7" d="M199.28,332.5h.12a.75.75,0,0,0,.62-.86c-.11-.7-11.12-70.58-.19-82.37a.75.75,0,0,0-1.1-1c-11.42,12.32-.65,80.72-.19,83.63A.75.75,0,0,0,199.28,332.5Z" transform="translate(-67.9 -96.98)"/><path class="cls-7" d="M68.65,296.32a.71.71,0,0,0,.39-.12c29.31-18.31,90.27-8.75,90.89-8.65a.74.74,0,1,0,.23-1.47,254.34,254.34,0,0,0-34.6-2.64c-17.54-.14-41.72,1.75-57.31,11.5a.75.75,0,0,0-.24,1A.77.77,0,0,0,68.65,296.32Z" transform="translate(-67.9 -96.98)"/><path class="cls-7" d="M263.54,434.28l.17,0a.76.76,0,0,0,.56-.9c-8-34.56,22-85,22.29-85.46a.75.75,0,1,0-1.28-.77A217.57,217.57,0,0,0,271,377c-6.07,15.7-12.42,38.27-8.16,56.67A.76.76,0,0,0,263.54,434.28Z" transform="translate(-67.9 -96.98)"/><path class="cls-7" d="M238.74,391.27a.74.74,0,0,0,.71-.51.75.75,0,0,0-.47-.95,558.43,558.43,0,0,0-59.76-15.3c-30.13-5.91-71.42-10.89-97.06-1.05a.76.76,0,0,0-.43,1,.75.75,0,0,0,1,.43C108,365.14,149,370.1,178.93,376a557,557,0,0,1,59.58,15.26A.66.66,0,0,0,238.74,391.27Z" transform="translate(-67.9 -96.98)"/></g></g><rect class="cls-7" x="382.42" y="66.84" width="32.11" height="4.85"/><rect class="cls-7" x="448.46" y="66.84" width="24.84" height="4.85"/><rect class="cls-9" x="294.57" y="66.84" width="25.45" height="4.85"/><rect class="cls-7" x="209.75" y="66.84" width="25.45" height="4.85"/><rect class="cls-9" x="374.54" y="79.56" width="32.11" height="125.41"/><rect class="cls-10" x="406.65" y="79.56" width="16.96" height="125.41"/><rect class="cls-10" x="410.89" y="60.78" width="5.45" height="26.05"/><rect class="cls-9" x="382.42" y="60.78" width="5.45" height="26.05"/><rect class="cls-9" x="199.45" y="79.56" width="31.5" height="125.41"/><rect class="cls-10" x="230.96" y="79.56" width="16.96" height="125.41"/><rect class="cls-10" x="235.2" y="60.78" width="6.06" height="26.05"/><rect class="cls-9" x="206.72" y="60.78" width="6.06" height="26.05"/><rect class="cls-9" x="283.67" y="79.56" width="30.9" height="125.41"/><rect class="cls-10" x="314.56" y="79.56" width="18.18" height="125.41"/><rect class="cls-10" x="320.02" y="60.78" width="5.45" height="26.05"/><rect class="cls-9" x="291.54" y="60.78" width="5.45" height="26.05"/><rect class="cls-9" x="440.58" y="79.56" width="26.66" height="125.41"/><rect class="cls-10" x="467.24" y="79.56" width="14.54" height="125.41"/><rect class="cls-10" x="470.87" y="60.78" width="4.85" height="26.05"/><rect class="cls-9" x="446.03" y="60.78" width="6.06" height="26.05"/><polygon class="cls-9" points="403.75 439.46 481.27 432.41 481.27 199.96 403.75 195.88 403.75 439.46"/><polygon class="cls-10" points="411.38 204.63 484.21 207.14 484.21 193.73 411.38 190.85 411.38 204.63"/><polygon class="cls-10" points="411.38 304.58 484.21 304.34 484.21 290.93 411.38 290.8 411.38 304.58"/><polygon class="cls-7" points="194.08 431.29 406.1 439.59 406.1 194.4 194.08 198.49 194.08 431.29"/><polygon class="cls-9" points="188.79 204.58 411.38 204.33 411.38 189.9 188.79 190.91 188.79 204.58"/><polygon class="cls-9" points="188.79 299.72 411.38 304.79 411.38 290.93 188.79 286.6 188.79 299.72"/><polygon class="cls-9" points="188.79 427.67 411.38 439.89 411.38 437.58 188.79 425.48 188.79 427.67"/><polygon class="cls-9" points="342.08 279.36 392 280.21 392 218.73 342.08 218.6 342.08 279.36"/><polygon class="cls-9" points="273.37 278.19 321.52 279.01 321.52 218.56 273.37 218.45 273.37 278.19"/><polygon class="cls-9" points="206.41 277.05 253.4 277.85 253.4 218.4 206.41 218.29 206.41 277.05"/><polygon class="cls-9" points="342.08 405.98 392 408.35 392 347.44 342.08 345.79 342.08 405.98"/><polygon class="cls-9" points="206.41 399.52 253.4 401.75 253.4 342.85 206.41 341.31 206.41 399.52"/><path class="cls-11" d="M474,301.9s-42.69,5.75-61.08,34.15c-18.22,28.15-59.34,16.37-95.17,23.73-35.2,7.24-56.17,24.44-56.17,24.44L474,389Z" transform="translate(-67.9 -96.98)"/><path class="cls-11" d="M474,447.24s-42.69,4.3-61.08,32.08c-18.22,27.53-59.34,14.35-95.17,20.49-35.2,6-56.17,22.53-56.17,22.53l212.42,12Z" transform="translate(-67.9 -96.98)"/><polygon class="cls-12" points="273.37 418.9 321.52 421.39 321.52 333.81 273.37 332.35 273.37 418.9"/><polygon class="cls-9" points="265.73 336.58 328.57 338.56 328.57 326.1 265.73 324.32 265.73 336.58"/><polygon class="cls-13" points="259.86 418.21 334.44 422.05 334.44 414.68 259.86 410.98 259.86 418.21"/><polygon class="cls-9" points="252.81 425.05 342.67 429.86 342.67 422.48 252.81 417.83 252.81 425.05"/><polygon class="cls-14" points="248.11 432.02 346.78 437.47 346.78 430.08 248.11 424.81 248.11 432.02"/><path class="cls-15" d="M376.65,535.44v7c0,1.78.92,3.25,2.13,3.42l108.76,9.85a7.93,7.93,0,0,0,2.43-.05c.2,0,.41-.08.62-.13l75.79-14.29a2.44,2.44,0,0,0,1.39-2.48v-7.37l-80.4-10L477,516.51,466.73,518l-6.08-1.17-13.89,4Z" transform="translate(-67.9 -96.98)"/><path class="cls-16" d="M376.65,535.44v7c0,1.78.92,3.25,2.13,3.42l108.76,9.85a7.71,7.71,0,0,0,2.42-.05V518.09L477,516.51,466.72,518l-6.07-1.17-13.89,4Z" transform="translate(-67.9 -96.98)"/><path class="cls-17" d="M460.65,516.82,567.77,531,490.51,545.6a7.57,7.57,0,0,1-2.88.17l-111-10.33Z" transform="translate(-67.9 -96.98)"/><path class="cls-18" d="M421.38,529.67c0,5.1,16.06,9.07,38.22,10.1,5.59.25,11.57.33,17.78.18,30.5-.7,55-6.38,55-12.66a1.53,1.53,0,0,0,0-.45h0l-.12-.3a1.57,1.57,0,0,0-.12-.3l-7-18.39-8.5-22.19-11.89-31.1-9.11-23.81-11.33-29.6c-1.42-3.71-4-6-6.88-6a5.45,5.45,0,0,0-1.14.12c-2.39.52-4.53,2.68-5.76,5.9L459.09,431,450,455.09l-12,31.72h0l-8.65,22.8h0l-.13,0L422,528.16A3,3,0,0,0,421.38,529.67Z" transform="translate(-67.9 -96.98)"/><path class="cls-7" d="M429.15,509.64c6.94,2.32,18,4,31.33,4.61,5.36.25,11,.33,16.93.22,20.5-.39,38.27-3,47.73-6.61l-8.51-22.2c-9.95,2.24-23.82,3.75-39.23,4-5,.08-9.84,0-14.47-.17a169,169,0,0,1-25.08-2.65l-8.57,22.8h0Z" transform="translate(-67.9 -96.98)"/><path class="cls-7" d="M449.86,455.09c5.3.57,11.13,1,17.31,1.14,3.31.1,6.72.13,10.21.09a235.19,235.19,0,0,0,27.35-1.76l-9.11-23.81c-5.7.45-11.84.71-18.24.75-2.26,0-4.49,0-6.68-.05-4-.07-7.9-.24-11.61-.48Z" transform="translate(-67.9 -96.98)"/><path class="cls-19" d="M459.6,539.77c5.59.25,11.57.33,17.78.18,30.5-.7,55-6.38,55-12.66a1.53,1.53,0,0,0,0-.45h0l-.12-.3a1.57,1.57,0,0,0-.12-.3l-7-18.39-8.5-22.19-11.89-31.1-9.11-23.81-11.33-29.6c-1.42-3.71-4-6-6.88-6a5.45,5.45,0,0,0-1.14.12c-1.21,7.54-3.28,20.69-5.57,36.19-1.15,7.8-2.35,16.21-3.53,24.78-1.52,11.08-3,22.46-4.24,33.24-1,8.83-1.89,17.26-2.51,24.78C459.52,525.14,459.15,534.15,459.6,539.77Z" transform="translate(-67.9 -96.98)"/><path class="cls-20" d="M468.16,307a20.56,20.56,0,0,0,11.21-2.89c10.23-6.14,25.34-16.26,38.94-29.52,17.26-16.82,27.17-33.92,29.34-50.71l0-.26.42-71.65c0-14.16-9.24-25.65-26.58-33.21-14.32-6.24-33.31-9.33-53.37-8.75-19.82.58-38.17,4.67-51.75,11.48-16.14,8.11-24.61,19.49-24.61,33l.39,68.46,0,.25c2,16.08,11.1,32.7,27.22,49.51C432.38,286.22,447,296.9,457,303.52A21.28,21.28,0,0,0,468.16,307Z" transform="translate(-67.9 -96.98)"/><path class="cls-21" d="M464.23,307a20.1,20.1,0,0,0,11.06-2.89c10.09-6.14,25-16.26,38.43-29.52,17-16.82,26.81-33.92,28.95-50.71l0-.26.42-71.65c0-14.16-9.12-25.65-26.23-33.21-14.13-6.24-32.87-9.33-52.66-8.75-19.57.58-37.67,4.67-51.07,11.48-15.93,8.11-24.28,19.49-24.28,33l.38,68.46,0,.25c1.95,16.08,10.95,32.7,26.86,49.51,12.76,13.48,27.19,24.16,37.09,30.78A20.81,20.81,0,0,0,464.23,307Z" transform="translate(-67.9 -96.98)"/><path class="cls-22" d="M538.39,152.06,538,223.35c-4.69,36.37-47.44,65.81-66.05,77a16.42,16.42,0,0,1-17.45-.47c-18.23-12-58.63-42.19-63-77.16l-.38-68.27C391.14,103.8,538.39,99.17,538.39,152.06Z" transform="translate(-67.9 -96.98)"/><path class="cls-23" d="M463.17,289.36a2.57,2.57,0,0,0,1.38-.36c7.66-4.64,22.52-14.37,35.45-27.06,14-13.72,22-27.05,23.86-39.58l.41-70.1c0-6.73-5.34-12.48-15.78-17.09-11.65-5.14-28.19-7.84-45.32-7.43-16.95.4-33,3.81-44.15,9.33-9.84,4.89-14.82,10.65-14.83,17.14l.38,67.68c1.72,12.12,9.28,25.18,22.55,38.92,12.48,12.91,27.05,23.15,34.67,28.12A2.57,2.57,0,0,0,463.17,289.36Z" transform="translate(-67.9 -96.98)"/><path class="cls-24" d="M464.92,284.57c7.74-4.77,21.51-14,33.52-25.79,13.12-12.92,20.71-25.31,22.5-36.77l.4-69.7c0-4.81-4.43-9.22-13.1-13.06-11-4.89-26.86-7.46-43.32-7.09s-31.68,3.58-42.24,8.81c-8.21,4.06-12.36,8.49-12.37,13.18l.38,67.43c1.67,11.12,8.84,23.29,21.36,36.23C443.68,269.82,457.21,279.48,464.92,284.57Z" transform="translate(-67.9 -96.98)"/><path class="cls-7" d="M469.62,232.22a7,7,0,0,0,5.94-3.1l19.24-29.93c1.67-2.59.77-6.36-2-8.49s-6.68-1.85-8.49.79l-14.15,20.78L449,172.51a10.93,10.93,0,0,0-11.33-5.36c-4.36,1-6.12,5-3.87,9.08l29.36,52.34a7.37,7.37,0,0,0,6.21,3.64Z" transform="translate(-67.9 -96.98)"/><path class="cls-25" d="M463.16,534.7c10.85-28.25-4.46-74.55-14.11-95.54-28.11-61.16-79.76-63.23-122.11-64.92-41.6-1.67-81.76-3.27-111.15,43.64-19.2,30.65-36.85,86.87-25.08,116.82,12.39,31.5,46.77,7.09,128.54,6.66C409.2,540.88,449.62,570,463.16,534.7Z" transform="translate(-67.9 -96.98)"/><path class="cls-26" d="M287.67,380.67c0,7.71,18.8,16.95,42,16.95s42-9.24,42-16.95-18.81-4.25-42-4.25S287.67,373,287.67,380.67Z" transform="translate(-67.9 -96.98)"/><path class="cls-27" d="M345.11,327c6.39,0-8.35,44.87,14.86,51a2.55,2.55,0,0,1,.57,4.72c-6.23,3.38-17.9,7.66-37,7.66a47.24,47.24,0,0,1-26.26-7.87,2.55,2.55,0,0,1,.27-4.39c7.16-3.69,17.1-15.42,14.13-50Z" transform="translate(-67.9 -96.98)"/><path class="cls-28" d="M364.51,273.16c-.09.56-2,41.52-11.39,62-2.68,5.87-16,5.17-24.64,4.46-7.49-.61-19.23,2.12-22.54-3-13.3-20.8-11-72.3-11-72.3s6.81-17.14,34.75-16.67S364.51,273.16,364.51,273.16Z" transform="translate(-67.9 -96.98)"/><path class="cls-29" d="M358,295.16s5.85-6.8,11.35-7.7,9.1,13.35,1.59,22.64-16.2,1.58-16.2,1.58Z" transform="translate(-67.9 -96.98)"/><path class="cls-30" d="M301,295.16s-5.85-6.8-11.36-7.7-9.09,13.35-1.58,22.64,16.2,1.58,16.2,1.58Z" transform="translate(-67.9 -96.98)"/><path class="cls-31" d="M362.55,294.64c-.74,1.35-1.58,2.61-2.15,2.46-2.36-.61,6.75-23.63-1.64-31.69-4.34-4.16-9.23-.37-27-1.17s-22.47-5.09-27.88-1.81c-4.93,3-9.34,11.52-5.68,36.79l-3.06-.71c1.37-8.27-.12-13.5-1.83-16.79-1.25-2.4-3.51-5.5-3.33-10,.11-2.77,1-2.9,1.18-5.17.44-6.65-7.15-8.44-7.52-15-.28-5.06,4.09-6.21,3.29-11.5-.68-4.5-4.09-5.34-3.55-8.59.58-3.51,5.15-6.12,8.35-7s4.46.1,6.37-1.22c3.1-2.13,1.61-5.93,3.85-7.34,4-2.5,11.91,7.51,17,5,3.1-1.51,1.9-6,4.65-7.11,5.31-2.11,14.68,12.75,18.45,10.78,1.81-.95.07-4.57,2.6-7.23,3-3.13,10.11-3.13,13.36.19,3,3.08.46,6.77,3.67,10.69,2.89,3.51,6.22,2.06,9.47,4.88,5.53,4.78,3.61,15.61,2.92,19.47-2.37,13.29-9.73,16-8.08,25.05.43,2.32,1.41,4.9.71,8.69A17.84,17.84,0,0,1,362.55,294.64Z" transform="translate(-67.9 -96.98)"/><g class="cls-32"><path class="cls-33" d="M294.55,265.93c.65-6.54-4.41-9.58-3.56-14.25.68-3.74,4.92-7.11,8.9-7.83,8.49-1.53,14,11,22.43,9.61,6.53-1,5.81-8.93,13.18-12.1,11.68-5,23.92,10.3,31.69,6,2.33-1.27,4.69-4.55,4.86-13.45,4.45,5.12,2.71,15,2.06,18.61-2.37,13.29-9.73,16-8.08,25.05.43,2.32,1.41,4.9.71,8.69a17.84,17.84,0,0,1-4.19,8.33c-.74,1.35-1.58,2.61-2.15,2.46-2.36-.61,6.75-23.63-1.64-31.69-4.34-4.16-9.23-.37-27-1.17s-22.47-5.09-27.88-1.81c-4.93,3-9.34,11.52-5.68,36.79l-3.06-.71c1.37-8.27-.12-13.5-1.83-16.79-.52-1-1.2-2.1-1.82-3.37a29.75,29.75,0,0,1,1.28-7.08C293.68,268.32,294.34,268,294.55,265.93Z" transform="translate(-67.9 -96.98)"/></g><path class="cls-34" d="M326.12,465v87.2h82.94a6.59,6.59,0,0,0,6.58-6.5l.69-52.06,1.33-100.5a3.41,3.41,0,0,0-1.83-3.05l-4.45-2.28-4.74-2.45L375.4,373.76a4.92,4.92,0,0,0-6.12,2.44L326.8,462.05A6.52,6.52,0,0,0,326.12,465Z" transform="translate(-67.9 -96.98)"/><path class="cls-35" d="M409.7,481.5a9.33,9.33,0,0,0,1.88,5.8l4.75,6.31,1.33-100.5a3.41,3.41,0,0,0-1.83-3.05l-4.45-2.28Z" transform="translate(-67.9 -96.98)"/><rect class="cls-7" x="258.22" y="398.23" width="89.67" height="23.02"/><path class="cls-12" d="M326.8,462.05l42.48-85.86a4.93,4.93,0,0,1,6.12-2.43l2.74,1a5,5,0,0,0-1.05,1.41l-42.45,85.86A6.53,6.53,0,0,0,334,465v87.2h-7.87V465A6.56,6.56,0,0,1,326.8,462.05Z" transform="translate(-67.9 -96.98)"/><path class="cls-36" d="M326.12,465v87.2h-83a6.59,6.59,0,0,1-6.58-6.5l-.69-52.06-1.32-100.5a3.38,3.38,0,0,1,1.83-3.05l4.44-2.28,4.74-2.45,31.25-11.57a4.93,4.93,0,0,1,6.12,2.44l42.5,85.85A6.54,6.54,0,0,1,326.12,465Z" transform="translate(-67.9 -96.98)"/><path class="cls-37" d="M242.5,481.5a9.4,9.4,0,0,1-1.89,5.8l-4.75,6.31-1.32-100.5a3.38,3.38,0,0,1,1.83-3.05l4.44-2.28Z" transform="translate(-67.9 -96.98)"/><rect class="cls-7" x="167.95" y="398.23" width="90.27" height="23.02"/><path class="cls-38" d="M325.42,462.05l-42.49-85.86a5,5,0,0,0-6.13-2.43l-2.74,1a5,5,0,0,1,1.05,1.41l42.47,85.86a6.54,6.54,0,0,1,.66,2.92v87.2h7.88V465A6.57,6.57,0,0,0,325.42,462.05Z" transform="translate(-67.9 -96.98)"/><path class="cls-39" d="M287.35,555.8a13.66,13.66,0,0,0,11.93-20.52L206.67,374.91a13.76,13.76,0,0,0-23.84,0L90.22,535.32a13.64,13.64,0,0,0,11.93,20.48Z" transform="translate(-67.9 -96.98)"/><path class="cls-40" d="M95.4,546.28a8,8,0,0,0,6.75,4.07H287.36a8,8,0,0,0,6.74-12L201.5,378a7.82,7.82,0,0,0-5.26-3.78,8.09,8.09,0,0,0-1.49-.15,7.79,7.79,0,0,0-6.75,3.89L95.4,538.4A7.92,7.92,0,0,0,95.4,546.28Z" transform="translate(-67.9 -96.98)"/><path class="cls-41" d="M199.08,531.61c19.82,8.23,33.16,12.68,41.49,18.74h46.79a8,8,0,0,0,6.74-12L201.5,378a7.82,7.82,0,0,0-5.26-3.78c8.13,16,19.31,49.21-8.42,75.83C149.75,486.56,154.36,513.05,199.08,531.61Z" transform="translate(-67.9 -96.98)"/><path class="cls-7" d="M190.76,490.57l8.07-.2a4.46,4.46,0,0,0,4.23-4.24l3-56.85a3.67,3.67,0,0,0-1.17-2.93,3.84,3.84,0,0,0-3.08-1l-13.9,1a4.24,4.24,0,0,0-4.13,4.45l2.87,55.82A4.11,4.11,0,0,0,190.76,490.57Z" transform="translate(-67.9 -96.98)"/><path class="cls-7" d="M203.22,504.45q-3-2.88-8.5-2.79c-3.76.06-6.6,1-8.55,3s-2.92,4.71-2.92,8.39,1,6.3,3,8.24,4.82,2.93,8.49,2.93,6.43-1,8.47-3a11.21,11.21,0,0,0,3.06-8.32C206.25,509.18,205.24,506.38,203.22,504.45Z" transform="translate(-67.9 -96.98)"/></g></g></svg>