<svg xmlns="http://www.w3.org/2000/svg" xmlns:xlink="http://www.w3.org/1999/xlink" viewBox="0 0 601.48 481.43"><defs><style>.cls-1{fill:url(#linear-gradient);}.cls-2{fill:url(#linear-gradient-2);}.cls-3{fill:url(#linear-gradient-3);}.cls-4{isolation:isolate;}.cls-5{fill:#f4f7fa;}.cls-6{clip-path:url(#clip-path);}.cls-17,.cls-25,.cls-7{mix-blend-mode:soft-light;}.cls-8{fill:#fcfdfe;}.cls-9{clip-path:url(#clip-path-2);}.cls-10{fill:url(#linear-gradient-6);}.cls-11{fill:url(#linear-gradient-7);}.cls-12{fill:url(#linear-gradient-8);}.cls-13{fill:url(#linear-gradient-9);}.cls-14{fill:url(#linear-gradient-10);}.cls-15{fill:url(#linear-gradient-11);}.cls-16{fill:url(#linear-gradient-12);}.cls-17,.cls-18,.cls-20,.cls-25{fill:#fff;}.cls-17{opacity:0.6;}.cls-19{mask:url(#mask);}.cls-20{opacity:0.56;}.cls-21{fill:#97a6b7;}.cls-22,.cls-27{fill:#d8dee8;}.cls-23{fill:#f9efea;}.cls-24{fill:url(#linear-gradient-13);}.cls-25{opacity:0.3;}.cls-26{fill:#bfc8d6;}.cls-27{opacity:0.4;mix-blend-mode:multiply;}.cls-28{fill:url(#linear-gradient-14);}.cls-29{fill:url(#linear-gradient-15);}.cls-30{fill:url(#linear-gradient-16);}.cls-31{fill:url(#linear-gradient-17);}</style><linearGradient id="linear-gradient" x1="341.21" y1="524.78" x2="332.83" y2="326.39" gradientUnits="userSpaceOnUse"><stop offset="0" stop-color="#fff"/><stop offset="1"/></linearGradient><linearGradient id="linear-gradient-2" x1="294.4" y1="138.59" x2="236.88" y2="543.91" gradientUnits="userSpaceOnUse"><stop offset="0" stop-color="#ffc444"/><stop offset="1" stop-color="#f36f56"/></linearGradient><linearGradient id="linear-gradient-3" x1="133.8" y1="288.5" x2="349.32" y2="643.31" gradientUnits="userSpaceOnUse"><stop offset="0" stop-color="#e38ddd"/><stop offset="1" stop-color="#9571f6"/></linearGradient><clipPath id="clip-path" transform="translate(-33.44 -83.68)"><path class="cls-2" d="M252.73,511.15c-3.42,8.12-9.8,19.4-16.6,32.38H380.94c-22.12-40.89-51.05-83-28.51-162.85,10.58-37.46,43.29-105.37,20.16-144.15-26.34-44.19-62-18.29-77.13-53.27C271.89,128.6,217.74,96,169.81,131.84c-47.3,35.34-30.82,137,53,238.77C274.65,450.41,270.61,468.76,252.73,511.15Z"/></clipPath><clipPath id="clip-path-2" transform="translate(-33.44 -83.68)"><path class="cls-3" d="M227.85,349.51c.78,66.53,32.86,44.61,62.45,51.17,34.15,49.41,37.37,95.25-13.62,134.84L219.87,527c-21.08-1-45.81-7.42-44.42-35.49,1.58-31.74,9.09-51.91-26.74-67.5S97.49,380,112,347.64c15.26-34.05-20.55-79.95,5.62-102.76C163.23,205.13,227,280.24,227.85,349.51Z"/></clipPath><linearGradient id="linear-gradient-6" x1="876.33" y1="509.92" x2="876.63" y2="529.59" gradientTransform="matrix(-1, 0, 0, 1, 1227.93, 0)" gradientUnits="userSpaceOnUse"><stop offset="0" stop-color="#444b8c"/><stop offset="1" stop-color="#26264f"/></linearGradient><linearGradient id="linear-gradient-7" x1="872.91" y1="548.95" x2="904.32" y2="453.86" xlink:href="#linear-gradient-6"/><linearGradient id="linear-gradient-8" x1="733.69" y1="539.85" x2="1025.59" y2="539.85" gradientTransform="matrix(-1, 0, 0, 1, 1227.93, 0)" gradientUnits="userSpaceOnUse"><stop offset="0" stop-color="#ff9085"/><stop offset="1" stop-color="#fb6fbb"/></linearGradient><linearGradient id="linear-gradient-9" x1="1101.13" y1="208.76" x2="1105.88" y2="208.76" gradientTransform="matrix(-0.99, 0.12, 0.12, 0.99, 1515.77, 208.18)" xlink:href="#linear-gradient-8"/><linearGradient id="linear-gradient-10" x1="869.77" y1="558.23" x2="870.09" y2="566.56" xlink:href="#linear-gradient-6"/><linearGradient id="linear-gradient-11" x1="891.06" y1="557.4" x2="891.38" y2="565.74" xlink:href="#linear-gradient-6"/><linearGradient id="linear-gradient-12" x1="917.7" y1="556.37" x2="918.03" y2="564.7" xlink:href="#linear-gradient-6"/><mask id="mask" x="165.8" y="206.36" width="267.79" height="249.72" maskUnits="userSpaceOnUse"><g transform="translate(-33.44 -83.68)"><path class="cls-1" d="M467,330.11,348,524.74l-1.09,1.77-1.44,2.37L342.93,533l-1.84,3c0,2-6.77,3.63-15.27,3.73H325c-8.89,0-16.09-1.67-16.09-3.73L307.21,533l-3.37-6.11-1.15-2.09-1.45-2.62-7.08-12.85L282,487.16l-13.75-25-1.37-2.49-15.19-27.56L242,414.64,199.24,337.1a231.05,231.05,0,0,1,66.64-35.28q7.5-2.52,15.69-4.65c1.26-.33,2.54-.64,3.83-.95,1-.23,1.94-.46,2.91-.67l2.33-.52h0a225.35,225.35,0,0,1,37.6-4.79c1.62-.07,3.24-.12,4.88-.16A226,226,0,0,1,400.9,299l1.94.56.56.17c2.07.62,4.09,1.27,6.07,1.93,5.43,1.8,10.54,3.72,15.34,5.69A227,227,0,0,1,467,330.11Z"/></g></mask><linearGradient id="linear-gradient-13" x1="275.66" y1="296.36" x2="426.83" y2="296.36" gradientTransform="matrix(1, 0, 0, 1, 0, 0)" xlink:href="#linear-gradient-6"/><linearGradient id="linear-gradient-14" x1="354.13" y1="379.66" x2="533.69" y2="379.66" gradientUnits="userSpaceOnUse"><stop offset="0" stop-color="#40447e"/><stop offset="1" stop-color="#3c3b6b"/></linearGradient><linearGradient id="linear-gradient-15" x1="484.82" y1="356.67" x2="407.01" y2="444.52" gradientUnits="userSpaceOnUse"><stop offset="0" stop-color="#aa80f9"/><stop offset="1" stop-color="#6165d7"/></linearGradient><linearGradient id="linear-gradient-16" x1="272.91" y1="323.74" x2="241.54" y2="363.36" gradientTransform="matrix(1, 0, 0, 1, 0, 0)" xlink:href="#linear-gradient-6"/><linearGradient id="linear-gradient-17" x1="4814.96" y1="-2090.55" x2="4781.6" y2="-2048.41" gradientTransform="matrix(0.22, 0.75, -0.98, 0.29, -2747.04, -2581.91)" xlink:href="#linear-gradient-6"/></defs><g class="cls-4"><g id="Layer_1" data-name="Layer 1"><path class="cls-5" d="M156.16,177.34c-34.51,23.11-58.9,5.26-79.77,29.74-65.07,76.38,17.39,105.33-20.91,117C13.88,336.84,39.76,393,63.16,409.2,142.76,457.52,5,442.29,45.6,516.54c26.08,78.19,483.08,31.4,530.6,22.07,58-17,15.72-60.69,40.11-93.33,67.73-83.27-75.92-74.22-13-171,11.21-23.11,19.84-65-25.17-77s-97.35,35.74-120,11.51S445.46,152.45,396,160.55,330,231.26,286.85,227.81,229.33,128.34,156.16,177.34Z" transform="translate(-33.44 -83.68)"/><path class="cls-2" d="M252.73,511.15c-3.42,8.12-9.8,19.4-16.6,32.38H380.94c-22.12-40.89-51.05-83-28.51-162.85,10.58-37.46,43.29-105.37,20.16-144.15-26.34-44.19-62-18.29-77.13-53.27C271.89,128.6,217.74,96,169.81,131.84c-47.3,35.34-30.82,137,53,238.77C274.65,450.41,270.61,468.76,252.73,511.15Z" transform="translate(-33.44 -83.68)"/><g class="cls-6"><g class="cls-7"><path class="cls-8" d="M311,535.14c-1.68-18.77-4.21-36.4-6.88-55.05l-.9-6.23c-1.84-8.9-3.41-17.73-4.94-26.27-3.44-19.28-6.69-37.5-12.78-56.45-.23-1.13-.4-2.23-.57-3.4-.62-4.16-1.27-8.47-4.29-12.24l-.08-.16C255.94,274,210,176,144,84.17l.69-.49c66,91.92,112,190,136.67,291.37,3.1,3.93,3.79,8.52,4.4,12.57.17,1.16.34,2.25.55,3.31,6.1,19,9.35,37.2,12.8,56.51,1.52,8.54,3.1,17.36,4.94,26.28L305,480c2.68,18.67,5.21,36.3,6.88,55.1Z" transform="translate(-33.44 -83.68)"/><path class="cls-8" d="M296.85,444.16c-8-48.46,9.32-109.9,25.21-152.91a697.57,697.57,0,0,1,36.74-82.51l.74.4a695.82,695.82,0,0,0-36.69,82.41C307,334.46,289.76,395.74,297.68,444Z" transform="translate(-33.44 -83.68)"/><path class="cls-8" d="M233.63,237.68c-11.3-51-11.36-107-11.38-125.48,0-3.53,0-5.86-.08-6.3l.82-.15c.09.49.1,2.33.1,6.45,0,18.41.08,74.43,11.36,125.3Z" transform="translate(-33.44 -83.68)"/><path class="cls-8" d="M264.08,317.38c-23.81-41.87-120.38-68.06-121.36-68.32l.22-.81c1,.26,97.89,26.54,121.87,68.71Z" transform="translate(-33.44 -83.68)"/></g></g><path class="cls-3" d="M227.85,349.51c.78,66.53,32.86,44.61,62.45,51.17,34.15,49.41,37.37,95.25-13.62,134.84L219.87,527c-21.08-1-45.81-7.42-44.42-35.49,1.58-31.74,9.09-51.91-26.74-67.5S97.49,380,112,347.64c15.26-34.05-20.55-79.95,5.62-102.76C163.23,205.13,227,280.24,227.85,349.51Z" transform="translate(-33.44 -83.68)"/><g class="cls-9"><g class="cls-7"><path class="cls-8" d="M242,468.57a435.39,435.39,0,0,1-61.08-85.71,421.31,421.31,0,0,1-38.41-97.77,398.3,398.3,0,0,1-10.27-58.5l.86-.08a396.74,396.74,0,0,0,10.24,58.37,420.69,420.69,0,0,0,38.34,97.57,434.34,434.34,0,0,0,61,85.54Z" transform="translate(-33.44 -83.68)"/><path class="cls-8" d="M180.8,505.11l-.39-.77a147.93,147.93,0,0,1,37-12.46,145.7,145.7,0,0,1,19.69-2.7l.05.86a141.09,141.09,0,0,0-19.57,2.69A146.46,146.46,0,0,0,180.8,505.11Z" transform="translate(-33.44 -83.68)"/><path class="cls-8" d="M191.93,401.85c-29.34-28.38-91.78-25.79-92.41-25.75l0-.86c.63,0,63.44-2.65,93.05,26Z" transform="translate(-33.44 -83.68)"/><path class="cls-8" d="M155.76,327.78c-8.78-45.27,25.14-97.58,25.49-98.11l.72.48c-.35.52-34.08,52.55-25.37,97.47Z" transform="translate(-33.44 -83.68)"/></g></g><path class="cls-10" d="M511.14,540.32l-199.6-13.79a4.33,4.33,0,0,0-.72,0L192,531.91c-2.84.26-2.71,7.71.51,8.12l186.78,25a8.85,8.85,0,0,0,2.3,0l129.24-18.16C512.5,546.57,513.13,540.46,511.14,540.32Z" transform="translate(-33.44 -83.68)"/><path class="cls-11" d="M510.75,540.1,311.54,521.3a3.47,3.47,0,0,0-.72,0L192.53,531.68a1.82,1.82,0,0,0-.07,3.61l186.78,23.05a8.85,8.85,0,0,0,2.3,0l129.24-16.71A.77.77,0,0,0,510.75,540.1Z" transform="translate(-33.44 -83.68)"/><path class="cls-12" d="M377.26,556.09a7.55,7.55,0,0,0,.83-.05l115.83-15a.36.36,0,0,0,0-.71L316,523.61h-.23l-113.07,9.93a.44.44,0,0,0,0,.87L376.47,556A5.24,5.24,0,0,0,377.26,556.09Z" transform="translate(-33.44 -83.68)"/><path class="cls-13" d="M443.16,548.89c0,.35,1.13.5,2.43.34s2.33-.57,2.29-.91-1.14-.5-2.44-.34S443.12,548.55,443.16,548.89Z" transform="translate(-33.44 -83.68)"/><path class="cls-14" d="M349,559.56l17.93,2.35c1.3.17,2.38-.47,2.38-1.43h0c0-1-1.08-1.87-2.38-2L349,556.36c-1.11-.13-2,.48-2,1.35h0A2.16,2.16,0,0,0,349,559.56Z" transform="translate(-33.44 -83.68)"/><path class="cls-15" d="M329.38,557l14.77,1.94c1.07.14,1.94-.45,1.94-1.32h0a2.06,2.06,0,0,0-1.94-1.8l-14.77-1.73a1.37,1.37,0,0,0-1.66,1.25h0A1.83,1.83,0,0,0,329.38,557Z" transform="translate(-33.44 -83.68)"/><path class="cls-16" d="M304.64,553.73l11.23,1.48a1.22,1.22,0,0,0,1.46-1.18h0a1.65,1.65,0,0,0-1.46-1.54l-11.23-1.31a1.11,1.11,0,0,0-1.28,1.12h0A1.49,1.49,0,0,0,304.64,553.73Z" transform="translate(-33.44 -83.68)"/><path class="cls-17" d="M283.85,532.9c17.35,3.09,28.88,9.38,53.79,9.88,21.58.44,21.74-4.53,46.82-6.1,32.86-2.06,41.42,5.92,75,5.23a210.55,210.55,0,0,0,33.8-3.46l17.46,1.65a.77.77,0,0,1,0,1.53L381.54,558.34a8.85,8.85,0,0,1-2.3,0L221.15,538.83C248.27,529.79,269.05,530.26,283.85,532.9Z" transform="translate(-33.44 -83.68)"/><path class="cls-18" d="M325,542c-9.25,0-23-1.6-23-6s13.76-6,23-6,23,1.6,23,6S334.24,542,325,542Zm0-10.27c-13.95,0-21.26,2.77-21.26,4.26s7.31,4.25,21.26,4.25,21.26-2.77,21.26-4.25S339,531.76,325,531.76Z" transform="translate(-33.44 -83.68)"/><ellipse class="cls-17" cx="291.55" cy="452.34" rx="10.06" ry="2.33"/><g class="cls-19"><path class="cls-20" d="M467,330.11,348,524.74l-1.09,1.77-1.44,2.37L342.93,533l-1.84,3c0,2-6.77,3.63-15.27,3.73H325c-8.89,0-16.09-1.67-16.09-3.73L307.21,533l-3.37-6.11-1.15-2.09-1.45-2.62-7.08-12.85L282,487.16l-13.75-25-1.37-2.49-15.19-27.56L242,414.64,199.24,337.1a231.05,231.05,0,0,1,66.64-35.28q7.5-2.52,15.69-4.65c1.26-.33,2.54-.64,3.83-.95,1-.23,1.94-.46,2.91-.67l2.33-.52h0a225.35,225.35,0,0,1,37.6-4.79c1.62-.07,3.24-.12,4.88-.16A226,226,0,0,1,400.9,299l1.94.56.56.17c2.07.62,4.09,1.27,6.07,1.93,5.43,1.8,10.54,3.72,15.34,5.69A227,227,0,0,1,467,330.11Z" transform="translate(-33.44 -83.68)"/></g><path class="cls-21" d="M541,260.32l-11.7-2.18A84.83,84.83,0,0,0,528,235l11-3.88a6,6,0,0,0,3.55-7.52l-2.75-8.25a5.8,5.8,0,0,0-7.35-3.77l-10.81,3.71a87.42,87.42,0,0,0-12.92-20.08l7.43-8.6a6.17,6.17,0,0,0-.61-8.55l-6.6-6a5.88,5.88,0,0,0-8.45.34L493,180.86a89.09,89.09,0,0,0-22-11.48l2.12-11.33a6.55,6.55,0,0,0-5-7.48l-9-2.13a6,6,0,0,0-7.34,4.66l-2.15,11.45a90.44,90.44,0,0,0-25.45,1l-4.13-11.5a6.94,6.94,0,0,0-8.37-4.29l-9.13,2.71a6.08,6.08,0,0,0-4,8l4.31,11.77a89.61,89.61,0,0,0-21.53,13.89l-10.18-8.58a7.06,7.06,0,0,0-9.65.39l-6.51,7.08a6.33,6.33,0,0,0,.85,9.23L366.46,203a85.61,85.61,0,0,0-10.94,22.83l-14.15-2.63a6.8,6.8,0,0,0-8.1,5.14l-1.78,9.45a6.69,6.69,0,0,0,5.71,7.63L351.75,248a84.91,84.91,0,0,0,2.7,24.69l-14.18,4.87a6.38,6.38,0,0,0-4.15,8.32l3.52,8.89a7,7,0,0,0,8.87,3.73l14.37-5.08a87.87,87.87,0,0,0,14.88,19.34L367.91,324a6,6,0,0,0,.82,8.89l7.55,5.72a7,7,0,0,0,9.38-1.09l9.8-11.33a89.65,89.65,0,0,0,22.17,9.11L415,349.5a5.87,5.87,0,0,0,5.17,6.92l9.21,1.16a6.66,6.66,0,0,0,7.35-5.26l2.64-14a89.33,89.33,0,0,0,23.34-2.68l4.7,12.86a5.84,5.84,0,0,0,7.77,3.26l8.37-3.34a6.24,6.24,0,0,0,3.68-7.78L482.66,328a89,89,0,0,0,18.86-13.27l10,8.25a5.87,5.87,0,0,0,8.24-1l5.57-6.75a5.9,5.9,0,0,0-.59-8.26l-9.62-8.11a85.86,85.86,0,0,0,10.06-20.58l12,2.11a5.86,5.86,0,0,0,6.69-4.79l1.6-8.48A5.78,5.78,0,0,0,541,260.32Zm-107.82,52c-34.86-5.21-58.79-37.52-52.32-72s40.56-56.27,75-48.92c33.29,7.09,54.53,38.91,48.45,71.29S466.81,317.39,433.14,312.35Z" transform="translate(-33.44 -83.68)"/><polygon class="cls-21" points="389.8 67.79 381.52 65.94 377.24 72.87 389.8 67.79"/><polygon class="cls-21" points="471.77 86.75 481.37 88.65 480.03 95.73 471.77 86.75"/><polygon class="cls-21" points="501.97 127.81 511.48 130 508.08 134.91 501.97 127.81"/><polygon class="cls-21" points="508.32 176.9 517.86 179.48 513.81 183.58 508.32 176.9"/><polygon class="cls-21" points="479.77 240.25 488.91 243.36 491.5 235.91 479.77 240.25"/><polygon class="cls-21" points="437.37 268.09 445.51 271.2 447.35 265.1 437.37 268.09"/><polygon class="cls-21" points="392.42 275.12 385.1 272.35 393.43 263.9 392.42 275.12"/><polygon class="cls-21" points="352.95 259.28 344.48 255.8 352.83 248.84 352.95 259.28"/><polygon class="cls-21" points="333.07 92.14 342.21 94.15 337.31 100.17 333.07 92.14"/><polygon class="cls-21" points="301.24 160.83 309.43 163.65 310.06 156.63 301.24 160.83"/><polygon class="cls-21" points="309.86 214.7 317.85 217.59 319.54 212.25 309.86 214.7"/><path class="cls-22" d="M550.27,262.85l-11.8-2.19a85.43,85.43,0,0,0-1.29-23.32l11.06-3.91a6,6,0,0,0,3.58-7.58l-2.77-8.33a5.85,5.85,0,0,0-7.41-3.79l-10.9,3.74a88,88,0,0,0-13-20.25l7.5-8.67a6.23,6.23,0,0,0-.62-8.62l-6.66-6.09a6,6,0,0,0-8.52.34l-7.48,8.57a89.93,89.93,0,0,0-22.16-11.58l2.15-11.42a6.62,6.62,0,0,0-5-7.55l-9.11-2.14a6,6,0,0,0-7.4,4.7l-2.17,11.55a90.81,90.81,0,0,0-25.66,1l-4.16-11.59a7,7,0,0,0-8.45-4.33l-9.2,2.73a6.12,6.12,0,0,0-4,8.09l4.34,11.88a89.92,89.92,0,0,0-21.7,14l-10.27-8.65a7.1,7.1,0,0,0-9.73.39L362.82,187a6.37,6.37,0,0,0,.86,9.3l10.65,8.81a86.17,86.17,0,0,0-11,23L349,225.43a6.88,6.88,0,0,0-8.18,5.19l-1.78,9.52a6.74,6.74,0,0,0,5.75,7.7l14.67,2.57a85.6,85.6,0,0,0,2.72,24.89l-14.29,4.91a6.43,6.43,0,0,0-4.18,8.39l3.54,9a7.05,7.05,0,0,0,9,3.76l14.49-5.12a88.69,88.69,0,0,0,15,19.5l-9.93,11.36a6.07,6.07,0,0,0,.83,9l7.61,5.76a7.06,7.06,0,0,0,9.46-1.1l9.88-11.42a90,90,0,0,0,22.35,9.18l-2.68,14.31a5.91,5.91,0,0,0,5.21,7l9.28,1.18a6.74,6.74,0,0,0,7.42-5.31l2.66-14.15a90.73,90.73,0,0,0,23.53-2.7l4.74,13a5.91,5.91,0,0,0,7.84,3.29l8.43-3.37a6.28,6.28,0,0,0,3.71-7.84l-4.57-12.72a90.23,90.23,0,0,0,19-13.38L520.56,326a5.9,5.9,0,0,0,8.3-1l5.62-6.81a6,6,0,0,0-.6-8.33l-9.7-8.18A85.89,85.89,0,0,0,534.32,281l12.15,2.13a5.93,5.93,0,0,0,6.75-4.83l1.6-8.55A5.82,5.82,0,0,0,550.27,262.85ZM441.55,315.31c-35.15-5.26-59.27-37.83-52.75-72.58s40.89-56.73,75.64-49.32c33.56,7.15,55,39.23,48.85,71.87S475.51,320.39,441.55,315.31Z" transform="translate(-33.44 -83.68)"/><path class="cls-21" d="M508.94,461.14,502.7,460a45.6,45.6,0,0,0-.68-12.33l5.84-2.07a3.18,3.18,0,0,0,1.9-4l-1.47-4.4a3.1,3.1,0,0,0-3.92-2l-5.76,2a46.54,46.54,0,0,0-6.89-10.7l4-4.59a3.29,3.29,0,0,0-.32-4.56l-3.52-3.22a3.15,3.15,0,0,0-4.51.18l-4,4.53a47.4,47.4,0,0,0-11.71-6.12l1.14-6a3.5,3.5,0,0,0-2.65-4l-4.81-1.13a3.18,3.18,0,0,0-3.92,2.48l-1.14,6.11a47.63,47.63,0,0,0-13.57.53l-2.2-6.13A3.7,3.7,0,0,0,440,402.2l-4.86,1.45a3.23,3.23,0,0,0-2.14,4.27l2.3,6.28a47.78,47.78,0,0,0-11.48,7.41L418.44,417a3.77,3.77,0,0,0-5.15.21L409.82,421a3.37,3.37,0,0,0,.45,4.92l5.64,4.66a45.75,45.75,0,0,0-5.84,12.17l-7.54-1.4a3.62,3.62,0,0,0-4.32,2.74l-.95,5a3.58,3.58,0,0,0,3,4.07l7.76,1.35a45.11,45.11,0,0,0,1.44,13.17l-7.56,2.59a3.4,3.4,0,0,0-2.21,4.44l1.87,4.74a3.73,3.73,0,0,0,4.73,2l7.66-2.71a46.73,46.73,0,0,0,7.94,10.31l-5.25,6a3.2,3.2,0,0,0,.44,4.74l4,3.05a3.72,3.72,0,0,0,5-.58l5.22-6a48.36,48.36,0,0,0,11.83,4.86l-1.42,7.56a3.12,3.12,0,0,0,2.75,3.69l4.91.62a3.56,3.56,0,0,0,3.92-2.81l1.41-7.48a47.88,47.88,0,0,0,12.44-1.43l2.51,6.85a3.12,3.12,0,0,0,4.14,1.75l4.46-1.79a3.31,3.31,0,0,0,2-4.14l-2.42-6.73a47.63,47.63,0,0,0,10.06-7.08l5.32,4.4a3.12,3.12,0,0,0,4.39-.51l3-3.6a3.15,3.15,0,0,0-.32-4.41l-5.13-4.32a45.23,45.23,0,0,0,5.36-11l6.43,1.12a3.13,3.13,0,0,0,3.57-2.55l.84-4.52A3.08,3.08,0,0,0,508.94,461.14Zm-57.49,27.75c-18.58-2.78-31.34-20-27.89-38.39s21.62-30,40-26.08c17.75,3.78,29.08,20.75,25.83,38S469.4,491.57,451.45,488.89Z" transform="translate(-33.44 -83.68)"/><polygon class="cls-21" points="412.73 319.43 408.32 318.44 406.04 322.14 412.73 319.43"/><polygon class="cls-21" points="456.44 329.54 461.55 330.55 460.84 334.33 456.44 329.54"/><polygon class="cls-21" points="472.54 351.43 477.61 352.6 475.79 355.22 472.54 351.43"/><polygon class="cls-21" points="475.92 377.6 481 378.98 478.85 381.17 475.92 377.6"/><polygon class="cls-21" points="460.7 411.38 465.57 413.04 466.95 409.06 460.7 411.38"/><polygon class="cls-21" points="438.09 426.22 442.43 427.88 443.41 424.63 438.09 426.22"/><polygon class="cls-21" points="414.13 429.97 410.23 428.5 414.67 423.99 414.13 429.97"/><polygon class="cls-21" points="393.09 421.52 388.57 419.67 393.02 415.96 393.09 421.52"/><polygon class="cls-21" points="382.49 332.42 387.36 333.49 384.75 336.7 382.49 332.42"/><polygon class="cls-21" points="365.52 369.04 369.88 370.54 370.22 366.8 365.52 369.04"/><polygon class="cls-21" points="370.12 397.76 374.37 399.3 375.28 396.45 370.12 397.76"/><path class="cls-22" d="M513.9,462.5l-6.29-1.17a46,46,0,0,0-.69-12.44l5.9-2.08a3.21,3.21,0,0,0,1.91-4.05l-1.48-4.43a3.13,3.13,0,0,0-3.95-2l-5.81,2a46.84,46.84,0,0,0-6.95-10.8l4-4.62a3.32,3.32,0,0,0-.33-4.59L496.66,415a3.16,3.16,0,0,0-4.54.18l-4,4.57a47.86,47.86,0,0,0-11.81-6.17l1.14-6.09a3.53,3.53,0,0,0-2.67-4l-4.85-1.14a3.21,3.21,0,0,0-3.95,2.51L464.84,411a48,48,0,0,0-13.68.54l-2.23-6.18a3.72,3.72,0,0,0-4.5-2.31l-4.9,1.46a3.26,3.26,0,0,0-2.15,4.31l2.31,6.33a48.3,48.3,0,0,0-11.57,7.46L422.65,418a3.79,3.79,0,0,0-5.19.21L414,422a3.4,3.4,0,0,0,.46,5l5.68,4.69A46,46,0,0,0,414.21,444l-7.6-1.42a3.66,3.66,0,0,0-4.36,2.77l-.95,5.08a3.6,3.6,0,0,0,3.07,4.1l7.82,1.37a45.11,45.11,0,0,0,1.45,13.27L406,471.75a3.42,3.42,0,0,0-2.23,4.47l1.89,4.78a3.76,3.76,0,0,0,4.77,2l7.72-2.74a47.27,47.27,0,0,0,8,10.4l-5.29,6.05a3.24,3.24,0,0,0,.44,4.79l4.06,3.07a3.76,3.76,0,0,0,5-.59l5.27-6.09a47.63,47.63,0,0,0,11.92,4.9l-1.44,7.63a3.15,3.15,0,0,0,2.78,3.71l4.95.63a3.6,3.6,0,0,0,4-2.83l1.41-7.54A48.25,48.25,0,0,0,471.82,503l2.53,6.91a3.13,3.13,0,0,0,4.17,1.75l4.5-1.79a3.34,3.34,0,0,0,2-4.18l-2.44-6.79a47.74,47.74,0,0,0,10.14-7.13l5.36,4.43a3.15,3.15,0,0,0,4.43-.51l3-3.63a3.17,3.17,0,0,0-.32-4.44L500,483.22a46,46,0,0,0,5.41-11.06l6.47,1.13a3.16,3.16,0,0,0,3.6-2.57l.86-4.56A3.1,3.1,0,0,0,513.9,462.5Zm-58,28c-18.74-2.8-31.6-20.17-28.12-38.69s21.8-30.25,40.32-26.3c17.9,3.81,29.31,20.92,26.05,38.32S474,493.17,455.94,490.46Z" transform="translate(-33.44 -83.68)"/><ellipse class="cls-22" cx="409.76" cy="211.76" rx="28.85" ry="40.54"/><path class="cls-23" d="M355,197.2H300.75A100.8,100.8,0,0,0,200,298h0a53.79,53.79,0,0,0,53.79,53.79H402.05A53.79,53.79,0,0,0,455.84,298h0A100.8,100.8,0,0,0,355,197.2Z" transform="translate(-33.44 -83.68)"/><path class="cls-23" d="M345.51,462H310.28a65.39,65.39,0,0,1-65.39-65.39h0a34.9,34.9,0,0,1,34.89-34.9H376a34.9,34.9,0,0,1,34.89,34.9h0A65.39,65.39,0,0,1,345.51,462Z" transform="translate(-33.44 -83.68)"/><path class="cls-24" d="M404.32,330.05H301.12c-14,0-25.46-10.72-25.46-23.94V285.83c0-13.23,11.47-23.58,25.46-23.14l103.2,3.3a23.22,23.22,0,0,1,22.51,23V307.8A22.34,22.34,0,0,1,404.32,330.05Z" transform="translate(-33.44 -83.68)"/><path class="cls-18" d="M334.19,294.89c0,8.83-7.52,15.9-16.87,15.78s-17.15-7.5-17.15-16.47,7.71-16,17.15-15.77S334.19,286.06,334.19,294.89Z" transform="translate(-33.44 -83.68)"/><path class="cls-18" d="M403.93,296.31a15.35,15.35,0,0,1-15.75,15.25,16.12,16.12,0,0,1-16-15.9,15.35,15.35,0,0,1,16-15.25A16.13,16.13,0,0,1,403.93,296.31Z" transform="translate(-33.44 -83.68)"/><path class="cls-25" d="M365.35,337.65c-15.35-18-8.53-32.45-28.6-56.89-27.61-33.63-59.82-29.82-67.19-52.63-2.05-6.32-2.28-15,3.2-27A100.84,100.84,0,0,0,200,298h0a53.79,53.79,0,0,0,53.79,53.79H383A61.26,61.26,0,0,1,365.35,337.65Z" transform="translate(-33.44 -83.68)"/><ellipse class="cls-22" cx="181.01" cy="211.48" rx="28.85" ry="40.54"/><ellipse class="cls-26" cx="158.19" cy="211.48" rx="12.61" ry="17.73"/><path class="cls-27" d="M354.18,426c-4.83-22.69-58.29-22.15-59.74-37-1.12-11.44,29.57-22.76,33.43-24.18,3.3-1.22,6.57-2.25,9.81-3.13h-57.9a34.9,34.9,0,0,0-34.89,34.9h0A65.39,65.39,0,0,0,310.28,462h35.23a65.28,65.28,0,0,0,9.95-.75,24,24,0,0,1-5.55-12.49C348.84,438.72,356.05,434.81,354.18,426Z" transform="translate(-33.44 -83.68)"/><ellipse class="cls-22" cx="295.32" cy="279.99" rx="55.63" ry="6.74"/><path class="cls-28" d="M514.39,358.1c-9.5-3.64-19.88-1.81-28.25,4-3.06-15.29-12.77-28.23-27.24-33.78-23.71-9.09-51.19,5.1-61.39,31.7a56.67,56.67,0,0,0-3.81,20.64,22.74,22.74,0,0,0-3.92-2c-12.95-5-28,2.78-33.54,17.31s.22,30.87,13.36,35.31c7,2.37,18.13,2.41,18.13,2.41s108-8,111.37-8c13.3.11,26.42-9,32-23.51C538.05,384.05,530.58,364.3,514.39,358.1Z" transform="translate(-33.44 -83.68)"/><path class="cls-29" d="M517.61,358.11c-9.5-3.64-19.89-1.81-28.26,4-3.06-15.29-12.77-28.22-27.24-33.77-23.7-9.09-51.19,5.1-61.39,31.69a56.68,56.68,0,0,0-3.81,20.65,22.08,22.08,0,0,0-3.92-2c-12.95-5-28,2.79-33.54,17.32s.41,30.33,13.37,35.3c2.74,1.05,18.12,2.41,18.12,2.41s108-8,111.37-8c13.31.11,26.42-9,32-23.52C541.26,384.07,533.79,364.32,517.61,358.11Z" transform="translate(-33.44 -83.68)"/><path class="cls-18" d="M261.81,381.86a9.69,9.69,0,0,0-1.35,13.62l27.93,34.07,15-12.27-27.92-34.07A9.68,9.68,0,0,0,261.81,381.86Z" transform="translate(-33.44 -83.68)"/><path class="cls-18" d="M349.34,414.09a9.68,9.68,0,0,0-10.71-8.53l-43.77,5,2.19,19.24,43.77-5A9.68,9.68,0,0,0,349.34,414.09Z" transform="translate(-33.44 -83.68)"/><circle class="cls-30" cx="261.42" cy="338.25" r="14.05"/><path class="cls-31" d="M340.41,407.36l7.23,17.74c1.07,2.64,5.15,3.42,8.26,1.55,4.55-2.74,9.53-7.42,7.52-14.19-2.54-8.57-10.11-11-16.33-11.53C342.86,400.59,339.13,404.21,340.41,407.36Z" transform="translate(-33.44 -83.68)"/></g></g></svg>