<svg id="Layer_1" data-name="Layer 1" xmlns="http://www.w3.org/2000/svg" xmlns:xlink="http://www.w3.org/1999/xlink" viewBox="0 0 644.76 470.04"><defs><style>.cls-1{opacity:0.39;fill:url(#linear-gradient);}.cls-2{fill:#91b3fa;}.cls-3{fill:#bdd0fb;}.cls-4{fill:url(#linear-gradient-2);}.cls-5{fill:url(#linear-gradient-3);}.cls-6{fill:url(#linear-gradient-4);}.cls-7{fill:url(#linear-gradient-5);}.cls-8{fill:url(#linear-gradient-6);}.cls-9{fill:url(#linear-gradient-7);}.cls-10{fill:url(#linear-gradient-8);}.cls-11{fill:url(#linear-gradient-9);}.cls-12{fill:#fff;}.cls-13{fill:url(#linear-gradient-10);}.cls-14{fill:url(#linear-gradient-11);}.cls-15{fill:url(#linear-gradient-12);}.cls-16{fill:url(#linear-gradient-13);}.cls-17{fill:url(#linear-gradient-14);}.cls-18{fill:url(#linear-gradient-15);}.cls-19{fill:url(#linear-gradient-16);}.cls-20{fill:url(#linear-gradient-17);}.cls-21{fill:url(#linear-gradient-18);}.cls-22{fill:url(#linear-gradient-19);}.cls-23{fill:url(#linear-gradient-20);}.cls-24{fill:url(#linear-gradient-21);}.cls-25{fill:url(#linear-gradient-22);}.cls-26{fill:url(#linear-gradient-23);}.cls-27{fill:url(#linear-gradient-24);}.cls-28{fill:url(#linear-gradient-25);}.cls-29{fill:url(#linear-gradient-26);}.cls-30{fill:url(#linear-gradient-27);}.cls-31{fill:#7d97f4;}.cls-32{fill:url(#linear-gradient-28);}.cls-33{fill:url(#linear-gradient-29);}.cls-34{fill:url(#linear-gradient-30);}.cls-35{fill:url(#linear-gradient-31);}.cls-36{fill:url(#linear-gradient-32);}.cls-37{fill:url(#linear-gradient-33);}.cls-38{fill:url(#linear-gradient-34);}.cls-39{fill:url(#linear-gradient-35);}.cls-40{fill:url(#linear-gradient-36);}.cls-41{fill:url(#linear-gradient-37);}.cls-42{fill:url(#linear-gradient-38);}.cls-43{fill:url(#linear-gradient-39);}.cls-44{fill:url(#linear-gradient-40);}.cls-45{fill:url(#linear-gradient-41);}.cls-46{fill:url(#linear-gradient-42);}.cls-47{fill:url(#linear-gradient-43);}.cls-48{fill:url(#linear-gradient-44);}.cls-49{fill:url(#linear-gradient-45);}.cls-50{fill:url(#linear-gradient-46);}.cls-51{fill:url(#linear-gradient-47);}.cls-52{fill:url(#linear-gradient-48);}.cls-53{fill:url(#linear-gradient-49);}.cls-54{fill:url(#linear-gradient-50);}.cls-55{fill:url(#linear-gradient-51);}.cls-56{fill:url(#linear-gradient-52);}.cls-57{fill:url(#linear-gradient-53);}.cls-58{fill:url(#linear-gradient-54);}.cls-59{fill:url(#linear-gradient-55);}.cls-60{fill:url(#linear-gradient-56);}.cls-61{fill:url(#linear-gradient-57);}.cls-62{fill:url(#linear-gradient-58);}.cls-63{fill:url(#linear-gradient-59);}.cls-64{fill:url(#linear-gradient-60);}.cls-65{fill:url(#linear-gradient-61);}.cls-66{fill:url(#linear-gradient-62);}.cls-67{fill:url(#linear-gradient-63);}.cls-68{fill:url(#linear-gradient-64);}.cls-69{fill:url(#linear-gradient-65);}.cls-70{fill:url(#linear-gradient-66);}.cls-71{fill:url(#linear-gradient-67);}.cls-72{fill:url(#linear-gradient-68);}.cls-73{fill:url(#linear-gradient-69);}.cls-74{fill:#232c38;}.cls-75{fill:url(#linear-gradient-70);}</style><linearGradient id="linear-gradient" x1="19.09" y1="377.45" x2="620.79" y2="377.45" gradientTransform="matrix(1.07, 0.01, -0.01, 0.96, -12.33, 8.68)" gradientUnits="userSpaceOnUse"><stop offset="0" stop-color="#dae3fe"/><stop offset="1" stop-color="#e9effd"/></linearGradient><linearGradient id="linear-gradient-2" x1="366.08" y1="264.03" x2="359.98" y2="304.27" gradientUnits="userSpaceOnUse"><stop offset="0" stop-color="#09005d"/><stop offset="1" stop-color="#1a0f91"/></linearGradient><linearGradient id="linear-gradient-3" x1="367.43" y1="247.34" x2="356.9" y2="363.47" gradientUnits="userSpaceOnUse"><stop offset="0" stop-color="#53d8ff"/><stop offset="1" stop-color="#3840f7"/></linearGradient><linearGradient id="linear-gradient-4" x1="367.74" y1="247.37" x2="357.21" y2="363.5" xlink:href="#linear-gradient-3"/><linearGradient id="linear-gradient-5" x1="367.15" y1="247.32" x2="356.62" y2="363.44" xlink:href="#linear-gradient-3"/><linearGradient id="linear-gradient-6" x1="367.47" y1="247.35" x2="356.94" y2="363.47" xlink:href="#linear-gradient-3"/><linearGradient id="linear-gradient-7" x1="370.66" y1="164.77" x2="354.42" y2="274.87" gradientUnits="userSpaceOnUse"><stop offset="0" stop-color="#f59960"/><stop offset="1" stop-color="#4F81BD"/></linearGradient><linearGradient id="linear-gradient-8" x1="520.39" y1="32.4" x2="447.29" y2="134.38" gradientUnits="userSpaceOnUse"><stop offset="0" stop-color="#e1473d"/><stop offset="1" stop-color="#e9605a"/></linearGradient><linearGradient id="linear-gradient-9" x1="510.24" y1="25.13" x2="437.14" y2="127.1" xlink:href="#linear-gradient-8"/><linearGradient id="linear-gradient-10" x1="5272.87" y1="541.15" x2="5165.43" y2="658.01" gradientTransform="translate(-4988.46 -48.96) rotate(0.54)" xlink:href="#linear-gradient-2"/><linearGradient id="linear-gradient-11" x1="5238" y1="549.82" x2="5247.54" y2="549.82" gradientTransform="translate(-4988.46 -48.96) rotate(0.54)" gradientUnits="userSpaceOnUse"><stop offset="0" stop-color="#febbba"/><stop offset="1" stop-color="#ff928e"/></linearGradient><linearGradient id="linear-gradient-12" x1="5281.34" y1="408.98" x2="5189.91" y2="532.89" gradientTransform="translate(-4988.46 -48.96) rotate(0.54)" xlink:href="#linear-gradient-2"/><linearGradient id="linear-gradient-13" x1="5248.77" y1="518.98" x2="5141.33" y2="635.85" gradientTransform="translate(-4988.46 -48.96) rotate(0.54)" xlink:href="#linear-gradient-2"/><linearGradient id="linear-gradient-14" x1="5203.6" y1="549.33" x2="5211.84" y2="549.33" xlink:href="#linear-gradient-11"/><linearGradient id="linear-gradient-15" x1="5265.04" y1="396.96" x2="5173.62" y2="520.87" gradientTransform="translate(-4988.46 -48.96) rotate(0.54)" xlink:href="#linear-gradient-2"/><linearGradient id="linear-gradient-16" x1="4641.3" y1="-285.31" x2="4557.07" y2="-139.3" gradientTransform="matrix(-1, 0, 0, 1, 4514.09, 0)" xlink:href="#linear-gradient-7"/><linearGradient id="linear-gradient-17" x1="5277.28" y1="300.85" x2="5326.04" y2="300.85" xlink:href="#linear-gradient-11"/><linearGradient id="linear-gradient-18" x1="2075.98" y1="291.74" x2="2108.7" y2="366.18" gradientTransform="matrix(-1, -0.01, -0.01, 1, 2402.69, 22.19)" xlink:href="#linear-gradient-11"/><linearGradient id="linear-gradient-19" x1="5325.8" y1="267.89" x2="5339.45" y2="246.9" xlink:href="#linear-gradient-11"/><linearGradient id="linear-gradient-20" x1="4669.99" y1="-268.76" x2="4585.75" y2="-122.76" gradientTransform="matrix(-1, 0, 0, 1, 4514.09, 0)" xlink:href="#linear-gradient-7"/><linearGradient id="linear-gradient-21" x1="5170.59" y1="369.9" x2="5232.29" y2="369.9" xlink:href="#linear-gradient-11"/><linearGradient id="linear-gradient-22" x1="5217.97" y1="303.94" x2="5242.36" y2="303.94" xlink:href="#linear-gradient-11"/><linearGradient id="linear-gradient-23" x1="-2041.2" y1="1525.55" x2="-2050.32" y2="1495.48" gradientTransform="matrix(0.75, -0.66, 0.66, 0.75, 787.53, -2203.1)" xlink:href="#linear-gradient-11"/><linearGradient id="linear-gradient-24" x1="-2049.43" y1="1473.16" x2="-2041.8" y2="1516.66" gradientTransform="matrix(0.75, -0.66, 0.66, 0.75, 787.53, -2203.1)" gradientUnits="userSpaceOnUse"><stop offset="0" stop-color="#090013"/><stop offset="1" stop-color="#1a0f62"/></linearGradient><linearGradient id="linear-gradient-25" x1="-2050.52" y1="1525.41" x2="-2058.73" y2="1498.36" gradientTransform="matrix(0.75, -0.66, 0.66, 0.75, 787.53, -2203.1)" xlink:href="#linear-gradient-11"/><linearGradient id="linear-gradient-26" x1="4962.52" y1="330.86" x2="4996.56" y2="472.72" gradientTransform="translate(-4705.66)" xlink:href="#linear-gradient-2"/><linearGradient id="linear-gradient-27" x1="4939.19" y1="368.39" x2="4958.48" y2="368.39" gradientTransform="translate(-4705.66)" xlink:href="#linear-gradient-11"/><linearGradient id="linear-gradient-28" x1="175.58" y1="462.31" x2="179.59" y2="560.59" gradientUnits="userSpaceOnUse"><stop offset="0" stop-color="#4f52ff"/><stop offset="1" stop-color="#4042e2"/></linearGradient><linearGradient id="linear-gradient-29" x1="162.91" y1="554.77" x2="173.08" y2="554.77" gradientTransform="matrix(1, 0, 0, 1, 0, 0)" xlink:href="#linear-gradient-11"/><linearGradient id="linear-gradient-30" x1="229.3" y1="460.12" x2="233.31" y2="558.39" xlink:href="#linear-gradient-28"/><linearGradient id="linear-gradient-31" x1="106.65" y1="508.86" x2="187.19" y2="508.86" xlink:href="#linear-gradient-2"/><linearGradient id="linear-gradient-32" x1="211.1" y1="555.63" x2="223.25" y2="555.63" gradientTransform="matrix(1, 0, 0, 1, 0, 0)" xlink:href="#linear-gradient-11"/><linearGradient id="linear-gradient-33" x1="179.81" y1="475.3" x2="91.38" y2="575.56" xlink:href="#linear-gradient-2"/><linearGradient id="linear-gradient-34" x1="143.63" y1="384.45" x2="149.62" y2="369.35" gradientTransform="matrix(1, 0, 0, 1, 0, 0)" xlink:href="#linear-gradient-11"/><linearGradient id="linear-gradient-35" x1="305.39" y1="193.23" x2="121.65" y2="473.22" xlink:href="#linear-gradient-7"/><linearGradient id="linear-gradient-36" x1="147.51" y1="409.28" x2="263.93" y2="215.25" xlink:href="#linear-gradient-2"/><linearGradient id="linear-gradient-37" x1="194.79" y1="443.18" x2="222.85" y2="443.18" gradientTransform="matrix(1, 0, 0, 1, 0, 0)" xlink:href="#linear-gradient-11"/><linearGradient id="linear-gradient-38" x1="2073.98" y1="906.44" x2="2043.91" y2="929.45" gradientTransform="translate(-2012.61 -274.05) rotate(-7.5)" xlink:href="#linear-gradient-11"/><linearGradient id="linear-gradient-39" x1="2052.85" y1="888.28" x2="2080.08" y2="923.34" gradientTransform="translate(-2012.61 -274.05) rotate(-7.5)" xlink:href="#linear-gradient-24"/><linearGradient id="linear-gradient-40" x1="2070.25" y1="901.57" x2="2040.18" y2="924.58" gradientTransform="translate(-2012.61 -274.05) rotate(-7.5)" xlink:href="#linear-gradient-11"/><linearGradient id="linear-gradient-41" x1="-1677.31" y1="-4333.72" x2="-1752.35" y2="-4261.17" gradientTransform="matrix(-1.39, -0.07, -0.07, 1.39, -8443.18, -86.46)" xlink:href="#linear-gradient-2"/><linearGradient id="linear-gradient-42" x1="-4037.73" y1="-3969.17" x2="-4112.77" y2="-3896.62" gradientTransform="matrix(0.65, -1.23, -1.23, -0.65, 6362.22, -9866.12)" xlink:href="#linear-gradient-2"/><linearGradient id="linear-gradient-43" x1="297.6" y1="756.98" x2="372.59" y2="456.99" gradientTransform="matrix(1, 0, 0, 1, 0, 0)" xlink:href="#linear-gradient-11"/><linearGradient id="linear-gradient-44" x1="467.29" y1="389.46" x2="396" y2="509.49" xlink:href="#linear-gradient-2"/><linearGradient id="linear-gradient-45" x1="334.04" y1="567.24" x2="349.04" y2="343.5" gradientTransform="matrix(1, 0, 0, 1, 0, 0)" xlink:href="#linear-gradient-11"/><linearGradient id="linear-gradient-46" x1="347.1" y1="469.2" x2="446.49" y2="469.2" xlink:href="#linear-gradient-2"/><linearGradient id="linear-gradient-47" x1="426.57" y1="365.27" x2="355.28" y2="485.29" xlink:href="#linear-gradient-2"/><linearGradient id="linear-gradient-48" x1="417.11" y1="303.19" x2="402.48" y2="380.08" gradientTransform="matrix(1, 0, 0, 1, 0, 0)" xlink:href="#linear-gradient-24"/><linearGradient id="linear-gradient-49" x1="347.64" y1="552.12" x2="403.59" y2="426.67" xlink:href="#linear-gradient-2"/><linearGradient id="linear-gradient-50" x1="392.89" y1="399.39" x2="386.9" y2="360.96" gradientTransform="matrix(1, 0, 0, 1, 0, 0)" xlink:href="#linear-gradient-11"/><linearGradient id="linear-gradient-51" x1="-1806.53" y1="4162.4" x2="-1767.33" y2="4189.03" gradientTransform="translate(-1864.76 -3595.71) rotate(-52.83)" xlink:href="#linear-gradient-11"/><linearGradient id="linear-gradient-52" x1="-1780.38" y1="4130.55" x2="-1795.01" y2="4207.44" gradientTransform="translate(-1864.76 -3595.71) rotate(-52.83)" xlink:href="#linear-gradient-24"/><linearGradient id="linear-gradient-53" x1="-1804.18" y1="4158.94" x2="-1764.98" y2="4185.57" gradientTransform="translate(-1864.76 -3595.71) rotate(-52.83)" xlink:href="#linear-gradient-11"/><linearGradient id="linear-gradient-54" x1="417.49" y1="443.02" x2="500.83" y2="443.02" gradientTransform="matrix(1, 0, 0, 1, 0, 0)" xlink:href="#linear-gradient-11"/><linearGradient id="linear-gradient-55" x1="358.42" y1="585.18" x2="305.96" y2="599.56" gradientTransform="translate(32.17 -132.34) rotate(-2.83)" xlink:href="#linear-gradient-2"/><linearGradient id="linear-gradient-56" x1="348.06" y1="400.54" x2="310.84" y2="439.89" xlink:href="#linear-gradient-2"/><linearGradient id="linear-gradient-57" x1="-10239.43" y1="628.62" x2="-10238.88" y2="686.88" gradientTransform="matrix(-1, 0, 0, 1, -9774.85, 0)" xlink:href="#linear-gradient-2"/><linearGradient id="linear-gradient-58" x1="-10253.48" y1="563.55" x2="-10256.5" y2="539.91" gradientTransform="matrix(-1, 0, 0, 1, -9774.85, 0)" xlink:href="#linear-gradient-11"/><linearGradient id="linear-gradient-59" x1="-10318.15" y1="629.36" x2="-10317.6" y2="687.63" gradientTransform="matrix(-1, 0, 0, 1, -9774.85, 0)" xlink:href="#linear-gradient-2"/><linearGradient id="linear-gradient-60" x1="-10319.55" y1="571.65" x2="-10322.5" y2="548.62" gradientTransform="matrix(-1, 0, 0, 1, -9774.85, 0)" xlink:href="#linear-gradient-11"/><linearGradient id="linear-gradient-61" x1="498.34" y1="385.7" x2="525.61" y2="518.47" xlink:href="#linear-gradient-2"/><linearGradient id="linear-gradient-62" x1="-10321.33" y1="470.22" x2="-10318.04" y2="463.62" gradientTransform="matrix(-1, 0, 0, 1, -9774.85, 0)" xlink:href="#linear-gradient-28"/><linearGradient id="linear-gradient-63" x1="-10267.06" y1="331.67" x2="-10323.68" y2="499.87" gradientTransform="matrix(-1, 0, 0, 1, -9774.85, 0)" xlink:href="#linear-gradient-7"/><linearGradient id="linear-gradient-64" x1="-10297.29" y1="420.38" x2="-10256" y2="420.38" gradientTransform="matrix(-1, 0, 0, 1, -9774.85, 0)" xlink:href="#linear-gradient-11"/><linearGradient id="linear-gradient-65" x1="-10259.24" y1="368.62" x2="-10182.13" y2="368.62" gradientTransform="matrix(-1, 0, 0, 1, -9774.85, 0)" xlink:href="#linear-gradient-11"/><linearGradient id="linear-gradient-66" x1="-10287" y1="325.37" x2="-10260.16" y2="297.84" gradientTransform="matrix(-1, 0, 0, 1, -9774.85, 0)" xlink:href="#linear-gradient-11"/><linearGradient id="linear-gradient-67" x1="-10248.08" y1="280.49" x2="-10281.54" y2="324.75" gradientTransform="matrix(-1, 0, 0, 1, -9774.85, 0)" xlink:href="#linear-gradient-11"/><linearGradient id="linear-gradient-68" x1="524.23" y1="154.61" x2="488.93" y2="256.9" gradientTransform="matrix(1, 0, 0, 1, 0, 0)" xlink:href="#linear-gradient-24"/><linearGradient id="linear-gradient-69" x1="-10297.08" y1="315.54" x2="-10270.25" y2="288.01" gradientTransform="matrix(-1, 0, 0, 1, -9774.85, 0)" xlink:href="#linear-gradient-11"/><linearGradient id="linear-gradient-70" x1="510.25" y1="336.72" x2="494.28" y2="403.79" xlink:href="#linear-gradient-2"/></defs><path class="cls-1" d="M630.64,397.77c-11.06-11.73-24.16-23.2-27.44-39-5.68-27.35,20.08-50.34,28.72-76.9a65,65,0,0,0-55-84.77c-33-3.39-65.5,18.57-97.94,11.77-26-5.45-46.3-28.48-72.69-31.21-31.06-3.2-57.13,22.26-86.93,31.64-35.63,11.21-74-1.31-108.78-15s-71.35-28.89-108.22-22.92c-41,6.65-75.77,42.09-81.69,83.35-5.87,40.9,39.33,74.27,0,123C8.44,393,.15,414.32,5.31,433.22c5,18.36,27,30.17,27,49.21,0,15-14.28,26.83-15.58,41.8-1.11,12.85,8,24.84,19.25,31.06s24.41,7.84,37.18,9.36l-3.81,4c64.34,6.49,129.16,5.89,193.83,5.28l305.94-2.88c10.48-.1,21.21-.24,31-4s18.65-11.8,20.24-22.19c2.72-17.68-15.57-33.24-13.67-51,2.42-22.72,34.43-31.15,40.74-53.1C651.89,425.28,641.69,409.5,630.64,397.77Z" transform="translate(-3.75 -113.42)"/><path class="cls-2" d="M75,253.61a1.43,1.43,0,0,1-.83-1.27c0-1.85,0-3.74.1-5.6a1.38,1.38,0,0,1,1.46-1.31c1.88.09,1.24,1.93,1.26,6.95a1.37,1.37,0,0,1-1.4,1.36A1.45,1.45,0,0,1,75,253.61Z" transform="translate(-3.75 -113.42)"/><path class="cls-2" d="M76,229.41c.59-3.51,1.34-7,2.21-10.49a1.38,1.38,0,0,1,1.7-1c2.06.55.62,1.63-1.14,12A1.37,1.37,0,0,1,77.2,231,1.41,1.41,0,0,1,76,229.41Zm7.55-27c1.31-3.32,2.78-6.66,4.31-9.79a1.41,1.41,0,0,1,2.54,1.24c-1.53,3.13-2.94,6.34-4.23,9.6a1.41,1.41,0,0,1-2.62-1Zm13-24.88c2-3,4.07-5.88,6.26-8.68a1.41,1.41,0,0,1,2.24,1.72c-2.15,2.74-4.22,5.6-6.14,8.51A1.41,1.41,0,0,1,96.54,177.49Zm17.9-19.7a1.37,1.37,0,0,1,0-2c2.54-2.5,5.22-4.92,8-7.21,1.41-1.18,3.26.95,1.85,2.13-2.69,2.24-5.32,4.62-7.81,7.06A1.42,1.42,0,0,1,114.44,157.79Zm21.67-17.57a1.37,1.37,0,0,1,.39-1.92c3-1.92,6.16-3.75,9.32-5.43a1.4,1.4,0,0,1,1.37,2.45c-3.1,1.64-6.17,3.43-9.13,5.32A1.44,1.44,0,0,1,136.11,140.22Zm25.64-12.05a1.43,1.43,0,0,1-.73-.76,1.36,1.36,0,0,1,.78-1.79c3.36-1.27,6.82-2.43,10.27-3.44a1.43,1.43,0,0,1,1.76.93,1.36,1.36,0,0,1-.92,1.73c-3.38,1-6.76,2.12-10.06,3.37A1.4,1.4,0,0,1,161.75,128.17Zm27.18-7.25a1.43,1.43,0,0,1-.81-1,1.37,1.37,0,0,1,1.14-1.59c3.56-.57,7.19-1,10.8-1.31a1.44,1.44,0,0,1,1.54,1.27,1.37,1.37,0,0,1-1.26,1.5c-3.53.29-7.09.72-10.58,1.28A1.46,1.46,0,0,1,188.93,120.92ZM216.31,118a1.38,1.38,0,0,1,1.45-1.33c3.61.17,7.27.47,10.88.91a1.38,1.38,0,1,1-.3,2.75c-3.53-.43-7.12-.73-10.66-.88A1.44,1.44,0,0,1,216.31,118Zm87.94,36.39c-8-7-9.86-7-8.59-8.72a1.42,1.42,0,0,1,2-.24c2.9,2.18,5.76,4.51,8.48,6.91A1.38,1.38,0,1,1,304.25,154.38ZM244.4,121.82a1.39,1.39,0,0,1,1.7-1c3.52.89,7.05,1.92,10.5,3.07a1.38,1.38,0,1,1-.86,2.63c-3.38-1.13-6.85-2.14-10.29-3A1.41,1.41,0,0,1,244.4,121.82Zm37,16.2c-9.2-5.28-11.09-4.94-10.19-6.84a1.45,1.45,0,0,1,1.87-.64c3.29,1.57,6.56,3.28,9.7,5.09a1.38,1.38,0,0,1,.54,1.89A1.4,1.4,0,0,1,281.41,138Z" transform="translate(-3.75 -113.42)"/><path class="cls-2" d="M320.19,171c-3-3.68-4.91-5-3.47-6.21a1.42,1.42,0,0,1,2,.16c3.24,3.68,4.89,5.17,3.46,6.29A1.61,1.61,0,0,1,320.19,171Z" transform="translate(-3.75 -113.42)"/><path class="cls-2" d="M350.66,274.37a1.44,1.44,0,0,1-.82-1.45c.23-1.81.42-3.64.57-5.45a1.37,1.37,0,0,1,1.52-1.24,1.42,1.42,0,0,1,1.29,1.51c-.16,1.85-.35,3.72-.58,5.56a1.39,1.39,0,0,1-1.57,1.19A1.93,1.93,0,0,1,350.66,274.37Z" transform="translate(-3.75 -113.42)"/><path class="cls-2" d="M152.86,377c-3.51-1.74-7-3.64-10.35-5.66a1.38,1.38,0,0,1-.49-1.91c1.12-1.83,1.79,0,12.06,5.09a1.39,1.39,0,0,1,.66,1.86A1.44,1.44,0,0,1,152.86,377Zm16.78,5.57c.68-2,1.8-.37,12.85,2.4a1.41,1.41,0,0,1,1,1.69,1.38,1.38,0,0,1-1.69,1c-3.78-1-7.58-2.07-11.3-3.33A1.41,1.41,0,0,1,169.64,382.57ZM126.81,360.4c-3-2.44-6-5-8.87-7.73a1.37,1.37,0,0,1,0-2c1.5-1.55,1.74.39,10.68,7.55a1.4,1.4,0,0,1,.22,2A1.42,1.42,0,0,1,126.81,360.4Zm73.4,30.53a1.4,1.4,0,0,1-.83-1.41,1.38,1.38,0,0,1,1.54-1.22c3.81.42,7.67.69,11.48.8a1.43,1.43,0,0,1,1.4,1.42,1.38,1.38,0,0,1-1.43,1.35c-3.89-.11-7.83-.38-11.72-.82A1.24,1.24,0,0,1,200.21,390.93Zm30.43.06a1.43,1.43,0,0,1-.82-1.1,1.36,1.36,0,0,1,1.22-1.53c3.79-.41,7.6-1,11.34-1.71a1.44,1.44,0,0,1,1.67,1.1,1.37,1.37,0,0,1-1.08,1.63c-3.82.73-7.71,1.32-11.58,1.74A1.47,1.47,0,0,1,230.64,391Zm29.6-6.52a1.4,1.4,0,0,1-.75-.81,1.37,1.37,0,0,1,.85-1.76c3.59-1.21,7.17-2.59,10.65-4.1a1.43,1.43,0,0,1,1.86.71,1.36,1.36,0,0,1-.69,1.83c-3.54,1.54-7.2,3-10.86,4.19A1.43,1.43,0,0,1,260.24,384.47Zm27.34-12.75a1.41,1.41,0,0,1-.61-.53,1.35,1.35,0,0,1,.44-1.9c3.22-2,6.4-4.09,9.44-6.31a1.42,1.42,0,0,1,2,.3,1.36,1.36,0,0,1-.27,1.93c-3.1,2.27-6.34,4.44-9.64,6.44A1.37,1.37,0,0,1,287.58,371.72Zm23.35-18.66c-1.55-1.54.41-1.69,7.77-10.18,1.2-1.38,3.36.44,2.16,1.82-2.52,2.9-5.18,5.72-7.94,8.4A1.42,1.42,0,0,1,310.93,353.06Zm19.24-22.94c-1.85-1.18,0-1.74,5.27-11.66a1.41,1.41,0,0,1,2.5,1.32c-1.8,3.38-3.76,6.72-5.83,9.93A1.41,1.41,0,0,1,330.17,330.12Zm13.46-26.68a1.4,1.4,0,0,1-.75-1.74c1.29-3.54,2.44-7.16,3.41-10.77a1.42,1.42,0,0,1,2.73.76c-1,3.68-2.17,7.38-3.49,11a1.39,1.39,0,0,1-1.79.81Z" transform="translate(-3.75 -113.42)"/><path class="cls-2" d="M105,338.56c-3.07-3.83-4.65-5.39-3.17-6.43s2.22.81,5.36,4.73a1.37,1.37,0,0,1-.21,1.95A1.43,1.43,0,0,1,105,338.56Z" transform="translate(-3.75 -113.42)"/><path class="cls-2" d="M122.8,304.72,143,303.65a89.36,89.36,0,0,0,20.35,20c-.58,19.32-2,20.64,0,21.47l22.48,9.3a1.67,1.67,0,0,0,1.88-.41l13.23-14.8a89.24,89.24,0,0,0,28.52.2l13.54,15a1.69,1.69,0,0,0,1.88.44l22.3-9a1.62,1.62,0,0,0,1-1.61l-1.43-19.88a85.08,85.08,0,0,0,20-19.71l20.16,1.35a1.64,1.64,0,0,0,1.63-1l9.05-22a1.66,1.66,0,0,0-.45-1.86l-15.25-13.3a85.64,85.64,0,0,0-.3-28.09c14.37-13.09,16.25-13,15.41-14.93-9.7-21.55-8.94-23.27-11.15-23.15l-20.15,1.06a89.82,89.82,0,0,0-20.36-20c.58-19.31,2-20.63,0-21.47-22.5-8.85-22.94-10.48-24.36-8.88l-13.24,14.79a89.47,89.47,0,0,0-28.51-.2c-13.37-14.21-13.42-16.25-15.43-15.44-21.91,9.27-23.46,8.43-23.3,10.58L161.87,182a85.23,85.23,0,0,0-20,19.71c-19.28-.89-21-2.36-21.79-.36-8.57,21.92-10.25,22.41-8.6,23.85l15.25,13.3a85.37,85.37,0,0,0,.29,28.09c-14.32,13.05-16.25,13-15.4,14.94C121.35,303.11,120.59,304.83,122.8,304.72Z" transform="translate(-3.75 -113.42)"/><path class="cls-3" d="M190.89,249.68a23.15,23.15,0,0,1,26.61-19.47c12.91,2,22,13.87,20.22,26.56a23.14,23.14,0,0,1-26.6,19.47h0C198.2,274.28,189.13,262.37,190.89,249.68Zm20.51,24.5h0Zm5.53-39.85a19,19,0,0,0-21.85,16,19.58,19.58,0,0,0,16.61,21.81,19,19,0,0,0,21.85-16A19.58,19.58,0,0,0,216.93,234.33Z" transform="translate(-3.75 -113.42)"/><path class="cls-3" d="M189.86,307h0a60.86,60.86,0,0,1-9.11-5.16,2.08,2.08,0,0,1-.75-2.58,1.92,1.92,0,0,1,.18-.31,2.11,2.11,0,0,1,2.93-.51,58.53,58.53,0,0,0,10.6,5.73h0c28.12,11.63,60.1-.67,72.44-27.44.31-.69.62-1.38.91-2.08,11.67-28.38-2.46-60.87-31.25-72.78s-61.68,1.22-73.34,29.52c-6.93,16.84-2.76,28.77-3.56,30.5a2.13,2.13,0,0,1-4-.59,58.44,58.44,0,0,1,4.63-33.77c21.6-46.89,90.37-45,111,3.05a58.5,58.5,0,0,1,.46,45.69c-.31.76-.64,1.51-1,2.25a58.27,58.27,0,0,1-31.48,29.82,61,61,0,0,1-46.37-.34C191.37,307.66,190.61,307.33,189.86,307Z" transform="translate(-3.75 -113.42)"/><path class="cls-2" d="M365.36,218.87a48.64,48.64,0,0,0,12.12,10.31l.22,11.27c0,1.25,1.1.77,13.52,5,1.15.38,1-.7,7.79-9.33a49.17,49.17,0,0,0,15.86-1.29l8.13,7.81c.9.87,1.32-.23,13.1-6a.94.94,0,0,0,.5-.95L435,224.52a49,49,0,0,0,10.31-12.12c10.76-.44,11.75.31,12.13-.87,3.89-12.81,4.8-13.16,3.83-13.89l-9-6.77A48.89,48.89,0,0,0,451,175l7.81-8.13c.86-.9-.23-1.32-6-13.1-.55-1.07-1.17-.24-12.12,1.09a49,49,0,0,0-12.12-10.31l-.23-11.27c0-1.25-1.09-.77-13.51-5-1.14-.37-1,.66-7.79,9.33a49.17,49.17,0,0,0-15.86,1.29L383,131.09a.93.93,0,0,0-1.06-.16l-12,6.17a.92.92,0,0,0-.49,1L371,149.22a49.07,49.07,0,0,0-10.32,12.12c-10.76.44-11.75-.3-12.13.87-3.88,12.81-4.8,13.16-3.82,13.89l9,6.77A49.17,49.17,0,0,0,355,198.73c-7.3,7.92-8.53,8.1-8,9.2l6.17,12C353.79,221,354.47,220.19,365.36,218.87Z" transform="translate(-3.75 -113.42)"/><path class="cls-3" d="M388.92,186a14.11,14.11,0,1,1,13.17,15h0A14.12,14.12,0,0,1,388.92,186Zm13.31,12.9h0Zm-9.11-12.63a9.93,9.93,0,0,0,9.25,10.53h0a9.91,9.91,0,1,0-9.25-10.53Z" transform="translate(-3.75 -113.42)"/><path class="cls-2" d="M332.17,208c-.54-1.81-1-3.67-1.42-5.53a1.41,1.41,0,0,1,1.08-1.67c1.9-.41,1.63,1.72,3,6.4a1.4,1.4,0,1,1-2.69.8Z" transform="translate(-3.75 -113.42)"/><path class="cls-2" d="M329.17,183.77a74.68,74.68,0,0,1,1.38-11.47,1.4,1.4,0,0,1,2.75.55c-2,10-.44,12.48-2.79,12.38A1.4,1.4,0,0,1,329.17,183.77Zm8-27.36a1.4,1.4,0,0,1-.65-1.87,73.58,73.58,0,0,1,5.85-10,1.4,1.4,0,0,1,2.3,1.6,71.94,71.94,0,0,0-5.63,9.58A1.41,1.41,0,0,1,337.18,156.41ZM355.3,133a1.55,1.55,0,0,1-.48-.36,1.4,1.4,0,0,1,.15-2,73.9,73.9,0,0,1,9.33-6.8,1.4,1.4,0,1,1,1.47,2.38,71.72,71.72,0,0,0-9,6.55A1.41,1.41,0,0,1,355.3,133Zm25.9-14.25a1.4,1.4,0,0,1,.17-2.62,73.76,73.76,0,0,1,11.28-2.5,1.4,1.4,0,0,1,.39,2.78,70.78,70.78,0,0,0-10.85,2.4A1.35,1.35,0,0,1,381.2,118.79Zm28.63-4.13a1.4,1.4,0,0,1,1.55-1.23,73.61,73.61,0,0,1,11.35,2.18,1.41,1.41,0,0,1-.75,2.71,71.52,71.52,0,0,0-10.91-2.11A1.4,1.4,0,0,1,409.83,114.66Z" transform="translate(-3.75 -113.42)"/><path class="cls-2" d="M443.31,128.26c-4.23-2.92-6.1-3.22-5.15-4.86a1.4,1.4,0,0,1,1.92-.5c1.63.94,3.25,2,4.82,3a1.4,1.4,0,0,1-1.59,2.31Z" transform="translate(-3.75 -113.42)"/><path class="cls-2" d="M473.55,177.79c-.65-5.12-1.67-6.7.18-7.08a1.4,1.4,0,0,1,1.66,1.09c.39,1.85.7,3.75.95,5.64a1.41,1.41,0,0,1-2.79.35Z" transform="translate(-3.75 -113.42)"/><path class="cls-2" d="M378.84,255.25c.73-2.21,2.39.07,12.38,1.73a1.4,1.4,0,0,1-.46,2.77,72.84,72.84,0,0,1-11-2.73A1.4,1.4,0,0,1,378.84,255.25Zm28.81,4a1.41,1.41,0,0,1,1.29-1.51c10.18-.84,11.93-3,12.48-.7a1.4,1.4,0,0,1-1,1.69,74.36,74.36,0,0,1-11.21,1.8A1.41,1.41,0,0,1,407.65,259.24Zm28.07-7.64c-1.1-2.06,1.67-1.67,9.81-7.74a1.4,1.4,0,0,1,1.68,2.24,74.63,74.63,0,0,1-9.6,6.08A1.39,1.39,0,0,1,435.72,251.6Zm22.8-18.06c-1.82-1.47.89-2.19,6-11a1.4,1.4,0,0,1,2.42,1.41,73.94,73.94,0,0,1-6.45,9.35A1.39,1.39,0,0,1,458.52,233.54Zm12.92-27.29c2.77-9.82,1.39-12.22,3.71-11.94a1.41,1.41,0,0,1,1.23,1.56A74.75,74.75,0,0,1,474.14,207a1.4,1.4,0,0,1-2.7-.76Z" transform="translate(-3.75 -113.42)"/><path class="cls-2" d="M363,249c-1.6-1-3.17-2.14-4.68-3.28a1.4,1.4,0,0,1-.27-2c1.18-1.55,2.35.24,6.47,2.89A1.4,1.4,0,0,1,363,249Z" transform="translate(-3.75 -113.42)"/><path class="cls-3" d="M385.9,216.82a2.1,2.1,0,1,1,2-3.68,30.54,30.54,0,0,0,29.23.75c24.1-12.34,21.25-47.91-4.55-56.23a30.57,30.57,0,0,0-37.09,16.26c-6.42,13.93.83,21.17-3.61,22.2a2.1,2.1,0,0,1-2.52-1.57,34.75,34.75,0,1,1,23.19,25.23h0A35.1,35.1,0,0,1,385.9,216.82Z" transform="translate(-3.75 -113.42)"/><path class="cls-4" d="M380.15,267.11c0-.66-.72-1.22-1.86-1.68,1.23-.68,1.92-1.41,1.86-2.13-.17-2.16-7-3.38-15.32-2.71s-14.87,3-14.69,5.13c.05.66.72,1.23,1.86,1.68-1.24.69-1.92,1.42-1.86,2.13s.72,1.23,1.86,1.68c-1.24.68-1.92,1.41-1.86,2.13s.72,1.23,1.86,1.68c-1.24.68-1.92,1.41-1.86,2.13.07,1,1.46,1.73,3.7,2.23a18.81,18.81,0,0,0,.05,2.34c.33,4,4.82,7.13,10.76,7.13s11.08-4.27,11.13-8.28a19.11,19.11,0,0,0-.11-2.61c2.84-.95,4.57-2.11,4.48-3.23,0-.66-.72-1.23-1.86-1.68,1.23-.68,1.92-1.41,1.86-2.13s-.72-1.23-1.86-1.68C379.52,268.56,380.21,267.83,380.15,267.11Z" transform="translate(-3.75 -113.42)"/><path class="cls-5" d="M361,280.25a36.32,36.32,0,0,1-6.57-.54.2.2,0,0,1-.16-.23.2.2,0,0,1,.23-.16,43,43,0,0,0,10.95.34,47,47,0,0,0,9.19-1.58.2.2,0,0,1,.11.38,47.79,47.79,0,0,1-9.26,1.6C363.93,280.18,362.43,280.25,361,280.25Z" transform="translate(-3.75 -113.42)"/><path class="cls-6" d="M361,276.43a31.48,31.48,0,0,1-8.07-.87.2.2,0,0,1-.14-.25.2.2,0,0,1,.25-.13,46.26,46.26,0,0,0,24.4-1.94.2.2,0,0,1,.27.09.21.21,0,0,1-.1.27,39.19,39.19,0,0,1-12.16,2.65C364,276.37,362.46,276.43,361,276.43Z" transform="translate(-3.75 -113.42)"/><path class="cls-7" d="M361,272.63a29.12,29.12,0,0,1-8.51-1,.2.2,0,1,1,.13-.37c2.83.93,7.63,1.24,12.83.82a38.86,38.86,0,0,0,12-2.62.21.21,0,0,1,.27.09.21.21,0,0,1-.1.27,39.19,39.19,0,0,1-12.16,2.65C363.93,272.57,362.43,272.63,361,272.63Z" transform="translate(-3.75 -113.42)"/><path class="cls-8" d="M361,268.82a34.4,34.4,0,0,1-7.17-.65.21.21,0,0,1-.15-.24.19.19,0,0,1,.24-.15,41.93,41.93,0,0,0,11.5.46,39.45,39.45,0,0,0,12-2.59.2.2,0,0,1,.27.1.2.2,0,0,1-.1.26,39.78,39.78,0,0,1-12.1,2.62C364,268.76,362.45,268.82,361,268.82Z" transform="translate(-3.75 -113.42)"/><path class="cls-9" d="M344.57,247.89a27.74,27.74,0,0,0-5-9.8,64.92,64.92,0,0,1-14-36.13c-1.44-25.11,20.82-37.68,41.14-36s40.37,16.84,38.17,40.19c-1.35,14.37-9.39,25.27-15.38,31.53a33.35,33.35,0,0,0-8,14.15c-1.8,6.49-6.08,14.58-16.24,15.07C352.13,267.57,346.67,255.3,344.57,247.89Z" transform="translate(-3.75 -113.42)"/><path class="cls-10" d="M368.65,261.92l7.11-46.24c.14-1,.61-1.59,1.05-1.43s.66,1.07.51,2a.25.25,0,0,1,0,.08l-8.1,45.81c-.06.34-.23.56-.39.48S368.6,262.26,368.65,261.92Z" transform="translate(-3.75 -113.42)"/><path class="cls-11" d="M361.27,262.29l-7.11-46.24c-.15-1-.62-1.6-1.05-1.43s-.67,1.07-.52,2c0,0,0,.06,0,.09l8.1,45.81c.06.34.24.56.39.48S361.32,262.62,361.27,262.29Z" transform="translate(-3.75 -113.42)"/><path class="cls-12" d="M375.7,211.71a.74.74,0,0,0-.93-.24l-4,1.85-1.37-3.92a.84.84,0,0,0-.48-.48,1,1,0,0,0-1.22.38h0l-3.25,5.93-3-8.45h0a1,1,0,0,0-.45-.52,1.2,1.2,0,0,0-1.5.3L355,212.82a.55.55,0,0,0,.16.79.76.76,0,0,0,1-.1l4-4.47,3.61,8h0a.64.64,0,0,0,.31.32.78.78,0,0,0,.95-.25l3.48-5.59,1.31,2.83v0a.16.16,0,0,0,0,.06.76.76,0,0,0,.94.25l4.7-2.2A.55.55,0,0,0,375.7,211.71Z" transform="translate(-3.75 -113.42)"/><path class="cls-12" d="M389.67,231.75a.89.89,0,0,1-.54-.17.92.92,0,0,1-.19-1.27,52.07,52.07,0,0,0,3.3-5,.9.9,0,0,1,1.23-.33.91.91,0,0,1,.33,1.24,55,55,0,0,1-3.41,5.18A.89.89,0,0,1,389.67,231.75Z" transform="translate(-3.75 -113.42)"/><path class="cls-12" d="M395.51,221.72a.85.85,0,0,1-.35-.08.9.9,0,0,1-.47-1.19,42.07,42.07,0,0,0,1-32,.92.92,0,0,1,.45-1.2.91.91,0,0,1,1.2.44c.28.63,6.87,15.41-1,33.44A.9.9,0,0,1,395.51,221.72Z" transform="translate(-3.75 -113.42)"/><path class="cls-13" d="M245.22,550.66s-1.17,6.29-1.78,12.52a4.3,4.3,0,0,0,4.07,4.69c8.3.43,26.05,1.27,32.43,1a1.39,1.39,0,0,0,1.25-1.9h0a3.12,3.12,0,0,0-1.59-1.7l-29.21-13.76Z" transform="translate(-3.75 -113.42)"/><path class="cls-14" d="M244.34,547l.83,7.54s5.11,2.44,8.65-.22l-2-8.41Z" transform="translate(-3.75 -113.42)"/><path class="cls-15" d="M246.37,405.3c-.41,2-3,98.17,6.86,141.39a1.46,1.46,0,0,1-.87,1.69A25.53,25.53,0,0,1,244,550a2.53,2.53,0,0,1-2.48-1.84c-2.84-10-16.45-60.29-17.83-108.19-1.55-53.53,0-1.82,0-1.82l1.52-33.06Z" transform="translate(-3.75 -113.42)"/><path class="cls-16" d="M211.44,553.62s-1.8,3.17-3.6,11.6a2.63,2.63,0,0,0,2.28,3.16c2.74.3,7,.68,10.34.69a2.61,2.61,0,0,0,2.61-2.89A22,22,0,0,0,218,554Z" transform="translate(-3.75 -113.42)"/><path class="cls-17" d="M210,543.92l2,11.41s2,1.56,6.14.48l-.88-12.27Z" transform="translate(-3.75 -113.42)"/><path class="cls-18" d="M205.63,407.87c-8.9,50.68.63,125.49,3.94,140.14a2.28,2.28,0,0,0,1.83,1.75,15.19,15.19,0,0,0,6.58-.2,2.1,2.1,0,0,0,1.52-1.91c.57-11.81.43-84.4,8.54-113a6.59,6.59,0,0,1,2.55-3.57l15.32-10.67,1.33-17.47Z" transform="translate(-3.75 -113.42)"/><path class="cls-19" d="M260.15,312.18c-25.21-.65-53.09,6.12-53.09,6.12-7.93,43.77-2.21,94.4-2.21,94.4C224.31,418,246.41,410,246.41,410c3.42-18.3,19-69.73,19-69.73a83.17,83.17,0,0,0,30.92-9.48c-6.31-7.45-9.22-16.88-10.47-22.45A84.54,84.54,0,0,1,260.15,312.18Z" transform="translate(-3.75 -113.42)"/><path class="cls-20" d="M335,275.76a4.84,4.84,0,0,0-5.6-1.63c-3.86,15.64-23.43,28.16-43.47,34.18,1.25,5.57,4.16,15,10.47,22.45C329.71,312.42,335,275.76,335,275.76Z" transform="translate(-3.75 -113.42)"/><path class="cls-21" d="M334.36,276.52c.25.82-2.76,2.05-4.5-1.34,0-1.61-1-8.54,0-9.85,5.2-6.95,15.25-15.64,15.25-15.64a2.38,2.38,0,0,1,.27,3.3l-4.89,5c1,1.84,2.22,3.4,2.77,5.61a6.79,6.79,0,0,1-.72,5c-.86,1.52-2,3.49-3.15,5A6.71,6.71,0,0,1,334.36,276.52Z" transform="translate(-3.75 -113.42)"/><path class="cls-22" d="M338.37,261.22l-4.44,3.69-1.42,3.71L336.4,273s1.39-7.36,2.38-8.95S339.28,261.7,338.37,261.22Z" transform="translate(-3.75 -113.42)"/><path class="cls-23" d="M216.5,342.8l-9.44-24.5s-23.7,15.77-27.76,36A55.62,55.62,0,0,1,199.71,360C201.55,350.44,216.5,342.8,216.5,342.8Z" transform="translate(-3.75 -113.42)"/><path class="cls-24" d="M236.86,366s-26.58,14.69-35.38,1.85a10,10,0,0,1-1.77-7.81,55.62,55.62,0,0,0-20.41-5.68,27.92,27.92,0,0,0,2.86,19.22c15.35,28.73,58.13-1,58.13-1Z" transform="translate(-3.75 -113.42)"/><path class="cls-25" d="M234.81,291.47l-8.24,23.12a.82.82,0,0,0,.37,1c2.17,1.23,10,4.8,19.57-1.13a3.93,3.93,0,0,0,1.84-2.79l2.79-20.05Z" transform="translate(-3.75 -113.42)"/><path class="cls-26" d="M252.47,270.16s8.65,16.66,7.45,23.35-12.1,6.1-21.58.57l-6.49-18Z" transform="translate(-3.75 -113.42)"/><path class="cls-27" d="M238.84,285.29a.67.67,0,0,0,.31-1,18.23,18.23,0,0,1-2.4-5.23s-1.57-1,4.05-2.32,14-3.3,15.83-8.06-2.64-16.4-9.92-7.13a.69.69,0,0,1-1.08,0c-1.17-1.55-4.24-4.76-8.56-2.87-4,1.76-4.52,4.71-4.48,6.2a.68.68,0,0,1-.81.69c-2-.41-6.92-.79-9.25,4.2-1.91,4.11-.72,6.46.39,7.61a.69.69,0,0,1-.31,1.13c-1.34.4-3.08,1.51-2.93,4.65.19,4.34,5,4,6.42,3.82a.69.69,0,0,1,.61.22c1.17,1.32,6.45,6.93,12.21,7.65a.69.69,0,0,0,.73-.9l-2.43-7.28a.69.69,0,0,1,.38-.85Z" transform="translate(-3.75 -113.42)"/><path class="cls-28" d="M239.84,286.33s-6.23-4.36-6.73-.74,5.6,5.3,8.64,4Z" transform="translate(-3.75 -113.42)"/><path class="cls-29" d="M231.42,389.18l14.48-50.57a1.49,1.49,0,0,1,1.25-1.06c2.62-.3,10.22-1.16,19-1.91,10.57-.89,22.85-1.61,30.19-1a1.48,1.48,0,0,1,1.21,2.13c-4.18,8.44-21.34,42.77-29.93,54a1.49,1.49,0,0,1-1.19.59l-33.6-.32A1.47,1.47,0,0,1,231.42,389.18Z" transform="translate(-3.75 -113.42)"/><path class="cls-30" d="M234.92,377s-2-8.29-1.2-11.23,2.39-6.73,7.64-5.89a77,77,0,0,1,11.46,3.05s-.32,3.84-4.31,2.6l2.48,1.92s-.36,3.07-3.73,1.43l2.3,2.54a2.68,2.68,0,0,1-3.93.9C243.15,370.66,242,378,234.92,377Z" transform="translate(-3.75 -113.42)"/><path class="cls-2" d="M265.19,350.74a4.25,4.25,0,1,0,4.25-4.25A4.25,4.25,0,0,0,265.19,350.74Z" transform="translate(-3.75 -113.42)"/><path class="cls-2" d="M247.54,353.54l-1.08-.32,2.95-10a4.54,4.54,0,0,1,3.43-3.19c9.34-1.95,34-2.35,35-2.37l0,1.13c-.25,0-25.55.42-34.78,2.34a3.43,3.43,0,0,0-2.58,2.41Z" transform="translate(-3.75 -113.42)"/><path class="cls-31" d="M76.18,495.05c-1.54,2.28-7.67,54-8.63,73.09a2.25,2.25,0,0,0,2.26,2.37h0A2.26,2.26,0,0,0,72,568.59l11.22-71.9Z" transform="translate(-3.75 -113.42)"/><path class="cls-31" d="M125.5,495.05c1.55,2.28,7.68,54,8.64,73.09a2.26,2.26,0,0,1-2.26,2.37h0a2.27,2.27,0,0,1-2.24-1.92l-11.22-71.9Z" transform="translate(-3.75 -113.42)"/><path class="cls-31" d="M66.9,491v.57c0,4.05,3.46,7.38,7.83,7.45l51.86.89a7.76,7.76,0,0,0,8.12-7l0-.52c.22-4.16-3.32-7.67-7.82-7.75L75,483.68C70.6,483.6,66.94,486.9,66.9,491Z" transform="translate(-3.75 -113.42)"/><path class="cls-2" d="M176.15,566.26c-9.22,0-13.3-.79-15.12-1.51a3.5,3.5,0,0,0,3.41,2.71h32.61a1.59,1.59,0,0,0,1.53-2C194.86,565.75,187,566.26,176.15,566.26Z" transform="translate(-3.75 -113.42)"/><path class="cls-32" d="M198.58,565.46a1.39,1.39,0,0,0-.27-.56c-2.48-3.17-7.47-8.15-14.26-8.06-10,.14-13.41,1.22-21.14.06L161.09,563a3.45,3.45,0,0,0-.06,1.8c1.82.72,5.9,1.51,15.12,1.51C187,566.26,194.86,565.75,198.58,565.46Z" transform="translate(-3.75 -113.42)"/><path class="cls-33" d="M165.15,550.39,162.91,558s5,2.26,9.32.45l.85-6.6Z" transform="translate(-3.75 -113.42)"/><path class="cls-2" d="M232.74,561.47c-7.18,5.77-10.86,7.71-12.73,8.3a3.5,3.5,0,0,0,4.35,0l25.42-20.42a1.59,1.59,0,0,0-.06-2.52C247,549.36,241.17,554.69,232.74,561.47Z" transform="translate(-3.75 -113.42)"/><path class="cls-34" d="M249.72,546.79a1.56,1.56,0,0,0-.55-.26c-3.91-.9-10.91-1.64-16.14,2.68-7.67,6.34-9.7,9.35-16.44,13.29l2.34,5.83a3.43,3.43,0,0,0,1.08,1.44c1.87-.59,5.55-2.53,12.73-8.3C241.17,554.69,247,549.36,249.72,546.79Z" transform="translate(-3.75 -113.42)"/><path class="cls-35" d="M117.27,463.67s55.2,4.51,66.52,9.84-9.24,80-9.24,80-3.08,1.49-9.94-.64c0,0,7-55.13,1.8-67.09L106.65,476Z" transform="translate(-3.75 -113.42)"/><path class="cls-36" d="M211.1,552c.51.47,5.49,10.49,5.49,10.49s5.53-1.19,6.66-4.7l-5-9Z" transform="translate(-3.75 -113.42)"/><path class="cls-37" d="M84,463.21a28,28,0,0,0-1.73,10.08,15.13,15.13,0,0,0,14.44,14.8l65.25,3a3.13,3.13,0,0,1,2.89,2.35c1.54,5.93,9,24.15,45.67,60.49a3,3,0,0,0,3.65.4l5.21-3.3a1.19,1.19,0,0,0,.4-1.62l-38-64.88a14.72,14.72,0,0,0-8.94-6.62l-55.61-14.22Z" transform="translate(-3.75 -113.42)"/><path class="cls-38" d="M148.33,361.87s-7,12.36-14.12,18.34l14.73,8.22s3.32-13.08,10.91-16.91Z" transform="translate(-3.75 -113.42)"/><path class="cls-39" d="M82.84,463.67s17.62,4.29,34.43,0c0,0,23.53-31.63,32.63-40.23,0,0,14.52,22.91,46.83,26.15l1.81-4s-25.73-11.86-33.65-30.09-11.1-26-18.31-30.74c-4.48-3-7.17-5-8.56-6.09a2.29,2.29,0,0,0-2.64-.17C127.74,383.14,91.75,407.78,82.84,463.67Z" transform="translate(-3.75 -113.42)"/><path class="cls-40" d="M149,423a1.13,1.13,0,0,1-.9-.44,70.47,70.47,0,0,1-8.87-15.72,1.13,1.13,0,1,1,2.11-.81,69.82,69.82,0,0,0,8.55,15.15A1.13,1.13,0,0,1,149,423Z" transform="translate(-3.75 -113.42)"/><path class="cls-41" d="M194.79,443.46l3.64-1,11-2.55a5.12,5.12,0,0,1,3.89.65l9.49,6-26.22,0Z" transform="translate(-3.75 -113.42)"/><path class="cls-42" d="M159.43,343.34s6.79,11.29,8,17.53,3.07,10.14-4,12.37-13.71-.6-17.85-6.42c0,0-6.47-9-5.82-13.07S159.43,343.34,159.43,343.34Z" transform="translate(-3.75 -113.42)"/><path class="cls-43" d="M147.41,362l.92-.12s-4.81-7.27-1.66-9.07,16-6.23,18.2-11.28c2.15-4.87-1.07-10.37-4.94-11.52a.49.49,0,0,0-.59.31l-.23.61a.5.5,0,0,1-.92,0h0a.49.49,0,0,0-.9,0c-.69,1.52-2.75,4.1-8.92,6.1-8.75,2.84-14.2,7.25-13.53,13.47a.5.5,0,0,1-.71.5c-.72-.31-1.8-.36-3.06,1-2.19,2.4-.47,7.64,5.51,11.35a.49.49,0,0,1,.08.79c-.9.77-2.16,2.48,1.89,4s6.4,1,7.24.7a.51.51,0,0,0,.3-.57L145,362.84a.49.49,0,0,1,.42-.59Z" transform="translate(-3.75 -113.42)"/><path class="cls-44" d="M147.79,363.11s-3-7.39-6.15-4.79,2.91,8.34,5.71,8.26Z" transform="translate(-3.75 -113.42)"/><path class="cls-45" d="M184.66,451.71h.13l56,0a2.51,2.51,0,1,0,0-5l-56,.06a2.5,2.5,0,0,0-.12,5Z" transform="translate(-3.75 -113.42)"/><path class="cls-46" d="M262.51,396.84l-.06.12-23.57,50.82a2.5,2.5,0,1,0,4.54,2.11L267,399.07a2.5,2.5,0,0,0-4.48-2.23Z" transform="translate(-3.75 -113.42)"/><rect class="cls-31" x="399.55" y="389.37" width="5.91" height="63.94"/><path class="cls-31" d="M432.15,568H380.36a3.85,3.85,0,0,1,3.85-3.85H428.3a3.86,3.86,0,0,1,3.85,3.85Z" transform="translate(-3.75 -113.42)"/><rect class="cls-31" x="370.97" y="375.04" width="65.11" height="18.47" rx="6.36"/><path class="cls-47" d="M362.6,460.15a51.4,51.4,0,0,0-18.66,8,4.94,4.94,0,0,0-2.18,4.71c1.19,9.37,6.05,39.7,22.09,69.32a7.43,7.43,0,0,1,.71,5.11l-2.78,13-5.17,4.85h13.31l8.86-24-3.79-1.2a7.18,7.18,0,0,1-5-6.72l-.44-25.72a29.27,29.27,0,0,0-7-19.37l21.26-1Z" transform="translate(-3.75 -113.42)"/><path class="cls-48" d="M351.41,567.41c-1.21,1.58,13,3.68,20.25.21,0,0,10-17.38,10-26.32,0,0-.8-1.83-6.66-1.41,0,0-3.35,20.57-6.89,22.87s-9.91.24-9.91.24S353.2,565.07,351.41,567.41Z" transform="translate(-3.75 -113.42)"/><path class="cls-49" d="M381.08,488.46c-.11-.2-22.89-2.74-22.89-2.74a52.48,52.48,0,0,1-1.58,16.45c-2.33,9.54-35.76,50.83-35.76,50.83l3.5,11.11a56.39,56.39,0,0,1-32,1.93l21.73-13s20.33-69.29,32.78-81.65l22.83-7.9Z" transform="translate(-3.75 -113.42)"/><path class="cls-50" d="M432.15,448.14s13.12,19.51,14.19,28.41-3.59,12.52-17.36,13.12-50.51.59-50.51.59L347.1,463.45S370,455.29,375.9,453,432.15,448.14,432.15,448.14Z" transform="translate(-3.75 -113.42)"/><path class="cls-51" d="M323,560.37s3.77,3.66,1.22,7.72c0,0-29.9,5.3-38,2.9,0,0,1.68-3.85,10.82-8.23l-.67.52a1.09,1.09,0,0,0,.72,2C303.13,564.9,315.6,563.79,323,560.37Z" transform="translate(-3.75 -113.42)"/><path class="cls-52" d="M375.32,324.38c26.82-4.56,39.44,17.32,38.52,21.91a.84.84,0,0,0,1.05,1c3.08-.83,9.88-1.88,14.1,3.41,3.72,4.66.94,9.06-1.33,11.48a.85.85,0,0,0,.71,1.43c5.66-.71,18-.89,20,10.64,1.88,10.74-5.6,13.77-10,14.63a.84.84,0,0,0-.28,1.54c2.22,1.4,4.78,4.3,3.74,10-1.62,9-19.21,8.24-21.27,8.12a.89.89,0,0,1-.36-.11L392,392.36a.88.88,0,0,1-.42-.59l-5.69-32.86a.87.87,0,0,1,.23-.73L367.7,332.26C361,331.28,375,324.44,375.32,324.38Z" transform="translate(-3.75 -113.42)"/><path class="cls-53" d="M396.67,445.56s-15.28-14.55-22.8-24.19a20.43,20.43,0,0,1-3.46-18.4c3.43-11.57,9.53-23.55,10.09-25.41.85-2.86,18-2.74,18-2.74s33.71,21.88,47,58.94l-14.88,4.63s-8.8-14.77-17.5-24.16c0,0,15.05,19.88,15.58,28Z" transform="translate(-3.75 -113.42)"/><path class="cls-54" d="M378.43,361.59c.17.59,4.65,15.41,5,15.72s9.8.82,14.25-2.23l-11-21.59Z" transform="translate(-3.75 -113.42)"/><path class="cls-55" d="M360.5,342.54s-2.16,8.49,3.82,19.91,12.74,11.41,16.44,7.75,8.27-9.85,7.18-20.9S363.62,331.74,360.5,342.54Z" transform="translate(-3.75 -113.42)"/><path class="cls-56" d="M379.67,349.9s-9.92-15.16-19.22-3.23l-.17,4.34s-10.89-1.29-9-11.28,11.32-16.23,23.44-11.9,19.07,8.76,19.86,17.45-6.13,6.78-6.13,6.78-2.26-6.11-5.46-6.75-2.38,4.13-2.38,4.13Z" transform="translate(-3.75 -113.42)"/><path class="cls-57" d="M382.21,349.7s-5.14-7.77.13-8.92,4.45,7.56,3.88,10.79Z" transform="translate(-3.75 -113.42)"/><path class="cls-58" d="M365.54,446.64l11.23-10.82,15.52,6.56s15.46,2.39,24.31,0l8.84-2.4,20-6.22,3.14,8.87a5.36,5.36,0,0,1-2,6.14,34.26,34.26,0,0,1-5.05,3.14c-2.63,1.16-64.89-.79-64.89-.79Z" transform="translate(-3.75 -113.42)"/><path class="cls-59" d="M408,451.74h-.15l-65.11-.07a2.92,2.92,0,1,1,0-5.83l65.12.07a2.92,2.92,0,0,1,.14,5.83Z" transform="translate(-3.75 -113.42)"/><path class="cls-60" d="M284.22,392.62h54.23a10.33,10.33,0,0,1,9.35,5.92l25.07,53.16h-67.4a6.28,6.28,0,0,1-5.84-4l-19.44-49.19A4.33,4.33,0,0,1,284.22,392.62Z" transform="translate(-3.75 -113.42)"/><path class="cls-31" d="M322.42,419.87c1.18,3.65.31,7.2-1.93,7.92s-5-1.65-6.2-5.3-.31-7.2,1.94-7.92S321.25,416.22,322.42,419.87Z" transform="translate(-3.75 -113.42)"/><path class="cls-61" d="M482.26,559.9a80,80,0,0,1,.95,8.3A3.57,3.57,0,0,1,480,572c-6.67.65-21.84,1.84-31.52.45a1.63,1.63,0,0,1-.9-2.8c4-3.72,13.64-11,29.52-12.54Z" transform="translate(-3.75 -113.42)"/><path class="cls-62" d="M485.57,551.35l-3.37,8.26a2.77,2.77,0,0,1-2.83,1.71,15.29,15.29,0,0,1-2.75-.54,3.61,3.61,0,0,1-2.4-4.49l2.54-8.51Z" transform="translate(-3.75 -113.42)"/><path class="cls-63" d="M543.18,566.48s-6.75,5.65-9.38,12.89a3.08,3.08,0,0,0,2.93,4.09h13.88a3.27,3.27,0,0,0,3.24-3.83C553,574.63,550.42,566.5,543.18,566.48Z" transform="translate(-3.75 -113.42)"/><path class="cls-64" d="M551.54,559.13s-1.36,6-2.41,10a1.27,1.27,0,0,1-1.67.87,11.74,11.74,0,0,0-5.05-.92,1,1,0,0,1-1.09-1l-.13-10Z" transform="translate(-3.75 -113.42)"/><path class="cls-65" d="M515.65,423.38l-41,125.22s7.87,5.15,11.62,4.94L535,452.91s8.53,62,4.4,106.52l14,1.06s22.71-113.76,5.51-152.72Z" transform="translate(-3.75 -113.42)"/><path class="cls-66" d="M534.72,451.83h0a.39.39,0,0,0,.34-.44l-1.59-12.64a.4.4,0,1,0-.79.1l1.6,12.64A.39.39,0,0,0,534.72,451.83Z" transform="translate(-3.75 -113.42)"/><path class="cls-67" d="M508,313.2s33.25,2.95,28.55,26.65c0,0,18.38,34.59,27,75.34a2.4,2.4,0,0,1-1.94,2.85l-55.38,9.48a3,3,0,0,1-3.39-2.19l-13.23-51.14L484.38,398,468,393.7l13.79-69.87S483.72,313.64,508,313.2Z" transform="translate(-3.75 -113.42)"/><path class="cls-2" d="M489.26,371.9h.09a.41.41,0,0,0,.31-.49l-4.61-21.19a.42.42,0,0,0-.5-.32.41.41,0,0,0-.31.49l4.62,21.2A.41.41,0,0,0,489.26,371.9Z" transform="translate(-3.75 -113.42)"/><path class="cls-68" d="M492.6,435a7.91,7.91,0,0,1,5.72-.74l3.85,1a1.41,1.41,0,0,0,1.73-1.2l4-35.49c5,2.37,12.18,2.09,14.55,1.91l-9.17,41.84H481.14Z" transform="translate(-3.75 -113.42)"/><path class="cls-69" d="M407.28,358l1-3.23a6.36,6.36,0,0,1,3.73-4.08l17.55-7.06s.27-2.25-3.71-3.78-3-6-3-6,5.43,2.47,13.38,6.4a18.6,18.6,0,0,1,8.44,9.2L484.38,398l-4.67,3.21a12.46,12.46,0,0,1-18.07-4.43l-21.55-41.33A80.5,80.5,0,0,1,407.28,358Z" transform="translate(-3.75 -113.42)"/><path class="cls-70" d="M497.19,290.58l10.22,28.62s-9.05,7.08-15.66,4.69l-5.16-16.41S490.53,287.43,497.19,290.58Z" transform="translate(-3.75 -113.42)"/><path class="cls-71" d="M466.66,280.3c0,.44,9.85,27.89,9.85,27.89l15.56-6-5.48-27.4S466.66,272.91,466.66,280.3Z" transform="translate(-3.75 -113.42)"/><path class="cls-72" d="M483.87,281.5l4,14.2a2.1,2.1,0,0,1,.07.56c0,1.15-.28,5.14-4.34,4.6-3.68-.49-7.05-.89-9.2.12a2.06,2.06,0,0,0-1.06,2.56,90.23,90.23,0,0,0,5.6,12.65,2.07,2.07,0,0,0,2.65.84,66.35,66.35,0,0,0,13.33-7.84,2.06,2.06,0,0,0,.73-2c-.68-3.63-2.71-14.68-2.8-17.85-.08-3,3.25-5.24,4.72-6.09a2,2,0,0,0,.95-1.28c.47-1.92.86-6.24-4.67-7.2a2.06,2.06,0,0,1-1.67-2.45c.47-2.29.32-5.66-4-6.9s-7.19,1.4-8.6,3.44a2.07,2.07,0,0,1-2.56.68,1.64,1.64,0,0,0-1.83.33,2,2,0,0,1-3-.45,6.14,6.14,0,0,0-7.58-2.51c-7,2.27-6.69,10.38-4.12,14.78s10.06,1.51,13.6-1.41c2.69-2.22,6.79-.89,8.6-.13A2,2,0,0,1,483.87,281.5Z" transform="translate(-3.75 -113.42)"/><path class="cls-73" d="M494.27,294.55s-4.16-7.87-1.41-10.34,7.41-2.07,7.29,4.08C500,296,494.27,294.55,494.27,294.55Z" transform="translate(-3.75 -113.42)"/><path class="cls-2" d="M519.21,401a38,38,0,0,0,4.06-.2l.3,0,12.11-56.45a.42.42,0,0,0-.32-.49.41.41,0,0,0-.49.31l-12,55.87c-1.81.16-11.43.8-16.51-2.8l10.49-49.05L514.68,344a.41.41,0,0,0-.73.38l2,3.86-10.54,49.28.21.16C509.35,400.42,515.26,401,519.21,401Z" transform="translate(-3.75 -113.42)"/><path class="cls-74" d="M156.21,573.07a2,2,0,0,1-.84-.19c-1.07-.5-1.56-1.86-.43-3.7l44.25-112.26c-.21-.5,1-1,2.1-.54a2.39,2.39,0,0,1,1.1,3L158.15,571.67A2.11,2.11,0,0,1,156.21,573.07Z" transform="translate(-3.75 -113.42)"/><path class="cls-74" d="M206.05,573.07c-.81,0-1.59-.52-1.26-2.07L160.54,458.74c-1.13-.5-.64-1.86.43-2.36a2,2,0,0,1,2.77,1.21L208,569.85a2.39,2.39,0,0,1-1.1,3A2,2,0,0,1,206.05,573.07Z" transform="translate(-3.75 -113.42)"/><path class="cls-74" d="M456.5,573.07a1.94,1.94,0,0,1-.84-.19,2.39,2.39,0,0,1-1.1-3L498.8,457.59a2.06,2.06,0,0,1,2.78-1.21,2.39,2.39,0,0,1,1.1,3L458.43,571.67A2.1,2.1,0,0,1,456.5,573.07Z" transform="translate(-3.75 -113.42)"/><path class="cls-74" d="M506.34,573.07a2.1,2.1,0,0,1-1.94-1.4L460.16,459.41a2.38,2.38,0,0,1,1.1-3,2,2,0,0,1,2.77,1.21l44.25,112.26a2.39,2.39,0,0,1-1.11,3A1.9,1.9,0,0,1,506.34,573.07Z" transform="translate(-3.75 -113.42)"/><path class="cls-2" d="M450.08,449.66h64.08V443H450.08C451.45,443,451.45,449.66,450.08,449.66Z" transform="translate(-3.75 -113.42)"/><path class="cls-75" d="M513.56,449.66a.6.6,0,0,0,.6-.6v-5.41a.6.6,0,0,0-.6-.61H448.72a.6.6,0,0,1-.6-.6v-.29a.6.6,0,0,1,.6-.6h69.11a2.77,2.77,0,0,1,2.77,2.77v4.22a2.61,2.61,0,0,1-2.61,2.61H448.72a.6.6,0,0,1-.6-.6v-.29a.6.6,0,0,1,.6-.6Z" transform="translate(-3.75 -113.42)"/><path class="cls-74" d="M524.12,453.44a2,2,0,0,0-.8-2.08,4.74,4.74,0,0,0-2.93-.91h-384a5.21,5.21,0,0,0-3.68,1.33,2.09,2.09,0,0,0-.28,2.78l4.16,6a6.51,6.51,0,0,0,5.29,2.24H517.76c2.11,0,3.93-1,4.33-2.37Z" transform="translate(-3.75 -113.42)"/></svg>