<svg id="Layer_1" data-name="Layer 1" xmlns="http://www.w3.org/2000/svg" xmlns:xlink="http://www.w3.org/1999/xlink" viewBox="0 0 611.16 421.91"><defs><style>.cls-1{fill:url(#linear-gradient);}.cls-2{fill:#bdd0fb;}.cls-14,.cls-16,.cls-3{fill:#fff;}.cls-4{fill:url(#linear-gradient-2);}.cls-5{fill:#91b3fa;}.cls-6{fill:#7d97f4;}.cls-7{fill:url(#linear-gradient-3);}.cls-8{fill:url(#linear-gradient-4);}.cls-9{fill:url(#linear-gradient-5);}.cls-10{opacity:0.42;}.cls-11{fill:url(#linear-gradient-6);}.cls-12{fill:url(#linear-gradient-7);}.cls-13{fill:url(#linear-gradient-8);}.cls-14{opacity:0.65;}.cls-15{opacity:0.71;}.cls-16{opacity:0.47;}.cls-17{fill:url(#linear-gradient-9);}.cls-18{fill:url(#linear-gradient-10);}.cls-19{opacity:0.36;}.cls-20{fill:url(#linear-gradient-11);}.cls-21{fill:url(#linear-gradient-12);}.cls-22{fill:url(#linear-gradient-13);}.cls-23{fill:url(#linear-gradient-14);}.cls-24{fill:url(#linear-gradient-15);}.cls-25{fill:url(#linear-gradient-16);}.cls-26{fill:url(#linear-gradient-17);}.cls-27{fill:url(#linear-gradient-18);}.cls-28{fill:url(#linear-gradient-19);}.cls-29{fill:url(#linear-gradient-20);}.cls-30{fill:url(#linear-gradient-21);}.cls-31{fill:url(#linear-gradient-22);}.cls-32{fill:url(#linear-gradient-23);}.cls-33{fill:url(#linear-gradient-24);}.cls-34{fill:url(#linear-gradient-25);}.cls-35{fill:url(#linear-gradient-26);}.cls-36{fill:url(#linear-gradient-27);}.cls-37{fill:url(#linear-gradient-28);}.cls-38{fill:url(#linear-gradient-29);}.cls-39{fill:url(#linear-gradient-30);}.cls-40{fill:url(#linear-gradient-31);}.cls-41{fill:url(#linear-gradient-32);}.cls-42{fill:url(#linear-gradient-33);}.cls-43{fill:url(#linear-gradient-34);}.cls-44{fill:url(#linear-gradient-35);}.cls-45{fill:url(#linear-gradient-36);}.cls-46{fill:url(#linear-gradient-37);}.cls-47{fill:url(#linear-gradient-38);}.cls-48{fill:url(#linear-gradient-39);}.cls-49{fill:url(#linear-gradient-40);}.cls-50{fill:url(#linear-gradient-41);}.cls-51{fill:url(#linear-gradient-42);}.cls-52{fill:url(#linear-gradient-43);}.cls-53{fill:url(#linear-gradient-44);}.cls-54{fill:url(#linear-gradient-45);}.cls-55{fill:url(#linear-gradient-46);}.cls-56{fill:url(#linear-gradient-47);}.cls-57{fill:url(#linear-gradient-48);}.cls-58{fill:url(#linear-gradient-49);}.cls-59{fill:url(#linear-gradient-50);}.cls-60{fill:url(#linear-gradient-51);}.cls-61{fill:url(#linear-gradient-52);}.cls-62{fill:#4e69b5;}.cls-63{fill:url(#linear-gradient-53);}.cls-64{fill:url(#linear-gradient-54);}.cls-65{fill:url(#linear-gradient-55);}.cls-66{fill:url(#linear-gradient-56);}.cls-67{fill:url(#linear-gradient-57);}.cls-68{fill:url(#linear-gradient-58);}.cls-69{fill:url(#linear-gradient-59);}.cls-70{fill:url(#linear-gradient-60);}.cls-71{fill:url(#linear-gradient-61);}.cls-72{fill:url(#linear-gradient-62);}.cls-73{fill:url(#linear-gradient-63);}.cls-74{fill:url(#linear-gradient-64);}.cls-75{fill:url(#linear-gradient-65);}.cls-76{fill:url(#linear-gradient-66);}.cls-77{fill:url(#linear-gradient-67);}.cls-78{fill:url(#linear-gradient-68);}.cls-79{fill:url(#linear-gradient-69);}.cls-80{fill:url(#linear-gradient-70);}.cls-81{fill:url(#linear-gradient-71);}.cls-82{fill:url(#linear-gradient-72);}.cls-83{fill:url(#linear-gradient-73);}.cls-84{fill:url(#linear-gradient-74);}.cls-85{fill:#f8d6c3;}.cls-86{fill:#f9efea;}.cls-87{fill:#4F81BD;}.cls-88{fill:#f6b188;}.cls-89{opacity:0.69;}.cls-90{fill:url(#linear-gradient-75);}.cls-91{fill:url(#linear-gradient-76);}.cls-92{fill:url(#linear-gradient-77);}.cls-93{fill:url(#linear-gradient-78);}.cls-94{fill:url(#linear-gradient-79);}.cls-95{fill:#f59960;}.cls-96{fill:#da7539;}.cls-97{fill:url(#linear-gradient-80);}.cls-98{fill:url(#linear-gradient-81);}.cls-99{fill:url(#linear-gradient-82);}.cls-100{fill:url(#linear-gradient-83);}.cls-101{fill:url(#linear-gradient-84);}.cls-102{fill:url(#linear-gradient-85);}.cls-103{fill:url(#linear-gradient-86);}.cls-104{fill:url(#linear-gradient-87);}.cls-105{fill:url(#linear-gradient-88);}.cls-106{fill:url(#linear-gradient-89);}.cls-107{fill:url(#linear-gradient-90);}.cls-108{fill:url(#linear-gradient-91);}.cls-109{fill:url(#linear-gradient-92);}.cls-110{fill:url(#linear-gradient-93);}.cls-111{fill:url(#linear-gradient-94);}.cls-112{fill:url(#linear-gradient-95);}.cls-113{fill:url(#linear-gradient-96);}.cls-114{fill:url(#linear-gradient-97);}.cls-115{fill:url(#linear-gradient-98);}.cls-116{fill:url(#linear-gradient-99);}.cls-117{fill:url(#linear-gradient-100);}.cls-118{fill:url(#linear-gradient-101);}.cls-119{fill:url(#linear-gradient-102);}.cls-120{fill:url(#linear-gradient-103);}.cls-121{fill:#c06b39;}.cls-122{fill:url(#_16);}.cls-123{fill:url(#linear-gradient-104);}</style><linearGradient id="linear-gradient" x1="21.63" y1="310.63" x2="608.57" y2="310.63" gradientUnits="userSpaceOnUse"><stop offset="0" stop-color="#dae3fe"/><stop offset="1" stop-color="#e9effd"/></linearGradient><linearGradient id="linear-gradient-2" x1="48.87" y1="395.74" x2="132.73" y2="395.74" xlink:href="#linear-gradient"/><linearGradient id="linear-gradient-3" x1="648.11" y1="192.84" x2="618.27" y2="248.51" gradientUnits="userSpaceOnUse"><stop offset="0" stop-color="#09005d"/><stop offset="1" stop-color="#1a0f91"/></linearGradient><linearGradient id="linear-gradient-4" x1="586.97" y1="320.27" x2="265.08" y2="732.05" gradientUnits="userSpaceOnUse"><stop offset="0" stop-color="#4F81BD"/><stop offset="1" stop-color="#da7539"/></linearGradient><linearGradient id="linear-gradient-5" x1="549.21" y1="201.71" x2="543.62" y2="236.14" xlink:href="#linear-gradient-3"/><linearGradient id="linear-gradient-6" x1="311.79" y1="269.98" x2="314.38" y2="450.79" xlink:href="#linear-gradient-3"/><linearGradient id="linear-gradient-7" x1="331.78" y1="237.11" x2="313.7" y2="445.48" xlink:href="#linear-gradient-3"/><linearGradient id="linear-gradient-8" x1="175.65" y1="175.81" x2="579.11" y2="539.07" xlink:href="#linear-gradient-4"/><linearGradient id="linear-gradient-9" x1="333.23" y1="423.19" x2="333.23" y2="476.58" xlink:href="#linear-gradient-3"/><linearGradient id="linear-gradient-10" x1="209.12" y1="469.64" x2="259.18" y2="469.64" xlink:href="#linear-gradient"/><linearGradient id="linear-gradient-11" x1="1033.48" y1="-1007.02" x2="1121.63" y2="-1007.02" gradientTransform="matrix(0.66, 0.75, -0.75, 0.66, -895.65, 245.09)" xlink:href="#linear-gradient-3"/><linearGradient id="linear-gradient-12" x1="580.59" y1="403.63" x2="571.98" y2="521.87" xlink:href="#linear-gradient-3"/><linearGradient id="linear-gradient-13" x1="310.23" y1="534.24" x2="309.48" y2="472.3" xlink:href="#linear-gradient-3"/><linearGradient id="linear-gradient-14" x1="310.45" y1="561.44" x2="310.08" y2="517.25" xlink:href="#linear-gradient-3"/><linearGradient id="linear-gradient-15" x1="129.93" y1="515.73" x2="491.86" y2="515.73" xlink:href="#linear-gradient-3"/><linearGradient id="linear-gradient-16" x1="467.67" y1="529.5" x2="504.41" y2="273.52" gradientUnits="userSpaceOnUse"><stop offset="0" stop-color="#4042e2"/><stop offset="1" stop-color="#4f52ff"/></linearGradient><linearGradient id="linear-gradient-17" x1="448.79" y1="526.79" x2="485.52" y2="270.81" xlink:href="#linear-gradient-16"/><linearGradient id="linear-gradient-18" x1="442.92" y1="525.95" x2="479.66" y2="269.97" xlink:href="#linear-gradient-16"/><linearGradient id="linear-gradient-19" x1="398.2" y1="519.53" x2="434.94" y2="263.55" xlink:href="#linear-gradient-16"/><linearGradient id="linear-gradient-20" x1="422.54" y1="523.02" x2="459.27" y2="267.04" xlink:href="#linear-gradient-16"/><linearGradient id="linear-gradient-21" x1="347.36" y1="512.24" x2="384.09" y2="256.25" xlink:href="#linear-gradient-16"/><linearGradient id="linear-gradient-22" x1="371.07" y1="515.64" x2="407.81" y2="259.66" xlink:href="#linear-gradient-16"/><linearGradient id="linear-gradient-23" x1="394.26" y1="518.97" x2="430.99" y2="262.98" xlink:href="#linear-gradient-16"/><linearGradient id="linear-gradient-24" x1="417.65" y1="522.32" x2="454.38" y2="266.34" xlink:href="#linear-gradient-16"/><linearGradient id="linear-gradient-25" x1="349.26" y1="512.51" x2="385.99" y2="256.53" xlink:href="#linear-gradient-16"/><linearGradient id="linear-gradient-26" x1="156.56" y1="484.86" x2="193.3" y2="228.88" xlink:href="#linear-gradient-16"/><linearGradient id="linear-gradient-27" x1="186.23" y1="489.11" x2="222.96" y2="233.13" xlink:href="#linear-gradient-16"/><linearGradient id="linear-gradient-28" x1="323.62" y1="508.83" x2="360.35" y2="252.85" xlink:href="#linear-gradient-16"/><linearGradient id="linear-gradient-29" x1="474.73" y1="530.51" x2="511.47" y2="274.53" xlink:href="#linear-gradient-16"/><linearGradient id="linear-gradient-30" x1="267.89" y1="500.83" x2="304.62" y2="244.85" xlink:href="#linear-gradient-16"/><linearGradient id="linear-gradient-31" x1="297.21" y1="505.04" x2="333.94" y2="249.06" xlink:href="#linear-gradient-16"/><linearGradient id="linear-gradient-32" x1="324.41" y1="508.94" x2="361.14" y2="252.96" xlink:href="#linear-gradient-16"/><linearGradient id="linear-gradient-33" x1="240.84" y1="496.95" x2="277.57" y2="240.97" xlink:href="#linear-gradient-16"/><linearGradient id="linear-gradient-34" x1="374.04" y1="516.06" x2="410.78" y2="260.08" xlink:href="#linear-gradient-16"/><linearGradient id="linear-gradient-35" x1="213.74" y1="493.06" x2="250.48" y2="237.08" xlink:href="#linear-gradient-16"/><linearGradient id="linear-gradient-36" x1="351.27" y1="512.8" x2="388" y2="256.82" xlink:href="#linear-gradient-16"/><linearGradient id="linear-gradient-37" x1="325.29" y1="509.07" x2="362.02" y2="253.09" xlink:href="#linear-gradient-16"/><linearGradient id="linear-gradient-38" x1="377.13" y1="516.51" x2="413.86" y2="260.53" xlink:href="#linear-gradient-16"/><linearGradient id="linear-gradient-39" x1="297.48" y1="505.08" x2="334.21" y2="249.1" xlink:href="#linear-gradient-16"/><linearGradient id="linear-gradient-40" x1="427.66" y1="523.76" x2="464.39" y2="267.78" xlink:href="#linear-gradient-16"/><linearGradient id="linear-gradient-41" x1="454.89" y1="527.67" x2="491.62" y2="271.68" xlink:href="#linear-gradient-16"/><linearGradient id="linear-gradient-42" x1="480.36" y1="531.32" x2="517.09" y2="275.34" xlink:href="#linear-gradient-16"/><linearGradient id="linear-gradient-43" x1="402.31" y1="520.12" x2="439.04" y2="264.14" xlink:href="#linear-gradient-16"/><linearGradient id="linear-gradient-44" x1="243.54" y1="497.34" x2="280.28" y2="241.36" xlink:href="#linear-gradient-16"/><linearGradient id="linear-gradient-45" x1="217.7" y1="493.63" x2="254.43" y2="237.65" xlink:href="#linear-gradient-16"/><linearGradient id="linear-gradient-46" x1="191.53" y1="489.88" x2="228.27" y2="233.89" xlink:href="#linear-gradient-16"/><linearGradient id="linear-gradient-47" x1="274.77" y1="501.82" x2="311.51" y2="245.84" xlink:href="#linear-gradient-16"/><linearGradient id="linear-gradient-48" x1="269.39" y1="501.05" x2="306.12" y2="245.07" xlink:href="#linear-gradient-16"/><linearGradient id="linear-gradient-49" x1="164.15" y1="485.95" x2="200.88" y2="229.96" xlink:href="#linear-gradient-16"/><linearGradient id="linear-gradient-50" x1="209.63" y1="492.47" x2="246.37" y2="236.49" xlink:href="#linear-gradient-16"/><linearGradient id="linear-gradient-51" x1="180.77" y1="488.33" x2="217.51" y2="232.35" xlink:href="#linear-gradient-16"/><linearGradient id="linear-gradient-52" x1="150.86" y1="484.04" x2="187.59" y2="228.06" xlink:href="#linear-gradient-16"/><linearGradient id="linear-gradient-53" x1="-3370.31" y1="720.37" x2="-3364.86" y2="752.79" gradientTransform="matrix(-1, 0, 0, 1, -2972.56, 0)" xlink:href="#linear-gradient-16"/><linearGradient id="linear-gradient-54" x1="-3431.15" y1="401.2" x2="-3416.25" y2="401.2" gradientTransform="matrix(-1, 0, 0, 1, -2972.56, 0)" xlink:href="#linear-gradient-3"/><linearGradient id="linear-gradient-55" x1="-3429.74" y1="397" x2="-3425.42" y2="397" gradientTransform="matrix(-1, 0, 0, 1, -2972.56, 0)" gradientUnits="userSpaceOnUse"><stop offset="0" stop-color="#a22b25"/><stop offset="1" stop-color="#c0423c"/></linearGradient><linearGradient id="linear-gradient-56" x1="-3404.55" y1="726.13" x2="-3399.1" y2="758.55" gradientTransform="matrix(-1, 0, 0, 1, -2972.56, 0)" xlink:href="#linear-gradient-16"/><linearGradient id="linear-gradient-57" x1="-3461.68" y1="399.35" x2="-3453.05" y2="399.35" gradientTransform="matrix(-1, 0, 0, 1, -2972.56, 0)" xlink:href="#linear-gradient-3"/><linearGradient id="linear-gradient-58" x1="-3457.2" y1="393.4" x2="-3452.03" y2="393.4" xlink:href="#linear-gradient-55"/><linearGradient id="linear-gradient-59" x1="478.42" y1="340.5" x2="516.11" y2="276.6" xlink:href="#linear-gradient-16"/><linearGradient id="linear-gradient-60" x1="-3392.28" y1="285.65" x2="-3510.62" y2="388.57" gradientTransform="matrix(-1, 0, 0, 1, -2972.56, 0)" xlink:href="#linear-gradient-16"/><linearGradient id="linear-gradient-61" x1="-3439.8" y1="374.28" x2="-3437.33" y2="369.34" gradientTransform="matrix(-1, 0, 0, 1, -2972.56, 0)" gradientUnits="userSpaceOnUse"><stop offset="0" stop-color="#53d8ff"/><stop offset="1" stop-color="#3840f7"/></linearGradient><linearGradient id="linear-gradient-62" x1="-3433.55" y1="318.16" x2="-3451.92" y2="334.43" xlink:href="#linear-gradient-55"/><linearGradient id="linear-gradient-63" x1="-3402.15" y1="274.74" x2="-3519.95" y2="377.2" gradientTransform="matrix(-1, 0, 0, 1, -2972.56, 0)" xlink:href="#linear-gradient-16"/><linearGradient id="linear-gradient-64" x1="-3383.63" y1="296.03" x2="-3501.43" y2="398.49" gradientTransform="matrix(-1, 0, 0, 1, -2972.56, 0)" xlink:href="#linear-gradient-16"/><linearGradient id="linear-gradient-65" x1="-3399.1" y1="319.7" x2="-3384.63" y2="319.7" xlink:href="#linear-gradient-55"/><linearGradient id="linear-gradient-66" x1="-3413.17" y1="281.03" x2="-3413.33" y2="308.05" xlink:href="#linear-gradient-55"/><linearGradient id="linear-gradient-67" x1="-3716.81" y1="1475.87" x2="-3730.12" y2="1493.47" gradientTransform="matrix(-0.99, -0.14, -0.14, 0.99, -3035.94, -1714.84)" xlink:href="#linear-gradient-55"/><linearGradient id="linear-gradient-68" x1="-3726.97" y1="1480.11" x2="-3711.08" y2="1480.11" gradientTransform="matrix(-0.99, -0.14, -0.14, 0.99, -3035.94, -1714.84)" xlink:href="#linear-gradient-3"/><linearGradient id="linear-gradient-69" x1="-3736.3" y1="1489.8" x2="-3725.63" y2="1478.86" gradientTransform="matrix(-0.99, -0.14, -0.14, 0.99, -3035.94, -1714.84)" xlink:href="#linear-gradient-55"/><linearGradient id="linear-gradient-70" x1="-3386.17" y1="318" x2="-3380.99" y2="318" gradientTransform="matrix(-1, 0, 0, 1, -2972.56, 0)" gradientUnits="userSpaceOnUse"><stop offset="0" stop-color="#ff928e"/><stop offset="1" stop-color="#feb3b1"/></linearGradient><linearGradient id="linear-gradient-71" x1="347.46" y1="313.9" x2="491.25" y2="347.48" xlink:href="#linear-gradient-3"/><linearGradient id="linear-gradient-72" x1="-3320.75" y1="313.26" x2="-3291.96" y2="288.24" gradientTransform="matrix(-1, 0, 0, 1, -2972.56, 0)" xlink:href="#linear-gradient-3"/><linearGradient id="linear-gradient-73" x1="347.89" y1="247.29" x2="346.35" y2="270.82" gradientTransform="matrix(1, 0, 0, 1, 0, 0)" xlink:href="#linear-gradient-70"/><linearGradient id="linear-gradient-74" x1="-3426.29" y1="326.35" x2="-3444.67" y2="342.63" xlink:href="#linear-gradient-55"/><linearGradient id="linear-gradient-75" x1="120.53" y1="153.36" x2="164.15" y2="253.8" xlink:href="#linear-gradient-16"/><linearGradient id="linear-gradient-76" x1="120.06" y1="153.56" x2="163.68" y2="254" xlink:href="#linear-gradient-16"/><linearGradient id="linear-gradient-77" x1="121.38" y1="152.99" x2="165" y2="253.43" xlink:href="#linear-gradient-16"/><linearGradient id="linear-gradient-78" x1="120.99" y1="153.16" x2="164.61" y2="253.6" xlink:href="#linear-gradient-16"/><linearGradient id="linear-gradient-79" x1="119.6" y1="153.76" x2="163.22" y2="254.21" xlink:href="#linear-gradient-16"/><linearGradient id="linear-gradient-80" x1="110.75" y1="319.59" x2="192.02" y2="319.59" xlink:href="#linear-gradient"/><linearGradient id="linear-gradient-81" x1="97.34" y1="497.87" x2="115.09" y2="497.87" xlink:href="#linear-gradient-3"/><linearGradient id="linear-gradient-82" x1="97.34" y1="501.06" x2="115.09" y2="501.06" xlink:href="#linear-gradient-16"/><linearGradient id="linear-gradient-83" x1="66.15" y1="497.91" x2="74.46" y2="497.91" xlink:href="#linear-gradient-3"/><linearGradient id="linear-gradient-84" x1="66.15" y1="501.69" x2="74.21" y2="501.69" xlink:href="#linear-gradient-16"/><linearGradient id="linear-gradient-85" x1="69.66" y1="492.18" x2="75.06" y2="492.18" gradientTransform="matrix(1, 0, 0, 1, 0, 0)" xlink:href="#linear-gradient-70"/><linearGradient id="linear-gradient-86" x1="98.24" y1="491.83" x2="102.74" y2="491.83" gradientTransform="matrix(1, 0, 0, 1, 0, 0)" xlink:href="#linear-gradient-70"/><linearGradient id="linear-gradient-87" x1="121.7" y1="431.95" x2="93.58" y2="460.93" xlink:href="#linear-gradient-3"/><linearGradient id="linear-gradient-88" x1="109.42" y1="422.71" x2="91.02" y2="446.5" gradientUnits="userSpaceOnUse"><stop offset="0" stop-color="#020039"/><stop offset="1" stop-color="#090056"/></linearGradient><linearGradient id="linear-gradient-89" x1="123.22" y1="374.71" x2="30.19" y2="516.73" xlink:href="#linear-gradient-4"/><linearGradient id="linear-gradient-90" x1="168.09" y1="317.11" x2="163.5" y2="329.55" gradientTransform="matrix(1, 0, 0, 1, 0, 0)" xlink:href="#linear-gradient-70"/><linearGradient id="linear-gradient-91" x1="115.64" y1="360.93" x2="109.52" y2="383.12" gradientTransform="matrix(1, 0, 0, 1, 0, 0)" xlink:href="#linear-gradient-70"/><linearGradient id="linear-gradient-92" x1="70.21" y1="409.96" x2="125.49" y2="409.96" xlink:href="#linear-gradient"/><linearGradient id="linear-gradient-93" x1="91.4" y1="410.22" x2="121.55" y2="410.22" xlink:href="#linear-gradient"/><linearGradient id="linear-gradient-94" x1="102.9" y1="410.22" x2="110.06" y2="410.22" xlink:href="#linear-gradient"/><linearGradient id="linear-gradient-95" x1="73.88" y1="402.4" x2="89.14" y2="402.4" xlink:href="#linear-gradient"/><linearGradient id="linear-gradient-96" x1="107.94" y1="364.7" x2="14.91" y2="506.72" xlink:href="#linear-gradient-4"/><linearGradient id="linear-gradient-97" x1="104.7" y1="397.8" x2="93.22" y2="408.13" gradientTransform="matrix(1, 0, 0, 1, 0, 0)" xlink:href="#linear-gradient-70"/><linearGradient id="linear-gradient-98" x1="106.93" y1="343.12" x2="117.64" y2="364.74" gradientTransform="matrix(1, 0, 0, 1, 0, 0)" xlink:href="#linear-gradient-70"/><linearGradient id="linear-gradient-99" x1="108.75" y1="349.24" x2="121.72" y2="365.94" xlink:href="#linear-gradient-3"/><linearGradient id="linear-gradient-100" x1="102.4" y1="345.36" x2="113.11" y2="366.98" gradientTransform="matrix(1, 0, 0, 1, 0, 0)" xlink:href="#linear-gradient-70"/><linearGradient id="linear-gradient-101" x1="163.92" y1="315.57" x2="159.32" y2="328.01" gradientTransform="matrix(1, 0, 0, 1, 0, 0)" xlink:href="#linear-gradient-70"/><linearGradient id="linear-gradient-102" x1="119.47" y1="323.11" x2="175.82" y2="323.11" xlink:href="#linear-gradient"/><linearGradient id="linear-gradient-103" x1="165.52" y1="303.44" x2="180.51" y2="303.44" gradientTransform="translate(474.67 127.33) rotate(89.41)" xlink:href="#linear-gradient"/><linearGradient id="_16" x1="608.03" y1="110.19" x2="595.98" y2="149.22" gradientUnits="userSpaceOnUse"><stop offset="0" stop-color="#4042e2"/><stop offset="0.58" stop-color="#4143e4"/><stop offset="0.78" stop-color="#4447eb"/><stop offset="0.93" stop-color="#4b4df6"/><stop offset="1" stop-color="#4f52ff"/></linearGradient><linearGradient id="linear-gradient-104" x1="564.21" y1="188.02" x2="571.67" y2="279.86" xlink:href="#linear-gradient-16"/></defs><path class="cls-1" d="M141.29,133.87c-33.65,22.54-57.44,5.14-77.78,29C.06,237.35,80.47,265.57,43.12,277c-40.56,12.41-15.33,67.14,7.49,83s39.8,25.34,7.37,41.51-38.09,34.05-24.49,63.15,39.36,38.27,146.41,40,314.39-1.94,371-18.49,15.33-59.16,39.11-91,28.45-50.51-8-81.38-15.67-62.82-4.73-85.35S596.6,165,552.71,153.35s-94.91,34.85-117,11.22-12.36-55-60.56-47.07-64.42,68.95-106.45,65.59S212.63,86.1,141.29,133.87Z" transform="translate(-21.63 -116.26)"/><path class="cls-2" d="M174.56,490.41S212.67,375.07,92,251.1C92,251.1,48.11,404.45,174.56,490.41Z" transform="translate(-21.63 -116.26)"/><path class="cls-3" d="M166.62,463a.29.29,0,0,1-.25-.14c-21.48-37.29-38.66-85-49.29-118.47C105.56,308.11,99,280.31,99,280a.29.29,0,0,1,.56-.14c.06.28,6.58,28.06,18.1,64.29,10.62,33.44,27.79,81.11,49.24,118.35a.28.28,0,0,1-.11.39A.23.23,0,0,1,166.62,463Z" transform="translate(-21.63 -116.26)"/><path class="cls-2" d="M41,314S18.21,475.11,160.89,486.26C160.89,486.26,160,370.76,41,314Z" transform="translate(-21.63 -116.26)"/><path class="cls-4" d="M132.44,461.46a.28.28,0,0,1-.2-.09c-31.64-32-52.61-65.94-64.64-88.74-13-24.71-18.66-42.07-18.71-42.24a.28.28,0,0,1,.18-.36.29.29,0,0,1,.37.18c.05.17,5.66,17.5,18.68,42.17,12,22.76,32.95,56.61,64.53,88.59a.3.3,0,0,1,0,.41A.32.32,0,0,1,132.44,461.46Z" transform="translate(-21.63 -116.26)"/><path class="cls-5" d="M597.36,199.89s22.76,161.16-119.91,172.3C477.45,372.19,478.39,256.7,597.36,199.89Z" transform="translate(-21.63 -116.26)"/><path class="cls-2" d="M463.77,376.35S425.67,261,546.35,137C546.35,137,590.22,290.38,463.77,376.35Z" transform="translate(-21.63 -116.26)"/><path class="cls-6" d="M479.15,457.48c-99.46-18.11-171.62-15.1-217.55-8.23,3.06,8.67,6.12,22.23,2.77,37a601.51,601.51,0,0,0,215.32-13.63C487.76,470.58,487.34,459,479.15,457.48Z" transform="translate(-21.63 -116.26)"/><path class="cls-6" d="M261.6,449.25c-41,6.13-61.1,15.33-61.1,15.33l.44,10.27a554.2,554.2,0,0,0,63.43,11.41C267.72,471.48,264.66,457.92,261.6,449.25Z" transform="translate(-21.63 -116.26)"/><path class="cls-5" d="M119.74,467.26s28.56,24.52,54.82,23.15,28.93-13.56,28.16-24.5-10.65-26.38-29.35-22.29C147.55,449.27,136.86,467.46,119.74,467.26Z" transform="translate(-21.63 -116.26)"/><path class="cls-2" d="M172.42,485.22a60.18,60.18,0,0,1-18.15-3.15A110.66,110.66,0,0,1,130,470.6a.29.29,0,0,1,.32-.48,109.69,109.69,0,0,0,24.16,11.41c12.18,3.88,29,6,39.88-5.7a.29.29,0,0,1,.41,0,.28.28,0,0,1,0,.4c-4.9,5.29-11.38,8.28-19.23,8.89C174.51,485.19,173.48,485.22,172.42,485.22Z" transform="translate(-21.63 -116.26)"/><path class="cls-3" d="M207.9,465a.28.28,0,0,1-.27-.19.3.3,0,0,1,.18-.37c.27-.09,27.78-9.51,51.06-11.27a.28.28,0,0,1,.3.27.27.27,0,0,1-.26.3c-23.2,1.76-50.64,11.15-50.92,11.25Z" transform="translate(-21.63 -116.26)"/><path class="cls-7" d="M463.24,278.79c-.9,36.61-3.85,162.88-2.44,207.62a9,9,0,0,0,8.69,8.7c23.44.77,109.39,2.72,147.74,1.11a15.14,15.14,0,0,0,14.51-14.8c.79-38.42,2.55-146.5-1.63-196A12.34,12.34,0,0,0,619,274.17c-25.53-2.55-111.85-8.8-145-6.65A11.57,11.57,0,0,0,463.24,278.79Z" transform="translate(-21.63 -116.26)"/><path class="cls-8" d="M473.71,290c-1.27,29.55-5.25,127.84-4,164.19a10.28,10.28,0,0,0,9.67,9.92c21.85,1.28,96.4,4.1,128.45,1.53a11.56,11.56,0,0,0,10.61-10.91c1.63-30.14,6.29-121.67,5.08-157.61a11.37,11.37,0,0,0-10.35-10.93c-23.64-2.12-102.85-7.17-130.09-5.69A9.93,9.93,0,0,0,473.71,290Z" transform="translate(-21.63 -116.26)"/><path class="cls-9" d="M521.19,273.92h0a2.11,2.11,0,0,0,2,2.11c5.54.29,21.14,1.11,28.11,1.51a2.11,2.11,0,0,0,2.2-2.51l0-.23a2.11,2.11,0,0,0-1.88-1.7c-4.71-.43-18.93-1.63-28.35-1.29A2.11,2.11,0,0,0,521.19,273.92Z" transform="translate(-21.63 -116.26)"/><g class="cls-10"><polygon class="cls-3" points="504.5 262.68 547.55 264.11 544.54 233.22 504.5 232.31 504.5 262.68"/><polygon class="cls-3" points="552.69 264.28 586.3 265.4 586.56 234.17 549.68 233.33 552.69 264.28"/><path class="cls-3" d="M608.24,345.33l.27-32.72a7.46,7.46,0,0,0-7-7.49l-102.46-6.41a7.44,7.44,0,0,0-7.9,7.1l-1.65,36.82Z" transform="translate(-21.63 -116.26)"/><polygon class="cls-3" points="499.4 232.19 467.66 231.47 466.32 261.41 499.4 262.51 499.4 232.19"/><path class="cls-3" d="M487.73,382.76,485,444.43a7.46,7.46,0,0,0,7.25,7.78l107.54,2.73a7.44,7.44,0,0,0,7.63-7.39l.5-60.79Z" transform="translate(-21.63 -116.26)"/></g><polygon class="cls-11" points="273.57 292.05 265.33 366.01 361 366.01 348.54 292.05 273.57 292.05"/><path class="cls-12" d="M134.49,226.09V395.48a25.69,25.69,0,0,0,25,25.68c61.87,1.6,278.26,5.47,337.15,4.6a18.92,18.92,0,0,0,18.62-18.37c1.13-39.35,3-134-3.85-177.91A19.46,19.46,0,0,0,492.84,213c-51.84-1.65-281.22-6.92-340.09-5.6A18.68,18.68,0,0,0,134.49,226.09Z" transform="translate(-21.63 -116.26)"/><path class="cls-13" d="M145.12,225.26V386.19a14.89,14.89,0,0,0,14.66,14.89l328.42,4.06a14.49,14.49,0,0,0,14.7-14.44l.55-159.49a10.58,10.58,0,0,0-10.33-10.63l-336.24-6.79A11.47,11.47,0,0,0,145.12,225.26Z" transform="translate(-21.63 -116.26)"/><path class="cls-14" d="M505.38,411.56h0l-360.26-6.13a.3.3,0,0,1-.28-.3.29.29,0,0,1,.29-.28L505.38,411a.28.28,0,0,1,.28.29A.28.28,0,0,1,505.38,411.56Z" transform="translate(-21.63 -116.26)"/><path class="cls-14" d="M328.8,419.06a4,4,0,1,1,4-4A4,4,0,0,1,328.8,419.06Zm0-7.5a3.47,3.47,0,1,0,3.46,3.47A3.47,3.47,0,0,0,328.8,411.56Z" transform="translate(-21.63 -116.26)"/><g class="cls-15"><path class="cls-16" d="M251,387.64H176.1a6.68,6.68,0,0,1-6.68-6.69V283.26a6.69,6.69,0,0,1,6.68-6.69h80.42a6.68,6.68,0,0,1,6.67,7.06l-5.49,97.7A6.69,6.69,0,0,1,251,387.64Z" transform="translate(-21.63 -116.26)"/><path class="cls-3" d="M251,382.55h-1.74a.58.58,0,0,1,0-1.15H251a.46.46,0,0,0,.4-.25.57.57,0,0,1,.77-.26.58.58,0,0,1,.26.77A1.58,1.58,0,0,1,251,382.55Zm-4.61,0h-2.87a.58.58,0,0,1,0-1.15h2.87a.58.58,0,1,1,0,1.15Zm-5.73,0h-2.87a.58.58,0,1,1,0-1.15h2.87a.58.58,0,0,1,0,1.15Zm-5.74,0h-2.87a.58.58,0,1,1,0-1.15H235a.58.58,0,0,1,0,1.15Zm-5.74,0h-2.87a.58.58,0,1,1,0-1.15h2.87a.58.58,0,0,1,0,1.15Zm-5.74,0H220.6a.58.58,0,1,1,0-1.15h2.87a.58.58,0,0,1,0,1.15Zm-5.74,0h-2.87a.58.58,0,1,1,0-1.15h2.87a.58.58,0,0,1,0,1.15Zm-5.74,0h-2.87a.58.58,0,1,1,0-1.15H212a.58.58,0,0,1,0,1.15Zm-5.74,0h-2.87a.58.58,0,1,1,0-1.15h2.87a.58.58,0,0,1,0,1.15Zm-5.74,0h-2.87a.58.58,0,0,1,0-1.15h2.87a.58.58,0,0,1,0,1.15Zm-5.74,0H191.9a.58.58,0,0,1,0-1.15h2.87a.58.58,0,0,1,0,1.15Zm-5.74,0h-2.87a.58.58,0,0,1,0-1.15H189a.58.58,0,0,1,0,1.15Zm-5.74,0h-2.87a.58.58,0,0,1,0-1.15h2.87a.58.58,0,0,1,0,1.15Zm-5.74,0H176.1a1.6,1.6,0,0,1-1.59-1.6v-1.26a.57.57,0,1,1,1.14,0V381a.45.45,0,0,0,.45.45h1.45a.58.58,0,0,1,0,1.15Zm74.63-3.42h0a.57.57,0,0,1-.54-.61l.16-2.87a.59.59,0,0,1,.61-.54.58.58,0,0,1,.54.61l-.16,2.86A.58.58,0,0,1,252.18,379.13Zm-77.1-1.74a.57.57,0,0,1-.57-.57V374a.57.57,0,1,1,1.14,0v2.87A.57.57,0,0,1,175.08,377.39Zm77.43-4h0a.58.58,0,0,1-.54-.61l.16-2.87a.59.59,0,0,1,.61-.54.57.57,0,0,1,.54.61l-.16,2.86A.58.58,0,0,1,252.51,373.4Zm-77.43-1.75a.57.57,0,0,1-.57-.57v-2.87a.57.57,0,1,1,1.14,0v2.87A.57.57,0,0,1,175.08,371.65Zm77.75-4h0a.57.57,0,0,1-.55-.6l.17-2.87a.57.57,0,1,1,1.14.07l-.16,2.86A.58.58,0,0,1,252.83,367.67Zm-77.75-1.76a.57.57,0,0,1-.57-.57v-2.87a.57.57,0,1,1,1.14,0v2.87A.57.57,0,0,1,175.08,365.91Zm78.07-4h0a.56.56,0,0,1-.54-.6l.16-2.87a.57.57,0,1,1,1.14.07l-.16,2.86A.56.56,0,0,1,253.15,361.93Zm-78.07-1.76a.57.57,0,0,1-.57-.57v-2.87a.57.57,0,1,1,1.14,0v2.87A.57.57,0,0,1,175.08,360.17Zm78.39-4h0a.56.56,0,0,1-.54-.6l.16-2.87a.58.58,0,0,1,1.15.07l-.17,2.86A.56.56,0,0,1,253.47,356.2Zm-78.39-1.77a.56.56,0,0,1-.57-.57V351a.57.57,0,1,1,1.14,0v2.87A.56.56,0,0,1,175.08,354.43Zm78.71-4h0a.56.56,0,0,1-.54-.6l.16-2.87a.59.59,0,0,1,.61-.54.58.58,0,0,1,.54.61l-.16,2.86A.57.57,0,0,1,253.79,350.47Zm-78.71-1.78a.56.56,0,0,1-.57-.57v-2.87a.57.57,0,1,1,1.14,0v2.87A.56.56,0,0,1,175.08,348.69Zm79-3.95h0a.58.58,0,0,1-.54-.6l.16-2.87a.59.59,0,0,1,.61-.54.57.57,0,0,1,.54.61l-.16,2.86A.57.57,0,0,1,254.12,344.74Zm-79-1.79a.56.56,0,0,1-.57-.57v-2.87a.57.57,0,0,1,1.14,0v2.87A.56.56,0,0,1,175.08,343ZM254.44,339h0a.59.59,0,0,1-.55-.6l.17-2.87a.57.57,0,1,1,1.14.07l-.16,2.86A.57.57,0,0,1,254.44,339Zm-79.36-1.8a.56.56,0,0,1-.57-.57v-2.87a.57.57,0,0,1,1.14,0v2.87A.56.56,0,0,1,175.08,337.21Zm79.68-3.93h0a.57.57,0,0,1-.54-.6l.16-2.87a.57.57,0,1,1,1.14.07l-.16,2.86A.56.56,0,0,1,254.76,333.28Zm-79.68-1.81a.56.56,0,0,1-.57-.57V328a.57.57,0,0,1,1.14,0v2.87A.56.56,0,0,1,175.08,331.47Zm80-3.92h0a.57.57,0,0,1-.54-.6l.16-2.87a.57.57,0,0,1,.61-.54.59.59,0,0,1,.54.61l-.16,2.86A.58.58,0,0,1,255.08,327.55Zm-80-1.82a.56.56,0,0,1-.57-.57v-2.87a.57.57,0,0,1,1.14,0v2.87A.56.56,0,0,1,175.08,325.73Zm80.32-3.91h0a.58.58,0,0,1-.54-.6l.16-2.87a.58.58,0,0,1,1.15.06l-.16,2.87A.57.57,0,0,1,255.4,321.82ZM175.08,320a.57.57,0,0,1-.57-.58v-2.87a.57.57,0,0,1,1.14,0v2.87A.57.57,0,0,1,175.08,320Zm80.65-3.91h0a.58.58,0,0,1-.54-.6l.16-2.87a.58.58,0,0,1,.61-.54.57.57,0,0,1,.54.6l-.16,2.87A.57.57,0,0,1,255.73,316.09Zm-80.65-1.83a.57.57,0,0,1-.57-.58v-2.87a.57.57,0,0,1,1.14,0v2.87A.57.57,0,0,1,175.08,314.26Zm81-3.9h0a.57.57,0,0,1-.54-.61l.16-2.86a.56.56,0,0,1,.6-.54.57.57,0,0,1,.54.6l-.16,2.87A.58.58,0,0,1,256.05,310.36Zm-81-1.84a.57.57,0,0,1-.57-.58v-2.87a.57.57,0,0,1,1.14,0v2.87A.57.57,0,0,1,175.08,308.52Zm81.29-3.89h0a.57.57,0,0,1-.54-.61l.16-2.86a.57.57,0,0,1,1.14.06l-.16,2.87A.57.57,0,0,1,256.37,304.63Zm-81.29-1.85a.57.57,0,0,1-.57-.58v-2.87a.57.57,0,0,1,1.14,0v2.87A.57.57,0,0,1,175.08,302.78Zm81.61-3.88h0a.57.57,0,0,1-.54-.61l.16-2.86a.58.58,0,0,1,1.15.06l-.16,2.87A.58.58,0,0,1,256.69,298.9ZM175.08,297a.57.57,0,0,1-.57-.58v-2.87a.57.57,0,0,1,1.14,0v2.87A.57.57,0,0,1,175.08,297ZM257,293.17h0a.58.58,0,0,1-.54-.61l.16-2.86a.58.58,0,0,1,1.15.06l-.16,2.87A.58.58,0,0,1,257,293.17Zm-81.94-1.87a.57.57,0,0,1-.57-.58v-2.87a.57.57,0,0,1,1.14,0v2.87A.57.57,0,0,1,175.08,291.3Zm82.26-3.86h0a.59.59,0,0,1-.54-.61l.16-2.86a.58.58,0,0,1,.61-.54.56.56,0,0,1,.54.6l-.16,2.87A.58.58,0,0,1,257.34,287.44Zm-82.26-1.88a.57.57,0,0,1-.57-.58v-1.72a1.61,1.61,0,0,1,.9-1.44.56.56,0,0,1,.76.27.58.58,0,0,1-.26.77.44.44,0,0,0-.26.4V285A.57.57,0,0,1,175.08,285.56ZM256,282.81h-2.87a.57.57,0,0,1-.57-.57.58.58,0,0,1,.57-.58H256a.58.58,0,0,1,.58.58A.57.57,0,0,1,256,282.81Zm-5.73,0h-2.87a.57.57,0,0,1-.58-.57.58.58,0,0,1,.58-.58h2.87a.58.58,0,0,1,.57.58A.57.57,0,0,1,250.26,282.81Zm-5.74,0h-2.87a.57.57,0,0,1-.58-.57.58.58,0,0,1,.58-.58h2.87a.58.58,0,0,1,.57.58A.57.57,0,0,1,244.52,282.81Zm-5.74,0h-2.87a.57.57,0,0,1-.58-.57.58.58,0,0,1,.58-.58h2.87a.58.58,0,0,1,.57.58A.57.57,0,0,1,238.78,282.81Zm-5.74,0h-2.87a.57.57,0,0,1-.58-.57.58.58,0,0,1,.58-.58H233a.58.58,0,0,1,.57.58A.57.57,0,0,1,233,282.81Zm-5.74,0h-2.87a.57.57,0,0,1-.58-.57.58.58,0,0,1,.58-.58h2.87a.58.58,0,0,1,.57.58A.57.57,0,0,1,227.3,282.81Zm-5.74,0h-2.87a.57.57,0,0,1-.58-.57.58.58,0,0,1,.58-.58h2.87a.58.58,0,0,1,.57.58A.57.57,0,0,1,221.56,282.81Zm-5.74,0H213a.57.57,0,0,1-.58-.57.58.58,0,0,1,.58-.58h2.87a.57.57,0,0,1,.57.58A.56.56,0,0,1,215.82,282.81Zm-5.74,0h-2.87a.56.56,0,0,1-.57-.57.57.57,0,0,1,.57-.58h2.87a.57.57,0,0,1,.57.58A.56.56,0,0,1,210.08,282.81Zm-5.74,0h-2.87a.56.56,0,0,1-.57-.57.57.57,0,0,1,.57-.58h2.87a.57.57,0,0,1,.57.58A.56.56,0,0,1,204.34,282.81Zm-5.74,0h-2.87a.56.56,0,0,1-.57-.57.57.57,0,0,1,.57-.58h2.87a.57.57,0,0,1,.57.58A.56.56,0,0,1,198.6,282.81Zm-5.74,0H190a.56.56,0,0,1-.57-.57.57.57,0,0,1,.57-.58h2.87a.57.57,0,0,1,.57.58A.56.56,0,0,1,192.86,282.81Zm-5.74,0h-2.87a.56.56,0,0,1-.57-.57.57.57,0,0,1,.57-.58h2.87a.57.57,0,0,1,.57.58A.56.56,0,0,1,187.12,282.81Zm-5.74,0h-2.87a.56.56,0,0,1-.57-.57.57.57,0,0,1,.57-.58h2.87a.58.58,0,0,1,.58.58A.57.57,0,0,1,181.38,282.81Z" transform="translate(-21.63 -116.26)"/><path class="cls-3" d="M364.93,388.21h-2.86a.57.57,0,0,1-.58-.57.58.58,0,0,1,.58-.58h2.86a6.17,6.17,0,0,0,2.45-.5.56.56,0,0,1,.75.29.58.58,0,0,1-.29.76A7.26,7.26,0,0,1,364.93,388.21Zm-5.73,0h-2.87a.57.57,0,0,1-.58-.57.58.58,0,0,1,.58-.58h2.87a.58.58,0,0,1,.57.58A.57.57,0,0,1,359.2,388.21Zm-5.74,0h-2.87a.57.57,0,0,1-.58-.57.58.58,0,0,1,.58-.58h2.87a.58.58,0,0,1,.57.58A.57.57,0,0,1,353.46,388.21Zm-5.74,0h-2.87a.57.57,0,0,1-.58-.57.58.58,0,0,1,.58-.58h2.87a.58.58,0,0,1,.57.58A.57.57,0,0,1,347.72,388.21Zm-5.74,0h-2.87a.57.57,0,0,1-.58-.57.58.58,0,0,1,.58-.58H342a.58.58,0,0,1,.57.58A.57.57,0,0,1,342,388.21Zm-5.74,0h-2.87a.57.57,0,0,1-.58-.57.58.58,0,0,1,.58-.58h2.87a.58.58,0,0,1,.57.58A.57.57,0,0,1,336.24,388.21Zm-5.74,0h-2.87a.57.57,0,0,1-.58-.57.58.58,0,0,1,.58-.58h2.87a.58.58,0,0,1,.57.58A.57.57,0,0,1,330.5,388.21Zm-5.74,0h-2.87a.57.57,0,0,1-.58-.57.58.58,0,0,1,.58-.58h2.87a.57.57,0,0,1,.57.58A.56.56,0,0,1,324.76,388.21Zm-5.74,0h-2.87a.56.56,0,0,1-.57-.57.57.57,0,0,1,.57-.58H319a.57.57,0,0,1,.57.58A.56.56,0,0,1,319,388.21Zm-5.74,0h-2.87a.56.56,0,0,1-.57-.57.57.57,0,0,1,.57-.58h2.87a.57.57,0,0,1,.57.58A.56.56,0,0,1,313.28,388.21Zm-5.74,0h-2.87a.56.56,0,0,1-.57-.57.57.57,0,0,1,.57-.58h2.87a.57.57,0,0,1,.57.58A.56.56,0,0,1,307.54,388.21Zm-5.74,0h-2.87a.56.56,0,0,1-.57-.57.57.57,0,0,1,.57-.58h2.87a.57.57,0,0,1,.57.58A.56.56,0,0,1,301.8,388.21Zm-5.74,0h-2.87a.56.56,0,0,1-.57-.57.57.57,0,0,1,.57-.58h2.87a.57.57,0,0,1,.57.58A.56.56,0,0,1,296.06,388.21Zm-5.74,0h-2.87a.56.56,0,0,1-.57-.57.57.57,0,0,1,.57-.58h2.87a.58.58,0,0,1,.58.58A.57.57,0,0,1,290.32,388.21Zm-5.74,0h-2.87a.57.57,0,0,1-.57-.57.58.58,0,0,1,.57-.58h2.87a.58.58,0,0,1,.58.58A.57.57,0,0,1,284.58,388.21Zm-5.74,0h-.14a7.27,7.27,0,0,1-2.88-.59.57.57,0,1,1,.46-1.05,6,6,0,0,0,2.42.49h.14a.58.58,0,0,1,.58.58A.57.57,0,0,1,278.84,388.21Zm-5.11-2.2a.59.59,0,0,1-.42-.19,7.28,7.28,0,0,1-1.54-2.68.58.58,0,0,1,1.1-.35,6.08,6.08,0,0,0,1.29,2.26.58.58,0,0,1-.43,1Zm96.18,0a.57.57,0,0,1-.38-.15.58.58,0,0,1,0-.81,6.05,6.05,0,0,0,1.28-2.26.58.58,0,0,1,1.1.34,7.52,7.52,0,0,1-1.53,2.69A.59.59,0,0,1,369.91,386Zm-97.86-5.29h0a.58.58,0,0,1-.54-.6l.16-2.87a.58.58,0,0,1,.61-.54.57.57,0,0,1,.54.6l-.16,2.87A.57.57,0,0,1,272.05,380.7Zm99.53,0a.57.57,0,0,1-.57-.53l-.18-2.87a.57.57,0,0,1,.54-.61.58.58,0,0,1,.61.54l.17,2.87a.57.57,0,0,1-.53.6ZM272.37,375h0a.59.59,0,0,1-.55-.6l.17-2.87a.56.56,0,0,1,.6-.54.57.57,0,0,1,.54.6l-.16,2.87A.57.57,0,0,1,272.37,375Zm98.86,0a.58.58,0,0,1-.57-.54l-.18-2.87a.59.59,0,0,1,.54-.61.58.58,0,0,1,.61.54l.17,2.87a.56.56,0,0,1-.53.6Zm-98.54-5.71h0a.57.57,0,0,1-.54-.61l.16-2.86a.57.57,0,1,1,1.14.06l-.16,2.87A.57.57,0,0,1,272.69,369.24Zm98.19,0a.58.58,0,0,1-.57-.54l-.18-2.87a.58.58,0,0,1,.54-.6.57.57,0,0,1,.61.53l.17,2.87a.58.58,0,0,1-.53.61ZM273,363.51h0a.57.57,0,0,1-.54-.61l.16-2.86a.57.57,0,0,1,.61-.54.58.58,0,0,1,.54.6l-.16,2.87A.59.59,0,0,1,273,363.51Zm97.52,0A.58.58,0,0,1,370,363l-.18-2.87a.58.58,0,0,1,.54-.6.57.57,0,0,1,.61.53l.18,2.87a.59.59,0,0,1-.54.61Zm-97.2-5.71h0a.58.58,0,0,1-.54-.61l.16-2.86a.58.58,0,0,1,1.15.06l-.16,2.87A.58.58,0,0,1,273.33,357.78Zm96.85,0a.58.58,0,0,1-.57-.54l-.17-2.86a.57.57,0,1,1,1.14-.07l.18,2.86a.58.58,0,0,1-.54.61Zm-96.52-5.71h0a.59.59,0,0,1-.54-.61l.16-2.86a.58.58,0,0,1,.61-.54.57.57,0,0,1,.54.6l-.16,2.87A.58.58,0,0,1,273.66,352.05Zm96.17,0a.57.57,0,0,1-.57-.54l-.17-2.86a.57.57,0,1,1,1.14-.07l.18,2.86a.58.58,0,0,1-.54.61ZM274,346.32h0a.57.57,0,0,1-.54-.61l.16-2.86a.57.57,0,0,1,1.14.06l-.16,2.87A.58.58,0,0,1,274,346.32Zm95.5,0a.57.57,0,0,1-.57-.54l-.17-2.86a.57.57,0,1,1,1.14-.07l.18,2.86a.57.57,0,0,1-.54.61Zm-95.18-5.71h0a.57.57,0,0,1-.54-.61l.16-2.86a.57.57,0,0,1,.6-.54.56.56,0,0,1,.54.6l-.16,2.87A.57.57,0,0,1,274.3,340.59Zm94.83,0a.57.57,0,0,1-.57-.54l-.17-2.86a.57.57,0,1,1,1.14-.07l.18,2.86a.57.57,0,0,1-.54.61Zm-94.51-5.71h0a.57.57,0,0,1-.54-.61l.16-2.86a.58.58,0,0,1,.61-.54.57.57,0,0,1,.54.6l-.16,2.87A.58.58,0,0,1,274.62,334.86Zm94.16,0a.57.57,0,0,1-.57-.54l-.17-2.86a.57.57,0,0,1,.54-.61.56.56,0,0,1,.6.54l.18,2.87a.57.57,0,0,1-.54.6ZM275,329.13h0a.58.58,0,0,1-.54-.61l.16-2.86a.58.58,0,0,1,.61-.54.56.56,0,0,1,.54.6l-.16,2.87A.58.58,0,0,1,275,329.13Zm93.48,0a.57.57,0,0,1-.57-.53l-.17-2.87a.58.58,0,0,1,.54-.61.57.57,0,0,1,.6.54l.18,2.87a.57.57,0,0,1-.54.6Zm-93.16-5.71h0a.59.59,0,0,1-.54-.61l.16-2.86a.58.58,0,0,1,.61-.54.56.56,0,0,1,.54.6l-.16,2.87A.58.58,0,0,1,275.27,323.4Zm92.82,0a.58.58,0,0,1-.58-.54l-.17-2.87a.58.58,0,0,1,.54-.61.56.56,0,0,1,.6.54l.18,2.87a.58.58,0,0,1-.54.61Zm-92.5-5.72h0a.57.57,0,0,1-.54-.61l.16-2.86a.58.58,0,0,1,.6-.55.57.57,0,0,1,.54.61l-.16,2.87A.58.58,0,0,1,275.59,317.67Zm92.15,0a.59.59,0,0,1-.58-.54l-.17-2.87a.57.57,0,0,1,.54-.6.55.55,0,0,1,.6.53l.18,2.87a.58.58,0,0,1-.54.61Zm-91.83-5.72h0a.57.57,0,0,1-.54-.61l.16-2.86a.59.59,0,0,1,.6-.55.57.57,0,0,1,.54.61l-.16,2.86A.57.57,0,0,1,275.91,311.94Zm91.48,0a.59.59,0,0,1-.58-.54l-.17-2.87a.58.58,0,0,1,1.15-.06l.17,2.86a.57.57,0,0,1-.54.61Zm-91.16-5.72h0a.57.57,0,0,1-.54-.61l.16-2.87a.58.58,0,0,1,1.15.07l-.16,2.86A.58.58,0,0,1,276.23,306.21Zm90.81,0a.58.58,0,0,1-.58-.54l-.17-2.86a.58.58,0,0,1,1.15-.07l.17,2.86a.57.57,0,0,1-.54.61Zm-90.48-5.72h0a.56.56,0,0,1-.54-.6l.16-2.87a.59.59,0,0,1,.61-.54.58.58,0,0,1,.54.61l-.16,2.86A.58.58,0,0,1,276.56,300.48Zm90.13,0a.56.56,0,0,1-.57-.54l-.18-2.86a.58.58,0,1,1,1.15-.07l.17,2.86a.57.57,0,0,1-.54.61Zm-89.81-5.72h0a.57.57,0,0,1-.54-.6l.16-2.87a.59.59,0,0,1,.61-.54.57.57,0,0,1,.54.61l-.16,2.86A.58.58,0,0,1,276.88,294.75Zm89.46,0a.56.56,0,0,1-.57-.54l-.18-2.86a.58.58,0,0,1,1.15-.07l.17,2.86a.57.57,0,0,1-.54.61ZM277.2,289h0a.56.56,0,0,1-.54-.6l.16-2.87a.57.57,0,1,1,1.14.07l-.16,2.86A.57.57,0,0,1,277.2,289ZM366,289a.56.56,0,0,1-.57-.54l-.18-2.86a.58.58,0,0,1,1.15-.07l.17,2.86a.57.57,0,0,1-.54.61Zm-.35-5.73a.56.56,0,0,1-.57-.52,6.18,6.18,0,0,0-.76-2.49.57.57,0,1,1,1-.56,7.25,7.25,0,0,1,.9,3,.57.57,0,0,1-.52.62Zm-88.12,0h0a.57.57,0,0,1-.53-.62,7.25,7.25,0,0,1,.9-3,.58.58,0,0,1,1,.56,5.88,5.88,0,0,0-.76,2.49A.58.58,0,0,1,277.52,283.28Zm85.4-4.85a.53.53,0,0,1-.34-.11,6.21,6.21,0,0,0-2.38-1.05.58.58,0,0,1,.23-1.13,7.09,7.09,0,0,1,2.83,1.26.57.57,0,0,1,.12.8A.58.58,0,0,1,362.92,278.43Zm-82.67,0a.57.57,0,0,1-.34-1,7.23,7.23,0,0,1,2.82-1.25.58.58,0,0,1,.23,1.13,6.06,6.06,0,0,0-2.38,1.05A.52.52,0,0,1,280.25,278.43Zm77.2-1.28h-2.87a.58.58,0,0,1,0-1.15h2.87a.58.58,0,1,1,0,1.15Zm-5.74,0h-2.87a.58.58,0,0,1,0-1.15h2.87a.58.58,0,1,1,0,1.15Zm-5.74,0H343.1a.58.58,0,0,1,0-1.15H346a.58.58,0,1,1,0,1.15Zm-5.74,0h-2.87a.58.58,0,0,1,0-1.15h2.87a.58.58,0,1,1,0,1.15Zm-5.74,0h-2.86a.58.58,0,1,1,0-1.15h2.86a.58.58,0,1,1,0,1.15Zm-5.73,0h-2.87a.58.58,0,1,1,0-1.15h2.87a.58.58,0,0,1,0,1.15Zm-5.74,0h-2.87a.58.58,0,1,1,0-1.15H323a.58.58,0,0,1,0,1.15Zm-5.74,0h-2.87a.58.58,0,1,1,0-1.15h2.87a.58.58,0,0,1,0,1.15Zm-5.74,0h-2.87a.58.58,0,1,1,0-1.15h2.87a.58.58,0,0,1,0,1.15Zm-5.74,0h-2.87a.58.58,0,1,1,0-1.15h2.87a.58.58,0,0,1,0,1.15Zm-5.74,0h-2.87a.58.58,0,1,1,0-1.15h2.87a.58.58,0,0,1,0,1.15Zm-5.74,0h-2.87a.58.58,0,1,1,0-1.15h2.87a.58.58,0,0,1,0,1.15Zm-5.74,0h-2.87a.58.58,0,0,1,0-1.15h2.87a.58.58,0,0,1,0,1.15Z" transform="translate(-21.63 -116.26)"/><path class="cls-3" d="M473.81,388.21h-2.87a.57.57,0,0,1-.58-.57.58.58,0,0,1,.58-.58h2.87a.58.58,0,0,1,.57.58A.57.57,0,0,1,473.81,388.21Zm-5.74,0H465.2a.57.57,0,0,1-.58-.57.58.58,0,0,1,.58-.58h2.87a.58.58,0,0,1,.57.58A.57.57,0,0,1,468.07,388.21Zm-5.74,0h-2.87a.57.57,0,0,1-.58-.57.58.58,0,0,1,.58-.58h2.87a.58.58,0,0,1,.57.58A.57.57,0,0,1,462.33,388.21Zm-5.74,0h-2.87a.57.57,0,0,1-.58-.57.58.58,0,0,1,.58-.58h2.87a.58.58,0,0,1,.57.58A.57.57,0,0,1,456.59,388.21Zm-5.74,0H448a.57.57,0,0,1-.58-.57.58.58,0,0,1,.58-.58h2.87a.58.58,0,0,1,.57.58A.57.57,0,0,1,450.85,388.21Zm-5.74,0h-2.87a.57.57,0,0,1-.58-.57.58.58,0,0,1,.58-.58h2.87a.57.57,0,0,1,.57.58A.56.56,0,0,1,445.11,388.21Zm-5.74,0H436.5a.56.56,0,0,1-.57-.57.57.57,0,0,1,.57-.58h2.87a.57.57,0,0,1,.57.58A.56.56,0,0,1,439.37,388.21Zm-5.74,0h-2.87a.56.56,0,0,1-.57-.57.57.57,0,0,1,.57-.58h2.87a.57.57,0,0,1,.57.58A.56.56,0,0,1,433.63,388.21Zm-5.74,0H425a.56.56,0,0,1-.57-.57.57.57,0,0,1,.57-.58h2.87a.57.57,0,0,1,.57.58A.56.56,0,0,1,427.89,388.21Zm-5.74,0h-2.87a.56.56,0,0,1-.57-.57.57.57,0,0,1,.57-.58h2.87a.57.57,0,0,1,.57.58A.56.56,0,0,1,422.15,388.21Zm-5.74,0h-2.87a.56.56,0,0,1-.57-.57.57.57,0,0,1,.57-.58h2.87a.57.57,0,0,1,.57.58A.56.56,0,0,1,416.41,388.21Zm-5.74,0H407.8a.56.56,0,0,1-.57-.57.57.57,0,0,1,.57-.58h2.87a.58.58,0,0,1,.58.58A.57.57,0,0,1,410.67,388.21Zm-5.74,0h-2.87a.57.57,0,0,1-.57-.57.58.58,0,0,1,.57-.58h2.87a.58.58,0,0,1,.58.58A.57.57,0,0,1,404.93,388.21Zm-5.74,0h-2.87a.57.57,0,0,1-.57-.57.58.58,0,0,1,.57-.58h2.87a.58.58,0,0,1,.58.58A.57.57,0,0,1,399.19,388.21Zm-5.74,0h-.84a7.23,7.23,0,0,1-2.17-.33.57.57,0,0,1,.34-1.09,6.29,6.29,0,0,0,1.83.27h.84a.58.58,0,0,1,.58.58A.57.57,0,0,1,393.45,388.21Zm81.66-.13a.56.56,0,0,1-.56-.46A.57.57,0,0,1,475,387a6,6,0,0,0,2.39-1,.57.57,0,0,1,.8.13.58.58,0,0,1-.13.8,7.21,7.21,0,0,1-2.84,1.23Zm-87-1.58a.55.55,0,0,1-.38-.15,7.33,7.33,0,0,1-1.81-2.5.57.57,0,1,1,1.05-.46,6.13,6.13,0,0,0,1.52,2.11.57.57,0,0,1-.38,1Zm91.48-1.67a.6.6,0,0,1-.28-.08.58.58,0,0,1-.22-.78,5.94,5.94,0,0,0,.77-2.49.58.58,0,0,1,1.15.1,7.21,7.21,0,0,1-.92,3A.58.58,0,0,1,479.62,384.83ZM385.9,381.4a.57.57,0,0,1-.57-.54l-.18-2.86a.58.58,0,0,1,.54-.61.57.57,0,0,1,.61.54l.17,2.86a.57.57,0,0,1-.53.61Zm94.59-2.16a.57.57,0,0,1-.57-.58v-2.87a.57.57,0,0,1,.57-.57.58.58,0,0,1,.58.57v2.87A.58.58,0,0,1,480.49,379.24Zm-94.94-3.57a.57.57,0,0,1-.57-.54l-.18-2.86a.58.58,0,0,1,.54-.61.57.57,0,0,1,.61.54l.17,2.86a.57.57,0,0,1-.53.61Zm94.94-2.17a.57.57,0,0,1-.57-.58v-2.87a.57.57,0,0,1,.57-.57.58.58,0,0,1,.58.57v2.87A.58.58,0,0,1,480.49,373.5Zm-95.29-3.56a.57.57,0,0,1-.57-.54l-.18-2.86a.59.59,0,0,1,.54-.61.57.57,0,0,1,.61.54l.18,2.86a.59.59,0,0,1-.54.61Zm95.29-2.18a.57.57,0,0,1-.57-.58v-2.87a.57.57,0,0,1,.57-.57.58.58,0,0,1,.58.57v2.87A.58.58,0,0,1,480.49,367.76Zm-95.64-3.55a.57.57,0,0,1-.57-.54l-.17-2.86a.57.57,0,1,1,1.14-.07l.18,2.86a.58.58,0,0,1-.54.61ZM480.49,362a.57.57,0,0,1-.57-.57v-2.87a.57.57,0,0,1,.57-.58.58.58,0,0,1,.58.58v2.87A.58.58,0,0,1,480.49,362Zm-96-3.54a.57.57,0,0,1-.57-.53l-.17-2.87a.57.57,0,1,1,1.14-.07l.18,2.87a.57.57,0,0,1-.54.6Zm96-2.2a.57.57,0,0,1-.57-.57v-2.87a.57.57,0,0,1,.57-.58.58.58,0,0,1,.58.58v2.87A.58.58,0,0,1,480.49,356.28Zm-96.34-3.52a.58.58,0,0,1-.57-.54l-.17-2.87a.57.57,0,1,1,1.14-.07l.18,2.87a.56.56,0,0,1-.54.6Zm96.34-2.22a.57.57,0,0,1-.57-.57V347.1a.57.57,0,0,1,.57-.58.58.58,0,0,1,.58.58V350A.58.58,0,0,1,480.49,350.54ZM383.8,347a.58.58,0,0,1-.57-.54l-.17-2.87a.56.56,0,0,1,.54-.6.56.56,0,0,1,.6.53l.18,2.87a.58.58,0,0,1-.54.61Zm96.69-2.23a.57.57,0,0,1-.57-.57v-2.87a.57.57,0,0,1,.57-.58.58.58,0,0,1,.58.58v2.87A.58.58,0,0,1,480.49,344.8Zm-97-3.5a.58.58,0,0,1-.57-.54l-.17-2.87a.57.57,0,0,1,.54-.6.56.56,0,0,1,.6.53l.18,2.87a.57.57,0,0,1-.54.61Zm97-2.24a.57.57,0,0,1-.57-.57v-2.87a.57.57,0,0,1,.57-.58.58.58,0,0,1,.58.58v2.87A.58.58,0,0,1,480.49,339.06Zm-97.38-3.49a.58.58,0,0,1-.58-.54l-.17-2.86a.57.57,0,0,1,.54-.61.56.56,0,0,1,.6.54l.18,2.86a.57.57,0,0,1-.54.61Zm97.38-2.25a.57.57,0,0,1-.57-.57v-2.87a.57.57,0,0,1,.57-.58.58.58,0,0,1,.58.58v2.87A.58.58,0,0,1,480.49,333.32Zm-97.73-3.48a.57.57,0,0,1-.58-.54l-.17-2.86a.57.57,0,0,1,.54-.61.56.56,0,0,1,.6.54l.18,2.86a.57.57,0,0,1-.54.61Zm97.73-2.26a.56.56,0,0,1-.57-.57v-2.87a.57.57,0,0,1,.57-.58.58.58,0,0,1,.58.58V327A.57.57,0,0,1,480.49,327.58Zm-98.08-3.47a.58.58,0,0,1-.58-.54l-.17-2.86a.58.58,0,0,1,1.15-.07l.17,2.86a.57.57,0,0,1-.54.61Zm98.08-2.27a.56.56,0,0,1-.57-.57V318.4a.56.56,0,0,1,.57-.57.57.57,0,0,1,.58.57v2.87A.57.57,0,0,1,480.49,321.84Zm-98.43-3.46a.58.58,0,0,1-.58-.54l-.17-2.86a.58.58,0,1,1,1.15-.07l.17,2.86a.57.57,0,0,1-.54.61Zm98.43-2.28a.56.56,0,0,1-.57-.57v-2.87a.56.56,0,0,1,.57-.57.57.57,0,0,1,.58.57v2.87A.57.57,0,0,1,480.49,316.1Zm-98.78-3.45a.56.56,0,0,1-.57-.54l-.18-2.86a.58.58,0,0,1,1.15-.07l.17,2.86a.57.57,0,0,1-.54.61Zm98.78-2.29a.56.56,0,0,1-.57-.57v-2.87a.56.56,0,0,1,.57-.57.57.57,0,0,1,.58.57v2.87A.57.57,0,0,1,480.49,310.36Zm-99.13-3.43a.57.57,0,0,1-.57-.54l-.18-2.87a.58.58,0,0,1,1.15-.07l.17,2.87a.57.57,0,0,1-.54.6Zm99.13-2.31a.56.56,0,0,1-.57-.57v-2.87a.56.56,0,0,1,.57-.57.57.57,0,0,1,.58.57v2.87A.57.57,0,0,1,480.49,304.62ZM381,301.2a.57.57,0,0,1-.57-.54l-.18-2.87a.58.58,0,0,1,1.15-.07l.17,2.87a.56.56,0,0,1-.54.6Zm99.48-2.32a.56.56,0,0,1-.57-.57v-2.87a.56.56,0,0,1,.57-.57.57.57,0,0,1,.58.57v2.87A.57.57,0,0,1,480.49,298.88Zm-99.83-3.41a.58.58,0,0,1-.57-.54l-.18-2.87a.58.58,0,0,1,1.15-.07l.17,2.87a.58.58,0,0,1-.54.61Zm99.83-2.32a.57.57,0,0,1-.57-.58V289.7a.56.56,0,0,1,.57-.57.57.57,0,0,1,.58.57v2.87A.58.58,0,0,1,480.49,293.15Zm-100.18-3.41a.58.58,0,0,1-.57-.54l-.18-2.86a.58.58,0,0,1,1.15-.08l.17,2.87a.57.57,0,0,1-.53.61Zm100.18-2.33a.57.57,0,0,1-.57-.58V284a.57.57,0,0,1,.57-.57.58.58,0,0,1,.58.57v2.87A.58.58,0,0,1,480.49,287.41ZM380,284a.57.57,0,0,1-.57-.56v-.2a7.11,7.11,0,0,1,.58-2.84.57.57,0,0,1,1,.45,6.11,6.11,0,0,0-.48,2.39v.17a.57.57,0,0,1-.56.59Zm100.19-2.31a.58.58,0,0,1-.55-.39,6.19,6.19,0,0,0-1.33-2.23.57.57,0,1,1,.83-.79,7.37,7.37,0,0,1,1.59,2.66.57.57,0,0,1-.36.72Zm-98-2.81a.55.55,0,0,1-.42-.19.57.57,0,0,1,0-.81,7.1,7.1,0,0,1,2.67-1.55.58.58,0,0,1,.35,1.1,5.93,5.93,0,0,0-2.25,1.3A.58.58,0,0,1,382.14,278.89Zm94.2-1.25a.57.57,0,0,1-.22,0,6.05,6.05,0,0,0-2.31-.45h-.27a.58.58,0,1,1,0-1.15h.27a7.21,7.21,0,0,1,2.75.54.57.57,0,0,1,.31.75A.56.56,0,0,1,476.34,277.64Zm-5.67-.49H467.8a.58.58,0,1,1,0-1.15h2.87a.58.58,0,0,1,0,1.15Zm-5.74,0h-2.87a.58.58,0,1,1,0-1.15h2.87a.58.58,0,0,1,0,1.15Zm-5.74,0h-2.87a.58.58,0,1,1,0-1.15h2.87a.58.58,0,0,1,0,1.15Zm-5.74,0h-2.87a.58.58,0,1,1,0-1.15h2.87a.58.58,0,0,1,0,1.15Zm-5.74,0h-2.87a.58.58,0,1,1,0-1.15h2.87a.58.58,0,0,1,0,1.15Zm-5.74,0H439.1a.58.58,0,0,1,0-1.15H442a.58.58,0,0,1,0,1.15Zm-5.74,0h-2.87a.58.58,0,0,1,0-1.15h2.87a.58.58,0,0,1,0,1.15Zm-5.74,0h-2.87a.58.58,0,0,1,0-1.15h2.87a.58.58,0,0,1,0,1.15Zm-5.74,0h-2.87a.58.58,0,0,1,0-1.15h2.87a.58.58,0,0,1,0,1.15Zm-5.74,0h-2.87a.58.58,0,0,1,0-1.15H419a.58.58,0,0,1,0,1.15Zm-5.74,0H410.4a.58.58,0,0,1,0-1.15h2.87a.58.58,0,1,1,0,1.15Zm-5.74,0h-2.87a.58.58,0,0,1,0-1.15h2.87a.58.58,0,1,1,0,1.15Zm-5.74,0h-2.87a.58.58,0,0,1,0-1.15h2.87a.58.58,0,1,1,0,1.15Zm-5.74,0h-2.87a.58.58,0,0,1,0-1.15h2.87a.58.58,0,1,1,0,1.15Zm-5.74,0h-2.87a.58.58,0,0,1,0-1.15h2.87a.58.58,0,1,1,0,1.15Z" transform="translate(-21.63 -116.26)"/></g><path class="cls-5" d="M277.9,492.1c-38-18.89-67.38-48.59-70.65-110.74C207.25,381.36,306.25,414.41,277.9,492.1Z" transform="translate(-21.63 -116.26)"/><path class="cls-2" d="M274.06,490.56c-26.74,2.47-52.39-3.77-74.78-36.13C199.28,454.43,263.52,439.35,274.06,490.56Z" transform="translate(-21.63 -116.26)"/><path class="cls-5" d="M394.18,495.75c-17.82-38.55-22.09-80.08,14.29-130.58C408.47,365.17,464.93,453,394.18,495.75Z" transform="translate(-21.63 -116.26)"/><path class="cls-17" d="M403.24,497.4h-140c-3.81,0-6.66-2.71-5.93-5.62l1.8-7.1c.54-2.14,2.89-3.71,5.68-3.8l135-4.21c2.92-.09,5.5,1.46,6.14,3.68l3.24,11.32C410,494.61,407.11,497.4,403.24,497.4Z" transform="translate(-21.63 -116.26)"/><path class="cls-5" d="M338.6,482.64a.29.29,0,0,1-.29-.28.28.28,0,0,1,.28-.29l5.79-.09a.29.29,0,0,1,.29.28.3.3,0,0,1-.28.3l-5.79.08Z" transform="translate(-21.63 -116.26)"/><path class="cls-5" d="M262.48,493.31h-.05a.29.29,0,0,1-.24-.33l.83-5.17a5.6,5.6,0,0,1,5.45-4.72l61.36-.9a.31.31,0,0,1,.29.29.29.29,0,0,1-.29.29l-61.35.9a5,5,0,0,0-4.9,4.23l-.82,5.17A.29.29,0,0,1,262.48,493.31Z" transform="translate(-21.63 -116.26)"/><path class="cls-2" d="M271.75,477.94a.29.29,0,0,1-.27-.2,200.91,200.91,0,0,0-32.17-57.8,156.46,156.46,0,0,0-19-20.37.29.29,0,0,1,0-.41.28.28,0,0,1,.4,0c.09.07,8.59,7.24,19.12,20.44a201.24,201.24,0,0,1,32.27,58,.29.29,0,0,1-.18.37Z" transform="translate(-21.63 -116.26)"/><path class="cls-2" d="M398.86,472.19l-.08,0a.28.28,0,0,1-.19-.36c13.37-41.89,9.59-90.93,9.55-91.42a.29.29,0,0,1,.26-.31.29.29,0,0,1,.31.27,277.06,277.06,0,0,1,.3,29.88c-.64,16.06-2.87,39.81-9.87,61.76A.29.29,0,0,1,398.86,472.19Z" transform="translate(-21.63 -116.26)"/><path class="cls-18" d="M258.89,481.8a.32.32,0,0,1-.22-.1c-15.14-17.85-49-23.6-49.31-23.66a.28.28,0,0,1-.24-.33.28.28,0,0,1,.33-.23,126.28,126.28,0,0,1,19,5.08c9.57,3.37,22.65,9.35,30.64,18.77a.28.28,0,0,1,0,.4A.26.26,0,0,1,258.89,481.8Z" transform="translate(-21.63 -116.26)"/><g class="cls-19"><ellipse class="cls-2" cx="572" cy="390.34" rx="38.89" ry="39.61" transform="translate(-137.01 358.16) rotate(-41.28)"/></g><path class="cls-20" d="M604.52,361.79c-16.06-18.29-43.64-20.34-61.6-4.57s-19.5,43.38-3.44,61.67,43.64,20.34,61.6,4.57S620.58,380.08,604.52,361.79ZM544.26,414.7c-13.7-15.6-12.39-39.16,2.93-52.61S586,350.38,599.74,366s12.39,39.16-2.93,52.61S558,430.3,544.26,414.7Z" transform="translate(-21.63 -116.26)"/><path class="cls-5" d="M612.09,384.61a.14.14,0,0,1-.14-.12,41.38,41.38,0,0,0-9.77-20.65,40.75,40.75,0,0,0-43.89-11.93h0a38.9,38.9,0,0,0-7.6,3.54.14.14,0,0,1-.19-.05.15.15,0,0,1,0-.2,40.36,40.36,0,0,1,7.65-3.57h0a40.57,40.57,0,0,1,23.51-.8,41.85,41.85,0,0,1,30.53,33.61.15.15,0,0,1-.12.17Zm-70.76-21.38a.18.18,0,0,1-.1,0,.14.14,0,0,1,0-.2c.68-.77,1.4-1.53,2.14-2.25a.14.14,0,0,1,.2,0,.13.13,0,0,1,0,.2c-.73.71-1.45,1.46-2.13,2.23A.12.12,0,0,1,541.33,363.23Z" transform="translate(-21.63 -116.26)"/><path class="cls-21" d="M571.3,430.81l-4.11,85.29a6.14,6.14,0,0,0,6.32,6.43l.59,0a5.7,5.7,0,0,0,5.53-5.91l-3.09-85.78Z" transform="translate(-21.63 -116.26)"/><path class="cls-3" d="M573.42,520.86a3.9,3.9,0,0,1-1.37-.25,4.63,4.63,0,0,1-2.94-4.5l.26-10.34a.16.16,0,0,1,.15-.14.15.15,0,0,1,.14.15l-.26,10.34a4.32,4.32,0,0,0,2.75,4.22c1.67.62,3.36,0,5-1.83a.14.14,0,0,1,.2,0,.15.15,0,0,1,0,.21A5.43,5.43,0,0,1,573.42,520.86Z" transform="translate(-21.63 -116.26)"/><path class="cls-3" d="M569.6,502.73h0a.13.13,0,0,1-.14-.14l0-1.34a.15.15,0,0,1,.15-.14.14.14,0,0,1,.14.14l0,1.34A.14.14,0,0,1,569.6,502.73Z" transform="translate(-21.63 -116.26)"/><path class="cls-22" d="M105.2,531.15l41.42-27.66a17.38,17.38,0,0,1,9.45-2.93c37.61-.46,269.4-3,323,2.65a12.94,12.94,0,0,1,7,3.05l29,24.89Z" transform="translate(-21.63 -116.26)"/><path class="cls-23" d="M106.25,534.68l-1-3.53h410l-1.74,3.31a6.93,6.93,0,0,1-6.13,3.71H110.92A4.87,4.87,0,0,1,106.25,534.68Z" transform="translate(-21.63 -116.26)"/><path class="cls-24" d="M130.93,522.3,152.77,507a11.52,11.52,0,0,1,6.67-2.09l309,1.28a17.2,17.2,0,0,1,11.24,4.25l11.42,10a2.31,2.31,0,0,1-1.51,4l-357.28,2A2.31,2.31,0,0,1,130.93,522.3Z" transform="translate(-21.63 -116.26)"/><path class="cls-25" d="M478.64,510.59a5.41,5.41,0,0,0,1.07-.06s.53-.28,0-.6l-10.2-3.5a14,14,0,0,0-2.24-.21l-5.23-.61c-.63,0-.66,1-.26,1.45l2.21,2.68a2.72,2.72,0,0,0,1.85.87Z" transform="translate(-21.63 -116.26)"/><path class="cls-26" d="M460,513.77a2.69,2.69,0,0,0-1.85-.88l-19-.54c-.62,0-.64,1-.3,1.53l1.68,2.55a2.35,2.35,0,0,0,1.75,1l19.55,0c.62,0,.86-.93.46-1.41Z" transform="translate(-21.63 -116.26)"/><path class="cls-27" d="M456.24,510.63c.62,0,.88-.9.48-1.38L454.4,507a2.77,2.77,0,0,0-1.85-.88l-17.93-.65c-.62,0-.68,1-.33,1.52l1.77,2.7a2.35,2.35,0,0,0,1.76.95Z" transform="translate(-21.63 -116.26)"/><path class="cls-28" d="M407.38,514a2.05,2.05,0,0,0-1.65-1l-16.21-.41c-.62,0-.69.93-.48,1.51l.84,2.32a1.73,1.73,0,0,0,1.52,1.06l16.63,0c.62,0,1-.93.66-1.48Z" transform="translate(-21.63 -116.26)"/><path class="cls-29" d="M432,513.9a2.35,2.35,0,0,0-1.76-.95l-16.17-.53c-.63,0-.63,1-.35,1.57l1.26,2.43a2,2,0,0,0,1.66,1l16.52,0c.63,0,.86-1,.51-1.54Z" transform="translate(-21.63 -116.26)"/><path class="cls-30" d="M356.81,510.83c.62,0,1.05-.88.91-1.49l-.66-2.47a1.49,1.49,0,0,0-1.37-1.12l-16.48-.06a1.06,1.06,0,0,0-1.08,1.12l.15,2.93a1.2,1.2,0,0,0,1.18,1.13Z" transform="translate(-21.63 -116.26)"/><path class="cls-31" d="M380.68,510.79c.62,0,1-.89.8-1.47l-1.06-2.4a1.75,1.75,0,0,0-1.52-1.07l-15.5-.37c-.62,0-.66.8-.53,1.41l.63,2.82a1.47,1.47,0,0,0,1.37,1.11Z" transform="translate(-21.63 -116.26)"/><path class="cls-32" d="M404.55,510.74c.63,0,.95-.95.66-1.51L403.73,507a2,2,0,0,0-1.65-1L387,505.48c-.63,0-.71.88-.5,1.47l1,2.76a1.73,1.73,0,0,0,1.52,1.06Z" transform="translate(-21.63 -116.26)"/><path class="cls-33" d="M428.78,510.69c.62,0,.85-1,.51-1.55l-1.8-2.14a2.4,2.4,0,0,0-1.76-1l-15.22-.55c-.63,0-.67.94-.39,1.49l1.42,2.74a2,2,0,0,0,1.65,1Z" transform="translate(-21.63 -116.26)"/><path class="cls-34" d="M358.69,514.2a1.5,1.5,0,0,0-1.38-1.1l-17.74,0a1.07,1.07,0,0,0-1.07,1.13l.1,2.19a1.21,1.21,0,0,0,1.19,1.13l18.5,0c.62,0,1-.8.91-1.41Z" transform="translate(-21.63 -116.26)"/><path class="cls-35" d="M166.38,514.31c.43-.45.38-1.41-.24-1.41l-21.54.63a4.32,4.32,0,0,0-2.07.66L138,516.75c-.51.36-.42,1.25.2,1.25l23.55,0a3.09,3.09,0,0,0,1.92-.82Z" transform="translate(-21.63 -116.26)"/><path class="cls-36" d="M193.39,514.32c.39-.49.3-1.47-.32-1.47l-16.92.62a3.09,3.09,0,0,0-1.92.82l-2.7,2.23c-.43.45-.27,1.41.35,1.41l17.56,0a2.63,2.63,0,0,0,1.83-.89Z" transform="translate(-21.63 -116.26)"/><path class="cls-37" d="M331.53,510.89a1.08,1.08,0,0,0,1.07-1.14l-.14-3a1.23,1.23,0,0,0-1.19-1.14L316,505.59a1.27,1.27,0,0,0-1.25,1.12l-.31,3.08a1,1,0,0,0,1,1.13Z" transform="translate(-21.63 -116.26)"/><path class="cls-38" d="M469.52,516.45a2.76,2.76,0,0,0,1.86.87l14.91,0a.68.68,0,0,0,.45-1.18l-3.53-2.52a3.52,3.52,0,0,0-2-.74l-13.72-.49c-.62,0-.6.91-.2,1.39Z" transform="translate(-21.63 -116.26)"/><path class="cls-39" d="M277.82,514.36c.17-.61.07-1.51-.55-1.51l-20.71.46a1.92,1.92,0,0,0-1.6,1l-1.16,2.06a1,1,0,0,0,.74,1.36l21.25,0a1.56,1.56,0,0,0,1.42-1.1Z" transform="translate(-21.63 -116.26)"/><path class="cls-40" d="M308.33,514.33a1,1,0,0,0-1-1.13l-22.19,0a1.55,1.55,0,0,0-1.42,1.09l-.65,2c-.16.6.25,1.38.87,1.38l22.94-.05a1.3,1.3,0,0,0,1.25-1.13Z" transform="translate(-21.63 -116.26)"/><path class="cls-41" d="M332.82,514.28a1.2,1.2,0,0,0-1.18-1.13l-16.37,0a1.28,1.28,0,0,0-1.25,1.13l-.22,2.19a1,1,0,0,0,1,1.13l17,0a1.07,1.07,0,0,0,1.08-1.13Z" transform="translate(-21.63 -116.26)"/><path class="cls-42" d="M248.74,514.35c.25-.56.19-1.5-.43-1.5l-17.37.51a2.26,2.26,0,0,0-1.72,1l-1.56,2.15c-.32.54,0,1.33.59,1.33l17.8,0a1.9,1.9,0,0,0,1.6-1Z" transform="translate(-21.63 -116.26)"/><path class="cls-43" d="M383,514.11a1.74,1.74,0,0,0-1.52-1.06L365,512.78c-.62,0-.68.8-.55,1.41l.5,2.24a1.46,1.46,0,0,0,1.38,1.1l16.75,0c.62,0,1-.89.8-1.47Z" transform="translate(-21.63 -116.26)"/><path class="cls-44" d="M222.6,514.34c.32-.53.22-1.49-.4-1.49l-19.74.57a2.63,2.63,0,0,0-1.83.89l-2.12,2.08c-.39.49-.19,1.48.43,1.48l20.42,0a2.25,2.25,0,0,0,1.72-1Z" transform="translate(-21.63 -116.26)"/><path class="cls-45" d="M339.9,519.85a1.08,1.08,0,0,0-1.08,1.14l.16,3.24a1.19,1.19,0,0,0,1.19,1.12l19.82-.11c.62,0,1.05-.83.91-1.43l-.73-2.89a1.49,1.49,0,0,0-1.38-1.11Z" transform="translate(-21.63 -116.26)"/><path class="cls-46" d="M314.59,519.9a1.28,1.28,0,0,0-1.24,1.13l-.34,3.35a1,1,0,0,0,1,1.12l18.19-.1a1.09,1.09,0,0,0,1.08-1.14l-.16-3.26a1.19,1.19,0,0,0-1.19-1.13Z" transform="translate(-21.63 -116.26)"/><path class="cls-47" d="M366.53,519.38c-.62,0-.7.92-.56,1.53l.7,3.19a1.48,1.48,0,0,0,1.38,1.1l17.81-.1c.62,0,1-.87.8-1.46l-1.21-2.82a1.74,1.74,0,0,0-1.52-1.06Z" transform="translate(-21.63 -116.26)"/><path class="cls-48" d="M307.53,510.94a1.29,1.29,0,0,0,1.25-1.13l.31-3.12a1,1,0,0,0-1-1.13l-20.85-.09a1.58,1.58,0,0,0-1.43,1.09l-.93,3c-.16.6.25,1.39.88,1.39Z" transform="translate(-21.63 -116.26)"/><path class="cls-49" d="M417.61,519.27c-.62,0-.67.88-.38,1.43l1.66,3.21a2,2,0,0,0,1.65,1l17.53-.1c.62,0,.91-.92.57-1.44l-2.2-2.77a2.34,2.34,0,0,0-1.76-.94Z" transform="translate(-21.63 -116.26)"/><path class="cls-50" d="M443.52,519.06c-.63,0-.65,1-.31,1.53l2.12,3.23a2.37,2.37,0,0,0,1.76.94l20.72-.12c.62,0,.87-.92.47-1.4l-2.78-2.77a2.74,2.74,0,0,0-1.85-.87Z" transform="translate(-21.63 -116.26)"/><path class="cls-51" d="M491.24,521c-.37.13-1.74-1.44-2.36-1.44l-15.8-.55c-.63,0-.64,1-.24,1.46l2.69,3.26a2.74,2.74,0,0,0,1.86.87l11-.06a3.7,3.7,0,0,0,1.64-.5,1.17,1.17,0,0,0,.49-.6l.69-1.84C491.14,521,491.28,521,491.24,521Z" transform="translate(-21.63 -116.26)"/><path class="cls-52" d="M392.05,519.17c-.63,0-.79,1.06-.58,1.64l1.15,3.18a1.71,1.71,0,0,0,1.52,1.06l17.77-.1c.63,0,.95-.94.66-1.49l-1.72-2.75a2,2,0,0,0-1.65-1Z" transform="translate(-21.63 -116.26)"/><path class="cls-53" d="M249.1,511.05a1.92,1.92,0,0,0,1.6-1l1.65-3.66c.26-.57.17-1.59-.46-1.6l-16,.5a2.2,2.2,0,0,0-1.72,1l-2.45,3.49a.91.91,0,0,0,.64,1.37Z" transform="translate(-21.63 -116.26)"/><path class="cls-54" d="M223.42,511.11a2.23,2.23,0,0,0,1.72-1l2.38-3.93c.32-.54.31-1.43-.32-1.44l-18.19.39a2.64,2.64,0,0,0-1.84.88l-3.42,3.75c-.39.49-.11,1.37.51,1.37Z" transform="translate(-21.63 -116.26)"/><path class="cls-55" d="M194.76,511.17a2.68,2.68,0,0,0,1.83-.9L200,506c.39-.49.4-1.44-.22-1.45l-15.53.5a3,3,0,0,0-1.92.81l-4.42,4a.76.76,0,0,0,.44,1.3Z" transform="translate(-21.63 -116.26)"/><path class="cls-56" d="M226.88,520.08a2.26,2.26,0,0,0-1.72,1l-2.4,4c-.32.53-.08,1,.55,1l94.16-.48a1.94,1.94,0,0,0,1.6-1l1.72-3.79a.67.67,0,0,0-.67-1Z" transform="translate(-21.63 -116.26)"/><path class="cls-57" d="M277.6,511a1.59,1.59,0,0,0,1.43-1.1l.9-3.36c.17-.6.07-1.48-.56-1.48l-19.21.3a1.92,1.92,0,0,0-1.6,1l-1.7,3.2c-.26.57.11,1.45.73,1.45Z" transform="translate(-21.63 -116.26)"/><path class="cls-58" d="M168.2,511.22a3.07,3.07,0,0,0,1.92-.82l4.37-4.57c.43-.45.43-1.38-.19-1.38l-13.73.5a17,17,0,0,0-2.25.17l-4.54,1.41a18,18,0,0,0-1.94,1.15l-4.35,2.46a.61.61,0,0,0,.36,1.12Z" transform="translate(-21.63 -116.26)"/><path class="cls-59" d="M197.15,520.14a2.7,2.7,0,0,0-1.84.89l-3.37,4.26c-.39.49-.19.89.43.89l22-.13a2.25,2.25,0,0,0,1.72-1l2.42-4c.32-.54.29-1.41-.33-1.4Z" transform="translate(-21.63 -116.26)"/><path class="cls-60" d="M169.71,520.2a3.07,3.07,0,0,0-1.92.82l-4.31,4.5c-.43.45-.27.82.35.82l19-.11a2.69,2.69,0,0,0,1.84-.9l3.38-4.28c.39-.49.2-.89-.43-.89Z" transform="translate(-21.63 -116.26)"/><path class="cls-61" d="M135,520.27a4.2,4.2,0,0,0-2.06.65l-1.85,1.3c-.43.3-.3.51-.33.93a1.68,1.68,0,0,0,.07.59l.35,1.1a2.32,2.32,0,0,0,1.57,1.56,2.53,2.53,0,0,0,.69.11l20.28-.12a3.07,3.07,0,0,0,1.92-.82l4.34-4.53c.43-.45.42-1.41-.2-1.41Z" transform="translate(-21.63 -116.26)"/><path class="cls-62" d="M478.64,510a4.61,4.61,0,0,0,1.07-.06l-1-.63-9.16-3.47a15.3,15.3,0,0,0-2.24-.21l-5.08,0c-.62,0-.81.39-.41.87l2.21,2.67a2.73,2.73,0,0,0,1.85.88Z" transform="translate(-21.63 -116.26)"/><path class="cls-62" d="M460,513.17a2.72,2.72,0,0,0-1.85-.87l-18.8,0c-.62,0-.85.42-.51.95l1.68,2.55a2.34,2.34,0,0,0,1.75.94l19.55,0c.62,0,.81-.4.41-.88Z" transform="translate(-21.63 -116.26)"/><path class="cls-62" d="M456.24,510c.62,0,.81-.4.41-.88l-2.25-2.72a2.73,2.73,0,0,0-1.85-.88l-17.75-.07c-.63,0-.86.42-.51.94l1.77,2.7a2.37,2.37,0,0,0,1.76.94Z" transform="translate(-21.63 -116.26)"/><path class="cls-62" d="M407.38,513.41a2.07,2.07,0,0,0-1.65-1l-15.94,0a.75.75,0,0,0-.75,1.07l.84,2.31a1.7,1.7,0,0,0,1.52,1.06l16.63,0a.63.63,0,0,0,.61-1Z" transform="translate(-21.63 -116.26)"/><path class="cls-62" d="M432,513.3a2.39,2.39,0,0,0-1.76-.95l-15.91,0c-.62,0-.89.45-.61,1l1.26,2.43a2.06,2.06,0,0,0,1.66,1l16.52,0c.63,0,.86-.43.51-.95Z" transform="translate(-21.63 -116.26)"/><path class="cls-62" d="M356.81,510.24a.88.88,0,0,0,.89-1.11l-.64-2.86a1.47,1.47,0,0,0-1.37-1.11l-16.48-.07a1.08,1.08,0,0,0-1.08,1.13l.15,2.92a1.19,1.19,0,0,0,1.18,1.13Z" transform="translate(-21.63 -116.26)"/><path class="cls-62" d="M380.68,510.19a.75.75,0,0,0,.75-1.07l-1-2.8a1.78,1.78,0,0,0-1.52-1.07l-15.14-.06a.87.87,0,0,0-.89,1.1l.63,2.83a1.46,1.46,0,0,0,1.37,1.1Z" transform="translate(-21.63 -116.26)"/><path class="cls-62" d="M404.55,510.14a.64.64,0,0,0,.62-1l-1.44-2.77a2.07,2.07,0,0,0-1.65-1l-14.88-.06a.74.74,0,0,0-.75,1.06l1,2.76a1.72,1.72,0,0,0,1.52,1.06Z" transform="translate(-21.63 -116.26)"/><path class="cls-62" d="M428.78,510.09c.62,0,.85-.43.51-.95l-1.8-2.74a2.39,2.39,0,0,0-1.76-.95l-15-.06c-.63,0-.9.44-.62,1l1.42,2.73a2,2,0,0,0,1.65,1Z" transform="translate(-21.63 -116.26)"/><path class="cls-62" d="M358.69,513.61a1.49,1.49,0,0,0-1.38-1.11l-17.74,0a1.07,1.07,0,0,0-1.07,1.13l.1,2.19a1.21,1.21,0,0,0,1.19,1.13l18.5,0a.88.88,0,0,0,.89-1.11Z" transform="translate(-21.63 -116.26)"/><path class="cls-62" d="M166.38,513.71c.43-.45.27-.82-.35-.82l-21.43.05a4.21,4.21,0,0,0-2.07.65L138,516.75c-.51.36-.42.65.2.65l23.55,0a3.09,3.09,0,0,0,1.92-.82Z" transform="translate(-21.63 -116.26)"/><path class="cls-62" d="M193.39,513.73c.39-.49.2-.89-.43-.89l-16.81,0a3.15,3.15,0,0,0-1.92.82l-2.7,2.83c-.43.45-.27.81.35.81l17.56,0a2.67,2.67,0,0,0,1.83-.89Z" transform="translate(-21.63 -116.26)"/><path class="cls-62" d="M331.53,510.29a1.07,1.07,0,0,0,1.07-1.13l-.14-3a1.21,1.21,0,0,0-1.19-1.13L316,505a1.28,1.28,0,0,0-1.25,1.13l-.31,3.08a1,1,0,0,0,1,1.12Z" transform="translate(-21.63 -116.26)"/><path class="cls-62" d="M469.52,515.85a2.76,2.76,0,0,0,1.86.87l14.91,0c.63,0,.75-.34.29-.75l-3.37-3a3.52,3.52,0,0,0-2-.74l-13.51,0c-.62,0-.81.39-.41.87Z" transform="translate(-21.63 -116.26)"/><path class="cls-62" d="M277.82,513.76a.82.82,0,0,0-.83-1.09l-20.43,0a1.94,1.94,0,0,0-1.6,1l-1.08,2.39a.67.67,0,0,0,.66,1l21.25,0a1.55,1.55,0,0,0,1.42-1.1Z" transform="translate(-21.63 -116.26)"/><path class="cls-62" d="M308.33,513.73a1,1,0,0,0-1-1.12l-22.19,0a1.56,1.56,0,0,0-1.42,1.1l-.62,2.26a.82.82,0,0,0,.84,1.09l22.94,0a1.3,1.3,0,0,0,1.25-1.13Z" transform="translate(-21.63 -116.26)"/><path class="cls-62" d="M332.82,513.69a1.19,1.19,0,0,0-1.18-1.13l-16.37,0a1.28,1.28,0,0,0-1.25,1.13l-.22,2.2a1,1,0,0,0,1,1.12l17,0a1.08,1.08,0,0,0,1.08-1.14Z" transform="translate(-21.63 -116.26)"/><path class="cls-62" d="M248.74,513.76a.68.68,0,0,0-.67-1l-17.13,0a2.26,2.26,0,0,0-1.72,1l-1.51,2.52c-.33.53-.08,1,.54,1l17.8,0a1.91,1.91,0,0,0,1.6-1Z" transform="translate(-21.63 -116.26)"/><path class="cls-62" d="M383,513.52a1.74,1.74,0,0,0-1.52-1.07l-16.13,0a.88.88,0,0,0-.89,1.11l.5,2.23a1.47,1.47,0,0,0,1.38,1.11l16.75,0a.75.75,0,0,0,.75-1.07Z" transform="translate(-21.63 -116.26)"/><path class="cls-62" d="M222.6,513.75c.32-.54.07-1-.55-1l-19.59,0a2.63,2.63,0,0,0-1.83.89l-2.12,2.68c-.39.49-.19.89.43.89l20.42,0a2.26,2.26,0,0,0,1.72-1Z" transform="translate(-21.63 -116.26)"/><path class="cls-62" d="M339.9,519.26a1.08,1.08,0,0,0-1.08,1.13l.16,3.24a1.21,1.21,0,0,0,1.19,1.13l19.82-.11a.89.89,0,0,0,.89-1.12l-.71-3.21a1.48,1.48,0,0,0-1.38-1.1Z" transform="translate(-21.63 -116.26)"/><path class="cls-62" d="M366.86,519.2a.87.87,0,0,0-.89,1.11l.7,3.19a1.47,1.47,0,0,0,1.38,1.1l17.81-.1a.75.75,0,0,0,.75-1.07l-1.16-3.2a1.71,1.71,0,0,0-1.52-1.06Z" transform="translate(-21.63 -116.26)"/><path class="cls-62" d="M307.53,510.34a1.28,1.28,0,0,0,1.25-1.13l.31-3.12a1,1,0,0,0-1-1.13l-20.85-.08a1.55,1.55,0,0,0-1.43,1.09l-.89,3.32a.82.82,0,0,0,.84,1.09Z" transform="translate(-21.63 -116.26)"/><path class="cls-62" d="M417.84,519.1a.63.63,0,0,0-.61,1l1.66,3.21a2,2,0,0,0,1.65,1l17.53-.1c.62,0,.85-.43.51-1L436.44,520a2.35,2.35,0,0,0-1.76-1Z" transform="translate(-21.63 -116.26)"/><path class="cls-62" d="M443.72,519c-.62,0-.85.43-.51,1l2.12,3.23a2.37,2.37,0,0,0,1.76.94l20.72-.11c.62,0,.81-.4.41-.88l-2.72-3.3a2.74,2.74,0,0,0-1.85-.87Z" transform="translate(-21.63 -116.26)"/><path class="cls-62" d="M490.54,519.41a3,3,0,0,0-1.66-.46l-15.63,0c-.63,0-.81.4-.41.88l2.69,3.26a2.66,2.66,0,0,0,1.86.87l11-.06a3.51,3.51,0,0,0,1.5-.42,1.35,1.35,0,0,0,.65-.74l.67-1.78A3.1,3.1,0,0,0,490.54,519.41Z" transform="translate(-21.63 -116.26)"/><path class="cls-62" d="M253.52,519.43a1.9,1.9,0,0,0-1.6,1l-1.71,3.76a.67.67,0,0,0,.67,1l22.75-.12a1.58,1.58,0,0,0,1.42-1.1l1-3.55a.82.82,0,0,0-.84-1.09Z" transform="translate(-21.63 -116.26)"/><path class="cls-62" d="M392.22,519.15a.75.75,0,0,0-.75,1.07l1.15,3.18a1.74,1.74,0,0,0,1.52,1.06l17.77-.1a.64.64,0,0,0,.61-1l-1.67-3.22a2,2,0,0,0-1.65-1Z" transform="translate(-21.63 -116.26)"/><path class="cls-62" d="M249.1,510.46a1.93,1.93,0,0,0,1.6-1l1.65-3.65a.68.68,0,0,0-.66-1l-15.85-.07a2.23,2.23,0,0,0-1.72,1l-2.35,3.9c-.33.53-.08,1,.54,1Z" transform="translate(-21.63 -116.26)"/><path class="cls-62" d="M223.42,510.51a2.25,2.25,0,0,0,1.72-1l2.38-3.94c.32-.53.07-1-.55-1l-18-.08a2.65,2.65,0,0,0-1.84.89l-3.34,4.22c-.39.49-.19.89.43.89Z" transform="translate(-21.63 -116.26)"/><path class="cls-62" d="M194.76,510.57a2.63,2.63,0,0,0,1.83-.89l3.38-4.27c.39-.49.19-.89-.43-.9l-15.32-.06a3.05,3.05,0,0,0-1.92.81L178,509.79c-.43.45-.27.81.35.81Z" transform="translate(-21.63 -116.26)"/><path class="cls-62" d="M333.31,523.66l-.16-3.26a1.2,1.2,0,0,0-1.19-1.13l-17.37,0a1.45,1.45,0,0,0-.29,0l-87.42.14a2.26,2.26,0,0,0-1.72,1l-2.4,4c-.32.54-.08,1,.55,1l108.5-.46a2.93,2.93,0,0,0,.57-.16A1.08,1.08,0,0,0,333.31,523.66Z" transform="translate(-21.63 -116.26)"/><path class="cls-62" d="M277.6,510.4a1.57,1.57,0,0,0,1.43-1.1l.9-3.36a.83.83,0,0,0-.83-1.1l-18.94-.08a1.92,1.92,0,0,0-1.6,1l-1.64,3.62a.68.68,0,0,0,.67,1Z" transform="translate(-21.63 -116.26)"/><path class="cls-62" d="M168.2,510.62a3.07,3.07,0,0,0,1.92-.82l4.37-4.57c.43-.45.28-.82-.35-.82l-13.57-.06a18.93,18.93,0,0,0-2.25.17l-4.54,1.42a17.91,17.91,0,0,0-1.94,1.14l-4.2,2.94c-.51.36-.42.65.21.65Z" transform="translate(-21.63 -116.26)"/><path class="cls-62" d="M197.15,519.55a2.65,2.65,0,0,0-1.84.89l-3.37,4.26c-.39.49-.19.88.43.88l22-.12a2.26,2.26,0,0,0,1.72-1l2.42-4c.32-.53.07-1-.55-1Z" transform="translate(-21.63 -116.26)"/><path class="cls-62" d="M169.71,519.6a3.07,3.07,0,0,0-1.92.82l-4.31,4.51c-.43.45-.27.81.35.81l19-.11a2.67,2.67,0,0,0,1.84-.89l3.38-4.29c.39-.49.2-.88-.43-.88Z" transform="translate(-21.63 -116.26)"/><path class="cls-62" d="M135,519.67a4.32,4.32,0,0,0-2.06.66l-1,.73a3.42,3.42,0,0,0-1.05,1.35,1.13,1.13,0,0,0,0,.75l.32,1a2.45,2.45,0,0,0,1.84,1.69,2.48,2.48,0,0,0,.45,0l20.28-.11a3.13,3.13,0,0,0,1.92-.83l4.34-4.53c.43-.45.27-.82-.35-.82Z" transform="translate(-21.63 -116.26)"/><circle class="cls-3" cx="287.63" cy="173.05" r="6.64"/><circle class="cls-3" cx="290.17" cy="53.69" r="6.64"/><path class="cls-63" d="M443.69,403.46c2.63.23,7.19.6,10.78.75a10.25,10.25,0,0,0,4.12-.4,1.69,1.69,0,0,1,0,.23.73.73,0,0,1-.7.7,125,125,0,0,1-14.12,0,.52.52,0,0,1-.43-.79A4.2,4.2,0,0,1,443.69,403.46Z" transform="translate(-21.63 -116.26)"/><path class="cls-64" d="M454.47,404.21c-3.59-.15-8.15-.52-10.78-.75,2.58-3.17,10.78-5.3,10.78-5.3h2.31a9.63,9.63,0,0,1,1.81,5.65A10.25,10.25,0,0,1,454.47,404.21Z" transform="translate(-21.63 -116.26)"/><path class="cls-65" d="M457.17,394.38l-.21,4.28a1,1,0,0,1-.84.92,3.74,3.74,0,0,1-1.74-.14,1.18,1.18,0,0,1-.78-.89l-.74-4.17Z" transform="translate(-21.63 -116.26)"/><path class="cls-66" d="M487.25,404.18a2.1,2.1,0,0,0,1.87-1.38v0a1.47,1.47,0,0,1-1,1.68,6.52,6.52,0,0,1-2.76.44,2.76,2.76,0,0,1-2.07-1h0A6.89,6.89,0,0,0,487.25,404.18Z" transform="translate(-21.63 -116.26)"/><path class="cls-67" d="M481.87,394.35h1.91c2.91-.06,4.74,6.07,5.34,8.45a2.1,2.1,0,0,1-1.87,1.38,6.89,6.89,0,0,1-4-.21,18.16,18.16,0,0,1-2.72-6.86A2.4,2.4,0,0,1,481.87,394.35Z" transform="translate(-21.63 -116.26)"/><path class="cls-68" d="M483.54,390.37l1.06,4.22a1.14,1.14,0,0,1-.6,1.29,3.92,3.92,0,0,1-2.19.53.94.94,0,0,1-.78-.63l-1.56-4.44Z" transform="translate(-21.63 -116.26)"/><path class="cls-69" d="M484.8,391.59c-1.32,1.17-5.61,1.32-5.61,1.32-15.45-37.09-21.77-42.36-21.77-42.36,2.23,14,.36,45,.36,45-2.55,1.12-5.84,0-5.84,0a239.17,239.17,0,0,0-7.89-58.67c10.44-.24,16-3.81,17.81-5.25C470.57,345.67,484.8,391.59,484.8,391.59Z" transform="translate(-21.63 -116.26)"/><path class="cls-70" d="M459.21,289c2,9.86,1.27,27.51.8,35.56-.13,2.26,1.45,5.4,2.73,7.54a.68.68,0,0,1-.27.95A46.71,46.71,0,0,1,444.69,338a1.18,1.18,0,0,1-1.2-.89C437.26,313.81,430,299,430,299,438,286.21,459.21,289,459.21,289Z" transform="translate(-21.63 -116.26)"/><path class="cls-71" d="M456.36,349.67a.48.48,0,0,0,.26-.07.5.5,0,0,0,.17-.68,15.61,15.61,0,0,0-6.13-5.32.49.49,0,1,0-.43.89,14.71,14.71,0,0,1,5.71,4.95A.49.49,0,0,0,456.36,349.67Z" transform="translate(-21.63 -116.26)"/><path class="cls-72" d="M471.61,317.28a33.93,33.93,0,0,1-6.27,14.93l-1.42-1.16a44.32,44.32,0,0,0,.71-14.27A17.08,17.08,0,0,1,471.61,317.28Z" transform="translate(-21.63 -116.26)"/><path class="cls-73" d="M457,301.15,459.21,289s14.75,11.28,12.4,28.3a17.08,17.08,0,0,0-7-.5C464,311.31,461.94,305.38,457,301.15Z" transform="translate(-21.63 -116.26)"/><path class="cls-74" d="M430,299l5.7,12.26c-.92,7.41-4.9,10.61-9.19,11.84a26.17,26.17,0,0,0-1.91-8C430.11,309.41,430,299,430,299Z" transform="translate(-21.63 -116.26)"/><path class="cls-75" d="M424.63,315.07a26.17,26.17,0,0,1,1.91,8c-11.45,4.44-14.47-4.17-14.47-4.17l2.11-.38C419,319,422.29,317.48,424.63,315.07Z" transform="translate(-21.63 -116.26)"/><path class="cls-76" d="M435.28,283.81,438,293.92a2,2,0,0,0,2.63,1.31,40.92,40.92,0,0,0,4-1.81,2.65,2.65,0,0,0,.94-3.81l-5.72-8.52Z" transform="translate(-21.63 -116.26)"/><path class="cls-77" d="M429.26,276.13c0,.18,2.3,11.54,2.3,11.54l6.46-1.46-.6-11.1S429.68,273.23,429.26,276.13Z" transform="translate(-21.63 -116.26)"/><path class="cls-78" d="M436,277.59l.78,5.81a.81.81,0,0,1,0,.22c-.07.46-.41,2-2,1.57a7.39,7.39,0,0,0-3.63-.48.82.82,0,0,0-.56,1,35.94,35.94,0,0,0,1.48,5.29.82.82,0,0,0,1,.49,26.57,26.57,0,0,0,5.69-2.33.83.83,0,0,0,.4-.74c-.06-1.47-.24-5.93-.09-7.18s1.58-1.88,2.2-2.13a.8.8,0,0,0,.45-.45,2.13,2.13,0,0,0-1.43-3.1.82.82,0,0,1-.52-1.06,2.13,2.13,0,0,0-1.19-2.94,3,3,0,0,0-3.58.86.82.82,0,0,1-1.05.13.66.66,0,0,0-.74,0,.81.81,0,0,1-1.14-.34,2.44,2.44,0,0,0-2.84-1.42c-2.9.49-3.22,3.7-2.46,5.58s3.87,1.16,5.43.22c1.18-.72,2.72,0,3.39.43A.82.82,0,0,1,436,277.59Z" transform="translate(-21.63 -116.26)"/><path class="cls-79" d="M439.32,283.31s-1.19-3.33,0-4.15,3-.39,2.64,2C441.49,284.19,439.32,283.31,439.32,283.31Z" transform="translate(-21.63 -116.26)"/><path class="cls-80" d="M412.92,320.46c-.58.45-2.55-.49-3.76-1.14a1.38,1.38,0,0,1-.67-1.64c.29-.92.77-2.1,1.37-2.25C410.85,315.19,415.29,318.61,412.92,320.46Z" transform="translate(-21.63 -116.26)"/><path class="cls-81" d="M510.08,348.29,359.39,294.7l-8,22.15,150.64,55.09a7,7,0,0,0,8.48-3.07c1.76-3,3.45-7.75,3.55-14.83A6,6,0,0,0,510.08,348.29Z" transform="translate(-21.63 -116.26)"/><path class="cls-82" d="M312.77,289l20.81,2.55c0,2.87-1,6.57-4.13,10.82l-17.39-11.46A1,1,0,0,1,312.77,289Z" transform="translate(-21.63 -116.26)"/><path class="cls-83" d="M359.39,294.7a29,29,0,0,1-8,22.15l-22-14.5c3.17-4.25,4.11-8,4.13-10.82Z" transform="translate(-21.63 -116.26)"/><path class="cls-6" d="M508.21,355.08a.43.43,0,0,0,.42-.29.45.45,0,0,0-.27-.57l-144.17-51a.45.45,0,1,0-.3.84l144.18,50.95A.32.32,0,0,0,508.21,355.08Z" transform="translate(-21.63 -116.26)"/><path class="cls-6" d="M505.73,363.77a.43.43,0,0,0,.41-.29.44.44,0,0,0-.27-.57L361.7,312a.45.45,0,1,0-.3.84l144.18,50.95A.39.39,0,0,0,505.73,363.77Z" transform="translate(-21.63 -116.26)"/><path class="cls-84" d="M464.51,330.84l-6.66-.54L455,333s.68.94,2.82.4a31,31,0,0,1,5.05-.68s2.95,1.33,3-1.15Z" transform="translate(-21.63 -116.26)"/><path class="cls-3" d="M307.4,291h-2.87a.58.58,0,1,1,0-1.15h2.87a.58.58,0,0,1,0,1.15Zm-5.74,0h-2.87a.58.58,0,1,1,0-1.15h2.87a.58.58,0,0,1,0,1.15Zm-5.74,0h-2.87a.58.58,0,1,1,0-1.15h2.87a.58.58,0,0,1,0,1.15Zm-5.74,0h-2.87a.58.58,0,1,1,0-1.15h2.87a.58.58,0,0,1,0,1.15Zm-5.74,0h-2.87a.58.58,0,0,1,0-1.15h2.87a.58.58,0,0,1,0,1.15Zm-5.74,0h-2.87a.58.58,0,0,1,0-1.15h2.87a.58.58,0,0,1,0,1.15ZM273,291h-2.87a.58.58,0,0,1,0-1.15H273a.58.58,0,0,1,0,1.15Zm-5.74,0h-2.87a.58.58,0,0,1,0-1.15h2.87a.58.58,0,0,1,0,1.15Zm-5.74,0h-2.87a.58.58,0,0,1,0-1.15h2.87a.58.58,0,1,1,0,1.15Zm-5.74,0h-2.87a.58.58,0,0,1,0-1.15h2.87a.58.58,0,1,1,0,1.15ZM250,291h-2.87a.58.58,0,0,1,0-1.15H250a.58.58,0,1,1,0,1.15Zm-5.74,0h-2.87a.58.58,0,0,1,0-1.15h2.87a.58.58,0,1,1,0,1.15Zm-5.74,0h-2.87a.58.58,0,0,1,0-1.15h2.87a.58.58,0,1,1,0,1.15Zm-5.74,0h-2.87a.58.58,0,0,1,0-1.15h2.87a.58.58,0,1,1,0,1.15ZM227,291h-2.87a.58.58,0,0,1,0-1.15H227a.58.58,0,1,1,0,1.15Zm-5.74,0h-2.87a.58.58,0,0,1,0-1.15h2.87a.58.58,0,1,1,0,1.15Zm-5.73,0H212.7a.58.58,0,1,1,0-1.15h2.87a.58.58,0,0,1,0,1.15Zm-5.74,0H207a.58.58,0,1,1,0-1.15h2.87a.58.58,0,0,1,0,1.15Zm-5.74,0h-2.87a.58.58,0,1,1,0-1.15h2.87a.58.58,0,0,1,0,1.15Zm-5.74,0h-2.87a.58.58,0,1,1,0-1.15h2.87a.58.58,0,0,1,0,1.15Zm-5.74,0h-2.87a.58.58,0,1,1,0-1.15h2.87a.58.58,0,0,1,0,1.15Zm116.68-1h0a.58.58,0,0,1-.57-.58l.06-2.87a.57.57,0,0,1,.57-.57h0a.59.59,0,0,1,.57.59l-.06,2.87A.57.57,0,0,1,309.29,290Zm.11-5.74h0a.58.58,0,0,1-.57-.58l.06-2.87a.57.57,0,0,1,.57-.56h0a.57.57,0,0,1,.57.58l-.06,2.87A.57.57,0,0,1,309.4,284.23Zm.11-5.74h0a.57.57,0,0,1-.57-.58L309,275a.56.56,0,0,1,.58-.56.58.58,0,0,1,.57.58l-.06,2.87A.57.57,0,0,1,309.51,278.49Zm.11-5.73h0a.59.59,0,0,1-.57-.59l.06-2.87a.58.58,0,0,1,1.15,0l-.06,2.87A.57.57,0,0,1,309.62,272.76Zm.11-5.74h0a.59.59,0,0,1-.57-.59l.06-2.87a.57.57,0,0,1,.57-.56h0a.59.59,0,0,1,.57.59l-.06,2.86A.57.57,0,0,1,309.73,267ZM553.51,265a.57.57,0,0,1-.57-.57l0-2.87a.58.58,0,0,1,.57-.58h0a.58.58,0,0,1,.57.57l0,2.87a.57.57,0,0,1-.57.58Zm-243.67-3.68h0a.59.59,0,0,1-.57-.59l.06-2.87a.58.58,0,0,1,1.15,0l-.06,2.87A.57.57,0,0,1,309.84,261.28Zm243.63-2.06a.58.58,0,0,1-.58-.57l0-2.87a.58.58,0,1,1,1.15,0l0,2.87a.57.57,0,0,1-.57.58ZM310,255.54h0a.58.58,0,0,1-.57-.58l.06-2.87a.58.58,0,0,1,.57-.57h0a.59.59,0,0,1,.57.59l-.06,2.87A.57.57,0,0,1,310,255.54Zm243.47-2.06a.57.57,0,0,1-.57-.57l0-2.87a.58.58,0,0,1,.57-.58h0a.59.59,0,0,1,.58.57l0,2.87a.58.58,0,0,1-.57.58ZM310.06,249.8h0a.58.58,0,0,1-.57-.58l.06-2.87a.58.58,0,0,1,.57-.57h0a.57.57,0,0,1,.57.58l-.06,2.87A.57.57,0,0,1,310.06,249.8Zm243.32-2.06a.57.57,0,0,1-.57-.57l0-2.87a.59.59,0,0,1,.57-.58h0a.58.58,0,0,1,.57.57l0,2.87a.57.57,0,0,1-.57.58Zm-243.21-3.68h0a.57.57,0,0,1-.57-.58l.06-2.87a.57.57,0,0,1,.57-.56h0a.57.57,0,0,1,.57.58l-.06,2.87A.57.57,0,0,1,310.17,244.06ZM553.34,242a.58.58,0,0,1-.58-.57l0-2.87a.58.58,0,1,1,1.15,0l0,2.87a.57.57,0,0,1-.57.58Zm-243.06-3.67h0a.59.59,0,0,1-.57-.59l.06-2.87a.58.58,0,0,1,1.15,0l-.06,2.87A.57.57,0,0,1,310.28,238.33Zm243-2.07a.57.57,0,0,1-.57-.57l0-2.87a.57.57,0,0,1,.57-.57h0a.58.58,0,0,1,.58.57l0,2.86a.58.58,0,0,1-.57.58Zm-242.9-3.67h0a.59.59,0,0,1-.57-.59l.06-2.87a.58.58,0,0,1,.58-.56.58.58,0,0,1,.57.58L311,232A.57.57,0,0,1,310.39,232.59Zm242.86-2.07a.57.57,0,0,1-.57-.57l0-2.87a.58.58,0,0,1,.57-.57h0a.57.57,0,0,1,.57.57l0,2.87a.56.56,0,0,1-.57.57ZM310.5,226.85h0a.59.59,0,0,1-.57-.59l.06-2.87a.57.57,0,0,1,.57-.56h0a.59.59,0,0,1,.57.59l-.06,2.87A.57.57,0,0,1,310.5,226.85Zm242.71-2.07a.58.58,0,0,1-.58-.57l0-2.86a.57.57,0,0,1,.57-.58h0a.57.57,0,0,1,.57.57l0,2.87a.57.57,0,0,1-.57.57Zm-242.6-3.67h0a.57.57,0,0,1-.56-.58l0-2.87a.58.58,0,0,1,.57-.57h0a.59.59,0,0,1,.57.59l-.06,2.87A.57.57,0,0,1,310.61,221.11ZM553.16,219a.57.57,0,0,1-.57-.56l0-2.87a.57.57,0,0,1,.57-.58h0a.58.58,0,0,1,.58.57l0,2.87a.58.58,0,0,1-.57.57Zm-242.44-3.67h0a.56.56,0,0,1-.56-.58l.05-2.87a.58.58,0,1,1,1.15,0l-.06,2.87A.57.57,0,0,1,310.72,215.37Zm242.4-2.06a.58.58,0,0,1-.57-.57l0-2.87a.58.58,0,0,1,.57-.58h0a.57.57,0,0,1,.57.57l0,2.87a.58.58,0,0,1-.56.58Zm-242.29-3.68h0a.56.56,0,0,1-.56-.58l.05-2.87a.57.57,0,0,1,.57-.56h0a.57.57,0,0,1,.56.58l-.06,2.87A.57.57,0,0,1,310.83,209.63Zm242.25-2.06a.59.59,0,0,1-.58-.57l0-2.87a.57.57,0,0,1,.57-.58.56.56,0,0,1,.58.57l0,2.87a.58.58,0,0,1-.57.58Zm-242.14-3.68h0a.56.56,0,0,1-.56-.58l.05-2.87a.57.57,0,0,1,.57-.56h0a.58.58,0,0,1,.56.58l-.06,2.87A.57.57,0,0,1,310.94,203.89ZM553,201.83a.58.58,0,0,1-.57-.57l0-2.87a.57.57,0,0,1,.57-.58h0a.58.58,0,0,1,.58.57l0,2.87a.58.58,0,0,1-.57.58Zm-242-3.67h0a.57.57,0,0,1-.56-.59l0-2.87a.57.57,0,0,1,.57-.56h0a.58.58,0,0,1,.56.58l-.06,2.87A.57.57,0,0,1,311.05,198.16ZM553,196.09a.58.58,0,0,1-.57-.57l0-2.87a.56.56,0,0,1,.56-.58h0a.57.57,0,0,1,.57.57l0,2.87a.57.57,0,0,1-.57.58Zm-241.83-3.67h0a.57.57,0,0,1-.56-.59l.05-2.87a.57.57,0,0,1,.57-.56h0a.59.59,0,0,1,.56.59l-.06,2.86A.57.57,0,0,1,311.16,192.42ZM553,190.35a.59.59,0,0,1-.58-.57l0-2.87a.57.57,0,0,1,.57-.58h0a.57.57,0,0,1,.57.57l0,2.87a.57.57,0,0,1-.57.58Zm-241.68-3.67h0a.57.57,0,0,1-.56-.59l.05-2.86a.58.58,0,0,1,.57-.57h0a.59.59,0,0,1,.56.59l-.06,2.87A.57.57,0,0,1,311.27,186.68Zm241.63-2.07a.58.58,0,0,1-.57-.57l0-2.87a.57.57,0,0,1,.57-.58.59.59,0,0,1,.58.57l0,2.87a.57.57,0,0,1-.57.58Zm-241.52-3.67h0a.57.57,0,0,1-.56-.58l.05-2.87a.58.58,0,1,1,1.15,0l-.06,2.87A.57.57,0,0,1,311.38,180.94Zm241.48-2.07a.57.57,0,0,1-.57-.57l0-2.87a.58.58,0,0,1,.57-.58h0a.58.58,0,0,1,.57.57l0,2.87a.56.56,0,0,1-.56.58ZM311.49,175.2h0a.56.56,0,0,1-.56-.58l.05-2.87a.58.58,0,0,1,.58-.56h0a.56.56,0,0,1,.56.58l-.06,2.87A.57.57,0,0,1,311.49,175.2Zm241.33-2.07a.58.58,0,0,1-.58-.57l0-2.87a.58.58,0,0,1,.57-.58h0a.58.58,0,0,1,.57.57l0,2.87a.57.57,0,0,1-.57.58Zm-2.57-3.2h-2.87a.57.57,0,1,1,0-1.14h2.87a.57.57,0,1,1,0,1.14Zm-5.74,0h-2.87a.57.57,0,0,1,0-1.14h2.87a.57.57,0,1,1,0,1.14Zm-5.74,0H535.9a.57.57,0,0,1,0-1.14h2.87a.57.57,0,1,1,0,1.14Zm-5.74,0h-2.87a.57.57,0,0,1,0-1.14H533a.57.57,0,1,1,0,1.14Zm-5.74,0h-2.87a.57.57,0,0,1,0-1.14h2.87a.57.57,0,1,1,0,1.14Zm-5.74,0h-2.87a.57.57,0,0,1,0-1.14h2.87a.57.57,0,1,1,0,1.14Zm-5.74,0h-2.87a.57.57,0,1,1,0-1.14h2.87a.57.57,0,1,1,0,1.14Zm-5.74,0H507.2a.57.57,0,0,1,0-1.14h2.87a.57.57,0,1,1,0,1.14Zm-5.74,0h-2.87a.57.57,0,0,1,0-1.14h2.87a.57.57,0,1,1,0,1.14Zm-5.74,0h-2.86a.57.57,0,1,1,0-1.14h2.86a.57.57,0,1,1,0,1.14Zm-5.73,0H490a.57.57,0,1,1,0-1.14h2.87a.57.57,0,0,1,0,1.14Zm-5.74,0h-2.87a.57.57,0,1,1,0-1.14h2.87a.57.57,0,0,1,0,1.14Zm-5.74,0h-2.87a.57.57,0,1,1,0-1.14h2.87a.57.57,0,0,1,0,1.14Zm-5.74,0h-2.87a.57.57,0,1,1,0-1.14h2.87a.57.57,0,0,1,0,1.14Zm-5.74,0H467a.57.57,0,1,1,0-1.14h2.87a.57.57,0,1,1,0,1.14Zm-5.74,0h-2.87a.57.57,0,1,1,0-1.14h2.87a.57.57,0,0,1,0,1.14Zm-5.74,0h-2.87a.57.57,0,1,1,0-1.14h2.87a.57.57,0,0,1,0,1.14Zm-5.74,0h-2.87a.57.57,0,0,1,0-1.14h2.87a.57.57,0,0,1,0,1.14Zm-5.74,0h-2.87a.57.57,0,0,1,0-1.14h2.87a.57.57,0,0,1,0,1.14Zm-5.74,0h-2.87a.57.57,0,0,1,0-1.14h2.87a.57.57,0,0,1,0,1.14Zm-5.74,0h-2.87a.57.57,0,0,1,0-1.14h2.87a.57.57,0,0,1,0,1.14Zm-5.74,0h-2.87a.57.57,0,1,1,0-1.14h2.87a.57.57,0,0,1,0,1.14Zm-5.74,0h-2.87a.57.57,0,0,1,0-1.14H424a.57.57,0,1,1,0,1.14Zm-5.74,0h-2.87a.57.57,0,0,1,0-1.14h2.87a.57.57,0,1,1,0,1.14Zm-5.74,0h-2.87a.57.57,0,0,1,0-1.14h2.87a.57.57,0,1,1,0,1.14Zm-5.74,0h-2.87a.57.57,0,0,1,0-1.14h2.87a.57.57,0,1,1,0,1.14Zm-5.74,0h-2.87a.57.57,0,0,1,0-1.14H401a.57.57,0,1,1,0,1.14Zm-5.74,0h-2.87a.57.57,0,1,1,0-1.14h2.87a.57.57,0,1,1,0,1.14Zm-5.74,0h-2.87a.57.57,0,0,1,0-1.14h2.87a.57.57,0,1,1,0,1.14Zm-5.74,0h-2.86a.57.57,0,1,1,0-1.14h2.86a.57.57,0,1,1,0,1.14Zm-5.73,0H375.2a.57.57,0,1,1,0-1.14h2.87a.57.57,0,0,1,0,1.14Zm-5.74,0h-2.87a.57.57,0,1,1,0-1.14h2.87a.57.57,0,0,1,0,1.14Zm-5.74,0h-2.87a.57.57,0,1,1,0-1.14h2.87a.57.57,0,1,1,0,1.14Zm-5.74,0H358a.57.57,0,1,1,0-1.14h2.87a.57.57,0,0,1,0,1.14Zm-5.74,0h-2.87a.57.57,0,1,1,0-1.14h2.87a.57.57,0,0,1,0,1.14Zm-5.74,0H346.5a.57.57,0,1,1,0-1.14h2.87a.57.57,0,0,1,0,1.14Zm-5.74,0h-2.87a.57.57,0,1,1,0-1.14h2.87a.57.57,0,1,1,0,1.14Zm-5.74,0H335a.57.57,0,0,1,0-1.14h2.87a.57.57,0,1,1,0,1.14Zm-5.74,0h-2.87a.57.57,0,0,1,0-1.14h2.87a.57.57,0,0,1,0,1.14Zm-5.74,0h-2.87a.57.57,0,0,1,0-1.14h2.87a.57.57,0,1,1,0,1.14Zm-5.74,0H317.8a.57.57,0,0,1,0-1.14h2.87a.57.57,0,1,1,0,1.14Zm-5.74,0h-2.87a.57.57,0,0,1,0-1.14h2.87a.57.57,0,1,1,0,1.14Z" transform="translate(-21.63 -116.26)"/><path class="cls-3" d="M186.09,280.84H154a3.39,3.39,0,0,1-3.39-3.32L147.76,136.9a3.4,3.4,0,0,1,3.64-3.45L186.33,136a3.4,3.4,0,0,1,3.15,3.38v138.1A3.39,3.39,0,0,1,186.09,280.84Z" transform="translate(-21.63 -116.26)"/><path class="cls-85" d="M155.64,190.77l.69,16.66a3,3,0,0,0,2.92,2.83l22.38.31a3,3,0,0,0,3-2.95V191a3,3,0,0,0-2.92-2.95l-23.07-.33A3,3,0,0,0,155.64,190.77Z" transform="translate(-21.63 -116.26)"/><path class="cls-86" d="M181.71,213.11l-22-.31a3,3,0,0,0-3,3.08l.69,16.65a3,3,0,0,0,2.91,2.84l21.34.3a3,3,0,0,0,3-3V216.06A3,3,0,0,0,181.71,213.11Z" transform="translate(-21.63 -116.26)"/><path class="cls-87" d="M184.63,157.43V144.9a3,3,0,0,0-2.58-2.93l-25.12-3.27a3,3,0,0,0-3.33,3.06l.64,15.45a3,3,0,0,0,2.91,2.84l24.48.34A3,3,0,0,0,184.63,157.43Z" transform="translate(-21.63 -116.26)"/><path class="cls-88" d="M154.59,165.66l.7,16.66a2.94,2.94,0,0,0,2.91,2.83l23.43.33a3,3,0,0,0,3-2.95V165.88a3,3,0,0,0-2.92-3l-24.12-.33A3,3,0,0,0,154.59,165.66Z" transform="translate(-21.63 -116.26)"/><path class="cls-86" d="M157.73,241l.51,12.12a3,3,0,0,0,2.95,2.83h20.48a3,3,0,0,0,3-3V241.16a3,3,0,0,0-2.92-3l-21-.29A3,3,0,0,0,157.73,241Z" transform="translate(-21.63 -116.26)"/><path class="cls-3" d="M188.44,279l-29.9,11.55a3.38,3.38,0,0,1-4.35-1.88L100.82,158.53A3.38,3.38,0,0,1,103,154l33.49-10.24a3.4,3.4,0,0,1,4.16,2l49.77,128.82A3.4,3.4,0,0,1,188.44,279Z" transform="translate(-21.63 -116.26)"/><g class="cls-89"><path class="cls-90" d="M127.58,205.94l6.65,15.29a2.94,2.94,0,0,0,3.73,1.59l21-7.77a3,3,0,0,0,1.73-3.84l-6-15.53a3,3,0,0,0-3.79-1.7l-21.64,8A3,3,0,0,0,127.58,205.94Z" transform="translate(-21.63 -116.26)"/><path class="cls-91" d="M160,217.38,139.29,225a3,3,0,0,0-1.69,4l6.65,15.28a3,3,0,0,0,3.74,1.6l20-7.42a3,3,0,0,0,1.73-3.83l-6-15.53A3,3,0,0,0,160,217.38Z" transform="translate(-21.63 -116.26)"/><path class="cls-92" d="M142.6,164.4l-4.52-11.69a3,3,0,0,0-3.46-1.81l-24.61,6a3,3,0,0,0-2,4.05l6.18,14.18a3,3,0,0,0,3.73,1.6l23-8.5A3,3,0,0,0,142.6,164.4Z" transform="translate(-21.63 -116.26)"/><path class="cls-93" d="M117.55,182.9l6.65,15.29a3,3,0,0,0,3.74,1.59l22-8.14a3,3,0,0,0,1.73-3.84l-6-15.52a3,3,0,0,0-3.78-1.71L119.23,179A3,3,0,0,0,117.55,182.9Z" transform="translate(-21.63 -116.26)"/><path class="cls-94" d="M147.63,252l4.84,11.12a2.94,2.94,0,0,0,3.77,1.58l19.1-7.38a3,3,0,0,0,1.7-3.82l-4.27-11a3,3,0,0,0-3.78-1.71l-19.68,7.29A3,3,0,0,0,147.63,252Z" transform="translate(-21.63 -116.26)"/></g><path class="cls-3" d="M190.3,275.67l-20.47,24.65a3.39,3.39,0,0,1-4.72.48l-110-87.63a3.39,3.39,0,0,1-.33-5L79,182.91a3.4,3.4,0,0,1,4.61-.26l106.23,88.24A3.39,3.39,0,0,1,190.3,275.67Z" transform="translate(-21.63 -116.26)"/><path class="cls-95" d="M101.56,241.53l13.26,10.11a3,3,0,0,0,4-.43l14.54-17A3,3,0,0,0,133,230l-12.8-10.64a3,3,0,0,0-4.14.36l-15,17.54A3,3,0,0,0,101.56,241.53Z" transform="translate(-21.63 -116.26)"/><path class="cls-88" d="M135.4,235.75,121.09,252.5a3,3,0,0,0,.46,4.27l13.25,10.11a3,3,0,0,0,4-.43l13.86-16.22a3,3,0,0,0-.35-4.2L139.54,235.4A3,3,0,0,0,135.4,235.75Z" transform="translate(-21.63 -116.26)"/><path class="cls-96" d="M94.44,197.93l-9.64-8a3,3,0,0,0-3.9.11L62.33,207.27a3,3,0,0,0,.22,4.52l12.31,9.38a3,3,0,0,0,4-.43l15.9-18.61A3,3,0,0,0,94.44,197.93Z" transform="translate(-21.63 -116.26)"/><path class="cls-87" d="M81.58,226.3l13.26,10.1a2.94,2.94,0,0,0,4-.43l15.22-17.81a3,3,0,0,0-.36-4.19l-12.8-10.64a3,3,0,0,0-4.14.35L81.13,222A3,3,0,0,0,81.58,226.3Z" transform="translate(-21.63 -116.26)"/><path class="cls-85" d="M141.53,272l9.64,7.35a3,3,0,0,0,4.07-.46l13.09-15.75a3,3,0,0,0-.39-4.16l-9.1-7.56a3,3,0,0,0-4.13.35l-13.64,16A3,3,0,0,0,141.53,272Z" transform="translate(-21.63 -116.26)"/><path class="cls-6" d="M112,287l79.56-.71a2.79,2.79,0,0,1,2.82,2.81l-.35,61a2.8,2.8,0,0,1-2.88,2.78c-14.38-.43-78.24-2.32-81.06-2.2s-1.27-48.92-.86-61A2.8,2.8,0,0,1,112,287Z" transform="translate(-21.63 -116.26)"/><path class="cls-97" d="M191.21,350.58h0c-11.44-.34-69-2.05-79.57-2.2h-.12l0-.12c-1-5.62-1-28.58,0-58.49a.46.46,0,0,1,.46-.45l79.56-.71a.46.46,0,0,1,.33.13.47.47,0,0,1,.14.33l-.35,61.05A.47.47,0,0,1,191.21,350.58Zm-79.47-2.48c10.84.16,68.06,1.86,79.46,2.19h0a.18.18,0,0,0,.17-.18l.35-61.05a.17.17,0,0,0,0-.12.18.18,0,0,0-.13-.06l-79.55.72a.17.17,0,0,0-.18.17C110.8,319.47,110.77,342.3,111.74,348.1Z" transform="translate(-21.63 -116.26)"/><path class="cls-98" d="M104,501.45c4.14.19,8.14.07,10.81-.07-2.43-1.73-8-5.5-12.73-7l-3.22-.19a13.15,13.15,0,0,0-1.48,5.46C97.93,500.31,99.49,501.24,104,501.45Z" transform="translate(-21.63 -116.26)"/><path class="cls-99" d="M114.85,501.41l0,0c-2.67.14-6.67.26-10.81.07-4.52-.21-6.08-1.14-6.62-1.8,0,.17,0,.35,0,.53a1.52,1.52,0,0,0,1.39,1.63c3.38.25,11.78.83,15.83.62A.56.56,0,0,0,114.85,501.41Z" transform="translate(-21.63 -116.26)"/><path class="cls-100" d="M74.44,500.34a31.51,31.51,0,0,0-1.16-5.46c-.59-1.13-2.61,0-2.61,0a5.34,5.34,0,0,0-2.06,1.76c-.42.7-1.56,2.69-2.34,4.05a.84.84,0,0,0-.12.48l8.06.28A1.62,1.62,0,0,0,74.44,500.34Z" transform="translate(-21.63 -116.26)"/><path class="cls-101" d="M66.15,501.17a.91.91,0,0,0,.89.89l5.75.16a1.62,1.62,0,0,0,1.42-.77Z" transform="translate(-21.63 -116.26)"/><path class="cls-102" d="M75.06,488.43c-.07.23-1.11,5.28-1.57,7.5a1.27,1.27,0,0,1-1.3,1,10.3,10.3,0,0,1-1.16-.1,1.52,1.52,0,0,1-1.33-1.46c-.07-1.94-.11-5.67.6-7.11C71.29,486.27,75.06,488.43,75.06,488.43Z" transform="translate(-21.63 -116.26)"/><path class="cls-103" d="M98.24,489.87c.45,0-.18,2.31.5,4.6a1.18,1.18,0,0,0,1.07.92c.35,0,.76,0,1.18,0a1.3,1.3,0,0,0,1.2-1.17l.55-5.92Z" transform="translate(-21.63 -116.26)"/><path class="cls-104" d="M110.75,426.93c-.2,1-7.25,42.06-7.67,63.32a.73.73,0,0,1-.63.7,14.46,14.46,0,0,1-4.32,0,.5.5,0,0,1-.42-.47c-.25-4-2.23-37.45.2-53.22,0,0-20,42.15-23.06,53.77a.63.63,0,0,1-.63.46,15.39,15.39,0,0,1-4.06-.72,1.08,1.08,0,0,1-.67-1.25c1.7-6.95,13.59-54.87,21.66-65.43Z" transform="translate(-21.63 -116.26)"/><path class="cls-105" d="M97.91,437.49a.26.26,0,0,1-.19-.44l2.68-2.74a.26.26,0,0,1,.38.36l-2.68,2.75A.28.28,0,0,1,97.91,437.49Z" transform="translate(-21.63 -116.26)"/><path class="cls-106" d="M135.54,375.48a25.5,25.5,0,0,1-13.32,0c-5.86-1.54-17.41-4.08-25.28-2.66l-.65,20.58,26.89,3.07.24-5.46s16.35-2.36,25.2-13.11a43.43,43.43,0,0,1-5-6.7A21.07,21.07,0,0,1,135.54,375.48Z" transform="translate(-21.63 -116.26)"/><path class="cls-107" d="M153.36,355.19l-2.07-.91s.1,10.36-7.62,17a43.43,43.43,0,0,0,5,6.7C153,372.63,155.51,365.29,153.36,355.19Z" transform="translate(-21.63 -116.26)"/><path class="cls-108" d="M109.82,361.41s-1.56,9.31-1.77,12.24c0,0,7.54,2.08,9.51,1l-.25-11.27Z" transform="translate(-21.63 -116.26)"/><path class="cls-6" d="M70.59,389.33l54.48-.45a2.74,2.74,0,0,1,2.75,2.75l-.28,36.7a2.73,2.73,0,0,1-2.81,2.71l-53.76-2a2.73,2.73,0,0,1-2.65-2.69l-.44-34.28A2.74,2.74,0,0,1,70.59,389.33Z" transform="translate(-21.63 -116.26)"/><path class="cls-109" d="M124.81,428.71l-53.77-2a.41.41,0,0,1-.39-.39l-.44-34.28a.41.41,0,0,1,.4-.4l54.48-.45a.36.36,0,0,1,.28.12.38.38,0,0,1,.12.28l-.28,36.7A.4.4,0,0,1,124.81,428.71Zm.28-37.21L70.61,392a.13.13,0,0,0-.08,0,.1.1,0,0,0,0,.08l.44,34.28a.11.11,0,0,0,.11.1h0l53.77,2a.11.11,0,0,0,.1-.11l.28-36.7a.1.1,0,0,0-.11-.11Z" transform="translate(-21.63 -116.26)"/><path class="cls-110" d="M110.16,425.29a.84.84,0,0,1-.62-.28l-1.61-1.92a13.12,13.12,0,0,1-3.54-.09l-1.71,1.83a.8.8,0,0,1-.92.19l-3.09-1.37a.81.81,0,0,1-.48-.81l.22-2.5A12.87,12.87,0,0,1,96,417.78l-2.51.09a.81.81,0,0,1-.78-.52l-1.22-3.16a.82.82,0,0,1,.23-.91l1.92-1.61a13.12,13.12,0,0,1,.09-3.54l-1.84-1.71a.81.81,0,0,1-.18-.92l1.37-3.1a.81.81,0,0,1,.81-.47l2.5.21a12.87,12.87,0,0,1,2.56-2.44l-.09-2.51a.82.82,0,0,1,.52-.78l3.16-1.21a.79.79,0,0,1,.9.23l1.62,1.92a13.12,13.12,0,0,1,3.54.09l1.71-1.84a.81.81,0,0,1,.92-.19l3.09,1.38a.8.8,0,0,1,.48.8l-.22,2.51a12.87,12.87,0,0,1,2.44,2.56l2.51-.09a.81.81,0,0,1,.78.52l1.22,3.16a.81.81,0,0,1-.23.9l-1.92,1.62a13.13,13.13,0,0,1-.09,3.54L121.1,414a.81.81,0,0,1,.18.92L119.91,418a.8.8,0,0,1-.81.48l-2.5-.22a12.87,12.87,0,0,1-2.56,2.44l.09,2.51a.81.81,0,0,1-.52.78l-3.16,1.22A.71.71,0,0,1,110.16,425.29Zm-1.76-3.42,1.87,2.21,2.7-1-.1-2.89.26-.18a11.8,11.8,0,0,0,2.75-2.62l.19-.26,2.89.25,1.18-2.65-2.12-2,0-.31a11.55,11.55,0,0,0,.1-3.8l0-.31,2.21-1.87-1-2.7-2.89.1-.18-.26a11.6,11.6,0,0,0-2.62-2.75l-.25-.2.24-2.88L111,396.56l-2,2.12-.31-.06a11.55,11.55,0,0,0-3.8-.09l-.31,0-1.87-2.21-2.7,1,.1,2.89-.26.18a11.8,11.8,0,0,0-2.75,2.62l-.19.25L94,403.09l-1.18,2.65,2.12,2-.06.31a11.82,11.82,0,0,0-.09,3.8l0,.31L92.62,414l1,2.71,2.89-.1.18.26a11.8,11.8,0,0,0,2.62,2.75l.25.19-.25,2.89,2.65,1.17,2-2.12.31.06a11.82,11.82,0,0,0,3.8.1Zm4.58,1.41Zm7.33-8.42Zm-27.66-9.28Zm26.56-2.08ZM100,397.15Zm6.44,21.79a8.76,8.76,0,0,1-8.17-5.6,8.75,8.75,0,1,1,16.81-4.49.58.58,0,0,1-1.14.18,7.29,7.29,0,0,0-.42-1.57,7.57,7.57,0,1,0-1.1,7.42.57.57,0,1,1,.9.7,8.68,8.68,0,0,1-3.74,2.78A8.85,8.85,0,0,1,106.42,418.94Z" transform="translate(-21.63 -116.26)"/><path class="cls-111" d="M106.49,413.8a3.58,3.58,0,1,1,2.92-5.65h0a3.58,3.58,0,0,1,.6,2.68,3.59,3.59,0,0,1-3.52,3Zm0-6a2.44,2.44,0,1,0,1.41,4.43,2.43,2.43,0,0,0-1-4.39A3,3,0,0,0,106.47,407.78Z" transform="translate(-21.63 -116.26)"/><path class="cls-112" d="M81.45,410h-.06l-1.62-.2a.53.53,0,0,1-.47-.42l-.23-1.1a6,6,0,0,1-1.37-.78l-1.07.36a.52.52,0,0,1-.6-.18l-1-1.28a.54.54,0,0,1,0-.63l.61-.94a6.73,6.73,0,0,1-.42-1.52l-1-.5a.53.53,0,0,1-.3-.55l.2-1.62a.54.54,0,0,1,.43-.46l1.1-.24a6,6,0,0,1,.78-1.37L76,397.52a.55.55,0,0,1,.18-.6l1.29-1a.54.54,0,0,1,.62,0l1,.62a6.27,6.27,0,0,1,1.52-.43l.5-1a.56.56,0,0,1,.55-.3l1.62.2a.54.54,0,0,1,.46.43l.23,1.1a6.28,6.28,0,0,1,1.38.78l1.06-.37a.55.55,0,0,1,.6.18l1,1.29a.54.54,0,0,1,0,.63l-.61.94a6.24,6.24,0,0,1,.42,1.52l1,.5a.53.53,0,0,1,.3.55l-.2,1.62a.54.54,0,0,1-.42.46l-1.1.24a6.84,6.84,0,0,1-.78,1.37l.36,1.06a.53.53,0,0,1-.18.61l-1.28,1a.56.56,0,0,1-.63,0l-.94-.62a5.79,5.79,0,0,1-1.53.42l-.49,1A.54.54,0,0,1,81.45,410Zm-1.3-.81ZM80.1,409l1.17.14.6-1.23.23,0a6,6,0,0,0,1.72-.47l.21-.1,1.15.74.92-.72-.44-1.3.15-.18a5.51,5.51,0,0,0,.88-1.55l.08-.22,1.34-.28.14-1.17L87,402l0-.24a5.66,5.66,0,0,0-.48-1.71l-.1-.21.75-1.15-.72-.93-1.3.45L85,398.1a5.54,5.54,0,0,0-1.55-.88l-.22-.08-.29-1.34-1.16-.14-.6,1.23-.24,0a5.37,5.37,0,0,0-1.71.47l-.22.1-1.14-.74-.93.72.44,1.29-.15.19a5.48,5.48,0,0,0-.87,1.55l-.08.22-1.34.28-.15,1.17,1.23.6,0,.23a5.36,5.36,0,0,0,.47,1.72l.1.21-.74,1.15.72.93,1.29-.45.19.15a5.35,5.35,0,0,0,1.54.88l.23.08Zm-3.39-1.83h0Zm11.62-3.41Zm-13.39-3h0Zm12.37-1.85Zm0-.37Zm-10.56-.94Zm6.14-2Zm-1.39,11.18-.54,0a4.36,4.36,0,1,1,4-7,4.25,4.25,0,0,1,.49.78.42.42,0,0,1-.2.58.43.43,0,0,1-.57-.2,3.2,3.2,0,0,0-.4-.63,3.48,3.48,0,0,0-4.91-.61A3.43,3.43,0,0,0,78,402a3.5,3.5,0,0,0,6.74,1.69.43.43,0,0,1,.8.31,4.36,4.36,0,0,1-4.06,2.79Z" transform="translate(-21.63 -116.26)"/><path class="cls-113" d="M103.54,384l-6.6-11.1s-13.8,11.82-18,28.26l7.32,4.6C89.29,400.34,94.52,393.2,103.54,384Z" transform="translate(-21.63 -116.26)"/><path class="cls-114" d="M89.26,429.73c-.84,0-1.49-.13-1.85-.89a53.07,53.07,0,0,0-2.58-5.06.39.39,0,0,1,.26-.6,4.51,4.51,0,0,1,1.78.09,2.54,2.54,0,0,0,2.68-.66.39.39,0,0,0-.19-.57l-6.52-2.8a.39.39,0,0,1-.22-.25c-.3-1.06-.89-5,3.48-12.95a.39.39,0,0,0-.13-.53l-6.54-4.11a.39.39,0,0,0-.59.24,34.87,34.87,0,0,0,.71,19.47.43.43,0,0,0,0,.05c.08.47,1.46,8.06,4.17,9.64s7.12-1,7.12-1Z" transform="translate(-21.63 -116.26)"/><path class="cls-115" d="M118.29,352.82s2.51,5.76,2.68,8.78.82,5-2.68,5.59a7.42,7.42,0,0,1-8-4.14s-2.5-4.64-1.94-6.54S118.29,352.82,118.29,352.82Z" transform="translate(-21.63 -116.26)"/><path class="cls-116" d="M111.45,360.89h.45s-1.82-3.74-.23-4.39,7.94-1.95,9.3-4.2a4.18,4.18,0,0,0-1.61-5.75.24.24,0,0,0-.3.11l-.15.28a.23.23,0,0,1-.43-.05h0a.24.24,0,0,0-.43-.06c-.42.67-1.55,1.76-4.59,2.32-4.31.8-7.16,2.55-7.23,5.52a.24.24,0,0,1-.37.2c-.32-.19-.82-.29-1.51.29-1.18,1-.69,3.57,1.9,5.7a.24.24,0,0,1,0,.38c-.47.3-1.17,1,.64,2a4.8,4.8,0,0,0,3.38.78.23.23,0,0,0,.18-.24l-.17-2.64a.25.25,0,0,1,.24-.25Z" transform="translate(-21.63 -116.26)"/><path class="cls-117" d="M111.56,361.44s-1-3.68-2.6-2.65.85,4.12,2.18,4.26Z" transform="translate(-21.63 -116.26)"/><path class="cls-118" d="M145.57,346.56v4.16s3.38,4.3,7.79,4.47c0,0,3.89-.25,3.76-3.13l-6.22-1.19a29.23,29.23,0,0,1-3.33-1.16S147,346.69,145.57,346.56Z" transform="translate(-21.63 -116.26)"/><path class="cls-119" d="M121.57,342.76h52.15a2.1,2.1,0,0,0,1.81-3.16l-20.64-35.1a2.1,2.1,0,0,0-3.72.19l-10,21.85a2.1,2.1,0,0,1-3.33.67l-4-3.69a2.09,2.09,0,0,0-3.14.35l-10.85,15.59A2.1,2.1,0,0,0,121.57,342.76Z" transform="translate(-21.63 -116.26)"/><circle class="cls-120" cx="173.01" cy="303.44" r="7.5" transform="translate(-153.82 357.08) rotate(-89.41)"/><path class="cls-121" d="M417.76,198.39a15.7,15.7,0,0,1,9.57,3.25l5.61-7.93A25,25,0,0,0,418.3,189c-.73,0-1.45,0-2.17.1l1.44,9.3Z" transform="translate(-21.63 -116.26)"/><path class="cls-88" d="M417.76,229.84c-8.68,0-17.5-6.47-17.5-15.16s8.69-16.17,17.31-16.28l-1.44-9.3c-13.14,1.18-25.8,12.78-25.8,25.93,0,13.87,14.09,24.2,28,24.2a25,25,0,0,0,10.2-2.17L422.86,229A15.91,15.91,0,0,1,417.76,229.84Z" transform="translate(-21.63 -116.26)"/><path class="cls-87" d="M443.41,214.11a25.08,25.08,0,0,0-10.47-20.4l-5.61,7.93A15.73,15.73,0,0,1,422.86,229l5.64,8.07A25.1,25.1,0,0,0,443.41,214.11Z" transform="translate(-21.63 -116.26)"/><path class="cls-6" d="M489.44,198.39a15.71,15.71,0,0,1,14.08,8.72L510,199A25.07,25.07,0,0,0,490,189a28.94,28.94,0,0,0-18,6.77l5.74,7.24A18.22,18.22,0,0,1,489.44,198.39Z" transform="translate(-21.63 -116.26)"/><path class="cls-5" d="M471.94,214.68A15.81,15.81,0,0,1,477.75,203L472,195.77c-5.92,4.84-10,11.8-10,19.26,0,13.69,13.74,23.93,27.44,24.19l-.44-9.39C480.47,229.61,471.94,223.22,471.94,214.68Z" transform="translate(-21.63 -116.26)"/><path class="cls-2" d="M489.44,229.84H489l.44,9.39H490a25.12,25.12,0,0,0,22.35-13.66c-2.41-1.08-6-2.63-9.06-4A15.71,15.71,0,0,1,489.44,229.84Z" transform="translate(-21.63 -116.26)"/><path class="cls-5" d="M510,199l-6.48,8.16a15.69,15.69,0,0,1-.25,14.49c3.09,1.34,6.65,2.89,9.06,4A25.14,25.14,0,0,0,510,199Z" transform="translate(-21.63 -116.26)"/><path class="cls-6" d="M561.12,198.39a15.65,15.65,0,0,1,9,2.85l5.07-8.27a25,25,0,0,0-13.55-4,29.08,29.08,0,0,0-18.49,7.2l6,7A18.28,18.28,0,0,1,561.12,198.39Z" transform="translate(-21.63 -116.26)"/><path class="cls-122" d="M576.82,213.21l9.79-2A25.11,25.11,0,0,0,575.21,193l-5.07,8.27A15.71,15.71,0,0,1,576.82,213.21Z" transform="translate(-21.63 -116.26)"/><path class="cls-5" d="M543.62,214.68a15.72,15.72,0,0,1,5.56-11.45l-6-7c-5.64,4.82-9.48,11.59-9.48,18.83,0,9,5.92,16.48,13.86,20.65l4.91-8C547.41,225.11,543.62,220.37,543.62,214.68Z" transform="translate(-21.63 -116.26)"/><path class="cls-123" d="M576.82,213.21q0,.45,0,.9a15.73,15.73,0,0,1-15.73,15.73,19.09,19.09,0,0,1-8.66-2.14l-4.91,8a30.56,30.56,0,0,0,14.11,3.55,25.12,25.12,0,0,0,25.12-25.12,27.49,27.49,0,0,0-.17-2.88Z" transform="translate(-21.63 -116.26)"/><path class="cls-2" d="M439.32,129.39l-93.85-.52a4.93,4.93,0,0,0-4.26,7.46l.48.78a4.91,4.91,0,0,0,4.22,2.4h93.38a4.93,4.93,0,0,0,4.93-4.93v-.26A4.93,4.93,0,0,0,439.32,129.39Z" transform="translate(-21.63 -116.26)"/><path class="cls-2" d="M452.43,134.43v.15a4.93,4.93,0,0,0,4.93,4.93h20.83a4.93,4.93,0,0,0,4.76-3.66h0a4.93,4.93,0,0,0-4.72-6.2l-20.84-.15A4.93,4.93,0,0,0,452.43,134.43Z" transform="translate(-21.63 -116.26)"/><path class="cls-2" d="M416.74,147.07l-71.27-.52a4.93,4.93,0,0,0-4.26,7.46l.48.79a4.93,4.93,0,0,0,4.22,2.39h70.81a4.93,4.93,0,0,0,4.92-4.93V152A4.93,4.93,0,0,0,416.74,147.07Z" transform="translate(-21.63 -116.26)"/><path class="cls-2" d="M429.85,152.11v.15a4.93,4.93,0,0,0,4.93,4.93h20.83a4.92,4.92,0,0,0,4.76-3.66h0a4.92,4.92,0,0,0-4.72-6.19l-20.83-.16A4.94,4.94,0,0,0,429.85,152.11Z" transform="translate(-21.63 -116.26)"/><path class="cls-5" d="M301.1,176.52a1.5,1.5,0,0,0-1,.42l-20.73,19.63a9.6,9.6,0,0,1-6.64,2.65H202.15a1.53,1.53,0,1,0,0,3.05h70.54a12.69,12.69,0,0,0,8.74-3.48l20.72-19.63a1.53,1.53,0,0,0-1-2.64Z" transform="translate(-21.63 -116.26)"/><path class="cls-5" d="M261.86,208.69H202.15a1.53,1.53,0,1,0,0,3.05h59.71a1.53,1.53,0,0,0,0-3.05Z" transform="translate(-21.63 -116.26)"/><path class="cls-5" d="M252.14,218.15h-50a1.53,1.53,0,1,0,0,3h50a1.53,1.53,0,1,0,0-3Z" transform="translate(-21.63 -116.26)"/></svg>