<svg id="Layer_1" data-name="Layer 1" xmlns="http://www.w3.org/2000/svg" viewBox="0 0 66.46 66.46"><defs><style>.cls-1{fill:#f4f9fc;}.cls-2{fill:#f07e3a;stroke:#f07e3a;}.cls-2,.cls-3{stroke-miterlimit:10;stroke-width:0.5px;}.cls-3{stroke:#000;}</style></defs><circle class="cls-1" cx="11.59" cy="4.63" r="3.09"/><circle class="cls-1" cx="33.23" cy="8.49" r="3.09"/><circle class="cls-1" cx="61.83" cy="12.03" r="3.09"/><circle class="cls-1" cx="57.97" cy="33.23" r="3.09"/><circle class="cls-1" cx="8.49" cy="33.03" r="3.09"/><circle class="cls-1" cx="4.63" cy="54.87" r="3.09"/><circle class="cls-1" cx="32.97" cy="57.97" r="3.09"/><circle class="cls-1" cx="54.87" cy="61.83" r="3.09"/><rect class="cls-1" x="22.5" y="21.98" width="22.31" height="23.07"/><path class="cls-2" d="M33,40.92H42.3a1.29,1.29,0,0,0,1.29-1.29V30.36a1.29,1.29,0,0,0-1.29-1.29H33a1.29,1.29,0,0,0-1.29,1.29v9.27A1.29,1.29,0,0,0,33,40.92Zm1.29-9.27H41v6.69h-6.7Z" transform="translate(-4.43 -1.77)"/><path class="cls-3" d="M66.26,9a4.38,4.38,0,1,0,4.38,4.38A4.39,4.39,0,0,0,66.26,9Zm0,6.19a1.81,1.81,0,1,1,1.8-1.81A1.81,1.81,0,0,1,66.26,15.16Z" transform="translate(-4.43 -1.77)"/><path class="cls-3" d="M58.72,14.64a1.29,1.29,0,1,0,0-2.58,1.29,1.29,0,0,0,0,2.58Z" transform="translate(-4.43 -1.77)"/><path class="cls-3" d="M62.4,30.61a4.39,4.39,0,0,0-4.19,3.1H50.28v-10A1.28,1.28,0,0,0,49,22.37H46.93V14.64h7.22a1.29,1.29,0,0,0,0-2.58h-8.5a1.29,1.29,0,0,0-1.29,1.29v9H39V14.44a4.38,4.38,0,1,0-2.58,0v7.93h-10A1.28,1.28,0,0,0,25,23.66v2.06H17.3V10.58a4.38,4.38,0,1,0-2.57,0V27A1.28,1.28,0,0,0,16,28.3h9v5.41H17.11a4.38,4.38,0,1,0,0,2.57H25v10a1.28,1.28,0,0,0,1.28,1.29h2.06v7.73H21.17a1.29,1.29,0,0,0,0,2.58h8.5A1.29,1.29,0,0,0,31,56.64v-9h5.41v7.93a4.38,4.38,0,1,0,2.58,0V47.62H49a1.28,1.28,0,0,0,1.28-1.29V44.27H58V59.41a4.38,4.38,0,1,0,2.57,0V43a1.28,1.28,0,0,0-1.28-1.29h-9V36.28h7.93a4.38,4.38,0,1,0,4.19-5.67ZM37.66,8.45a1.81,1.81,0,1,1-1.8,1.81A1.81,1.81,0,0,1,37.66,8.45ZM16,4.59A1.81,1.81,0,1,1,14.21,6.4,1.81,1.81,0,0,1,16,4.59ZM12.92,36.8A1.81,1.81,0,1,1,14.73,35,1.81,1.81,0,0,1,12.92,36.8ZM37.66,61.54a1.81,1.81,0,1,1,1.8-1.81A1.81,1.81,0,0,1,37.66,61.54ZM59.3,65.4a1.81,1.81,0,1,1,1.8-1.81A1.81,1.81,0,0,1,59.3,65.4ZM47.71,45H27.61V25h20.1ZM62.4,36.8A1.81,1.81,0,1,1,64.2,35,1.81,1.81,0,0,1,62.4,36.8Z" transform="translate(-4.43 -1.77)"/><path class="cls-3" d="M9.06,52.26a4.38,4.38,0,1,0,4.38,4.38A4.39,4.39,0,0,0,9.06,52.26Zm0,6.18a1.81,1.81,0,1,1,1.8-1.8A1.81,1.81,0,0,1,9.06,58.44Z" transform="translate(-4.43 -1.77)"/><path class="cls-3" d="M16.6,55.35a1.3,1.3,0,1,0,.91.38A1.3,1.3,0,0,0,16.6,55.35Z" transform="translate(-4.43 -1.77)"/></svg>