<svg id="Layer_1" data-name="Layer 1" xmlns="http://www.w3.org/2000/svg" viewBox="0 0 56.42 68.09"><defs><style>.cls-1{fill:#f4f9fc;}.cls-2{stroke:#000;}.cls-2,.cls-3{stroke-miterlimit:10;}.cls-3{fill:#f07e3a;stroke:#f07e3a;}</style></defs><path class="cls-1" d="M12.74,34.47l-1-27.27L16.18,3s15.46-1,16.16-.71S63,3.76,63,3.76L64.82,9V55.59H52.76V67.46h-40Z" transform="translate(-9.96 -1.18)"/><path class="cls-2" d="M11.92,68.78H52.76a1.45,1.45,0,0,0,1.45-1.46V57.11H64.42a1.46,1.46,0,0,0,1.46-1.46V9a7.31,7.31,0,0,0-7.29-7.3H17.75A7.31,7.31,0,0,0,10.46,9V67.32a1.46,1.46,0,0,0,1.46,1.46ZM54.21,9A4.38,4.38,0,1,1,63,9V54.19H54.21ZM13.38,9A4.38,4.38,0,0,1,17.75,4.6h35A7.25,7.25,0,0,0,51.3,9V65.86H13.38Zm0,0" transform="translate(-9.96 -1.18)"/><path class="cls-2" d="M44,13.35H20.67a1.46,1.46,0,0,0-1.46,1.46v17.5a1.46,1.46,0,0,0,1.46,1.46H44a1.46,1.46,0,0,0,1.46-1.46V14.81A1.46,1.46,0,0,0,44,13.35ZM42.55,30.86H22.13V16.27H42.55Zm0,0" transform="translate(-9.96 -1.18)"/><path class="cls-2" d="M44,39.61H20.67a1.46,1.46,0,1,0,0,2.91H44a1.46,1.46,0,1,0,0-2.91Zm0,0" transform="translate(-9.96 -1.18)"/><path class="cls-3" d="M44,48.36H20.67a1.46,1.46,0,1,0,0,2.91H44a1.46,1.46,0,1,0,0-2.91Zm0,0" transform="translate(-9.96 -1.18)"/><path class="cls-2" d="M44,57.11H20.67a1.46,1.46,0,1,0,0,2.92H44a1.46,1.46,0,1,0,0-2.92Zm0,0" transform="translate(-9.96 -1.18)"/></svg>