<svg id="Layer_1" data-name="Layer 1" xmlns="http://www.w3.org/2000/svg" viewBox="0 0 84.73 90.38"><defs><style>.cls-1{fill:#f4f9fc;}.cls-2{fill:#f07e3a;}</style></defs><rect class="cls-1" x="14.61" y="0.64" width="55.53" height="89.74" rx="8.82"/><path d="M94.05,116.14h12.71a1.79,1.79,0,0,0,1.17-.44l4.24-3.77a1.74,1.74,0,0,0,.59-1.32V101.2a1.81,1.81,0,0,0-.69-1.41l-4.25-3.23V91.78c-.41-9.84-14.43-9.83-14.83,0v4.78l-4.25,3.23a1.78,1.78,0,0,0-.69,1.41v9.41a1.75,1.75,0,0,0,.59,1.32l4.24,3.77a1.79,1.79,0,0,0,1.17.44ZM100.4,87.9a3.89,3.89,0,0,1,3.89,3.88v3.88H96.52V91.78a3.88,3.88,0,0,1,3.88-3.88Zm-8.82,14.17,3.77-2.87h10.11l3.77,2.87v7.75l-3.14,2.79H94.72l-3.14-2.79Zm0,0" transform="translate(-58.04 -53.3)"/><path class="cls-2" d="M98.64,106.46V108a1.77,1.77,0,0,0,3.53,0v-1.57a2.66,2.66,0,0,0-1.76-4.63h0a2.65,2.65,0,0,0-1.76,4.62Zm0,0" transform="translate(-58.04 -53.3)"/><path d="M81,74.48H100.4a1.77,1.77,0,0,0,0-3.53H81a1.77,1.77,0,0,0,0,3.53Zm0,0" transform="translate(-58.04 -53.3)"/><path d="M92.46,79.78A1.76,1.76,0,0,0,90.7,78H81a1.77,1.77,0,0,0,0,3.53H90.7a1.76,1.76,0,0,0,1.76-1.76Zm0,0" transform="translate(-58.04 -53.3)"/><path d="M119.82,126H108.35a1.77,1.77,0,0,0,0,3.53h11.47a1.77,1.77,0,0,0,0-3.53Zm0,0" transform="translate(-58.04 -53.3)"/><path d="M119.82,119h-9.71a1.77,1.77,0,0,0,0,3.53h9.71a1.77,1.77,0,0,0,0-3.53Zm0,0" transform="translate(-58.04 -53.3)"/><path d="M137.48,85.07a5.31,5.31,0,0,0-5,3.53h-3.83V78h3.83a5.3,5.3,0,1,0,0-3.53h-3.83V58.59a1.77,1.77,0,0,0-.52-1.24l-3.53-3.54a1.76,1.76,0,0,0-1.25-.51H77.46a1.76,1.76,0,0,0-1.25.51l-3.53,3.54a1.77,1.77,0,0,0-.52,1.24v47.19H68.33a5.3,5.3,0,1,0,0,3.53h3.83V122.5H68.33a5.3,5.3,0,1,0,0,3.53h3.83v12.35a1.77,1.77,0,0,0,.52,1.25l3.53,3.53a1.73,1.73,0,0,0,1.25.52h45.89a1.73,1.73,0,0,0,1.25-.52l3.53-3.53a1.77,1.77,0,0,0,.52-1.25V92.14h3.83a5.3,5.3,0,1,0,5-7.07Zm0-10.59a1.77,1.77,0,1,1-1.77,1.77,1.76,1.76,0,0,1,1.77-1.77ZM63.33,109.31a1.77,1.77,0,1,1,1.77-1.77,1.76,1.76,0,0,1-1.77,1.77Zm0,16.72a1.77,1.77,0,1,1,1.77-1.77A1.76,1.76,0,0,1,63.33,126Zm14.86-69.2h44.43l2.5,2.49v1H112.76a1.77,1.77,0,0,0-1.25.52l-3,3H92.31l-3-3a1.75,1.75,0,0,0-1.24-.52H75.69v-1Zm44.43,83.32H78.19l-2.5-2.5v-1h49.43v1Zm2.5-7.06H75.69V126h5.45a1.77,1.77,0,0,0,1.24-.52L87,120.87a1.76,1.76,0,0,0-2.5-2.49L80.4,122.5H75.69V109.31h5.45a1.77,1.77,0,0,0,0-3.53H75.69V63.89H87.32l3,3a1.77,1.77,0,0,0,1.25.52h17.65a1.77,1.77,0,0,0,1.25-.52l3-3h11.63V74.48h-5.45a1.79,1.79,0,0,0-1.25.52l-8.16,8.17a1.76,1.76,0,0,0,2.49,2.49L120.4,78h4.72V88.6h-3.68a1.77,1.77,0,0,0-1.25.52l-4.64,4.64a1.77,1.77,0,0,0,0,2.5,1.79,1.79,0,0,0,2.5,0l4.12-4.12h3Zm12.36-40.95a1.77,1.77,0,1,1,1.76-1.77,1.77,1.77,0,0,1-1.76,1.77Zm0,0" transform="translate(-58.04 -53.3)"/><path d="M94.05,126h0a1.77,1.77,0,1,0,1.77,1.76A1.76,1.76,0,0,0,94.05,126Zm0,0" transform="translate(-58.04 -53.3)"/><path d="M81,85.07h0a1.77,1.77,0,1,0,1.76,1.77A1.77,1.77,0,0,0,81,85.07Zm0,0" transform="translate(-58.04 -53.3)"/><path d="M109.23,74.48a1.77,1.77,0,0,0,0-3.53h0a1.77,1.77,0,0,0,0,3.53Zm0,0" transform="translate(-58.04 -53.3)"/></svg>