<svg id="Layer_1" data-name="Layer 1" xmlns="http://www.w3.org/2000/svg" viewBox="0 0 66.83 66.83"><defs><style>.cls-1{fill:#f4f9fc;}.cls-2{fill:#f07e3a;}</style></defs><path class="cls-1" d="M52.47,43.3l1,11,6.94-5.19,1.44-4.49S58.6,43.1,58.46,43.1H54Z" transform="translate(-4.25 -2.35)"/><path class="cls-1" d="M14.09,42.4V13.27l1.33-3.09s1.72-4.42,2.39-4.76a25.47,25.47,0,0,1,3.86-1.21c.47,0,3.47-.47,3.51-.48s38-.24,38.11-.18,5.55,3.13,5.55,3.13,2.52,3.19,1.34,3.42S61.6,11,60.45,11s-3.8,0-3.8,0l-.86.54-1.28,4V59.4s.75.83.8.87a29.52,29.52,0,0,1-.11,4.08c-.14.1-4.45,2.63-4.6,2.63s-5.31.87-6.89.67S24,68,24,68L13.55,67,9.19,61.93s4.65-1.36,4.79-1.36l5.16.14-3.29-1.19Z" transform="translate(-4.25 -2.35)"/><path class="cls-1" d="M56.36,38.28l.22-12.93s6.82,1.79,7,1.85,5.5,8.57,5.5,8.57V39Z" transform="translate(-4.25 -2.35)"/><path d="M15.64,17.36a1.29,1.29,0,0,0,1.29-1.29V10.89a5.7,5.7,0,0,1,5.7-5.7H56.89a8,8,0,0,0-2.13,5.44.62.62,0,0,0,0,.13.53.53,0,0,0,0,.13v8.85a1.3,1.3,0,0,0,2.59,0V11.92H69.53a1.29,1.29,0,0,0,1.29-1.29,8,8,0,0,0-8-8l-.78,0a1.55,1.55,0,0,0-.31,0H22.63a8.29,8.29,0,0,0-8.29,8.29v5.18A1.3,1.3,0,0,0,15.64,17.36Zm52.43-8H57.51a5.44,5.44,0,0,1,10.56,0Z" transform="translate(-4.25 -2.35)"/><path d="M56.05,21.28a1.54,1.54,0,0,1-1.54-1.54V10.89a.81.81,0,0,1,0-.16s0-.05,0-.1a8.27,8.27,0,0,1,1.83-5.19H22.63a5.46,5.46,0,0,0-5.45,5.45v5.18a1.55,1.55,0,0,1-3.09,0V10.89a8.55,8.55,0,0,1,8.54-8.54H61.7a1.73,1.73,0,0,1,.32,0c.26,0,.51,0,.77,0a8.28,8.28,0,0,1,8.28,8.28,1.54,1.54,0,0,1-1.54,1.54H57.6v7.57A1.54,1.54,0,0,1,56.05,21.28ZM22.63,4.94H57.46l-.39.42A7.74,7.74,0,0,0,55,10.63v9.11a1,1,0,0,0,2.09,0V11.67H69.53a1,1,0,0,0,1-1,7.79,7.79,0,0,0-7.78-7.78c-.26,0-.51,0-.76,0H62l-.25,0H22.63a8,8,0,0,0-8,8v5.18a1,1,0,0,0,2.09,0V10.89A6,6,0,0,1,22.63,4.94ZM68.39,9.58H57.19l.07-.31a5.7,5.7,0,0,1,11.06,0Zm-10.55-.5h9.91a5.19,5.19,0,0,0-9.91,0Z" transform="translate(-4.25 -2.35)"/><path d="M9.45,32.1a1.33,1.33,0,0,0,.92-.38L21.08,21l8.61,8.61a1.29,1.29,0,0,0,1.83,0L47,14.18v4.94a1.3,1.3,0,0,0,2.59,0V10.88a1.3,1.3,0,0,0-1.3-1.29H40a1.3,1.3,0,0,0,0,2.59H45.3L30.61,26.87,22,18.26a1.3,1.3,0,0,0-1.83,0L8.54,29.89a1.3,1.3,0,0,0,.91,2.21Z" transform="translate(-4.25 -2.35)"/><path d="M9.45,32.35a1.54,1.54,0,0,1-1.09-.45,1.56,1.56,0,0,1,0-2.19L20,18.08a1.55,1.55,0,0,1,2.18,0l8.44,8.44L44.7,12.43H40a1.55,1.55,0,0,1,0-3.09h8.23a1.54,1.54,0,0,1,1.55,1.55v8.23a1.55,1.55,0,0,1-3.09,0V14.78l-15,15a1.58,1.58,0,0,1-2.18,0l-8.44-8.44L10.54,31.9A1.52,1.52,0,0,1,9.45,32.35ZM21.08,18.13a1,1,0,0,0-.74.31L8.71,30.06a1,1,0,0,0,1.48,1.48L21.08,20.66l8.79,8.79a1.06,1.06,0,0,0,1.48,0L47.22,13.57v5.55a1,1,0,0,0,2.09,0V10.89a1,1,0,0,0-1.05-1.05H40a1,1,0,0,0,0,2.09h5.88l-15.3,15.3-8.79-8.79A1,1,0,0,0,21.08,18.13Z" transform="translate(-4.25 -2.35)"/><path d="M5.79,33.17A1.3,1.3,0,0,0,4.5,34.46a1.32,1.32,0,0,0,.38.92,1.3,1.3,0,0,0,.91.38,1.3,1.3,0,0,0,1.3-1.3,1.3,1.3,0,0,0-.38-.91A1.32,1.32,0,0,0,5.79,33.17Z" transform="translate(-4.25 -2.35)"/><path d="M5.79,36a1.6,1.6,0,0,1-1.09-.45,1.56,1.56,0,0,1,0-2.19,1.58,1.58,0,0,1,2.18,0A1.55,1.55,0,0,1,5.79,36Zm0-2.59a1,1,0,0,0-1,1,1.05,1.05,0,0,0,.3.74,1.08,1.08,0,0,0,1.48,0,1,1,0,0,0,.31-.74,1,1,0,0,0-1-1Z" transform="translate(-4.25 -2.35)"/><path d="M62.27,42H52.43V32.13a1.3,1.3,0,0,0-1.3-1.29,12.44,12.44,0,1,0,3.63,24.33v5.72a5.44,5.44,0,0,1-10.88,0,.49.49,0,0,0,0-.12.66.66,0,0,0,0-.14,1.3,1.3,0,0,0-1.3-1.3H16.93V31.62a1.3,1.3,0,1,0-2.59,0V59.33H8.64a1.3,1.3,0,0,0-1.29,1.3,8.3,8.3,0,0,0,8.29,8.29H49.32a8,8,0,0,0,8-8V54.15a.45.45,0,0,0,0-.11,12.44,12.44,0,0,0,6.23-10.77A1.3,1.3,0,0,0,62.27,42Zm-52.18,20H41.36a8,8,0,0,0,2.06,4.4H15.64A5.7,5.7,0,0,1,10.09,61.93Zm41-8.81a9.85,9.85,0,0,1-1.29-19.61v9.76a1.3,1.3,0,0,0,1.29,1.3h9.76A9.85,9.85,0,0,1,51.13,53.12Z" transform="translate(-4.25 -2.35)"/><path d="M49.32,69.17H15.64A8.55,8.55,0,0,1,7.1,60.63a1.54,1.54,0,0,1,1.54-1.54h5.45V31.62a1.55,1.55,0,1,1,3.09,0V59.09h25.4a1.54,1.54,0,0,1,1.55,1.54,1,1,0,0,1,0,.17.41.41,0,0,1,0,.09,5.19,5.19,0,0,0,10.38,0V55.5a12.41,12.41,0,0,1-3.38.46,12.69,12.69,0,0,1,0-25.37,1.54,1.54,0,0,1,1.55,1.54v9.6h9.59a1.54,1.54,0,0,1,1.55,1.54A12.73,12.73,0,0,1,57.6,54.18v6.71A8.29,8.29,0,0,1,49.32,69.17ZM8.64,59.59a1,1,0,0,0-1,1,8,8,0,0,0,8,8H49.32a7.79,7.79,0,0,0,7.78-7.78V54.07l0-.16.14-.08a12.26,12.26,0,0,0,6.1-10.56,1,1,0,0,0-1-1H52.18V32.13a1,1,0,0,0-1-1,12.19,12.19,0,1,0,3.56,23.84l.32-.1v6.06a5.69,5.69,0,0,1-11.38,0s0-.07,0-.1a1.1,1.1,0,0,0,0-.16,1,1,0,0,0-1.05-1H16.68v-28a1,1,0,1,0-2.09,0v28Zm35.35,7H15.64A5.93,5.93,0,0,1,9.84,62l-.07-.3H41.58l0,.21a7.75,7.75,0,0,0,2,4.27Zm-33.58-4.4a5.43,5.43,0,0,0,5.23,3.9H42.87a8.21,8.21,0,0,1-1.73-3.9Zm40.72-8.81a10.09,10.09,0,0,1-1.32-20.1l.28,0v10a1,1,0,0,0,1,1h10l0,.28A10.12,10.12,0,0,1,51.13,53.37ZM49.59,33.8a9.6,9.6,0,1,0,11,11H51.13a1.54,1.54,0,0,1-1.54-1.55Z" transform="translate(-4.25 -2.35)"/><path d="M55.54,23.59a1.3,1.3,0,0,0-1.3,1.29v14a1.3,1.3,0,0,0,1.3,1.3h14a1.3,1.3,0,0,0,1.29-1.3A15.29,15.29,0,0,0,55.54,23.59Zm1.29,14V26.24A12.73,12.73,0,0,1,68.17,37.58Z" transform="translate(-4.25 -2.35)"/><path d="M69.53,40.42h-14A1.55,1.55,0,0,1,54,38.87v-14a1.54,1.54,0,0,1,1.55-1.54A15.55,15.55,0,0,1,71.07,38.87,1.55,1.55,0,0,1,69.53,40.42Zm-14-16.58a1,1,0,0,0-1,1v14a1,1,0,0,0,1,1.05h14a1,1,0,0,0,1-1.05A15,15,0,0,0,55.54,23.84Zm12.9,14H56.58V26l.28,0A13,13,0,0,1,68.41,37.55Zm-11.36-.5H67.89A12.49,12.49,0,0,0,57.08,26.52Z" transform="translate(-4.25 -2.35)"/><path d="M31.83,44.57H20.69a1.3,1.3,0,1,0,0,2.59H31.83a1.3,1.3,0,1,0,0-2.59Z" transform="translate(-4.25 -2.35)"/><path d="M31.83,47.41H20.69a1.55,1.55,0,1,1,0-3.09H31.83a1.55,1.55,0,1,1,0,3.09ZM20.69,44.82a1,1,0,1,0,0,2.09H31.83a1,1,0,1,0,0-2.09Z" transform="translate(-4.25 -2.35)"/><path class="cls-2" d="M36,51.16a1.34,1.34,0,0,0-.38.92,1.3,1.3,0,0,0,1.3,1.3,1.3,1.3,0,0,0,.91-.38,1.32,1.32,0,0,0,.38-.92,1.34,1.34,0,0,0-.38-.92,1.29,1.29,0,0,0-.91-.37A1.31,1.31,0,0,0,36,51.16Z" transform="translate(-4.25 -2.35)"/><path class="cls-2" d="M37,53.63A1.55,1.55,0,0,1,35.85,51h0A1.6,1.6,0,0,1,38,51a1.54,1.54,0,0,1,.45,1.09A1.52,1.52,0,0,1,38,53.17,1.56,1.56,0,0,1,37,53.63Zm-.74-2.29a1,1,0,0,0,0,1.48,1.08,1.08,0,0,0,1.48,0,1.06,1.06,0,0,0,0-1.48A1.08,1.08,0,0,0,36.21,51.34Z" transform="translate(-4.25 -2.35)"/><path class="cls-2" d="M31.83,50.79H20.69a1.3,1.3,0,1,0,0,2.59H31.83a1.3,1.3,0,1,0,0-2.59Z" transform="translate(-4.25 -2.35)"/><path class="cls-2" d="M31.83,53.63H20.69a1.55,1.55,0,1,1,0-3.09H31.83a1.55,1.55,0,1,1,0,3.09ZM20.69,51a1,1,0,1,0,0,2.09H31.83a1,1,0,1,0,0-2.09Z" transform="translate(-4.25 -2.35)"/><path d="M20.69,40.94h4.46a1.3,1.3,0,0,0,0-2.59H20.69a1.3,1.3,0,1,0,0,2.59Z" transform="translate(-4.25 -2.35)"/><path d="M25.15,41.19H20.69a1.55,1.55,0,1,1,0-3.09h4.46a1.55,1.55,0,0,1,0,3.09ZM20.69,38.6a1,1,0,1,0,0,2.09h4.46a1,1,0,0,0,0-2.09Z" transform="translate(-4.25 -2.35)"/></svg>