<svg id="Layer_1" data-name="Layer 1" xmlns="http://www.w3.org/2000/svg" viewBox="0 0 119.23 90.38"><defs><style>.cls-1{fill:#f4f9fc;}.cls-2{fill:#f07e3a;}.cls-3{fill:#eeba5f;}</style></defs><path class="cls-1" d="M59,142.55V109H55.4v-7.58h9.92v-14l11-5v-5.9l-2.81-7.11V61.71l10.2-6.42,8.42,5.58.75,9.64s-3.84,5.8-3.84,6.55.1,5.8.1,5.8l11.88,3.37,1.78,6h13.38L129.79,79.4,124,76.68l-3.83-4.86.56-10.2,3.84-5.24s6-2.16,6.45-1.87,7.3,6.45,7.49,7.2.84,9.17.75,10.2-3.93,4.49-3.93,4.49-1,2.25.56,3.28,4,3.27,4.11,3.83a30.91,30.91,0,0,1-.65,4.12s.19.84,1.78,1a22.78,22.78,0,0,0,4.77-.38,7.41,7.41,0,0,1,.75,2.62c.09,1.41.47,5.71.37,7.12s-.47,17.31-.47,17.31-4.11,6.64-5.42,7-6.08,2-6.08,2l2.43,17.5Z" transform="translate(-40.79 -54.06)"/><rect class="cls-2" x="19.23" y="53.85" width="53.85" height="13.46"/><path class="cls-3" d="M100.4,56.25" transform="translate(-40.79 -54.06)"/><path d="M138.68,140.6,137.13,125a13.46,13.46,0,0,0,11.35-13.27v-25h-7.69V84.1A6.93,6.93,0,0,0,137,77.93a11.47,11.47,0,0,0,3.75-8.48V65.6a11.54,11.54,0,1,0-23.08,0v3.85a11.55,11.55,0,0,0,7.6,10.83L115,90.6H104.21a7.72,7.72,0,0,0-5.54-6.89l-7.88-2.25V78a11.49,11.49,0,0,0,3.85-8.57V65.6a11.54,11.54,0,0,0-23.08,0v3.85A11.5,11.5,0,0,0,75.4,78v3.44l-7.88,2.25a7.73,7.73,0,0,0-5.58,7.4v7.18H54.25v11.54H58.1V140.6H40.79v3.85H160V140.6Zm-17.12-30.77V101l13.62-13.62a6,6,0,0,0,1.71-3.69c0,.13.05.26.05.4v23.81a5.78,5.78,0,0,1-5.77,5.77H115.79v-3.85Zm-5.77,15.39h9.8l1.53,15.38H115.79Zm13.66,0h3.83l1.54,15.38H131Zm11.34-17.31V90.6h3.84v21.16a9.62,9.62,0,0,1-9.61,9.61H115.79v-3.85h15.38a9.63,9.63,0,0,0,9.62-9.61ZM121.56,69.45V65.6a7.69,7.69,0,0,1,15.38,0v3.85a7.69,7.69,0,0,1-15.38,0Zm-5,25,12.84-12.83a2.15,2.15,0,1,1,3,3L118.84,98.29H98.48a1.92,1.92,0,0,1,0-3.84ZM75.4,65.6a7.7,7.7,0,0,1,15.39,0v3.85a7.7,7.7,0,0,1-15.39,0ZM83.1,81a11.36,11.36,0,0,0,3.84-.68v2.07a4.91,4.91,0,0,1-3.84,2.45,4.93,4.93,0,0,1-3.85-2.45V80.31A11.46,11.46,0,0,0,83.1,81ZM65.79,91.11a3.87,3.87,0,0,1,2.79-3.7l7.92-2.26a7.92,7.92,0,0,0,13.19,0l7.93,2.27a3.82,3.82,0,0,1,2.7,3.19H98.48a5.78,5.78,0,0,0-5.77,5.77,5.55,5.55,0,0,0,.36,1.92H65.79Zm-7.69,11h59.61V106H58.1Zm3.84,15.38h5.77v-3.84H61.94v-3.85h50v3.85H71.56v3.84h40.38V140.6h-50Zm0,0" transform="translate(-40.79 -54.06)"/></svg>