<svg id="Layer_1" data-name="Layer 1" xmlns="http://www.w3.org/2000/svg" viewBox="0 0 90.8 90.78"><defs><style>.cls-1{fill:#f4f9fc;}.cls-2{fill:#f07e3a;}</style></defs><path class="cls-1" d="M85.24,143.84H116l-1.63-6.32-4.69.57-3.06-11.87H140l4.88-3.64V72.41L129.38,71S126,62.36,123,62.26s-6.13-6.41-9-6.51-8.91,4.79-8.91,5.08-1.62,10.91-1.62,10.91L97.69,71l-1-11.1L87.83,55l-5.74,3.06L80.36,61.3S74.81,64.08,74,65s-2.3,5.84-2.3,5.84l-12.83.29L57,72l-1.15,3.06,1.25,49.69,26.33.77h5.36l3.16.09H95.2l-2.87,7-1.15,3s-1.44,1.25-1.82,1.53-.76-1.53-2.1.67-1.35,2.78-1.35,3.07S85.24,143.84,85.24,143.84Z" transform="translate(-55.01 -54.27)"/><rect class="cls-2" x="42.88" y="47.44" width="5.17" height="5.17"/><rect class="cls-2" x="76.67" y="47.34" width="4.21" height="5.07"/><rect class="cls-2" x="10.04" y="47.72" width="3.83" height="4.21"/><path d="M141.26,69.38H130.55a10.63,10.63,0,0,0-8.38-8.87,10.59,10.59,0,0,0-20.25,4.33v4.54h-3V64.84a10.59,10.59,0,0,0-20.25-4.33,10.63,10.63,0,0,0-8.38,8.87H59.55A4.54,4.54,0,0,0,55,73.92v48.43a4.54,4.54,0,0,0,4.54,4.54H92.41L90.14,136H88.3a4.54,4.54,0,0,0-4.54,4.54v3a1.52,1.52,0,0,0,1.51,1.52h30.27a1.52,1.52,0,0,0,1.51-1.52v-3a4.54,4.54,0,0,0-4.54-4.54h-1.84l-2.27-9.08h32.86a4.54,4.54,0,0,0,4.54-4.54V73.92a4.54,4.54,0,0,0-4.54-4.54Zm-36.32-4.54a7.55,7.55,0,0,1,13.68-4.42,10.61,10.61,0,0,0-9.14,10.48h3a7.56,7.56,0,0,1,7.42-7.55,7.56,7.56,0,0,1-7.42,9.06v3a10.6,10.6,0,0,0,10.59-10.6c0-.3,0-.6,0-.89a7.56,7.56,0,0,1-3,14.51v3a10.55,10.55,0,0,0,8.52-4.33A7.57,7.57,0,1,1,114,80h-3a10.58,10.58,0,0,0,8.94,10.45,7.56,7.56,0,0,1-15-1.37ZM77.75,64a8.7,8.7,0,0,0,0,.89A10.6,10.6,0,0,0,88.3,75.44v-3a7.56,7.56,0,0,1-7.42-9.06A7.56,7.56,0,0,1,88.3,70.9h3a10.6,10.6,0,0,0-9.13-10.48,7.55,7.55,0,0,1,13.67,4.42V89.06a7.56,7.56,0,0,1-15,1.37A10.59,10.59,0,0,0,89.81,80h-3a7.56,7.56,0,1,1-14.57-2.82,10.54,10.54,0,0,0,8.52,4.33v-3a7.56,7.56,0,0,1-3-14.51Zm-18.2,8.46H70.26a10.81,10.81,0,0,0,.32,1.5,10.53,10.53,0,0,0,7.23,16.56,10.6,10.6,0,0,0,9,9.06v3.15H71.37a4.53,4.53,0,1,0,0,3H88.3a1.52,1.52,0,0,0,1.51-1.51V99.53a10.58,10.58,0,0,0,9.08-10.47V72.41h3V89.06A10.58,10.58,0,0,0,111,99.53v4.66a1.52,1.52,0,0,0,1.51,1.51h16.93a4.54,4.54,0,1,0,0-3H114V99.53a10.6,10.6,0,0,0,9-9.06,10.54,10.54,0,0,0,7.23-16.56,10.81,10.81,0,0,0,.32-1.5h10.71a1.52,1.52,0,0,1,1.52,1.51v37.84H58V73.92a1.52,1.52,0,0,1,1.52-1.51Zm9.08,31.78a1.52,1.52,0,1,1-1.52-1.51,1.52,1.52,0,0,1,1.52,1.51Zm63.55,0a1.52,1.52,0,0,1,2.59-1.07,1.51,1.51,0,1,1-2.59,1.07ZM114,140.51V142H86.78v-1.51A1.52,1.52,0,0,1,88.3,139h24.21a1.51,1.51,0,0,1,1.51,1.52ZM107.54,136H93.26l2.27-9.08h9.74Zm33.72-12.11H59.55A1.52,1.52,0,0,1,58,122.35v-7.57h84.75v7.57a1.52,1.52,0,0,1-1.52,1.51Zm0,0" transform="translate(-55.01 -54.27)"/><path d="M100.4,108.73a4.53,4.53,0,0,0,1.52-8.8V98.14h-3v1.79a4.53,4.53,0,0,0,1.51,8.8Zm0-6a1.51,1.51,0,0,1,1.07,2.58,1.51,1.51,0,0,1-2.58-1.07,1.51,1.51,0,0,1,1.51-1.51Zm0,0" transform="translate(-55.01 -54.27)"/></svg>