<svg id="Layer_1" data-name="Layer 1" xmlns="http://www.w3.org/2000/svg" viewBox="0 0 88.02 88.02"><defs><style>.cls-1{fill:#f4f9fc;}.cls-2,.cls-3{stroke:#000;stroke-miterlimit:10;}.cls-2{stroke-width:0.7px;}.cls-3{fill:#f27f39;stroke-width:2px;}</style></defs><path class="cls-1" d="M79.83,134l-.64-16.85-10.53-.45L59.21,111l-1-10L62,94.83l4.4-4.91L65.2,85.83s1.93-11.68,14.07-13.92l3.22,1.2,6.85,1,9-7.85,10-1.2,11.88,6.7,4.88,9.87,8.57,2.49,6.84,8.28,1.87,9-3.54,9.09-7,5-10.48,1.19-.1,19-.53,7.13L114.26,148l-22.86.58-10.87-3.73-2.3-4Z" transform="translate(-55.99 -63.49)"/><path class="cls-2" d="M138.16,85.92a19,19,0,0,0-11.94-5.61,21.4,21.4,0,0,0-38-7.86,17.81,17.81,0,0,0-5.53-.87,11.53,11.53,0,0,0-4.47.8,1.7,1.7,0,0,0,1.06,3.24A8.43,8.43,0,0,1,82.71,75a14.45,14.45,0,0,1,5.52,1.09,1.69,1.69,0,0,0,2.08-.64,18,18,0,0,1,32.82,6.79,1.71,1.71,0,0,0,1.66,1.42,15.68,15.68,0,0,1-.22,31.35h-1.89v-9.85c0-2-1.26-4.76-7.27-6.92A47.51,47.51,0,0,0,100,95.94a47.51,47.51,0,0,0-15.41,2.29c-6,2.16-7.27,5-7.27,6.92V115H70.69a10.94,10.94,0,0,1-3.41-21.33,1.72,1.72,0,0,0,1.15-1.89,14,14,0,0,1-.19-2.33,6.71,6.71,0,0,1,.33-2.89,1.71,1.71,0,0,0-1.14-2.13,1.69,1.69,0,0,0-2.12,1.13,9.84,9.84,0,0,0-.48,3.89c0,.5,0,1,.06,1.48a14.36,14.36,0,0,0,5.8,27.49h6.63V142c0,2,1.26,4.76,7.27,6.91a47.5,47.5,0,0,0,15.41,2.3,47.5,47.5,0,0,0,15.41-2.3c6-2.15,7.27-5,7.27-6.91V118.42h1.89a19.09,19.09,0,0,0,13.59-32.5Zm-18.89,31.49c0,.88-1.31,2.38-5,3.7a43.81,43.81,0,0,1-14.26,2.1,43.81,43.81,0,0,1-14.26-2.1c-3.7-1.32-5-2.82-5-3.7v-7.18a19.73,19.73,0,0,0,3.86,1.83,47.5,47.5,0,0,0,15.41,2.3,47.5,47.5,0,0,0,15.41-2.3,19.73,19.73,0,0,0,3.86-1.83Zm-38.54,5.08a19.15,19.15,0,0,0,3.86,1.84A47.51,47.51,0,0,0,100,126.62a47.51,47.51,0,0,0,15.41-2.29,19.15,19.15,0,0,0,3.86-1.84v7.19c0,.88-1.31,2.38-5,3.7a43.81,43.81,0,0,1-14.26,2.1,43.81,43.81,0,0,1-14.26-2.1c-3.7-1.32-5-2.82-5-3.7Zm5-21A43.81,43.81,0,0,1,100,99.35a43.81,43.81,0,0,1,14.26,2.1c3.7,1.32,5,2.82,5,3.7s-1.31,2.37-5,3.7A44.08,44.08,0,0,1,100,111a44.08,44.08,0,0,1-14.26-2.1c-3.7-1.33-5-2.82-5-3.7s1.31-2.38,5-3.7Zm28.52,44.2a44.08,44.08,0,0,1-14.26,2.1,44.08,44.08,0,0,1-14.26-2.1c-3.7-1.32-5-2.82-5-3.7v-7.19a18.65,18.65,0,0,0,3.86,1.83,47.5,47.5,0,0,0,15.41,2.3,47.5,47.5,0,0,0,15.41-2.3,18.65,18.65,0,0,0,3.86-1.83V142c0,.88-1.31,2.38-5,3.7Zm0,0" transform="translate(-55.99 -63.49)"/><path class="cls-3" d="M72.84,82.9a3.4,3.4,0,1,0-2.39-1,3.4,3.4,0,0,0,2.39,1Zm0,0" transform="translate(-55.99 -63.49)"/></svg>