<svg id="Layer_1" data-name="Layer 1" xmlns="http://www.w3.org/2000/svg" viewBox="0 0 90.38 90.38"><defs><style>.cls-1{fill:#f4f9fc;}.cls-2{fill:#f27f39;}</style></defs><path class="cls-1" d="M61.8,77.81v6.7H57.15v42.61l1.87,4.4H95.21s3.58,7.66,6.77,6.19,4.91-6,4.91-6h36.2l2-4.21V85.28l-5.87-.77V73.6H120.87l-2.1-6.13-5.17-7,11.1.76,12.54-5.74-13.3-5.84-58.7.19L63.9,55.79S65,59.52,65.15,60.1s4.59,1.34,4.59,1.34l26-.2-3.92,6.13-8.33,1.15-4.7,4.21-6.22.58-8.81-1Z" transform="translate(-55.98 -48.35)"/><rect class="cls-2" x="49.56" y="53.94" width="29.16" height="11.66"/><path d="M140.53,83.34V71.68h-19a15.93,15.93,0,0,0-3.63-8.75h6.92l16.4-7.29-16.4-7.29H67.64a4.37,4.37,0,0,0-4.37,4.37v5.84a4.37,4.37,0,0,0,4.37,4.37H93.2a15.61,15.61,0,0,0-2.12,3.28,13,13,0,0,0-13.93,5.47H61.81v8.74h2.92V74.59h11a12.81,12.81,0,0,0-.7,3A8.74,8.74,0,0,0,76.39,95H96.8V92.08H76.39a5.83,5.83,0,1,1,5.83-5.83h2.91a8.76,8.76,0,0,0-7.19-8.6A10.2,10.2,0,0,1,98.25,79h2.92a13.11,13.11,0,0,0-7.31-11.74,13.1,13.1,0,0,1,24.8,5.91v1.46h1.46a8.75,8.75,0,1,1,0,17.49H99.71V119.3l-2.33,3.11a4.41,4.41,0,0,1-3.5,1.75H64.73V83.34H56v45.19a4.37,4.37,0,0,0,4.37,4.37H94a7.29,7.29,0,0,0,14.28,0H142a4.37,4.37,0,0,0,4.37-4.37V83.34ZM126,59.23V52.05L134,55.64Zm-59.77-.67V52.72a1.46,1.46,0,0,1,1.46-1.45h7.29V60H67.64a1.46,1.46,0,0,1-1.46-1.45ZM96.36,60H77.85V51.27H123V60h-8.32a15.93,15.93,0,0,0-18.36,0Zm47.09,68.52A1.47,1.47,0,0,1,142,130H105.54v1.46a4.37,4.37,0,0,1-8.74,0V130H60.35a1.47,1.47,0,0,1-1.46-1.46V86.25h2.92v40.82H93.88a7.34,7.34,0,0,0,5.83-2.91l1.46-2,1.46,2a7.34,7.34,0,0,0,5.83,2.91h32.07V89.17h-2.92v35H108.46a4.41,4.41,0,0,1-3.5-1.75l-2.33-3.11V95h17.49a11.65,11.65,0,0,0,7.69-20.41h9.8V86.25h5.84Zm0,0" transform="translate(-55.98 -48.35)"/><rect x="75.81" y="64.14" width="2.92" height="2.92"/><rect x="49.56" y="64.14" width="23.32" height="2.92"/><rect x="49.56" y="58.31" width="29.16" height="2.92"/><rect x="49.56" y="52.48" width="29.16" height="2.92"/><rect x="11.66" y="64.14" width="2.92" height="2.92"/><rect x="17.49" y="64.14" width="23.32" height="2.92"/><rect x="11.66" y="69.97" width="23.32" height="2.92"/><rect x="37.9" y="69.97" width="2.92" height="2.92"/><path d="M115.75,73.13a10.22,10.22,0,0,0-10.21-10.2v2.91a7.3,7.3,0,0,1,7.29,7.29Zm0,0" transform="translate(-55.98 -48.35)"/></svg>