<svg id="Layer_1" data-name="Layer 1" xmlns="http://www.w3.org/2000/svg" viewBox="0 0 90.51 90.51"><defs><style>.cls-1{fill:#f4f9fc;}.cls-2{fill:#f27f39;}</style></defs><path class="cls-1" d="M56.81,114.87l-.58-7.47,6.13-4.4H66l6.32-9.38,1.53-34.47,5.55-3.26h42.13l4.21,3.83.2,12.45.19,4.6,4-2.88,4-2.68,6.7,2.49,2.68,2.11.77,2.49-5.17.19h-3.83a7.28,7.28,0,0,0-.38,2.49,15.69,15.69,0,0,0,2.1,2.49l3.83.19,1.92-.19,1,1.91L139.53,90h-4.21l-3.45-1.53A30.29,30.29,0,0,0,129,86.91a6.82,6.82,0,0,1-1.91-1.34l-.77-.38h-1l.38,55.34L122.3,144H79l-5.36-3.64-.38-19.15-4.6-1-9.19-.38L56,115.06Z" transform="translate(-54.38 -54.74)"/><path class="cls-2" d="M98.18,91.24v5.84h14.6v23.36h8.76V91.24Zm0,0" transform="translate(-54.38 -54.74)"/><path d="M104,130.66H95.26a2.92,2.92,0,0,0-2.92,2.92v2.92a2.92,2.92,0,0,0,2.92,2.92H104a2.92,2.92,0,0,0,2.92-2.92v-2.92a2.92,2.92,0,0,0-2.92-2.92Zm-8.76,5.84v-2.92H104v2.92Zm0,0" transform="translate(-54.38 -54.74)"/><path d="M101.1,62a1.46,1.46,0,1,1-1.46-1.46A1.46,1.46,0,0,1,101.1,62Zm0,0" transform="translate(-54.38 -54.74)"/><path d="M144.89,76.25l-.19-.34a9.77,9.77,0,0,0-8.57-5.11,10.15,10.15,0,0,0-7.3,3.08,4.33,4.33,0,0,1-1.45,1V62a7.32,7.32,0,0,0-7.3-7.3H79.2A7.32,7.32,0,0,0,71.9,62V92.39a16,16,0,0,0-6.69,9.09l-.61,0a10.22,10.22,0,1,0,0,20.44h7.3V138a7.32,7.32,0,0,0,7.3,7.3h40.88a7.32,7.32,0,0,0,7.3-7.3V87.19a4.3,4.3,0,0,1,1.45,1,10.11,10.11,0,0,0,7.3,3.08,9.77,9.77,0,0,0,8.57-5.11l.19-.34V82.48h-7.61l-.73-2.92h8.34ZM124.46,62v4.38h-19a7.2,7.2,0,0,0,1.5-4.38V57.66h13.14A4.39,4.39,0,0,1,124.46,62Zm-29.2,0V57.66H104V62a4.38,4.38,0,1,1-8.76,0ZM79.2,57.66H92.34V62a7.2,7.2,0,0,0,1.5,4.38h-19V62a4.39,4.39,0,0,1,4.38-4.38Zm-21.9,54a7.31,7.31,0,0,1,7.3-7.3,7.72,7.72,0,0,1,1.44.14l1.45.29.27-1.44a13.13,13.13,0,0,1,25.95,1l.25,2.25,1.94-1.16A7.3,7.3,0,1,1,99.64,119h-35a7.32,7.32,0,0,1-7.3-7.3ZM99.64,121.9A10.22,10.22,0,1,0,96.26,102a16,16,0,0,0-15.6-12.26,15.85,15.85,0,0,0-5.84,1.12V69.34h49.64v5.84H95.26a5.84,5.84,0,0,0,0,11.68h29.2v38H74.82V121.9Zm20.44,20.44H79.2A4.39,4.39,0,0,1,74.82,138V127.74h49.64V138a4.39,4.39,0,0,1-4.38,4.38Zm12.72-65.7L135,85.4h6.71a6.71,6.71,0,0,1-5.57,2.92,7.22,7.22,0,0,1-5.21-2.2,7.3,7.3,0,0,0-5.18-2.18H95.26a2.92,2.92,0,0,1,0-5.84h30.48a7.26,7.26,0,0,0,5.18-2.18,7.22,7.22,0,0,1,5.21-2.2,6.71,6.71,0,0,1,5.57,2.92Zm0,0" transform="translate(-54.38 -54.74)"/><rect x="23.36" y="24.82" width="2.92" height="2.92"/><rect x="29.2" y="24.82" width="2.92" height="2.92"/><rect x="58.39" y="64.23" width="8.76" height="2.92"/><rect x="58.39" y="58.39" width="8.76" height="2.92"/><rect x="58.39" y="52.55" width="8.76" height="2.92"/><rect x="58.39" y="46.72" width="8.76" height="2.92"/><rect x="43.8" y="40.88" width="23.36" height="2.92"/><rect x="43.8" y="35.04" width="23.36" height="2.92"/></svg>