<svg id="Layer_1" data-name="Layer 1" xmlns="http://www.w3.org/2000/svg" viewBox="0 0 89.56 89.56"><defs><style>.cls-1{fill:#f4f9fc;}.cls-2{fill:#f27f39;}</style></defs><path class="cls-1" d="M78.7,119.07v-11L61.6,105l-7.15-7.15,1.78-11.23,6.64-8.17s5.87-13.79,18.39-10.73c0,0,15.83-19.91,31.14-1.53l11.24,3.06L129,76.69s-.26,5.11,2.81,6.38a13.36,13.36,0,0,1,5.87,5.11c.26.76,1.53,6.38,1,8.68s-4.85,8.17-5.61,8.68-6.39,1.53-9.2,1.79a23.63,23.63,0,0,1-6.63-.77l-.26,6.89-.77,6.39a7.84,7.84,0,0,1-4.85,1.53c-3.06,0-26-.26-26-.26Z" transform="translate(-52.3 -56.26)"/><rect class="cls-2" x="38.53" y="39.58" width="13.28" height="11.62"/><path d="M103.24,93.23H90.93a2.39,2.39,0,0,0-2.39,2.38v12.32a2.39,2.39,0,0,0,2.39,2.39h12.31a2.39,2.39,0,0,0,2.39-2.39V95.61A2.39,2.39,0,0,0,103.24,93.23Zm-2.39,12.31H93.32V98h7.53Z" transform="translate(-52.3 -56.26)"/><path d="M132.62,79.12l-.13-.06v-.15a14,14,0,0,0-3.8-8.74,14.14,14.14,0,0,0-14.11-4l-.18,0-.1-.17a20,20,0,0,0-34.41,0l-.1.17-.18,0a14.16,14.16,0,0,0-14.11,4,14,14,0,0,0-3.8,8.74v.15l-.13.06a16.38,16.38,0,0,0,7.13,31.12h6.67v10.89a2.4,2.4,0,0,0,2.39,2.39h2.88v12.25H76.23l-.06-.17a7.67,7.67,0,1,0,0,5.11l.06-.17H83a2.39,2.39,0,0,0,2.39-2.39V123.52h9.3v7.35l-.17.06a7.67,7.67,0,1,0,5.11,0l-.17-.06v-7.35h9.3v14.63a2.39,2.39,0,0,0,2.39,2.39h6.78l.06.17a7.67,7.67,0,1,0,0-5.11l-.06.17h-4.39V123.52h2.88a2.4,2.4,0,0,0,2.39-2.39V110.24h6.67a16.38,16.38,0,0,0,7.13-31.12ZM68.94,141a2.89,2.89,0,1,1,2.89-2.89A2.89,2.89,0,0,1,68.94,141Zm56.29-5.77a2.89,2.89,0,1,1-2.89,2.88A2.89,2.89,0,0,1,125.23,135.27ZM100,138.15a2.89,2.89,0,1,1-2.89-2.88A2.89,2.89,0,0,1,100,138.15Zm14.08-19.41H80.12V84.81h33.93Zm11.44-13.28h-6.67v-23A2.39,2.39,0,0,0,116.43,80H77.74a2.39,2.39,0,0,0-2.39,2.39v23H68.68a11.6,11.6,0,0,1-3.82-22.55,2.39,2.39,0,0,0,1.6-2.41,9.42,9.42,0,0,1,13.45-9.13,2.38,2.38,0,0,0,3.22-1.19,15.22,15.22,0,0,1,27.91,0,2.38,2.38,0,0,0,3.22,1.19,9.42,9.42,0,0,1,13.45,9.13,2.4,2.4,0,0,0,1.6,2.41,11.6,11.6,0,0,1-3.82,22.55Z" transform="translate(-52.3 -56.26)"/></svg>