<svg id="Layer_1" data-name="Layer 1" xmlns="http://www.w3.org/2000/svg" xmlns:xlink="http://www.w3.org/1999/xlink" viewBox="0 0 66.35 66.35"><defs><style>.cls-1{fill:none;}.cls-2{fill:#f5fafd;}.cls-3{clip-path:url(#clip-path);}.cls-4{fill:#f38039;}</style><clipPath id="clip-path" transform="translate(-66.83 -66.82)"><rect class="cls-1" x="66.82" y="66.82" width="66.35" height="66.35"/></clipPath></defs><path class="cls-2" d="M70.12,87.09v40l-2.17,1v3.32l2.17.9h61.15l1-3.83v-.9l-2.55-.25V87.09l-3.2-1.79h-10s1.91-14-15.07-17.62c0,0-11.22.41-12.89,4.47s-4,4.08-4.6,8.17a43.44,43.44,0,0,0-.64,5.23l-10.72.39Z" transform="translate(-66.83 -66.82)"/><g class="cls-3"><path d="M131,87.84a3.31,3.31,0,0,0-3.31-3.32h-10a15.5,15.5,0,0,0-.11-1.93c0-.24-.07-.47-.11-.71s-.12-.77-.2-1.16-.14-.56-.22-.85-.18-.63-.28-.94-.21-.59-.33-.89-.23-.55-.36-.83-.26-.58-.42-.87-.3-.55-.47-.82-.29-.51-.45-.76q-.43-.65-.93-1.26l-.16-.21c-.41-.5-.86-1-1.32-1.44l-.19-.16q-.63-.6-1.32-1.14l-.11-.09-.65-.49h0a17.63,17.63,0,0,0-25.88,6.67h0l-.22.47,0,.08c-.23.51-.44,1-.62,1.56l-.08.2c-.16.51-.31,1-.43,1.55,0,.1,0,.19-.07.29a14.66,14.66,0,0,0-.25,1.5c0,.12,0,.23,0,.35a14.64,14.64,0,0,0-.09,1.87h-10A3.31,3.31,0,0,0,69,87.84v38.7H66.83v3.32a3.32,3.32,0,0,0,3.31,3.32h59.72a3.32,3.32,0,0,0,3.32-3.32v-3.32H131ZM84.6,83a15.13,15.13,0,0,1,1.14-4.44,6.86,6.86,0,0,1,6.93,2.72l.52.73a6.87,6.87,0,0,1,1.28,4,9.09,9.09,0,0,0,5.4,8.3,8.63,8.63,0,0,1,4.63,5c-.34.11-.68.19-1,.27l-.1,0-.74.14-.72.11-.55.06c-.46,0-.91.07-1.37.07A15.5,15.5,0,0,1,84.52,84.52c0-.52,0-1,.08-1.55ZM100,102.21c.56,0,1.11,0,1.67-.08.32,0,.63-.09.94-.13l.65-.1c.41-.08.82-.18,1.22-.28l.31-.08c.44-.13.89-.28,1.31-.43l.14,0,.52-.2.13,0,.25-.09v0a17.81,17.81,0,0,0,8.8-8.53l0,0,.17-.35a.64.64,0,0,1,0-.07c.09-.19.17-.38.25-.58h7.94v31H75.67v-31h7.94A17.72,17.72,0,0,0,100,102.21Zm14.26-11.68-1.53.76a3.38,3.38,0,0,1-3.22-.09l-.5-.28a3.42,3.42,0,0,1-.72-5.39,5.63,5.63,0,0,0,.91-6.77l-.68-1.19a3.41,3.41,0,0,1,1-4.48l.5-.36a13.1,13.1,0,0,1,1.15,1.08c.1.1.19.21.28.31.25.27.5.56.73.85l.39.52.49.72c.14.22.28.44.41.66l.35.67c.13.25.25.5.37.76l.27.67c.1.27.2.53.29.8s.14.5.21.76.14.5.2.77.11.63.15,1,.08.42.1.63a15,15,0,0,1,.09,1.64c0,.52,0,1-.08,1.55a15.34,15.34,0,0,1-1.14,4.46ZM100,69a15.39,15.39,0,0,1,8.13,2.33,5.59,5.59,0,0,0-1.53,7.29l.68,1.19a3.45,3.45,0,0,1-.55,4.12,5.63,5.63,0,0,0,1.18,8.87l.5.28a5.54,5.54,0,0,0,4,.61,15.48,15.48,0,0,1-5.85,4.79,10.85,10.85,0,0,0-5.8-6.27A6.9,6.9,0,0,1,96.68,86,9,9,0,0,0,95,80.69L94.47,80A9.08,9.08,0,0,0,87,76.21,15.46,15.46,0,0,1,100,69ZM71.25,87.84a1.11,1.11,0,0,1,1.1-1.11H82.46a18.35,18.35,0,0,0,.43,2.21H73.46v35.39h53.08V88.94h-9.43c0-.18.1-.35.14-.53s0-.14,0-.21a14.08,14.08,0,0,0,.24-1.47h10.11a1.11,1.11,0,0,1,1.1,1.11v38.7H71.25Zm59.71,42a1.1,1.1,0,0,1-1.1,1.1H70.14a1.1,1.1,0,0,1-1.1-1.1v-1.11H131Zm0,0" transform="translate(-66.83 -66.82)"/></g><path class="cls-4" d="M94.05,113.7l6-6.65s7.22,7.51,7.08,7.51h-3.21s.19,4.65-.1,4.65-7-.34-7-.34l0-4.16-3.36-.15Z" transform="translate(-66.83 -66.82)"/><path d="M95.58,119.91h8.84v-4.43H109l-9-10.54-9,10.54h4.62ZM100,108.34l4.23,4.93h-2v4.42H97.79v-4.42h-2Zm0,0" transform="translate(-66.83 -66.82)"/></svg>