<svg id="Layer_1" data-name="Layer 1" xmlns="http://www.w3.org/2000/svg" viewBox="0 0 70.92 70.7"><defs><style>.cls-1{fill:#f5fafd;}.cls-2{stroke:#231f20;stroke-miterlimit:10;stroke-width:0.4px;}.cls-3{fill:#f38039;}</style></defs><path class="cls-1" d="M65.35,117.28V75.79s3.32-8.05,7.4-6.9V80.38h33.32l15.75-14.91,5.31,5.29L125.22,74l-5.87,6.09,10.34.25v22.47l4.46-4.21v35.49H99l7-7.5H71.73S63.88,124.42,65.35,117.28Z" transform="translate(-64.54 -64.65)"/><path d="M127.14,114.51a1,1,0,0,0-1.13.22L114.7,126a1,1,0,0,0,.73,1.77h11.31a1,1,0,0,0,1-1V115.46A1,1,0,0,0,127.14,114.51Zm-1.43,11.23h-7.78l7.78-7.78v7.78Z" transform="translate(-64.54 -64.65)"/><path class="cls-2" d="M134.62,97.92a1,1,0,0,0-1.13.22l-3.1,3.1V80.16a1,1,0,0,0-1-1h-8l2.88-2.89h0l2.79-2.78a3.17,3.17,0,0,0,0-4.47l-3.22-3.21a3.13,3.13,0,0,0-2.23-.93,3.1,3.1,0,0,0-2.23.93l-2.79,2.78-3.36,3.36-7.2,7.21H73.92V68.89a1,1,0,0,0-1-1A8.15,8.15,0,0,0,64.74,76v44a1.64,1.64,0,0,0,0,.22,7.84,7.84,0,0,0,7.82,7.24h31.63l-6,6a1,1,0,0,0-.22,1.13,1,1,0,0,0,1,.64h35.25a1,1,0,0,0,1-1V98.87A1,1,0,0,0,134.62,97.92ZM117.34,70.76l4.76,4.75-1.9,1.9-4.75-4.76Zm3.52-3.52a1.1,1.1,0,0,1,1.54,0l3.21,3.22a1.07,1.07,0,0,1,0,1.53l-2,2.05-4.75-4.75Zm-19.38,65.84,10.46-10.46h0a1,1,0,0,0,0-1.46.79.79,0,0,0-.15-.12,1,1,0,0,0-1.31.12l-4.2,4.19H72.58a5.74,5.74,0,0,1-5.77-5.58c0-.2,0-.39,0-.59h0c0-.09,0-.18,0-.27v0a2,2,0,0,1,0-.24v-.07c0-.07,0-.14,0-.2l0-.11c0-.05,0-.11,0-.16s0-.1.05-.15a.76.76,0,0,0,0-.11c0-.07,0-.14.08-.2l0-.06.12-.25h0A6.12,6.12,0,0,1,71.65,114h0l.26-.05h0l.24,0h.07l.23,0h.38a1,1,0,0,0,1-1v-7.51a1,1,0,0,0-2.08,0v6.54a8,8,0,0,0-4.64,2.25,5,5,0,0,0-.39.41V76a6.08,6.08,0,0,1,5-6v31.2h0a1,1,0,0,0,2.08,0h0v-20H104l-5.73,5.72a1,1,0,1,0,1.47,1.46l7.49-7.49h0L114,74.12l4.75,4.75-.55.56h0L97.3,100.3l-4.75-4.75,4.11-4.12a1,1,0,0,0,0-1.46,1,1,0,0,0-1.46,0l-4.84,4.85-.08.08,0,0,0,.06,0,0,0,.06v0l0,.06v0l-2,5.72-1.37,3.89a.94.94,0,0,0,0,.16H83.24a1,1,0,1,0,0,2.07H111.9a1,1,0,1,0,0-2.07H91.34l6.31-2.23h0a.13.13,0,0,0,.08,0h0l.08,0h0l.07,0,0,0,.09-.07,21.3-21.3h9v22.11l-14.8,14.81a1,1,0,0,0,0,1.46.27.27,0,0,0,.08.07,1,1,0,0,0,1.3,0,.27.27,0,0,0,.08-.07h0l18.21-18.21v9.13h-1.91a1,1,0,0,0,0,2.07h1.91v3.12h-1.91a1,1,0,0,0,0,2.07h1.91v3.12h-1.91a1,1,0,0,0,0,2.07h1.91v3.12h-1.91a1,1,0,0,0,0,2.07h1.91v4.94Zm-9-30.7-2-2,1-3,3.89,3.9Z" transform="translate(-64.54 -64.65)"/><polygon class="cls-3" points="53.39 61.09 61.17 53.31 61.17 61.09 53.39 61.09"/></svg>