<svg id="Layer_1" data-name="Layer 1" xmlns="http://www.w3.org/2000/svg" viewBox="0 0 92.17 92.17"><defs><style>.cls-1{fill:#f4f9fc;}.cls-2{fill:#f27f39;}</style></defs><circle class="cls-1" cx="46.09" cy="46.09" r="45.96"/><circle class="cls-2" cx="46.09" cy="46.09" r="13.28"/><path d="M146.49,99.26a46.08,46.08,0,0,1-30.72,43.46,3.6,3.6,0,1,1-2.4-6.79,38.9,38.9,0,0,0-3-74.27l6.73,6.73A3.6,3.6,0,0,1,112,73.48L97.86,59.32a3.6,3.6,0,0,1,2.54-6.15,46.06,46.06,0,0,1,46.09,46.09ZM88.79,125a3.6,3.6,0,0,0-5.09,5.09l6.73,6.73a38.9,38.9,0,0,1-3-74.27A3.6,3.6,0,1,0,85,55.79a46.09,46.09,0,0,0,15.36,89.55,3.61,3.61,0,0,0,2.55-6.15ZM100.4,81.49A17.77,17.77,0,1,1,82.64,99.26,17.79,17.79,0,0,1,100.4,81.49ZM89.84,99.26A10.57,10.57,0,1,0,100.4,88.69,10.58,10.58,0,0,0,89.84,99.26Zm0,0" transform="translate(-54.32 -53.17)"/></svg>