<svg id="Layer_1" data-name="Layer 1" xmlns="http://www.w3.org/2000/svg" xmlns:xlink="http://www.w3.org/1999/xlink" viewBox="0 0 96.84 90.38"><defs><style>.cls-1{fill:none;}.cls-2{fill:#f4f9fc;}.cls-3{fill:#f27f39;}.cls-4{clip-path:url(#clip-path);}</style><clipPath id="clip-path" transform="translate(-52.61 -48.68)"><rect id="SVGID" class="cls-1" x="52.61" y="48.68" width="96.84" height="90.38"/></clipPath></defs><polygon class="cls-2" points="1.72 3.45 49.79 3.45 49.79 48.13 95.59 48.13 95.59 64.5 91.66 65.94 3.1 65.94 0.7 61.44 1.72 3.45"/><path d="M147.83,95.48H104.25V51.9a1.65,1.65,0,0,0-.47-1.14,1.61,1.61,0,0,0-1.14-.47H57.45a4.84,4.84,0,0,0-4.84,4.84v56.49a4.84,4.84,0,0,0,4.84,4.84H91.34v12.91H86.5A1.62,1.62,0,0,0,84.89,131v6.45a1.65,1.65,0,0,0,.47,1.15,1.61,1.61,0,0,0,1.14.47h29.05a1.61,1.61,0,0,0,1.14-.47,1.66,1.66,0,0,0,.48-1.15V131a1.64,1.64,0,0,0-1.62-1.62h-4.84V116.46H144.6a4.84,4.84,0,0,0,4.84-4.84V97.1A1.65,1.65,0,0,0,149,96a1.61,1.61,0,0,0-1.14-.47Zm-90.38-42H101V60H55.83V55.13a1.62,1.62,0,0,1,1.62-1.61Zm56.49,82.31H88.11V132.6h25.83Zm-6.46-6.46H94.57V116.46h4.84v4.85a1.62,1.62,0,0,0,3.23,0v-4.85h4.84Zm38.74-17.75a1.63,1.63,0,0,1-1.62,1.62H57.45a1.63,1.63,0,0,1-1.62-1.62V63.2H101V97.1a1.65,1.65,0,0,0,.47,1.14,1.61,1.61,0,0,0,1.14.47h43.58Zm0,0" transform="translate(-52.61 -48.68)"/><path class="cls-3" d="M60.68,56.75a1.62,1.62,0,1,1-1.62-1.62,1.62,1.62,0,0,1,1.62,1.62Zm0,0" transform="translate(-52.61 -48.68)"/><path class="cls-3" d="M65.52,56.75a1.62,1.62,0,1,1-1.62-1.62,1.62,1.62,0,0,1,1.62,1.62Zm0,0" transform="translate(-52.61 -48.68)"/><path class="cls-3" d="M70.36,56.75a1.62,1.62,0,1,1-1.61-1.62,1.61,1.61,0,0,1,1.61,1.62Zm0,0" transform="translate(-52.61 -48.68)"/><path d="M97.8,68a1.62,1.62,0,0,0-1.62-1.61H89.73A1.62,1.62,0,0,0,88.11,68V74.5H83.27a1.61,1.61,0,0,0-1.14.47,1.65,1.65,0,0,0-.47,1.14V81H76.82a1.65,1.65,0,0,0-1.15.47,1.61,1.61,0,0,0-.47,1.14V89H70.36a1.6,1.6,0,0,0-1.61,1.61v4.84H63.9a1.6,1.6,0,0,0-1.61,1.62v4.84H59.06v3.23h45.19v-3.23H97.8ZM65.52,98.71h3.23v3.23H65.52ZM72,92.25H75.2v9.69H72Zm6.46-8.07h3.23v17.76H78.43Zm6.46-6.45h3.22v24.21H84.89Zm6.45,24.21V69.66h3.23v32.28Zm0,0" transform="translate(-52.61 -48.68)"/><rect x="54.88" y="53.26" width="3.23" height="3.23"/><g class="cls-4"><path d="M118.78,85.8a4.84,4.84,0,1,0-4.57-6.46h-6.73v3.23h6.73a4.86,4.86,0,0,0,4.57,3.23Zm0-6.46A1.62,1.62,0,1,1,117.17,81a1.61,1.61,0,0,1,1.61-1.62Zm0,0" transform="translate(-52.61 -48.68)"/><path d="M144.6,50.29A4.83,4.83,0,0,0,140,53.52h-3.51a1.58,1.58,0,0,0-1.22.56l-8.55,10-5.23-5.23a1.61,1.61,0,0,0-1.14-.47H107.48v3.23h12.24l6,6a1.61,1.61,0,0,0,1.14.47h8.35a4.84,4.84,0,1,0,0-3.22h-4.84l6.91-8.07H140a4.84,4.84,0,1,0,4.56-6.46Zm-4.84,14.53a1.61,1.61,0,1,1-1.61,1.61,1.61,1.61,0,0,1,1.61-1.61Zm4.84-8.07a1.62,1.62,0,1,1,1.62-1.62,1.62,1.62,0,0,1-1.62,1.62Zm0,0" transform="translate(-52.61 -48.68)"/><path d="M125.23,58.36a4.84,4.84,0,1,0-4.56-6.46H107.48v3.23h13.19a4.84,4.84,0,0,0,4.56,3.23Zm0-6.46a1.62,1.62,0,1,1-.61,3.11,1.62,1.62,0,0,1,.61-3.11Zm0,0" transform="translate(-52.61 -48.68)"/></g><path d="M122.48,72.41a4.85,4.85,0,1,0,2.28-2.28l-3.23-3.23a1.61,1.61,0,0,0-1.14-.47H107.48v3.23h12.24Zm6,2.09a1.61,1.61,0,1,1-1.61-1.61,1.61,1.61,0,0,1,1.61,1.61Zm0,0" transform="translate(-52.61 -48.68)"/><path d="M133,90l5-6.21a4.85,4.85,0,1,0-2.41-2.16l-4.59,5.75H107.48v3.23h24.21A1.59,1.59,0,0,0,133,90Zm6.81-12.3a1.61,1.61,0,1,1-1.61,1.61,1.61,1.61,0,0,1,1.61-1.61Zm0,0" transform="translate(-52.61 -48.68)"/></svg>