<svg id="Layer_1" data-name="Layer 1" xmlns="http://www.w3.org/2000/svg" viewBox="0 0 88.87 88.87"><defs><style>.cls-1{fill:#f4f9fc;}.cls-2{fill:#f07e3a;}</style></defs><path class="cls-1" d="M116.62,77,99.13,61.85l-36.77-.13-.51,11.11-10.72,1s-.39,73.28,0,73.28h54V135.64h11.36l1.68-58.9" transform="translate(-49.08 -60.31)"/><path d="M130.09,102.49a7.85,7.85,0,0,0-7.44,5.35l-.08.26h-4.4V87.39h4.4l.08.26a7.86,7.86,0,1,0,0-5l-.08.25h-4.4V76.74a2.26,2.26,0,0,0-.65-1.58L103.51,61a2.28,2.28,0,0,0-1.6-.67H62.7a2.25,2.25,0,0,0-2.25,2.25v9.3H51.33a2.25,2.25,0,0,0-2.25,2.25v72.82a2.25,2.25,0,0,0,2.25,2.25h53.21a2.25,2.25,0,0,0,2.25-2.25v-9.3h15.78l.08.25a7.86,7.86,0,1,0,0-5l-.08.26h-4.4V112.6h4.4l.08.25a7.85,7.85,0,1,0,7.44-10.36Zm0-20.7a3.35,3.35,0,1,1-3.35,3.35A3.35,3.35,0,0,1,130.09,81.79ZM104.16,68l6.37,6.45h-6.37Zm-1.87,76.64H53.58V76.36h6.87v59a2.25,2.25,0,0,0,2.25,2.25h39.59Zm11.37-15.13-7.24-7.64.08-.22a7.37,7.37,0,0,0,.46-2.59v-6.5h6.7Zm0-21.45H107v-6.51a7.46,7.46,0,0,0-.46-2.6l-.08-.22L113.66,91Zm0-23.66L103.52,95.28l-.26-.15L103,95l-.2-.1V93.54a13.45,13.45,0,1,0-26.9,0v1.32l-.2.1a7.49,7.49,0,0,0-4,6.63V119.1a7.51,7.51,0,0,0,7.5,7.5h20.3a7.47,7.47,0,0,0,3.82-1l.25-.15,7.33,7.73H65V64.81h34.7V76.74A2.25,2.25,0,0,0,101.91,79h11.75ZM99.46,98.59a3,3,0,0,1,3,3V119.1a3,3,0,0,1-3,3H79.16a3,3,0,0,1-3-3V101.59a3,3,0,0,1,3-3Zm-19.1-4.5v-.37a9,9,0,1,1,17.9,0v.37ZM130.09,132a3.36,3.36,0,1,1-3.35,3.36A3.36,3.36,0,0,1,130.09,132Zm0-18.32a3.35,3.35,0,1,1,3.35-3.35A3.36,3.36,0,0,1,130.09,113.7Z" transform="translate(-49.08 -60.31)"/><path class="cls-2" d="M87.66,111.65v1.57a1.76,1.76,0,0,0,3.51,0v-1.56a2.64,2.64,0,0,0-1.76-4.6h0a2.64,2.64,0,0,0-1.75,4.59Zm0,0" transform="translate(-49.08 -60.31)"/></svg>