<svg id="Layer_1" data-name="Layer 1" xmlns="http://www.w3.org/2000/svg" viewBox="0 0 86.97 86.62"><defs><style>.cls-1{fill:#f4f9fc;}.cls-2{fill:#f27f39;}.cls-3{stroke:#000;stroke-miterlimit:10;stroke-width:0.25px;}</style></defs><path class="cls-1" d="M143.48,94.71c-1,57.16-86,57.15-87,0C57.49,37.55,142.52,37.56,143.48,94.71Z" transform="translate(-56.52 -51.27)"/><path class="cls-2" d="M118.8,107.45c.11,7.21-11.21,7.21-11.11,0C107.59,100.24,118.91,100.24,118.8,107.45Z" transform="translate(-56.52 -51.27)"/><path class="cls-3" d="M72.91,128c1.89,1.59,4.36-1.42,2.41-3a39.17,39.17,0,0,1-12.18-17.18,183,183,0,0,0,22.08,3.05c1.08,3.37-.52,11,3.6,11.41,3.54-1.68-.18-7.72.27-11.16,3.12-.55,10.22,2.3,11.3-1.59-1.13-3.89-8.42-1.21-11.66-2.25a164.87,164.87,0,0,1-.16-23.1,173.11,173.11,0,0,0,22.89,0c1,3-1.55,9.28,2.23,10.36,3.9-1.14,1-7.63,1.57-10.67,3.41-1,13.84.31,14.07-3.84-1.37-3.64-10.73.6-14.36,0a100.53,100.53,0,0,0-4.5-23.18,38.89,38.89,0,0,1,20.37,13.61c1.48,2,4.58-.43,3-2.35C92.63,20.25,25.81,86,72.91,128ZM94,56a39.45,39.45,0,0,1,12,0c2.45,5.94,4.25,14.58,5.14,24.43a169.48,169.48,0,0,1-22.31,0C89.74,70.56,91.53,62,94,56Zm-4.44,1a99.29,99.29,0,0,0-4.5,23.17,143.79,143.79,0,0,1-19.94-3.18A39.35,39.35,0,0,1,89.56,56.93ZM60.87,94.66a38.9,38.9,0,0,1,2.66-14.19,148.1,148.1,0,0,0,21.23,3.44A168.43,168.43,0,0,0,84.88,107a177,177,0,0,1-23-3.35,39.33,39.33,0,0,1-1.05-9Zm66.84-38.61c26.59-4.17.6,34.17-9.29,44.34-5.45-4.25-14.14.06-13.92,7.06.65,14.47,22.76,8.84,16.45-4.16,11.24-13.55,28.7-34.82,19.14-48.71-2-1.95-5.83-3.92-13.22-2.25a1.91,1.91,0,0,0,.84,3.72Zm-14.46,56.33c-6.4.09-6.4-9.95,0-9.86,6.4-.09,6.4,10,0,9.86Zm-8.94,6.94c-12.94,11.5-50.42,33.81-46.64,2.27.51-2.42,4.29-1.58,3.73.83-2.71,10.45,4.26,14.11,15.7,9.38,7.3-2.76,16.1-8.24,24.78-15.42,1.87-1.61,4.38,1.38,2.43,2.94Zm37.81-33.25c5.82,25.75-15.59,52.11-42.1,51.55-3.17-.6-10.34.93-10.74-3.28.49-3.17,12.8.87,16.75-1a65,65,0,0,0,3.35-11.68,1.9,1.9,0,0,1,2.24-1.5c3.75,1.71-.93,9.69-1.14,12.23a39.32,39.32,0,0,0,26.39-24.54c-3.24-.11-9.33,3.66-11.13,0a1.91,1.91,0,0,1,1.6-2.18c3.62-.53,7.24-1.19,10.77-2a39.44,39.44,0,0,0,.27-16.86c-.53-2.42,3.28-3.2,3.74-.76Zm0,0" transform="translate(-56.52 -51.27)"/></svg>