<svg id="Layer_1" data-name="Layer 1" xmlns="http://www.w3.org/2000/svg" viewBox="0 0 90.38 90.38"><defs><style>.cls-1{fill:#f4f9fc;}.cls-2{fill:#f27f39;}</style></defs><polygon class="cls-1" points="1.6 64.98 1.6 1.6 35.87 1.6 51.38 16.91 51.38 24.19 73.02 24.19 87.96 39.51 87.96 87.96 40.09 87.96 40.09 66.32 1.6 64.98"/><path d="M145.45,92.86a1.77,1.77,0,0,0-.42-.6L130,77.2a1.87,1.87,0,0,0-1.34-.55H107.94V71a2,2,0,0,0-.55-1.34L92.33,54.6A1.87,1.87,0,0,0,91,54.05H57.1a1.89,1.89,0,0,0-1.89,1.89v64a1.89,1.89,0,0,0,1.89,1.88H92.87v20.71a1.89,1.89,0,0,0,1.89,1.89h49a1.89,1.89,0,0,0,1.89-1.89v-49A2,2,0,0,0,145.45,92.86Zm-14.92-9.79,8.64,8.64h-8.64ZM92.87,60.48l8.65,8.64H92.87ZM59,118.06V57.8H89.11V71A1.89,1.89,0,0,0,91,72.87h13.18v3.76H94.76a1.89,1.89,0,0,0-1.89,1.88v39.55Zm37.66,22.59V80.4h30.13V93.58a1.88,1.88,0,0,0,1.88,1.88h13.18v45.19Z" transform="translate(-55.21 -54.05)"/><path d="M113.74,64.18a1.8,1.8,0,0,0,.41.63l7.53,7.53a1.88,1.88,0,0,0,2.66-2.66L120,65.37H134.3a3.78,3.78,0,0,1,3.76,3.77v5.65a1.89,1.89,0,0,0,3.77,0V69.14a7.53,7.53,0,0,0-7.53-7.53H120l4.33-4.35a1.88,1.88,0,0,0-2.66-2.66l-7.53,7.53A1.82,1.82,0,0,0,113.74,64.18Z" transform="translate(-55.21 -54.05)"/><path d="M87.07,134.29a1.77,1.77,0,0,0-.41-.62l-7.53-7.54a1.88,1.88,0,0,0-2.66,2.66l4.31,4.31H66.51a3.78,3.78,0,0,1-3.77-3.76v-1.89a1.88,1.88,0,1,0-3.76,0v1.89a7.53,7.53,0,0,0,7.53,7.53H80.8l-4.31,4.31a1.88,1.88,0,1,0,2.62,2.69l0,0,7.53-7.53a1.82,1.82,0,0,0,.39-2Z" transform="translate(-55.21 -54.05)"/><rect class="cls-2" x="59.14" y="49.59" width="11.66" height="29.16"/><rect x="57.68" y="75.83" width="2.92" height="2.92"/><rect x="57.68" y="49.59" width="2.92" height="23.32"/><rect x="63.51" y="49.59" width="2.92" height="29.16"/><rect x="69.35" y="49.59" width="2.92" height="29.16"/><rect x="22.97" y="21.57" width="2.92" height="2.92"/><rect x="22.97" y="27.4" width="2.92" height="23.32"/><rect x="17.14" y="21.57" width="2.92" height="23.32"/><rect x="17.14" y="47.81" width="2.92" height="2.92"/></svg>