<svg id="Layer_1" data-name="Layer 1" xmlns="http://www.w3.org/2000/svg" viewBox="0 0 88.96 88.96"><defs><style>.cls-1{fill:#f5fafd;}.cls-2{stroke:#231f20;stroke-miterlimit:10;}.cls-3{fill:#f38039;}</style></defs><path class="cls-1" d="M82.3,145v-6.45l-26.62-.76v-10l6.77-5.55,7.85-4.59L68.64,113s-3.59-9.83-3.59-10,3.21-7,3.21-7l6.4-3.25,4.64,2.1s2.1,2.75,3,2.36,7.85-5.47,7.85-5.47,3.7-.85,4.08-1A10.91,10.91,0,0,0,96,89.26s1-2.05.76-2.56S93.21,81.85,93,81.34s-.9-8.23-.64-8.94.51-3.57,1.15-4.78a5.31,5.31,0,0,1,2.62-2.68c1.21-.51,1.91-1.47,4.27-.83s1.73,0,3.64,1.08,2.38,2.87,3,4a10.59,10.59,0,0,1,1,2.94c.32,1.08.83,7.21.83,7.21L107,84a6.66,6.66,0,0,0-1.64,1.59,11,11,0,0,0-1.4,3.39c.06.57-.13,1.91.51,2s1,.41,2.53.78,7.11,2.53,7.62,2.73,1.6,2.42,1.79,3a3.21,3.21,0,0,0,.44.89s.13-2,1-2.1a66,66,0,0,0,6.58-2.75s7.21,1.53,7.4,1.73,2.23,7,2.23,7v7l-3.83,5.1a10,10,0,0,0-.76,2,18.61,18.61,0,0,0,.32,2.5c.12.54,6.32,3.15,6.64,3.28s6.25,3.62,6.25,3.62l1.66,3v9l-5.17.71-21.29,1.07,1.07,1.22v7.92l-7.66,1.39c-.11,0-26.55-.32-26.55-.32l-2.35-1.15Z" transform="translate(-55.52 -62.43)"/><path class="cls-2" d="M142.69,131.85a1.28,1.28,0,0,0,1.29-1.28v-2a8.22,8.22,0,0,0-5.66-7.82l-8-2.65v-2.79a9.62,9.62,0,0,0,4.68-8.25v-5.55a9.62,9.62,0,0,0-17.28-5.81A8.19,8.19,0,0,0,113,91.79l-8-2.65V86.35a9.61,9.61,0,0,0,4.69-8.25V72.55a9.62,9.62,0,0,0-19.24,0V78.1a9.61,9.61,0,0,0,4.69,8.25v2.79l-8,2.65a8.19,8.19,0,0,0-4.69,3.93,9.62,9.62,0,0,0-17.28,5.81v5.55a9.62,9.62,0,0,0,4.68,8.25v2.79l-8.05,2.65A8.22,8.22,0,0,0,56,128.59v2a1.29,1.29,0,0,0,2.58,0v-2a5.64,5.64,0,0,1,3.88-5.37L70,120.74a4.93,4.93,0,0,0,9.27,0l7.54,2.48a5.63,5.63,0,0,1,3.53,3.39L87,127.71a8.22,8.22,0,0,0-5.65,7.82V137H65.89v-3.22a1.29,1.29,0,0,0-2.58,0V137H58.6v-.44a1.29,1.29,0,0,0-2.58,0v1.73a1.29,1.29,0,0,0,1.29,1.29h24v10a1.29,1.29,0,0,0,1.29,1.29h34.7a1.29,1.29,0,0,0,1.29-1.29v-1.72a1.29,1.29,0,1,0-2.57,0v.43h-4.72v-7.56a1.29,1.29,0,1,0-2.57,0v7.56H91.22v-7.56a1.29,1.29,0,1,0-2.57,0v7.56H83.93V135.53a5.66,5.66,0,0,1,3.89-5.37l7.54-2.48a4.94,4.94,0,0,0,9.28,0l7.54,2.48a5.66,5.66,0,0,1,3.89,5.37v6.33a1.29,1.29,0,1,0,2.57,0v-2.25h24a1.29,1.29,0,0,0,1.29-1.29v-1.73a1.29,1.29,0,1,0-2.58,0V137h-4.71v-3.22a1.29,1.29,0,0,0-2.58,0V137H118.64v-1.5a8.2,8.2,0,0,0-5.66-7.81l-3.35-1.11a5.63,5.63,0,0,1,3.53-3.39l7.54-2.48a4.93,4.93,0,0,0,9.27,0l7.55,2.48a5.64,5.64,0,0,1,3.88,5.37v2a1.28,1.28,0,0,0,1.29,1.28ZM125.34,94.49a7.05,7.05,0,0,1,7,7v5.55a7,7,0,0,1-14.09,0v-5.55a7.05,7.05,0,0,1,7-7ZM93,78.1V72.55a7,7,0,0,1,14.08,0V78.1A7,7,0,0,1,93,78.1Zm7,9.62a9.72,9.72,0,0,0,2.36-.29v2.65a2.36,2.36,0,0,1-4.72,0V87.43a9.72,9.72,0,0,0,2.36.29ZM87.82,94.24l7.54-2.48a4.94,4.94,0,0,0,9.28,0l7.54,2.48A5.62,5.62,0,0,1,116,99.08a9.4,9.4,0,0,0-.32,2.45v5.55a7.78,7.78,0,0,0,0,1h-6.16a9.62,9.62,0,0,0-19.22,0H84.23a7.78,7.78,0,0,0,0-1v-5.55A9.4,9.4,0,0,0,84,99.08a5.62,5.62,0,0,1,3.86-4.84ZM100,121.06a7,7,0,0,1-7-7v-5.55a7,7,0,0,1,14.08,0V114a7,7,0,0,1-7,7Zm-32.38-14v-5.55a7,7,0,0,1,14.09,0v5.55a7,7,0,0,1-14.09,0Zm9.4,12a2.36,2.36,0,0,1-4.71,0v-2.65a9.71,9.71,0,0,0,4.71,0Zm10.63,1.71-8.05-2.65v-2.79a9.63,9.63,0,0,0,4-4.7h6.78V114a9.64,9.64,0,0,0,4.69,8.26v2.78l-2.25.75a8.22,8.22,0,0,0-5.17-5ZM100,128.35A2.36,2.36,0,0,1,97.64,126v0h0v-2.62a9.75,9.75,0,0,0,4.72,0V126a2.36,2.36,0,0,1-2.36,2.35Zm12.35-7.58a8.22,8.22,0,0,0-5.17,5l-2.25-.74v-2.79a9.64,9.64,0,0,0,4.69-8.26v-3.39h6.78a9.63,9.63,0,0,0,4,4.7v2.79Zm13,.64a2.36,2.36,0,0,1-2.36-2.35v-2.65a9.71,9.71,0,0,0,4.71,0v2.65a2.35,2.35,0,0,1-2.35,2.35Zm0,0" transform="translate(-55.52 -62.43)"/><circle class="cls-3" cx="44.76" cy="73.65" r="2.48"/></svg>