<svg id="Layer_1" data-name="Layer 1" xmlns="http://www.w3.org/2000/svg" viewBox="0 0 89.87 89.87"><defs><style>.cls-1{fill:#f4f9fc;}.cls-2{fill:#f27f39;}</style></defs><path class="cls-1" d="M63.38,142.26V120.62H57.25L64.33,108l11.11-.19v-7.73l3.7-1.21,2.11-5.55s-1.72-3.64-1.41-4.09a37,37,0,0,1,4.09-4.34c.77-.44,4.47-.19,4.66-.19s4.53-.89,4.91-1.08,2.81-2,3-2.62-.63-1.53.77-1.66a23.82,23.82,0,0,1,6.19.77,28.84,28.84,0,0,1,1.66,2.74c.13.38,2.62,1.72,4.15,2s3.19-.32,3.89-.32a9.91,9.91,0,0,1,3.13,1.4c.45.32,2.68,2.88,2.94,3.2a20.41,20.41,0,0,1,.44,3.76c0,.19-.12.7-.12,1.09a6.52,6.52,0,0,0,.89,2.74c.51.58-.13.13,1,1.15s.26.45,1.47,1.21,1.28.51,1.79,1.79a15.86,15.86,0,0,1,.57,1.72,5.63,5.63,0,0,1,.26,1.85,4.94,4.94,0,0,0,0,1.22c.06,1.21.12,2,.12,2.17s-1.72,0,.45.51a31.15,31.15,0,0,0,6,.44c.19,0,4.79.39,4.79.39l5.49,11.55h-6.64l.51,22.28-72.45.57Z" transform="translate(-55.06 -55.06)"/><ellipse class="cls-2" cx="45.14" cy="49.09" rx="6.57" ry="5.87"/><path d="M137.13,107.25h-11v-8.4l-3.82-.9a22.89,22.89,0,0,0-2-4.83l2.07-3.33-3.3-3.3,7.72-9.64a10,10,0,0,0,5.13,1.41A10.15,10.15,0,1,0,122,66l-24.9-1.61a10.13,10.13,0,1,0-.18,2.89l24.9,1.61A10.16,10.16,0,0,0,124.49,75L117,84.43,114.56,82l-3.33,2.07a22.89,22.89,0,0,0-4.83-2l-.9-3.82h-11l-.9,3.82a23.11,23.11,0,0,0-4.83,2L85.44,82l-7.78,7.78,2.07,3.33a22.89,22.89,0,0,0-2,4.83l-3.82.9v8.4h-11l-7.25,14.49h6.69v23.2h75.38v-23.2h6.69Zm-5.24-46.39a7.25,7.25,0,1,1-7.25,7.25,7.26,7.26,0,0,1,7.25-7.25ZM87,72.46a7.25,7.25,0,1,1,7.25-7.25A7.25,7.25,0,0,1,87,72.46Zm52.74,46.38h-30.1l-4.35-8.69h30.1ZM95,107.25a5.8,5.8,0,1,1,10,0Zm-9.16,0a14.81,14.81,0,0,1-.33-2.9,14.5,14.5,0,0,1,29,0,14.81,14.81,0,0,1-.33,2.9h-6a8.59,8.59,0,0,0,.51-2.9,8.7,8.7,0,0,0-17.4,0,8.59,8.59,0,0,0,.51,2.9Zm-9-6.1,3.29-.78.21-.86a20.18,20.18,0,0,1,2.35-5.66l.46-.76-1.78-2.88,4.52-4.52,2.88,1.78L89.5,87a20.18,20.18,0,0,1,5.66-2.35l.87-.21.77-3.29h6.4l.78,3.29.86.21A20.18,20.18,0,0,1,110.5,87l.76.46,2.88-1.78,4.52,4.52-1.78,2.88.46.76a20.18,20.18,0,0,1,2.35,5.66l.21.86,3.29.78v6.1h-6a17.65,17.65,0,0,0,.25-2.9,17.39,17.39,0,1,0-34.78,0,17.65,17.65,0,0,0,.25,2.9h-6Zm-12.15,9h33l-4.34,8.69h-33Zm.55,11.59H95.1l4.9-9.8V142H65.21ZM134.79,142H102.9v-30.1l4.9,9.8h27Zm0,0" transform="translate(-55.06 -55.06)"/><path d="M131.89,72.46a4.35,4.35,0,1,0-4.35-4.35,4.35,4.35,0,0,0,4.35,4.35Zm0-5.8a1.45,1.45,0,1,1-1.45,1.45,1.45,1.45,0,0,1,1.45-1.45Zm0,0" transform="translate(-55.06 -55.06)"/><path d="M87,60.86a4.35,4.35,0,1,0,4.35,4.35A4.35,4.35,0,0,0,87,60.86Zm0,5.8a1.45,1.45,0,1,1,1.45-1.45A1.46,1.46,0,0,1,87,66.66Zm0,0" transform="translate(-55.06 -55.06)"/><path d="M62.31,89.85h13V82.61a7.26,7.26,0,0,0-7.25-7.25h-5.8a7.25,7.25,0,1,0,0,14.49Zm0-11.59h5.8a4.35,4.35,0,0,1,4.35,4.35V87H62.31a4.35,4.35,0,1,1,0-8.69Zm0,0" transform="translate(-55.06 -55.06)"/><rect x="5.8" y="26.09" width="2.9" height="2.9"/><rect x="11.6" y="26.09" width="2.9" height="2.9"/><path d="M131.89,81.16a7.25,7.25,0,0,0-7.25,7.24v7.25h13a7.25,7.25,0,1,0,0-14.49ZM142,88.4a4.35,4.35,0,0,1-4.35,4.35H127.54V88.4a4.36,4.36,0,0,1,4.35-4.35h5.8A4.36,4.36,0,0,1,142,88.4Zm0,0" transform="translate(-55.06 -55.06)"/><rect x="81.18" y="31.89" width="2.9" height="2.9"/><rect x="75.38" y="31.89" width="2.9" height="2.9"/><path d="M68.11,124.64v14.5h29v-14.5Zm26.09,11.6H71v-8.7H94.2Zm0,0" transform="translate(-55.06 -55.06)"/><rect x="33.34" y="75.38" width="2.9" height="2.9"/><rect x="27.54" y="75.38" width="2.9" height="2.9"/><rect x="21.74" y="75.38" width="2.9" height="2.9"/><rect x="73.93" y="81.18" width="2.9" height="2.9"/><rect x="68.13" y="81.18" width="2.9" height="2.9"/><rect x="62.33" y="81.18" width="2.9" height="2.9"/><rect x="62.33" y="75.38" width="14.5" height="2.9"/></svg>