<svg id="Layer_1" data-name="Layer 1" xmlns="http://www.w3.org/2000/svg" viewBox="0 0 87.12 87.1"><defs><style>.cls-1{fill:#f5fafd;}.cls-2{stroke:#000;}.cls-2,.cls-3{stroke-miterlimit:10;stroke-width:0.5px;}.cls-3{fill:#f38039;stroke:#f38039;}</style></defs><rect class="cls-1" x="1.92" y="2.3" width="64.88" height="83.33"/><path class="cls-2" d="M143.15,77.22a4.33,4.33,0,0,0-7.94-1l-.72,1.26a1.44,1.44,0,0,0-2,.52l-3.67,6.25-1.26-.72a1.42,1.42,0,0,0-2,.53,1.44,1.44,0,0,0,.53,2l1.26.73L115.15,108l-3,8.1-1.45,2.69a4.36,4.36,0,0,0,.23,4.68l-3.24,4-.91-2.28a2.9,2.9,0,0,0-5.16-.4l-.52.88-.49-5.77a2.88,2.88,0,0,0-5.61-.68l-3.55,10.65a1.44,1.44,0,0,0,.91,1.82,1.35,1.35,0,0,0,.45.11,1.43,1.43,0,0,0,1.37-1l3.53-10.65.51,5.86a2.88,2.88,0,0,0,5.35,1.24l.54-.88.89,2.27a2.88,2.88,0,0,0,4.94.73l3.36-4.25a4.87,4.87,0,0,0,1.14.14,4.32,4.32,0,0,0,3.77-2.14l1.44-2.41,5.5-6.68,12.4-21.52,1.26.72a1.42,1.42,0,0,1,.67.88,1.46,1.46,0,0,1-.14,1.1l-5.77,10a1.43,1.43,0,0,0-.21,1.12,1.49,1.49,0,0,0,.67.92,1.46,1.46,0,0,0,1.1.14,1.43,1.43,0,0,0,.88-.68l5.77-10a4.34,4.34,0,0,0-1.59-5.92L138.91,90l3.6-6.25a1.43,1.43,0,0,0-.52-2l.73-1.26a4.36,4.36,0,0,0,.43-3.35Zm-5.44.41a1.43,1.43,0,0,1,.88-.68,1.56,1.56,0,0,1,1.1.14,1.45,1.45,0,0,1,.67.88,1.5,1.5,0,0,1-.14,1.1l-.72,1.26L137,78.88ZM118,117.93l-.72-.42-2.13-1.24,2-5.49,4.54,2.63Zm-4.33,4.17a1.45,1.45,0,0,1-.43-1.89L114,119l2.52,1.45-.73,1.24a1.45,1.45,0,0,1-.93.69,1.51,1.51,0,0,1-1.15-.23ZM123.42,111l-5-2.88,11.55-20L135,91Zm13-22.5-5-2.89,2.88-5,5,2.89Zm0,0" transform="translate(-56.44 -56.45)"/><path class="cls-2" d="M79.47,121.38l-5.11,5.09-3.06-3.06a1.45,1.45,0,0,0-2,2l3.06,3.06a2.91,2.91,0,0,0,4.09,0l5.09-5.11a1.44,1.44,0,0,0-2-2Zm0,0" transform="translate(-56.44 -56.45)"/><path class="cls-2" d="M62.47,125.26a12.27,12.27,0,1,0,24.53,0,1.44,1.44,0,1,0-2.88,0,9.39,9.39,0,1,1-9.39-9.38,9.29,9.29,0,0,1,5.63,1.87,1.44,1.44,0,1,0,1.73-2.31,12.27,12.27,0,0,0-19.62,9.82Zm0,0" transform="translate(-56.44 -56.45)"/><path class="cls-2" d="M108.65,68.25a1.45,1.45,0,1,0,0-2.89H71.13a1.45,1.45,0,0,0-1.45,1.44v5.78A1.45,1.45,0,0,0,71.13,74h37.52a1.45,1.45,0,1,0,0-2.89H72.57V68.25Zm0,0" transform="translate(-56.44 -56.45)"/><path class="cls-2" d="M75.45,76.91a1.44,1.44,0,1,0,0,2.88h28.87a1.44,1.44,0,1,0,0-2.88Zm0,0" transform="translate(-56.44 -56.45)"/><path class="cls-3" d="M113,87H81.23a1.45,1.45,0,0,0,0,2.89H113A1.45,1.45,0,1,0,113,87Zm0,0" transform="translate(-56.44 -56.45)"/><path class="cls-2" d="M98.55,97.11a1.45,1.45,0,0,0-1.44-1.44H68.24a1.45,1.45,0,0,0,0,2.89H97.11a1.45,1.45,0,0,0,1.44-1.45Zm0,0" transform="translate(-56.44 -56.45)"/><path class="cls-2" d="M113,95.67h-10.1a1.45,1.45,0,0,0,0,2.89H113a1.45,1.45,0,1,0,0-2.89Zm0,0" transform="translate(-56.44 -56.45)"/><path class="cls-2" d="M82.67,105.77a1.44,1.44,0,1,0,0-2.88H68.24a1.44,1.44,0,0,0,0,2.88Zm0,0" transform="translate(-56.44 -56.45)"/><path class="cls-2" d="M88.45,105.77h10.1a1.44,1.44,0,0,0,0-2.88H88.45a1.44,1.44,0,1,0,0,2.88Zm0,0" transform="translate(-56.44 -56.45)"/><path class="cls-2" d="M121.64,123.09a1.45,1.45,0,0,0-1.44,1.45V139a1.44,1.44,0,0,1-1.44,1.44H61A1.43,1.43,0,0,1,59.58,139V61A1.43,1.43,0,0,1,61,59.59h57.74A1.44,1.44,0,0,1,120.2,61V88.14a1.45,1.45,0,0,0,2.89,0V61a4.33,4.33,0,0,0-4.33-4.33H61A4.33,4.33,0,0,0,56.69,61V139A4.33,4.33,0,0,0,61,143.3h57.74a4.33,4.33,0,0,0,4.33-4.33V124.54a1.45,1.45,0,0,0-1.45-1.45Zm0,0" transform="translate(-56.44 -56.45)"/></svg>