<svg id="Layer_1" data-name="Layer 1" xmlns="http://www.w3.org/2000/svg" viewBox="0 0 65.9 65.9"><defs><style>.cls-1{fill:#f5fafd;}.cls-2{fill:#010101;}.cls-3{fill:#f38039;}</style></defs><path class="cls-1" d="M95.94,131.45H69.13l.65-5.11,3.54-2.68s4-1,4.11-1,1.5-.83,1.53-1.31.32-.55,0-1a4.35,4.35,0,0,0-2.3-.93c-.89-.12-3.7-.07-4.75-.82a6.6,6.6,0,0,1-2.36-2.18c-1.34-1.69-1.6-6.1-1.6-6.1v-37l3.26-4.52,3.47-.38h46.09s3.34,2.1,3.46,2.29.75,13.82.75,13.82l4.86,2.2,2,6.52-1.15,12.19-3.64,2.42s-2.23.1-2.23,1.26-.63,7.81-.63,7.81-.91,2.49-2.31,2.49-19.42.89-19.42.89H86.26l.38,1.77s4.12,1.19,4.5,1.34,5.11,4.12,5.11,4.12v2.2Z" transform="translate(-67.05 -67.05)"/><path class="cls-2" d="M74.07,72.89a1.29,1.29,0,1,0,0,2.57h0a1.29,1.29,0,1,0,0-2.57Z" transform="translate(-67.05 -67.05)"/><path class="cls-2" d="M80.24,72.89a1.29,1.29,0,1,0,0,2.57h0a1.29,1.29,0,1,0,0-2.57Z" transform="translate(-67.05 -67.05)"/><path class="cls-2" d="M86.41,72.89a1.29,1.29,0,1,0,0,2.57h0a1.29,1.29,0,1,0,0-2.57Z" transform="translate(-67.05 -67.05)"/><path class="cls-2" d="M118,72.89H102.36a1.29,1.29,0,1,0,0,2.57H118a1.29,1.29,0,0,0,0-2.57Z" transform="translate(-67.05 -67.05)"/><path class="cls-2" d="M95.34,118.14a1.28,1.28,0,1,0,.91-.38A1.3,1.3,0,0,0,95.34,118.14Z" transform="translate(-67.05 -67.05)"/><path class="cls-2" d="M126,83.56V73.49a6.44,6.44,0,0,0-6.43-6.44H73.48a6.44,6.44,0,0,0-6.43,6.44v40.66a6.19,6.19,0,0,0,6.18,6.19h4.83v.2a.92.92,0,0,1-.75.91l-4.85,1a6.24,6.24,0,0,0-5,5.47l-.4,3.63a1.29,1.29,0,0,0,.32,1,1.32,1.32,0,0,0,1,.43H96.25a1.28,1.28,0,0,0,1-.43,1.26,1.26,0,0,0,.33-1l-.4-3.64a6.24,6.24,0,0,0-5-5.46l-4.85-1a.92.92,0,0,1-.74-.91v-1.22l2.18-1.25.07,0a4.82,4.82,0,0,0,2-3.68.38.38,0,0,0,0-.1V109a3.29,3.29,0,0,0,1.33-3v-2.89a.66.66,0,0,0,0-.14,4.75,4.75,0,0,0-4.77-4.53H76.45a2.16,2.16,0,0,1-1.21-.46,1.77,1.77,0,0,0-2.82,1.42v4.18a6,6,0,0,0,1.33,3.76v7a.38.38,0,0,0,0,.1,4.87,4.87,0,0,0,1.71,3.41H73.23a3.61,3.61,0,0,1-3.61-3.61v-27H84a1.29,1.29,0,0,0,0-2.58H69.62V81h53.81v2.56H102.54a7.69,7.69,0,0,0-7.68,7.68V102a7.68,7.68,0,0,0,7.68,7.67h1.6v3.77a1.3,1.3,0,0,0,.8,1.19,1.37,1.37,0,0,0,.49.09,1.3,1.3,0,0,0,.91-.37l4.67-4.68h12.42v4.5a3.61,3.61,0,0,1-3.61,3.61H101.48a1.29,1.29,0,0,0,0,2.58h18.34a6.19,6.19,0,0,0,6.18-6.19v-4.53A7.69,7.69,0,0,0,133,102V91.2A7.68,7.68,0,0,0,126,83.56ZM84,120.78a3.47,3.47,0,0,0,.82,2,5,5,0,0,1-5,0,3.46,3.46,0,0,0,.81-2,3.77,3.77,0,0,0,3.34,0Zm10.61,7.38.24,2.21h-25l.24-2.21a3.67,3.67,0,0,1,3-3.22l4.26-.85a7.61,7.61,0,0,0,10.13,0l4.26.85A3.68,3.68,0,0,1,94.57,128.16Zm-7.18-12.3-4.32,2.47-.08,0a1.2,1.2,0,0,1-1.4,0l-.06,0-4.32-2.47a2.3,2.3,0,0,1-.88-1.67v-5a5.89,5.89,0,0,0,2.07.37h9.86v4.67A2.25,2.25,0,0,1,87.39,115.86ZM75,100.71a4.18,4.18,0,0,0,1.46.27H87.39a2.19,2.19,0,0,1,2.2,2.14V106h0c0,.66-.13.82-.14.84a1.41,1.41,0,0,1-.8.15H78.4A3.41,3.41,0,0,1,75,103.54ZM69.62,78.39v-4.9a3.86,3.86,0,0,1,3.86-3.86h46.09a3.86,3.86,0,0,1,3.86,3.86v4.9ZM130.38,102a5.11,5.11,0,0,1-5.11,5.1H110.48a1.3,1.3,0,0,0-.91.38l-2.85,2.85v-1.94a1.29,1.29,0,0,0-1.29-1.29h-2.89a5.11,5.11,0,0,1-5.11-5.1V91.2a5.11,5.11,0,0,1,5.11-5.1h22.73a5.11,5.11,0,0,1,5.11,5.1Z" transform="translate(-67.05 -67.05)"/><path class="cls-2" d="M103.61,92.68a3.86,3.86,0,1,0,3.86,3.86A3.86,3.86,0,0,0,103.61,92.68Zm0,5.15a1.29,1.29,0,1,1,1.28-1.29A1.29,1.29,0,0,1,103.61,97.83Z" transform="translate(-67.05 -67.05)"/><path class="cls-2" d="M113.9,92.68a3.86,3.86,0,1,0,3.87,3.86A3.86,3.86,0,0,0,113.9,92.68Zm0,5.15a1.29,1.29,0,1,1,1.29-1.29A1.28,1.28,0,0,1,113.9,97.83Z" transform="translate(-67.05 -67.05)"/><path class="cls-2" d="M124.2,92.68a3.86,3.86,0,1,0,3.86,3.86A3.86,3.86,0,0,0,124.2,92.68Zm0,5.15a1.29,1.29,0,1,1,1.29-1.29A1.29,1.29,0,0,1,124.2,97.83Z" transform="translate(-67.05 -67.05)"/><path class="cls-2" d="M87.91,84.94a1.28,1.28,0,1,0,.91-.38A1.3,1.3,0,0,0,87.91,84.94Z" transform="translate(-67.05 -67.05)"/><circle class="cls-3" cx="36.56" cy="29.49" r="1.84"/><circle class="cls-3" cx="46.86" cy="29.49" r="1.84"/><circle class="cls-3" cx="57.15" cy="29.49" r="1.84"/></svg>