<svg id="Layer_1" data-name="Layer 1" xmlns="http://www.w3.org/2000/svg" viewBox="0 0 84.33 91.38"><defs><style>.cls-1{fill:#f4f9fc;}.cls-2{fill:#f07e3a;}.cls-3{stroke:#231f20;stroke-miterlimit:10;}</style></defs><path class="cls-1" d="M102.16,158.78V144.61l7.47-8.33,10.24-.77.67-4.79s-6.32-.38-8.14-1.34-5.93-4-6.51-5-2-3.25-2-3.25l-1.43,2.49s-2.11.38-2.59-.1-1.72-1.91-2-2.3-.09-.28-1.72-.86-5.36-2.1-6.23-3.16a24.28,24.28,0,0,1-3-6.51c-.1-1,2.77-4.88,3.63-6.32s3.36-2.58,4.41-3.25a31.12,31.12,0,0,1,3.64-1.82,22.45,22.45,0,0,0,3.16-4.5c0-.29,2.39-11.68,5.84-14.17s6.22-6.13,8.23-6.89,8.24-3.16,10.44-3.26,8.42.38,10.62,1.34,8.43,3.64,9.39,5,2.1,2.68,3.44,4.31,3.45,6.6,4,8.14,3,8.33,3,8.33.39,2.2.87,2.49l8.8,4L169,116.46s-5.94,4.11-6.22,4.21l-5,1.82-.67,2.11-3.45-2s-.29-1.35-.86-.87-4.69,5-5.65,5.37-5.55,2.29-7.37,2.77-2.78.38-2.88,1.25-.67,2.77,0,3.35,9.68,1.63,11,2.3a26.36,26.36,0,0,1,5.64,5.26c1,1.34,1.34,9.77,1.34,11.59s-.86,4.59-1.43,5.07-7.37,1.25-13.31,1-12.35.73-17.52.51-18.77-.32-18.77-.32Z" transform="translate(-86.33 -69.27)"/><rect class="cls-2" x="48.55" y="40.2" width="4.09" height="4.09"/><rect class="cls-2" x="31.25" y="40.2" width="4.09" height="4.09"/><path class="cls-3" d="M138.77,102.47H117.92a9.09,9.09,0,0,0,0,18.18h20.85a9.09,9.09,0,1,0,0-18.18Zm0,16H117.92a6.89,6.89,0,1,1,0-13.78h20.85a6.89,6.89,0,0,1,0,13.78Zm0,0" transform="translate(-86.33 -69.27)"/><path d="M119.65,107.77a3.8,3.8,0,1,0,3.79,3.8,3.79,3.79,0,0,0-3.79-3.8Zm0,5.38a1.59,1.59,0,1,1,1.59-1.58,1.59,1.59,0,0,1-1.59,1.58Zm0,0" transform="translate(-86.33 -69.27)"/><path d="M137.05,107.77a3.8,3.8,0,1,0,3.79,3.8,3.78,3.78,0,0,0-3.79-3.8Zm0,5.38a1.58,1.58,0,0,1-1.12-2.71,1.58,1.58,0,1,1,1.12,2.71Zm0,0" transform="translate(-86.33 -69.27)"/><path d="M107.73,143.91a1.1,1.1,0,0,0-1.1,1.1V146a1.1,1.1,0,1,0,2.2,0V145a1.1,1.1,0,0,0-1.1-1.1Zm0,0" transform="translate(-86.33 -69.27)"/><path d="M107.73,148.49a1.1,1.1,0,0,0-1.1,1.1v5.58a1.1,1.1,0,1,0,2.2,0v-5.58a1.1,1.1,0,0,0-1.1-1.1Zm0,0" transform="translate(-86.33 -69.27)"/><path class="cls-3" d="M159,100.26h-.44a3.67,3.67,0,0,0-1.73-1.79v-.22a28.47,28.47,0,0,0-56.93-.07,3.2,3.2,0,0,0-1.55,1.71H98a11.21,11.21,0,0,0,0,22.42h.27a3,3,0,0,0,3,2,3.17,3.17,0,0,0,2.92-1.93,15.69,15.69,0,0,0,13.76,8.16h1.36v4h-5.92a11.62,11.62,0,0,0-11.53,11.63v12.81a1.09,1.09,0,0,0,1.09,1.1h50.82a1.17,1.17,0,0,0,1.18-1.1V146.24a11.7,11.7,0,0,0-11.62-11.63h-5.83v-4h1.27a15.84,15.84,0,0,0,13.88-8.26,3.09,3.09,0,0,0,3,2.39,3.19,3.19,0,0,0,2.88-2H159a11.21,11.21,0,0,0,0-22.41ZM98.18,120.1H98a9,9,0,0,1,0-18h.15Zm14.51-42.88A25.71,25.71,0,0,1,128.4,72a26.06,26.06,0,0,1,15.7,5.25v1.65a4.78,4.78,0,0,1-5.71,4.68,50.65,50.65,0,0,0-20.08,0,4.67,4.67,0,0,1-3.92-1,4.72,4.72,0,0,1-1.7-3.69Zm-10.47,44a.92.92,0,1,1-1.84,0V101a.92.92,0,0,1,1.84,0Zm34.35,36.71H120v-3.29a8.27,8.27,0,1,1,16.53,0Zm6.75-21.12a9.49,9.49,0,0,1,9.42,9.42v11.7h-14v-3.29a10.48,10.48,0,0,0-21,0v3.29H104.06v-11.7a9.4,9.4,0,0,1,9.32-9.42Zm-21.81-2.21v-4h13.78v4Zm30.86-19.84a13.6,13.6,0,0,1-13.59,13.6H118a13.6,13.6,0,0,1-13.6-13.6v-6.43A13.6,13.6,0,0,1,118,94.75h20.76a13.6,13.6,0,0,1,13.59,13.59Zm2.21-16.4a2.89,2.89,0,0,0-2,2.38,15.83,15.83,0,0,0-13.84-8.2H117.94a15.68,15.68,0,0,0-13.58,7.85,3.18,3.18,0,0,0-2.25-2.4,26.19,26.19,0,0,1,8.31-18.93,6.95,6.95,0,0,0,8.32,6.64,48.58,48.58,0,0,1,19.22,0,6.93,6.93,0,0,0,8.31-6.64,26.2,26.2,0,0,1,8.31,19.18Zm2,23.2a.92.92,0,1,1-1.84,0V101.34a.92.92,0,0,1,1.84,0Zm2.35-1.1h-.15v-18H159a9,9,0,0,1,0,18Zm0,0" transform="translate(-86.33 -69.27)"/><rect class="cls-1" x="13.82" y="30.95" width="2.04" height="22.34" rx="1.02"/><rect class="cls-1" x="68.27" y="30.95" width="2.04" height="22.34" rx="1.02"/></svg>