<svg id="Layer_1" data-name="Layer 1" xmlns="http://www.w3.org/2000/svg" viewBox="0 0 80.14 90.85"><defs><style>.cls-1{fill:#f4f9fc;}.cls-2{fill:#f27f39;}.cls-3{stroke:#231f20;stroke-miterlimit:10;}</style></defs><polygon class="cls-1" points="16.54 0 24.27 0 57.3 2.32 58.9 8.96 58.9 51.6 73.71 51.6 77.79 56.83 77.79 82.24 74.73 88.36 47.79 88.36 40.77 83 41.03 79.17 10.64 79.17 8.6 77.9 6.17 73.43 1.2 71 1.2 17.13 16.54 0"/><rect class="cls-2" x="23.92" y="10.03" width="16.99" height="4.74" rx="2.37"/><path class="cls-3" d="M130.94,105.67H119.35V63.55H121A1.48,1.48,0,0,1,122.5,65v35.81a1.32,1.32,0,1,0,2.63,0V65A4.11,4.11,0,0,0,121,60.92h-1.67V59.44a4.11,4.11,0,0,0-4.11-4.11H82.66a1.32,1.32,0,1,0,0,2.63h32.58a1.48,1.48,0,0,1,1.48,1.48v46.23h-8a8.65,8.65,0,0,0-8.64,8.63v12.42H64.54a1.48,1.48,0,0,1-1.48-1.48V72.69H73.71a4.11,4.11,0,0,0,4.11-4.11V56.64a1.32,1.32,0,0,0-2.25-.93L60.81,70.45a1.25,1.25,0,0,0-.38.93v53.86a4.11,4.11,0,0,0,4.11,4.11h1.67v1.49A4.12,4.12,0,0,0,70.32,135h29.74v1.59a8.65,8.65,0,0,0,8.64,8.63h22.24a8.64,8.64,0,0,0,8.63-8.63V114.3a8.64,8.64,0,0,0-8.63-8.63ZM75.19,59.81v8.77a1.48,1.48,0,0,1-1.48,1.48H64.93Zm-4.87,72.5a1.47,1.47,0,0,1-1.48-1.47v-1.49h31.22v3Zm66.62,4.23a6,6,0,0,1-6,6H108.7a6,6,0,0,1-6-6V114.3a6,6,0,0,1,6-6h22.24a6,6,0,0,1,6,6Zm0,0" transform="translate(-59.93 -54.83)"/><path class="cls-3" d="M123.46,113.66a4.73,4.73,0,0,0-7.28,0l-6.6,8.21c-2.35,2.67-.1,7.35,3.46,7.21h1.23v6.86a3,3,0,0,0,3,3h5.12a3,3,0,0,0,3-3v-6.86h1.23c3.53.2,5.81-4.5,3.46-7.21Zm4.74,11.77a1.84,1.84,0,0,1-1.59,1h-2.56a1.32,1.32,0,0,0-1.32,1.31v8.18a.36.36,0,0,1-.35.36h-5.12a.36.36,0,0,1-.36-.36v-8.18a1.31,1.31,0,0,0-1.31-1.31H113a1.8,1.8,0,0,1-1.4-2.92l6.6-8.23a2.09,2.09,0,0,1,3.17,0l6.61,8.23a1.87,1.87,0,0,1,.19,1.9Zm0,0" transform="translate(-59.93 -54.83)"/><path d="M98.25,71.48a4.2,4.2,0,0,0,0-8.39H85.89a4.2,4.2,0,1,0,0,8.39Zm-13.92-4.2a1.56,1.56,0,0,1,1.56-1.56H98.25a1.57,1.57,0,0,1,0,3.13H85.89a1.56,1.56,0,0,1-1.56-1.57Zm0,0" transform="translate(-59.93 -54.83)"/><path class="cls-3" d="M70.37,81.31a1.32,1.32,0,0,0,1.31,1.32h36.47a1.32,1.32,0,0,0,0-2.64H71.68a1.32,1.32,0,0,0-1.31,1.32Zm0,0" transform="translate(-59.93 -54.83)"/><path class="cls-3" d="M108.15,87.8H71.68a1.32,1.32,0,0,0,0,2.63h36.47a1.32,1.32,0,1,0,0-2.63Zm0,0" transform="translate(-59.93 -54.83)"/><path class="cls-3" d="M108.15,95.6h-6.81a1.32,1.32,0,0,0,0,2.64h6.81a1.32,1.32,0,0,0,0-2.64Zm0,0" transform="translate(-59.93 -54.83)"/><path class="cls-3" d="M96.48,96.92a1.32,1.32,0,0,0-1.31-1.32H71.68a1.32,1.32,0,0,0,0,2.64H95.17a1.32,1.32,0,0,0,1.31-1.32Zm0,0" transform="translate(-59.93 -54.83)"/><path class="cls-3" d="M87.59,103.41H71.68a1.32,1.32,0,0,0,0,2.63H87.59a1.32,1.32,0,0,0,0-2.63Zm0,0" transform="translate(-59.93 -54.83)"/><path class="cls-3" d="M87.59,111.21H71.68a1.32,1.32,0,0,0,0,2.63H87.59a1.32,1.32,0,0,0,0-2.63Zm0,0" transform="translate(-59.93 -54.83)"/></svg>