<svg id="Layer_1" data-name="Layer 1" xmlns="http://www.w3.org/2000/svg" xmlns:xlink="http://www.w3.org/1999/xlink" viewBox="0 0 90.56 90.56"><defs><style>.cls-1{fill:none;}.cls-2{fill:#f4f9fc;}.cls-3{fill:#f27f39;}.cls-4{clip-path:url(#clip-path);}</style><clipPath id="clip-path" transform="translate(-55.89 -48.65)"><rect class="cls-1" x="55.89" y="48.65" width="90.56" height="90.56"/></clipPath></defs><path class="cls-2" d="M70.83,136.48v-5.81l2.49-2.8-.51-6.2s-4-9.25-4-9.44.45-7.21-.83-8-5.74-2.43-6.12-5.56,0-5.61-.2-6.57-2.48-2.68-3-3S56.72,83.19,57,81.84s3.45-1.78,4.28-3.51a14.68,14.68,0,0,0,1-5.8C62.21,71.44,64,69,64.89,68a9,9,0,0,1,4.34-1.91,8.31,8.31,0,0,0,2.62.06c1-.12,3.38-1.59,5.1-3.19s6.58-1.66,7.28-1.4,2.43,3.25,3.13,3.89,6.25,1,6.64.89,4.72-.06,5.93-.06a39.65,39.65,0,0,0,5-.06c.13-.19,0-6.67.21-7.68s2.34-4,3.11-4.93,2.87-3.16,5-3.49,8.33,0,9.67,1.58a24.3,24.3,0,0,1,3.45,5.21c.19.82,1.15,1.92,1.38,3.93s1.2,4.31-.76,6.27a26.41,26.41,0,0,0-3.54,4.07,13.67,13.67,0,0,0-1,2.15s3.92,4.5,5,5.94,2.2,4.26,2.68,3.59,1.82-1,3.11-1.72-2.06-4.46,2.3-1.15,8.9,6.13,9.24,6.6,1.39,1.34.76,1.78-2.77.43-2.77,2.68.24,6.36.14,6.65-.77,1.92-1.77,2-6.7.67-6.51,1.39-.43,4.45-.43,4.88-2.92,12.88-5,13.89-1.58,4.64-1.63,7.75.1,5.84-.14,7.09-3.64,3.78-5.8,3.78-9.23-.24-10-.91-1.48-.67-1.72-1.92,2.2-3.06,1-3.06-7.75-.29-9.19.86-1.39,1.77-1.63,3.11-2.92,1.39-6.84,1.63-14.36-.05-15.89-.05-7-.52-7-.52Z" transform="translate(-55.89 -48.65)"/><rect class="cls-3" x="51.24" y="44.97" width="14.57" height="7.14"/><g class="cls-4"><path d="M146.45,85.88l-11.69-8.35-4.29,3.07a34.9,34.9,0,0,0-7.23-8A13.12,13.12,0,0,0,124.53,52,13.11,13.11,0,0,0,103,64.78a35.12,35.12,0,0,0-7.18.37l-1.39-1.39L90.7,65.67a23.33,23.33,0,0,0-3.25-1.34l-1.28-4H75.27l-1.28,4a23.33,23.33,0,0,0-3.25,1.34L67,63.76l-7.7,7.7,1.92,3.72a21.67,21.67,0,0,0-1.34,3.26l-4,1.28v10.9l4,1.28a22.21,22.21,0,0,0,1.35,3.25l-1.92,3.73,7.7,7.7.43-.22a7.84,7.84,0,0,1,.14,1.36v6a10.33,10.33,0,0,0,1.06,4.54L72,125v2.85A4.36,4.36,0,0,0,69,131.91v7.3h32.13v-4.38a35.69,35.69,0,0,0,7.3-.77v.77a4.39,4.39,0,0,0,4.39,4.38h11.68a4.38,4.38,0,0,0,4.38-4.38V121.17a34.66,34.66,0,0,0,7.25-19.93h7.36V89.55h2.92Zm-4,.75H127.05l7.71-5.51ZM118.7,77.87a2.92,2.92,0,0,1-5.84,0ZM114.32,61.8a1.46,1.46,0,1,1,1.46,1.46,1.46,1.46,0,0,1-1.46-1.46Zm-8.68-1.35a10.25,10.25,0,0,1,8.94-8.81c.4,0,.81-.07,1.21-.07a10.06,10.06,0,0,1,6.79,2.6A10.22,10.22,0,0,1,121.3,70.4a5.67,5.67,0,0,0-2.58,4.54h-1.48v-9a4.39,4.39,0,1,0-2.92,0v9h-1.49a5.66,5.66,0,0,0-2.55-4.53,10.18,10.18,0,0,1-4.64-10Zm-41.49,34a18.42,18.42,0,0,1-1.68-4.09l-.22-.75-3.44-1.1V81.85l3.44-1.1.22-.75a18.42,18.42,0,0,1,1.68-4.09l.38-.68L62.88,72l4.69-4.69L70.78,69l.68-.38a19.14,19.14,0,0,1,4.09-1.69l.75-.21,1.1-3.44H84l1.1,3.44.75.21A18.93,18.93,0,0,1,90,68.6l.68.38,3.21-1.65L98.56,72l-1.65,3.21.38.68A18.93,18.93,0,0,1,99,80l.21.75,3.44,1.1v6.64l-3.44,1.1-.21.75a18.93,18.93,0,0,1-1.69,4.09l-.38.68.23.44a4.51,4.51,0,0,0-.52.17,4.39,4.39,0,0,0-2-2.6,15.92,15.92,0,0,0,2.12-8A16.07,16.07,0,1,0,68.31,95.35a3.83,3.83,0,0,0-3.66,3.81,3.62,3.62,0,0,0,.2,1.12l-2-2,1.65-3.21Zm25.34-.82a4.37,4.37,0,0,0-2.93-1.14,4.45,4.45,0,0,0-1.46.27V79.33a4.38,4.38,0,1,0-8.76,0V97.55A13.14,13.14,0,1,1,93.87,85.17a13,13,0,0,1-2.29,7.39,4.33,4.33,0,0,0-2.09,1ZM71.26,117a7.28,7.28,0,0,1-.76-3.24v-6A10.62,10.62,0,0,0,69.37,103l-1.7-3.41a.9.9,0,0,1-.09-.4.94.94,0,0,1,1-.91A7.74,7.74,0,0,1,76.34,106v5.42h2.92V79.33a1.46,1.46,0,0,1,2.92,0V102.7H85.1V96.85a1.46,1.46,0,0,1,2.92,0v5.85H91V96.85a1.46,1.46,0,0,1,2.92,0v5.85h2.92V99.78a1.46,1.46,0,1,1,2.92,0v16.06a7.34,7.34,0,0,1-1.46,4.38l-2.92,3.9v3.41H74.88v-3.26Zm27,19.32H72v-4.38a1.46,1.46,0,0,1,1.46-1.46H96.79a1.46,1.46,0,0,1,1.46,1.46ZM126,112.92H111.39v-1.46a1.46,1.46,0,0,1,1.47-1.46h11.68a1.46,1.46,0,0,1,1.46,1.46Zm-14.61,2.92H126v14.61H111.39Zm13.15,20.45H112.86a1.46,1.46,0,0,1-1.47-1.46v-1.46H126v1.46a1.46,1.46,0,0,1-1.46,1.46ZM128.92,116v-4.49a4.38,4.38,0,0,0-4.38-4.38H112.86a4.39,4.39,0,0,0-4.39,4.38v19.59a33.23,33.23,0,0,1-7.3.84,4.36,4.36,0,0,0-2.92-4.09v-2.71l2.34-3.11a10.29,10.29,0,0,0,2-6.14V99.78a4.41,4.41,0,0,0-1.88-3.6l-.54-1a22.21,22.21,0,0,0,1.35-3.25l4-1.28V79.72l-4-1.28a21.13,21.13,0,0,0-1.34-3.25l1.91-3.73-3.69-3.69a33.31,33.31,0,0,1,5.65,0,13.08,13.08,0,0,0,4.62,5.08,2.9,2.9,0,0,1,1.22,2.44v2.56a5.85,5.85,0,0,0,11.69,0V75.25c0-.07,0-.13,0-.2a31.84,31.84,0,0,1,6.45,7.25l-5,3.58v3.67H126v11.69h7.24A31.65,31.65,0,0,1,128.92,116Zm11.69-17.63H128.92V89.55h11.69Zm0,0" transform="translate(-55.89 -48.65)"/></g><rect x="62.93" y="49.18" width="2.92" height="2.92"/><rect x="57.09" y="49.18" width="2.92" height="2.92"/><rect x="51.24" y="49.18" width="2.92" height="2.92"/></svg>