<svg id="Layer_1" data-name="Layer 1" xmlns="http://www.w3.org/2000/svg" viewBox="0 0 101.44 84.97"><defs><style>.cls-1{fill:#f4fafd;stroke:#fff;stroke-width:1.5px;}.cls-1,.cls-2{stroke-miterlimit:10;}.cls-2{fill:#ef7e3c;stroke:#020202;stroke-width:3px;}</style></defs><path class="cls-1" d="M60.92,136.09V113.91l11.49-1.06L76.5,106h8.42l4.52-13.53h42.21l3.57,11,8,2.3,4.48,8.2h10V126l1.53,11.84H146l-2.7,8.68-16,1.27-8.36-5.1s-9-3.07-8.83-3.07-9.22,3.83-9.22,3.83l-4.18,3.07-13,1.27-8.43-3.31-3.06-4.6-.51-2.3H63.22Z" transform="translate(-59.15 -64.83)"/><path d="M119.3,146.27a14.09,14.09,0,0,0,9.34,3.53h10.41a9.48,9.48,0,0,0,9.46-8.92l0-.71h12V111.51h-12l-.07-.67a9.43,9.43,0,0,0-9.43-8.57h-2.92l-4-12H87.64l-4,12H80.69a9.43,9.43,0,0,0-9.43,8.57l-.06.67H59.15v28.66h12l0,.71a9.48,9.48,0,0,0,9.46,8.92H91.1a14.08,14.08,0,0,0,9.34-3.53,14.27,14.27,0,0,1,18.86,0Zm29.23-30.22h7.53v19.59h-7.53ZM71.22,135.64H63.68V116.05h7.54ZM90.9,94.85h37.95l2.49,7.42H88.4Zm6.54,48a9.59,9.59,0,0,1-6.34,2.39H80.69a5,5,0,0,1-4.94-4.94V111.74a5,5,0,0,1,4.94-4.94h58.36a5,5,0,0,1,4.95,4.94v28.59a5,5,0,0,1-4.95,4.94H128.64a9.59,9.59,0,0,1-6.34-2.39,18.79,18.79,0,0,0-24.86,0Z" transform="translate(-59.15 -64.83)"/><path d="M105.15,82.78a7.51,7.51,0,0,1,9.49,0l3.21-3.21a12,12,0,0,0-15.92,0Z" transform="translate(-59.15 -64.83)"/><path d="M96.8,74.49a19.31,19.31,0,0,1,26.19,0l3.21-3.2a23.81,23.81,0,0,0-32.61,0Z" transform="translate(-59.15 -64.83)"/><path class="cls-2" d="M93.76,121.36A4,4,0,1,0,91,120.2a4,4,0,0,0,2.81,1.16Zm0,0" transform="translate(-59.15 -64.83)"/><path class="cls-2" d="M109,121.36a4,4,0,0,0,2.81-1.16,4,4,0,0,0,1.17-2.82,4,4,0,0,0-7.95,0,4,4,0,0,0,1.17,2.82,4,4,0,0,0,2.8,1.16Zm0,0" transform="translate(-59.15 -64.83)"/><path class="cls-2" d="M124.28,121.36a4,4,0,0,0,2.81-1.16,4,4,0,0,0,1.17-2.82,4,4,0,0,0-7.95,0,4,4,0,0,0,1.17,2.82,4,4,0,0,0,2.8,1.16Zm0,0" transform="translate(-59.15 -64.83)"/></svg>