<svg xmlns="http://www.w3.org/2000/svg" xmlns:xlink="http://www.w3.org/1999/xlink" viewBox="0 0 430.79 428.14"><defs><style>.cls-1{isolation:isolate;}.cls-2{fill:url(#linear-gradient);}.cls-3{fill:#ffa655;}.cls-4{fill:#ffa955;}.cls-5{fill:#ffa555;}.cls-6{fill:url(#linear-gradient-2);}.cls-7{fill:#fff;}.cls-19,.cls-8{fill:#f5f5f5;}.cls-8{opacity:0.87;mix-blend-mode:hard-light;}.cls-9{fill:url(#linear-gradient-3);}.cls-10{fill:url(#linear-gradient-4);}.cls-11{fill:#609ae8;}.cls-12{fill:#9cc7ff;}.cls-13{fill:url(#linear-gradient-5);}.cls-14{fill:#5d90d1;}.cls-15{fill:#70a1e3;}.cls-16{fill:url(#linear-gradient-6);}.cls-17{fill:url(#linear-gradient-7);}.cls-18{fill:url(#linear-gradient-8);}.cls-20{fill:#292c47;}.cls-21{fill:#e2d2ca;}.cls-22{fill:#eea886;}.cls-23{fill:#ead8cf;}.cls-24{fill:#da9b5b;}.cls-25{fill:#424773;}.cls-26{fill:#3a3f47;}.cls-27{fill:#323657;}.cls-28{fill:#252840;}</style><linearGradient id="linear-gradient" x1="279.31" y1="299.06" x2="411.32" y2="299.06" gradientUnits="userSpaceOnUse"><stop offset="0" stop-color="#f59960"/><stop offset="1" stop-color="#4F81BD"/></linearGradient><linearGradient id="linear-gradient-2" x1="421.18" y1="299.06" x2="553.19" y2="299.06" xlink:href="#linear-gradient"/><linearGradient id="linear-gradient-3" x1="114.68" y1="74.02" x2="240.02" y2="74.02" gradientUnits="userSpaceOnUse"><stop offset="0" stop-color="#4f52ff"/><stop offset="1" stop-color="#4042e2"/></linearGradient><linearGradient id="linear-gradient-4" x1="371.44" y1="178.56" x2="398" y2="178.56" xlink:href="#linear-gradient-3"/><linearGradient id="linear-gradient-5" x1="243.99" y1="242.02" x2="280.69" y2="242.02" xlink:href="#linear-gradient-3"/><linearGradient id="linear-gradient-6" x1="215.75" y1="226.14" x2="275.6" y2="226.14" xlink:href="#linear-gradient-3"/><linearGradient id="linear-gradient-7" x1="0" y1="129.39" x2="60.6" y2="129.39" xlink:href="#linear-gradient-3"/><linearGradient id="linear-gradient-8" x1="0" y1="208.41" x2="60.6" y2="208.41" xlink:href="#linear-gradient-3"/></defs><g class="cls-1"><g id="Layer_1" data-name="Layer 1"><path class="cls-2" d="M285.5,362.78c4.56,10.45,11.25,18.37,18.78,22.09-.07,1-.11,2-.11,3,0,19.66,14.68,35.66,33,36.17,5,16.23,19.28,27.95,36.14,27.95,21,0,38-18.2,38-40.64V177.25c0-17.17-11.94-31.08-26.67-31.08-10.61,0-19.77,7.21-24.07,17.66A31.12,31.12,0,0,0,321.79,194V194c-17.62,1.28-31.54,16.95-31.54,36.1a37.88,37.88,0,0,0,5,18.93,31.08,31.08,0,0,0-6.47,49.06c-5.83,8.06-9.37,20-9.47,33.36C279.31,331.48,279,345.34,285.5,362.78Z" transform="translate(-122.4 -104.54)"/><polygon class="cls-3" points="328.18 381.19 326.44 381.19 331.77 370.42 333.51 370.42 328.18 381.19"/><rect class="cls-3" x="271.99" y="380.21" width="84.56" height="1.34"/><rect class="cls-3" x="271.99" y="384.55" width="45.17" height="7.76"/><path class="cls-4" d="M358.63,104.54v3.56h1v-2.55h2.55v-1Zm.95,31.47v-2.56h-1V137h3.56v-1Z" transform="translate(-122.4 -104.54)"/><path class="cls-4" d="M493.14,104.59v1h2.56v2.56h1V104.6Zm2.5,28.91v2.56h-2.56v1h3.56v-3.56Z" transform="translate(-122.4 -104.54)"/><rect class="cls-5" x="98.18" y="85.99" width="31.95" height="2.24"/><rect class="cls-5" x="98.18" y="90.22" width="31.95" height="9.42"/><rect class="cls-5" x="126.29" y="102.8" width="18.85" height="1.41"/><rect class="cls-5" x="126.29" y="104.82" width="18.85" height="3.81"/><rect class="cls-5" x="129.43" y="73.25" width="1.41" height="26.38"/><rect class="cls-3" x="326.44" y="366.16" width="23.54" height="4.26"/><rect class="cls-3" x="326.44" y="364.17" width="23.54" height="0.8"/><rect class="cls-5" x="81.7" y="187.46" width="41.16" height="5.14"/><rect class="cls-5" x="126.83" y="187.46" width="3.39" height="5.14"/><path class="cls-6" d="M543.71,298.12a31.08,31.08,0,0,0-6.46-49.06,37.87,37.87,0,0,0,5-18.93c0-19.15-13.92-34.82-31.54-36.1V194a31.12,31.12,0,0,0-38.79-30.12c-4.29-10.45-13.45-17.66-24.06-17.66-14.73,0-26.67,13.91-26.67,31.08V411.32c0,22.44,17,40.64,38,40.64,16.86,0,31.16-11.72,36.15-27.95,18.29-.51,33-16.51,33-36.17q0-1.5-.12-3c12.26-6.05,22.3-23.23,24.53-44.33C554.54,323.53,550.84,308,543.71,298.12Z" transform="translate(-122.4 -104.54)"/><path class="cls-7" d="M494,416.74l-1.84-.36.92.18-.92-.18c0-.09,1.66-8.93-3.62-15.34-3.75-4.54-10.06-6.85-18.76-6.85-9,0-15.4-2.49-19.12-7.4-5.68-7.52-2.85-17.85-2.73-18.29l1.81.51c0,.1-2.71,9.89,2.42,16.66,3.35,4.41,9.27,6.65,17.62,6.65,9.29,0,16.09,2.54,20.21,7.55C495.84,407,494.08,416.34,494,416.74Z" transform="translate(-122.4 -104.54)"/><path class="cls-7" d="M469.78,382.37c0-.59-.64-14.6,8.7-24.45,5.79-6.09,14.09-9.18,24.68-9.18,9.34,0,16.21-2.73,20.42-8.12,7.86-10.05,4-26.2,3.93-26.36l1.82-.45c.17.7,4.15,17.18-4.27,28-4.58,5.87-11.95,8.84-21.9,8.84s-17.89,2.89-23.31,8.59c-8.79,9.25-8.21,22.93-8.2,23.07Z" transform="translate(-122.4 -104.54)"/><path class="cls-7" d="M506.17,329.85c-6.58,0-14.3-1.26-20.41-5.9-6.86-5.21-10.35-13.72-10.35-25.3,0-12.13-3.47-21.55-10.31-28-10.93-10.28-26.88-9.44-27-9.43l-.12-1.86c.69,0,16.93-.9,28.44,9.93,7.24,6.8,10.91,16.68,10.91,29.35,0,11,3.23,19,9.6,23.81,12.35,9.37,32.56,3.88,32.76,3.82l.5,1.8A56.59,56.59,0,0,1,506.17,329.85Z" transform="translate(-122.4 -104.54)"/><path class="cls-7" d="M458.66,257l-1.86-.2a39,39,0,0,1,4.41-13.33c4.88-8.8,12.65-13.46,22.48-13.46,23.49,0,26.65-13.48,26.65-26.66h1.88c0,9-1.69,15.32-5.32,19.9-4.6,5.81-12.19,8.63-23.21,8.63-9.22,0-16.22,4.19-20.82,12.45A37.86,37.86,0,0,0,458.66,257Z" transform="translate(-122.4 -104.54)"/><path class="cls-7" d="M484.5,292.35a22.7,22.7,0,0,1-3.76-.28l.33-1.84c.09,0,9.6,1.59,16-3.8,4-3.35,6-8.68,6-15.86,0-7.36,2.22-13,6.6-16.8,7.77-6.71,19.43-5.09,19.93-5l-.28,1.85c-.14,0-11.33-1.56-18.44,4.59-3.94,3.41-5.94,8.58-5.94,15.37,0,7.77-2.24,13.58-6.66,17.3S488.16,292.35,484.5,292.35Zm44.83-41.74h0l.14-.93Z" transform="translate(-122.4 -104.54)"/><path class="cls-7" d="M470.49,228.79c-1.91,0-14.45-.29-22-7.74-3.76-3.69-5.66-8.53-5.66-14.39,0-11.31,7-15.52,13.83-19.59s13.14-7.86,13.14-18.46h1.87c0,11.66-7.14,15.93-14.05,20.06-6.64,4-12.92,7.74-12.92,18,0,5.34,1.71,9.73,5.09,13.05,7.49,7.36,20.79,7.21,20.92,7.21l0,1.87Z" transform="translate(-122.4 -104.54)"/><path class="cls-7" d="M433.48,344h-1.87c0-7.22,2-24,20.53-24,6.95,0,12-2.93,15.07-8.72a24.25,24.25,0,0,0,2.56-8.95l1.87.09a25.53,25.53,0,0,1-2.75,9.67c-2.33,4.46-7.13,9.78-16.75,9.78C435.9,321.84,433.48,335.71,433.48,344Z" transform="translate(-122.4 -104.54)"/><path class="cls-7" d="M338.5,416.74c-.08-.4-1.84-9.77,4-16.87,4.12-5,10.92-7.55,20.22-7.55,8.34,0,14.27-2.24,17.61-6.65,5.13-6.77,2.46-16.56,2.43-16.66l1.8-.51c.12.44,3,10.77-2.73,18.29-3.71,4.91-10.14,7.4-19.11,7.4-8.71,0-15,2.31-18.77,6.87-5.29,6.42-3.63,15.23-3.62,15.32Z" transform="translate(-122.4 -104.54)"/><path class="cls-7" d="M362.71,382.37l-1.86-.1c0-.14.59-13.82-8.21-23.07-5.41-5.7-13.26-8.59-23.31-8.59s-17.31-3-21.9-8.84c-8.42-10.78-4.43-27.26-4.26-28l1.81.45c0,.16-3.93,16.31,3.93,26.36,4.22,5.39,11.09,8.12,20.42,8.12,10.59,0,18.9,3.09,24.68,9.18C363.36,367.77,362.75,381.78,362.71,382.37Z" transform="translate(-122.4 -104.54)"/><path class="cls-7" d="M326.33,329.85a56.62,56.62,0,0,1-14-1.77l.51-1.8c.2.06,20.43,5.54,32.76-3.82,6.37-4.84,9.6-12.85,9.6-23.81,0-12.67,3.67-22.55,10.9-29.35,11.51-10.83,27.76-10,28.44-9.93l-.11,1.86c-.16,0-16.15-.84-27.06,9.44-6.83,6.44-10.3,15.85-10.3,28,0,11.58-3.48,20.09-10.35,25.3C340.62,328.59,332.9,329.85,326.33,329.85Z" transform="translate(-122.4 -104.54)"/><path class="cls-7" d="M373.84,257a38,38,0,0,0-4.22-12.67c-4.59-8.26-11.59-12.45-20.81-12.45-11,0-18.62-2.82-23.21-8.63-3.63-4.58-5.32-10.9-5.32-19.9h1.87c0,13.18,3.17,26.66,26.66,26.66,9.83,0,17.6,4.66,22.48,13.46a39.24,39.24,0,0,1,4.41,13.33Z" transform="translate(-122.4 -104.54)"/><path class="cls-7" d="M348,292.35c-3.66,0-9.3-.72-13.78-4.48s-6.66-9.53-6.66-17.3c0-6.79-2-12-6-15.38-7.13-6.16-18.32-4.6-18.43-4.58l-.27-1.85c.49-.08,12.15-1.7,19.93,5,4.38,3.79,6.6,9.44,6.6,16.8,0,7.19,2,12.52,6,15.87,6.43,5.4,15.91,3.81,16,3.79l.32,1.84A22.38,22.38,0,0,1,348,292.35Z" transform="translate(-122.4 -104.54)"/><path class="cls-7" d="M362,228.79h-.23l0-1.87c.13,0,13.44.15,20.92-7.21a17.56,17.56,0,0,0,5.1-13.05c0-10.25-6.28-14-12.93-18-6.9-4.13-14-8.4-14-20.06h1.87c0,10.6,6.38,14.41,13.13,18.46s13.84,8.28,13.84,19.59c0,5.86-1.91,10.7-5.66,14.39C376.45,228.5,363.92,228.79,362,228.79Z" transform="translate(-122.4 -104.54)"/><path class="cls-7" d="M400.89,344H399c0-8.26-2.43-22.13-18.66-22.13-9.62,0-14.43-5.32-16.76-9.78a25.63,25.63,0,0,1-2.74-9.67l1.87-.09h0a24,24,0,0,0,2.56,8.95c3,5.79,8.12,8.72,15.07,8.72C398.89,320,400.89,336.75,400.89,344Z" transform="translate(-122.4 -104.54)"/><rect class="cls-8" x="99.73" y="42.13" width="190.82" height="305.59"/><rect class="cls-9" x="114.68" y="66.53" width="125.34" height="14.98" rx="3.59"/><path class="cls-10" d="M390.51,186.05H378.92a7.48,7.48,0,0,1-7.48-7.49h0a7.49,7.49,0,0,1,7.48-7.49h11.59a7.49,7.49,0,0,1,7.49,7.49h0A7.49,7.49,0,0,1,390.51,186.05Z" transform="translate(-122.4 -104.54)"/><path class="cls-11" d="M355.33,212.08H244.16a8.05,8.05,0,0,1-8-8v-.81a8.05,8.05,0,0,1,8-8H355.33a8.05,8.05,0,0,1,8,8V204A8.05,8.05,0,0,1,355.33,212.08Zm-111.17-15a6.14,6.14,0,0,0-6.13,6.13V204a6.14,6.14,0,0,0,6.13,6.13H355.33a6.14,6.14,0,0,0,6.13-6.13v-.81a6.14,6.14,0,0,0-6.13-6.13Z" transform="translate(-122.4 -104.54)"/><path class="cls-12" d="M318.65,252.84a39.37,39.37,0,0,0-74.15,26.52c.3.84.62,1.66,1,2.46a39.38,39.38,0,0,0,73.18-29ZM291.51,293.9a29.53,29.53,0,0,1-32.43-8.67,29.14,29.14,0,0,1-4.57-7.35c-.26-.6-.51-1.21-.73-1.84a29.52,29.52,0,1,1,37.73,17.86Z" transform="translate(-122.4 -104.54)"/><path class="cls-13" d="M253.39,257.3l-9.4-2.93a39.4,39.4,0,0,1,36.41-27.63l.29,9.85a29.57,29.57,0,0,0-27.3,20.71Z" transform="translate(-122.4 -104.54)"/><path class="cls-14" d="M254.51,277.88l-9,3.94c-.35-.8-.67-1.62-1-2.46a39.16,39.16,0,0,1-.51-25l9.4,2.93a29.38,29.38,0,0,0,.39,18.74C254,276.67,254.25,277.28,254.51,277.88Z" transform="translate(-122.4 -104.54)"/><path class="cls-15" d="M251.57,291.62a39.53,39.53,0,0,1-6.1-9.8l9-3.94a29.14,29.14,0,0,0,4.57,7.35Z" transform="translate(-122.4 -104.54)"/><rect class="cls-16" x="215.75" y="124.06" width="59.85" height="204.17" rx="4.71"/><path class="cls-12" d="M303.54,433.72H257.43a16.2,16.2,0,0,1-16.19-16.19v-87a16.21,16.21,0,0,1,16.19-16.2h46.11a16.21,16.21,0,0,1,16.19,16.2v87A16.2,16.2,0,0,1,303.54,433.72ZM257.43,316.24a14.31,14.31,0,0,0-14.29,14.29v87a14.31,14.31,0,0,0,14.29,14.29h46.11a14.31,14.31,0,0,0,14.29-14.29v-87a14.31,14.31,0,0,0-14.29-14.29Z" transform="translate(-122.4 -104.54)"/><rect class="cls-17" y="99.09" width="60.6" height="60.6" rx="5.16"/><rect class="cls-18" y="178.11" width="60.6" height="60.6" rx="5.16"/><path class="cls-19" d="M150,248.21l-17-17a2.38,2.38,0,0,1,3.37-3.37L150,241.48l20.13-20.14a2.38,2.38,0,0,1,3.37,3.37Z" transform="translate(-122.4 -104.54)"/><polygon class="cls-12" points="0 301.16 25.44 275.72 37.25 287.54 64.08 260.7 77.19 273.81 83.07 267.94 90.45 275.32 117.88 247.89 117.88 301.16 0 301.16"/><path class="cls-12" d="M231.16,344.21H211.34a9.58,9.58,0,0,1-9.57-9.57V212.25a9.59,9.59,0,0,1,9.57-9.57h19.82a9.58,9.58,0,0,1,9.57,9.57V334.64A9.58,9.58,0,0,1,231.16,344.21ZM211.34,204.59a7.67,7.67,0,0,0-7.66,7.66V334.64a7.68,7.68,0,0,0,7.66,7.67h19.82a7.67,7.67,0,0,0,7.66-7.67V212.25a7.67,7.67,0,0,0-7.66-7.66Z" transform="translate(-122.4 -104.54)"/><polygon class="cls-20" points="116.63 197.51 144.86 213.04 173.22 168.42 138.92 156.5 116.63 197.51"/><polygon class="cls-21" points="118.42 196.18 144.82 210.69 171.34 168.96 139.27 157.82 118.42 196.18"/><path class="cls-22" d="M231.15,292.91s4.91-2.35,7.07-3.57,7.7-2.92,8.15-3.32,16.45-1.39,17.42-2.22,1.91,2-2.23,2.87-9.92,3.13-10.24,4.75,4.26,2,4.73,3.34-.13,1-.79,1.32-5.44-2.37-7.55-1.61-5.32-.29-6.93.26l-9.46,3.19Z" transform="translate(-122.4 -104.54)"/><path class="cls-23" d="M240,296.38l2.53-.93s-3.16-7.41-4.54-7.23a35,35,0,0,0-3.57.73Z" transform="translate(-122.4 -104.54)"/><path class="cls-24" d="M240.59,297.66c-.32-.24-5.38-9.94-5.38-9.94l-10.8,1.47,5.84,11.49Z" transform="translate(-122.4 -104.54)"/><path class="cls-22" d="M268.64,312s4.12-3.72,6.12-5.27,5.75-6.13,6.3-6.39,7.71-15,8.88-15.55-1.1-2.57-3.57,1-6.82,8.12-8.47,7.79-.23-4.8-1.3-5.75-1-.28-1.56.22.11,6.05-1.41,7.74-1.8,5.13-2.95,6.43L264,309.86Z" transform="translate(-122.4 -104.54)"/><path class="cls-25" d="M179.73,510.58s-.9,6.2-1,7.13-9.93-.55-9.93-.55l-.8-7.38S178.5,509.7,179.73,510.58Z" transform="translate(-122.4 -104.54)"/><path class="cls-20" d="M178.83,516.92a26.31,26.31,0,0,0,6.12,5.36c3,1.63,7.74,2.28,9.52,4,1.28,1.22,4.68,6.46-7.82,6.35s-18.53.74-19.87-1.27,1.94-14.82,1.94-14.82S171.68,517.57,178.83,516.92Z" transform="translate(-122.4 -104.54)"/><path class="cls-25" d="M250.11,510.58s-.9,6.2-1,7.13-9.93-.55-9.93-.55l-.8-7.38S248.88,509.7,250.11,510.58Z" transform="translate(-122.4 -104.54)"/><path class="cls-20" d="M249.21,516.92a26.31,26.31,0,0,0,6.12,5.36c3,1.63,14.09,3,15.87,4.65,1.28,1.22,3.42,6.12-14.17,5.66-12.5-.33-18.53.74-19.87-1.27s1.94-14.82,1.94-14.82S241.89,517.64,249.21,516.92Z" transform="translate(-122.4 -104.54)"/><path class="cls-20" d="M187.86,351.3s-9.23,14.67-8.54,27.92S176,407,174.59,420.8c-1.55,15.43-7.87,52-8.1,60.23s1,34.63,1,34.63l12.66.29s10.63-63.89,13.39-70.41,16.41-53,16.87-58.21S187.86,351.3,187.86,351.3Z" transform="translate(-122.4 -104.54)"/><path class="cls-20" d="M236.45,353.29s7,36.33,7.87,44.44,1.53,39.26,2,44.33,3.06,66.36,5.51,73.89H235.63S223.2,471.4,223.2,450.32s-9.6-45.82-15.79-59.73-20.39-14.23-24.19-40C183.22,350.55,231.29,345.11,236.45,353.29Z" transform="translate(-122.4 -104.54)"/><path class="cls-22" d="M203.26,228s12.39-4.63,18.1,4.8,5.16,28.31-1.08,30.63-15.63,1.11-18.82-4.79-6.09-14.44-6-20.14S200,229.66,203.26,228Z" transform="translate(-122.4 -104.54)"/><path class="cls-22" d="M218.94,263.88s-.52,3.35.33,5-16.05,1.69-16.05,1.69a111.22,111.22,0,0,0-4-16.54C196.65,246.46,218.94,263.88,218.94,263.88Z" transform="translate(-122.4 -104.54)"/><path class="cls-26" d="M199.25,254s1.16,1.93,5.93,1.18,10.57-7.08,12.56-7.78,2-1.86,2-1.86l1.25,1.82,2.11.13s-1.93-5.67,1-8-3-18.34-18.29-13c0,0-11.73,3.23-11.3,9.9S196.62,250.71,199.25,254Z" transform="translate(-122.4 -104.54)"/><path class="cls-21" d="M220.27,268.68s-.05-3.15-1.48-3.45-15.75-1.68-17.5-1v3.66S204.67,270,220.27,268.68Z" transform="translate(-122.4 -104.54)"/><path class="cls-22" d="M219.43,243.14c-.27-1.12-3.11-4.31-4.2-.89s1.64,8,3.17,7.63S220.1,246,219.43,243.14Z" transform="translate(-122.4 -104.54)"/><path class="cls-27" d="M277.12,305.87h0C277.2,305.91,277.21,305.92,277.12,305.87Z" transform="translate(-122.4 -104.54)"/><path class="cls-27" d="M177.45,386.24A131.85,131.85,0,0,0,198,389.9c13,1.43,45.33-.51,45.53-2s-7-57-6.55-59.85.62-13,.62-13c.16,2.79,3,14.18,6.43,20.39,1.24,2.25,5.4,9.28,7.4,7.68,9.7-7.75,24.72-36.93,25.67-37.17-.8-.35-7.12-3.26-8-3.55s-7.77,7.15-12,11.74c-1.89,2.05-3.23,3.53-3.23,3.53-1.22-2.75-5.68-20.1-7.07-26.11-3.12-13.54-2.64-14.1-2.64-14.1-9.48-2.87-23.87-8.7-23.87-8.7l-19-.78s-17.42,3.84-24.28,6.94c-.65.29-.66,15.54-2.44,19.54l5.69,12s3.28,23.77,4,34.34C184.54,345.58,177.45,386.24,177.45,386.24Z" transform="translate(-122.4 -104.54)"/><path class="cls-27" d="M173.78,314.17c.5,1.61,2.75,3,4.21,3.55a5.38,5.38,0,0,0,3,.3l.74-.13h0l13-2.41s2.85-32.78-17.77-40.63C176.46,275,169.23,299.5,173.78,314.17Z" transform="translate(-122.4 -104.54)"/><path class="cls-28" d="M178,317.72h0a5.38,5.38,0,0,0,3,.3l.74-.13h0l-1.28-16.75Z" transform="translate(-122.4 -104.54)"/><path class="cls-28" d="M253.85,317.59l1.59,6.74s1.73-6.76,1.64-10.27C255.19,316.11,253.85,317.59,253.85,317.59Z" transform="translate(-122.4 -104.54)"/><path class="cls-26" d="M199.73,229.13s-16.23-1.87-.27,25.24Z" transform="translate(-122.4 -104.54)"/><polygon class="cls-20" points="160.16 166.02 161.81 163.19 148.81 158.7 147.16 161.52 160.16 166.02"/></g></g></svg>