<svg id="Layer_1" data-name="Layer 1" xmlns="http://www.w3.org/2000/svg" viewBox="0 0 390.94 470.87"><defs><style>.cls-1{fill:#f8e3d6;}.cls-2{fill:#212042;}.cls-3{fill:#5793ce;}.cls-4{fill:#f6a574;}.cls-5{fill:#636384;}.cls-6{fill:#fff;}.cls-7{fill:#ce6328;}.cls-8{fill:#ead0c3;}.cls-9{fill:#e87a49;}.cls-10{fill:#fafdff;}.cls-11{fill:#484882;}.cls-12{fill:#ff7b31;}.cls-13{fill:#7c300a;}.cls-14{fill:#396caa;}.cls-15{fill:#e28856;}.cls-16,.cls-18{fill:#d4ecff;}.cls-16{opacity:0.4;}.cls-17{fill:#c45b26;}</style></defs><path class="cls-1" d="M392.24,317.87a6.19,6.19,0,0,1-3.13-.83l-18.77-10.77,1.13-1.81,18.77,10.77a4,4,0,0,0,3.95,0l30.55-17.1a1.44,1.44,0,0,0,0-2.57L384,274.71l1-1.86,40.72,20.87a3.5,3.5,0,0,1,.12,6.25l-30.55,17.1A6.2,6.2,0,0,1,392.24,317.87Z" transform="translate(-36.77 -8.81)"/><path class="cls-1" d="M316.32,479.68a8.16,8.16,0,0,1-3.85-.95l-74.91-39.91a3.24,3.24,0,0,1,0-5.76l33.91-18.3a1.11,1.11,0,0,0,0-2l-37.71-20.73a3.17,3.17,0,0,1-.13-5.55L249,377.18,250.2,379l-15.41,9.35a1.11,1.11,0,0,0,.05,1.93L272.55,411a3.17,3.17,0,0,1,0,5.63l-33.9,18.3a1.16,1.16,0,0,0,0,2.07l74.91,39.91a5.93,5.93,0,0,0,5.72-.1L347.75,460a.49.49,0,0,0,.26-.44.5.5,0,0,0-.26-.45l-20.61-12,1.14-1.81,20.62,12a2.58,2.58,0,0,1,1.32,2.24,2.6,2.6,0,0,1-1.31,2.25l-28.49,16.77A8.18,8.18,0,0,1,316.32,479.68Z" transform="translate(-36.77 -8.81)"/><path class="cls-1" d="M348.67,319l-36.12-20c-2.21-1.22-1.93-3.36.62-4.78L348.05,275c2.56-1.42,6.43-1.57,8.64-.34l36.12,20c2.22,1.22,1.94,3.36-.62,4.77l-34.87,19.28C354.76,320,350.89,320.18,348.67,319Z" transform="translate(-36.77 -8.81)"/><path class="cls-2" d="M404.79,279.36h0V264.43l-35,0-12.09-6.69c-2.78-1.53-7.63-1.34-10.83.43l-11.29,6.24-35,0v15.36a3,3,0,0,0,1.86,2.78l45.23,25c2.77,1.54,7.62,1.34,10.83-.43l43.66-24.13C404,281.92,404.89,280.59,404.79,279.36Z" transform="translate(-36.77 -8.81)"/><path class="cls-2" d="M352.68,256.7a12.8,12.8,0,0,0-5.8,1.45l-11.29,6.24-35,0v15.36a3,3,0,0,0,1.86,2.78l45.23,25a10.14,10.14,0,0,0,5,1Z" transform="translate(-36.77 -8.81)"/><path class="cls-3" d="M304.54,264.37h-4v15.36a3,3,0,0,0,1.86,2.78l2.11,1.16Z" transform="translate(-36.77 -8.81)"/><path class="cls-4" d="M348.35,307.83a12.83,12.83,0,0,0,8.66-.1V290.29h-8.66Z" transform="translate(-36.77 -8.81)"/><path class="cls-1" d="M347.66,292.2l-45.23-25c-2.77-1.53-2.42-4.21.78-6l43.67-24.13c3.2-1.78,8.05-2,10.83-.43l45.22,25c2.78,1.53,2.43,4.21-.78,6l-43.66,24.14C355.28,293.54,350.43,293.73,347.66,292.2Z" transform="translate(-36.77 -8.81)"/><path class="cls-5" d="M348.47,287.7l-37.9-20.95c-2.32-1.28-2-3.53.65-5l36.6-20.23c2.68-1.48,6.75-1.64,9.07-.36l37.9,21c2.33,1.28,2,3.53-.65,5l-36.59,20.23C354.86,288.82,350.8,289,348.47,287.7Z" transform="translate(-36.77 -8.81)"/><path class="cls-1" d="M388.16,283.3a3.82,3.82,0,0,1-1.83,3c-1,.56-1.83.11-1.83-1a3.82,3.82,0,0,1,1.83-3C387.34,281.74,388.16,282.19,388.16,283.3Z" transform="translate(-36.77 -8.81)"/><path class="cls-1" d="M394,280.06a3.87,3.87,0,0,1-1.82,3c-1,.55-1.83.1-1.83-1a3.82,3.82,0,0,1,1.83-3C393.21,278.49,394,278.94,394,280.06Z" transform="translate(-36.77 -8.81)"/><path class="cls-1" d="M399.91,276.81a3.85,3.85,0,0,1-1.83,3c-1,.55-1.82.1-1.82-1a3.82,3.82,0,0,1,1.82-3C399.09,275.24,399.91,275.69,399.91,276.81Z" transform="translate(-36.77 -8.81)"/><path class="cls-2" d="M404.79,255.49h0V240.56l-35,0-12.09-6.69c-2.78-1.53-7.63-1.34-10.83.43l-11.29,6.24-35,0v15.36a3,3,0,0,0,1.86,2.78l45.23,25c2.77,1.54,7.62,1.34,10.83-.43l43.66-24.13C404,258.05,404.89,256.73,404.79,255.49Z" transform="translate(-36.77 -8.81)"/><path class="cls-2" d="M352.68,232.83a12.8,12.8,0,0,0-5.8,1.45l-11.29,6.24-35,0v15.36a3,3,0,0,0,1.86,2.78l45.23,25a10.14,10.14,0,0,0,5,1Z" transform="translate(-36.77 -8.81)"/><path class="cls-3" d="M304.54,240.5h-4v15.36a3,3,0,0,0,1.86,2.78l2.11,1.16Z" transform="translate(-36.77 -8.81)"/><path class="cls-4" d="M348.35,284a12.83,12.83,0,0,0,8.66-.1V266.42h-8.66Z" transform="translate(-36.77 -8.81)"/><path class="cls-1" d="M347.66,268.33l-45.23-25c-2.77-1.53-2.42-4.21.78-6l43.67-24.13c3.2-1.77,8.05-2,10.83-.43l45.22,25c2.78,1.53,2.43,4.21-.78,6L358.49,267.9C355.28,269.67,350.43,269.86,347.66,268.33Z" transform="translate(-36.77 -8.81)"/><path class="cls-5" d="M348.47,263.83l-37.9-20.95c-2.32-1.28-2-3.53.65-5l36.6-20.22c2.68-1.49,6.75-1.65,9.07-.36l37.9,20.94c2.33,1.29,2,3.53-.65,5l-36.59,20.23C354.86,265,350.8,265.11,348.47,263.83Z" transform="translate(-36.77 -8.81)"/><path class="cls-1" d="M388.16,259.44a3.82,3.82,0,0,1-1.83,3c-1,.56-1.83.11-1.83-1a3.82,3.82,0,0,1,1.83-3C387.34,257.87,388.16,258.32,388.16,259.44Z" transform="translate(-36.77 -8.81)"/><path class="cls-1" d="M394,256.19a3.87,3.87,0,0,1-1.82,3c-1,.55-1.83.1-1.83-1a3.84,3.84,0,0,1,1.83-3C393.21,254.62,394,255.07,394,256.19Z" transform="translate(-36.77 -8.81)"/><path class="cls-1" d="M399.91,252.94a3.85,3.85,0,0,1-1.83,3c-1,.56-1.82.1-1.82-1a3.82,3.82,0,0,1,1.82-3C399.09,251.37,399.91,251.82,399.91,252.94Z" transform="translate(-36.77 -8.81)"/><path class="cls-2" d="M404.79,231.62h0V216.69l-35,0L357.71,210c-2.78-1.53-7.63-1.34-10.83.43l-11.29,6.24-35,0V232a3,3,0,0,0,1.86,2.78l45.23,25c2.77,1.54,7.62,1.34,10.83-.43l43.66-24.13C404,234.18,404.89,232.86,404.79,231.62Z" transform="translate(-36.77 -8.81)"/><path class="cls-2" d="M352.68,209a12.8,12.8,0,0,0-5.8,1.45l-11.29,6.24-35,0V232a3,3,0,0,0,1.86,2.78l45.23,25a10.14,10.14,0,0,0,5,1Z" transform="translate(-36.77 -8.81)"/><path class="cls-3" d="M304.54,216.63h-4V232a3,3,0,0,0,1.86,2.78l2.11,1.16Z" transform="translate(-36.77 -8.81)"/><path class="cls-4" d="M348.35,260.09A12.89,12.89,0,0,0,357,260V242.55h-8.66Z" transform="translate(-36.77 -8.81)"/><path class="cls-1" d="M347.66,244.46l-45.23-25c-2.77-1.53-2.42-4.21.78-6l43.67-24.13c3.2-1.77,8.05-2,10.83-.43l45.22,25c2.78,1.53,2.43,4.21-.78,6L358.49,244C355.28,245.8,350.43,246,347.66,244.46Z" transform="translate(-36.77 -8.81)"/><path class="cls-6" d="M402.15,217l-43.66,24.13c-3.21,1.77-8.06,2-10.83.43l-45.23-25a4.08,4.08,0,0,1-1.38-1.17c-1,1.47-.52,3.06,1.38,4.11l45.23,25c2.77,1.53,7.62,1.34,10.83-.43l43.66-24.14c2.49-1.37,3.25-3.29,2.17-4.8A6,6,0,0,1,402.15,217Z" transform="translate(-36.77 -8.81)"/><path class="cls-1" d="M388.16,235.57a3.82,3.82,0,0,1-1.83,3c-1,.56-1.83.11-1.83-1a3.82,3.82,0,0,1,1.83-3C387.34,234,388.16,234.45,388.16,235.57Z" transform="translate(-36.77 -8.81)"/><path class="cls-1" d="M394,232.32a3.87,3.87,0,0,1-1.82,3c-1,.55-1.83.1-1.83-1a3.84,3.84,0,0,1,1.83-3C393.21,230.75,394,231.2,394,232.32Z" transform="translate(-36.77 -8.81)"/><path class="cls-1" d="M399.91,229.07a3.85,3.85,0,0,1-1.83,3c-1,.56-1.82.1-1.82-1a3.82,3.82,0,0,1,1.82-3C399.09,227.5,399.91,228,399.91,229.07Z" transform="translate(-36.77 -8.81)"/><path class="cls-4" d="M350.33,229l-21.16-11.69c-1.3-.72-1.14-2,.36-2.8L350,203.17A5.83,5.83,0,0,1,355,203l21.17,11.7c1.29.72,1.13,2-.37,2.8L355.4,228.76A5.85,5.85,0,0,1,350.33,229Z" transform="translate(-36.77 -8.81)"/><path class="cls-1" d="M352.36,219.17l-2.93-1.62c-.18-.1-.16-.27.05-.39l2.83-1.56a.82.82,0,0,1,.7,0l2.93,1.62c.18.1.15.27-.05.39l-2.83,1.56A.79.79,0,0,1,352.36,219.17Z" transform="translate(-36.77 -8.81)"/><path class="cls-7" d="M329.17,217.27l.06,0a3.13,3.13,0,0,1,.3-.2L350,205.81a5.83,5.83,0,0,1,5.06-.2l21.11,11.66c1.19-.82,1.26-1.94.06-2.6L355,203a5.83,5.83,0,0,0-5.06.2l-20.44,11.3C328,215.29,327.87,216.55,329.17,217.27Z" transform="translate(-36.77 -8.81)"/><path class="cls-1" d="M267.32,390.58,189.26,348c-2.85-1.58-2.49-4.34.8-6.16L235,317c3.3-1.82,8.29-2,11.14-.44l78.06,42.6c2.85,1.58,2.49,4.34-.8,6.16l-44.91,24.82C275.16,392,270.17,392.16,267.32,390.58Z" transform="translate(-36.77 -8.81)"/><path class="cls-7" d="M331.13,344.82h0V170.39l-72.45-18.15-13.34-7.37c-3.06-1.69-8.41-1.48-12,.47l-12.45,6.88-38.64,0,11.45,168.39a3.3,3.3,0,0,0,2.05,3.06l72.29,52.22c3.06,1.69,8.41,1.48,12-.48l48.18-26.62C330.26,347.64,331.24,346.18,331.13,344.82Z" transform="translate(-36.77 -8.81)"/><path class="cls-8" d="M239.8,143.73a14.48,14.48,0,0,0-6.41,1.61l-12.45,6.88-38.64,0V327.1a3.3,3.3,0,0,0,2.06,3.06l83.73,45.71a11.23,11.23,0,0,0,5.55,1.13l.86-176Z" transform="translate(-36.77 -8.81)"/><path class="cls-9" d="M268.86,376.23a14.19,14.19,0,0,0,9.55-.11V198.93h-9.55Z" transform="translate(-36.77 -8.81)"/><path class="cls-1" d="M268.09,201l-83.73-45.7c-3.07-1.7-2.68-4.65.85-6.61l48.18-26.62c3.54-2,8.89-2.17,12-.48l83.73,45.71c3.07,1.69,2.68,4.65-.85,6.6L280,200.56C276.5,202.51,271.15,202.72,268.09,201Z" transform="translate(-36.77 -8.81)"/><path class="cls-10" d="M328.22,170.69,280,197.31c-3.54,2-8.89,2.17-12,.48l-83.73-45.71a4.45,4.45,0,0,1-1.53-1.29c-1.05,1.62-.58,3.38,1.53,4.54L268.09,201c3.06,1.69,8.41,1.48,12-.47l48.18-26.63c2.74-1.52,3.58-3.64,2.38-5.3A6.69,6.69,0,0,1,328.22,170.69Z" transform="translate(-36.77 -8.81)"/><path class="cls-2" d="M270.46,182.51l-55.75-30.94c-1.43-.79-1.25-2.17.4-3.09L237.66,136a6.45,6.45,0,0,1,5.59-.23L299,166.74c1.43.79,1.25,2.17-.4,3.09l-22.55,12.46A6.48,6.48,0,0,1,270.46,182.51Z" transform="translate(-36.77 -8.81)"/><path class="cls-11" d="M240.36,153l-3.23-1.78c-.2-.11-.17-.3.06-.43l3.12-1.72a.87.87,0,0,1,.77,0l3.23,1.78c.2.11.17.3-.05.43l-3.12,1.72A.89.89,0,0,1,240.36,153Z" transform="translate(-36.77 -8.81)"/><path class="cls-11" d="M251.15,158.9l-3.23-1.78c-.19-.11-.17-.3.06-.43L251.1,155a.87.87,0,0,1,.77,0l3.23,1.78c.2.11.18.3,0,.43l-3.12,1.72A.89.89,0,0,1,251.15,158.9Z" transform="translate(-36.77 -8.81)"/><path class="cls-11" d="M262,164.84l-3.23-1.78c-.2-.11-.18-.3,0-.43l3.12-1.72a.87.87,0,0,1,.77,0l3.24,1.78c.19.11.17.3-.06.43l-3.12,1.72A.87.87,0,0,1,262,164.84Z" transform="translate(-36.77 -8.81)"/><path class="cls-11" d="M272.74,170.78,269.51,169c-.2-.11-.17-.3.05-.43l3.12-1.72a.89.89,0,0,1,.78,0l3.23,1.78c.2.11.17.3-.06.43l-3.12,1.72A.87.87,0,0,1,272.74,170.78Z" transform="translate(-36.77 -8.81)"/><path class="cls-12" d="M214.71,151.57l.07,0,.33-.22,22.55-12.46a6.48,6.48,0,0,1,5.59-.22l55.68,30.9c1.32-.91,1.39-2.14.07-2.87L243.25,135.8a6.45,6.45,0,0,0-5.59.23l-22.55,12.45C213.46,149.4,213.28,150.78,214.71,151.57Z" transform="translate(-36.77 -8.81)"/><path class="cls-13" d="M289.44,235.59l31.7-17.37a7.31,7.31,0,0,0,3.23-5.91V201.46c0-2.28-1.44-3.32-3.23-2.34l-31.7,17.38a7.31,7.31,0,0,0-3.22,5.9v10.85C286.22,235.53,287.66,236.58,289.44,235.59Z" transform="translate(-36.77 -8.81)"/><path class="cls-6" d="M322.71,198.8a2.93,2.93,0,0,1,.81,2.25V211.9a7.3,7.3,0,0,1-3.23,5.91l-31.7,17.37a2.35,2.35,0,0,1-1.56.33,2,2,0,0,0,2.41.08l31.7-17.37a7.31,7.31,0,0,0,3.23-5.91V201.46C324.37,199.91,323.7,199,322.71,198.8Z" transform="translate(-36.77 -8.81)"/><path class="cls-7" d="M299,223.8l2.91-1.6a1.64,1.64,0,0,0,.7-1.29v-3c0-.5-.32-.73-.7-.51L299,219a1.6,1.6,0,0,0-.71,1.29v3C298.27,223.79,298.59,224,299,223.8Z" transform="translate(-36.77 -8.81)"/><path class="cls-1" d="M308.7,218.43l2.91-1.61a1.58,1.58,0,0,0,.7-1.28v-3c0-.49-.31-.72-.7-.51l-2.91,1.61A1.58,1.58,0,0,0,308,215v3C308,218.42,308.31,218.64,308.7,218.43Z" transform="translate(-36.77 -8.81)"/><path class="cls-13" d="M289.44,314l31.7-17.38a7.29,7.29,0,0,0,3.23-5.9V279.87c0-2.28-1.44-3.33-3.23-2.34l-31.7,17.37a7.33,7.33,0,0,0-3.22,5.91v10.85C286.22,313.93,287.66,315,289.44,314Z" transform="translate(-36.77 -8.81)"/><path class="cls-6" d="M322.71,277.2a3,3,0,0,1,.81,2.26v10.85a7.31,7.31,0,0,1-3.23,5.91l-31.7,17.37a2.41,2.41,0,0,1-1.56.33,2,2,0,0,0,2.41.08l31.7-17.38a7.29,7.29,0,0,0,3.23-5.9V279.87C324.37,278.32,323.7,277.36,322.71,277.2Z" transform="translate(-36.77 -8.81)"/><path class="cls-7" d="M299,302.21l2.91-1.61a1.61,1.61,0,0,0,.7-1.29v-3c0-.49-.32-.72-.7-.51L299,297.44a1.59,1.59,0,0,0-.71,1.29v3C298.27,302.2,298.59,302.42,299,302.21Z" transform="translate(-36.77 -8.81)"/><path class="cls-7" d="M308.7,296.84l2.91-1.61a1.6,1.6,0,0,0,.7-1.29v-3c0-.5-.31-.73-.7-.51l-2.91,1.61a1.58,1.58,0,0,0-.7,1.28v3C308,296.82,308.31,297.05,308.7,296.84Z" transform="translate(-36.77 -8.81)"/><path class="cls-13" d="M289.44,353.2l31.7-17.37a7.31,7.31,0,0,0,3.23-5.91V319.07c0-2.28-1.44-3.32-3.23-2.34l-31.7,17.37a7.33,7.33,0,0,0-3.22,5.91v10.85C286.22,353.14,287.66,354.18,289.44,353.2Z" transform="translate(-36.77 -8.81)"/><path class="cls-6" d="M322.71,316.4a3,3,0,0,1,.81,2.26v10.85a7.31,7.31,0,0,1-3.23,5.91l-31.7,17.37a2.41,2.41,0,0,1-1.56.33,2,2,0,0,0,2.41.08l31.7-17.37a7.31,7.31,0,0,0,3.23-5.91V319.07C324.37,317.52,323.7,316.57,322.71,316.4Z" transform="translate(-36.77 -8.81)"/><path class="cls-6" d="M299,341.41l2.91-1.61a1.6,1.6,0,0,0,.7-1.28v-3c0-.49-.32-.72-.7-.51L299,336.64a1.6,1.6,0,0,0-.71,1.29v3C298.27,341.4,298.59,341.63,299,341.41Z" transform="translate(-36.77 -8.81)"/><path class="cls-14" d="M308.7,336l2.91-1.61a1.58,1.58,0,0,0,.7-1.29v-3c0-.5-.31-.72-.7-.51l-2.91,1.61a1.58,1.58,0,0,0-.7,1.29v3C308,336,308.31,336.25,308.7,336Z" transform="translate(-36.77 -8.81)"/><path class="cls-13" d="M289.44,274.79l31.7-17.37a7.31,7.31,0,0,0,3.23-5.91V240.66c0-2.27-1.44-3.32-3.23-2.33l-31.7,17.37a7.31,7.31,0,0,0-3.22,5.91v10.85C286.22,274.73,287.66,275.78,289.44,274.79Z" transform="translate(-36.77 -8.81)"/><path class="cls-6" d="M322.71,238a3,3,0,0,1,.81,2.26v10.85a7.29,7.29,0,0,1-3.23,5.9l-31.7,17.38a2.4,2.4,0,0,1-1.56.32,2,2,0,0,0,2.41.08l31.7-17.37a7.31,7.31,0,0,0,3.23-5.91V240.66C324.37,239.12,323.7,238.16,322.71,238Z" transform="translate(-36.77 -8.81)"/><path class="cls-1" d="M299,263l2.91-1.61a1.62,1.62,0,0,0,.7-1.29v-3c0-.5-.32-.73-.7-.51L299,258.24a1.59,1.59,0,0,0-.71,1.28v3C298.27,263,298.59,263.22,299,263Z" transform="translate(-36.77 -8.81)"/><path class="cls-1" d="M308.7,257.63l2.91-1.6a1.61,1.61,0,0,0,.7-1.29v-3c0-.5-.31-.73-.7-.51l-2.91,1.6a1.6,1.6,0,0,0-.7,1.29v3C308,257.62,308.31,257.85,308.7,257.63Z" transform="translate(-36.77 -8.81)"/><path class="cls-15" d="M262,224.48l-73.13-40.41a6.74,6.74,0,0,1-3-5.42V165.3c0-2.09,1.33-3.05,3-2.14L262,203.57a6.7,6.7,0,0,1,3,5.42v13.35C265,224.43,263.63,225.39,262,224.48Z" transform="translate(-36.77 -8.81)"/><path class="cls-16" d="M259.89,219.8,191,181.71a3.41,3.41,0,0,1-1.5-2.75v-10c0-1.06.67-1.54,1.5-1.08l68.93,38.09a3.42,3.42,0,0,1,1.51,2.75v10C261.4,219.77,260.72,220.26,259.89,219.8Z" transform="translate(-36.77 -8.81)"/><path class="cls-1" d="M205.33,184.57,195,178.89a3.3,3.3,0,0,1-1.46-2.67h0c0-1,.65-1.5,1.46-1.06l10.29,5.69a3.32,3.32,0,0,1,1.46,2.67h0C206.79,184.55,206.13,185,205.33,184.57Z" transform="translate(-36.77 -8.81)"/><path class="cls-13" d="M214.09,187.56c0,1-.75,1.44-1.68.93a3.56,3.56,0,0,1-1.69-2.8c0-1,.76-1.44,1.69-.93A3.54,3.54,0,0,1,214.09,187.56Z" transform="translate(-36.77 -8.81)"/><path class="cls-13" d="M220,190.84c0,1-.75,1.45-1.68.93a3.51,3.51,0,0,1-1.69-2.79c0-1,.75-1.45,1.69-.93A3.52,3.52,0,0,1,220,190.84Z" transform="translate(-36.77 -8.81)"/><path class="cls-1" d="M226,194.13c0,1-.76,1.45-1.69.93a3.52,3.52,0,0,1-1.68-2.79c0-1,.75-1.45,1.68-.94A3.56,3.56,0,0,1,226,194.13Z" transform="translate(-36.77 -8.81)"/><path class="cls-13" d="M231.94,197.42c0,1-.76,1.44-1.69.93a3.55,3.55,0,0,1-1.68-2.8c0-1,.75-1.44,1.68-.93A3.56,3.56,0,0,1,231.94,197.42Z" transform="translate(-36.77 -8.81)"/><path class="cls-13" d="M257,214.21l-3.46-1.91a2.12,2.12,0,0,1-.94-1.71v-3.51c0-.66.42-1,.94-.68l3.46,1.91a2.14,2.14,0,0,1,.94,1.72v3.51C257.93,214.2,257.51,214.5,257,214.21Z" transform="translate(-36.77 -8.81)"/><path class="cls-15" d="M262,248l-73.13-40.41a6.75,6.75,0,0,1-3-5.42V188.84c0-2.09,1.33-3.05,3-2.15L262,227.11a6.7,6.7,0,0,1,3,5.42v13.35C265,248,263.63,248.92,262,248Z" transform="translate(-36.77 -8.81)"/><path class="cls-16" d="M259.89,243.34,191,205.25a3.41,3.41,0,0,1-1.5-2.75v-10c0-1.06.67-1.55,1.5-1.09l68.93,38.1a3.42,3.42,0,0,1,1.51,2.75v10C261.4,243.31,260.72,243.8,259.89,243.34Z" transform="translate(-36.77 -8.81)"/><path class="cls-1" d="M205.33,208.11,195,202.43a3.3,3.3,0,0,1-1.46-2.67h0c0-1,.65-1.51,1.46-1.06l10.29,5.68a3.35,3.35,0,0,1,1.46,2.68h0C206.79,208.08,206.13,208.56,205.33,208.11Z" transform="translate(-36.77 -8.81)"/><path class="cls-6" d="M214.09,211.09c0,1-.75,1.45-1.68.93a3.53,3.53,0,0,1-1.69-2.79c0-1,.76-1.45,1.69-.93A3.52,3.52,0,0,1,214.09,211.09Z" transform="translate(-36.77 -8.81)"/><path class="cls-13" d="M220,214.38c0,1-.75,1.45-1.68.93a3.51,3.51,0,0,1-1.69-2.79c0-1,.75-1.45,1.69-.94A3.55,3.55,0,0,1,220,214.38Z" transform="translate(-36.77 -8.81)"/><path class="cls-1" d="M226,217.67c0,1-.76,1.44-1.69.93a3.55,3.55,0,0,1-1.68-2.8c0-1,.75-1.44,1.68-.93A3.56,3.56,0,0,1,226,217.67Z" transform="translate(-36.77 -8.81)"/><path class="cls-13" d="M231.94,221c0,1-.76,1.45-1.69.94a3.55,3.55,0,0,1-1.68-2.8c0-1,.75-1.45,1.68-.93A3.53,3.53,0,0,1,231.94,221Z" transform="translate(-36.77 -8.81)"/><path class="cls-13" d="M257,237.75l-3.46-1.91a2.14,2.14,0,0,1-.94-1.72v-3.51c0-.66.42-1,.94-.67l3.46,1.91a2.12,2.12,0,0,1,.94,1.71v3.51C257.93,237.73,257.51,238,257,237.75Z" transform="translate(-36.77 -8.81)"/><path class="cls-15" d="M262,271.56l-73.13-40.42a6.72,6.72,0,0,1-3-5.42V212.38c0-2.09,1.33-3,3-2.15L262,250.64a6.73,6.73,0,0,1,3,5.43v13.34C265,271.5,263.63,272.46,262,271.56Z" transform="translate(-36.77 -8.81)"/><path class="cls-16" d="M259.89,266.88,191,228.78a3.41,3.41,0,0,1-1.5-2.75V216c0-1.06.67-1.55,1.5-1.09L259.89,253a3.42,3.42,0,0,1,1.51,2.75v10C261.4,266.85,260.72,267.34,259.89,266.88Z" transform="translate(-36.77 -8.81)"/><path class="cls-1" d="M205.33,231.65,195,226a3.29,3.29,0,0,1-1.46-2.67h0c0-1,.65-1.5,1.46-1l10.29,5.68a3.33,3.33,0,0,1,1.46,2.67h0C206.79,231.62,206.13,232.09,205.33,231.65Z" transform="translate(-36.77 -8.81)"/><path class="cls-6" d="M214.09,234.63c0,1-.75,1.45-1.68.93a3.53,3.53,0,0,1-1.69-2.79c0-1,.76-1.45,1.69-.93A3.52,3.52,0,0,1,214.09,234.63Z" transform="translate(-36.77 -8.81)"/><path class="cls-13" d="M220,237.92c0,1-.75,1.44-1.68.93a3.54,3.54,0,0,1-1.69-2.8c0-1,.75-1.44,1.69-.93A3.55,3.55,0,0,1,220,237.92Z" transform="translate(-36.77 -8.81)"/><path class="cls-1" d="M226,241.2c0,1-.76,1.45-1.69.94a3.55,3.55,0,0,1-1.68-2.8c0-1,.75-1.45,1.68-.93A3.55,3.55,0,0,1,226,241.2Z" transform="translate(-36.77 -8.81)"/><path class="cls-13" d="M231.94,244.49c0,1-.76,1.45-1.69.93a3.52,3.52,0,0,1-1.68-2.79c0-1,.75-1.45,1.68-.93A3.53,3.53,0,0,1,231.94,244.49Z" transform="translate(-36.77 -8.81)"/><path class="cls-13" d="M257,261.29l-3.46-1.92a2.11,2.11,0,0,1-.94-1.71v-3.51c0-.66.42-1,.94-.68l3.46,1.92a2.11,2.11,0,0,1,.94,1.71v3.51C257.93,261.27,257.51,261.58,257,261.29Z" transform="translate(-36.77 -8.81)"/><path class="cls-15" d="M262,295.09l-73.13-40.41a6.72,6.72,0,0,1-3-5.42V235.91c0-2.09,1.33-3,3-2.14L262,274.18a6.71,6.71,0,0,1,3,5.42V293C265,295,263.63,296,262,295.09Z" transform="translate(-36.77 -8.81)"/><path class="cls-16" d="M259.89,290.41,191,252.32a3.41,3.41,0,0,1-1.5-2.75v-10c0-1.06.67-1.55,1.5-1.09l68.93,38.09a3.42,3.42,0,0,1,1.51,2.75v10C261.4,290.39,260.72,290.87,259.89,290.41Z" transform="translate(-36.77 -8.81)"/><path class="cls-1" d="M205.33,255.19,195,249.5a3.29,3.29,0,0,1-1.46-2.67h0c0-1,.65-1.5,1.46-1.06l10.29,5.69a3.33,3.33,0,0,1,1.46,2.67h0C206.79,255.16,206.13,255.63,205.33,255.19Z" transform="translate(-36.77 -8.81)"/><path class="cls-13" d="M214.09,258.17c0,1-.75,1.44-1.68.93a3.56,3.56,0,0,1-1.69-2.8c0-1,.76-1.44,1.69-.93A3.55,3.55,0,0,1,214.09,258.17Z" transform="translate(-36.77 -8.81)"/><path class="cls-13" d="M220,261.45c0,1-.75,1.45-1.68.94a3.54,3.54,0,0,1-1.69-2.8c0-1,.75-1.45,1.69-.93A3.53,3.53,0,0,1,220,261.45Z" transform="translate(-36.77 -8.81)"/><path class="cls-1" d="M226,264.74c0,1-.76,1.45-1.69.93a3.52,3.52,0,0,1-1.68-2.79c0-1,.75-1.45,1.68-.93A3.53,3.53,0,0,1,226,264.74Z" transform="translate(-36.77 -8.81)"/><path class="cls-13" d="M231.94,268c0,1-.76,1.45-1.69.93a3.53,3.53,0,0,1-1.68-2.79c0-1,.75-1.45,1.68-.94A3.56,3.56,0,0,1,231.94,268Z" transform="translate(-36.77 -8.81)"/><path class="cls-1" d="M257,284.83l-3.46-1.92a2.11,2.11,0,0,1-.94-1.71v-3.51c0-.66.42-1,.94-.68l3.46,1.92a2.11,2.11,0,0,1,.94,1.71v3.51C257.93,284.81,257.51,285.11,257,284.83Z" transform="translate(-36.77 -8.81)"/><path class="cls-15" d="M262,318.63l-73.13-40.41a6.74,6.74,0,0,1-3-5.42V259.45c0-2.09,1.33-3.05,3-2.14L262,297.72a6.7,6.7,0,0,1,3,5.42v13.35C265,318.58,263.63,319.54,262,318.63Z" transform="translate(-36.77 -8.81)"/><path class="cls-16" d="M259.89,314,191,275.86a3.41,3.41,0,0,1-1.5-2.75v-10c0-1.06.67-1.54,1.5-1.08l68.93,38.09a3.42,3.42,0,0,1,1.51,2.75v10C261.4,313.92,260.72,314.41,259.89,314Z" transform="translate(-36.77 -8.81)"/><path class="cls-1" d="M205.33,278.72,195,273a3.3,3.3,0,0,1-1.46-2.67h0c0-1,.65-1.5,1.46-1.06L205.33,275a3.32,3.32,0,0,1,1.46,2.67h0C206.79,278.7,206.13,279.17,205.33,278.72Z" transform="translate(-36.77 -8.81)"/><path class="cls-13" d="M214.09,281.71c0,1-.75,1.44-1.68.93a3.56,3.56,0,0,1-1.69-2.8c0-1,.76-1.44,1.69-.93A3.54,3.54,0,0,1,214.09,281.71Z" transform="translate(-36.77 -8.81)"/><path class="cls-6" d="M220,285c0,1-.75,1.45-1.68.93a3.51,3.51,0,0,1-1.69-2.79c0-1,.75-1.45,1.69-.93A3.52,3.52,0,0,1,220,285Z" transform="translate(-36.77 -8.81)"/><path class="cls-1" d="M226,288.28c0,1-.76,1.45-1.69.93a3.52,3.52,0,0,1-1.68-2.79c0-1,.75-1.45,1.68-.94A3.56,3.56,0,0,1,226,288.28Z" transform="translate(-36.77 -8.81)"/><path class="cls-6" d="M231.94,291.57c0,1-.76,1.44-1.69.93a3.55,3.55,0,0,1-1.68-2.8c0-1,.75-1.44,1.68-.93A3.56,3.56,0,0,1,231.94,291.57Z" transform="translate(-36.77 -8.81)"/><path class="cls-1" d="M257,308.36l-3.46-1.91a2.12,2.12,0,0,1-.94-1.71v-3.51c0-.66.42-1,.94-.68l3.46,1.91a2.14,2.14,0,0,1,.94,1.72v3.51C257.93,308.35,257.51,308.65,257,308.36Z" transform="translate(-36.77 -8.81)"/><path class="cls-15" d="M262,342.17l-73.13-40.41a6.75,6.75,0,0,1-3-5.42V283c0-2.09,1.33-3.05,3-2.15L262,321.26a6.7,6.7,0,0,1,3,5.42V340C265,342.11,263.63,343.07,262,342.17Z" transform="translate(-36.77 -8.81)"/><path class="cls-16" d="M259.89,337.49,191,299.4a3.41,3.41,0,0,1-1.5-2.75v-10c0-1.06.67-1.55,1.5-1.09l68.93,38.1a3.42,3.42,0,0,1,1.51,2.75v10C261.4,337.46,260.72,338,259.89,337.49Z" transform="translate(-36.77 -8.81)"/><path class="cls-1" d="M205.33,302.26,195,296.58a3.3,3.3,0,0,1-1.46-2.67h0c0-1,.65-1.51,1.46-1.06l10.29,5.68a3.35,3.35,0,0,1,1.46,2.67h0C206.79,302.23,206.13,302.71,205.33,302.26Z" transform="translate(-36.77 -8.81)"/><path class="cls-13" d="M214.09,305.24c0,1-.75,1.45-1.68.93a3.53,3.53,0,0,1-1.69-2.79c0-1,.76-1.45,1.69-.93A3.52,3.52,0,0,1,214.09,305.24Z" transform="translate(-36.77 -8.81)"/><path class="cls-13" d="M220,308.53c0,1-.75,1.45-1.68.93a3.51,3.51,0,0,1-1.69-2.79c0-1,.75-1.45,1.69-.94A3.55,3.55,0,0,1,220,308.53Z" transform="translate(-36.77 -8.81)"/><path class="cls-1" d="M226,311.82c0,1-.76,1.44-1.69.93a3.55,3.55,0,0,1-1.68-2.8c0-1,.75-1.44,1.68-.93A3.56,3.56,0,0,1,226,311.82Z" transform="translate(-36.77 -8.81)"/><path class="cls-13" d="M231.94,315.1c0,1-.76,1.45-1.69.94a3.55,3.55,0,0,1-1.68-2.8c0-1,.75-1.45,1.68-.93A3.53,3.53,0,0,1,231.94,315.1Z" transform="translate(-36.77 -8.81)"/><path class="cls-13" d="M257,331.9,253.53,330a2.14,2.14,0,0,1-.94-1.72v-3.51c0-.66.42-1,.94-.67L257,326a2.12,2.12,0,0,1,.94,1.71v3.51C257.93,331.88,257.51,332.19,257,331.9Z" transform="translate(-36.77 -8.81)"/><path class="cls-15" d="M262,365.71l-73.13-40.42a6.72,6.72,0,0,1-3-5.42V306.52c0-2.08,1.33-3,3-2.14L262,344.79a6.73,6.73,0,0,1,3,5.42v13.35C265,365.65,263.63,366.61,262,365.71Z" transform="translate(-36.77 -8.81)"/><path class="cls-16" d="M259.89,361,191,322.93a3.41,3.41,0,0,1-1.5-2.75v-10c0-1.06.67-1.55,1.5-1.09l68.93,38.09a3.42,3.42,0,0,1,1.51,2.75v10C261.4,361,260.72,361.49,259.89,361Z" transform="translate(-36.77 -8.81)"/><path class="cls-1" d="M205.33,325.8,195,320.11a3.29,3.29,0,0,1-1.46-2.67h0c0-1,.65-1.5,1.46-1.05l10.29,5.68a3.33,3.33,0,0,1,1.46,2.67h0C206.79,325.77,206.13,326.24,205.33,325.8Z" transform="translate(-36.77 -8.81)"/><path class="cls-1" d="M214.09,328.78c0,1-.75,1.45-1.68.93a3.53,3.53,0,0,1-1.69-2.79c0-1,.76-1.45,1.69-.94A3.55,3.55,0,0,1,214.09,328.78Z" transform="translate(-36.77 -8.81)"/><path class="cls-13" d="M220,332.07c0,1-.75,1.44-1.68.93a3.54,3.54,0,0,1-1.69-2.8c0-1,.75-1.44,1.69-.93A3.55,3.55,0,0,1,220,332.07Z" transform="translate(-36.77 -8.81)"/><path class="cls-1" d="M226,335.35c0,1-.76,1.45-1.69.94a3.55,3.55,0,0,1-1.68-2.8c0-1,.75-1.45,1.68-.93A3.55,3.55,0,0,1,226,335.35Z" transform="translate(-36.77 -8.81)"/><path class="cls-13" d="M231.94,338.64c0,1-.76,1.45-1.69.93a3.52,3.52,0,0,1-1.68-2.79c0-1,.75-1.45,1.68-.93A3.53,3.53,0,0,1,231.94,338.64Z" transform="translate(-36.77 -8.81)"/><path class="cls-1" d="M257,355.44l-3.46-1.92a2.11,2.11,0,0,1-.94-1.71V348.3c0-.66.42-1,.94-.68l3.46,1.92a2.11,2.11,0,0,1,.94,1.71v3.51C257.93,355.42,257.51,355.72,257,355.44Z" transform="translate(-36.77 -8.81)"/><path class="cls-4" d="M240.72,151.31a1.08,1.08,0,0,1-1.1-1.06V106.74a1.11,1.11,0,0,1,2.21,0v43.51A1.09,1.09,0,0,1,240.72,151.31Z" transform="translate(-36.77 -8.81)"/><rect class="cls-12" x="200" y="95.19" width="7.9" height="16.31"/><path class="cls-12" d="M243.51,121.86a6.42,6.42,0,0,1-5.58,0c-1.54-.85-1.54-2.24,0-3.09a6.42,6.42,0,0,1,5.58,0C245.06,119.62,245.06,121,243.51,121.86Z" transform="translate(-36.77 -8.81)"/><rect class="cls-12" x="197.55" y="72.46" width="12.8" height="25.59"/><path class="cls-7" d="M236.77,106.68v5.53a10.68,10.68,0,0,0,7.9,0v-5.53A10.68,10.68,0,0,0,236.77,106.68Z" transform="translate(-36.77 -8.81)"/><path class="cls-12" d="M245.25,109.35a10.41,10.41,0,0,1-9.05,0c-2.5-1.38-2.5-3.62,0-5a10.41,10.41,0,0,1,9.05,0C247.74,105.73,247.74,108,245.25,109.35Z" transform="translate(-36.77 -8.81)"/><path class="cls-4" d="M251.51,157.48a1.08,1.08,0,0,1-1.1-1.06V112.91a1.11,1.11,0,0,1,2.21,0v43.51A1.09,1.09,0,0,1,251.51,157.48Z" transform="translate(-36.77 -8.81)"/><rect class="cls-12" x="210.79" y="101.36" width="7.9" height="16.31"/><path class="cls-12" d="M254.31,128a6.45,6.45,0,0,1-5.59,0c-1.54-.86-1.54-2.24,0-3.09a6.45,6.45,0,0,1,5.59,0C255.85,125.79,255.85,127.17,254.31,128Z" transform="translate(-36.77 -8.81)"/><rect class="cls-12" x="208.34" y="78.63" width="12.8" height="25.59"/><path class="cls-7" d="M247.56,112.85v5.52a10.58,10.58,0,0,0,7.9,0v-5.52A10.68,10.68,0,0,0,247.56,112.85Z" transform="translate(-36.77 -8.81)"/><path class="cls-12" d="M256,115.52a10.41,10.41,0,0,1-9.05,0c-2.5-1.38-2.5-3.62,0-5a10.41,10.41,0,0,1,9.05,0C258.54,111.9,258.54,114.14,256,115.52Z" transform="translate(-36.77 -8.81)"/><path class="cls-4" d="M262.31,163.65a1.09,1.09,0,0,1-1.11-1.06V119.08a1.11,1.11,0,0,1,2.21,0v43.51A1.08,1.08,0,0,1,262.31,163.65Z" transform="translate(-36.77 -8.81)"/><rect class="cls-12" x="221.58" y="107.53" width="7.9" height="16.31"/><path class="cls-12" d="M265.1,134.19a6.38,6.38,0,0,1-5.59,0c-1.54-.85-1.54-2.23,0-3.08a6.45,6.45,0,0,1,5.59,0C266.64,132,266.64,133.34,265.1,134.19Z" transform="translate(-36.77 -8.81)"/><rect class="cls-12" x="219.13" y="84.79" width="12.8" height="25.59"/><path class="cls-7" d="M258.36,119v5.52a10.55,10.55,0,0,0,7.89,0V119A10.65,10.65,0,0,0,258.36,119Z" transform="translate(-36.77 -8.81)"/><path class="cls-12" d="M266.83,121.69a10.41,10.41,0,0,1-9.05,0c-2.5-1.38-2.5-3.62,0-5a10.41,10.41,0,0,1,9.05,0C269.33,118.07,269.33,120.31,266.83,121.69Z" transform="translate(-36.77 -8.81)"/><path class="cls-4" d="M273.1,169.81a1.08,1.08,0,0,1-1.11-1.05V125.24a1.11,1.11,0,0,1,2.21,0v43.52A1.07,1.07,0,0,1,273.1,169.81Z" transform="translate(-36.77 -8.81)"/><rect class="cls-12" x="232.37" y="113.7" width="7.9" height="16.31"/><path class="cls-12" d="M275.89,140.36a6.36,6.36,0,0,1-5.58,0c-1.55-.85-1.55-2.23,0-3.08a6.42,6.42,0,0,1,5.58,0C277.43,138.13,277.43,139.51,275.89,140.36Z" transform="translate(-36.77 -8.81)"/><rect class="cls-12" x="229.92" y="90.96" width="12.8" height="25.59"/><path class="cls-7" d="M269.15,125.19v5.52a10.63,10.63,0,0,0,7.9,0v-5.52A10.68,10.68,0,0,0,269.15,125.19Z" transform="translate(-36.77 -8.81)"/><path class="cls-12" d="M277.62,127.86a10.41,10.41,0,0,1-9.05,0c-2.5-1.38-2.5-3.62,0-5a10.41,10.41,0,0,1,9.05,0C280.12,124.24,280.12,126.48,277.62,127.86Z" transform="translate(-36.77 -8.81)"/><polygon class="cls-12" points="286.48 137.74 303.64 128.07 287.3 108.55 283 115.26 286.48 137.74"/><path class="cls-12" d="M198.67,39.4l27.38-15.08s-1,15-1,15.08-15.73,4.66-15.73,4.66Z" transform="translate(-36.77 -8.81)"/><path class="cls-12" d="M328,97.46a17.71,17.71,0,0,0-5.93-2.11c-2.76-13.89-12.86-28.64-24.9-35.29A25.11,25.11,0,0,0,287,56.76c-1.64-16.84-13.87-36-28.72-44.18-7.76-4.29-14.8-4.79-20-2.17h0l-.25.14-.39.22-16.15,9.13,5.36,4.05c-4.81,2-7.86,7.19-7.86,14.83,0,14.1,10.34,31.24,23.09,38.29L328,135.79c9.57,5.29,17.34,1,17.34-9.59S337.6,102.75,328,97.46Z" transform="translate(-36.77 -8.81)"/><path class="cls-12" d="M219.81,32.57l37.06-20.73C249.68,8.25,243.18,8,238.3,10.41h0l-.25.14-.39.22-16.15,9.13,5.36,4.05C223.51,25.35,221,28.31,219.81,32.57Z" transform="translate(-36.77 -8.81)"/><path class="cls-12" d="M288.26,93.55l27-15.19c-4.64-7.68-11-14.39-18.1-18.3a29.43,29.43,0,0,0-2.77-1.36L260,78Z" transform="translate(-36.77 -8.81)"/><path class="cls-1" d="M229.13,21.58l12.05,6.66L263.25,15.8a44.6,44.6,0,0,0-5-3.22,32.22,32.22,0,0,0-7.71-3.1Z" transform="translate(-36.77 -8.81)"/><path class="cls-1" d="M312.32,73.89,290.73,86.06l7.51,8L317.83,83A59.51,59.51,0,0,0,312.32,73.89Z" transform="translate(-36.77 -8.81)"/><path class="cls-1" d="M311.07,107a17.59,17.59,0,0,0-5.92-2.11c-2.76-13.89-12.86-28.64-24.9-35.29a25.16,25.16,0,0,0-10.19-3.3c-1.64-16.84-13.87-36-28.72-44.18-16-8.82-28.92-1.67-28.92,16,0,.6,0,1.21.05,1.81-11.68-5.18-20.81.66-20.81,13.9,0,14.1,10.34,31.24,23.09,38.29l96.32,53.23c9.58,5.29,17.34,1,17.34-9.59S320.65,112.31,311.07,107Z" transform="translate(-36.77 -8.81)"/><path class="cls-6" d="M212.47,39.93c0-.6-.05-1.21-.05-1.81v-.07c-6.45-2.4-12-1.36-15.48,2.5C200.72,37.57,206.22,37.16,212.47,39.93Z" transform="translate(-36.77 -8.81)"/><path class="cls-6" d="M312.48,105.7a17.78,17.78,0,0,0-5.92-2.1C303.8,89.71,293.7,75,281.66,68.3A25.16,25.16,0,0,0,271.47,65c-1.64-16.83-13.87-36-28.72-44.17-9.95-5.5-18.73-4.8-23.93.78,5.3-4.33,13.41-4.5,22.52.53,14.85,8.21,27.08,27.34,28.72,44.18a25.16,25.16,0,0,1,10.19,3.3c12,6.65,22.14,21.4,24.9,35.29a17.59,17.59,0,0,1,5.92,2.11c9.58,5.29,17.34,18.16,17.34,28.74,0,3.82-1,6.81-2.76,8.83,2.59-1.91,4.17-5.38,4.17-10.14C329.82,123.86,322.06,111,312.48,105.7Z" transform="translate(-36.77 -8.81)"/><path class="cls-17" d="M210.43,44.14l7.24,3.21-.37-7.63c0-.54,0-1.07,0-1.6,0-6.81,2.15-11.75,6.05-13.9s9.44-1.47,15.61,1.93c13.25,7.33,24.81,25.16,26.32,40.6l.38,3.89,4.07.3a20.16,20.16,0,0,1,8.14,2.69c10.53,5.82,20,19.34,22.56,32.15L301,109l3.37.5a12.79,12.79,0,0,1,4.25,1.54c8.09,4.47,14.92,15.8,14.92,24.73,0,3.35-1,5.8-2.66,6.74s-4.39.51-7.42-1.17L217.17,88.1C206,81.91,196.5,66.22,196.5,53.83c0-4.86,1.5-8.56,4.11-10.16a7.33,7.33,0,0,1,3.84-1A14.91,14.91,0,0,1,210.43,44.14Z" transform="translate(-36.77 -8.81)"/><polygon class="cls-4" points="221.73 93.11 224.27 91.89 221.76 90.08 221.73 93.11"/><polygon class="cls-3" points="214.09 60.26 216.56 59.06 216.61 60.3 214.09 60.26"/><polygon class="cls-4" points="228.97 85.43 231.55 84.19 226.59 79.68 228.97 85.43"/><path class="cls-4" d="M260.3,100.62l-12-6.78a2.4,2.4,0,0,1-1.1-1.94l0-13.33,14.24,8,0,13.33C261.41,100.66,260.91,101,260.3,100.62Z" transform="translate(-36.77 -8.81)"/><path class="cls-4" d="M253.31,67.89l-13,8c-.55.34-.11,1.6.73,2.08l13.27,7.48,13.27,7.48c.83.47,1.29-.29.74-1.25l-12.9-22.6C254.87,68.1,253.87,67.54,253.31,67.89Z" transform="translate(-36.77 -8.81)"/><path class="cls-1" d="M257.72,101.86l-12-6.78a2.43,2.43,0,0,1-1.1-1.93l0-13.33,14.24,8,0,13.34C258.83,101.9,258.33,102.21,257.72,101.86Z" transform="translate(-36.77 -8.81)"/><path class="cls-1" d="M250.73,69.13l-13,8c-.55.34-.11,1.61.73,2.08l13.27,7.48L265,94.17c.84.47,1.29-.29.74-1.25l-12.9-22.6C252.29,69.35,251.29,68.78,250.73,69.13Z" transform="translate(-36.77 -8.81)"/><polygon class="cls-1" points="264.39 329.42 262.92 329.42 262.92 250.6 272.64 245.23 272.64 206.43 274.12 206.43 274.12 246.04 264.39 251.42 264.39 329.42"/><path class="cls-1" d="M67.44,355.25a5.23,5.23,0,0,1-2.49-.63L38.08,340.06a2.42,2.42,0,0,1,0-4.29l67-37.11a13,13,0,0,1,12.47,0L194.13,341l-1.1,1.83-76.6-42.37a10.66,10.66,0,0,0-10.25,0l-67,37.1a.35.35,0,0,0,0,.62L66,352.78A2.94,2.94,0,0,0,69,352.7l11.36-7,1.2,1.77-11.36,7A5.15,5.15,0,0,1,67.44,355.25Z" transform="translate(-36.77 -8.81)"/><path class="cls-1" d="M102.42,360.88l-36.11-20c-2.22-1.23-1.94-3.37.62-4.78l34.87-19.27c2.56-1.42,6.43-1.57,8.65-.35l36.11,20c2.22,1.23,1.94,3.37-.62,4.78l-34.87,19.27C108.51,362,104.64,362.1,102.42,360.88Z" transform="translate(-36.77 -8.81)"/><path class="cls-2" d="M158.54,321.28h0V306.34l-35,0-12.09-6.68c-2.77-1.53-7.62-1.34-10.83.43l-11.28,6.24-35,0v15.36a3,3,0,0,0,1.86,2.78l45.22,25c2.78,1.53,7.62,1.34,10.83-.43l43.67-24.13C157.76,323.84,158.65,322.51,158.54,321.28Z" transform="translate(-36.77 -8.81)"/><path class="cls-2" d="M106.44,298.61a13,13,0,0,0-5.81,1.46l-11.28,6.24-35,0v15.36a3,3,0,0,0,1.86,2.78l45.22,25a10.18,10.18,0,0,0,5,1Z" transform="translate(-36.77 -8.81)"/><path class="cls-4" d="M58.29,306.29h-4v15.36a3,3,0,0,0,1.86,2.78l2.1,1.16Z" transform="translate(-36.77 -8.81)"/><path class="cls-4" d="M102.11,349.75a12.86,12.86,0,0,0,8.65-.1V332.21h-8.65Z" transform="translate(-36.77 -8.81)"/><path class="cls-1" d="M101.41,334.11l-45.22-25c-2.78-1.53-2.43-4.21.77-6L100.63,279c3.21-1.77,8.06-2,10.83-.43l45.22,25c2.78,1.53,2.43,4.21-.77,6l-43.67,24.13C109,335.45,104.19,335.65,101.41,334.11Z" transform="translate(-36.77 -8.81)"/><path class="cls-5" d="M102.23,329.61l-37.9-20.94c-2.33-1.28-2-3.53.65-5l36.59-20.23c2.69-1.48,6.75-1.64,9.08-.36L148.54,304c2.33,1.28,2,3.53-.65,5L111.3,329.25C108.61,330.74,104.55,330.9,102.23,329.61Z" transform="translate(-36.77 -8.81)"/><path class="cls-1" d="M141.91,325.22a3.84,3.84,0,0,1-1.83,3c-1,.56-1.82.11-1.82-1a3.84,3.84,0,0,1,1.82-3C141.09,323.65,141.91,324.11,141.91,325.22Z" transform="translate(-36.77 -8.81)"/><path class="cls-1" d="M147.79,322a3.84,3.84,0,0,1-1.83,3c-1,.56-1.83.11-1.83-1a3.85,3.85,0,0,1,1.83-3C147,320.41,147.79,320.86,147.79,322Z" transform="translate(-36.77 -8.81)"/><path class="cls-1" d="M153.66,318.73a3.81,3.81,0,0,1-1.82,3c-1,.56-1.83.11-1.83-1a3.82,3.82,0,0,1,1.83-3C152.85,317.16,153.66,317.61,153.66,318.73Z" transform="translate(-36.77 -8.81)"/><path class="cls-2" d="M158.54,297.41h0V282.47h-35l-12.09-6.69c-2.77-1.53-7.62-1.34-10.83.43l-11.28,6.24-35,0v15.36a3,3,0,0,0,1.86,2.78l45.22,25c2.78,1.53,7.62,1.34,10.83-.43L155.91,301C157.76,300,158.65,298.64,158.54,297.41Z" transform="translate(-36.77 -8.81)"/><path class="cls-2" d="M106.44,274.74a13,13,0,0,0-5.81,1.46l-11.28,6.24-35,0v15.36a3,3,0,0,0,1.86,2.78l45.22,25a10.18,10.18,0,0,0,5,1Z" transform="translate(-36.77 -8.81)"/><path class="cls-4" d="M58.29,282.42h-4v15.36a3,3,0,0,0,1.86,2.78l2.1,1.16Z" transform="translate(-36.77 -8.81)"/><path class="cls-4" d="M102.11,326.63a12.86,12.86,0,0,0,8.65-.09V309.1h-8.65Z" transform="translate(-36.77 -8.81)"/><path class="cls-1" d="M101.41,310.24l-45.22-25c-2.78-1.53-2.43-4.21.77-6l43.67-24.14c3.21-1.77,8.06-2,10.83-.43l45.22,25c2.78,1.53,2.43,4.21-.77,6l-43.67,24.13C109,311.59,104.19,311.78,101.41,310.24Z" transform="translate(-36.77 -8.81)"/><path class="cls-5" d="M102.23,305.75,64.33,284.8c-2.33-1.28-2-3.53.65-5l36.59-20.23c2.69-1.48,6.75-1.64,9.08-.36l37.89,20.95c2.33,1.28,2,3.53-.65,5L111.3,305.39C108.61,306.87,104.55,307,102.23,305.75Z" transform="translate(-36.77 -8.81)"/><path class="cls-1" d="M141.91,301.35a3.84,3.84,0,0,1-1.83,3c-1,.56-1.82.11-1.82-1a3.84,3.84,0,0,1,1.82-3C141.09,299.79,141.91,300.24,141.91,301.35Z" transform="translate(-36.77 -8.81)"/><path class="cls-1" d="M147.79,298.1a3.82,3.82,0,0,1-1.83,3c-1,.56-1.83.11-1.83-1a3.85,3.85,0,0,1,1.83-3C147,296.54,147.79,297,147.79,298.1Z" transform="translate(-36.77 -8.81)"/><path class="cls-1" d="M153.66,294.86a3.81,3.81,0,0,1-1.82,3c-1,.56-1.83.11-1.83-1a3.82,3.82,0,0,1,1.83-3C152.85,293.29,153.66,293.74,153.66,294.86Z" transform="translate(-36.77 -8.81)"/><path class="cls-2" d="M158.54,273.54h0V258.6h-35l-12.09-6.69c-2.77-1.53-7.62-1.34-10.83.43l-11.28,6.24-35,0v15.36a3,3,0,0,0,1.86,2.78l45.22,25c2.78,1.53,7.62,1.34,10.83-.43l43.67-24.13C157.76,276.1,158.65,274.77,158.54,273.54Z" transform="translate(-36.77 -8.81)"/><path class="cls-2" d="M106.44,250.87a13,13,0,0,0-5.81,1.46l-11.28,6.24-35,0v15.36a3,3,0,0,0,1.86,2.78l45.22,25a10.18,10.18,0,0,0,5,1Z" transform="translate(-36.77 -8.81)"/><path class="cls-4" d="M58.29,258.55h-4v15.36a3,3,0,0,0,1.86,2.78l2.1,1.16Z" transform="translate(-36.77 -8.81)"/><path class="cls-4" d="M102.11,303.33a12.8,12.8,0,0,0,8.65-.09V285.8h-8.65Z" transform="translate(-36.77 -8.81)"/><path class="cls-1" d="M101.41,286.37l-45.22-25c-2.78-1.53-2.43-4.21.77-6l43.67-24.14c3.21-1.77,8.06-2,10.83-.43l45.22,25c2.78,1.53,2.43,4.21-.77,6l-43.67,24.13C109,287.72,104.19,287.91,101.41,286.37Z" transform="translate(-36.77 -8.81)"/><path class="cls-6" d="M155.91,258.87,112.24,283c-3.21,1.77-8,2-10.83.42l-45.22-25a4.13,4.13,0,0,1-1.39-1.17c-.95,1.46-.52,3.06,1.39,4.11l45.22,25c2.78,1.54,7.62,1.35,10.83-.43l43.67-24.13c2.49-1.37,3.24-3.3,2.16-4.81A6,6,0,0,1,155.91,258.87Z" transform="translate(-36.77 -8.81)"/><path class="cls-1" d="M141.91,277.48a3.84,3.84,0,0,1-1.83,3c-1,.56-1.82.11-1.82-1a3.84,3.84,0,0,1,1.82-3C141.09,275.92,141.91,276.37,141.91,277.48Z" transform="translate(-36.77 -8.81)"/><path class="cls-1" d="M147.79,274.23a3.82,3.82,0,0,1-1.83,3c-1,.56-1.83.11-1.83-1a3.82,3.82,0,0,1,1.83-3C147,272.67,147.79,273.12,147.79,274.23Z" transform="translate(-36.77 -8.81)"/><path class="cls-1" d="M153.66,271a3.84,3.84,0,0,1-1.82,3c-1,.55-1.83.1-1.83-1a3.82,3.82,0,0,1,1.83-3C152.85,269.42,153.66,269.87,153.66,271Z" transform="translate(-36.77 -8.81)"/><path class="cls-4" d="M104.09,270.88l-21.17-11.7c-1.3-.71-1.13-2,.37-2.8l20.43-11.29a5.85,5.85,0,0,1,5.07-.2L130,256.58c1.3.72,1.14,2-.36,2.8l-20.44,11.3A5.83,5.83,0,0,1,104.09,270.88Z" transform="translate(-36.77 -8.81)"/><path class="cls-1" d="M106.11,261.09l-2.93-1.62c-.18-.1-.15-.27,0-.39l2.83-1.56a.79.79,0,0,1,.7,0l2.93,1.62c.18.1.16.27,0,.39l-2.83,1.56A.82.82,0,0,1,106.11,261.09Z" transform="translate(-36.77 -8.81)"/><path class="cls-7" d="M82.92,259.18l.06,0a2.36,2.36,0,0,1,.31-.2l20.43-11.3a5.85,5.85,0,0,1,5.07-.2l21.1,11.66c1.2-.82,1.26-1.93.06-2.6l-21.16-11.69a5.85,5.85,0,0,0-5.07.2L83.29,256.38C81.79,257.21,81.62,258.47,82.92,259.18Z" transform="translate(-36.77 -8.81)"/><path class="cls-1" d="M98.5,290.74c0,.75-.55,1.05-1.23.68a2.59,2.59,0,0,1-1.23-2c0-.75.55-1.05,1.23-.68A2.59,2.59,0,0,1,98.5,290.74Z" transform="translate(-36.77 -8.81)"/><path class="cls-1" d="M94.68,288.65c0,.75-.55,1.05-1.23.67a2.58,2.58,0,0,1-1.23-2c0-.75.56-1.06,1.23-.68A2.58,2.58,0,0,1,94.68,288.65Z" transform="translate(-36.77 -8.81)"/><path class="cls-1" d="M98.5,295.14c0,.75-.55,1.06-1.23.68a2.56,2.56,0,0,1-1.23-2c0-.75.55-1.06,1.23-.68A2.56,2.56,0,0,1,98.5,295.14Z" transform="translate(-36.77 -8.81)"/><path class="cls-1" d="M94.68,293.05c0,.75-.55,1.06-1.23.68a2.62,2.62,0,0,1-1.23-2c0-.75.56-1.05,1.23-.68A2.59,2.59,0,0,1,94.68,293.05Z" transform="translate(-36.77 -8.81)"/><path class="cls-1" d="M98.5,314.49c0,.75-.55,1.05-1.23.68a2.59,2.59,0,0,1-1.23-2c0-.75.55-1.05,1.23-.68A2.59,2.59,0,0,1,98.5,314.49Z" transform="translate(-36.77 -8.81)"/><path class="cls-1" d="M94.68,312.4c0,.75-.55,1.05-1.23.68a2.62,2.62,0,0,1-1.23-2c0-.75.56-1.06,1.23-.68A2.58,2.58,0,0,1,94.68,312.4Z" transform="translate(-36.77 -8.81)"/><path class="cls-1" d="M98.5,318.9c0,.75-.55,1.05-1.23.67a2.56,2.56,0,0,1-1.23-2c0-.75.55-1.06,1.23-.68A2.56,2.56,0,0,1,98.5,318.9Z" transform="translate(-36.77 -8.81)"/><path class="cls-1" d="M94.68,316.8c0,.75-.55,1.06-1.23.68a2.6,2.6,0,0,1-1.23-2c0-.75.56-1.05,1.23-.68A2.59,2.59,0,0,1,94.68,316.8Z" transform="translate(-36.77 -8.81)"/><path class="cls-1" d="M98.5,338.24c0,.75-.55,1.06-1.23.68a2.58,2.58,0,0,1-1.23-2c0-.75.55-1.05,1.23-.68A2.59,2.59,0,0,1,98.5,338.24Z" transform="translate(-36.77 -8.81)"/><path class="cls-1" d="M94.68,336.15c0,.75-.55,1.05-1.23.68a2.62,2.62,0,0,1-1.23-2c0-.75.56-1.06,1.23-.68A2.58,2.58,0,0,1,94.68,336.15Z" transform="translate(-36.77 -8.81)"/><path class="cls-1" d="M98.5,342.65c0,.75-.55,1.05-1.23.68a2.59,2.59,0,0,1-1.23-2c0-.75.55-1.06,1.23-.68A2.58,2.58,0,0,1,98.5,342.65Z" transform="translate(-36.77 -8.81)"/><path class="cls-1" d="M94.68,340.55c0,.75-.55,1.06-1.23.68a2.6,2.6,0,0,1-1.23-2c0-.75.56-1.05,1.23-.68A2.59,2.59,0,0,1,94.68,340.55Z" transform="translate(-36.77 -8.81)"/><path class="cls-1" d="M107,378.64a7.74,7.74,0,0,1-3.74-1L80.49,365a2.33,2.33,0,0,1,0-4.11l15-8.32,1.11,1.83-15,8.32a.23.23,0,0,0-.14.22.25.25,0,0,0,.13.23l22.79,12.66a5.48,5.48,0,0,0,5.23,0l44.63-24.35a7.79,7.79,0,0,1,7.44,0l37.39,20.67a5.43,5.43,0,0,0,5.26,0l18-10,1.1,1.83-18,10a7.72,7.72,0,0,1-7.47,0l-37.39-20.67a5.48,5.48,0,0,0-5.23,0l-44.64,24.35A7.72,7.72,0,0,1,107,378.64Z" transform="translate(-36.77 -8.81)"/><path class="cls-1" d="M305,459.18l-36.11-20c-2.22-1.22-1.94-3.36.62-4.78l34.87-19.27c2.56-1.41,6.43-1.57,8.65-.34l36.11,20c2.22,1.22,1.94,3.36-.62,4.77l-34.87,19.28C311.08,460.25,307.21,460.4,305,459.18Z" transform="translate(-36.77 -8.81)"/><path class="cls-2" d="M361.11,419.58h0V404.65l-35,0L314,397.94c-2.78-1.53-7.63-1.34-10.83.43l-11.28,6.24-35,0V420a3,3,0,0,0,1.86,2.78l45.23,25c2.77,1.54,7.62,1.34,10.83-.43l43.66-24.13C360.32,422.14,361.21,420.82,361.11,419.58Z" transform="translate(-36.77 -8.81)"/><path class="cls-2" d="M309,396.92a12.8,12.8,0,0,0-5.8,1.45l-11.28,6.24-35,0V420a3,3,0,0,0,1.86,2.78l45.23,25a10.14,10.14,0,0,0,5,1Z" transform="translate(-36.77 -8.81)"/><path class="cls-4" d="M260.86,404.59h-4V420a3,3,0,0,0,1.86,2.78l2.11,1.16Z" transform="translate(-36.77 -8.81)"/><path class="cls-4" d="M304.67,448.05a12.83,12.83,0,0,0,8.66-.1V430.51h-8.66Z" transform="translate(-36.77 -8.81)"/><path class="cls-1" d="M304,432.42l-45.23-25c-2.77-1.53-2.42-4.21.78-6l43.67-24.13c3.2-1.77,8.05-2,10.83-.43l45.22,25c2.78,1.53,2.43,4.21-.78,6L314.81,432C311.6,433.76,306.75,434,304,432.42Z" transform="translate(-36.77 -8.81)"/><path class="cls-5" d="M304.79,427.92,266.89,407c-2.32-1.28-2-3.53.66-5l36.59-20.22c2.68-1.49,6.75-1.65,9.07-.36l37.9,20.94c2.33,1.29,2,3.53-.65,5l-36.59,20.23C311.18,429,307.12,429.2,304.79,427.92Z" transform="translate(-36.77 -8.81)"/><path class="cls-1" d="M344.48,423.53a3.82,3.82,0,0,1-1.83,3c-1,.56-1.83.11-1.83-1a3.82,3.82,0,0,1,1.83-3C343.66,422,344.48,422.41,344.48,423.53Z" transform="translate(-36.77 -8.81)"/><path class="cls-1" d="M350.35,420.28a3.84,3.84,0,0,1-1.82,3c-1,.55-1.83.1-1.83-1a3.84,3.84,0,0,1,1.83-3C349.54,418.71,350.35,419.16,350.35,420.28Z" transform="translate(-36.77 -8.81)"/><path class="cls-1" d="M356.23,417a3.85,3.85,0,0,1-1.83,3c-1,.56-1.82.1-1.82-1a3.85,3.85,0,0,1,1.82-3C355.41,415.46,356.23,415.91,356.23,417Z" transform="translate(-36.77 -8.81)"/><path class="cls-2" d="M361.11,395.71h0V380.78l-35,0L314,374.07c-2.78-1.53-7.63-1.34-10.83.43l-11.28,6.24-35,0v15.36a3,3,0,0,0,1.86,2.78l45.23,25c2.77,1.54,7.62,1.34,10.83-.43l43.66-24.13C360.32,398.27,361.21,397,361.11,395.71Z" transform="translate(-36.77 -8.81)"/><path class="cls-2" d="M309,373.05a12.8,12.8,0,0,0-5.8,1.45l-11.28,6.24-35,0v15.36a3,3,0,0,0,1.86,2.78l45.23,25a10.14,10.14,0,0,0,5,1Z" transform="translate(-36.77 -8.81)"/><path class="cls-4" d="M260.86,380.72h-4v15.36a3,3,0,0,0,1.86,2.78l2.11,1.16Z" transform="translate(-36.77 -8.81)"/><path class="cls-4" d="M304.67,424.18a12.89,12.89,0,0,0,8.66-.09V406.64h-8.66Z" transform="translate(-36.77 -8.81)"/><path class="cls-1" d="M304,408.55l-45.23-25c-2.77-1.53-2.42-4.21.78-6l43.67-24.13c3.2-1.77,8.05-2,10.83-.43l45.22,25c2.78,1.53,2.43,4.21-.78,6l-43.66,24.14C311.6,409.89,306.75,410.08,304,408.55Z" transform="translate(-36.77 -8.81)"/><path class="cls-5" d="M304.79,404.05l-37.9-20.95c-2.32-1.28-2-3.53.66-5l36.59-20.22c2.68-1.49,6.75-1.65,9.07-.36l37.9,20.94c2.33,1.29,2,3.53-.65,5l-36.59,20.22C311.18,405.17,307.12,405.33,304.79,404.05Z" transform="translate(-36.77 -8.81)"/><path class="cls-1" d="M344.48,399.66a3.82,3.82,0,0,1-1.83,3c-1,.56-1.83.11-1.83-1a3.82,3.82,0,0,1,1.83-3C343.66,398.09,344.48,398.54,344.48,399.66Z" transform="translate(-36.77 -8.81)"/><path class="cls-1" d="M350.35,396.41a3.84,3.84,0,0,1-1.82,3c-1,.55-1.83.1-1.83-1a3.84,3.84,0,0,1,1.83-3C349.54,394.84,350.35,395.29,350.35,396.41Z" transform="translate(-36.77 -8.81)"/><path class="cls-1" d="M356.23,393.16a3.85,3.85,0,0,1-1.83,3c-1,.56-1.82.1-1.82-1a3.85,3.85,0,0,1,1.82-3C355.41,391.59,356.23,392,356.23,393.16Z" transform="translate(-36.77 -8.81)"/><path class="cls-2" d="M361.11,371.84h0V356.91l-35,0L314,350.21c-2.78-1.54-7.63-1.35-10.83.42l-11.28,6.24-35,0v15.36a3,3,0,0,0,1.86,2.78L304,400c2.77,1.54,7.62,1.35,10.83-.43l43.66-24.13C360.32,374.4,361.21,373.08,361.11,371.84Z" transform="translate(-36.77 -8.81)"/><path class="cls-2" d="M309,349.18a12.8,12.8,0,0,0-5.8,1.45l-11.28,6.24-35,0v15.36a3,3,0,0,0,1.86,2.78L304,400a10,10,0,0,0,5,1Z" transform="translate(-36.77 -8.81)"/><path class="cls-4" d="M260.86,356.85h-4v15.36a3,3,0,0,0,1.86,2.78l2.11,1.16Z" transform="translate(-36.77 -8.81)"/><path class="cls-4" d="M304.67,400.31a12.89,12.89,0,0,0,8.66-.09V382.77h-8.66Z" transform="translate(-36.77 -8.81)"/><path class="cls-1" d="M304,384.68l-45.23-25c-2.77-1.53-2.42-4.21.78-6l43.67-24.13c3.2-1.77,8.05-2,10.83-.43l45.22,25c2.78,1.53,2.43,4.21-.78,6l-43.66,24.13C311.6,386,306.75,386.21,304,384.68Z" transform="translate(-36.77 -8.81)"/><path class="cls-6" d="M358.47,357.18l-43.66,24.13c-3.21,1.77-8.06,2-10.83.43l-45.23-25a4.32,4.32,0,0,1-1.38-1.18c-.95,1.47-.52,3.06,1.38,4.11l45.23,25c2.77,1.53,7.62,1.34,10.83-.43l43.66-24.13c2.49-1.38,3.25-3.3,2.17-4.81A6,6,0,0,1,358.47,357.18Z" transform="translate(-36.77 -8.81)"/><path class="cls-1" d="M344.48,375.79a3.82,3.82,0,0,1-1.83,3c-1,.56-1.83.11-1.83-1a3.82,3.82,0,0,1,1.83-3C343.66,374.22,344.48,374.67,344.48,375.79Z" transform="translate(-36.77 -8.81)"/><path class="cls-1" d="M350.35,372.54a3.84,3.84,0,0,1-1.82,3c-1,.55-1.83.1-1.83-1a3.84,3.84,0,0,1,1.83-3C349.54,371,350.35,371.42,350.35,372.54Z" transform="translate(-36.77 -8.81)"/><path class="cls-1" d="M356.23,369.29a3.84,3.84,0,0,1-1.83,3c-1,.56-1.82.1-1.82-1a3.85,3.85,0,0,1,1.82-3C355.41,367.72,356.23,368.18,356.23,369.29Z" transform="translate(-36.77 -8.81)"/><path class="cls-12" d="M306.65,369.18l-21.16-11.69c-1.3-.72-1.14-2,.36-2.8l20.44-11.3a5.83,5.83,0,0,1,5.06-.2l21.17,11.7c1.3.72,1.13,2-.37,2.8L311.72,369A5.85,5.85,0,0,1,306.65,369.18Z" transform="translate(-36.77 -8.81)"/><path class="cls-18" d="M308.68,359.39l-2.93-1.62c-.18-.1-.16-.27.05-.39l2.83-1.56a.82.82,0,0,1,.7,0l2.93,1.62c.18.1.15.27-.05.39l-2.83,1.56A.79.79,0,0,1,308.68,359.39Z" transform="translate(-36.77 -8.81)"/><path class="cls-7" d="M285.49,357.49l.06,0a3.13,3.13,0,0,1,.3-.2L306.29,346a5.83,5.83,0,0,1,5.06-.2l21.11,11.66c1.19-.82,1.26-1.94.06-2.6l-21.17-11.7a5.83,5.83,0,0,0-5.06.2l-20.44,11.3C284.35,355.52,284.19,356.77,285.49,357.49Z" transform="translate(-36.77 -8.81)"/><path class="cls-1" d="M239.51,117.49c0,.75-.55,1.05-1.23.68a2.59,2.59,0,0,1-1.23-2c0-.75.55-1.06,1.23-.68A2.58,2.58,0,0,1,239.51,117.49Z" transform="translate(-36.77 -8.81)"/><path class="cls-1" d="M250.34,123.77c0,.75-.55,1.06-1.23.68a2.58,2.58,0,0,1-1.23-2c0-.75.55-1,1.23-.68A2.59,2.59,0,0,1,250.34,123.77Z" transform="translate(-36.77 -8.81)"/><path class="cls-1" d="M261.16,130.06c0,.75-.55,1.05-1.23.67a2.58,2.58,0,0,1-1.23-2c0-.75.56-1.06,1.23-.68A2.58,2.58,0,0,1,261.16,130.06Z" transform="translate(-36.77 -8.81)"/><path class="cls-1" d="M272,136.34c0,.75-.55,1-1.23.68a2.59,2.59,0,0,1-1.23-2c0-.75.55-1,1.23-.68A2.59,2.59,0,0,1,272,136.34Z" transform="translate(-36.77 -8.81)"/><path class="cls-1" d="M247.06,130A1.11,1.11,0,1,1,246,129,1.08,1.08,0,0,1,247.06,130Z" transform="translate(-36.77 -8.81)"/><path class="cls-1" d="M257.15,135.81a1.11,1.11,0,1,1-1.11-1.05A1.08,1.08,0,0,1,257.15,135.81Z" transform="translate(-36.77 -8.81)"/><ellipse class="cls-1" cx="229.36" cy="132.8" rx="1.11" ry="1.06"/><path class="cls-1" d="M277.34,147.17a1.11,1.11,0,1,1-1.11-1.06A1.08,1.08,0,0,1,277.34,147.17Z" transform="translate(-36.77 -8.81)"/></svg>