<svg id="Layer_1" data-name="Layer 1" xmlns="http://www.w3.org/2000/svg" viewBox="0 0 382.94 453.65"><defs><style>.cls-1{fill:#f6a574;}.cls-2{fill:#ce6328;}.cls-3{fill:#f8e3d6;}.cls-4{fill:#ff7b31;}.cls-5{fill:#fff;}.cls-6{fill:#c45b26;}.cls-7{fill:#5793ce;}.cls-8{fill:#212042;}.cls-9{fill:#636384;}</style></defs><path class="cls-1" d="M506.53,371.13A.84.84,0,0,0,507,371l13.11-7.75a2.74,2.74,0,0,0-.06-4.75l-95.62-53.32a9.87,9.87,0,0,1-5.06-8.62v-51a2.38,2.38,0,0,0-3.56-2.06l-9,5.22a.88.88,0,0,0-.32,1.2.89.89,0,0,0,1.21.33l9-5.22a.62.62,0,0,1,.92.53v51a11.65,11.65,0,0,0,6,10.16L519.17,360a1,1,0,0,1,0,1.69l-13.11,7.76a.88.88,0,0,0-.31,1.21A.91.91,0,0,0,506.53,371.13Z" transform="translate(-160.24 -95.51)"/><rect class="cls-1" x="501.43" y="363.14" width="7.28" height="15.7" transform="translate(415.42 -347.21) rotate(60.17)"/><path class="cls-1" d="M514.45,368.58a5.71,5.71,0,0,0-2.56-4.46c-1.42-.83-2.58-.16-2.58,1.48a5.66,5.66,0,0,0,2.56,4.46C513.29,370.89,514.44,370.22,514.45,368.58Z" transform="translate(-160.24 -95.51)"/><rect class="cls-1" x="484.05" y="367.35" width="11.79" height="24.63" transform="translate(415.35 -329.74) rotate(60.17)"/><path class="cls-2" d="M498.68,370.46l4.62-2.64a9.43,9.43,0,0,1,3.62,6.31l-4.62,2.64A9.43,9.43,0,0,1,498.68,370.46Z" transform="translate(-160.24 -95.51)"/><path class="cls-1" d="M504.8,376a9.25,9.25,0,0,0-4.15-7.24c-2.3-1.33-4.17-.26-4.18,2.4a9.21,9.21,0,0,0,4.15,7.23C502.92,379.69,504.79,378.62,504.8,376Z" transform="translate(-160.24 -95.51)"/><path class="cls-3" d="M510.15,366.9a.74.74,0,0,0,0-1.4,2.66,2.66,0,0,0-2.41,0,.73.73,0,0,0,0,1.39A2.68,2.68,0,0,0,510.15,366.9Z" transform="translate(-160.24 -95.51)"/><rect class="cls-1" x="397.97" y="244.77" width="7.28" height="15.7" transform="translate(260.75 -316.95) rotate(60.17)"/><path class="cls-1" d="M411,250.21a5.72,5.72,0,0,0-2.56-4.47c-1.42-.82-2.57-.16-2.58,1.48a5.72,5.72,0,0,0,2.56,4.47C409.83,252.51,411,251.85,411,250.21Z" transform="translate(-160.24 -95.51)"/><rect class="cls-1" x="380.6" y="248.97" width="11.79" height="24.63" transform="translate(260.67 -299.48) rotate(60.17)"/><path class="cls-2" d="M395.23,252.09l4.61-2.65a9.44,9.44,0,0,1,3.62,6.32l-4.61,2.64A9.4,9.4,0,0,1,395.23,252.09Z" transform="translate(-160.24 -95.51)"/><path class="cls-1" d="M401.34,257.58a9.19,9.19,0,0,0-4.15-7.23c-2.3-1.34-4.17-.27-4.18,2.39a9.25,9.25,0,0,0,4.15,7.24C399.46,261.31,401.33,260.24,401.34,257.58Z" transform="translate(-160.24 -95.51)"/><path class="cls-3" d="M406.69,248.52a.73.73,0,0,0,0-1.39,2.68,2.68,0,0,0-2.42,0,.74.74,0,0,0,0,1.4A2.66,2.66,0,0,0,406.69,248.52Z" transform="translate(-160.24 -95.51)"/><path class="cls-1" d="M354,281.16a.89.89,0,0,0,.44-1.65l-33-19A9,9,0,0,1,317,252.7V203a2.72,2.72,0,0,0-4.07-2.34l-53.26,30.87V190a.88.88,0,1,0-1.76,0v43a.88.88,0,0,0,1.32.76l54.59-31.64a.94.94,0,0,1,.94,0,1,1,0,0,1,.47.82V252.7a10.78,10.78,0,0,0,5.38,9.31l33,19A.88.88,0,0,0,354,281.16Z" transform="translate(-160.24 -95.51)"/><path class="cls-1" d="M288,318.2a.88.88,0,0,0,.45-1.64l-41-23.67a9,9,0,0,1-4.5-7.78V199.5a.88.88,0,0,0-1.76,0v85.61a10.79,10.79,0,0,0,5.37,9.31l41,23.67A.87.87,0,0,0,288,318.2Z" transform="translate(-160.24 -95.51)"/><path class="cls-1" d="M214.54,359.36a.95.95,0,0,0,.47-1.77l-37.16-21.46a8.92,8.92,0,0,1-4.47-7.75l.13-40A8.94,8.94,0,0,1,178,280.7l48-27.62a1,1,0,0,0,.47-.82V209a.95.95,0,1,0-1.89,0v42.74L177,279.06a10.86,10.86,0,0,0-5.42,9.35l-.12,40a10.83,10.83,0,0,0,5.41,9.4l37.16,21.46A.94.94,0,0,0,214.54,359.36Z" transform="translate(-160.24 -95.51)"/><rect class="cls-1" x="221.84" y="206.33" width="7.28" height="15.7" transform="translate(290.71 332.85) rotate(-180)"/><path class="cls-1" d="M222.9,223.52a5.7,5.7,0,0,0,5.15,0c1.42-.82,1.42-2.15,0-3a5.7,5.7,0,0,0-5.15,0C221.48,221.37,221.48,222.7,222.9,223.52Z" transform="translate(-160.24 -95.51)"/><rect class="cls-1" x="219.58" y="184.44" width="11.79" height="24.63" transform="translate(290.71 298) rotate(-180)"/><path class="cls-2" d="M229.11,208.91v5.32a9.45,9.45,0,0,1-7.27,0v-5.32A9.45,9.45,0,0,1,229.11,208.91Z" transform="translate(-160.24 -95.51)"/><path class="cls-1" d="M221.31,211.48a9.19,9.19,0,0,0,8.33,0c2.31-1.33,2.31-3.48,0-4.81a9.19,9.19,0,0,0-8.33,0C219,208,219,210.15,221.31,211.48Z" transform="translate(-160.24 -95.51)"/><rect class="cls-1" x="238.47" y="196.86" width="7.28" height="15.7" transform="translate(323.98 313.92) rotate(-180)"/><path class="cls-1" d="M239.54,214.05a5.62,5.62,0,0,0,5.14,0c1.42-.82,1.42-2.15,0-3a5.68,5.68,0,0,0-5.14,0C238.11,211.9,238.11,213.23,239.54,214.05Z" transform="translate(-160.24 -95.51)"/><rect class="cls-1" x="236.21" y="174.98" width="11.79" height="24.63" transform="translate(323.98 279.07) rotate(-180)"/><path class="cls-2" d="M245.75,199.45v5.31a9.38,9.38,0,0,1-7.28,0v-5.31A9.38,9.38,0,0,1,245.75,199.45Z" transform="translate(-160.24 -95.51)"/><path class="cls-1" d="M237.94,202a9.28,9.28,0,0,0,8.34,0c2.3-1.33,2.3-3.49,0-4.82a9.21,9.21,0,0,0-8.34,0C235.64,198.53,235.64,200.69,237.94,202Z" transform="translate(-160.24 -95.51)"/><rect class="cls-1" x="255.1" y="187.4" width="7.28" height="15.7" transform="translate(357.25 294.99) rotate(-180)"/><path class="cls-1" d="M256.17,204.59a5.7,5.7,0,0,0,5.15,0c1.42-.82,1.42-2.15,0-3a5.7,5.7,0,0,0-5.15,0C254.75,202.44,254.75,203.77,256.17,204.59Z" transform="translate(-160.24 -95.51)"/><rect class="cls-1" x="252.85" y="165.51" width="11.79" height="24.63" transform="translate(357.25 260.14) rotate(-180)"/><path class="cls-2" d="M262.38,190v5.32a9.47,9.47,0,0,1-7.28,0V190A9.47,9.47,0,0,1,262.38,190Z" transform="translate(-160.24 -95.51)"/><ellipse class="cls-1" cx="98.51" cy="94.63" rx="5.9" ry="3.4"/><polygon class="cls-4" points="20.37 132.6 4.56 123.29 19.62 104.5 23.58 110.97 20.37 132.6"/><path class="cls-4" d="M295.42,125l-25.23-14.52s.95,14.49.95,14.52,14.49,4.49,14.49,4.49Z" transform="translate(-160.24 -95.51)"/><path class="cls-4" d="M176.21,180.86a16,16,0,0,1,5.47-2c2.54-13.37,11.84-27.57,22.94-34a22.52,22.52,0,0,1,9.39-3.17c1.51-16.21,12.78-34.63,26.47-42.53,7.15-4.13,13.63-4.62,18.42-2.09h0l.23.13.36.21,14.88,8.79-4.94,3.9c4.44,1.94,7.24,6.92,7.24,14.28,0,13.57-9.52,30.07-21.28,36.86l-79.18,56.54c-8.82,5.09-16,1-16-9.23S167.39,186,176.21,180.86Z" transform="translate(-160.24 -95.51)"/><path class="cls-4" d="M275.94,118.39l-34.16-20c6.63-3.46,12.63-3.74,17.12-1.37h0l.23.13.36.21,14.88,8.79-4.94,3.9C272.53,111.44,274.83,114.29,275.94,118.39Z" transform="translate(-160.24 -95.51)"/><path class="cls-4" d="M212.86,177.09l-24.92-14.62c4.28-7.4,10.16-13.85,16.68-17.62.86-.49,1.71-.93,2.55-1.31l31.7,18.54Z" transform="translate(-160.24 -95.51)"/><path class="cls-3" d="M267.35,107.81l-11.1,6.41-20.34-12a40.31,40.31,0,0,1,4.57-3.09,28.74,28.74,0,0,1,7.11-3Z" transform="translate(-160.24 -95.51)"/><path class="cls-3" d="M190.69,158.16l19.89,11.72-6.92,7.72-18-10.66A58.08,58.08,0,0,1,190.69,158.16Z" transform="translate(-160.24 -95.51)"/><path class="cls-3" d="M191.84,190.06a15.67,15.67,0,0,1,5.46-2c2.54-13.38,11.85-27.58,22.94-34a22.41,22.41,0,0,1,9.39-3.18c1.52-16.21,12.79-34.63,26.47-42.53,14.72-8.5,26.65-1.61,26.65,15.39,0,.57,0,1.15,0,1.74,10.76-5,19.17.63,19.17,13.38,0,13.57-9.53,30.07-21.28,36.86L191.84,227c-8.83,5.1-16,1-16-9.22S183,195.15,191.84,190.06Z" transform="translate(-160.24 -95.51)"/><path class="cls-5" d="M282.71,125.48c0-.59,0-1.17,0-1.74v-.08c5.94-2.31,11.05-1.3,14.26,2.41C293.53,123.2,288.46,122.81,282.71,125.48Z" transform="translate(-160.24 -95.51)"/><path class="cls-5" d="M190.54,188.79a15.87,15.87,0,0,1,5.46-2c2.54-13.37,11.85-27.57,22.94-34a22.41,22.41,0,0,1,9.39-3.18c1.52-16.2,12.79-34.62,26.47-42.53,9.17-5.29,17.26-4.61,22.05.76-4.88-4.17-12.36-4.33-20.75.51-13.68,7.9-25,26.32-26.47,42.53a22.41,22.41,0,0,0-9.39,3.18c-11.09,6.4-20.4,20.6-22.94,34a15.67,15.67,0,0,0-5.46,2c-8.83,5.09-16,17.49-16,27.68,0,3.67.94,6.55,2.55,8.5-2.4-1.85-3.85-5.19-3.85-9.77C174.56,206.28,181.71,193.89,190.54,188.79Z" transform="translate(-160.24 -95.51)"/><path class="cls-6" d="M284.58,129.52l-6.67,3.1.34-7.35c0-.51,0-1,0-1.53,0-6.56-2-11.32-5.58-13.39s-8.7-1.41-14.38,1.86c-12.21,7.06-22.87,24.22-24.26,39.08l-.35,3.75-3.75.29a18,18,0,0,0-7.5,2.59c-9.7,5.6-18.44,18.62-20.79,31l-.59,3.09-3.1.48a11.54,11.54,0,0,0-3.92,1.48c-7.45,4.31-13.75,15.21-13.75,23.82,0,3.22.89,5.58,2.45,6.48s4,.49,6.84-1.12l88.76-51.25c10.32-6,19.05-21.07,19.05-33,0-4.68-1.38-8.24-3.79-9.78a6.5,6.5,0,0,0-3.54-1A13.46,13.46,0,0,0,284.58,129.52Z" transform="translate(-160.24 -95.51)"/><polygon class="cls-1" points="80.05 89.64 77.71 88.47 80.01 86.72 80.05 89.64"/><polygon class="cls-7" points="87.08 58.01 84.81 56.86 84.77 58.05 87.08 58.01"/><polygon class="cls-1" points="73.37 82.25 71 81.05 75.56 76.71 73.37 82.25"/><path class="cls-1" d="M238.63,183.9l11.08-6.53a2.34,2.34,0,0,0,1-1.86l0-12.83-13.12,7.73,0,12.83C237.61,183.94,238.07,184.23,238.63,183.9Z" transform="translate(-160.24 -95.51)"/><path class="cls-1" d="M245.07,152.39l12,7.7c.51.33.1,1.55-.67,2l-12.23,7.21-12.23,7.2c-.77.45-1.19-.28-.68-1.2l11.89-21.76C243.63,152.6,244.55,152.06,245.07,152.39Z" transform="translate(-160.24 -95.51)"/><path class="cls-3" d="M241,185.1l11.08-6.53a2.37,2.37,0,0,0,1-1.86l0-12.84L240,171.6l0,12.84C240,185.13,240.44,185.43,241,185.1Z" transform="translate(-160.24 -95.51)"/><path class="cls-3" d="M247.44,153.59l12,7.7c.51.33.1,1.55-.68,2l-12.22,7.2-12.23,7.2c-.77.46-1.19-.27-.69-1.2l11.89-21.75C246,153.8,246.93,153.25,247.44,153.59Z" transform="translate(-160.24 -95.51)"/><path class="cls-3" d="M259.77,201.7c0,.77.54,1.08,1.21.7a2.7,2.7,0,0,0,1.2-2.1c0-.76-.54-1.08-1.2-.69A2.65,2.65,0,0,0,259.77,201.7Z" transform="translate(-160.24 -95.51)"/><path class="cls-3" d="M357.83,373.65l-33.28-19.21c-2.05-1.18-1.79-3.24.57-4.6l32.14-18.55c2.35-1.37,5.92-1.51,8-.33l33.28,19.21c2.05,1.18,1.79,3.24-.57,4.6L365.8,373.32C363.44,374.69,359.87,374.83,357.83,373.65Z" transform="translate(-160.24 -95.51)"/><path class="cls-8" d="M409.55,335.53h0V321.16l-32.25,0-11.14-6.44c-2.56-1.47-7-1.29-10,.42l-10.4,6-32.27,0v14.79a2.87,2.87,0,0,0,1.71,2.67l41.68,24.07c2.55,1.47,7,1.29,10-.42L407.12,339C408.82,338,409.64,336.72,409.55,335.53Z" transform="translate(-160.24 -95.51)"/><path class="cls-8" d="M361.53,313.71a11.48,11.48,0,0,0-5.35,1.41l-10.4,6-32.27,0v14.79a2.87,2.87,0,0,0,1.71,2.67l41.68,24.07a9,9,0,0,0,4.63,1Z" transform="translate(-160.24 -95.51)"/><path class="cls-7" d="M317.16,321.1h-3.65v14.79a2.87,2.87,0,0,0,1.71,2.67l1.94,1.12Z" transform="translate(-160.24 -95.51)"/><path class="cls-1" d="M357.54,362.94a11.4,11.4,0,0,0,8-.09V346.06h-8Z" transform="translate(-160.24 -95.51)"/><path class="cls-3" d="M356.9,347.89l-41.68-24.06c-2.56-1.48-2.24-4.06.72-5.76l40.24-23.24c2.95-1.7,7.42-1.89,10-.41l41.67,24.06c2.56,1.48,2.24,4.06-.71,5.76l-40.25,23.24C363.92,349.18,359.45,349.37,356.9,347.89Z" transform="translate(-160.24 -95.51)"/><path class="cls-9" d="M357.65,343.56,322.72,323.4c-2.14-1.24-1.87-3.4.6-4.83L357,299.1c2.48-1.43,6.22-1.59,8.37-.35l34.92,20.17c2.14,1.23,1.88,3.39-.6,4.82L366,343.21C363.53,344.64,359.79,344.8,357.65,343.56Z" transform="translate(-160.24 -95.51)"/><path class="cls-3" d="M394.22,339.33a3.75,3.75,0,0,1-1.69,2.92c-.93.53-1.68.1-1.68-1a3.7,3.7,0,0,1,1.68-2.91C393.46,337.82,394.22,338.26,394.22,339.33Z" transform="translate(-160.24 -95.51)"/><path class="cls-3" d="M399.63,336.2a3.72,3.72,0,0,1-1.68,2.92c-.93.54-1.68.1-1.68-1a3.72,3.72,0,0,1,1.68-2.92C398.88,334.69,399.63,335.13,399.63,336.2Z" transform="translate(-160.24 -95.51)"/><path class="cls-3" d="M405.05,333.08a3.73,3.73,0,0,1-1.69,2.91c-.92.54-1.68.1-1.68-1a3.76,3.76,0,0,1,1.68-2.92C404.29,331.57,405.05,332,405.05,333.08Z" transform="translate(-160.24 -95.51)"/><path class="cls-8" d="M409.55,312.56h0V298.18l-32.25,0-11.14-6.44c-2.56-1.47-7-1.29-10,.42l-10.4,6-32.27,0v14.79a2.86,2.86,0,0,0,1.71,2.67l41.68,24.07c2.55,1.47,7,1.29,10-.42L407.12,316C408.82,315,409.64,313.74,409.55,312.56Z" transform="translate(-160.24 -95.51)"/><path class="cls-8" d="M361.53,290.73a11.48,11.48,0,0,0-5.35,1.41l-10.4,6-32.27,0v14.79a2.86,2.86,0,0,0,1.71,2.67l41.68,24.07a9,9,0,0,0,4.63,1Z" transform="translate(-160.24 -95.51)"/><path class="cls-1" d="M317.16,298.12h-3.65v14.79a2.86,2.86,0,0,0,1.71,2.67l1.94,1.12Z" transform="translate(-160.24 -95.51)"/><path class="cls-1" d="M357.54,340a11.34,11.34,0,0,0,8-.09V323.08h-8Z" transform="translate(-160.24 -95.51)"/><path class="cls-3" d="M356.9,324.91l-41.68-24.06c-2.56-1.48-2.24-4.06.72-5.76l40.24-23.23c2.95-1.71,7.42-1.9,10-.42l41.67,24.06c2.56,1.48,2.24,4.06-.71,5.76L366.87,324.5C363.92,326.2,359.45,326.39,356.9,324.91Z" transform="translate(-160.24 -95.51)"/><path class="cls-9" d="M357.65,320.58l-34.93-20.16c-2.14-1.24-1.87-3.4.6-4.83L357,276.12c2.48-1.43,6.22-1.59,8.37-.35l34.92,20.17c2.14,1.23,1.88,3.39-.6,4.82L366,320.23C363.53,321.66,359.79,321.82,357.65,320.58Z" transform="translate(-160.24 -95.51)"/><path class="cls-3" d="M394.22,316.35a3.75,3.75,0,0,1-1.69,2.92c-.93.53-1.68.1-1.68-1a3.72,3.72,0,0,1,1.68-2.91C393.46,314.84,394.22,315.28,394.22,316.35Z" transform="translate(-160.24 -95.51)"/><path class="cls-1" d="M399.63,313.22a3.72,3.72,0,0,1-1.68,2.92c-.93.54-1.68.1-1.68-1a3.72,3.72,0,0,1,1.68-2.92C398.88,311.72,399.63,312.15,399.63,313.22Z" transform="translate(-160.24 -95.51)"/><path class="cls-1" d="M405.05,310.1a3.71,3.71,0,0,1-1.69,2.91c-.92.54-1.68.1-1.68-1a3.76,3.76,0,0,1,1.68-2.92C404.29,308.59,405.05,309,405.05,310.1Z" transform="translate(-160.24 -95.51)"/><path class="cls-8" d="M409.55,289.58h0V275.2l-32.25,0-11.14-6.44c-2.56-1.47-7-1.29-10,.42l-10.4,6-32.27,0v14.79a2.88,2.88,0,0,0,1.71,2.68l41.68,24.06c2.55,1.47,7,1.29,10-.42L407.12,293C408.82,292,409.64,290.76,409.55,289.58Z" transform="translate(-160.24 -95.51)"/><path class="cls-8" d="M361.53,267.75a11.48,11.48,0,0,0-5.35,1.41l-10.4,6-32.27,0v14.79a2.88,2.88,0,0,0,1.71,2.68l41.68,24.06a9,9,0,0,0,4.63,1Z" transform="translate(-160.24 -95.51)"/><path class="cls-1" d="M317.16,275.15h-3.65v14.79a2.88,2.88,0,0,0,1.71,2.68l1.94,1.11Z" transform="translate(-160.24 -95.51)"/><path class="cls-1" d="M357.54,317a11.34,11.34,0,0,0,8-.09V300.1h-8Z" transform="translate(-160.24 -95.51)"/><path class="cls-3" d="M356.9,301.93l-41.68-24.06c-2.56-1.48-2.24-4.06.72-5.76l40.24-23.23c2.95-1.71,7.42-1.89,10-.42l41.67,24.06c2.56,1.48,2.24,4.06-.71,5.76l-40.25,23.24C363.92,303.22,359.45,303.41,356.9,301.93Z" transform="translate(-160.24 -95.51)"/><path class="cls-5" d="M407.12,275.45l-40.25,23.24c-2.95,1.7-7.42,1.89-10,.41L315.22,275a4,4,0,0,1-1.28-1.13c-.87,1.41-.48,2.95,1.28,4l41.68,24.06c2.55,1.48,7,1.29,10-.41l40.25-23.24c2.29-1.32,3-3.17,2-4.62A5.6,5.6,0,0,1,407.12,275.45Z" transform="translate(-160.24 -95.51)"/><path class="cls-1" d="M394.22,293.37a3.75,3.75,0,0,1-1.69,2.92c-.93.53-1.68.1-1.68-1a3.72,3.72,0,0,1,1.68-2.91C393.46,291.86,394.22,292.3,394.22,293.37Z" transform="translate(-160.24 -95.51)"/><path class="cls-3" d="M399.63,290.24a3.72,3.72,0,0,1-1.68,2.92c-.93.54-1.68.1-1.68-1a3.72,3.72,0,0,1,1.68-2.92C398.88,288.74,399.63,289.17,399.63,290.24Z" transform="translate(-160.24 -95.51)"/><path class="cls-3" d="M405.05,287.12a3.71,3.71,0,0,1-1.69,2.91c-.92.54-1.68.1-1.68-1a3.73,3.73,0,0,1,1.68-2.91C404.29,285.61,405.05,286,405.05,287.12Z" transform="translate(-160.24 -95.51)"/><path class="cls-4" d="M359.36,287l-19.5-11.26c-1.2-.69-1.05-1.89.33-2.69L359,262.19a5.19,5.19,0,0,1,4.67-.2l19.51,11.26c1.19.69,1,1.9-.34,2.7L364,286.82A5.19,5.19,0,0,1,359.36,287Z" transform="translate(-160.24 -95.51)"/><path class="cls-3" d="M361.23,277.59l-2.7-1.56c-.17-.1-.15-.26.05-.37l2.6-1.51a.75.75,0,0,1,.65,0l2.69,1.56c.17.1.15.26,0,.38l-2.61,1.5A.73.73,0,0,1,361.23,277.59Z" transform="translate(-160.24 -95.51)"/><path class="cls-2" d="M339.86,275.75l.05,0a2.83,2.83,0,0,1,.28-.2L359,264.72a5.19,5.19,0,0,1,4.67-.19l19.45,11.23c1.1-.79,1.16-1.87.06-2.51L363.69,262a5.19,5.19,0,0,0-4.67.2l-18.83,10.87C338.81,273.86,338.66,275.06,339.86,275.75Z" transform="translate(-160.24 -95.51)"/><path class="cls-3" d="M284.34,415l-33.29-19.21c-2-1.18-1.78-3.24.58-4.6l32.13-18.56c2.36-1.36,5.93-1.51,8-.33L325,391.52c2,1.18,1.79,3.24-.57,4.6L292.3,414.67C290,416,286.38,416.18,284.34,415Z" transform="translate(-160.24 -95.51)"/><path class="cls-8" d="M336.05,376.88h0V362.5l-32.24,0-11.15-6.43c-2.55-1.48-7-1.29-10,.41l-10.4,6-32.28,0v14.79a2.9,2.9,0,0,0,1.72,2.67L283.4,404c2.56,1.48,7,1.29,10-.41l40.24-23.23C335.33,379.34,336.15,378.07,336.05,376.88Z" transform="translate(-160.24 -95.51)"/><path class="cls-8" d="M288,355.06a11.59,11.59,0,0,0-5.34,1.4l-10.4,6-32.28,0v14.79a2.9,2.9,0,0,0,1.72,2.67L283.4,404a9.05,9.05,0,0,0,4.63,1Z" transform="translate(-160.24 -95.51)"/><path class="cls-7" d="M243.67,362.45H240v14.79a2.9,2.9,0,0,0,1.72,2.67l1.94,1.12Z" transform="translate(-160.24 -95.51)"/><path class="cls-1" d="M284.05,404.29a11.4,11.4,0,0,0,8-.09V387.4h-8Z" transform="translate(-160.24 -95.51)"/><path class="cls-3" d="M283.4,389.24l-41.67-24.06c-2.56-1.48-2.24-4.06.71-5.77l40.25-23.23c2.95-1.7,7.42-1.89,10-.41l41.68,24.06c2.56,1.48,2.24,4.06-.72,5.76l-40.24,23.23C290.43,390.53,286,390.71,283.4,389.24Z" transform="translate(-160.24 -95.51)"/><path class="cls-9" d="M284.15,384.91l-34.92-20.17c-2.14-1.23-1.88-3.4.6-4.83l33.72-19.46c2.48-1.43,6.22-1.59,8.36-.35l34.93,20.16c2.14,1.24,1.87,3.4-.6,4.83l-33.72,19.47C290,386,286.3,386.14,284.15,384.91Z" transform="translate(-160.24 -95.51)"/><path class="cls-3" d="M320.72,380.68a3.7,3.7,0,0,1-1.68,2.91c-.93.54-1.68.1-1.68-1a3.7,3.7,0,0,1,1.68-2.91C320,379.17,320.72,379.6,320.72,380.68Z" transform="translate(-160.24 -95.51)"/><path class="cls-1" d="M326.14,377.55a3.73,3.73,0,0,1-1.68,2.92c-.93.53-1.69.1-1.69-1a3.73,3.73,0,0,1,1.69-2.91C325.39,376,326.14,376.48,326.14,377.55Z" transform="translate(-160.24 -95.51)"/><path class="cls-3" d="M331.56,374.42a3.73,3.73,0,0,1-1.69,2.92c-.93.54-1.68.1-1.68-1a3.72,3.72,0,0,1,1.68-2.92C330.8,372.91,331.56,373.35,331.56,374.42Z" transform="translate(-160.24 -95.51)"/><path class="cls-8" d="M336.05,353.9h0V339.52H303.81l-11.15-6.44c-2.55-1.48-7-1.29-10,.41l-10.4,6-32.28,0v14.79a2.9,2.9,0,0,0,1.72,2.67L283.4,381c2.56,1.48,7,1.29,10-.41l40.24-23.23C335.33,356.36,336.15,355.09,336.05,353.9Z" transform="translate(-160.24 -95.51)"/><path class="cls-8" d="M288,332.08a11.59,11.59,0,0,0-5.34,1.4l-10.4,6-32.28,0v14.79a2.9,2.9,0,0,0,1.72,2.67L283.4,381a9.05,9.05,0,0,0,4.63,1Z" transform="translate(-160.24 -95.51)"/><path class="cls-1" d="M243.67,339.47H240v14.79a2.9,2.9,0,0,0,1.72,2.67l1.94,1.12Z" transform="translate(-160.24 -95.51)"/><path class="cls-1" d="M284.05,381.31a11.4,11.4,0,0,0,8-.09v-16.8h-8Z" transform="translate(-160.24 -95.51)"/><path class="cls-3" d="M283.4,366.26,241.73,342.2c-2.56-1.48-2.24-4.06.71-5.76l40.25-23.24c2.95-1.7,7.42-1.89,10-.41l41.68,24.06c2.56,1.48,2.24,4.06-.72,5.76l-40.24,23.23C290.43,367.55,286,367.73,283.4,366.26Z" transform="translate(-160.24 -95.51)"/><path class="cls-9" d="M284.15,361.93l-34.92-20.17c-2.14-1.23-1.88-3.4.6-4.82l33.72-19.47c2.48-1.43,6.22-1.59,8.36-.35l34.93,20.16c2.14,1.24,1.87,3.4-.6,4.83l-33.72,19.47C290,363,286.3,363.16,284.15,361.93Z" transform="translate(-160.24 -95.51)"/><path class="cls-3" d="M320.72,357.7a3.7,3.7,0,0,1-1.68,2.91c-.93.54-1.68.1-1.68-1a3.7,3.7,0,0,1,1.68-2.91C320,356.19,320.72,356.62,320.72,357.7Z" transform="translate(-160.24 -95.51)"/><path class="cls-3" d="M326.14,354.57a3.73,3.73,0,0,1-1.68,2.92c-.93.53-1.69.1-1.69-1a3.73,3.73,0,0,1,1.69-2.91C325.39,353.06,326.14,353.5,326.14,354.57Z" transform="translate(-160.24 -95.51)"/><path class="cls-1" d="M331.56,351.44a3.73,3.73,0,0,1-1.69,2.92c-.93.54-1.68.1-1.68-1a3.72,3.72,0,0,1,1.68-2.92C330.8,349.94,331.56,350.37,331.56,351.44Z" transform="translate(-160.24 -95.51)"/><path class="cls-8" d="M336.05,330.92h0V316.54H303.81l-11.15-6.44c-2.55-1.48-7-1.29-10,.41l-10.4,6-32.28,0v14.79a2.9,2.9,0,0,0,1.72,2.67L283.4,358c2.56,1.48,7,1.29,10-.41l40.24-23.23C335.33,333.38,336.15,332.11,336.05,330.92Z" transform="translate(-160.24 -95.51)"/><path class="cls-8" d="M288,309.1a11.59,11.59,0,0,0-5.34,1.4l-10.4,6-32.28,0v14.79a2.9,2.9,0,0,0,1.72,2.67L283.4,358a9.05,9.05,0,0,0,4.63,1Z" transform="translate(-160.24 -95.51)"/><path class="cls-1" d="M243.67,316.49H240v14.79a2.9,2.9,0,0,0,1.72,2.67l1.94,1.12Z" transform="translate(-160.24 -95.51)"/><path class="cls-1" d="M284.05,358.33a11.4,11.4,0,0,0,8-.09V341.45h-8Z" transform="translate(-160.24 -95.51)"/><path class="cls-3" d="M283.4,343.28l-41.67-24.06c-2.56-1.48-2.24-4.06.71-5.76l40.25-23.24c2.95-1.7,7.42-1.89,10-.41l41.68,24.06c2.56,1.48,2.24,4.06-.72,5.76l-40.24,23.23C290.43,344.57,286,344.75,283.4,343.28Z" transform="translate(-160.24 -95.51)"/><path class="cls-5" d="M333.62,316.8,293.38,340c-2.95,1.71-7.42,1.9-10,.42l-41.67-24.06a3.9,3.9,0,0,1-1.28-1.14c-.88,1.42-.48,2.95,1.28,4l41.67,24.06c2.56,1.47,7,1.29,10-.42l40.24-23.23c2.3-1.32,3-3.17,2-4.63A5.56,5.56,0,0,1,333.62,316.8Z" transform="translate(-160.24 -95.51)"/><path class="cls-1" d="M320.72,334.72a3.7,3.7,0,0,1-1.68,2.91c-.93.54-1.68.11-1.68-1a3.7,3.7,0,0,1,1.68-2.91C320,333.21,320.72,333.64,320.72,334.72Z" transform="translate(-160.24 -95.51)"/><path class="cls-1" d="M326.14,331.59a3.73,3.73,0,0,1-1.68,2.92c-.93.53-1.69.1-1.69-1a3.73,3.73,0,0,1,1.69-2.91C325.39,330.08,326.14,330.52,326.14,331.59Z" transform="translate(-160.24 -95.51)"/><path class="cls-3" d="M331.56,328.46a3.73,3.73,0,0,1-1.69,2.92c-.93.54-1.68.1-1.68-1a3.72,3.72,0,0,1,1.68-2.92C330.8,327,331.56,327.39,331.56,328.46Z" transform="translate(-160.24 -95.51)"/><path class="cls-4" d="M285.87,328.36l-19.5-11.26c-1.2-.69-1.05-1.9.33-2.69l18.83-10.88a5.22,5.22,0,0,1,4.67-.19l19.5,11.26c1.2.69,1.05,1.9-.33,2.7l-18.83,10.87A5.19,5.19,0,0,1,285.87,328.36Z" transform="translate(-160.24 -95.51)"/><path class="cls-3" d="M287.73,318.93,285,317.38c-.17-.1-.15-.27,0-.38l2.61-1.5a.73.73,0,0,1,.64,0L291,317c.17.1.15.26,0,.37l-2.61,1.51A.71.71,0,0,1,287.73,318.93Z" transform="translate(-160.24 -95.51)"/><path class="cls-2" d="M266.37,317.1l.05,0,.28-.19,18.83-10.87a5.16,5.16,0,0,1,4.67-.19l19.45,11.22c1.1-.79,1.16-1.86.05-2.5l-19.5-11.26a5.22,5.22,0,0,0-4.67.19L266.7,314.41C265.32,315.2,265.17,316.41,266.37,317.1Z" transform="translate(-160.24 -95.51)"/><path class="cls-3" d="M279.7,369.69c0,.77-.54,1.08-1.21.69a2.67,2.67,0,0,1-1.2-2.09c0-.77.54-1.08,1.2-.7A2.69,2.69,0,0,1,279.7,369.69Z" transform="translate(-160.24 -95.51)"/><path class="cls-3" d="M276,367.54c0,.77-.54,1.08-1.2.69a2.65,2.65,0,0,1-1.21-2.09c0-.77.54-1.08,1.21-.69A2.67,2.67,0,0,1,276,367.54Z" transform="translate(-160.24 -95.51)"/><path class="cls-3" d="M279.7,374.2c0,.77-.54,1.09-1.21.7a2.67,2.67,0,0,1-1.2-2.09c0-.77.54-1.08,1.2-.7A2.68,2.68,0,0,1,279.7,374.2Z" transform="translate(-160.24 -95.51)"/><path class="cls-1" d="M276,372.06c0,.77-.54,1.08-1.2.69a2.65,2.65,0,0,1-1.21-2.09c0-.77.54-1.08,1.21-.69A2.67,2.67,0,0,1,276,372.06Z" transform="translate(-160.24 -95.51)"/><path class="cls-3" d="M210.84,456.35l-33.28-19.22c-2-1.17-1.78-3.23.57-4.6L210.27,414c2.36-1.36,5.93-1.51,8-.33l33.28,19.21c2,1.18,1.79,3.24-.57,4.61L218.81,456C216.45,457.38,212.89,457.53,210.84,456.35Z" transform="translate(-160.24 -95.51)"/><path class="cls-8" d="M262.56,418.23h0V403.85l-32.24,0-11.15-6.43c-2.56-1.48-7-1.29-10,.41l-10.4,6H166.52v14.78a2.91,2.91,0,0,0,1.72,2.68l41.67,24.06c2.56,1.48,7,1.29,10-.41l40.24-23.24C261.83,420.69,262.66,419.42,262.56,418.23Z" transform="translate(-160.24 -95.51)"/><path class="cls-8" d="M214.54,396.41a11.42,11.42,0,0,0-5.35,1.4l-10.4,6H166.52v14.78a2.91,2.91,0,0,0,1.72,2.68l41.67,24.06a9.05,9.05,0,0,0,4.63,1Z" transform="translate(-160.24 -95.51)"/><path class="cls-1" d="M170.17,403.8h-3.65v14.78a2.91,2.91,0,0,0,1.72,2.68l1.93,1.12Z" transform="translate(-160.24 -95.51)"/><path class="cls-1" d="M210.55,445.63a11.32,11.32,0,0,0,8-.09V428.75h-8Z" transform="translate(-160.24 -95.51)"/><path class="cls-3" d="M209.91,430.58l-41.67-24.06c-2.56-1.47-2.24-4,.71-5.76l40.24-23.23c3-1.71,7.42-1.89,10-.41l41.68,24.06c2.55,1.47,2.23,4.05-.72,5.76l-40.24,23.23C216.94,431.88,212.47,432.06,209.91,430.58Z" transform="translate(-160.24 -95.51)"/><path class="cls-9" d="M210.66,426.25l-34.92-20.16c-2.15-1.24-1.88-3.4.6-4.83l33.72-19.47c2.47-1.43,6.22-1.58,8.36-.34l34.93,20.16c2.14,1.24,1.87,3.4-.6,4.83L219,425.91C216.55,427.34,212.8,427.49,210.66,426.25Z" transform="translate(-160.24 -95.51)"/><path class="cls-3" d="M247.23,422a3.72,3.72,0,0,1-1.68,2.92c-.93.54-1.68.1-1.68-1a3.72,3.72,0,0,1,1.68-2.92C246.48,420.52,247.23,421,247.23,422Z" transform="translate(-160.24 -95.51)"/><path class="cls-1" d="M252.65,418.9a3.71,3.71,0,0,1-1.69,2.91c-.93.54-1.68.1-1.68-1a3.7,3.7,0,0,1,1.68-2.91C251.89,417.39,252.65,417.82,252.65,418.9Z" transform="translate(-160.24 -95.51)"/><path class="cls-3" d="M258.06,415.77a3.73,3.73,0,0,1-1.68,2.92c-.93.53-1.68.1-1.68-1a3.72,3.72,0,0,1,1.68-2.91C257.31,414.26,258.06,414.7,258.06,415.77Z" transform="translate(-160.24 -95.51)"/><path class="cls-8" d="M262.56,395.25h0V380.87l-32.24,0-11.15-6.43c-2.56-1.48-7-1.29-10,.41l-10.4,6H166.52v14.79a2.91,2.91,0,0,0,1.72,2.67l41.67,24.06c2.56,1.48,7,1.29,10-.41l40.24-23.24C261.83,397.71,262.66,396.44,262.56,395.25Z" transform="translate(-160.24 -95.51)"/><path class="cls-8" d="M214.54,373.43a11.54,11.54,0,0,0-5.35,1.4l-10.4,6H166.52v14.79a2.91,2.91,0,0,0,1.72,2.67l41.67,24.06a9.05,9.05,0,0,0,4.63,1Z" transform="translate(-160.24 -95.51)"/><path class="cls-1" d="M170.17,380.82h-3.65v14.79a2.91,2.91,0,0,0,1.72,2.67l1.93,1.12Z" transform="translate(-160.24 -95.51)"/><path class="cls-1" d="M210.55,422.65a11.32,11.32,0,0,0,8-.09V405.77h-8Z" transform="translate(-160.24 -95.51)"/><path class="cls-3" d="M209.91,407.6l-41.67-24.06c-2.56-1.47-2.24-4.05.71-5.76l40.24-23.23c3-1.71,7.42-1.89,10-.41l41.68,24.06c2.55,1.47,2.23,4.05-.72,5.76l-40.24,23.23C216.94,408.9,212.47,409.08,209.91,407.6Z" transform="translate(-160.24 -95.51)"/><path class="cls-9" d="M210.66,403.27l-34.92-20.16c-2.15-1.24-1.88-3.4.6-4.83l33.72-19.47c2.47-1.43,6.22-1.58,8.36-.34l34.93,20.16c2.14,1.24,1.87,3.4-.6,4.83L219,402.93C216.55,404.36,212.8,404.51,210.66,403.27Z" transform="translate(-160.24 -95.51)"/><path class="cls-1" d="M247.23,399a3.72,3.72,0,0,1-1.68,2.92c-.93.54-1.68.1-1.68-1a3.72,3.72,0,0,1,1.68-2.92C246.48,397.54,247.23,398,247.23,399Z" transform="translate(-160.24 -95.51)"/><path class="cls-1" d="M252.65,395.92a3.71,3.71,0,0,1-1.69,2.91c-.93.54-1.68.1-1.68-1A3.7,3.7,0,0,1,251,395C251.89,394.41,252.65,394.84,252.65,395.92Z" transform="translate(-160.24 -95.51)"/><path class="cls-3" d="M258.06,392.79a3.73,3.73,0,0,1-1.68,2.92c-.93.53-1.68.1-1.68-1a3.72,3.72,0,0,1,1.68-2.91C257.31,391.28,258.06,391.72,258.06,392.79Z" transform="translate(-160.24 -95.51)"/><path class="cls-8" d="M262.56,372.27h0V357.89l-32.24,0-11.15-6.43c-2.56-1.48-7-1.29-10,.41l-10.4,6-32.27,0v14.79a2.9,2.9,0,0,0,1.72,2.67l41.67,24.06c2.56,1.48,7,1.29,10-.41l40.24-23.24C261.83,374.73,262.66,373.46,262.56,372.27Z" transform="translate(-160.24 -95.51)"/><path class="cls-8" d="M214.54,350.45a11.54,11.54,0,0,0-5.35,1.4l-10.4,6-32.27,0v14.79a2.9,2.9,0,0,0,1.72,2.67l41.67,24.06a9.05,9.05,0,0,0,4.63,1Z" transform="translate(-160.24 -95.51)"/><path class="cls-1" d="M170.17,357.84h-3.65v14.79a2.9,2.9,0,0,0,1.72,2.67l1.93,1.12Z" transform="translate(-160.24 -95.51)"/><path class="cls-1" d="M210.55,399.67a11.32,11.32,0,0,0,8-.09V382.79h-8Z" transform="translate(-160.24 -95.51)"/><path class="cls-3" d="M209.91,384.63l-41.67-24.07c-2.56-1.47-2.24-4.05.71-5.76l40.24-23.23c3-1.71,7.42-1.89,10-.41l41.68,24.06c2.55,1.47,2.23,4-.72,5.76l-40.24,23.23C216.94,385.92,212.47,386.1,209.91,384.63Z" transform="translate(-160.24 -95.51)"/><path class="cls-5" d="M260.13,358.15l-40.24,23.23c-2.95,1.71-7.42,1.89-10,.42l-41.67-24.07A3.77,3.77,0,0,1,167,356.6c-.88,1.42-.48,2.95,1.28,4l41.67,24.07c2.56,1.47,7,1.29,10-.42L260.13,361c2.3-1.33,3-3.18,2-4.63A5.62,5.62,0,0,1,260.13,358.15Z" transform="translate(-160.24 -95.51)"/><path class="cls-3" d="M247.23,376.07a3.72,3.72,0,0,1-1.68,2.91c-.93.54-1.68.1-1.68-1a3.73,3.73,0,0,1,1.68-2.92C246.48,374.56,247.23,375,247.23,376.07Z" transform="translate(-160.24 -95.51)"/><path class="cls-3" d="M252.65,372.94a3.71,3.71,0,0,1-1.69,2.91c-.93.54-1.68.11-1.68-1A3.7,3.7,0,0,1,251,372C251.89,371.43,252.65,371.86,252.65,372.94Z" transform="translate(-160.24 -95.51)"/><path class="cls-1" d="M258.06,369.81a3.72,3.72,0,0,1-1.68,2.92c-.93.53-1.68.1-1.68-1a3.72,3.72,0,0,1,1.68-2.92C257.31,368.3,258.06,368.74,258.06,369.81Z" transform="translate(-160.24 -95.51)"/><path class="cls-4" d="M212.38,369.71l-19.51-11.26c-1.19-.69-1-1.9.34-2.7L212,344.88a5.19,5.19,0,0,1,4.67-.19L236.21,356c1.2.69,1,1.89-.33,2.69L217,369.51A5.17,5.17,0,0,1,212.38,369.71Z" transform="translate(-160.24 -95.51)"/><path class="cls-3" d="M214.24,360.28l-2.7-1.56c-.16-.09-.14-.26.05-.37l2.61-1.5a.67.67,0,0,1,.64,0l2.7,1.56c.17.09.14.26,0,.37l-2.6,1.5A.71.71,0,0,1,214.24,360.28Z" transform="translate(-160.24 -95.51)"/><path class="cls-2" d="M192.87,358.45l.06,0c.09-.06.17-.13.28-.19L212,347.42a5.19,5.19,0,0,1,4.67-.2l19.45,11.23c1.1-.79,1.16-1.87.05-2.5l-19.5-11.26a5.19,5.19,0,0,0-4.67.19l-18.83,10.87C191.83,356.55,191.68,357.76,192.87,358.45Z" transform="translate(-160.24 -95.51)"/><path class="cls-3" d="M206.74,388.38c0,.77-.54,1.08-1.21.7a2.67,2.67,0,0,1-1.21-2.09c0-.77.54-1.08,1.21-.7A2.67,2.67,0,0,1,206.74,388.38Z" transform="translate(-160.24 -95.51)"/><path class="cls-3" d="M203,386.23c0,.77-.54,1.09-1.2.7a2.65,2.65,0,0,1-1.21-2.09c0-.77.54-1.08,1.21-.7A2.68,2.68,0,0,1,203,386.23Z" transform="translate(-160.24 -95.51)"/><path class="cls-3" d="M206.74,392.9c0,.77-.54,1.08-1.21.7a2.67,2.67,0,0,1-1.21-2.09c0-.77.54-1.08,1.21-.7A2.67,2.67,0,0,1,206.74,392.9Z" transform="translate(-160.24 -95.51)"/><path class="cls-1" d="M203,390.75c0,.77-.54,1.08-1.2.7a2.65,2.65,0,0,1-1.21-2.09c0-.77.54-1.08,1.21-.7A2.68,2.68,0,0,1,203,390.75Z" transform="translate(-160.24 -95.51)"/><path class="cls-1" d="M206.74,411.36c0,.77-.54,1.08-1.21.7a2.67,2.67,0,0,1-1.21-2.09c0-.77.54-1.08,1.21-.7A2.65,2.65,0,0,1,206.74,411.36Z" transform="translate(-160.24 -95.51)"/><path class="cls-3" d="M203,409.21c0,.77-.54,1.08-1.2.7a2.65,2.65,0,0,1-1.21-2.09c0-.77.54-1.08,1.21-.7A2.68,2.68,0,0,1,203,409.21Z" transform="translate(-160.24 -95.51)"/><path class="cls-1" d="M206.74,415.88c0,.77-.54,1.08-1.21.7a2.67,2.67,0,0,1-1.21-2.09c0-.77.54-1.09,1.21-.7A2.65,2.65,0,0,1,206.74,415.88Z" transform="translate(-160.24 -95.51)"/><path class="cls-3" d="M203,413.73c0,.77-.54,1.08-1.2.7a2.67,2.67,0,0,1-1.21-2.09c0-.77.54-1.08,1.21-.7A2.68,2.68,0,0,1,203,413.73Z" transform="translate(-160.24 -95.51)"/><path class="cls-3" d="M206.74,434.34c0,.77-.54,1.08-1.21.7a2.67,2.67,0,0,1-1.21-2.09c0-.77.54-1.09,1.21-.7A2.65,2.65,0,0,1,206.74,434.34Z" transform="translate(-160.24 -95.51)"/><path class="cls-1" d="M203,432.19c0,.77-.54,1.08-1.2.7a2.67,2.67,0,0,1-1.21-2.09c0-.77.54-1.08,1.21-.7A2.68,2.68,0,0,1,203,432.19Z" transform="translate(-160.24 -95.51)"/><path class="cls-3" d="M206.74,438.86c0,.77-.54,1.08-1.21.7a2.67,2.67,0,0,1-1.21-2.09c0-.77.54-1.09,1.21-.7A2.65,2.65,0,0,1,206.74,438.86Z" transform="translate(-160.24 -95.51)"/><path class="cls-3" d="M203,436.71c0,.77-.54,1.08-1.2.7a2.67,2.67,0,0,1-1.21-2.09c0-.77.54-1.08,1.21-.7A2.68,2.68,0,0,1,203,436.71Z" transform="translate(-160.24 -95.51)"/><polygon class="cls-1" points="47.69 219.76 44.99 218.68 47.09 217.06 47.69 219.76"/><polygon class="cls-7" points="49.04 190.47 46.41 189.41 46.6 190.51 49.04 190.47"/><polygon class="cls-1" points="39.2 212.92 36.46 211.81 40.45 207.79 39.2 212.92"/><path class="cls-1" d="M205.93,314.12l10.48-6.05a1.68,1.68,0,0,0,.71-1.72l-2.51-11.89-12.4,7.16,2.51,11.88A.79.79,0,0,0,205.93,314.12Z" transform="translate(-160.24 -95.51)"/><path class="cls-1" d="M206.68,284.93l14.15,7.14c.6.3.4,1.43-.33,1.85L209,300.59l-11.55,6.67c-.73.42-1.31-.26-1-1.11l8.4-20.15C205.2,285.13,206.07,284.63,206.68,284.93Z" transform="translate(-160.24 -95.51)"/><path class="cls-3" d="M208.68,315.23l10.47-6.05a1.71,1.71,0,0,0,.72-1.72l-2.51-11.89L205,302.73l2.51,11.88A.79.79,0,0,0,208.68,315.23Z" transform="translate(-160.24 -95.51)"/><path class="cls-3" d="M209.43,286l14.15,7.14c.6.3.4,1.43-.33,1.85L211.7,301.7l-11.56,6.67c-.72.42-1.31-.26-.95-1.11l8.39-20.15C207.94,286.24,208.81,285.73,209.43,286Z" transform="translate(-160.24 -95.51)"/><polygon class="cls-1" points="120.36 178.08 117.66 176.99 119.76 175.37 120.36 178.08"/><polygon class="cls-7" points="121.71 148.78 119.09 147.72 119.27 148.82 121.71 148.78"/><polygon class="cls-1" points="111.87 171.23 109.13 170.12 113.13 166.1 111.87 171.23"/><path class="cls-1" d="M278.6,272.43l10.48-6a1.7,1.7,0,0,0,.71-1.73l-2.51-11.89-12.39,7.16,2.5,11.89A.79.79,0,0,0,278.6,272.43Z" transform="translate(-160.24 -95.51)"/><path class="cls-1" d="M279.35,243.25l14.15,7.13c.6.3.4,1.43-.33,1.85l-11.55,6.67-11.55,6.67c-.73.42-1.31-.25-.95-1.11l8.39-20.15C277.87,243.44,278.74,242.94,279.35,243.25Z" transform="translate(-160.24 -95.51)"/><path class="cls-3" d="M281.35,273.54l10.47-6.05a1.7,1.7,0,0,0,.72-1.72L290,253.88,277.63,261l2.51,11.89A.79.79,0,0,0,281.35,273.54Z" transform="translate(-160.24 -95.51)"/><path class="cls-3" d="M282.1,244.35l14.15,7.14c.6.3.4,1.43-.33,1.85L284.37,260l-11.55,6.67c-.73.42-1.31-.26-1-1.11l8.39-20.15C280.62,244.55,281.49,244.05,282.1,244.35Z" transform="translate(-160.24 -95.51)"/><path class="cls-3" d="M532.61,438.1,453.9,392.88c-6.21-3.57-17-3.1-24.19,1.05L268.29,487.58c-7.15,4.15-7.91,10.4-1.7,14l78.71,45.22c6.21,3.57,17,3.1,24.19-1L530.9,452.07C538.05,447.92,538.82,441.67,532.61,438.1Z" transform="translate(-160.24 -95.51)"/><path class="cls-8" d="M342.16,531.82l-80.6-46.31c-3.53-2-5.3-4.73-5.39-7.57h0l-.06-13.88,2.59,4.47a19.27,19.27,0,0,1,5.05-4.07l162.32-94.17c9.19-5.34,23.12-5.94,31.1-1.36l80.61,46.31a15.4,15.4,0,0,1,2.25,1.59l3.09-4,.06,13.05h0c.12,3.6-2.46,7.42-7.59,10.39L373.27,530.47C364.07,535.81,350.15,536.41,342.16,531.82Z" transform="translate(-160.24 -95.51)"/><path class="cls-3" d="M537.71,404.93l-80.6-46.31c-8-4.58-21.91-4-31.11,1.36L263.69,454.14c-9.2,5.34-10.18,13.38-2.2,18l80.6,46.31c8,4.59,21.91,4,31.11-1.35L535.51,422.9C544.71,417.56,545.69,409.52,537.71,404.93Z" transform="translate(-160.24 -95.51)"/><path class="cls-5" d="M261.49,472.11l80.6,46.31c8,4.59,21.91,4,31.11-1.35L535.51,422.9c4.46-2.59,7-5.8,7.48-9,.64,3.86-1.89,8.09-7.48,11.33L373.2,519.44c-9.2,5.34-23.12,5.94-31.11,1.36l-80.6-46.31c-4.12-2.37-5.83-5.65-5.28-9C256.62,468,258.35,470.31,261.49,472.11Z" transform="translate(-160.24 -95.51)"/><path class="cls-5" d="M532.61,406.8,453.9,361.57c-6.21-3.56-17-3.09-24.19,1.06L268.29,456.28c-7.15,4.14-7.91,10.4-1.7,14l78.71,45.23c6.21,3.56,17,3.09,24.19-1.06L530.9,420.77C538.05,416.62,538.82,410.36,532.61,406.8Z" transform="translate(-160.24 -95.51)"/><path class="cls-3" d="M243.08,210.71c0,.77.54,1.08,1.21.7a2.67,2.67,0,0,0,1.21-2.09c0-.77-.54-1.09-1.21-.7A2.65,2.65,0,0,0,243.08,210.71Z" transform="translate(-160.24 -95.51)"/><path class="cls-3" d="M226.4,219.72c0,.77.54,1.08,1.21.7a2.68,2.68,0,0,0,1.2-2.09c0-.77-.54-1.08-1.2-.7A2.65,2.65,0,0,0,226.4,219.72Z" transform="translate(-160.24 -95.51)"/><path class="cls-3" d="M405.8,423.25l29.14-16.82c1.08-.63.94-1.72-.3-2.44h0a4.68,4.68,0,0,0-4.22-.17l-29.14,16.82c-1.08.63-.94,1.71.31,2.44h0A4.69,4.69,0,0,0,405.8,423.25Z" transform="translate(-160.24 -95.51)"/><path class="cls-3" d="M433.42,417.55l10.39-6c1.08-.62.95-1.71-.3-2.43h0a4.69,4.69,0,0,0-4.21-.18l-10.4,6c-1.08.63-.94,1.72.31,2.44h0A4.65,4.65,0,0,0,433.42,417.55Z" transform="translate(-160.24 -95.51)"/><path class="cls-1" d="M416,427.62l10.39-6c1.08-.62.95-1.71-.3-2.43h0a4.71,4.71,0,0,0-4.22-.18l-10.39,6c-1.08.63-.95,1.72.3,2.44h0A4.68,4.68,0,0,0,416,427.62Z" transform="translate(-160.24 -95.51)"/><path class="cls-3" d="M380.71,448l28.22-16.3c1.08-.62.94-1.71-.31-2.43h0a4.69,4.69,0,0,0-4.21-.18l-28.22,16.3c-1.08.62-.95,1.71.3,2.43h0A4.71,4.71,0,0,0,380.71,448Z" transform="translate(-160.24 -95.51)"/><path class="cls-3" d="M416.28,437.69l36.41-21c1.08-.62.94-1.71-.3-2.43h0a4.68,4.68,0,0,0-4.22-.17l-36.41,21c-1.08.62-.94,1.71.31,2.43h0A4.65,4.65,0,0,0,416.28,437.69Z" transform="translate(-160.24 -95.51)"/><path class="cls-1" d="M372.5,473.22l89.06-51.42c1.08-.63.95-1.72-.3-2.44h0a4.69,4.69,0,0,0-4.21-.17L368,470.62c-1.08.62-.94,1.71.3,2.43h0A4.68,4.68,0,0,0,372.5,473.22Z" transform="translate(-160.24 -95.51)"/><path class="cls-3" d="M346.51,457.48l51.25-29.59c1.08-.62.94-1.71-.3-2.43h0a4.68,4.68,0,0,0-4.22-.17L342,454.87c-1.08.63-.94,1.72.3,2.44h0A4.68,4.68,0,0,0,346.51,457.48Z" transform="translate(-160.24 -95.51)"/><path class="cls-3" d="M434.85,505.8l7.5-4.33a3.24,3.24,0,0,0,1.35-2.58h0c0-1-.61-1.45-1.35-1l-7.5,4.32a3.27,3.27,0,0,0-1.35,2.58h0C433.5,505.77,434.11,506.23,434.85,505.8Z" transform="translate(-160.24 -95.51)"/><path class="cls-3" d="M423.06,512.62l7.49-4.32a3.21,3.21,0,0,0,1.35-2.58h0c0-1-.6-1.45-1.35-1L423.06,509a3.23,3.23,0,0,0-1.35,2.58h0C421.71,512.6,422.31,513.06,423.06,512.62Z" transform="translate(-160.24 -95.51)"/><path class="cls-3" d="M274,487.22a5.41,5.41,0,0,0,2.46,4.25c1.35.79,2.45.15,2.45-1.41a5.42,5.42,0,0,0-2.45-4.25C275.09,485,274,485.66,274,487.22Z" transform="translate(-160.24 -95.51)"/><path class="cls-2" d="M337.37,283.27l-2.7-1.56c-.17-.1-.15-.26,0-.37l2.61-1.51a.71.71,0,0,1,.65,0l2.69,1.55c.17.1.15.27,0,.38l-2.61,1.5A.73.73,0,0,1,337.37,283.27Z" transform="translate(-160.24 -95.51)"/><path class="cls-2" d="M343.59,286.86l-2.7-1.56c-.17-.09-.15-.26,0-.37l2.61-1.51a.71.71,0,0,1,.65,0l2.69,1.56c.17.09.15.26,0,.37l-2.61,1.5A.73.73,0,0,1,343.59,286.86Z" transform="translate(-160.24 -95.51)"/><path class="cls-2" d="M349.81,290.45l-2.7-1.56c-.17-.09-.15-.26,0-.37l2.61-1.51a.71.71,0,0,1,.65,0l2.69,1.56c.17.09.15.26,0,.37l-2.61,1.5A.69.69,0,0,1,349.81,290.45Z" transform="translate(-160.24 -95.51)"/><path class="cls-2" d="M373,261.91l-2.7-1.55c-.16-.1-.14-.27.05-.38l2.6-1.5a.75.75,0,0,1,.65,0l2.7,1.56c.16.1.14.26-.05.37l-2.61,1.51A.69.69,0,0,1,373,261.91Z" transform="translate(-160.24 -95.51)"/><path class="cls-2" d="M379.22,265.5l-2.7-1.55c-.17-.1-.14-.27.05-.38l2.6-1.5a.75.75,0,0,1,.65,0l2.7,1.56c.16.1.14.26,0,.37l-2.61,1.51A.69.69,0,0,1,379.22,265.5Z" transform="translate(-160.24 -95.51)"/><path class="cls-2" d="M385.44,269.1l-2.7-1.56c-.17-.1-.15-.26.05-.37l2.6-1.51a.75.75,0,0,1,.65,0l2.7,1.56c.16.1.14.26-.05.37l-2.61,1.51A.73.73,0,0,1,385.44,269.1Z" transform="translate(-160.24 -95.51)"/></svg>