<svg xmlns="http://www.w3.org/2000/svg" xmlns:xlink="http://www.w3.org/1999/xlink" viewBox="0 0 421.67 283.87"><defs><style>.cls-1{isolation:isolate;}.cls-2{fill:#ebeff2;}.cls-25,.cls-3{fill:#d8dee8;}.cls-25,.cls-4,.cls-51{opacity:0.3;}.cls-25,.cls-4,.cls-51,.cls-59,.cls-83{mix-blend-mode:multiply;}.cls-4{fill:url(#linear-gradient);}.cls-5{opacity:0.24;fill:url(#linear-gradient-2);}.cls-6{fill:url(#linear-gradient-3);}.cls-7{fill:url(#linear-gradient-4);}.cls-24,.cls-27,.cls-28,.cls-49,.cls-53,.cls-8{fill:#fff;}.cls-8{opacity:0.74;}.cls-9{fill:url(#linear-gradient-5);}.cls-10{fill:url(#linear-gradient-6);}.cls-11{fill:url(#linear-gradient-7);}.cls-12{fill:url(#linear-gradient-8);}.cls-13,.cls-14,.cls-16,.cls-17{opacity:0.25;}.cls-13{fill:url(#linear-gradient-9);}.cls-14{fill:url(#linear-gradient-10);}.cls-15{fill:url(#linear-gradient-11);}.cls-16{fill:url(#linear-gradient-12);}.cls-17{fill:url(#linear-gradient-13);}.cls-18{fill:url(#linear-gradient-14);}.cls-19{fill:url(#linear-gradient-15);}.cls-20{fill:url(#linear-gradient-16);}.cls-21{fill:url(#linear-gradient-17);}.cls-22{fill:#97a6b7;}.cls-23{fill:url(#linear-gradient-18);}.cls-26{fill:url(#linear-gradient-19);}.cls-27{opacity:0.6;}.cls-27,.cls-28,.cls-49,.cls-95{mix-blend-mode:soft-light;}.cls-28{opacity:0.36;}.cls-29{fill:url(#linear-gradient-20);}.cls-30,.cls-31,.cls-32,.cls-34,.cls-35,.cls-36,.cls-37,.cls-39,.cls-40,.cls-41,.cls-42,.cls-43,.cls-45,.cls-46,.cls-47{opacity:0.5;}.cls-30{fill:url(#linear-gradient-21);}.cls-31{fill:url(#linear-gradient-22);}.cls-32{fill:url(#linear-gradient-23);}.cls-33{fill:url(#linear-gradient-24);}.cls-34{fill:url(#linear-gradient-25);}.cls-35{fill:url(#linear-gradient-26);}.cls-36{fill:url(#linear-gradient-27);}.cls-37{fill:url(#linear-gradient-28);}.cls-38{fill:url(#linear-gradient-29);}.cls-39{fill:url(#linear-gradient-30);}.cls-40{fill:url(#linear-gradient-31);}.cls-41{fill:url(#linear-gradient-32);}.cls-42{fill:url(#linear-gradient-33);}.cls-43{fill:url(#linear-gradient-34);}.cls-44{fill:url(#linear-gradient-35);}.cls-45{fill:url(#linear-gradient-36);}.cls-46{fill:url(#linear-gradient-37);}.cls-47{fill:url(#linear-gradient-38);}.cls-48{fill:url(#linear-gradient-39);}.cls-50{fill:url(#linear-gradient-40);}.cls-52{fill:url(#linear-gradient-41);}.cls-53{opacity:0.68;}.cls-54{fill:url(#linear-gradient-42);}.cls-55,.cls-59{opacity:0.69;}.cls-55{fill:url(#linear-gradient-43);}.cls-56{fill:url(#linear-gradient-44);}.cls-57{fill:url(#linear-gradient-45);}.cls-58{fill:url(#linear-gradient-46);}.cls-59{fill:url(#linear-gradient-47);}.cls-60{fill:#999;}.cls-61{fill:#c2c2c2;}.cls-62{opacity:0.57;fill:url(#linear-gradient-48);}.cls-63,.cls-64,.cls-65,.cls-66,.cls-67{opacity:0.7;}.cls-63{fill:url(#linear-gradient-49);}.cls-64{fill:url(#linear-gradient-50);}.cls-65{fill:url(#linear-gradient-51);}.cls-66{fill:url(#linear-gradient-52);}.cls-67{fill:url(#linear-gradient-53);}.cls-68{fill:url(#linear-gradient-54);}.cls-69{fill:url(#linear-gradient-55);}.cls-70{fill:url(#linear-gradient-56);}.cls-71{fill:url(#linear-gradient-57);}.cls-72{fill:url(#linear-gradient-58);}.cls-73{fill:url(#linear-gradient-59);}.cls-74{fill:url(#linear-gradient-60);}.cls-75{fill:url(#linear-gradient-61);}.cls-76{fill:url(#linear-gradient-62);}.cls-77{fill:url(#linear-gradient-63);}.cls-78{fill:url(#linear-gradient-64);}.cls-79{fill:#26264f;}.cls-80{fill:url(#linear-gradient-65);}.cls-81{fill:#9b305e;}.cls-82{fill:url(#linear-gradient-66);}.cls-83{fill:url(#linear-gradient-67);}.cls-84{fill:url(#linear-gradient-68);}.cls-85{fill:url(#linear-gradient-69);}.cls-86{fill:url(#linear-gradient-70);}.cls-87{fill:url(#linear-gradient-71);}.cls-88{fill:url(#linear-gradient-72);}.cls-89{fill:url(#linear-gradient-73);}.cls-90{fill:url(#linear-gradient-74);}.cls-91{fill:url(#linear-gradient-75);}.cls-92{fill:url(#linear-gradient-76);}.cls-93{fill:url(#linear-gradient-77);}.cls-94{fill:url(#linear-gradient-78);}.cls-95{opacity:0.49;}.cls-96{fill:url(#linear-gradient-79);}.cls-97{fill:url(#linear-gradient-80);}.cls-98{fill:url(#linear-gradient-81);}</style><linearGradient id="linear-gradient" x1="242.14" y1="109.12" x2="86.51" y2="298.59" gradientUnits="userSpaceOnUse"><stop offset="0" stop-color="#ff9085"/><stop offset="1" stop-color="#fb6fbb"/></linearGradient><linearGradient id="linear-gradient-2" x1="164.93" y1="73.38" x2="47.16" y2="216.75" gradientUnits="userSpaceOnUse"><stop offset="0" stop-color="#aa80f9"/><stop offset="1" stop-color="#6165d7"/></linearGradient><linearGradient id="linear-gradient-3" x1="134.31" y1="236.38" x2="74.33" y2="200.04" xlink:href="#linear-gradient"/><linearGradient id="linear-gradient-4" x1="155.54" y1="142.18" x2="140.04" y2="232.3" xlink:href="#linear-gradient"/><linearGradient id="linear-gradient-5" x1="108.23" y1="122.56" x2="128.32" y2="224.66" gradientUnits="userSpaceOnUse"><stop offset="0" stop-color="#ffc444"/><stop offset="1" stop-color="#f36f56"/></linearGradient><linearGradient id="linear-gradient-6" x1="171.77" y1="113.4" x2="191.42" y2="213.23" xlink:href="#linear-gradient-5"/><linearGradient id="linear-gradient-7" x1="119.89" y1="121.2" x2="139.51" y2="220.89" xlink:href="#linear-gradient-5"/><linearGradient id="linear-gradient-8" x1="102.26" y1="122.76" x2="122.57" y2="225.93" xlink:href="#linear-gradient-5"/><linearGradient id="linear-gradient-9" x1="175.74" y1="113.27" x2="195.13" y2="211.81" xlink:href="#linear-gradient-5"/><linearGradient id="linear-gradient-10" x1="164.45" y1="115.74" x2="183.73" y2="213.73" xlink:href="#linear-gradient-5"/><linearGradient id="linear-gradient-11" x1="178.09" y1="113.02" x2="197.51" y2="211.72" xlink:href="#linear-gradient-5"/><linearGradient id="linear-gradient-12" x1="123.12" y1="120.1" x2="143.14" y2="221.83" xlink:href="#linear-gradient-5"/><linearGradient id="linear-gradient-13" x1="145.21" y1="118.98" x2="164.58" y2="217.43" xlink:href="#linear-gradient-5"/><linearGradient id="linear-gradient-14" x1="138.61" y1="118.33" x2="157.96" y2="216.64" xlink:href="#linear-gradient-5"/><linearGradient id="linear-gradient-15" x1="106.95" y1="122.32" x2="127.23" y2="225.38" xlink:href="#linear-gradient-5"/><linearGradient id="linear-gradient-16" x1="158.07" y1="114.58" x2="178.54" y2="218.59" xlink:href="#linear-gradient-5"/><linearGradient id="linear-gradient-17" x1="95.17" y1="183.46" x2="87.71" y2="226.84" xlink:href="#linear-gradient-5"/><linearGradient id="linear-gradient-18" x1="285.03" y1="329.01" x2="285.03" y2="355.77" gradientUnits="userSpaceOnUse"><stop offset="0.49" stop-color="#ebeff2"/><stop offset="1" stop-color="#fff"/></linearGradient><linearGradient id="linear-gradient-19" x1="211.69" y1="135.27" x2="325.44" y2="343.89" gradientUnits="userSpaceOnUse"><stop offset="0" stop-color="#444b8c"/><stop offset="1" stop-color="#26264f"/></linearGradient><linearGradient id="linear-gradient-20" x1="220.73" y1="28.12" x2="241.15" y2="152.58" gradientUnits="userSpaceOnUse"><stop offset="0" stop-color="#e38ddd"/><stop offset="1" stop-color="#9571f6"/></linearGradient><linearGradient id="linear-gradient-21" x1="210.11" y1="64.39" x2="257.99" y2="64.39" xlink:href="#linear-gradient"/><linearGradient id="linear-gradient-22" x1="210.11" y1="69.1" x2="257.99" y2="69.1" xlink:href="#linear-gradient"/><linearGradient id="linear-gradient-23" x1="201.7" y1="83.04" x2="235.72" y2="83.04" xlink:href="#linear-gradient"/><linearGradient id="linear-gradient-24" x1="221.17" y1="28.2" x2="239.85" y2="142.07" xlink:href="#linear-gradient-20"/><linearGradient id="linear-gradient-25" x1="190.57" y1="54.14" x2="224.57" y2="54.14" xlink:href="#linear-gradient"/><linearGradient id="linear-gradient-26" x1="210.11" y1="158.72" x2="257.99" y2="158.72" xlink:href="#linear-gradient"/><linearGradient id="linear-gradient-27" x1="210.11" y1="163.44" x2="257.99" y2="163.44" xlink:href="#linear-gradient"/><linearGradient id="linear-gradient-28" x1="231.98" y1="167.34" x2="278.62" y2="167.34" xlink:href="#linear-gradient"/><linearGradient id="linear-gradient-29" x1="235.68" y1="52.43" x2="250.28" y2="141.38" xlink:href="#linear-gradient-20"/><linearGradient id="linear-gradient-30" x1="190.57" y1="149.99" x2="224.57" y2="149.99" xlink:href="#linear-gradient"/><linearGradient id="linear-gradient-31" x1="201.7" y1="102.08" x2="250.06" y2="102.08" xlink:href="#linear-gradient"/><linearGradient id="linear-gradient-32" x1="210.11" y1="111.58" x2="257.99" y2="111.58" xlink:href="#linear-gradient"/><linearGradient id="linear-gradient-33" x1="210.11" y1="116.3" x2="257.99" y2="116.3" xlink:href="#linear-gradient"/><linearGradient id="linear-gradient-34" x1="190.66" y1="121.26" x2="221.34" y2="121.26" xlink:href="#linear-gradient"/><linearGradient id="linear-gradient-35" x1="216.21" y1="35.74" x2="233.17" y2="139.11" xlink:href="#linear-gradient-20"/><linearGradient id="linear-gradient-36" x1="210.11" y1="135.19" x2="253.39" y2="135.19" xlink:href="#linear-gradient"/><linearGradient id="linear-gradient-37" x1="220.22" y1="139.71" x2="262.98" y2="139.71" xlink:href="#linear-gradient"/><linearGradient id="linear-gradient-38" x1="220.22" y1="144.4" x2="262.98" y2="144.4" xlink:href="#linear-gradient"/><linearGradient id="linear-gradient-39" x1="196.74" y1="31.29" x2="215.54" y2="145.84" xlink:href="#linear-gradient-20"/><linearGradient id="linear-gradient-40" x1="286.37" y1="171.06" x2="394.31" y2="369.03" xlink:href="#linear-gradient-5"/><linearGradient id="linear-gradient-41" x1="269.55" y1="245.06" x2="394.72" y2="245.06" xlink:href="#linear-gradient-5"/><linearGradient id="linear-gradient-42" x1="295.05" y1="230.95" x2="320.45" y2="295.16" xlink:href="#linear-gradient"/><linearGradient id="linear-gradient-43" x1="311.64" y1="118.46" x2="254.2" y2="208.35" xlink:href="#linear-gradient-2"/><linearGradient id="linear-gradient-44" x1="308.59" y1="163.08" x2="278.54" y2="210.1" xlink:href="#linear-gradient-19"/><linearGradient id="linear-gradient-45" x1="363.87" y1="244.88" x2="326.98" y2="315.86" xlink:href="#linear-gradient-19"/><linearGradient id="linear-gradient-46" x1="278.26" y1="146.54" x2="277.33" y2="237.3" xlink:href="#linear-gradient-2"/><linearGradient id="linear-gradient-47" x1="352.28" y1="261.84" x2="309.07" y2="329.46" xlink:href="#linear-gradient-2"/><linearGradient id="linear-gradient-48" x1="163.18" y1="216.56" x2="221.96" y2="216.56" xlink:href="#linear-gradient-5"/><linearGradient id="linear-gradient-49" x1="196.23" y1="202.29" x2="182.3" y2="245.63" xlink:href="#linear-gradient"/><linearGradient id="linear-gradient-50" x1="199.67" y1="203.12" x2="185.52" y2="247.17" xlink:href="#linear-gradient"/><linearGradient id="linear-gradient-51" x1="205.61" y1="204.77" x2="191.29" y2="249.32" xlink:href="#linear-gradient"/><linearGradient id="linear-gradient-52" x1="209.42" y1="205.78" x2="194.87" y2="251.04" xlink:href="#linear-gradient"/><linearGradient id="linear-gradient-53" x1="215.77" y1="207.55" x2="201.06" y2="253.31" xlink:href="#linear-gradient"/><linearGradient id="linear-gradient-54" x1="-1619.44" y1="224.45" x2="-1612.9" y2="232.69" gradientTransform="matrix(-1, 0, 0, 1, -1432.28, 0)" xlink:href="#linear-gradient-5"/><linearGradient id="linear-gradient-55" x1="-1590.75" y1="237.3" x2="-1586.29" y2="219.47" gradientTransform="matrix(-1, 0, 0, 1, -1432.28, 0)" xlink:href="#linear-gradient-5"/><linearGradient id="linear-gradient-56" x1="-1719.56" y1="72.08" x2="-1717.45" y2="73.96" gradientTransform="matrix(-0.99, -0.14, -0.14, 0.99, -1538.41, -33.49)" xlink:href="#linear-gradient-19"/><linearGradient id="linear-gradient-57" x1="-2642.79" y1="73.94" x2="-2642.79" y2="70.26" gradientTransform="matrix(-0.99, -0.14, -0.14, 0.99, -2454.61, -163.01)" xlink:href="#linear-gradient-5"/><linearGradient id="linear-gradient-58" x1="-1719.35" y1="71.84" x2="-1717.24" y2="73.72" gradientTransform="matrix(-0.99, -0.14, -0.14, 0.99, -1538.41, -33.49)" xlink:href="#linear-gradient-19"/><linearGradient id="linear-gradient-59" x1="-1601.46" y1="279.79" x2="-1599.35" y2="281.67" gradientTransform="matrix(-1, 0, 0, 1, -1432.28, 0)" xlink:href="#linear-gradient-19"/><linearGradient id="linear-gradient-60" x1="-2524.74" y1="281.68" x2="-2524.74" y2="277.99" gradientTransform="matrix(-1, 0, 0, 1, -2357.59, 0)" xlink:href="#linear-gradient-5"/><linearGradient id="linear-gradient-61" x1="176.24" y1="262.18" x2="148.69" y2="255.39" xlink:href="#linear-gradient"/><linearGradient id="linear-gradient-62" x1="-1580.98" y1="240.29" x2="-1610.59" y2="219.7" gradientTransform="matrix(-1, 0, 0, 1, -1432.28, 0)" xlink:href="#linear-gradient-5"/><linearGradient id="linear-gradient-63" x1="-1601.25" y1="279.55" x2="-1599.14" y2="281.43" gradientTransform="matrix(-1, 0, 0, 1, -1432.28, 0)" xlink:href="#linear-gradient-19"/><linearGradient id="linear-gradient-64" x1="161.63" y1="219.62" x2="166.03" y2="211.03" xlink:href="#linear-gradient-5"/><linearGradient id="linear-gradient-65" x1="-1598.9" y1="212.29" x2="-1587.45" y2="226.7" gradientTransform="matrix(-1, 0, 0, 1, -1432.28, 0)" xlink:href="#linear-gradient-5"/><linearGradient id="linear-gradient-66" x1="-1581.29" y1="243.78" x2="-1614.62" y2="220.6" gradientTransform="matrix(-1, 0, 0, 1, -1432.28, 0)" xlink:href="#linear-gradient-5"/><linearGradient id="linear-gradient-67" x1="214.07" y1="325.12" x2="198.63" y2="402.34" xlink:href="#linear-gradient-2"/><linearGradient id="linear-gradient-68" x1="183.51" y1="327.65" x2="238.79" y2="327.65" gradientUnits="userSpaceOnUse"><stop offset="0" stop-color="#d8dee8"/><stop offset="0.49" stop-color="#ebeff2"/><stop offset="1" stop-color="#fff"/></linearGradient><linearGradient id="linear-gradient-69" x1="185.8" y1="312.91" x2="198.06" y2="312.91" gradientUnits="userSpaceOnUse"><stop offset="0" stop-color="#311944"/><stop offset="1" stop-color="#893976"/></linearGradient><linearGradient id="linear-gradient-70" x1="236.72" y1="305.57" x2="225.26" y2="309.9" xlink:href="#linear-gradient-69"/><linearGradient id="linear-gradient-71" x1="183.64" y1="328.17" x2="194.68" y2="322.84" xlink:href="#linear-gradient-69"/><linearGradient id="linear-gradient-72" x1="191.45" y1="344.3" x2="197.28" y2="333.52" xlink:href="#linear-gradient-69"/><linearGradient id="linear-gradient-73" x1="794.48" y1="939.75" x2="783.9" y2="933.57" gradientTransform="matrix(0.85, -0.53, 0.53, 0.85, -929.37, -64.15)" xlink:href="#linear-gradient-69"/><linearGradient id="linear-gradient-74" x1="235.81" y1="339.19" x2="226.7" y2="330.99" xlink:href="#linear-gradient-69"/><linearGradient id="linear-gradient-75" x1="212.31" y1="308.99" x2="211.95" y2="345.06" xlink:href="#linear-gradient-69"/><linearGradient id="linear-gradient-76" x1="218.01" y1="284.13" x2="215.11" y2="297.91" xlink:href="#linear-gradient-5"/><linearGradient id="linear-gradient-77" x1="209.39" y1="324.23" x2="229.69" y2="333.66" xlink:href="#linear-gradient-5"/><linearGradient id="linear-gradient-78" x1="202.11" y1="308.88" x2="201.75" y2="344.95" xlink:href="#linear-gradient-5"/><linearGradient id="linear-gradient-79" x1="225.66" y1="305.93" x2="226.37" y2="241.56" xlink:href="#linear-gradient-5"/><linearGradient id="linear-gradient-80" x1="197.51" y1="305.62" x2="198.22" y2="241.25" xlink:href="#linear-gradient-5"/><linearGradient id="linear-gradient-81" x1="183.51" y1="327.72" x2="238.79" y2="327.72" xlink:href="#linear-gradient-68"/></defs><g class="cls-1"><g id="Layer_1" data-name="Layer 1"><path class="cls-2" d="M253.57,346.57c-31,1-53.28,3.64-81.67,7.1C148,356.59,63.69,366.85,64.05,375.86c.29,7.53,59.5,9.73,59.47,17.76,0,4.24-16.57,5.94-16.42,8.87.24,4.9,46.78,9.63,104.31,6.66,56.74-2.93,67.46-10.42,133.15-18.2,84.73-10,128.07-4.82,128.72-11.54.82-8.48-67.63-23.75-124.28-29.74A716.37,716.37,0,0,0,253.57,346.57Z" transform="translate(-51.62 -126.2)"/><path class="cls-3" d="M255.79,351c-6.89,1-17.33,3-34.62,4.66-7.59.74-25.38,2.28-43.94,4-13.12,1.21-20.39,1.93-20.42,3.11,0,2,21.34,3.26,21.31,4.88-.06,3.26-85.93.52-86.78,8.66-.42,4,20,10,36.18,12.65,25.26,4.18,44.71,1.17,76.34-4,59.11-9.67,57.39-9.86,72.13-12,61.05-8.82,90.3-5.52,90.54-9.32C366.89,358.05,303.77,344.08,255.79,351Z" transform="translate(-51.62 -126.2)"/><path class="cls-3" d="M166.8,394.06c-1.38-5.24-36.76-3.27-37.51,2-.42,3,10.11,8.71,20.64,7.54C158.71,402.63,167.54,396.87,166.8,394.06Z" transform="translate(-51.62 -126.2)"/><path class="cls-3" d="M325,377.64c-12.88-3.74-28.53-.25-28.63,3.1-.08,2.95,11.81,6.51,22.2,5.55,5.7-.52,13.08-2.6,13.09-4.88C331.7,379.57,326.89,378.18,325,377.64Z" transform="translate(-51.62 -126.2)"/><path class="cls-3" d="M383,374.75c-13.68-1.1-28.46,2.08-28.41,4.66s15.6,5,29.07,4c6.05-.46,16.16-1.93,16.2-4S390.37,375.35,383,374.75Z" transform="translate(-51.62 -126.2)"/><polygon class="cls-4" points="320.03 191.25 22.93 209.18 51.46 164.3 337.6 156.25 320.03 191.25"/><polygon class="cls-5" points="213.83 146.18 0 149.87 30.38 104.84 235.78 107.9 213.83 146.18"/><path class="cls-6" d="M131.7,222.75l-1.82,0a13.46,13.46,0,0,0-.64-2.38l1.57-.89a.89.89,0,0,0,.33-1.22l-1.55-2.7a.91.91,0,0,0-1.23-.35l-1.59.9a14.54,14.54,0,0,0-1.75-1.76l.93-1.58a.9.9,0,0,0-.33-1.23l-2.71-1.6a.9.9,0,0,0-1.23.31l-.93,1.59a15,15,0,0,0-2.4-.67v-1.86a.92.92,0,0,0-.92-.91l-3.15-.06a.89.89,0,0,0-.92.89v1.87a15,15,0,0,0-2.42.59l-.94-1.62a.92.92,0,0,0-1.25-.35L106,211.22a.89.89,0,0,0-.34,1.24l.94,1.63a14.61,14.61,0,0,0-1.79,1.73l-1.63-.95a.92.92,0,0,0-1.27.32l-1.61,2.71a.92.92,0,0,0,.34,1.25l1.63.93a13.93,13.93,0,0,0-.66,2.42l-1.88,0a.92.92,0,0,0-.93.91v3.15a.93.93,0,0,0,.93.92h1.86a14,14,0,0,0,.66,2.43l-1.61.91a.9.9,0,0,0-.34,1.24l1.61,2.73a.94.94,0,0,0,1.27.34l1.59-.9a14.42,14.42,0,0,0,1.8,1.78l-.91,1.56a.89.89,0,0,0,.34,1.24l2.76,1.57A.92.92,0,0,0,110,240l.9-1.54a14.82,14.82,0,0,0,2.46.64v1.79a.91.91,0,0,0,.92.9h3.15a.92.92,0,0,0,.92-.91v-1.77a15,15,0,0,0,2.43-.65l.9,1.53a.9.9,0,0,0,1.23.33l2.71-1.56a.9.9,0,0,0,.33-1.23l-.89-1.54a14.63,14.63,0,0,0,1.76-1.76l1.54.89a.9.9,0,0,0,1.23-.32l1.55-2.68a.9.9,0,0,0-.33-1.23l-1.54-.9a14.21,14.21,0,0,0,.63-2.39h1.8a.88.88,0,0,0,.89-.89v-3.09A.9.9,0,0,0,131.7,222.75ZM115.86,216a9.25,9.25,0,0,1,9.17,9.2,9.1,9.1,0,0,1-9.17,9.06,9.24,9.24,0,0,1-9.27-9.19A9.1,9.1,0,0,1,115.86,216Z" transform="translate(-51.62 -126.2)"/><path class="cls-7" d="M176.43,165.83l-2.85-.08a21.85,21.85,0,0,0-1-3.69l2.48-1.31a1.34,1.34,0,0,0,.51-1.87l-2.44-4.19a1.47,1.47,0,0,0-1.94-.57l-2.51,1.32a23.29,23.29,0,0,0-2.77-2.76l1.46-2.4a1.39,1.39,0,0,0-.52-1.91l-4.28-2.55a1.43,1.43,0,0,0-2,.43l-1.48,2.41a23.9,23.9,0,0,0-3.81-1.11v-2.87a1.49,1.49,0,0,0-1.44-1.45l-5-.2a1.36,1.36,0,0,0-1.46,1.34v2.88a23.21,23.21,0,0,0-3.86.83L142,145.54a1.54,1.54,0,0,0-2-.59l-4.41,2.26a1.33,1.33,0,0,0-.54,1.9l1.51,2.55a21.61,21.61,0,0,0-2.87,2.62l-2.62-1.53a1.52,1.52,0,0,0-2,.45l-2.58,4.14a1.4,1.4,0,0,0,.55,1.95l2.61,1.51a21,21,0,0,0-1.06,3.71l-3-.08a1.42,1.42,0,0,0-1.5,1.38v4.89a1.5,1.5,0,0,0,1.5,1.45l3,.07a21.24,21.24,0,0,0,1,3.79L127,177.37a1.35,1.35,0,0,0-.55,1.92l2.58,4.27a1.55,1.55,0,0,0,2,.55l2.55-1.35a22.52,22.52,0,0,0,2.89,2.8L135.06,188a1.38,1.38,0,0,0,.54,1.93l4.41,2.49a1.51,1.51,0,0,0,2-.49l1.44-2.37a23.44,23.44,0,0,0,3.93,1.05v2.75a1.45,1.45,0,0,0,1.46,1.42l5,.05a1.4,1.4,0,0,0,1.44-1.38v-2.74a22.43,22.43,0,0,0,3.88-.94l1.41,2.38a1.48,1.48,0,0,0,2,.53l4.28-2.34a1.34,1.34,0,0,0,.52-1.88L166,186a22,22,0,0,0,2.79-2.66l2.44,1.41a1.43,1.43,0,0,0,1.94-.48l2.44-4.07a1.38,1.38,0,0,0-.51-1.89l-2.45-1.42a20.28,20.28,0,0,0,1-3.65l2.83.06a1.35,1.35,0,0,0,1.41-1.34v-4.74A1.43,1.43,0,0,0,176.43,165.83Zm-25.07-10.91c8.07.27,14.55,6.74,14.55,14.45s-6.48,13.86-14.55,13.72-14.8-6.61-14.8-14.46S143.22,154.65,151.36,154.92Z" transform="translate(-51.62 -126.2)"/><path class="cls-8" d="M151.36,126.26c-24.91-1.24-45.64,17.34-45.64,41.53s20.73,43.82,45.64,43.83c24.22,0,43.37-18.6,43.37-41.58S175.58,127.47,151.36,126.26Zm0,75.16c-18.89-.13-34.51-15.06-34.51-33.35s15.62-32.43,34.51-31.6c18.49.81,33.19,15.72,33.19,33.31S169.85,201.54,151.36,201.42Z" transform="translate(-51.62 -126.2)"/><path class="cls-9" d="M121.09,183.94,111.51,189A45.25,45.25,0,0,0,127,204.74l5.46-8.92A34.58,34.58,0,0,1,121.09,183.94Z" transform="translate(-51.62 -126.2)"/><path class="cls-10" d="M178.66,151.33l8.91-4.7A45.5,45.5,0,0,0,173.24,133l-5.2,8.52A34.67,34.67,0,0,1,178.66,151.33Z" transform="translate(-51.62 -126.2)"/><path class="cls-11" d="M123.17,149.34a32.52,32.52,0,0,1,11.19-9.27l-5.45-9.18a42.56,42.56,0,0,0-15.33,12.87Z" transform="translate(-51.62 -126.2)"/><path class="cls-12" d="M116.85,168.07c0-.39,0-.78,0-1.16l-11.14-.29c0,.39,0,.78,0,1.17a41.75,41.75,0,0,0,4.81,19.44l9.63-5.07A31.75,31.75,0,0,1,116.85,168.07Z" transform="translate(-51.62 -126.2)"/><path class="cls-13" d="M184.55,169.78a30.73,30.73,0,0,1-3.07,13.44l8.88,5.16A40.39,40.39,0,0,0,194.73,170c0-.38,0-.75,0-1.12l-10.18-.26C184.54,169,184.55,169.4,184.55,169.78Z" transform="translate(-51.62 -126.2)"/><path class="cls-14" d="M180.61,184.91a32,32,0,0,1-10.74,11.27l5.2,8.78a42,42,0,0,0,14.4-14.91Z" transform="translate(-51.62 -126.2)"/><path class="cls-15" d="M179.74,153a32.08,32.08,0,0,1,4.66,13.8l10.22.27a42.1,42.1,0,0,0-6-18.76Z" transform="translate(-51.62 -126.2)"/><path class="cls-16" d="M150.35,201.39a35.59,35.59,0,0,1-16.16-4.53l-5.44,8.91a46.52,46.52,0,0,0,21.6,5.84Z" transform="translate(-51.62 -126.2)"/><path class="cls-17" d="M168.19,197.17a34,34,0,0,1-15.82,4.23v10.21a44.7,44.7,0,0,0,21-5.66Z" transform="translate(-51.62 -126.2)"/><path class="cls-18" d="M136.17,139.23a34.2,34.2,0,0,1,14.18-2.78V126.22A45.19,45.19,0,0,0,130.73,130Z" transform="translate(-51.62 -126.2)"/><path class="cls-19" d="M117,164.94a30.74,30.74,0,0,1,5-14l-9.59-5.56a40.4,40.4,0,0,0-6.6,19.26Z" transform="translate(-51.62 -126.2)"/><path class="cls-20" d="M152.37,136.54a35.32,35.32,0,0,1,13.92,4l5.22-8.54a46.75,46.75,0,0,0-19.14-5.63Z" transform="translate(-51.62 -126.2)"/><path class="cls-21" d="M105.2,194.41h-1.39a10.16,10.16,0,0,0-.49-1.76l1.21-.68a.66.66,0,0,0,.25-.91l-1.19-2a.7.7,0,0,0-1-.24l-1.22.68a11.58,11.58,0,0,0-1.34-1.28l.71-1.18a.65.65,0,0,0-.26-.91L98.46,185a.7.7,0,0,0-.95.24l-.71,1.19A11.26,11.26,0,0,0,95,186v-1.38a.68.68,0,0,0-.7-.66H91.85a.68.68,0,0,0-.7.67V186a11.15,11.15,0,0,0-1.85.48l-.72-1.19a.72.72,0,0,0-1-.24l-2.11,1.16a.66.66,0,0,0-.26.92l.72,1.19a11.16,11.16,0,0,0-1.36,1.3l-1.25-.68a.74.74,0,0,0-1,.25l-1.22,2a.64.64,0,0,0,.26.91l1.24.68a9.67,9.67,0,0,0-.5,1.79H80.73a.69.69,0,0,0-.71.68v2.32a.68.68,0,0,0,.71.67h1.42a11,11,0,0,0,.5,1.79l-1.22.68a.65.65,0,0,0-.26.92l1.22,2a.73.73,0,0,0,1,.24l1.21-.69a10.62,10.62,0,0,0,1.38,1.3l-.7,1.16a.66.66,0,0,0,.26.92l2.11,1.12a.73.73,0,0,0,1-.26l.69-1.15a11.46,11.46,0,0,0,1.88.45v1.32a.68.68,0,0,0,.7.66l2.41,0A.7.7,0,0,0,95,208v-1.32a10.73,10.73,0,0,0,1.87-.5l.68,1.12a.7.7,0,0,0,.95.23l2.07-1.18a.65.65,0,0,0,.26-.91l-.69-1.14a10.61,10.61,0,0,0,1.36-1.32l1.18.64a.72.72,0,0,0,1-.25l1.19-2a.65.65,0,0,0-.25-.91l-1.19-.65a10.61,10.61,0,0,0,.48-1.78h1.38a.69.69,0,0,0,.69-.67v-2.3A.66.66,0,0,0,105.2,194.41ZM93.05,189.6a6.84,6.84,0,0,1,7,6.69,7,7,0,0,1-7,6.83A6.84,6.84,0,0,1,86,196.43,7,7,0,0,1,93.05,189.6Z" transform="translate(-51.62 -126.2)"/><path class="cls-22" d="M309.64,354.52a11.37,11.37,0,0,1-7.55-8.57l-5.61-27.77-48,1.71-5.9,28.92c-.83,4.05,2.48,8.12,6.29,9.61L269,366.27A26,26,0,0,0,280.7,368l42.43-3.63a2.63,2.63,0,0,0,2.38-2.33c.14-1.25,1-2.65-.17-3Z" transform="translate(-51.62 -126.2)"/><path class="cls-23" d="M310.11,352.83a11.27,11.27,0,0,1-7.54-8.46L297,317l-46.82,1.68-5.9,28.57a8.35,8.35,0,0,0,5.17,9.48l20.06,7.76a26.48,26.48,0,0,0,11.72,1.68l42.39-3.59a2.61,2.61,0,0,0,.59-5.09Z" transform="translate(-51.62 -126.2)"/><path class="cls-22" d="M150.43,336.64c-5.2.31-9.46-3.07-9.46-7.53V168.3c0-4.46,4.26-7.9,9.46-7.68l241.71,16.73c3.82.17,5.87-2.91,5.87.88V315a7.42,7.42,0,0,1-6.91,7.3Z" transform="translate(-51.62 -126.2)"/><path class="cls-24" d="M152.6,336.64c-5.21.31-9.47-3.07-9.47-7.53V168.3c0-4.46,4.26-7.9,9.47-7.68l240.66,10.43a7.28,7.28,0,0,1,6.92,7.18V315a7.43,7.43,0,0,1-6.92,7.3Z" transform="translate(-51.62 -126.2)"/><path class="cls-25" d="M393.26,174.27l-240.66-9.9c-2.79-.12-5,1.72-5,4.1v160.4c0,2.38,2.26,4.18,5,4l240.66-13.82a4,4,0,0,0,3.71-3.9V178.11A3.88,3.88,0,0,0,393.26,174.27Z" transform="translate(-51.62 -126.2)"/><path class="cls-26" d="M391.47,307.5,155.2,319.16c-2.48.12-4.49-1.52-4.49-3.66V170.58c0-2.15,2-3.81,4.49-3.72l236.27,8.77a3.51,3.51,0,0,1,3.36,3.47V304A3.56,3.56,0,0,1,391.47,307.5Z" transform="translate(-51.62 -126.2)"/><polygon class="cls-27" points="162.53 55.96 108.57 54.38 108.57 49.23 162.53 50.98 162.53 55.96"/><polygon class="cls-28" points="187.94 55.29 175.47 54.91 175.47 51.4 187.94 51.8 187.94 55.29"/><polygon class="cls-28" points="187.94 60.14 175.47 59.79 175.47 56.28 187.94 56.65 187.94 60.14"/><polygon class="cls-29" points="250.06 61.84 201.7 60.51 201.7 57.05 250.06 58.48 250.06 61.84"/><polygon class="cls-30" points="257.99 66.7 210.11 65.53 210.11 62.08 257.99 63.35 257.99 66.7"/><polygon class="cls-31" points="257.99 71.34 210.11 70.31 210.11 66.87 257.99 68 257.99 71.34"/><polygon class="cls-27" points="257.99 75.99 210.11 75.09 210.11 71.65 257.99 72.64 257.99 75.99"/><polygon class="cls-28" points="187.94 64.98 175.47 64.68 175.47 61.16 187.94 61.49 187.94 64.98"/><polygon class="cls-28" points="187.94 69.83 175.47 69.56 175.47 66.05 187.94 66.34 187.94 69.83"/><polygon class="cls-28" points="187.94 74.68 175.47 74.44 175.47 70.93 187.94 71.19 187.94 74.68"/><polygon class="cls-28" points="187.94 79.53 175.47 79.33 175.47 75.81 187.94 76.04 187.94 79.53"/><polygon class="cls-27" points="221.34 80.05 190.66 79.57 190.66 76.08 221.34 76.63 221.34 80.05"/><polygon class="cls-28" points="187.94 84.37 175.47 84.21 175.47 80.7 187.94 80.88 187.94 84.37"/><polygon class="cls-28" points="187.94 89.22 175.47 89.09 175.47 85.58 187.94 85.73 187.94 89.22"/><polygon class="cls-28" points="187.94 94.07 175.47 93.98 175.47 90.46 187.94 90.58 187.94 94.07"/><polygon class="cls-32" points="235.72 84.99 201.7 84.55 201.7 81.09 235.72 81.6 235.72 84.99"/><polygon class="cls-27" points="253.39 89.88 210.11 89.44 210.11 86 253.39 86.52 253.39 89.88"/><polygon class="cls-33" points="253.39 94.53 210.11 94.23 210.11 90.78 253.39 91.18 253.39 94.53"/><polygon class="cls-28" points="187.94 98.92 175.47 98.86 175.47 95.35 187.94 95.43 187.94 98.92"/><polygon class="cls-28" points="187.94 103.76 175.47 103.75 175.47 100.23 187.94 100.27 187.94 103.76"/><polygon class="cls-28" points="187.94 108.61 175.47 108.63 175.47 105.11 187.94 105.12 187.94 108.61"/><polygon class="cls-28" points="187.94 113.46 175.47 113.51 175.47 110 187.94 109.97 187.94 113.46"/><polygon class="cls-28" points="187.94 118.31 175.47 118.4 175.47 114.88 187.94 114.82 187.94 118.31"/><polygon class="cls-28" points="187.94 123.15 175.47 123.28 175.47 119.77 187.94 119.66 187.94 123.15"/><polygon class="cls-28" points="187.94 128 175.47 128.16 175.47 124.65 187.94 124.51 187.94 128"/><polygon class="cls-28" points="187.94 132.85 175.47 133.05 175.47 129.53 187.94 129.36 187.94 132.85"/><polygon class="cls-28" points="187.94 137.69 175.47 137.93 175.47 134.42 187.94 134.21 187.94 137.69"/><polygon class="cls-28" points="187.94 142.54 175.47 142.81 175.47 139.3 187.94 139.05 187.94 142.54"/><polygon class="cls-28" points="187.94 147.39 175.47 147.7 175.47 144.18 187.94 143.9 187.94 147.39"/><polygon class="cls-28" points="187.94 152.24 175.47 152.58 175.47 149.07 187.94 148.75 187.94 152.24"/><polygon class="cls-28" points="187.94 157.09 175.47 157.47 175.47 153.95 187.94 153.6 187.94 157.09"/><polygon class="cls-28" points="187.94 161.93 175.47 162.35 175.47 158.83 187.94 158.44 187.94 161.93"/><polygon class="cls-28" points="187.94 166.78 175.47 167.23 175.47 163.72 187.94 163.29 187.94 166.78"/><polygon class="cls-28" points="187.94 171.63 175.47 172.12 175.47 168.6 187.94 168.14 187.94 171.63"/><polygon class="cls-28" points="187.94 176.47 175.47 177 175.47 173.48 187.94 172.99 187.94 176.47"/><polygon class="cls-28" points="187.94 181.32 175.47 181.88 175.47 178.37 187.94 177.83 187.94 181.32"/><polygon class="cls-34" points="224.57 56.4 190.57 55.37 190.57 51.88 224.57 52.98 224.57 56.4"/><polygon class="cls-27" points="250.06 155.19 201.7 156.67 201.7 153.21 250.06 151.83 250.06 155.19"/><polygon class="cls-35" points="257.99 159.6 210.11 161.19 210.11 157.75 257.99 156.25 257.99 159.6"/><polygon class="cls-36" points="257.99 164.24 210.11 165.98 210.11 162.53 257.99 160.9 257.99 164.24"/><polygon class="cls-37" points="278.62 168.08 231.98 169.9 231.98 166.51 278.62 164.78 278.62 168.08"/><polygon class="cls-38" points="278.62 172.66 231.98 174.62 231.98 171.23 278.62 169.37 278.62 172.66"/><polygon class="cls-27" points="278.62 177.25 231.98 179.34 231.98 175.95 278.62 173.95 278.62 177.25"/><polygon class="cls-39" points="224.57 151.23 190.57 152.16 190.57 148.68 224.57 147.81 224.57 151.23"/><polygon class="cls-40" points="250.06 103.85 201.7 103.78 201.7 100.32 250.06 100.49 250.06 103.85"/><polygon class="cls-27" points="257.99 108.5 210.11 108.58 210.11 105.13 257.99 105.16 257.99 108.5"/><polygon class="cls-41" points="257.99 113.15 210.11 113.36 210.11 109.92 257.99 109.8 257.99 113.15"/><polygon class="cls-42" points="257.99 117.79 210.11 118.14 210.11 114.7 257.99 114.45 257.99 117.79"/><polygon class="cls-43" points="221.34 122.81 190.66 123.13 190.66 119.64 221.34 119.39 221.34 122.81"/><polygon class="cls-27" points="235.72 127.37 201.7 127.82 201.7 124.36 235.72 123.98 235.72 127.37"/><polygon class="cls-44" points="253.39 131.8 210.11 132.49 210.11 129.05 253.39 128.45 253.39 131.8"/><polygon class="cls-45" points="253.39 136.46 210.11 137.28 210.11 133.83 253.39 133.11 253.39 136.46"/><polygon class="cls-46" points="262.98 140.91 220.22 141.84 220.22 138.42 262.98 137.58 262.98 140.91"/><polygon class="cls-47" points="262.98 145.54 220.22 146.59 220.22 143.17 262.98 142.21 262.98 145.54"/><polygon class="cls-48" points="224.57 99.07 190.57 98.93 190.57 95.44 224.57 95.66 224.57 99.07"/><polygon class="cls-49" points="162.53 63.76 131.64 62.99 131.64 57.91 162.53 58.77 162.53 63.76"/><polygon class="cls-27" points="123.65 62.79 129.47 62.93 129.47 57.85 123.65 57.69 123.65 62.79"/><polygon class="cls-27" points="162.53 70.92 131.64 70.29 131.64 65.21 162.53 65.94 162.53 70.92"/><polygon class="cls-27" points="123.65 70.12 129.47 70.24 129.47 65.16 123.65 65.02 123.65 70.12"/><polygon class="cls-27" points="162.53 78.09 131.64 77.58 131.64 72.51 162.53 73.11 162.53 78.09"/><polygon class="cls-27" points="123.65 77.45 129.47 77.55 129.47 72.47 123.65 72.35 123.65 77.45"/><polygon class="cls-49" points="162.53 128.97 108.57 129.7 108.57 124.56 162.53 123.99 162.53 128.97"/><polygon class="cls-27" points="162.53 136.76 131.64 137.32 131.64 132.25 162.53 131.78 162.53 136.76"/><polygon class="cls-27" points="123.65 137.47 129.47 137.36 129.47 132.28 123.65 132.37 123.65 137.47"/><polygon class="cls-27" points="162.53 143.93 131.64 144.62 131.64 139.54 162.53 138.95 162.53 143.93"/><polygon class="cls-27" points="123.65 144.8 129.47 144.67 129.47 139.59 123.65 139.7 123.65 144.8"/><polygon class="cls-27" points="162.53 151.1 131.64 151.92 131.64 146.84 162.53 146.11 162.53 151.1"/><polygon class="cls-27" points="123.65 152.13 129.47 151.98 129.47 146.89 123.65 147.03 123.65 152.13"/><polygon class="cls-49" points="162.53 85.31 108.57 84.65 108.57 79.51 162.53 80.32 162.53 85.31"/><polygon class="cls-27" points="162.53 93.1 131.64 92.86 131.64 87.79 162.53 88.11 162.53 93.1"/><polygon class="cls-27" points="123.65 92.81 129.47 92.85 129.47 87.77 123.65 87.7 123.65 92.81"/><polygon class="cls-27" points="162.53 100.27 131.64 100.16 131.64 95.09 162.53 95.28 162.53 100.27"/><polygon class="cls-27" points="123.65 100.14 129.47 100.16 129.47 95.07 123.65 95.04 123.65 100.14"/><polygon class="cls-27" points="162.53 114.7 131.64 114.86 131.64 109.78 162.53 109.71 162.53 114.7"/><polygon class="cls-27" points="123.65 114.9 129.47 114.87 129.47 109.78 123.65 109.8 123.65 114.9"/><polygon class="cls-27" points="162.53 121.87 131.64 122.15 131.64 117.08 162.53 116.88 162.53 121.87"/><polygon class="cls-27" points="123.65 122.23 129.47 122.17 129.47 117.09 123.65 117.13 123.65 122.23"/><polygon class="cls-27" points="162.53 107.44 131.64 107.46 131.64 102.39 162.53 102.45 162.53 107.44"/><polygon class="cls-27" points="123.65 107.47 129.47 107.46 129.47 102.38 123.65 102.37 123.65 107.47"/><polygon class="cls-49" points="162.53 158.27 108.57 159.92 108.57 154.78 162.53 153.28 162.53 158.27"/><polygon class="cls-27" points="162.53 166.06 131.64 167.15 131.64 162.07 162.53 161.07 162.53 166.06"/><polygon class="cls-27" points="123.65 167.43 129.47 167.22 129.47 162.14 123.65 162.33 123.65 167.43"/><polygon class="cls-27" points="162.53 173.23 131.64 174.45 131.64 169.37 162.53 168.24 162.53 173.23"/><polygon class="cls-27" points="123.65 174.76 129.47 174.53 129.47 169.45 123.65 169.66 123.65 174.76"/><polygon class="cls-27" points="162.53 180.4 131.64 181.74 131.64 176.67 162.53 175.41 162.53 180.4"/><polygon class="cls-27" points="123.65 182.09 129.47 181.84 129.47 176.75 123.65 176.99 123.65 182.09"/><polygon class="cls-27" points="169.08 180.13 167.9 180.19 167.9 51.15 169.08 51.19 169.08 180.13"/><path class="cls-27" d="M368.14,312.33c-52.39,1.1-64.17,8.58-79.06-.38-20.46-12.32-11.14-34.23-31.07-45.72-25.06-14.45-53.94,12-67-.89s11.58-43.08-2.67-76.78c-5.71-13.53-15.44-22.32-22.16-27.35l-13.56-.59c-5.21-.22-9.47,3.22-9.47,7.68V329.11c0,4.46,4.26,7.84,9.47,7.53l240.66-14.35a7.43,7.43,0,0,0,6.92-7.3v-2.43C393,312.31,381.79,312.05,368.14,312.33Z" transform="translate(-51.62 -126.2)"/><path class="cls-24" d="M389.2,309l-117,26.43a4.1,4.1,0,0,1-5.26-4.14V159a4.36,4.36,0,0,1,5.26-4.43L389.2,174.45c1.58.27,2.85,2.22,2.85,4.37V304.51C392.05,306.66,390.78,308.68,389.2,309Z" transform="translate(-51.62 -126.2)"/><path class="cls-50" d="M391.86,309l-117,26.43a4.1,4.1,0,0,1-5.26-4.14V159a4.36,4.36,0,0,1,5.26-4.43l117.05,19.86c1.58.27,2.86,2.22,2.86,4.37V304.51C394.72,306.66,393.44,308.68,391.86,309Z" transform="translate(-51.62 -126.2)"/><g class="cls-51"><path class="cls-52" d="M376.85,285.65c-14.49-16.35-4.51-42.84-17.75-49.71-11-5.72-22.8,10.09-33.29,4.66-13.64-7.06-1-37.55-14.43-61-4.79-8.37-14.14-18-34.26-24.59l-2.31-.39a4.36,4.36,0,0,0-5.26,4.43V331.33a4.1,4.1,0,0,0,5.26,4.14L391.86,309c1.58-.36,2.86-2.38,2.86-4.53v-8.69C387.52,294,381.38,290.76,376.85,285.65Z" transform="translate(-51.62 -126.2)"/></g><path class="cls-53" d="M389.28,183.37,279,167.67c-1-.15-1.81,1.14-1.81,2.88v35.31c0,1.73.81,3.18,1.81,3.23l110.33,5.62c.56,0,1-1,1-2.3V185.88C390.3,184.57,389.84,183.45,389.28,183.37Z" transform="translate(-51.62 -126.2)"/><path class="cls-53" d="M279,209.09l39.46,2c-.3-10.21-1.28-21.51-7-31.53a42.6,42.6,0,0,0-6.07-8.15L279,167.67c-1-.15-1.81,1.14-1.81,2.88v35.31C277.14,207.59,278,209,279,209.09Z" transform="translate(-51.62 -126.2)"/><path class="cls-54" d="M313.45,248.41l-33.67,1.3a2.55,2.55,0,0,1-2.64-2.59V220.73a2.58,2.58,0,0,1,2.64-2.61l33.67,1a2.44,2.44,0,0,1,2.23,2.54v24.15A2.46,2.46,0,0,1,313.45,248.41Z" transform="translate(-51.62 -126.2)"/><path class="cls-49" d="M313.45,281.26l-33.67,3.95a2.33,2.33,0,0,1-2.64-2.39V256.44a2.83,2.83,0,0,1,2.64-2.82L313.45,252a2.22,2.22,0,0,1,2.23,2.36v24.15A2.7,2.7,0,0,1,313.45,281.26Z" transform="translate(-51.62 -126.2)"/><path class="cls-49" d="M313.45,314.11l-33.67,6.58a2.13,2.13,0,0,1-2.64-2.18V292.13a3.11,3.11,0,0,1,2.64-3l33.67-4.24a2,2,0,0,1,2.23,2.18V311.2A3,3,0,0,1,313.45,314.11Z" transform="translate(-51.62 -126.2)"/><polygon class="cls-55" points="338.53 172.9 266.16 187.06 266.16 93.1 338.53 95.35 338.53 172.9"/><polygon class="cls-56" points="338.53 172.9 266.16 187.06 266.16 172.81 338.53 161.14 338.53 172.9"/><path class="cls-57" d="M364.16,257.07c0,7.83-3,14.5-6.74,14.9s-7-5.85-7-14,3.16-14.8,7-14.91S364.16,249.23,364.16,257.07Z" transform="translate(-51.62 -126.2)"/><polygon class="cls-53" points="303.1 139.91 303.1 123.09 310.98 130.97 303.1 139.91"/><polygon class="cls-53" points="337.28 168.43 267.97 181.04 267.97 178.75 337.28 166.53 337.28 168.43"/><polygon class="cls-58" points="287.9 177.41 267.97 181.04 267.97 178.75 287.9 175.24 287.9 177.41"/><path class="cls-24" d="M340.13,302.42c0,1.8-.73,3.4-1.63,3.56s-1.64-1.16-1.64-3,.74-3.41,1.64-3.56S340.13,300.62,340.13,302.42Z" transform="translate(-51.62 -126.2)"/><path class="cls-59" d="M376.85,285.65c-14.49-16.35-4.51-42.84-17.75-49.71-11-5.72-22.8,10.09-33.29,4.66-6.2-3.21-7-11.25-7.22-21.27l-.81,0v93.95l72.37-14.15v-4.7A32.33,32.33,0,0,1,376.85,285.65Z" transform="translate(-51.62 -126.2)"/><path class="cls-60" d="M188.5,380.8a.25.25,0,0,1-.25-.25V282.7a.25.25,0,1,1,.49,0v97.85A.25.25,0,0,1,188.5,380.8Z" transform="translate(-51.62 -126.2)"/><path class="cls-60" d="M162.13,374.65a.25.25,0,0,1-.25-.25V280.23a.25.25,0,0,1,.25-.25.25.25,0,0,1,.25.25V374.4A.25.25,0,0,1,162.13,374.65Z" transform="translate(-51.62 -126.2)"/><path class="cls-60" d="M101.18,379l-.08,0a.25.25,0,0,1-.15-.32l35.24-97.1a.25.25,0,0,1,.47.17l-35.24,97.1A.26.26,0,0,1,101.18,379Z" transform="translate(-51.62 -126.2)"/><path class="cls-60" d="M127.2,386.63h-.07a.25.25,0,0,1-.17-.31l31.63-102.37a.25.25,0,0,1,.31-.17.24.24,0,0,1,.16.31L127.44,386.46A.25.25,0,0,1,127.2,386.63Z" transform="translate(-51.62 -126.2)"/><polygon class="cls-60" points="110.81 153.93 137.25 155.89 137.25 156.48 107.03 157.84 84.44 155.07 84.44 154.47 110.81 153.93"/><polygon class="cls-61" points="110.81 153.33 137.25 155.89 107.03 157.24 84.44 154.47 110.81 153.33"/><path class="cls-60" d="M134,364.49H134l-25.18-6.61a.25.25,0,0,1-.18-.3.26.26,0,0,1,.3-.18L134.1,364a.24.24,0,0,1,.18.3A.26.26,0,0,1,134,364.49Z" transform="translate(-51.62 -126.2)"/><path class="cls-60" d="M141.18,341.31h-.05l-24.71-4.38a.24.24,0,0,1-.2-.29.25.25,0,0,1,.29-.2l24.71,4.38a.25.25,0,0,1,.2.29A.25.25,0,0,1,141.18,341.31Z" transform="translate(-51.62 -126.2)"/><path class="cls-60" d="M148.59,317.39h0l-23.92-3.08a.25.25,0,0,1-.21-.28.24.24,0,0,1,.28-.21l23.91,3.08a.25.25,0,0,1,0,.49Z" transform="translate(-51.62 -126.2)"/><path class="cls-60" d="M153.34,300.79h0l-22.48-3.52a.25.25,0,1,1,.07-.49l22.49,3.52a.25.25,0,0,1,0,.49Z" transform="translate(-51.62 -126.2)"/><path class="cls-62" d="M219.92,235l-56.44-.24a.37.37,0,0,1-.2-.62l5.72-5.68V203.27a1.9,1.9,0,0,1,1.66-2l49.27-3.22a1.9,1.9,0,0,1,2,1.92v33A2,2,0,0,1,219.92,235Z" transform="translate(-51.62 -126.2)"/><polygon class="cls-3" points="131.83 80.19 121.52 80.74 121.52 79.4 131.83 78.82 131.83 80.19"/><polygon class="cls-3" points="131.83 82.94 121.52 83.43 121.52 82.09 131.83 81.57 131.83 82.94"/><polygon class="cls-3" points="131.83 87.26 121.52 87.66 121.52 86.32 131.83 85.89 131.83 87.26"/><polygon class="cls-3" points="131.83 90 121.52 90.34 121.52 89 131.83 88.63 131.83 90"/><polygon class="cls-3" points="165.33 101.03 121.52 101.49 121.52 100.15 165.33 99.57 165.33 101.03"/><polygon class="cls-3" points="165.33 103.96 121.52 104.18 121.52 102.83 165.33 102.5 165.33 103.96"/><polygon class="cls-3" points="131.83 94.32 121.52 94.58 121.52 93.23 131.83 92.95 131.83 94.32"/><polygon class="cls-3" points="131.83 97.06 121.52 97.26 121.52 95.92 131.83 95.69 131.83 97.06"/><polygon class="cls-3" points="165.33 96.57 135.83 97.13 135.83 78.6 136.1 78.58 136.1 96.84 165.33 96.27 165.33 96.57"/><polygon class="cls-3" points="139.67 91.84 139.48 91.64 145.31 85.15 151.18 87.05 157.09 81.55 163.18 84.44 163.04 84.72 157.13 81.91 151.24 87.38 145.39 85.49 139.67 91.84"/><path class="cls-63" d="M192.13,217.91a1,1,0,0,1-.94,1,.94.94,0,0,1-.93-1,1,1,0,0,1,.93-1A.94.94,0,0,1,192.13,217.91Z" transform="translate(-51.62 -126.2)"/><path class="cls-64" d="M197.93,211.48a1,1,0,0,1-1,1.05.94.94,0,0,1-1-1,1,1,0,0,1,1-1.05A.94.94,0,0,1,197.93,211.48Z" transform="translate(-51.62 -126.2)"/><path class="cls-65" d="M203.81,213.38a1,1,0,0,1-1,1.06,1,1,0,0,1-1-1,1,1,0,0,1,1-1A1,1,0,0,1,203.81,213.38Z" transform="translate(-51.62 -126.2)"/><path class="cls-66" d="M209.73,207.88a1.08,1.08,0,0,1-1,1.09,1,1,0,0,1-1-1,1.08,1.08,0,0,1,1-1.08A1,1,0,0,1,209.73,207.88Z" transform="translate(-51.62 -126.2)"/><path class="cls-67" d="M215.76,210.74a1.1,1.1,0,0,1-1,1.09,1,1,0,0,1-1-1,1.08,1.08,0,0,1,1-1.08A1,1,0,0,1,215.76,210.74Z" transform="translate(-51.62 -126.2)"/><path class="cls-68" d="M182.24,228.79l1.25-1.36a4.68,4.68,0,0,1,1.11-1c1-.61,2.38-.91,2.59-.56s-1.08,1.58-1.52,2l-1.85,1.34Z" transform="translate(-51.62 -126.2)"/><path class="cls-69" d="M155.63,219.55c-.34.13-5.5,2.18-6.56,7.57-.09.43-.92,5.06,2.22,8.33,3.52,3.66,10.3,3.57,13,.51a5.44,5.44,0,0,0,1.14-2.17l-.71-1.89a4.57,4.57,0,0,0-2.67-1.44c-1.55-.39-2.72.31-3.61-.44a2.32,2.32,0,0,1-.67-1.54c-.3-1.81.72-2.93.8-4,.05-.83.34-2.66-.75-3.85A3.45,3.45,0,0,0,155.63,219.55Z" transform="translate(-51.62 -126.2)"/><path class="cls-70" d="M153.62,279.58c-.06-.33-1.13-.63-1.66-.19-.27.22-.45.67-.3.87s-.17.2.05.21C152.43,280.47,153.68,279.91,153.62,279.58Z" transform="translate(-51.62 -126.2)"/><path class="cls-71" d="M152.5,279.7l-1.11-.16c.51-.61.42-2.57.42-2.57l1.17.26s-.13.54-.36,1.33A5,5,0,0,0,152.5,279.7Z" transform="translate(-51.62 -126.2)"/><path class="cls-72" d="M152.59,279.56s-1.32-.3-1.47,0-.25,1,.59,1S152.67,279.79,152.59,279.56Z" transform="translate(-51.62 -126.2)"/><path class="cls-73" d="M168.73,280.82c-.11-.32-1.21-.46-1.67.05-.23.25-.35.72-.17.9s-.14.23.07.2C167.68,281.88,168.83,281.14,168.73,280.82Z" transform="translate(-51.62 -126.2)"/><path class="cls-74" d="M167.63,281.1h-1.11c.42-.68,0-2.6,0-2.6l1.2.09s-.06.55-.17,1.37A5.67,5.67,0,0,0,167.63,281.1Z" transform="translate(-51.62 -126.2)"/><path class="cls-75" d="M170.52,239a51.55,51.55,0,0,1,1.72,7.89c1.35,9.83-1.52,10.14-1,21,.17,3.48-3,11.49-3.29,11.67l-.44,0a4.39,4.39,0,0,1-1.13-.19c-.5-.09-2.32-5-1.9-7.94a49.81,49.81,0,0,0,0-8.74c0-.72-1.87-14-1.87-14-.56,4.92-1.2,9.11-1.76,12.35-1.8,10.42-7.64,16.72-7.95,16.82a1.18,1.18,0,0,1-1.05-.07.74.74,0,0,1-.27-.3,85.62,85.62,0,0,1,1.83-18.14c2.58-11.22,1.46-13.85,2.28-18.87C156.46,236.21,170.52,239,170.52,239Z" transform="translate(-51.62 -126.2)"/><path class="cls-76" d="M160.07,218.67c1.72,0,5.67-.65,7.84,1.3,0,0-.41.27-.19.53a14.86,14.86,0,0,1,1.54,2.2,15.44,15.44,0,0,1,1.29,3.19,27.71,27.71,0,0,1,1,5.57c.4,5.22,0,7.63-.35,9.27a18,18,0,0,1-10.32,1.52,16.14,16.14,0,0,1-5.14-1.7c1.23-3.74.26-5.74-.19-7.59-.66-2.63-.67-2.43-1.2-4.53-.89-3.45-1-7-.43-7.7C155.58,218.79,158.54,218.72,160.07,218.67Z" transform="translate(-51.62 -126.2)"/><path class="cls-77" d="M167.71,281s-1.35-.12-1.46.16-.12,1,.71.86S167.82,281.16,167.71,281Z" transform="translate(-51.62 -126.2)"/><path class="cls-78" d="M164.9,216.7a3,3,0,0,0,.25-2.14c-.23-.93-.31-1.07-.48-1.27l-.25-.26,0,0a3.13,3.13,0,0,0-.94-.31c-.43,0-1.32,1.54-1.83,4l-.12.26c-.26.55-.47,1.09-.66,1.61-3,.25-3.36.6-3.37.8,0,.42,1.65.91,2.91,1.09,2.76.41,5.6-.32,5.58-.84,0-.22-.55-.51-2.89-.82l.17-1.16A2.57,2.57,0,0,0,164.9,216.7Z" transform="translate(-51.62 -126.2)"/><path class="cls-79" d="M165.46,212.58a2.86,2.86,0,0,1-1,1.51,1.46,1.46,0,0,0-.34.22l-.07.08c-.28.42.31,1.17.11,1.34s-.59-.22-.68-.1.26.47.15.6-.3-.07-.51.06-.1.13-.25.37a2.85,2.85,0,0,1-.28.35c-.37.36-1.13.33-1.22.12,0-.06,0-.09,0-.26a1.49,1.49,0,0,0-.06-.37,3.41,3.41,0,0,0-.69-.92,2.47,2.47,0,0,1-.63-1.28.57.57,0,0,1,0-.12,2.84,2.84,0,0,1,.56-1.82c.62-.71,1.44-.07,2.42-.69s.94-2.13,1.45-2.14S165.83,211.22,165.46,212.58Z" transform="translate(-51.62 -126.2)"/><path class="cls-80" d="M164,215.48c-.11-.29-.49-.15-.58.17a.61.61,0,0,0,.45.76C164.16,216.43,164.13,215.88,164,215.48Z" transform="translate(-51.62 -126.2)"/><path class="cls-81" d="M156.29,238.2h0a.07.07,0,0,1-.06-.07,10.45,10.45,0,0,0-.51-4.32c-.08-.29-.16-.56-.23-.83-.37-1.5-.53-2.08-.7-2.69-.11-.39-.23-.81-.41-1.49a.06.06,0,0,1,.05-.08.07.07,0,0,1,.08,0c.18.69.29,1.1.4,1.5.18.61.34,1.19.71,2.68.07.28.14.55.23.83a10.71,10.71,0,0,1,.51,4.37S156.33,238.2,156.29,238.2Z" transform="translate(-51.62 -126.2)"/><path class="cls-79" d="M164,214.91l.27.65s.28.79.64.5.35-.22.36-.21h0s0-.16,0-.3a2.53,2.53,0,0,1,.15.87,1.43,1.43,0,0,1-.28,1,1.11,1.11,0,0,1-.75.32,3,3,0,0,1-.78-.3s.85-.33.89-.45c.12-.33-.29-.63-.46-1.41A2.88,2.88,0,0,1,164,214.91Z" transform="translate(-51.62 -126.2)"/><path class="cls-82" d="M182.93,227.82a3.31,3.31,0,0,1,1.13,1.4,10.47,10.47,0,0,1-3.63,4.53,10.72,10.72,0,0,1-12.26-.26c-4.28-3.28-5-9.56-3.2-12.25a3,3,0,0,1,1.95-1.44c.67-.07,1.57.2,3,1.88,3,3.51,1.94,5.7,3.71,6.72C176.29,229.94,180.23,225.93,182.93,227.82Z" transform="translate(-51.62 -126.2)"/><path class="cls-81" d="M170.87,235h0a9.45,9.45,0,0,1-6.15-6.2.08.08,0,0,1,0-.09.07.07,0,0,1,.08,0,9.29,9.29,0,0,0,6.06,6.12.06.06,0,0,1,.05.08A.06.06,0,0,1,170.87,235Z" transform="translate(-51.62 -126.2)"/><path class="cls-83" d="M184.26,334c6-7.25,38.42-17.76,53.41-12.8a37.44,37.44,0,0,1,1.93,15.46c-1.56,17.09-15.2,28.75-20.42,32-2.74,1.72-5.36,2.5-9.55,5.93-2.64,2.15-4.25,4-5.56,3.5s-1.63-3.47-1.45-5.44c.56-5.85,5.33-7.07,5.32-10.63,0-4.2-6.66-5.68-13.05-11.36C191.51,347.69,187.25,342.66,184.26,334Z" transform="translate(-51.62 -126.2)"/><path class="cls-84" d="M189.35,336.08c-4.72,0-5.59-1-5.79-1.87-.24-1,.28-2.72,7.58-5.74A132.32,132.32,0,0,1,210,322.65a130.92,130.92,0,0,1,19.43-3.28c7.88-.6,9.11.69,9.36,1.71s-.28,2.73-7.59,5.75a130.74,130.74,0,0,1-18.82,5.81,131.19,131.19,0,0,1-19.42,3.29C191.53,336,190.35,336.08,189.35,336.08Zm43.58-15.41c-1,0-2.13,0-3.56.15a148.08,148.08,0,0,0-37.56,8.94c-6.72,2.76-6.84,4.11-6.84,4.12s.72,1.16,8,.59A129.47,129.47,0,0,0,212,331.23a129.8,129.8,0,0,0,18.48-5.69c6.68-2.75,6.85-4.09,6.84-4.12S236.84,320.67,232.93,320.67Z" transform="translate(-51.62 -126.2)"/><path class="cls-85" d="M195.67,315.12a.35.35,0,0,1-.07-.09l-.09-.11-.19-.21-.41-.41a6.36,6.36,0,0,0-.89-.68,4.26,4.26,0,0,0-1.92-.67h-.48a2.52,2.52,0,0,0-.48.06,3.59,3.59,0,0,0-.47.12,4.52,4.52,0,0,0-.47.18,7.1,7.1,0,0,0-1.77,1.16,1.66,1.66,0,1,1-2.19-2.5,1,1,0,0,1,.21-.15l0,0a10.07,10.07,0,0,1,2.81-1.25c.26-.07.53-.11.79-.16a7.35,7.35,0,0,1,.82-.07,7.49,7.49,0,0,1,.82,0l.41.06.4.09A6.61,6.61,0,0,1,195.3,312a9.4,9.4,0,0,1,1,1.08c.15.19.29.39.43.59l.19.31.09.17.1.18a.83.83,0,0,1-1.34,1Z" transform="translate(-51.62 -126.2)"/><path class="cls-86" d="M226.61,310.85l0-.21,0-.18c0-.12.05-.24.08-.36a6.22,6.22,0,0,1,.19-.71,8,8,0,0,1,.57-1.36,6.59,6.59,0,0,1,2.06-2.35,3.37,3.37,0,0,1,.35-.22l.36-.2a7.15,7.15,0,0,1,1.55-.55c.26,0,.53-.1.79-.12a9.77,9.77,0,0,1,3.07.17h0a1.66,1.66,0,1,1-.65,3.26l-.25-.07a7.26,7.26,0,0,0-2.07-.47h-.5c-.16,0-.33,0-.48.05l-.47.11-.23.08-.22.1a4.2,4.2,0,0,0-1.57,1.3,6.67,6.67,0,0,0-.59,1c-.08.17-.17.35-.24.52s-.06.18-.1.27l0,.13a1,1,0,0,0,0,.11l-.07.17a.85.85,0,0,1-1.1.45A.83.83,0,0,1,226.61,310.85Z" transform="translate(-51.62 -126.2)"/><path class="cls-87" d="M193.49,325.87l-.11-.05-.12-.06-.27-.11c-.17-.07-.36-.13-.54-.19a6,6,0,0,0-1.1-.23,4.2,4.2,0,0,0-2,.24l-.23.09-.21.11c-.14.09-.27.17-.4.27a3.57,3.57,0,0,0-.37.31c-.12.12-.24.23-.35.36a7.77,7.77,0,0,0-1.09,1.82,1.66,1.66,0,1,1-3.06-1.3l.12-.23,0,0a10.23,10.23,0,0,1,2-2.35c.2-.18.43-.33.64-.49s.46-.29.71-.41a7.11,7.11,0,0,1,.75-.33l.4-.13.39-.09a6.58,6.58,0,0,1,3.13.12,7.42,7.42,0,0,1,1.38.53c.22.1.44.22.65.34l.31.2.15.1.17.13a.83.83,0,0,1,.19,1.17.85.85,0,0,1-1,.29Z" transform="translate(-51.62 -126.2)"/><path class="cls-88" d="M198.08,336.67l-.11,0-.14,0-.27.06-.55.16a6.43,6.43,0,0,0-1,.46,4.21,4.21,0,0,0-1.51,1.38l-.12.21-.11.21a3.47,3.47,0,0,0-.17.45,3.59,3.59,0,0,0-.12.47,4,4,0,0,0-.06.5,7.36,7.36,0,0,0,.18,2.11,1.67,1.67,0,0,1-3.25.73,1.07,1.07,0,0,1,0-.25v0a10.1,10.1,0,0,1,.25-3.07,6.82,6.82,0,0,1,.23-.77,7.11,7.11,0,0,1,.33-.75,6.31,6.31,0,0,1,.42-.71l.24-.33a4,4,0,0,1,.27-.31,6.39,6.39,0,0,1,2.6-1.73,8.2,8.2,0,0,1,1.43-.39c.24,0,.48-.07.73-.09l.36,0h.4a.84.84,0,0,1,.22,1.65Z" transform="translate(-51.62 -126.2)"/><path class="cls-89" d="M229.12,319.53l.1-.18a.91.91,0,0,1,.09-.17l.18-.31c.13-.21.27-.41.42-.61a7.87,7.87,0,0,1,1-1.1,6.45,6.45,0,0,1,2.72-1.53l.4-.1.41-.07a8.43,8.43,0,0,1,1.64,0,7.32,7.32,0,0,1,.79.15,10.11,10.11,0,0,1,2.84,1.17l0,0a1.67,1.67,0,1,1-1.91,2.71,7.35,7.35,0,0,0-1.8-1.12c-.16-.07-.31-.11-.47-.17a4.1,4.1,0,0,0-.48-.1,3.78,3.78,0,0,0-.47-.06h-.24l-.25,0a4.17,4.17,0,0,0-1.91.72,6.35,6.35,0,0,0-.87.7,5.33,5.33,0,0,0-.4.42l-.18.22-.08.11-.07.09-.12.13a.84.84,0,0,1-1.37-.94Z" transform="translate(-51.62 -126.2)"/><path class="cls-90" d="M226.47,332.62l.2-.07.18-.05.35-.1c.24-.07.48-.11.72-.16a8.93,8.93,0,0,1,1.47-.12,6.58,6.58,0,0,1,3,.76c.11.07.24.13.35.21l.34.23a5.35,5.35,0,0,1,.63.53,7.94,7.94,0,0,1,.57.59c.16.21.33.43.47.65a9.92,9.92,0,0,1,1.26,2.81v0a1.66,1.66,0,1,1-3.2.92c0-.09,0-.18-.05-.26a7.09,7.09,0,0,0-.54-2.06c-.06-.16-.15-.29-.22-.44s-.17-.28-.27-.41-.21-.24-.31-.36l-.18-.17-.18-.15a4.27,4.27,0,0,0-1.88-.8,6,6,0,0,0-1.12-.08,5.63,5.63,0,0,0-.58,0l-.28,0-.14,0-.11,0-.18,0a.84.84,0,0,1-.35-1.63Z" transform="translate(-51.62 -126.2)"/><path class="cls-91" d="M231,323.77c-.67,9.36-7.1,23.2-18.06,23.56-10.43.34-18.62-11.08-19.52-21.15-1.13-12.6,8.91-26.07,19.52-26,8.18.07,13.91,8.18,14.44,8.94A22.55,22.55,0,0,1,231,323.77Z" transform="translate(-51.62 -126.2)"/><path class="cls-92" d="M227.34,309.14c-.53-.76-6.26-8.87-14.44-8.94-6.08-.05-12,4.35-15.68,10.48a52.47,52.47,0,0,1,13.57-2.78,46.14,46.14,0,0,1,17,2Z" transform="translate(-51.62 -126.2)"/><path class="cls-93" d="M210.79,307.9a117.37,117.37,0,0,0-2.14,38.91,14,14,0,0,0,4.25.52c11-.36,17.39-14.2,18.06-23.56a22.66,22.66,0,0,0-3.16-13.92A46.14,46.14,0,0,0,210.79,307.9Z" transform="translate(-51.62 -126.2)"/><path class="cls-94" d="M210.79,307.9a52.47,52.47,0,0,0-13.57,2.78,26,26,0,0,0-3.84,15.5c.78,8.66,6.93,18.31,15.27,20.63A117.37,117.37,0,0,1,210.79,307.9Z" transform="translate(-51.62 -126.2)"/><g class="cls-95"><path class="cls-24" d="M227.34,309.14c-.46-.66-4.79-6.78-11.22-8.49,6.67,5.37,8.28,9.42,7.83,12.48-1,6.5-11.27,8.71-11.36,15.83-.07,5.73,6.57,8.07,5.92,11.72-.35,2-2.85,4.17-10.88,5.81a14.32,14.32,0,0,0,5.27.84c11-.36,17.39-14.2,18.06-23.56A22.55,22.55,0,0,0,227.34,309.14Z" transform="translate(-51.62 -126.2)"/></g><path class="cls-96" d="M217.59,302.41c0-.91.12-1.8.21-2.69s.2-1.78.34-2.67.29-1.77.46-2.66.39-1.76.62-2.63A32.6,32.6,0,0,1,221,286.6l.15-.31.15-.31c.11-.21.21-.42.32-.62.22-.41.44-.82.7-1.21s.53-.78.8-1.17.59-.75.93-1.1l.24-.27.27-.25.27-.25c.09-.08.17-.17.27-.25l.58-.45.29-.21.29-.2a12.3,12.3,0,0,1,2.59-1.39,6.09,6.09,0,0,1,1.63-.38,3.57,3.57,0,0,1,1,0,3,3,0,0,1,1.06.39,2.77,2.77,0,0,1,.88.82,3.28,3.28,0,0,1,.47,1,4.66,4.66,0,0,1,.08,1.88,6.38,6.38,0,0,1-.46,1.61,7.75,7.75,0,0,1-.77,1.42,8.09,8.09,0,0,1-1,1.23c-.19.19-.39.37-.59.54l-.16.13-.15.12-.31.22c-.21.15-.43.3-.68.45a5.12,5.12,0,0,1-.9.4l-.3.08-.18,0-.19,0a2.41,2.41,0,0,1-1-.13,2.94,2.94,0,0,1-.55-.3,2.38,2.38,0,0,1-.42-.42,2.55,2.55,0,0,1-.4-.82,3.29,3.29,0,0,1-.12-.63,4.52,4.52,0,0,1,0-.51,7.77,7.77,0,0,1,.08-.88c0-.27.09-.53.14-.78s.06-.25.1-.38l0-.19,0-.09,0-.12h0a1.65,1.65,0,0,1,3.16,1l0,.11,0,.05,0,.06,0,.13c0,.09-.05.18-.08.27s-.09.35-.13.51-.06.33-.07.45,0,.22,0,.17a.84.84,0,0,0-.12-.21,1.11,1.11,0,0,0-.19-.18.94.94,0,0,0-.26-.14.64.64,0,0,0-.32-.05h0a1.74,1.74,0,0,0,.32-.13c.14-.07.29-.15.45-.25L229,285l.12-.08.11-.07.41-.33a6.66,6.66,0,0,0,.72-.78,5,5,0,0,0,.55-.88,3.88,3.88,0,0,0,.32-.92,2.1,2.1,0,0,0,0-.77,1.11,1.11,0,0,0-.07-.2.31.31,0,0,0-.07-.09.38.38,0,0,0-.18-.08,1.05,1.05,0,0,0-.34,0,3.4,3.4,0,0,0-1,.18,10.66,10.66,0,0,0-2.15,1l-.26.17-.26.16-.48.34c-.09.06-.16.13-.24.19l-.22.19a2.2,2.2,0,0,0-.23.2l-.22.21a11.89,11.89,0,0,0-.84.89c-.25.32-.52.64-.75,1s-.47.7-.7,1.06c-.11.18-.21.36-.31.55l-.16.27-.15.29a31.3,31.3,0,0,0-2,4.77c-.26.83-.51,1.67-.73,2.52s-.42,1.7-.59,2.55-.34,1.73-.48,2.59-.26,1.75-.34,2.61h0a.5.5,0,0,1-1-.07Z" transform="translate(-51.62 -126.2)"/><path class="cls-97" d="M204.87,303.31c-.08-.86-.21-1.73-.34-2.6s-.3-1.73-.48-2.59-.37-1.71-.59-2.56-.47-1.68-.73-2.51a31.41,31.41,0,0,0-2-4.78l-.15-.28-.16-.28c-.1-.18-.2-.37-.31-.55-.23-.35-.45-.71-.7-1.05s-.5-.66-.75-1-.54-.62-.84-.89l-.22-.21-.22-.19-.23-.2a2.15,2.15,0,0,0-.24-.18l-.48-.34a2.94,2.94,0,0,0-.26-.17l-.26-.16a9.68,9.68,0,0,0-2.15-1,3.4,3.4,0,0,0-1-.18,1.52,1.52,0,0,0-.34,0l-.18.08a.36.36,0,0,0-.07.1.88.88,0,0,0-.07.2,2,2,0,0,0,0,.76,4,4,0,0,0,.32.93,5.87,5.87,0,0,0,1.27,1.65,4.23,4.23,0,0,0,.41.33l.11.08.12.08a1.88,1.88,0,0,1,.23.16l.45.25a1.09,1.09,0,0,0,.32.12h0a.54.54,0,0,0-.32.05.71.71,0,0,0-.26.13.85.85,0,0,0-.19.19.69.69,0,0,0-.12.21c0,.05,0-.05,0-.17a4.55,4.55,0,0,0-.07-.45c0-.17-.08-.34-.13-.52s-.05-.18-.08-.26l-.05-.13,0-.06v-.05a1.66,1.66,0,1,1,3.09-1.2l0,.1v0l0,.11,0,.1,0,.19c0,.12.07.25.1.38s.1.51.14.78a7.38,7.38,0,0,1,.08.87,4.79,4.79,0,0,1,0,.52,3.44,3.44,0,0,1-.12.63,2.42,2.42,0,0,1-.4.81,2.09,2.09,0,0,1-.42.42,2.11,2.11,0,0,1-.55.3,2.44,2.44,0,0,1-1,.14l-.19,0-.18,0-.3-.08a4.48,4.48,0,0,1-.9-.4,7.26,7.26,0,0,1-.68-.44l-.31-.23-.15-.11-.16-.13c-.2-.17-.4-.35-.59-.54a8.61,8.61,0,0,1-1-1.23,8.47,8.47,0,0,1-.77-1.42,6.51,6.51,0,0,1-.46-1.61,4.66,4.66,0,0,1,.08-1.88,3.08,3.08,0,0,1,.47-1,2.76,2.76,0,0,1,.88-.82,3.2,3.2,0,0,1,1.06-.4,4,4,0,0,1,1,0,6.09,6.09,0,0,1,1.63.38,12.77,12.77,0,0,1,2.59,1.39l.29.2.29.21.58.46a2.11,2.11,0,0,1,.27.25l.27.25.27.25.24.26c.34.35.63.73.93,1.1s.56.77.8,1.17.48.81.7,1.21c.11.21.21.42.32.62l.15.31.15.32a32.85,32.85,0,0,1,1.81,5.15c.23.88.44,1.76.62,2.64s.33,1.77.46,2.65.25,1.78.34,2.67.17,1.78.21,2.69a.5.5,0,0,1-.48.52.49.49,0,0,1-.52-.44Z" transform="translate(-51.62 -126.2)"/><path class="cls-49" d="M237.67,321.21c-3.13,11.92-7.69,16-11.6,17.27-6.58,2.17-12.3-3.16-18,.49a11.32,11.32,0,0,0-5.07,9.79c.62,7.61,11.63,10.45,10.63,15-.65,3-5.53,2.5-8.46,7.85-1.43,2.61-2,5.94-1.09,6.53s2.63-1.1,5.56-3.5c4.19-3.43,6.81-4.21,9.55-5.93,5.22-3.27,18.86-14.93,20.42-32A37.44,37.44,0,0,0,237.67,321.21Z" transform="translate(-51.62 -126.2)"/><path class="cls-98" d="M238.75,321.08c-.16-.65-.71-1.4-3.1-1.72-.59.46-1.18.9-1.78,1.32,3,.11,3.46.72,3.46.74s-.16,1.37-6.84,4.12A129.8,129.8,0,0,1,212,331.23a129.47,129.47,0,0,1-19.07,3.24c-7.25.57-8-.58-8-.59s.08-.87,3.51-2.61c-.59-.22-1.17-.45-1.74-.72-3.12,1.77-3.36,2.91-3.18,3.66s1.07,1.87,5.79,1.87c1,0,2.18-.05,3.57-.15a131.19,131.19,0,0,0,19.42-3.29,130.74,130.74,0,0,0,18.82-5.81C238.47,323.81,239,322.1,238.75,321.08Z" transform="translate(-51.62 -126.2)"/></g></g></svg>