<svg xmlns="http://www.w3.org/2000/svg" xmlns:xlink="http://www.w3.org/1999/xlink" viewBox="0 0 502.49 483.2"><defs><style>.cls-1{fill:url(#linear-gradient);}.cls-2{fill:url(#linear-gradient-2);}.cls-3{isolation:isolate;}.cls-4{fill:#f4f7fa;}.cls-5{clip-path:url(#clip-path);}.cls-6{opacity:0.5;}.cls-46,.cls-47,.cls-48,.cls-6{mix-blend-mode:soft-light;}.cls-47,.cls-48,.cls-7{fill:#fff;}.cls-8{clip-path:url(#clip-path-2);}.cls-9{fill:url(#linear-gradient-5);}.cls-10{fill:url(#linear-gradient-6);}.cls-11{fill:url(#linear-gradient-7);}.cls-12{fill:url(#linear-gradient-8);}.cls-13{fill:url(#linear-gradient-10);}.cls-14{fill:url(#linear-gradient-11);}.cls-15{fill:url(#linear-gradient-12);}.cls-16{fill:url(#linear-gradient-13);}.cls-17{fill:url(#linear-gradient-14);}.cls-18{fill:url(#linear-gradient-16);}.cls-19{fill:url(#linear-gradient-17);}.cls-20{fill:url(#linear-gradient-18);}.cls-21{fill:url(#linear-gradient-19);}.cls-22{fill:url(#linear-gradient-20);}.cls-23{fill:url(#linear-gradient-22);}.cls-24{fill:url(#linear-gradient-23);}.cls-25{fill:url(#linear-gradient-24);}.cls-26{fill:url(#linear-gradient-25);}.cls-27{fill:url(#linear-gradient-26);}.cls-28{fill:url(#linear-gradient-28);}.cls-29{fill:url(#linear-gradient-29);}.cls-30{fill:url(#linear-gradient-30);}.cls-31{fill:url(#linear-gradient-31);}.cls-32{fill:url(#linear-gradient-32);}.cls-33{fill:url(#linear-gradient-34);}.cls-34{fill:url(#linear-gradient-35);}.cls-35{fill:url(#linear-gradient-36);}.cls-36{fill:url(#linear-gradient-37);}.cls-37{fill:url(#linear-gradient-38);}.cls-38{fill:url(#linear-gradient-40);}.cls-39{fill:url(#linear-gradient-41);}.cls-40{fill:url(#linear-gradient-42);}.cls-41{fill:url(#linear-gradient-43);}.cls-42{fill:url(#linear-gradient-44);}.cls-43{fill:url(#linear-gradient-46);}.cls-44{fill:#bfc8d6;}.cls-45,.cls-72{fill:#d8dee8;}.cls-48{opacity:0.48;}.cls-49{fill:url(#linear-gradient-47);}.cls-50{fill:url(#linear-gradient-48);}.cls-51{fill:url(#linear-gradient-49);}.cls-52{fill:url(#linear-gradient-50);}.cls-53{fill:url(#linear-gradient-51);}.cls-54{fill:url(#linear-gradient-52);}.cls-55{fill:url(#linear-gradient-53);}.cls-56{fill:url(#linear-gradient-54);}.cls-57{fill:url(#linear-gradient-55);}.cls-58,.cls-65,.cls-72{opacity:0.3;mix-blend-mode:multiply;}.cls-58{fill:url(#linear-gradient-56);}.cls-59{fill:url(#linear-gradient-57);}.cls-60{fill:url(#linear-gradient-58);}.cls-61{fill:url(#linear-gradient-59);}.cls-62{fill:url(#linear-gradient-60);}.cls-63{fill:url(#linear-gradient-61);}.cls-64{fill:url(#linear-gradient-62);}.cls-65{fill:url(#linear-gradient-63);}.cls-66{fill:url(#linear-gradient-64);}.cls-67{fill:url(#linear-gradient-65);}.cls-68{fill:url(#linear-gradient-66);}.cls-69{fill:url(#linear-gradient-67);}.cls-70{fill:url(#linear-gradient-68);}.cls-71{fill:url(#linear-gradient-69);}.cls-73{fill:url(#linear-gradient-70);}.cls-74{fill:url(#linear-gradient-71);}</style><linearGradient id="linear-gradient" x1="158.05" y1="318.86" x2="360.48" y2="318.86" gradientUnits="userSpaceOnUse"><stop offset="0" stop-color="#aa80f9"/><stop offset="1" stop-color="#6165d7"/></linearGradient><linearGradient id="linear-gradient-2" x1="223.68" y1="262.87" x2="164.78" y2="420.97" gradientUnits="userSpaceOnUse"><stop offset="0" stop-color="#e38ddd"/><stop offset="1" stop-color="#9571f6"/></linearGradient><clipPath id="clip-path" transform="translate(-75.97 -85.61)"><path class="cls-1" d="M360.48,480.54c-15.63-14.66-36.25-38.48-45.58-72.16-12.24-44.17,5.69-66.5,3.67-141.28-1.28-47.28-2.65-80.27-26.48-97.91-18.68-13.83-48.93-16.58-67.28-3.76-15.26,10.65-24.09,33.32-26.79,49.5-2.19,13.18-.43,22.75-8,29.7-7.77,7.1-16.15,3.08-23.41,8.33-14.73,10.67-6.2,46-4.83,51.69,15.34,63.49,73.84,106.31,99.58,124.68A395.69,395.69,0,0,0,360.48,480.54Z"/></clipPath><clipPath id="clip-path-2" transform="translate(-75.97 -85.61)"><path class="cls-2" d="M276.54,479.51c-33.84.29-77-4.17-118.34-22.79-10.56-4.75-75.75-34.09-68.11-63.78,2.69-10.45,12.15-12.12,16-26,4.55-16.49-5.81-24.71-13-45.24-4.31-12.24-16.89-48.09,4.56-68,12.82-11.89,37.22-17.55,55.8-13.24,27.26,6.31,36.68,32.82,51.83,77.94,13.43,40,10,49.83,20.2,78.47C233,418.1,247.21,447.36,276.54,479.51Z"/></clipPath><linearGradient id="linear-gradient-5" x1="409.99" y1="463.53" x2="482.94" y2="520.74" gradientUnits="userSpaceOnUse"><stop offset="0" stop-color="#f58c4d"/><stop offset="1" stop-color="#c06b39"/></linearGradient><linearGradient id="linear-gradient-6" x1="605.74" y1="504.13" x2="392.88" y2="469.01" gradientTransform="matrix(1, 0.02, 0, 1, 0, 6.76)" gradientUnits="userSpaceOnUse"><stop offset="0" stop-color="#311944"/><stop offset="1" stop-color="#893976"/></linearGradient><linearGradient id="linear-gradient-7" x1="462.67" y1="491.58" x2="462.08" y2="461.32" gradientTransform="matrix(1, 0.02, 0, 1, 0, 6.76)" gradientUnits="userSpaceOnUse"><stop offset="0" stop-color="#ff9085"/><stop offset="1" stop-color="#fb6fbb"/></linearGradient><linearGradient id="linear-gradient-8" x1="334.48" y1="377.27" x2="407.01" y2="434.16" xlink:href="#linear-gradient-5"/><linearGradient id="linear-gradient-10" x1="462.67" y1="491.58" x2="462.08" y2="461.32" gradientTransform="matrix(1, 0.02, 0, 1, 0, 6.76)" xlink:href="#linear-gradient-5"/><linearGradient id="linear-gradient-11" x1="410.01" y1="439.43" x2="483.04" y2="496.71" xlink:href="#linear-gradient-5"/><linearGradient id="linear-gradient-12" x1="605.74" y1="480.06" x2="392.88" y2="444.93" xlink:href="#linear-gradient-6"/><linearGradient id="linear-gradient-13" x1="462.67" y1="467.5" x2="462.08" y2="437.24" xlink:href="#linear-gradient-7"/><linearGradient id="linear-gradient-14" x1="334.48" y1="353.2" x2="407.01" y2="410.08" xlink:href="#linear-gradient-5"/><linearGradient id="linear-gradient-16" x1="462.67" y1="467.5" x2="462.08" y2="437.24" gradientTransform="matrix(1, 0.02, 0, 1, 0, 6.76)" xlink:href="#linear-gradient-5"/><linearGradient id="linear-gradient-17" x1="410.01" y1="415.29" x2="483.04" y2="472.57" xlink:href="#linear-gradient-5"/><linearGradient id="linear-gradient-18" x1="605.74" y1="455.92" x2="392.88" y2="420.79" xlink:href="#linear-gradient-6"/><linearGradient id="linear-gradient-19" x1="462.67" y1="443.36" x2="462.08" y2="413.1" xlink:href="#linear-gradient-7"/><linearGradient id="linear-gradient-20" x1="334.48" y1="329.06" x2="407.01" y2="385.95" xlink:href="#linear-gradient-5"/><linearGradient id="linear-gradient-22" x1="462.67" y1="443.36" x2="462.08" y2="413.1" gradientTransform="matrix(1, 0.02, 0, 1, 0, 6.76)" xlink:href="#linear-gradient-5"/><linearGradient id="linear-gradient-23" x1="410.01" y1="391.16" x2="483.04" y2="448.43" xlink:href="#linear-gradient-5"/><linearGradient id="linear-gradient-24" x1="605.74" y1="431.78" x2="392.88" y2="396.65" xlink:href="#linear-gradient-6"/><linearGradient id="linear-gradient-25" x1="462.67" y1="419.22" x2="462.08" y2="388.96" xlink:href="#linear-gradient-7"/><linearGradient id="linear-gradient-26" x1="334.48" y1="304.92" x2="407.01" y2="361.81" xlink:href="#linear-gradient-5"/><linearGradient id="linear-gradient-28" x1="462.67" y1="419.22" x2="462.08" y2="388.96" gradientTransform="matrix(1, 0.02, 0, 1, 0, 6.76)" xlink:href="#linear-gradient-5"/><linearGradient id="linear-gradient-29" x1="410.01" y1="367.02" x2="483.04" y2="424.29" xlink:href="#linear-gradient-5"/><linearGradient id="linear-gradient-30" x1="605.74" y1="407.64" x2="392.88" y2="372.51" xlink:href="#linear-gradient-6"/><linearGradient id="linear-gradient-31" x1="462.67" y1="395.09" x2="462.08" y2="364.82" xlink:href="#linear-gradient-7"/><linearGradient id="linear-gradient-32" x1="334.48" y1="280.78" x2="407.01" y2="337.67" xlink:href="#linear-gradient-5"/><linearGradient id="linear-gradient-34" x1="462.67" y1="395.09" x2="462.08" y2="364.82" gradientTransform="matrix(1, 0.02, 0, 1, 0, 6.76)" xlink:href="#linear-gradient-5"/><linearGradient id="linear-gradient-35" x1="410.01" y1="342.88" x2="483.04" y2="400.16" xlink:href="#linear-gradient-5"/><linearGradient id="linear-gradient-36" x1="605.74" y1="383.5" x2="392.88" y2="348.38" xlink:href="#linear-gradient-6"/><linearGradient id="linear-gradient-37" x1="462.67" y1="370.95" x2="462.08" y2="340.69" xlink:href="#linear-gradient-7"/><linearGradient id="linear-gradient-38" x1="334.48" y1="256.64" x2="407.01" y2="313.53" xlink:href="#linear-gradient-5"/><linearGradient id="linear-gradient-40" x1="462.67" y1="370.95" x2="462.08" y2="340.69" gradientTransform="matrix(1, 0.02, 0, 1, 0, 6.76)" xlink:href="#linear-gradient-5"/><linearGradient id="linear-gradient-41" x1="410.01" y1="318.74" x2="483.04" y2="376.02" xlink:href="#linear-gradient-5"/><linearGradient id="linear-gradient-42" x1="605.74" y1="359.36" x2="392.88" y2="324.24" xlink:href="#linear-gradient-6"/><linearGradient id="linear-gradient-43" x1="462.67" y1="346.81" x2="462.08" y2="316.55" xlink:href="#linear-gradient-7"/><linearGradient id="linear-gradient-44" x1="334.48" y1="232.5" x2="407.01" y2="289.39" xlink:href="#linear-gradient-5"/><linearGradient id="linear-gradient-46" x1="462.67" y1="346.81" x2="462.08" y2="316.55" gradientTransform="matrix(1, 0.02, 0, 1, 0, 6.76)" xlink:href="#linear-gradient-5"/><linearGradient id="linear-gradient-47" x1="96.8" y1="534.37" x2="559.51" y2="534.37" gradientUnits="userSpaceOnUse"><stop offset="0.49" stop-color="#ebeff2"/><stop offset="1" stop-color="#fff"/></linearGradient><linearGradient id="linear-gradient-48" x1="-5719.98" y1="204.39" x2="-5576.64" y2="301.75" gradientTransform="translate(6157.77)" gradientUnits="userSpaceOnUse"><stop offset="0" stop-color="#311944"/><stop offset="1" stop-color="#6b3976"/></linearGradient><linearGradient id="linear-gradient-49" x1="2864.3" y1="480.55" x2="2926.25" y2="197.67" gradientTransform="matrix(-1, 0, 0, 1, 3332.48, 0)" xlink:href="#linear-gradient-2"/><linearGradient id="linear-gradient-50" x1="-5783.37" y1="429.4" x2="-5764.06" y2="429.4" xlink:href="#linear-gradient-48"/><linearGradient id="linear-gradient-51" x1="-5774.26" y1="437.01" x2="-5745.46" y2="350.61" gradientTransform="translate(6157.77)" gradientUnits="userSpaceOnUse"><stop offset="0" stop-color="#ffc444"/><stop offset="1" stop-color="#f36f56"/></linearGradient><linearGradient id="linear-gradient-52" x1="-5780.29" y1="393.95" x2="-5768.49" y2="393.95" xlink:href="#linear-gradient-48"/><linearGradient id="linear-gradient-53" x1="-5787.14" y1="426.37" x2="-5767.86" y2="368.54" xlink:href="#linear-gradient-51"/><linearGradient id="linear-gradient-54" x1="-5763.38" y1="328.94" x2="-5749" y2="412.06" gradientTransform="translate(6157.77)" gradientUnits="userSpaceOnUse"><stop offset="0" stop-color="#ab316d"/><stop offset="1" stop-color="#792d3d"/></linearGradient><linearGradient id="linear-gradient-55" x1="-5743.08" y1="427.45" x2="-5722.63" y2="362.75" xlink:href="#linear-gradient-54"/><linearGradient id="linear-gradient-56" x1="-5743.08" y1="427.45" x2="-5722.63" y2="362.75" xlink:href="#linear-gradient-54"/><linearGradient id="linear-gradient-57" x1="-5714.31" y1="320.55" x2="-5699.96" y2="403.48" xlink:href="#linear-gradient-54"/><linearGradient id="linear-gradient-58" x1="2830.34" y1="473.12" x2="2892.29" y2="190.23" gradientTransform="matrix(-1, 0, 0, 1, 3332.48, 0)" xlink:href="#linear-gradient-2"/><linearGradient id="linear-gradient-59" x1="4652.89" y1="-576.79" x2="4654.35" y2="-615.81" gradientTransform="matrix(-0.98, 0.18, 0.18, 0.98, 5147.63, 3.87)" xlink:href="#linear-gradient-51"/><linearGradient id="linear-gradient-60" x1="4652.43" y1="-611.24" x2="4651.8" y2="-560.72" gradientTransform="matrix(-0.98, 0.18, 0.18, 0.98, 5147.63, 3.87)" xlink:href="#linear-gradient-51"/><linearGradient id="linear-gradient-61" x1="-4228.88" y1="319.46" x2="-4173.19" y2="319.46" gradientTransform="translate(4647.77)" gradientUnits="userSpaceOnUse"><stop offset="0" stop-color="#40447e"/><stop offset="1" stop-color="#3c3b6b"/></linearGradient><linearGradient id="linear-gradient-62" x1="-4264.5" y1="284.33" x2="-4227.98" y2="320.55" xlink:href="#linear-gradient-61"/><linearGradient id="linear-gradient-63" x1="-4264.5" y1="284.33" x2="-4227.98" y2="320.55" xlink:href="#linear-gradient-61"/><linearGradient id="linear-gradient-64" x1="2803.47" y1="467.23" x2="2865.42" y2="184.35" gradientTransform="matrix(-1, 0, 0, 1, 3332.48, 0)" xlink:href="#linear-gradient-2"/><linearGradient id="linear-gradient-65" x1="2878.71" y1="308.48" x2="2860.19" y2="325.93" gradientTransform="matrix(-1, 0, 0, 1, 3332.48, 0)" xlink:href="#linear-gradient-51"/><linearGradient id="linear-gradient-66" x1="243.57" y1="188.49" x2="423" y2="188.49" gradientUnits="userSpaceOnUse"><stop offset="0" stop-color="#311944"/><stop offset="1" stop-color="#a03976"/></linearGradient><linearGradient id="linear-gradient-67" x1="250.69" y1="185.84" x2="429.3" y2="185.84" xlink:href="#linear-gradient-5"/><linearGradient id="linear-gradient-68" x1="-20.41" y1="522.22" x2="119.86" y2="522.22" gradientTransform="matrix(-0.98, 0.2, 0.2, 0.98, 92.1, -42.94)" gradientUnits="userSpaceOnUse"><stop offset="0" stop-color="#444b8c"/><stop offset="1" stop-color="#26264f"/></linearGradient><linearGradient id="linear-gradient-69" x1="-149.78" y1="477.94" x2="-5.05" y2="477.94" xlink:href="#linear-gradient-68"/><linearGradient id="linear-gradient-70" x1="-8412.37" y1="1605.94" x2="-8485.25" y2="1524.34" gradientTransform="translate(8800.34 1532.25) rotate(17.83)" xlink:href="#linear-gradient-68"/><linearGradient id="linear-gradient-71" x1="-8490.35" y1="1646.5" x2="-8454.66" y2="1503.9" gradientTransform="translate(8800.34 1532.25) rotate(17.83)" xlink:href="#linear-gradient-68"/></defs><g class="cls-3"><g id="Layer_1" data-name="Layer 1"><path class="cls-4" d="M529.67,176.59c-7.66-10.24-73.25-95-179.56-90.83-5.32.21-109,5.56-147.25,72-28.29,49.12,1.66,92.7-32.85,126.17-30.07,29.16-67,9.86-85.51,33.44-28.15,35.92,16.68,132.94,85.56,187,71.12,55.87,207.18,96.85,312.93,22.32C601.72,443,600.52,271.31,529.67,176.59Z" transform="translate(-75.97 -85.61)"/><path class="cls-1" d="M360.48,480.54c-15.63-14.66-36.25-38.48-45.58-72.16-12.24-44.17,5.69-66.5,3.67-141.28-1.28-47.28-2.65-80.27-26.48-97.91-18.68-13.83-48.93-16.58-67.28-3.76-15.26,10.65-24.09,33.32-26.79,49.5-2.19,13.18-.43,22.75-8,29.7-7.77,7.1-16.15,3.08-23.41,8.33-14.73,10.67-6.2,46-4.83,51.69,15.34,63.49,73.84,106.31,99.58,124.68A395.69,395.69,0,0,0,360.48,480.54Z" transform="translate(-75.97 -85.61)"/><g class="cls-5"><g class="cls-6"><path class="cls-7" d="M378.35,492.24c-27.24-10.35-50.7-22.7-69.7-36.71C280.51,434.8,263,411,256.57,384.74c-5-20.52-3.16-42.76-.8-70.92,2-23.34,5.44-39.7,8.52-54.12,4-18.7,7.14-33.47,4.95-54.82-2.22-21.69-9.38-43.27-21.27-64.12l1.07-.61c12,21,19.19,42.74,21.43,64.6,2.2,21.55-1,36.4-5,55.2-3.08,14.4-6.56,30.71-8.51,54-2.44,29.14-4.2,50.2.78,70.52,6.35,26,23.72,49.54,51.61,70.1,18.91,13.94,42.27,26.24,69.41,36.55Z" transform="translate(-75.97 -85.61)"/><path class="cls-7" d="M257.84,297.46l-.19-.67c-12.59-42.22-35.17-68.64-51.91-83.37-18.12-15.94-33.43-22-33.58-22l.45-1.15c.15.06,15.67,6.18,33.95,22.26,16.76,14.76,39.36,41.16,52.06,83.27a112,112,0,0,0,30.11-22.31c14.11-14.53,31.11-39.89,32-78.2l1.23,0c-.92,38.73-18.13,64.37-32.4,79.06-15.47,15.92-30.94,22.78-31.1,22.84Z" transform="translate(-75.97 -85.61)"/><path class="cls-7" d="M254.31,360.46l-.43-.12c-20.54-6-43.85-29.67-69.29-70.27a566.23,566.23,0,0,1-32.11-59.25l1.13-.51a564.13,564.13,0,0,0,32,59.12C202.92,317,228.73,351.37,253.8,359a323.46,323.46,0,0,1,35.08-41.69c19.91-19.53,66.25-26.28,66.72-26.34l.17,1.22c-.46.06-46.4,6.75-66,26a320.84,320.84,0,0,0-35.17,41.86Z" transform="translate(-75.97 -85.61)"/><path class="cls-7" d="M301,449.8l-1.23-.14c-.23,0-23.32-2.86-53.49-13.38-27.84-9.71-67.6-28.15-98.85-60.84L87.13,312.31l.89-.86,60.34,63.13c31.07,32.51,70.63,50.86,98.34,60.53a291.57,291.57,0,0,0,52,13.16c-6.46-11.7-8.79-23.91-6.94-36.32,1.53-10.21,5.89-20.56,12.95-30.77a125.54,125.54,0,0,1,28.06-28.52l.7,1a124.45,124.45,0,0,0-27.76,28.24c-6.95,10-11.23,20.22-12.73,30.24-1.87,12.5.62,24.81,7.4,36.59Z" transform="translate(-75.97 -85.61)"/></g></g><path class="cls-2" d="M276.54,479.51c-33.84.29-77-4.17-118.34-22.79-10.56-4.75-75.75-34.09-68.11-63.78,2.69-10.45,12.15-12.12,16-26,4.55-16.49-5.81-24.71-13-45.24-4.31-12.24-16.89-48.09,4.56-68,12.82-11.89,37.22-17.55,55.8-13.24,27.26,6.31,36.68,32.82,51.83,77.94,13.43,40,10,49.83,20.2,78.47C233,418.1,247.21,447.36,276.54,479.51Z" transform="translate(-75.97 -85.61)"/><g class="cls-8"><g class="cls-6"><path class="cls-7" d="M361.2,497.65a203.28,203.28,0,0,1-47.47-5.55c-45.69-10.93-85.33-38.2-117.83-81-33.79-44.53-51.4-94.75-60.22-129-6.15-23.89-5-50.33,3.34-78.59l1.18.35c-8.3,28-9.42,54.26-3.33,77.93,8.8,34.18,26.35,84.23,60,128.6C229.21,452.92,268.62,480,314,490.9c34.09,8.16,70.15,7.26,107.19-2.67l.32,1.19A232.84,232.84,0,0,1,361.2,497.65Z" transform="translate(-75.97 -85.61)"/><path class="cls-7" d="M160,349.68l-.46-.3c-73-47.05-72.38-101.31-70.45-116.82,0-.3.07-.5.07-.59h1.23a4.54,4.54,0,0,1-.07.76C88.41,248,87.79,301.45,159.73,348a140.37,140.37,0,0,0,16.7-29.34c7-16.5,13.79-41.79,6.68-68.54l1.2-.32c7.19,27.1.3,52.69-6.76,69.38a138.55,138.55,0,0,1-17.2,30Z" transform="translate(-75.97 -85.61)"/><path class="cls-7" d="M168.14,412.7c-29.08,0-49.4-7.59-62.25-14.91a88.18,88.18,0,0,1-19.68-15.1,49.06,49.06,0,0,1-6-7.35l1-.65c.08.11,7.59,11.94,25.38,22.06,29.62,16.87,64.59,16.2,88.83,12.64,1.72-3.84,19-43.88,14.85-97.45L205.88,255l1.23-.09,4.38,56.91c4.34,56.42-14.91,97.95-15.1,98.36l-.14.3-.33.05A189,189,0,0,1,168.14,412.7Z" transform="translate(-75.97 -85.61)"/></g></g><path class="cls-9" d="M376.39,497.21v12.71h0c.78,7.67,32.85,21.75,79.43,22,68.5.38,91.63-14.91,92.7-22.74h0V497.48Z" transform="translate(-75.97 -85.61)"/><path class="cls-10" d="M548.57,497.53c0,7.89-39.52,14.13-87.48,13.93-47.11-.2-84.7-6.56-84.7-14.2s37.59-13.89,84.7-13.94C509.05,483.27,548.57,489.63,548.57,497.53Z" transform="translate(-75.97 -85.61)"/><path class="cls-11" d="M547.9,496.57c0,7.83-39.22,14-86.82,13.85-46.78-.18-84.1-6.48-84.1-14.07s37.32-13.8,84.1-13.86C508.68,482.43,547.9,488.73,547.9,496.57Z" transform="translate(-75.97 -85.61)"/><polygon class="cls-12" points="472.6 423.57 472.6 411.87 300.42 411.6 300.42 424.3 472.6 423.57"/><path class="cls-10" d="M548.57,497.53c0,7.89-39.52,14.13-87.48,13.93-47.11-.2-84.7-6.56-84.7-14.2s37.59-13.89,84.7-13.94C509.05,483.27,548.57,489.63,548.57,497.53Z" transform="translate(-75.97 -85.61)"/><path class="cls-13" d="M547.9,496.57c0,7.83-39.22,14-86.82,13.85-46.78-.18-84.1-6.48-84.1-14.07s37.32-13.8,84.1-13.86C508.68,482.43,547.9,488.73,547.9,496.57Z" transform="translate(-75.97 -85.61)"/><path class="cls-14" d="M376.39,473.13v12.71h0c.78,7.67,32.85,21.08,79.43,20.84,73.82-.38,91.63-13.74,92.7-21.57h0V473.4Z" transform="translate(-75.97 -85.61)"/><path class="cls-15" d="M548.57,473.45c0,7.9-39.52,14.13-87.48,13.93-47.11-.2-84.7-6.55-84.7-14.2s37.59-13.89,84.7-13.94C509.05,459.19,548.57,465.55,548.57,473.45Z" transform="translate(-75.97 -85.61)"/><path class="cls-16" d="M547.9,472.49c0,7.83-39.22,14-86.82,13.85-46.78-.18-84.1-6.48-84.1-14.07s37.32-13.8,84.1-13.86C508.68,458.35,547.9,464.65,547.9,472.49Z" transform="translate(-75.97 -85.61)"/><polygon class="cls-17" points="472.6 399.49 472.6 387.79 300.42 387.52 300.42 400.22 472.6 399.49"/><path class="cls-15" d="M548.57,473.45c0,7.9-39.52,14.13-87.48,13.93-47.11-.2-84.7-6.55-84.7-14.2s37.59-13.89,84.7-13.94C509.05,459.19,548.57,465.55,548.57,473.45Z" transform="translate(-75.97 -85.61)"/><path class="cls-18" d="M547.9,472.49c0,7.83-39.22,14-86.82,13.85-46.78-.18-84.1-6.48-84.1-14.07s37.32-13.8,84.1-13.86C508.68,458.35,547.9,464.65,547.9,472.49Z" transform="translate(-75.97 -85.61)"/><path class="cls-19" d="M376.39,449v12.7h0c.78,7.67,32.85,21.09,79.43,20.85,73.82-.38,91.63-13.75,92.7-21.58h0V449.26Z" transform="translate(-75.97 -85.61)"/><path class="cls-20" d="M548.57,449.31c0,7.9-39.52,14.13-87.48,13.93-47.11-.2-84.7-6.55-84.7-14.2s37.59-13.88,84.7-13.93C509.05,435.05,548.57,441.41,548.57,449.31Z" transform="translate(-75.97 -85.61)"/><path class="cls-21" d="M547.9,448.35c0,7.84-39.22,14-86.82,13.86C414.3,462,377,455.72,377,448.13s37.32-13.79,84.1-13.86C508.68,434.21,547.9,440.51,547.9,448.35Z" transform="translate(-75.97 -85.61)"/><polygon class="cls-22" points="472.6 375.35 472.6 363.65 300.42 363.38 300.42 376.09 472.6 375.35"/><path class="cls-20" d="M548.57,449.31c0,7.9-39.52,14.13-87.48,13.93-47.11-.2-84.7-6.55-84.7-14.2s37.59-13.88,84.7-13.93C509.05,435.05,548.57,441.41,548.57,449.31Z" transform="translate(-75.97 -85.61)"/><path class="cls-23" d="M547.9,448.35c0,7.84-39.22,14-86.82,13.86C414.3,462,377,455.72,377,448.13s37.32-13.79,84.1-13.86C508.68,434.21,547.9,440.51,547.9,448.35Z" transform="translate(-75.97 -85.61)"/><path class="cls-24" d="M376.39,424.86v12.7h0c.78,7.67,32.85,21.09,79.43,20.85,73.82-.38,91.63-13.75,92.7-21.58h0V425.12Z" transform="translate(-75.97 -85.61)"/><path class="cls-25" d="M548.57,425.17c0,7.9-39.52,14.13-87.48,13.93-47.11-.19-84.7-6.55-84.7-14.2S414,411,461.09,411C509.05,410.91,548.57,417.27,548.57,425.17Z" transform="translate(-75.97 -85.61)"/><path class="cls-26" d="M547.9,424.21c0,7.84-39.22,14-86.82,13.86C414.3,437.89,377,431.59,377,424s37.32-13.79,84.1-13.86C508.68,410.07,547.9,416.37,547.9,424.21Z" transform="translate(-75.97 -85.61)"/><polygon class="cls-27" points="472.6 351.22 472.6 339.51 300.42 339.24 300.42 351.95 472.6 351.22"/><path class="cls-25" d="M548.57,425.17c0,7.9-39.52,14.13-87.48,13.93-47.11-.19-84.7-6.55-84.7-14.2S414,411,461.09,411C509.05,410.91,548.57,417.27,548.57,425.17Z" transform="translate(-75.97 -85.61)"/><path class="cls-28" d="M547.9,424.21c0,7.84-39.22,14-86.82,13.86C414.3,437.89,377,431.59,377,424s37.32-13.79,84.1-13.86C508.68,410.07,547.9,416.37,547.9,424.21Z" transform="translate(-75.97 -85.61)"/><path class="cls-29" d="M376.39,400.72v12.7h0c.78,7.66,32.85,21.08,79.43,20.84,73.82-.38,91.63-13.75,92.7-21.58h0V401Z" transform="translate(-75.97 -85.61)"/><path class="cls-30" d="M548.57,401c0,7.9-39.52,14.14-87.48,13.94-47.11-.2-84.7-6.56-84.7-14.2s37.59-13.89,84.7-13.94C509.05,386.78,548.57,393.14,548.57,401Z" transform="translate(-75.97 -85.61)"/><path class="cls-31" d="M547.9,400.07c0,7.84-39.22,14-86.82,13.86-46.78-.18-84.1-6.48-84.1-14.07s37.32-13.8,84.1-13.86C508.68,385.93,547.9,392.23,547.9,400.07Z" transform="translate(-75.97 -85.61)"/><polygon class="cls-32" points="472.6 327.08 472.6 315.37 300.42 315.11 300.42 327.81 472.6 327.08"/><path class="cls-30" d="M548.57,401c0,7.9-39.52,14.14-87.48,13.94-47.11-.2-84.7-6.56-84.7-14.2s37.59-13.89,84.7-13.94C509.05,386.78,548.57,393.14,548.57,401Z" transform="translate(-75.97 -85.61)"/><path class="cls-33" d="M547.9,400.07c0,7.84-39.22,14-86.82,13.86-46.78-.18-84.1-6.48-84.1-14.07s37.32-13.8,84.1-13.86C508.68,385.93,547.9,392.23,547.9,400.07Z" transform="translate(-75.97 -85.61)"/><path class="cls-34" d="M376.39,376.58v12.71h0c.78,7.66,32.85,21.08,79.43,20.84,73.82-.38,91.63-13.74,92.7-21.58h0v-11.7Z" transform="translate(-75.97 -85.61)"/><path class="cls-35" d="M548.57,376.9c0,7.89-39.52,14.13-87.48,13.93-47.11-.2-84.7-6.56-84.7-14.2s37.59-13.89,84.7-13.94C509.05,362.64,548.57,369,548.57,376.9Z" transform="translate(-75.97 -85.61)"/><path class="cls-36" d="M547.9,375.93c0,7.84-39.22,14-86.82,13.86-46.78-.18-84.1-6.48-84.1-14.07s37.32-13.8,84.1-13.86C508.68,361.79,547.9,368.1,547.9,375.93Z" transform="translate(-75.97 -85.61)"/><polygon class="cls-37" points="472.6 302.94 472.6 291.23 300.42 290.97 300.42 303.67 472.6 302.94"/><path class="cls-35" d="M548.57,376.9c0,7.89-39.52,14.13-87.48,13.93-47.11-.2-84.7-6.56-84.7-14.2s37.59-13.89,84.7-13.94C509.05,362.64,548.57,369,548.57,376.9Z" transform="translate(-75.97 -85.61)"/><path class="cls-38" d="M547.9,375.93c0,7.84-39.22,14-86.82,13.86-46.78-.18-84.1-6.48-84.1-14.07s37.32-13.8,84.1-13.86C508.68,361.79,547.9,368.1,547.9,375.93Z" transform="translate(-75.97 -85.61)"/><path class="cls-39" d="M376.39,352.44v12.71h0c.78,7.67,32.85,21.08,79.43,20.84,73.82-.38,91.63-13.74,92.7-21.57h0V352.71Z" transform="translate(-75.97 -85.61)"/><path class="cls-40" d="M548.57,352.76c0,7.89-39.52,14.13-87.48,13.93-47.11-.2-84.7-6.56-84.7-14.2s37.59-13.89,84.7-13.94C509.05,338.5,548.57,344.86,548.57,352.76Z" transform="translate(-75.97 -85.61)"/><path class="cls-41" d="M547.9,351.8c0,7.83-39.22,14-86.82,13.85-46.78-.18-84.1-6.48-84.1-14.07s37.32-13.8,84.1-13.86C508.68,337.66,547.9,344,547.9,351.8Z" transform="translate(-75.97 -85.61)"/><polygon class="cls-42" points="472.6 278.8 472.6 267.1 300.42 266.83 300.42 279.53 472.6 278.8"/><path class="cls-40" d="M548.57,352.76c0,7.89-39.52,14.13-87.48,13.93-47.11-.2-84.7-6.56-84.7-14.2s37.59-13.89,84.7-13.94C509.05,338.5,548.57,344.86,548.57,352.76Z" transform="translate(-75.97 -85.61)"/><path class="cls-43" d="M547.9,351.8c0,7.83-39.22,14-86.82,13.85-46.78-.18-84.1-6.48-84.1-14.07s37.32-13.8,84.1-13.86C508.68,337.66,547.9,344,547.9,351.8Z" transform="translate(-75.97 -85.61)"/><path class="cls-44" d="M559.51,531,96.8,527v11.83c0,3.22,2,6,4.75,6.43l130.84,23.31a18,18,0,0,0,4.69.22l317.4-26.57c2.84-.24,5-3,5-6.28Z" transform="translate(-75.97 -85.61)"/><path class="cls-44" d="M389.23,512,95.14,533.64a8.91,8.91,0,0,1-9.54-9.19v-219a9.73,9.73,0,0,1,9.54-9.9l10.4,6,283.69-6c4.34,0,7.84,4,7.84,8.95v198C397.07,507.41,393.57,511.68,389.23,512Z" transform="translate(-75.97 -85.61)"/><path class="cls-7" d="M393.92,512,99.83,533.64a8.9,8.9,0,0,1-9.54-9.19v-219a9.72,9.72,0,0,1,9.54-9.9H393.92c4.34,0,7.84,4,7.84,8.95v198C401.76,507.41,398.26,511.68,393.92,512Z" transform="translate(-75.97 -85.61)"/><path class="cls-45" d="M384.76,498l-273.92,18.8a7.3,7.3,0,0,1-7.76-7.54V317.56a8,8,0,0,1,7.76-8.12l273.92-1.18c3.58,0,6.47,3.27,6.47,7.34V490.23C391.23,494.3,388.34,497.79,384.76,498Z" transform="translate(-75.97 -85.61)"/><g class="cls-46"><polygon class="cls-47" points="132.02 241.82 58.1 242.02 58.09 234.97 132.01 234.99 132.02 241.82"/><polygon class="cls-47" points="166.83 239.78 149.75 239.81 149.75 235 166.82 235 166.83 239.78"/><polygon class="cls-47" points="166.84 246.42 149.76 246.5 149.76 241.69 166.84 241.65 166.84 246.42"/><polygon class="cls-7" points="251.94 246.03 185.69 246.34 185.69 241.6 251.94 241.43 251.94 246.03"/><polygon class="cls-7" points="262.82 252.34 197.23 252.84 197.22 248.12 262.81 247.76 262.82 252.34"/><polygon class="cls-7" points="262.83 258.71 197.24 259.39 197.23 254.67 262.82 254.13 262.83 258.71"/><polygon class="cls-47" points="262.84 265.07 197.25 265.94 197.24 261.23 262.83 260.49 262.84 265.07"/><polygon class="cls-47" points="166.85 253.07 149.78 253.19 149.77 248.38 166.84 248.29 166.85 253.07"/><polygon class="cls-47" points="166.86 259.71 149.79 259.88 149.78 255.07 166.85 254.93 166.86 259.71"/><polygon class="cls-47" points="166.87 266.35 149.8 266.57 149.79 261.76 166.87 261.57 166.87 266.35"/><polygon class="cls-47" points="166.88 272.99 149.81 273.27 149.8 268.45 166.88 268.21 166.88 272.99"/><polygon class="cls-47" points="212.64 272.25 170.61 272.93 170.6 268.16 212.64 267.56 212.64 272.25"/><polygon class="cls-47" points="166.89 279.63 149.82 279.96 149.81 275.14 166.89 274.85 166.89 279.63"/><polygon class="cls-47" points="166.9 286.27 149.83 286.65 149.82 281.83 166.9 281.49 166.9 286.27"/><polygon class="cls-47" points="166.91 292.91 149.84 293.34 149.83 288.52 166.91 288.13 166.91 292.91"/><polygon class="cls-7" points="232.35 278.38 185.74 279.27 185.74 274.53 232.34 273.74 232.35 278.38"/><polygon class="cls-47" points="256.57 284.3 197.28 285.6 197.27 280.89 256.56 279.71 256.57 284.3"/><polygon class="cls-47" points="256.58 290.68 197.29 292.16 197.28 287.44 256.57 286.09 256.58 290.68"/><polygon class="cls-47" points="166.92 299.55 149.85 300.03 149.84 295.21 166.92 294.77 166.92 299.55"/><polygon class="cls-47" points="166.94 306.19 149.86 306.72 149.85 301.9 166.93 301.41 166.94 306.19"/><polygon class="cls-47" points="166.94 312.83 149.87 313.41 149.86 308.59 166.94 308.06 166.94 312.83"/><polygon class="cls-47" points="166.96 319.48 149.88 320.1 149.87 315.28 166.95 314.7 166.96 319.48"/><polygon class="cls-47" points="166.97 326.12 149.89 326.79 149.88 321.97 166.96 321.34 166.97 326.12"/><polygon class="cls-47" points="166.98 332.76 149.9 333.48 149.89 328.66 166.97 327.98 166.98 332.76"/><polygon class="cls-47" points="166.99 339.4 149.91 340.17 149.9 335.36 166.98 334.62 166.99 339.4"/><polygon class="cls-47" points="167 346.04 149.92 346.86 149.91 342.05 166.99 341.26 167 346.04"/><polygon class="cls-47" points="167.01 352.68 149.93 353.55 149.92 348.74 167 347.9 167.01 352.68"/><polygon class="cls-47" points="167.02 359.32 149.94 360.24 149.93 355.43 167.01 354.54 167.02 359.32"/><polygon class="cls-47" points="167.03 365.96 149.95 366.93 149.94 362.12 167.02 361.18 167.03 365.96"/><polygon class="cls-47" points="167.04 372.61 149.96 373.62 149.95 368.81 167.03 367.82 167.04 372.61"/><polygon class="cls-47" points="167.05 379.25 149.97 380.31 149.97 375.5 167.04 374.47 167.05 379.25"/><polygon class="cls-47" points="167.06 385.89 149.98 387 149.97 382.19 167.05 381.11 167.06 385.89"/><polygon class="cls-47" points="167.07 392.53 149.99 393.69 149.99 388.88 167.06 387.75 167.07 392.53"/><polygon class="cls-47" points="167.08 399.17 150 400.38 150 395.57 167.07 394.39 167.08 399.17"/><polygon class="cls-47" points="167.09 405.81 150.01 407.07 150.01 402.26 167.08 401.03 167.09 405.81"/><polygon class="cls-47" points="167.1 412.45 150.02 413.76 150.02 408.95 167.09 407.67 167.1 412.45"/><polygon class="cls-7" points="217.02 239.69 170.44 239.78 170.44 235 217.01 235.02 217.02 239.69"/><polygon class="cls-47" points="252.14 373.93 185.9 378.07 185.89 373.33 252.13 369.33 252.14 373.93"/><polygon class="cls-7" points="263.01 379.62 197.43 383.9 197.42 379.19 263.01 375.04 263.01 379.62"/><polygon class="cls-7" points="263.02 385.98 197.44 390.45 197.43 385.74 263.02 381.4 263.02 385.98"/><polygon class="cls-7" points="291.3 390.33 227.41 394.88 227.4 390.22 291.29 385.81 291.3 390.33"/><polygon class="cls-47" points="291.31 396.61 227.42 401.34 227.41 396.69 291.3 392.09 291.31 396.61"/><polygon class="cls-47" points="291.32 402.89 227.43 407.81 227.42 403.16 291.31 398.37 291.32 402.89"/><polygon class="cls-7" points="217.22 369.62 170.65 372.39 170.64 367.62 217.21 364.94 217.22 369.62"/><polygon class="cls-7" points="252.03 303.58 185.78 305.62 185.78 300.88 252.03 298.98 252.03 303.58"/><polygon class="cls-47" points="262.91 309.62 197.32 311.82 197.31 307.1 262.9 305.04 262.91 309.62"/><polygon class="cls-7" points="262.92 315.98 197.33 318.37 197.32 313.65 262.91 311.4 262.92 315.98"/><polygon class="cls-7" points="262.93 322.34 197.34 324.92 197.33 320.21 262.92 317.76 262.93 322.34"/><polygon class="cls-7" points="212.73 330.83 170.7 332.6 170.69 327.83 212.73 326.14 212.73 330.83"/><polygon class="cls-47" points="232.44 336.45 185.84 338.55 185.83 333.81 232.43 331.8 232.44 336.45"/><polygon class="cls-47" points="256.66 341.74 197.37 344.58 197.36 339.87 256.65 337.14 256.66 341.74"/><polygon class="cls-7" points="256.67 348.12 197.38 351.14 197.37 346.42 256.66 343.52 256.67 348.12"/><polygon class="cls-7" points="269.82 353.79 211.25 356.94 211.24 352.26 269.81 349.23 269.82 353.79"/><polygon class="cls-7" points="269.83 360.14 211.25 363.46 211.25 358.77 269.82 355.57 269.83 360.14"/><polygon class="cls-7" points="217.11 298.16 170.53 299.45 170.53 294.68 217.1 293.48 217.11 298.16"/><polygon class="cls-47" points="132.04 252.5 89.73 252.8 89.72 245.85 132.03 245.67 132.04 252.5"/><polygon class="cls-47" points="78.78 252.88 86.75 252.82 86.74 245.86 78.77 245.89 78.78 252.88"/><polygon class="cls-47" points="132.05 262.32 89.74 262.8 89.73 255.84 132.04 255.49 132.05 262.32"/><polygon class="cls-47" points="78.8 262.93 86.77 262.83 86.76 255.87 78.79 255.94 78.8 262.93"/><polygon class="cls-47" points="132.07 272.14 89.76 272.8 89.75 265.84 132.06 265.31 132.07 272.14"/><polygon class="cls-47" points="78.81 272.97 86.78 272.85 86.77 265.88 78.8 265.98 78.81 272.97"/><polygon class="cls-47" points="132.18 341.85 58.26 345.21 58.25 338.16 132.17 335.02 132.18 341.85"/><polygon class="cls-47" points="132.19 352.52 89.88 354.64 89.87 347.69 132.18 345.69 132.19 352.52"/><polygon class="cls-47" points="78.94 355.19 86.91 354.79 86.9 347.82 78.93 348.2 78.94 355.19"/><polygon class="cls-47" points="132.21 362.34 89.9 364.64 89.89 357.68 132.2 355.51 132.21 362.34"/><polygon class="cls-47" points="78.96 365.23 86.92 364.8 86.91 357.84 78.94 358.25 78.96 365.23"/><polygon class="cls-47" points="132.22 372.16 89.91 374.64 89.9 367.68 132.21 365.33 132.22 372.16"/><polygon class="cls-47" points="78.97 375.28 86.94 374.81 86.93 367.85 78.96 368.29 78.97 375.28"/><polygon class="cls-47" points="132.08 282.03 58.16 283.49 58.15 276.44 132.07 275.19 132.08 282.03"/><polygon class="cls-47" points="132.1 292.7 89.79 293.73 89.78 286.78 132.09 285.87 132.1 292.7"/><polygon class="cls-47" points="78.85 294 86.81 293.81 86.8 286.84 78.83 287.01 78.85 294"/><polygon class="cls-47" points="132.12 302.52 89.81 303.73 89.79 296.78 132.1 295.69 132.12 302.52"/><polygon class="cls-47" points="78.86 304.05 86.83 303.82 86.82 296.85 78.85 297.06 78.86 304.05"/><polygon class="cls-47" points="132.15 322.29 89.84 323.86 89.83 316.9 132.14 315.46 132.15 322.29"/><polygon class="cls-47" points="78.89 324.27 86.86 323.97 86.85 317.01 78.88 317.28 78.89 324.27"/><polygon class="cls-47" points="132.16 332.11 89.85 333.86 89.84 326.9 132.15 325.28 132.16 332.11"/><polygon class="cls-47" points="78.91 334.31 86.88 333.98 86.87 327.02 78.9 327.32 78.91 334.31"/><polygon class="cls-47" points="132.13 312.34 89.82 313.73 89.81 306.78 132.12 305.51 132.13 312.34"/><polygon class="cls-47" points="78.88 314.09 86.84 313.83 86.83 306.87 78.87 307.1 78.88 314.09"/><polygon class="cls-47" points="132.24 381.98 58.32 386.62 58.31 379.57 132.23 375.15 132.24 381.98"/><polygon class="cls-47" points="132.25 392.65 89.95 395.5 89.94 388.55 132.24 385.82 132.25 392.65"/><polygon class="cls-47" points="79 396.24 86.97 395.7 86.96 388.74 78.99 389.25 79 396.24"/><polygon class="cls-47" points="132.27 402.48 89.96 405.5 89.95 398.54 132.26 395.64 132.27 402.48"/><polygon class="cls-47" points="79.02 406.28 86.99 405.71 86.98 398.75 79.01 399.3 79.02 406.28"/><polygon class="cls-47" points="132.28 412.3 89.98 415.5 89.97 408.54 132.28 405.46 132.28 412.3"/><polygon class="cls-47" points="79.03 416.33 87 415.72 86.99 408.76 79.02 409.34 79.03 416.33"/><polygon class="cls-47" points="141.27 411.65 139.64 411.77 139.37 235 140.99 235 141.27 411.65"/></g><path class="cls-7" d="M257.26,301.54a3.4,3.4,0,1,1-3.38-3.68A3.55,3.55,0,0,1,257.26,301.54Z" transform="translate(-75.97 -85.61)"/><path class="cls-48" d="M99.83,533.64l292.6-21.54,1.49-.1a7.88,7.88,0,0,0,5.18-2.63C378,508.22,365,500.75,356.53,493c-16.94-15.51-14-30.8-32.27-41-22.79-12.72-40.71,3.39-58-12.5-10.49-9.64-5.34-16.83-18.24-31.23-14.29-15.95-23.59-10.59-38-24.95-18.15-18.15-9.07-32.28-24.71-45.31-19-15.81-39.44-1.18-57.5-16.34-7.79-6.54-12.06-16-14.29-26.16H99.83a9.72,9.72,0,0,0-9.54,9.9v219A8.9,8.9,0,0,0,99.83,533.64Z" transform="translate(-75.97 -85.61)"/><path class="cls-49" d="M407.78,510.79l-311,22.79,135.59,24.15a18,18,0,0,0,4.69.22l322.43-27L412.72,511A24,24,0,0,0,407.78,510.79Z" transform="translate(-75.97 -85.61)"/><polygon class="cls-45" points="66.2 448.16 325.11 428.91 405.23 439.75 148.56 460.33 66.2 448.16"/><path class="cls-50" d="M445.67,256.18c-2.7-1.75-.24-6.83-.1-17.76.18-13.38-3.38-15.88-.52-21.13,3.49-6.42,12.28-9.08,18.11-9.21,1.28,0,1.58-.72,12.34,2.06,19.39,5,24.24-.36,32.92,5,8.39,5.19,4.72,10.88,12.86,17,13.2,9.88,27.09-.8,36.52,7.46,8.93,7.81,9.13,27.72-.25,38.58-10.65,12.31-29.84,8.61-42.7,6.17a78.49,78.49,0,0,1-30.6-13.89,81.38,81.38,0,0,1-16.72-16.58,6.06,6.06,0,0,0-3.73-2.19,6.54,6.54,0,0,0-4.37,1.54C455.37,256,448.32,257.9,445.67,256.18Z" transform="translate(-75.97 -85.61)"/><path class="cls-51" d="M456.5,248.84c-3.47-3.15-15.84,2.93-24,11-9.63,9.5-8.89,17.19-17.3,29-4.18,5.87-11.34,13.76-24,20.67l2.7,6.74c6.14.37,18.19.16,29.43-7.19,7.81-5.1,11.83-11.85,19.55-25.16S460.83,252.79,456.5,248.84Z" transform="translate(-75.97 -85.61)"/><path class="cls-52" d="M378.36,429.39l9.66-5.8h4.35s1.49,5.53,1.32,5.8c-1.94,3.18-11,5.61-16.63,5.81-.93,0-2.24,0-2.58-.65C373.91,433.4,376.47,431,378.36,429.39Z" transform="translate(-75.97 -85.61)"/><path class="cls-53" d="M388.19,417.26c.62,3.59-.17,5.46-1,6.51-.6.74-1.13,1-4.67,4-1.16,1-1.76,1.55-1.62,1.83s1.18.15,3.41-.39c4.86-1.16,7.3-1.77,7.89-2.94s.07-1.54.1-4.42a14.72,14.72,0,0,1,.71-4.38Z" transform="translate(-75.97 -85.61)"/><path class="cls-54" d="M381.2,388.78s-4.36,5.21-3.65,10.92,8.35-2.64,9.42-5.46,2.31-6.84,2.31-6.84S383.92,384.07,381.2,388.78Z" transform="translate(-75.97 -85.61)"/><path class="cls-55" d="M382.87,380.64s1.18,6.06-1.07,9.26c-1.13,1.6-2.65,3-2.2,4.25a2.4,2.4,0,0,0,2.4,1.39c1.84-.19,2.86-3,3.58-5,1.06-2.94,1.65-9.23,1.65-9.23Z" transform="translate(-75.97 -85.61)"/><path class="cls-56" d="M386.35,385.75l-4-1.47a45.31,45.31,0,0,1-3.79-22.18c2.19-24.55,24.9-37.56,27.42-39,6.19,3.1,12.45,7.48,12.68,13,.28,6.93-9.16,10.59-18,20.73C395.27,363,389.58,372,386.35,385.75Z" transform="translate(-75.97 -85.61)"/><path class="cls-57" d="M387.79,420.06a97.91,97.91,0,0,1-2-39.59c1.94-12.31,5.87-37.34,22.58-46.68,3.65-2,8.87-3.86,15.23-9.53a54.06,54.06,0,0,0,10.72-13.21c22.35-6.56,43-3.9,52.07,8.08,1.05,1.39,3.68,4.39,4.19,8.82,1.15,10-8.68,22-19.7,24.55-14,3.19-22.13-11.19-34.54-6.41-3.47,1.34-6.41,4.66-12.3,11.29a93.85,93.85,0,0,0-13.29,19.34c-4.74,9.28-8.34,16.13-8.86,25a24,24,0,0,1-2.62,10.75,22.41,22.41,0,0,1-6.25,7.19Z" transform="translate(-75.97 -85.61)"/><path class="cls-58" d="M490.56,328c-.51-4.43-3.14-7.43-4.19-8.82-9.1-12-29.72-14.64-52.07-8.08a54.06,54.06,0,0,1-10.72,13.21c-6.36,5.67-11.58,7.49-15.23,9.53-10.21,5.7-15.64,17.25-18.77,28.19,4.64-7.2,8.62-9.11,11.69-9.15,4.41-.05,6.37,3.72,11.63,3.2,5.62-.54,6.9-5.19,11.46-5.72a8.48,8.48,0,0,1,5.05,1.12c2.69-2.82,4.7-4.48,6.91-5.34,12.41-4.78,20.54,9.6,34.54,6.41C481.88,350,491.71,338,490.56,328Z" transform="translate(-75.97 -85.61)"/><path class="cls-59" d="M399.37,341.54a73.45,73.45,0,0,1,11.13.25C432.8,344,439,355,457.38,357.72c4.36.64,23.78,3.47,32.19-7.75,6-8.06,5.12-21.94-1.48-27.4-2.8-2.32-5.56-2.25-23.46-2.09-6.74.06-13.48.08-20.22.17-28.53.36-34-1.61-39.18,3.11C402.81,326,399.27,330.69,399.37,341.54Z" transform="translate(-75.97 -85.61)"/><path class="cls-60" d="M459.6,250s33.3-9.71,36.75,14.67c3.31,23.36-13.65,34.08-5.93,57.74.89,2.74-63.38-9.82-63.38-9.82,8.58-10.71,10.58-19.54,10.78-25.68.23-6.73-1.71-9.79,0-17.74a40,40,0,0,1,8.82-16.5C447.63,251.57,448.81,250.43,459.6,250Z" transform="translate(-75.97 -85.61)"/><path class="cls-61" d="M466.83,235.39c-.3,1.43-1.85,9.08,1.28,11,.67.43,2,.67,4.58,1.16,1.71.32,3.14.52,4.15.64a10.52,10.52,0,0,1-2.06,5.27c-4.14,5.32-12.46,3.94-13.65,3.72-4.18-.76-8.3-2.05-9.29-2.84a21.76,21.76,0,0,1-3.41-3c1.62-.78,4.89-2.85,7.08-3.52a40,40,0,0,1,4.58-1.13l.69-4.43Q463.81,238.85,466.83,235.39Z" transform="translate(-75.97 -85.61)"/><path class="cls-62" d="M467,239.21s-.56,5.6-6,6.59c-4.88.88-8.55-10.9-6.05-14a6.53,6.53,0,0,1,4.67-1.94c1.25,0,5.48,1.65,6.07,5.89.85-.89,1.9-1.15,2.41-.77.66.47.31,1.84.23,2.15A4,4,0,0,1,467,239.21Z" transform="translate(-75.97 -85.61)"/><path class="cls-63" d="M420.26,315.32l50.95,2.48a2.18,2.18,0,0,1,1.72,1l1.41,2.26a1.66,1.66,0,0,1-1.47,2.53l-54-2.06Z" transform="translate(-75.97 -85.61)"/><path class="cls-64" d="M367.26,287l52.64,1a4.43,4.43,0,0,1,3.76,2.23l18.23,32.07-55.6-2.21a4.51,4.51,0,0,1-3.7-2.2L365.7,289.65A1.78,1.78,0,0,1,367.26,287Z" transform="translate(-75.97 -85.61)"/><path class="cls-65" d="M423.66,290.2A4.43,4.43,0,0,0,419.9,288l-1.15,0a8.14,8.14,0,0,1-1.73,4.5c-3.25,3.92-8.64,1.51-12.66,5.65-4.42,4.56-.34,10-4.29,14.22-4.15,4.46-10.87.83-18.59,3.68l1.11,1.86a4.51,4.51,0,0,0,3.7,2.2l55.6,2.21Z" transform="translate(-75.97 -85.61)"/><path class="cls-66" d="M467.06,313.62l-2-5.25c7.33-2,17.47-5,27.87-8.7,1.63-.58,3.56-1.3,4.19-3,1.78-4.81-9.52-9.79-13.92-20.29-4.06-9.71-1.82-23.18,2.89-24.77,9.82-3.31,44.62,40,32.19,58.27C511.26,320.2,489.6,321.84,467.06,313.62Z" transform="translate(-75.97 -85.61)"/><path class="cls-67" d="M465.07,308.37c-4.6-2.45-10.11.06-10.46.23a13.48,13.48,0,0,0-4,2.84c-.17.23-2.17,3-1.44,3.88.58.71,2.84.12,5.55-1.56a20.87,20.87,0,0,1,4.86-.12c3.73.34,5.43,1.52,6.78.5a3.34,3.34,0,0,0,1-3.48A4.1,4.1,0,0,0,465.07,308.37Z" transform="translate(-75.97 -85.61)"/><g class="cls-3"><path class="cls-68" d="M345.57,134.6c19.71,1.05,36.18,19.19,37,40.51a41.8,41.8,0,0,1-.18,5.95,25.3,25.3,0,0,1,11-2c15.76.61,28.94,15.16,29.61,32.49.63,16.47-10.24,29.76-24.81,30.82-.77,0-1.55.08-2.33.06l-137.29-2.82c-8.13-1.71-14.57-9.28-15-18.26-.42-10.12,7-18.1,16.6-17.82a16.85,16.85,0,0,1,5.78,1.2A45.27,45.27,0,0,1,264.5,195c-.95-22.92,15.75-40.73,37-39.76a37.55,37.55,0,0,1,11.32,2.33C317.69,143.33,330.39,133.79,345.57,134.6Z" transform="translate(-75.97 -85.61)"/><path class="cls-69" d="M352.22,132c19.62,1.07,36,19.18,36.85,40.46a41.55,41.55,0,0,1-.19,5.93,25.25,25.25,0,0,1,10.91-2c15.69.63,28.82,15.16,29.48,32.46.63,16.43-10.19,29.68-24.7,30.72-.76,0-1.54.08-2.32.06l-136.67-3c-8.09-1.7-14.5-9.27-14.88-18.22-.42-10.1,7-18.06,16.52-17.77a16.93,16.93,0,0,1,5.76,1.2,45,45,0,0,1-1.46-9.69c-.95-22.87,15.68-40.62,36.86-39.63A37.23,37.23,0,0,1,319.65,155C324.46,140.73,337.1,131.22,352.22,132Z" transform="translate(-75.97 -85.61)"/></g><path class="cls-7" d="M350.55,177.79l-2.46,0a17.24,17.24,0,0,0-.86-3.11l2.13-1.2a1.15,1.15,0,0,0,.44-1.6l-2.1-3.5A1.24,1.24,0,0,0,346,168l-2.16,1.21a18.71,18.71,0,0,0-2.37-2.25l1.25-2.09a1.15,1.15,0,0,0-.44-1.61l-3.66-2a1.26,1.26,0,0,0-1.68.43l-1.26,2.1a20.22,20.22,0,0,0-3.24-.82v-2.42a1.21,1.21,0,0,0-1.23-1.18H327a1.21,1.21,0,0,0-1.23,1.19V163a20.6,20.6,0,0,0-3.27.83l-1.27-2.09a1.26,1.26,0,0,0-1.69-.43l-3.71,2.06a1.16,1.16,0,0,0-.46,1.62l1.27,2.09a20.16,20.16,0,0,0-2.41,2.3l-2.2-1.2a1.29,1.29,0,0,0-1.7.45l-2.16,3.56a1.15,1.15,0,0,0,.46,1.62L310.8,175a17.81,17.81,0,0,0-.88,3.16l-2.53,0a1.23,1.23,0,0,0-1.25,1.2v4.11a1.2,1.2,0,0,0,1.25,1.17l2.51,0a17.68,17.68,0,0,0,.87,3.15L308.62,189a1.17,1.17,0,0,0-.46,1.63l2.16,3.52a1.27,1.27,0,0,0,1.7.42l2.14-1.21a18.82,18.82,0,0,0,2.43,2.29l-1.23,2a1.14,1.14,0,0,0,.46,1.61l3.71,2a1.28,1.28,0,0,0,1.69-.46l1.22-2a19.35,19.35,0,0,0,3.32.79v2.33a1.18,1.18,0,0,0,1.23,1.16l4.26-.07a1.23,1.23,0,0,0,1.23-1.2v-2.32a20,20,0,0,0,3.3-.89l1.2,2a1.25,1.25,0,0,0,1.68.41l3.66-2.09a1.16,1.16,0,0,0,.44-1.61l-1.21-2a18.81,18.81,0,0,0,2.39-2.33l2.1,1.13a1.24,1.24,0,0,0,1.66-.45l2.1-3.53a1.14,1.14,0,0,0-.44-1.6l-2.1-1.14a17.53,17.53,0,0,0,.85-3.14l2.44,0a1.22,1.22,0,0,0,1.22-1.19v-4A1.18,1.18,0,0,0,350.55,177.79Zm-21.43-8.47a12.05,12.05,0,0,1,12.4,11.8,12.33,12.33,0,0,1-12.4,12,12.06,12.06,0,0,1-12.5-11.8A12.32,12.32,0,0,1,329.12,169.32Z" transform="translate(-75.97 -85.61)"/><path class="cls-7" d="M380.58,205.59h-1.82a13.73,13.73,0,0,0-.64-2.3l1.58-.89a.85.85,0,0,0,.33-1.18l-1.56-2.59a.92.92,0,0,0-1.23-.32l-1.6.9a13.94,13.94,0,0,0-1.76-1.67l.93-1.55a.85.85,0,0,0-.33-1.19l-2.71-1.49a.92.92,0,0,0-1.24.32l-.93,1.55a16,16,0,0,0-2.41-.6v-1.8a.89.89,0,0,0-.91-.87h-3.15a.9.9,0,0,0-.92.88v1.8a15.06,15.06,0,0,0-2.42.62l-.94-1.55a.94.94,0,0,0-1.25-.32l-2.75,1.52a.86.86,0,0,0-.34,1.2l.94,1.56a13.62,13.62,0,0,0-1.78,1.7l-1.63-.89a1,1,0,0,0-1.27.33l-1.59,2.64a.85.85,0,0,0,.33,1.2l1.62.88a14,14,0,0,0-.66,2.34H348.6a.91.91,0,0,0-.92.89v3a.88.88,0,0,0,.92.87l1.86,0a13.05,13.05,0,0,0,.65,2.34l-1.6.9a.85.85,0,0,0-.33,1.2l1.59,2.62a1,1,0,0,0,1.27.3l1.58-.89a15.26,15.26,0,0,0,1.8,1.7l-.91,1.51a.85.85,0,0,0,.34,1.2L357.6,223a1,1,0,0,0,1.25-.34l.9-1.5a15.45,15.45,0,0,0,2.46.58v1.73a.89.89,0,0,0,.92.86l3.15-.06a.89.89,0,0,0,.91-.88v-1.72a16.35,16.35,0,0,0,2.45-.66l.89,1.47a.93.93,0,0,0,1.24.3l2.71-1.55a.86.86,0,0,0,.33-1.19l-.89-1.48a15.23,15.23,0,0,0,1.77-1.73l1.55.84a.93.93,0,0,0,1.23-.34L380,214.7a.85.85,0,0,0-.33-1.19l-1.56-.84a14.07,14.07,0,0,0,.64-2.33l1.8,0a.88.88,0,0,0,.9-.87v-3A.87.87,0,0,0,380.58,205.59Zm-15.87-6.28a8.94,8.94,0,0,1,9.18,8.75,9.13,9.13,0,0,1-9.18,8.91,8.94,8.94,0,0,1-9.27-8.74A9.14,9.14,0,0,1,364.71,199.31Z" transform="translate(-75.97 -85.61)"/><path class="cls-70" d="M85.8,514.89,84.71,513a6.07,6.07,0,0,1,2.42-8.44l121-66,6.69,12.52L94.52,517.2A6.51,6.51,0,0,1,85.8,514.89Z" transform="translate(-75.97 -85.61)"/><path class="cls-71" d="M299.44,475.5c-34.52,19.62-78.49,6.83-98.07-29.65-20-37.36-6.44-84.18,30.21-103.43,36-18.91,79.53-3.38,97.45,33.59C346.54,412.14,333.37,456.22,299.44,475.5Zm-5.22-10.25c28.66-16.2,39.75-53.39,24.88-83.81-15.15-31-51.75-43.87-81.87-27.94-30.59,16.17-42,55.3-25.33,86.59C228.23,470.76,265.13,481.68,294.22,465.25Z" transform="translate(-75.97 -85.61)"/><path class="cls-72" d="M208.15,438.61,192.72,447c0,5.48-1.62,8.94-3.45,11.23-6.9,8.61-19.55,3.38-33.38,14.66-6.94,5.66-4.93,7.94-11.63,12.27-11.09,7.17-17.94,1.82-27.72,8.28s-9,16.06-15.23,17c-2.64.4-6.4-.81-11.65-7.25l-2.53,1.38A6.07,6.07,0,0,0,84.71,513l1.09,1.87a6.51,6.51,0,0,0,8.72,2.31l120.32-66.07Z" transform="translate(-75.97 -85.61)"/><path class="cls-73" d="M302.63,478.33c-34.52,19.62-78.49,6.83-98.07-29.65-20-37.36-6.44-84.18,30.21-103.43,36-18.91,79.53-3.38,97.45,33.59C349.73,415,336.56,459.05,302.63,478.33Zm-5.22-10.25c28.66-16.2,39.75-53.39,24.88-83.81-15.15-31-51.75-43.88-81.87-27.94-30.59,16.17-42,55.3-25.33,86.59C231.42,473.59,268.32,484.51,297.41,468.08Z" transform="translate(-75.97 -85.61)"/><path class="cls-74" d="M300.79,474.71c-32.61,18.49-74.07,6.36-92.5-28.07-18.83-35.21-6-79.3,28.48-97.47,33.91-17.85,75-3.28,91.94,31.58C345.3,414.87,332.86,456.52,300.79,474.71Zm-3.38-6.63c28.66-16.2,39.75-53.39,24.88-83.81-15.15-31-51.75-43.88-81.87-27.94-30.59,16.17-42,55.3-25.33,86.59C231.42,473.59,268.32,484.51,297.41,468.08Z" transform="translate(-75.97 -85.61)"/></g></g></svg>