<svg id="Layer_1" data-name="Layer 1" xmlns="http://www.w3.org/2000/svg" xmlns:xlink="http://www.w3.org/1999/xlink" viewBox="0 0 543.83 431.19"><defs><style>.cls-1{fill:#f4f7fa;}.cls-14,.cls-16,.cls-17,.cls-2{fill:none;}.cls-14,.cls-16,.cls-17,.cls-2,.cls-5,.cls-7{stroke:#2c49b8;}.cls-17,.cls-2{stroke-linecap:round;stroke-linejoin:round;}.cls-2{stroke-width:1.46px;stroke-dasharray:4.21;}.cls-3{fill:#dfeeff;}.cls-15,.cls-4{fill:#2c49b8;}.cls-11,.cls-5{fill:#fff;}.cls-14,.cls-16,.cls-5,.cls-7{stroke-miterlimit:10;}.cls-6{fill:#497dff;}.cls-7{fill:#f0f7ff;stroke-width:5px;}.cls-8{fill:#f7caaf;}.cls-23,.cls-9{fill:#f8e3d6;}.cls-10{fill:#f7be9b;}.cls-12{opacity:0.49;}.cls-13{fill:#d9e1fc;}.cls-14{stroke-width:0.74px;}.cls-15{font-size:26.41px;font-family:FontAwesome5Brands-Regular, "Font Awesome 5 Brands";}.cls-16,.cls-17{stroke-width:1.68px;}.cls-18{fill:#4F81BD;}.cls-19{fill:url(#linear-gradient);}.cls-20{fill:url(#linear-gradient-2);}.cls-21{fill:url(#linear-gradient-3);}.cls-22{fill:url(#linear-gradient-4);}.cls-23{fill-rule:evenodd;}</style><linearGradient id="linear-gradient" x1="267.25" y1="408.49" x2="277.1" y2="408.49" gradientTransform="translate(47.19 -82.21) rotate(4.61)" gradientUnits="userSpaceOnUse"><stop offset="0" stop-color="#d9e1fc"/><stop offset="1" stop-color="#e7edfb"/></linearGradient><linearGradient id="linear-gradient-2" x1="269.88" y1="402.7" x2="285.62" y2="402.7" xlink:href="#linear-gradient"/><linearGradient id="linear-gradient-3" x1="268.61" y1="398.34" x2="293.2" y2="398.34" xlink:href="#linear-gradient"/><linearGradient id="linear-gradient-4" x1="267.34" y1="393.99" x2="300.74" y2="393.99" xlink:href="#linear-gradient"/></defs><path class="cls-1" d="M536.25,336.09c-42.81.09-12.32-26.82,8.6-45.78s48.93-45.48,14.73-50.38-51.18,30.42-62.21,16.31,33.67-55.79-6.45-90.83-107.08-7.14-131.37,25.23,47.11,50.71,57,66.92S385.46,287.3,382.72,274s4-25.12-31.66-32.52S323.79,224.17,316,167.69,207.89,107,134.18,152.34s-29.87,68.8,3.37,84.44S165,257,127.18,284.61c-30.74,22.41-17.4,45.49,14.63,65.32s7.95,34.61-36.86,17.95-61.33,31.95-48,85.93c2.73,11.07,11.44,80.16,83.22,90.13,59.3,8.24,90.92-37.88,143.68-37.88,26.31,0,62.53,36.4,126.2,36,69.81-.45,115.18-19.4,146.24-48.32C612.58,441.26,612.58,335.93,536.25,336.09Z" transform="translate(-52.46 -121.49)"/><rect class="cls-2" x="140.46" y="66.46" width="133.15" height="339.99"/><rect class="cls-3" x="109.58" y="147.98" width="346.22" height="205.15"/><rect class="cls-4" x="95.11" y="140.77" width="374.25" height="217.94"/><rect class="cls-2" x="81.16" y="116.53" width="319.67" height="193.48"/><circle class="cls-5" cx="327.05" cy="525.26" r="26.92" transform="translate(-311.33 602.66) rotate(-76.84)"/><path class="cls-6" d="M341.92,518.58a1.55,1.55,0,0,0-1.33-.74H317l-.92-3.1a1.6,1.6,0,0,0-1.31-1.12l-6.33-.82a1.58,1.58,0,0,0-.41,3.13l5.31.69,5.27,17.77a1.58,1.58,0,0,0,1.51,1.13H338.7a1.6,1.6,0,0,0,1.56-1.28l2.63-13.9A1.58,1.58,0,0,0,341.92,518.58Zm-19,13.78h-1.66l-1.31-4.42h3Zm0-7.58H319L317.88,521h5Zm8.84,7.58h-5.69v-4.42h5.69Zm0-7.58h-5.69V521h5.69Zm5.65,7.58h-2.49v-4.42h3.32Zm1.43-7.58h-3.92V521h4.64Z" transform="translate(-52.46 -121.49)"/><circle class="cls-6" cx="270.64" cy="417.76" r="2.2"/><path class="cls-6" d="M336.52,537.05a2.2,2.2,0,1,0,2.2,2.2A2.2,2.2,0,0,0,336.52,537.05Z" transform="translate(-52.46 -121.49)"/><rect class="cls-7" x="249.26" y="190.88" width="232.52" height="171.55" rx="7.43"/><polygon class="cls-8" points="378.47 392.7 392.36 410.87 398.7 393.65 378.47 392.7"/><path class="cls-9" d="M504.67,441.26l-16.16,80.58a5.81,5.81,0,0,1-7,4.5l-80.29-19.27a2.34,2.34,0,0,1-1.76-1.92,2.31,2.31,0,0,1,1.12-2.34Z" transform="translate(-52.46 -121.49)"/><polygon class="cls-8" points="378.47 392.7 452.21 319.77 391.42 395.85 395.06 401.05 378.47 392.7"/><polygon class="cls-8" points="399.11 397.66 392.36 410.87 391.42 395.85 399.11 397.66"/><ellipse class="cls-10" cx="419.35" cy="397.98" rx="63.21" ry="68.23" transform="translate(-49.09 677.98) rotate(-87.49)"/><path class="cls-11" d="M481.46,397.16,465.55,397h-.16a81.63,81.63,0,0,0-2.89-20.16c-.21-.73-.45-1.51-.73-2.38l14.29-.13a.5.5,0,0,0,.5-.51l0-.5-14.68-.14h-.5a67.49,67.49,0,0,0-7.84-16,57.61,57.61,0,0,0-5.14-6.55l4.69-.05,6.53-.09a.52.52,0,0,0,.49-.5l-.05-.5h-.45l-6.47-.09-6-.07a48.74,48.74,0,0,0-9-7.32,40.65,40.65,0,0,0-9.88-4.5,36.74,36.74,0,0,0-21.48,0,41.07,41.07,0,0,0-9.89,4.49,48.52,48.52,0,0,0-9,7.36l-2.43,0q-3.35,0-6.69.09a.52.52,0,0,0-.51.51v.24l.32.3h.18l6.78.09h1.15a57.84,57.84,0,0,0-5.15,6.54,68.24,68.24,0,0,0-7.87,16l-11.41.11a.52.52,0,0,0-.51.52.53.53,0,0,0,.52.53l11,.1c-.28.86-.52,1.64-.73,2.38a78.39,78.39,0,0,0-2.18,10.62,82,82,0,0,0-.72,9.56l-12.3.11a.51.51,0,0,0-.51.52.52.52,0,0,0,.52.53l12.26.1a85.82,85.82,0,0,0,.74,10.81,77.34,77.34,0,0,0,2.18,10.63c.11.38.22.75.34,1.13l-10.58.09a.54.54,0,0,0-.52.53.53.53,0,0,0,.52.53l11,.1a67.82,67.82,0,0,0,8.28,17.28,57.54,57.54,0,0,0,3.95,5.21h-4.66a.7.7,0,0,0,0,1.4h5.88a49.32,49.32,0,0,0,10.18,8.59,40.92,40.92,0,0,0,9.9,4.51,37.17,37.17,0,0,0,10.75,1.59,6.6,6.6,0,0,0,.78,0l.35,0a6.53,6.53,0,0,0,.83.05,4.84,4.84,0,0,0,1-.13,37.65,37.65,0,0,0,7.78-1.47,41.1,41.1,0,0,0,9.89-4.52A49.06,49.06,0,0,0,448.34,446H461.6a.7.7,0,1,0,0-1.4h-12a58,58,0,0,0,4-5.23,68.21,68.21,0,0,0,8.25-17.25l14.28-.14a.5.5,0,0,0,.5-.5l0-.5-14.35-.14c.12-.38.23-.75.34-1.13a81.9,81.9,0,0,0,2.91-21.41l15.59-.14h0a.51.51,0,0,0,.49-.5ZM408.93,444.6c-.49-1.57-.94-3.19-1.35-4.84-.64-2.56-1.19-5.22-1.69-8.11s-.95-6-1.33-9.41l14.62,0,15,0c-.37,3.31-.8,6.31-1.29,9.16s-1.05,5.56-1.67,8.12c-.44,1.76-.91,3.48-1.42,5.09Zm-5.61-46.18,15.86,0,16.27,0c0,5.61-.21,11.15-.62,16.49-.13,1.8-.31,3.71-.53,5.83l-15.12,0-14.22,0h-.56c-.21-2-.38-3.87-.51-5.56-.4-5.4-.59-11-.57-16.62Zm0-1.51c0-8.1.36-15.41,1-22.3l14.82,0,14.89,0c.29,2.4.54,4.78.72,7.09.41,4.89.63,10,.65,15.23l-16.26,0Zm15.86-23.85-14.22,0h-.44c.28-2.62.61-5.2,1-7.69.46-2.92,1-5.58,1.53-8.15.53-2.31,1.09-4.43,1.73-6.45l10.41,0,9.7,0c.71,2,1.35,4.06,1.95,6.33.67,2.56,1.27,5.21,1.81,8.09.47,2.51.89,5.16,1.24,7.88Zm18.09,23.85c0-5.26-.29-10.44-.73-15.38-.2-2.24-.46-4.57-.77-6.94l24.08-.09c.34,1.06.61,2,.85,2.86A79.45,79.45,0,0,1,463.43,397Zm-12.64-55a36.17,36.17,0,0,1,3.68,7.31h0l-9.14,0-9.92,0a34.81,34.81,0,0,1,3.38-7.43,12.92,12.92,0,0,1,2.56-3,6.1,6.1,0,0,1,1.61-1,4.38,4.38,0,0,1,1.79-.34,4.52,4.52,0,0,1,1.79.44,7.25,7.25,0,0,1,1.61,1A14.52,14.52,0,0,1,424.63,341.94Zm-24,32.66h2c-.27,2.41-.49,4.83-.67,7.19-.2,2.74-.36,5.55-.47,8.38-.09,2.49-.14,4.7-.15,6.74l-28.55.1h-1.06a81.67,81.67,0,0,1,.67-9.28,76.89,76.89,0,0,1,2.05-10.36c.24-.87.51-1.8.86-2.89l15.4.08Zm-28.25,34.23a83.22,83.22,0,0,1-.69-10.52l29.62.1v.14c0,5.69.27,11.33.72,16.75.14,1.65.31,3.43.54,5.42h-1.56l-10.32,0-14.22.08H375c-.17-.55-.34-1.1-.49-1.66A79.63,79.63,0,0,1,372.42,408.83ZM436.64,415c.42-5.38.64-11,.65-16.63l26.16-.1a80.09,80.09,0,0,1-2.76,20.89c-.15.55-.31,1.09-.48,1.63l-24.12-.1C436.32,418.66,436.5,416.79,436.64,415Zm-1.07-42c-.39-2.81-.86-5.56-1.37-8.18-.59-2.93-1.22-5.6-1.94-8.18-.59-2.11-1.21-4.07-1.89-6h2.46l6.54,0,7-.06a56.86,56.86,0,0,1,5.83,7.42,66,66,0,0,1,7.25,15.08Zm3.81-23.79-6.55,0h-3v0c-.06-.17-.13-.33-.19-.49a37.65,37.65,0,0,0-3.91-7.53,15.5,15.5,0,0,0-2.91-3.22c-.18-.15-.37-.29-.56-.43a36,36,0,0,1,5.69,1.23,39.42,39.42,0,0,1,9.53,4.41,45.81,45.81,0,0,1,7.61,6.15Zm-24.24-12a7.84,7.84,0,0,0-.73.53,14,14,0,0,0-2.85,3.29,36.32,36.32,0,0,0-3.62,7.67l-.15.45h-1.45c-2.46,0-4.91,0-7.36,0l-8.89.06a45.62,45.62,0,0,1,7.59-6.14,39.51,39.51,0,0,1,9.51-4.42A36.28,36.28,0,0,1,415.14,337.32ZM399,350.75c2.38,0,4.77,0,7.15,0h1.16c-.62,1.93-1.17,3.93-1.7,6.12-.61,2.59-1.15,5.28-1.65,8.24-.43,2.56-.8,5.23-1.13,7.94h-2.15c-3.31,0-6.62,0-9.93,0l-14.22.07h-.75A65.55,65.55,0,0,1,383,358.14h0a54.48,54.48,0,0,1,5.85-7.46Zm-8.25,71.46c3.32,0,6.65,0,10,0h2.08c.42,3.5.9,6.68,1.45,9.7s1.12,5.62,1.79,8.22c.39,1.5.81,3,1.27,4.44H387.71a54.64,54.64,0,0,1-4.69-6.19,66,66,0,0,1-7.66-16.29Zm17,23.79c.25.74.51,1.48.78,2.21a37.49,37.49,0,0,0,3.78,7.62,14.88,14.88,0,0,0,2.91,3.27l.13.1a36.2,36.2,0,0,1-8.13-1.5,39.45,39.45,0,0,1-9.51-4.39,46.44,46.44,0,0,1-8.11-6.67c-.21-.21-.41-.43-.61-.64Zm5.78,9a35.43,35.43,0,0,1-3.55-7.34c-.21-.55-.4-1.11-.59-1.67h19.93c-.15.48-.32.95-.49,1.42a37,37,0,0,1-3.5,7.38,13.78,13.78,0,0,1-2.55,3,6.77,6.77,0,0,1-1.57,1,4.53,4.53,0,0,1-.85.3c-.47,0-.94.06-1.41.07l-.13,0a5.11,5.11,0,0,1-1.1-.3,6.11,6.11,0,0,1-1.6-1A13.5,13.5,0,0,1,413.52,455ZM424,458.66a16,16,0,0,0,2.55-3.06,37.55,37.55,0,0,0,3.72-7.64c.25-.65.47-1.3.7-2h15.2c-.21.22-.41.44-.63.66a45.25,45.25,0,0,1-8.13,6.66,39.07,39.07,0,0,1-9.51,4.39A35.83,35.83,0,0,1,424,458.66Zm7.42-14.06c.48-1.52.92-3.1,1.33-4.7.66-2.59,1.24-5.28,1.77-8.22s1-6.06,1.4-9.45l23.89-.1a66.71,66.71,0,0,1-7.68,16.31,56.65,56.65,0,0,1-4.68,6.16Z" transform="translate(-52.46 -121.49)"/><rect class="cls-5" x="98.6" y="96.38" width="107.81" height="182.95" rx="6.46"/><rect class="cls-5" x="103.82" y="101.92" width="97.37" height="171.88" rx="6.46"/><g class="cls-12"><rect class="cls-13" x="109.02" y="107.42" width="87.97" height="38.16" rx="3.5"/><path class="cls-13" d="M245.1,359.47H165.82a4.35,4.35,0,0,1-4.35-4.34h0a4.34,4.34,0,0,1,4.35-4.34H245.1a4.34,4.34,0,0,1,4.34,4.34h0A4.34,4.34,0,0,1,245.1,359.47Z" transform="translate(-52.46 -121.49)"/><path class="cls-13" d="M245.1,341.9H165.82a4.34,4.34,0,0,1-4.35-4.34h0a4.35,4.35,0,0,1,4.35-4.34H245.1a4.34,4.34,0,0,1,4.34,4.34h0A4.34,4.34,0,0,1,245.1,341.9Z" transform="translate(-52.46 -121.49)"/><path class="cls-13" d="M245.1,389.78H165.82a4.34,4.34,0,0,1-4.35-4.34h0a4.34,4.34,0,0,1,4.35-4.34H245.1a4.34,4.34,0,0,1,4.34,4.34h0A4.34,4.34,0,0,1,245.1,389.78Z" transform="translate(-52.46 -121.49)"/><rect class="cls-13" x="109.02" y="150.76" width="39.6" height="48.89" rx="3.5"/><rect class="cls-13" x="157.38" y="150.76" width="39.6" height="48.89" rx="3.5"/></g><path class="cls-5" d="M457.46,289.7l-170,.79A16.47,16.47,0,0,1,271,274h0a16.47,16.47,0,0,1,16.47-16.47l170-.79a16.47,16.47,0,0,1,16.47,16.47h0A16.47,16.47,0,0,1,457.46,289.7Z" transform="translate(-52.46 -121.49)"/><path class="cls-4" d="M469.42,348.7l-19.75-24.09a.73.73,0,0,1-.13-.68.75.75,0,0,1,.52-.47l17.44-4.18A1.82,1.82,0,0,0,468,316l-49.76-31.45a1.81,1.81,0,0,0-2.76,1.83l10.35,62.48a1.81,1.81,0,0,0,3.34.63l9.66-16.21a.73.73,0,0,1,.57-.35.71.71,0,0,1,.6.28l18.4,23.59a3.25,3.25,0,0,0,4.39.69l5.9-4a3.25,3.25,0,0,0,.69-4.75Z" transform="translate(-52.46 -121.49)"/><line class="cls-14" x1="308.49" y1="140.77" x2="308.49" y2="162.81"/><text class="cls-15" transform="translate(233.2 161.01)">www</text><circle class="cls-16" cx="400.84" cy="150.97" r="7.02"/><line class="cls-17" x1="405.4" y1="156.31" x2="409.7" y2="160.6"/><rect class="cls-18" x="100.35" y="296.8" width="107.45" height="87.78" rx="7.1"/><path class="cls-9" d="M223.79,444.6H185.5a5.94,5.94,0,0,0-5.93,5.93V478a5.94,5.94,0,0,0,5.93,5.93h38.29a5.94,5.94,0,0,0,5.93-5.93V450.53A5.94,5.94,0,0,0,223.79,444.6Zm-39.31,8.84,8.44,6c-2.75,4.82-6,10.5-8.44,14.76Zm26.83,3-.25.11a2.53,2.53,0,0,0-.59.48l-6.19,4.4-16.83-11.93h33.64Zm-19.61,15,5.25-9.19,5.91,4.19a2.41,2.41,0,0,0,1.42.46,2.44,2.44,0,0,0,1.43-.46l5.81-4.13,5.22,9.13c1.55,2.72,3.11,5.43,4.32,7.55H187.38Zm23.85-12,9.25-6.57v22.75Z" transform="translate(-52.46 -121.49)"/><circle class="cls-18" cx="135.13" cy="234.22" r="36.13" transform="translate(-176.55 189.67) rotate(-76.55)"/><path class="cls-9" d="M145.31,228.09H121.48a.82.82,0,0,0,0,1.64h23.83a.82.82,0,0,0,0-1.64Z" transform="translate(-52.46 -121.49)"/><path class="cls-9" d="M145.31,233H121.48a.82.82,0,0,0,0,1.64h23.83a.82.82,0,0,0,0-1.64Z" transform="translate(-52.46 -121.49)"/><path class="cls-9" d="M145.31,238H121.48a.82.82,0,0,0,0,1.64h23.83a.82.82,0,1,0,0-1.64Z" transform="translate(-52.46 -121.49)"/><path class="cls-9" d="M148.78,219.9H118a5.13,5.13,0,0,0-5.13,5.13V242.2a5.13,5.13,0,0,0,5.13,5.13h20.28v4.24a1,1,0,0,0,1.7.79l6-5h2.82a5.13,5.13,0,0,0,5.13-5.13V225A5.13,5.13,0,0,0,148.78,219.9Zm1.62,22.3a1.61,1.61,0,0,1-1.62,1.62H118a1.62,1.62,0,0,1-1.62-1.62V225a1.62,1.62,0,0,1,1.62-1.62h30.78A1.61,1.61,0,0,1,150.4,225Z" transform="translate(-52.46 -121.49)"/><circle class="cls-18" cx="246.78" cy="213.27" r="30.62"/><path class="cls-19" d="M285.26,351.77a4.93,4.93,0,1,1,5.31-4.52A4.94,4.94,0,0,1,285.26,351.77Zm.63-7.87a3,3,0,1,0,2.73,3.2A3,3,0,0,0,285.89,343.9Z" transform="translate(-52.46 -121.49)"/><path class="cls-20" d="M286.5,336.38a10.51,10.51,0,0,1,9.63,11.32,7.5,7.5,0,0,1-.14,1.06.73.73,0,0,0,.75.86l1.54-.11a.71.71,0,0,0,.66-.61q.07-.48.12-1a13.47,13.47,0,0,0-12.33-14.49,15.37,15.37,0,0,0-1.66,0,.72.72,0,0,0-.68.78l.13,1.51a.72.72,0,0,0,.74.65A8.58,8.58,0,0,1,286.5,336.38Z" transform="translate(-52.46 -121.49)"/><path class="cls-21" d="M287.11,328.82a18.12,18.12,0,0,1,16.58,19.49h0a.72.72,0,0,0,.75.78L306,349l.67-.66a21,21,0,0,0-22.25-22.46.71.71,0,0,0-.66.78l.13,1.5a.71.71,0,0,0,.75.65A17.56,17.56,0,0,1,287.11,328.82Z" transform="translate(-52.46 -121.49)"/><path class="cls-22" d="M287.72,321.27a25.7,25.7,0,0,1,23.59,26.56.71.71,0,0,0,.76.75l1.5-.1a.72.72,0,0,0,.67-.69A28.64,28.64,0,0,0,288,318.34a27.3,27.3,0,0,0-4.24,0,.72.72,0,0,0-.66.78l.13,1.5a.71.71,0,0,0,.77.64A25,25,0,0,1,287.72,321.27Z" transform="translate(-52.46 -121.49)"/><circle class="cls-18" cx="466.67" cy="143.95" r="30.62"/><path class="cls-9" d="M519.12,284.61a19.31,19.31,0,1,1,19.31-19.31A19.33,19.33,0,0,1,519.12,284.61Zm0-35.38a16.08,16.08,0,1,0,16.07,16.07A16.09,16.09,0,0,0,519.12,249.23Z" transform="translate(-52.46 -121.49)"/><path class="cls-23" d="M513.08,272.74V258.86a1.91,1.91,0,0,1,2.88-1.65l11.7,6.94a1.92,1.92,0,0,1,0,3.3L516,274.39A1.91,1.91,0,0,1,513.08,272.74Z" transform="translate(-52.46 -121.49)"/><circle class="cls-5" cx="323.1" cy="184.65" r="26.92" transform="translate(30.43 347.38) rotate(-79.54)"/><path class="cls-18" d="M325.49,168.07a1.2,1.2,0,0,0-1.59,1.13v21.36a10.09,10.09,0,0,0-6.39-2.16c-4.92,0-8.91,3.19-8.91,7.13s4,7.13,8.91,7.13,8.92-3.19,8.92-7.13c0,0,0-.07,0-.1h0V174.19c3.53.54,5.93,3.22,7.33,5.41a1.06,1.06,0,0,0,1.95-.64C335.36,172.34,328.62,169.19,325.49,168.07Z" transform="translate(-52.46 -121.49)"/></svg>