<svg id="Layer_1" data-name="Layer 1" xmlns="http://www.w3.org/2000/svg" xmlns:xlink="http://www.w3.org/1999/xlink" viewBox="0 0 471.38 469.92"><defs><style>.cls-1{fill:url(#linear-gradient);}.cls-2{fill:#f9efea;}.cls-25,.cls-3,.cls-8{fill:#fff;}.cls-4{fill:#f8e3d6;}.cls-5{fill:url(#linear-gradient-2);}.cls-6{fill:#7d97f4;}.cls-7{fill:#91b3fa;}.cls-8{opacity:0.53;}.cls-9{fill:url(#linear-gradient-3);}.cls-10{fill:url(#linear-gradient-4);}.cls-11{fill:url(#linear-gradient-5);}.cls-12{fill:url(#linear-gradient-6);}.cls-13{fill:url(#linear-gradient-7);}.cls-14{fill:url(#linear-gradient-8);}.cls-15{fill:url(#linear-gradient-9);}.cls-16{fill:url(#linear-gradient-10);}.cls-17{fill:url(#linear-gradient-11);}.cls-18{fill:url(#linear-gradient-12);}.cls-19{fill:url(#linear-gradient-13);}.cls-20{fill:url(#linear-gradient-14);}.cls-21{fill:url(#linear-gradient-15);}.cls-22{fill:url(#linear-gradient-16);}.cls-23{fill:url(#linear-gradient-17);}.cls-24{fill:#4F81BD;}.cls-25{opacity:0.7;}.cls-26{fill:url(#linear-gradient-18);}.cls-27{fill:url(#linear-gradient-19);}.cls-28{fill:url(#linear-gradient-20);}.cls-29{fill:url(#linear-gradient-21);}.cls-30{fill:url(#linear-gradient-22);}.cls-31{fill:url(#linear-gradient-23);}.cls-32{fill:url(#linear-gradient-24);}.cls-33{fill:url(#linear-gradient-25);}.cls-34{fill:url(#linear-gradient-26);}.cls-35{fill:url(#linear-gradient-27);}.cls-36{fill:url(#linear-gradient-28);}.cls-37{fill:url(#linear-gradient-29);}.cls-38{fill:url(#linear-gradient-30);}.cls-39{fill:url(#linear-gradient-31);}.cls-40{fill:url(#linear-gradient-32);}.cls-41{fill:url(#linear-gradient-33);}.cls-42{fill:url(#linear-gradient-34);}.cls-43{fill:url(#linear-gradient-35);}.cls-44{fill:url(#linear-gradient-36);}</style><linearGradient id="linear-gradient" x1="604.85" y1="703.74" x2="189.77" y2="188.25" gradientUnits="userSpaceOnUse"><stop offset="0" stop-color="#dae3fe"/><stop offset="1" stop-color="#e9effd"/></linearGradient><linearGradient id="linear-gradient-2" x1="491.37" y1="245.61" x2="129.66" y2="521.01" gradientUnits="userSpaceOnUse"><stop offset="0" stop-color="#09005d"/><stop offset="1" stop-color="#1a0f91"/></linearGradient><linearGradient id="linear-gradient-3" x1="242.8" y1="537.41" x2="241.99" y2="550" xlink:href="#linear-gradient-2"/><linearGradient id="linear-gradient-4" x1="243.12" y1="502.64" x2="240.28" y2="564.37" xlink:href="#linear-gradient-2"/><linearGradient id="linear-gradient-5" x1="242.75" y1="485.86" x2="240.32" y2="537.43" xlink:href="#linear-gradient-2"/><linearGradient id="linear-gradient-6" x1="167.59" y1="353.42" x2="163.99" y2="402.72" xlink:href="#linear-gradient-2"/><linearGradient id="linear-gradient-7" x1="-1998.53" y1="-298.54" x2="-1980.86" y2="-298.54" gradientTransform="translate(1834.93 -726.32) rotate(-42.64)" xlink:href="#linear-gradient-2"/><linearGradient id="linear-gradient-8" x1="-1986.58" y1="-313.51" x2="-1943.71" y2="-313.51" gradientTransform="translate(1834.93 -726.32) rotate(-42.64)" xlink:href="#linear-gradient-2"/><linearGradient id="linear-gradient-9" x1="-1934.69" y1="-403.7" x2="-1974.23" y2="-288.26" gradientTransform="translate(2137.42 688.21)" gradientUnits="userSpaceOnUse"><stop offset="0" stop-color="#4f52ff"/><stop offset="1" stop-color="#4042e2"/></linearGradient><linearGradient id="linear-gradient-10" x1="-2006.24" y1="-210.72" x2="-1936.01" y2="-210.72" gradientTransform="translate(1904.59 1533.76) rotate(26.9)" xlink:href="#linear-gradient-9"/><linearGradient id="linear-gradient-11" x1="-3005.46" y1="-752.57" x2="-3000.59" y2="-786.68" gradientTransform="matrix(0.53, -0.85, 0.85, 0.53, 2411.32, -1887.32)" xlink:href="#linear-gradient-2"/><linearGradient id="linear-gradient-12" x1="-3072.72" y1="-800.72" x2="-2904.82" y2="-800.72" gradientTransform="matrix(0.53, -0.85, 0.85, 0.53, 2411.32, -1887.32)" xlink:href="#linear-gradient-2"/><linearGradient id="linear-gradient-13" x1="-2984.94" y1="-834.99" x2="-2995.02" y2="-775.96" gradientTransform="matrix(0.53, -0.85, 0.85, 0.53, 2411.32, -1887.32)" xlink:href="#linear-gradient-9"/><linearGradient id="linear-gradient-14" x1="-3099.51" y1="-795.92" x2="-3043.11" y2="-795.92" gradientTransform="matrix(0.99, 0.17, -0.17, 0.99, 3008.83, 1615.38)" xlink:href="#linear-gradient-9"/><linearGradient id="linear-gradient-15" x1="2297.12" y1="-811.34" x2="2396.58" y2="-811.34" gradientTransform="matrix(0.85, 0.52, -0.52, 0.85, -2179.44, -340.49)" xlink:href="#linear-gradient-2"/><linearGradient id="linear-gradient-16" x1="2334.87" y1="-842.64" x2="2262.58" y2="-774.01" gradientTransform="matrix(0.84, 0.55, -0.55, 0.84, -2162.28, -415.96)" xlink:href="#linear-gradient-9"/><linearGradient id="linear-gradient-17" x1="2487.61" y1="-828.06" x2="2427.87" y2="-828.78" gradientTransform="matrix(0.85, 0.52, -0.52, 0.85, -2256, -437.69)" xlink:href="#linear-gradient-9"/><linearGradient id="linear-gradient-18" x1="406.73" y1="286.08" x2="351.21" y2="250.96" gradientTransform="matrix(0.86, -0.52, 0.52, 0.86, -68.08, 180.71)" xlink:href="#linear-gradient-9"/><linearGradient id="linear-gradient-19" x1="2494.31" y1="-791.29" x2="2434.57" y2="-792.01" gradientTransform="matrix(0.85, 0.52, -0.52, 0.85, -2256, -437.69)" xlink:href="#linear-gradient-9"/><linearGradient id="linear-gradient-20" x1="2411.52" y1="-811.34" x2="2427.86" y2="-811.34" gradientTransform="matrix(0.85, 0.52, -0.52, 0.85, -2179.44, -340.49)" xlink:href="#linear-gradient-2"/><linearGradient id="linear-gradient-21" x1="2419.06" y1="-824.13" x2="2392.19" y2="-792.55" gradientTransform="matrix(0.85, 0.52, -0.52, 0.85, -2179.44, -340.49)" xlink:href="#linear-gradient-9"/><linearGradient id="linear-gradient-22" x1="-640.82" y1="827.58" x2="-690.59" y2="889.5" gradientTransform="matrix(-0.73, 0.69, 0.69, 0.73, -638.05, 262.22)" gradientUnits="userSpaceOnUse"><stop offset="0" stop-color="#febbba"/><stop offset="1" stop-color="#ff928e"/></linearGradient><linearGradient id="linear-gradient-23" x1="-3745.28" y1="560.42" x2="-3729.91" y2="560.42" gradientTransform="matrix(-1, 0, 0, 1, -3201.9, 0)" xlink:href="#linear-gradient-2"/><linearGradient id="linear-gradient-24" x1="-3743.72" y1="553.28" x2="-3737.49" y2="553.28" gradientTransform="matrix(-1, 0, 0, 1, -3201.9, 0)" xlink:href="#linear-gradient-22"/><linearGradient id="linear-gradient-25" x1="-3712.6" y1="560.17" x2="-3688.5" y2="560.17" gradientTransform="matrix(-1, 0, 0, 1, -3201.9, 0)" xlink:href="#linear-gradient-2"/><linearGradient id="linear-gradient-26" x1="-3712.24" y1="550.51" x2="-3706.04" y2="550.51" gradientTransform="matrix(-1, 0, 0, 1, -3201.9, 0)" xlink:href="#linear-gradient-22"/><linearGradient id="linear-gradient-27" x1="615.45" y1="396.56" x2="573.4" y2="446.56" gradientTransform="matrix(1, 0, 0, 1, 0, 0)" xlink:href="#linear-gradient-9"/><linearGradient id="linear-gradient-28" x1="539.3" y1="383.8" x2="528.22" y2="506.54" xlink:href="#linear-gradient-2"/><linearGradient id="linear-gradient-29" x1="-3677.61" y1="321.42" x2="-3690.21" y2="391.13" gradientTransform="matrix(-1, 0, 0, 1, -3201.9, 0)" xlink:href="#linear-gradient-9"/><linearGradient id="linear-gradient-30" x1="-3670.78" y1="369.06" x2="-3647.74" y2="369.06" gradientTransform="matrix(-1, 0, 0, 1, -3201.9, 0)" xlink:href="#linear-gradient-22"/><linearGradient id="linear-gradient-31" x1="499.52" y1="390.28" x2="488.15" y2="524.39" gradientTransform="matrix(1, 0, 0, 1, 0, 0)" xlink:href="#linear-gradient-9"/><linearGradient id="linear-gradient-32" x1="-632.7" y1="836.82" x2="-682.47" y2="898.73" xlink:href="#linear-gradient-22"/><linearGradient id="linear-gradient-33" x1="-3674.61" y1="336.66" x2="-3722.81" y2="425.22" gradientTransform="matrix(-1, 0, 0, 1, -3201.9, 0)" xlink:href="#linear-gradient-22"/><linearGradient id="linear-gradient-34" x1="-3549.32" y1="1095.77" x2="-3570.62" y2="1123.95" gradientTransform="matrix(-0.82, -0.58, -0.58, 0.82, -1779.96, -2589.16)" xlink:href="#linear-gradient-22"/><linearGradient id="linear-gradient-35" x1="-3565.58" y1="1102.57" x2="-3540.14" y2="1102.57" gradientTransform="matrix(-0.82, -0.58, -0.58, 0.82, -1779.96, -2589.16)" xlink:href="#linear-gradient-2"/><linearGradient id="linear-gradient-36" x1="-3580.51" y1="1118.08" x2="-3563.43" y2="1100.56" gradientTransform="matrix(-0.82, -0.58, -0.58, 0.82, -1779.96, -2589.16)" xlink:href="#linear-gradient-22"/></defs><path class="cls-1" d="M493.31,498.6c-9.68,9.94-18.84,16.35-26.07,21.41-85.06,59.51-185.71,42.16-207.1,37.92-31.59-6.25-92.64-18.34-136.78-69C56.57,412.39,67,291.74,118.77,212.1c9.48-14.57,59.53-95.42,161.26-108.39,61.57-7.85,133.33,8,185.3,50.44C574.43,243.27,566.66,423.3,493.31,498.6Z" transform="translate(-76.57 -97.21)"/><path class="cls-2" d="M162.06,100.2c-15.24,41.89-95.68,287.41,82.59,359,0,0,87.6-156.19-77.09-361.1C166.12,96.26,163.05,97.46,162.06,100.2Z" transform="translate(-76.57 -97.21)"/><path class="cls-3" d="M171.46,138.21s-.3,5-.53,13.69-.41,21.18-.17,36.13.9,32.39,2.27,51,3.48,38.46,6.56,58.15c1.54,9.84,3.31,19.65,5.32,29.24s4.28,19,6.77,28,5.2,17.6,8.08,25.64,5.93,15.53,9,22.31S215,415.22,218,420.47c.74,1.32,1.51,2.56,2.22,3.78l1.06,1.78,1.08,1.69c.7,1.11,1.37,2.16,2,3.17l1.92,2.83c1.2,1.81,2.37,3.36,3.36,4.71l1.39,1.88,1.2,1.52,2.21,2.79,0,0a1.14,1.14,0,1,1-1.78,1.41h0l-2.24-2.84-1.21-1.55-1.4-1.91c-1-1.38-2.18-2.95-3.38-4.78l-1.95-2.88-2-3.22-1.07-1.71-1.07-1.81c-.72-1.24-1.49-2.5-2.23-3.83-3-5.32-6.13-11.47-9.22-18.32s-6.13-14.39-9-22.5-5.56-16.76-8-25.81-4.7-18.46-6.69-28.1-3.71-19.47-5.21-29.35c-3-19.74-5-39.63-6.34-58.3s-1.88-36.13-2.05-51.1c-.36-30,.9-49.89.9-49.89a.48.48,0,1,1,1,.05Z" transform="translate(-76.57 -97.21)"/><path class="cls-4" d="M201.06,373.89S57.8,323.43,80.05,142.31c.37-3,5.13-4.68,7.86-2.75C113.26,157.55,200.09,229.65,201.06,373.89Z" transform="translate(-76.57 -97.21)"/><path class="cls-3" d="M105.11,178.7,118,205.53c3.85,8.06,8.31,17.47,13,27.57,2.34,5.06,4.76,10.3,7.21,15.62l3.69,8,3.65,8.13,7.25,16.22,7,15.73c2.21,5.12,4.34,10.08,6.37,14.78s3.88,9.16,5.62,13.27c.88,2.05,1.7,4,2.46,5.92s1.5,3.67,2.18,5.35l1.92,4.7,1.59,4,3,7.62a.42.42,0,0,1-.78.33h0s-1.17-2.73-3.21-7.52c-.51-1.2-1.08-2.52-1.69-4s-1.3-3-2-4.65l-4.88-11.15c-1.8-4.08-3.73-8.52-5.82-13.18s-4.3-9.59-6.58-14.67l-7-15.69c-2.42-5.34-4.88-10.76-7.33-16.18L129.11,234c-4.57-10.18-8.85-19.67-12.51-27.81l-8.9-19.65L105.19,181l-.9-1.94a.46.46,0,0,1,.22-.61A.46.46,0,0,1,105.11,178.7Z" transform="translate(-76.57 -97.21)"/><path class="cls-5" d="M101.78,245.15l408.84-6.91c16.46-.27,29.67,13.84,28.69,30.66l-14.07,242a24.94,24.94,0,0,1-24.39,23.75l-393,3.88a18.13,18.13,0,0,1-18.1-17.66l-9.4-252.57C79.89,255.81,89.56,245.36,101.78,245.15Z" transform="translate(-76.57 -97.21)"/><path class="cls-6" d="M108,251.32l398.17-6.58a27.55,27.55,0,0,1,27.95,29.18L520.45,504.16a24,24,0,0,1-23.75,22.59L114,530.45a17.47,17.47,0,0,1-17.63-16.8l-9.16-240.3A21.22,21.22,0,0,1,108,251.32Z" transform="translate(-76.57 -97.21)"/><path class="cls-7" d="M116.05,263.68l380.33-6.16c15.31-.25,27.6,12.34,26.69,27.33L510,500.6a22.76,22.76,0,0,1-22.68,21.18l-365.59,3.46a16.54,16.54,0,0,1-16.83-15.74L96.13,284.32A20.06,20.06,0,0,1,116.05,263.68Z" transform="translate(-76.57 -97.21)"/><rect class="cls-8" x="116.37" y="285.09" width="112.34" height="9.91" rx="1.99" transform="translate(-77.33 -96.75) rotate(-0.15)"/><rect class="cls-8" x="259.62" y="285.03" width="39.42" height="9.91" rx="0.4" transform="translate(-77.33 -96.47) rotate(-0.15)"/><rect class="cls-8" x="307.16" y="284.85" width="77.85" height="9.91" rx="1.99" transform="matrix(1, 0, 0, 1, -77.33, -96.29)"/><rect class="cls-8" x="116.25" y="302.61" width="30.12" height="9.91" rx="1.99" transform="translate(-77.38 -96.86) rotate(-0.15)"/><rect class="cls-8" x="147.28" y="302.48" width="81.7" height="9.91" rx="1.99" transform="translate(-77.38 -96.71) rotate(-0.15)"/><rect class="cls-8" x="259.98" y="302.45" width="39.42" height="9.91" rx="0.4" transform="translate(-77.38 -96.47) rotate(-0.15)"/><rect class="cls-8" x="334.75" y="302.16" width="114.05" height="9.91" rx="0.64" transform="translate(-77.38 -96.17) rotate(-0.15)"/><rect class="cls-8" x="116.27" y="320.01" width="30.12" height="9.91" rx="1.99" transform="translate(-77.42 -96.86) rotate(-0.15)"/><rect class="cls-8" x="147.29" y="319.88" width="81.7" height="9.91" rx="0.42" transform="translate(-77.42 -96.71) rotate(-0.15)"/><rect class="cls-8" x="260" y="319.86" width="39.42" height="9.91" rx="0.4" transform="translate(-77.42 -96.47) rotate(-0.15)"/><rect class="cls-8" x="348.75" y="319.48" width="148.61" height="9.91" rx="0.64" transform="matrix(1, 0, 0, 1, -77.42, -96.09)"/><rect class="cls-8" x="116.56" y="337.44" width="30.12" height="9.91" rx="0.64" transform="translate(-77.47 -96.86) rotate(-0.15)"/><rect class="cls-8" x="147.77" y="337.31" width="81.7" height="9.91" rx="1.99" transform="translate(-77.47 -96.71) rotate(-0.15)"/><rect class="cls-8" x="260.36" y="337.28" width="39.42" height="9.91" rx="0.4" transform="translate(-77.47 -96.47) rotate(-0.15)"/><rect class="cls-8" x="349.57" y="336.9" width="148.61" height="9.91" rx="0.64" transform="translate(-77.47 -96.09) rotate(-0.15)"/><rect class="cls-8" x="116.52" y="355.52" width="30.12" height="9.91" rx="0.64" transform="translate(-77.52 -96.86) rotate(-0.15)"/><rect class="cls-8" x="147.65" y="355.39" width="81.7" height="9.91" rx="1.99" transform="translate(-77.52 -96.71) rotate(-0.15)"/><rect class="cls-8" x="260.29" y="355.37" width="39.42" height="9.91" rx="0.4" transform="translate(-77.52 -96.47) rotate(-0.15)"/><rect class="cls-8" x="349.33" y="354.99" width="148.61" height="9.91" rx="0.64" transform="translate(-77.51 -96.09) rotate(-0.15)"/><rect class="cls-8" x="116.81" y="372.95" width="30.12" height="9.91" rx="0.64" transform="translate(-77.56 -96.86) rotate(-0.15)"/><rect class="cls-8" x="148.13" y="372.82" width="81.7" height="9.91" rx="1.99" transform="translate(-77.56 -96.71) rotate(-0.15)"/><rect class="cls-8" x="260.65" y="372.79" width="39.42" height="9.91" rx="0.4" transform="translate(-77.56 -96.47) rotate(-0.15)"/><rect class="cls-8" x="307.39" y="372.6" width="91.05" height="9.91" rx="0.64" transform="translate(-77.56 -96.27) rotate(-0.15)"/><rect class="cls-8" x="116.94" y="390.26" width="112.95" height="9.91" rx="1.99" transform="translate(-77.61 -96.75) rotate(-0.15)"/><rect class="cls-8" x="260.67" y="390.19" width="39.42" height="9.91" rx="0.4" transform="translate(-77.61 -96.47) rotate(-0.15)"/><rect class="cls-8" x="327.96" y="389.92" width="113.51" height="9.91" rx="0.64" transform="translate(-77.61 -96.19) rotate(-0.15)"/><rect class="cls-8" x="117.19" y="407.78" width="28.91" height="9.91" rx="0.64" transform="translate(-77.65 -96.86) rotate(-0.15)"/><rect class="cls-8" x="148.61" y="407.65" width="81.7" height="9.91" rx="0.42" transform="translate(-77.65 -96.71) rotate(-0.15)"/><rect class="cls-8" x="261.03" y="407.62" width="39.42" height="9.91" rx="0.4" transform="translate(-77.65 -96.46) rotate(-0.15)"/><rect class="cls-8" x="345.4" y="407.25" width="153.66" height="9.91" rx="0.64" transform="translate(-77.65 -96.09) rotate(-0.15)"/><rect class="cls-8" x="116.63" y="459.78" width="30.12" height="9.91" rx="0.64" transform="translate(-77.79 -96.86) rotate(-0.15)"/><rect class="cls-8" x="147.99" y="459.65" width="81.7" height="9.91" rx="0.42" transform="translate(-77.79 -96.71) rotate(-0.15)"/><rect class="cls-8" x="260.47" y="459.63" width="39.42" height="9.91" rx="0.4" transform="translate(-77.79 -96.47) rotate(-0.15)"/><rect class="cls-8" x="307.21" y="459.44" width="91.05" height="9.91" rx="0.64" transform="translate(-77.79 -96.28) rotate(-0.15)"/><rect class="cls-8" x="116.8" y="477.1" width="112.95" height="9.91" rx="1.99" transform="translate(-77.84 -96.75) rotate(-0.15)"/><rect class="cls-8" x="260.49" y="477.03" width="39.42" height="9.91" rx="0.4" transform="translate(-77.84 -96.47) rotate(-0.15)"/><rect class="cls-8" x="327.72" y="476.75" width="113.51" height="9.91" rx="0.64" transform="translate(-77.84 -96.19) rotate(-0.15)"/><rect class="cls-8" x="117.01" y="494.61" width="28.91" height="9.91" rx="0.64" transform="translate(-77.88 -96.86) rotate(-0.15)"/><rect class="cls-8" x="148.47" y="494.48" width="81.7" height="9.91" rx="0.42" transform="matrix(1, 0, 0, 1, -77.88, -96.71)"/><rect class="cls-8" x="260.85" y="494.46" width="39.42" height="9.91" rx="0.4" transform="translate(-77.88 -96.46) rotate(-0.15)"/><rect class="cls-8" x="345.16" y="494.08" width="153.66" height="9.91" rx="0.64" transform="translate(-77.88 -96.09) rotate(-0.15)"/><rect class="cls-8" x="116.9" y="425.5" width="28.91" height="9.91" rx="1.99" transform="translate(-77.7 -96.86) rotate(-0.15)"/><rect class="cls-8" x="148.03" y="425.37" width="81.7" height="9.91" rx="1.99" transform="matrix(1, 0, 0, 1, -77.7, -96.71)"/><rect class="cls-8" x="260.62" y="425.35" width="39.42" height="9.91" rx="0.4" transform="translate(-77.7 -96.47) rotate(-0.15)"/><rect class="cls-8" x="344.27" y="424.97" width="153.66" height="9.91" rx="0.64" transform="translate(-77.7 -96.1) rotate(-0.15)"/><rect class="cls-8" x="117.18" y="442.93" width="28.91" height="9.91" rx="1.99" transform="translate(-77.75 -96.86) rotate(-0.15)"/><rect class="cls-8" x="148.51" y="442.8" width="81.7" height="9.91" rx="1.99" transform="translate(-77.75 -96.71) rotate(-0.15)"/><rect class="cls-8" x="260.98" y="442.77" width="39.42" height="9.91" rx="0.4" transform="translate(-77.75 -96.46) rotate(-0.15)"/><rect class="cls-8" x="345.12" y="442.4" width="153.66" height="9.91" rx="0.64" transform="translate(-77.74 -96.09) rotate(-0.15)"/><rect class="cls-8" x="243.34" y="271.85" width="3.64" height="244.12" rx="0.24" transform="translate(-77.6 -96.56) rotate(-0.15)"/><path class="cls-9" d="M350.54,560H131.69a3.55,3.55,0,0,0,0,7.09H350.54a3.55,3.55,0,1,0,0-7.09Z" transform="translate(-76.57 -97.21)"/><path class="cls-10" d="M319.54,524H162.69a8.57,8.57,0,0,0-8.57,8.57V560h174V532.59A8.57,8.57,0,0,0,319.54,524Z" transform="translate(-76.57 -97.21)"/><path class="cls-11" d="M307.94,508.72H174.29a8.57,8.57,0,0,0-8.56,8.57V524H316.5v-6.73A8.57,8.57,0,0,0,307.94,508.72Z" transform="translate(-76.57 -97.21)"/><path class="cls-12" d="M136.95,366.39h55.2a12.66,12.66,0,0,1,12.66,12.66v32.47a0,0,0,0,1,0,0H124.29a0,0,0,0,1,0,0V379.05A12.66,12.66,0,0,1,136.95,366.39Z"/><path class="cls-13" d="M109.82,334.49a4.92,4.92,0,0,0-.39,6.86L219.61,470a4.93,4.93,0,0,0,7.07.39l9.37-8.63L114.71,330Z" transform="translate(-76.57 -97.21)"/><path class="cls-14" d="M124.9,293.15a10,10,0,0,0-13.92-.43l-9.88,9.1a9.94,9.94,0,0,0-.72,13.91L231.84,465.65l27.56-25.38a5.4,5.4,0,0,0,.23-7.73Z" transform="translate(-76.57 -97.21)"/><rect class="cls-15" x="165.26" y="309.42" width="17.16" height="118.17" rx="7.88" transform="translate(-280.22 117.95) rotate(-42.64)"/><rect class="cls-6" x="171.86" y="309.42" width="3.96" height="118.17" transform="translate(-280.22 117.95) rotate(-42.64)"/><circle class="cls-16" cx="242.03" cy="453.89" r="35.12" transform="translate(-344.4 424.79) rotate(-69.54)"/><circle class="cls-6" cx="242.03" cy="453.89" r="26.83" transform="translate(-343.91 285.02) rotate(-53.92)"/><path class="cls-17" d="M124.49,311.4l8.7,5.38a4,4,0,0,0,5.51-1.38l67.36-118.18a4,4,0,0,0-1.35-5.35l-4.54-2.81Z" transform="translate(-76.57 -97.21)"/><path class="cls-18" d="M197.46,159.11l9.17,5.67a8,8,0,0,1,2.68,10.87L128.39,313.82,102.81,298a4.35,4.35,0,0,1-1.35-6.07l85.08-130.36A8,8,0,0,1,197.46,159.11Z" transform="translate(-76.57 -97.21)"/><path class="cls-19" d="M172.59,194l-45.25,73.13a6.89,6.89,0,1,0,11.72,7.25l45.24-73.13A6.89,6.89,0,1,0,172.59,194Z" transform="translate(-76.57 -97.21)"/><rect class="cls-6" x="105.94" y="232.59" width="99.78" height="3.18" transform="translate(-201.88 146.29) rotate(-58.26)"/><circle class="cls-20" cx="118.58" cy="306.09" r="28.2" transform="translate(-286.22 204.75) rotate(-68.1)"/><circle class="cls-6" cx="118.58" cy="306.09" r="21.54" transform="translate(-286.14 217.5) rotate(-70.33)"/><path class="cls-21" d="M292.08,208.16l-4.4,7.23c-1.78,2.92-5,4.23-7.23,3l-82.6-46.68,12.28-20.17c1-1.64,2.81-2.33,4-1.54l77.22,50.44C293.54,201.79,293.85,205.24,292.08,208.16Z" transform="translate(-76.57 -97.21)"/><circle class="cls-22" cx="208.96" cy="162.6" r="22.14" transform="translate(-81.62 -90.5) rotate(-1.82)"/><circle class="cls-6" cx="208.96" cy="162.6" r="16.91" transform="translate(-47.35 259.81) rotate(-85.13)"/><polygon class="cls-23" points="229.47 113.01 247.97 99.66 273.6 130.83 269.72 135.42 246.54 110.56 232.23 121.04 229.47 113.01"/><path class="cls-24" d="M345,195a1.2,1.2,0,0,0-.68,1.22L346,210.8a64.26,64.26,0,0,0-13.9,15.45l-14.72-.12a1.22,1.22,0,0,0-1.15.8l-5.89,16.66a1.23,1.23,0,0,0,.39,1.35l11.51,9.16a64.58,64.58,0,0,0,1.1,20.75l-10.49,10.33a1.19,1.19,0,0,0-.24,1.38l7.6,15.94a1.21,1.21,0,0,0,1.23.68L336,301.52a64.26,64.26,0,0,0,15.45,13.9l-.12,14.72a1.21,1.21,0,0,0,.8,1.15l16.66,5.89a1.21,1.21,0,0,0,1.35-.39l9.16-11.51a64.29,64.29,0,0,0,20.75-1.1l10.33,10.49a1.21,1.21,0,0,0,1.38.25l15.94-7.61a1.2,1.2,0,0,0,.68-1.23l-1.66-14.63A64.4,64.4,0,0,0,440.66,296l14.72.11a1.21,1.21,0,0,0,1.15-.8l5.89-16.65a1.2,1.2,0,0,0-.39-1.35l-11.51-9.17a64.29,64.29,0,0,0-1.1-20.75l10.49-10.33a1.2,1.2,0,0,0,.25-1.38l-7.61-15.94a1.23,1.23,0,0,0-1.23-.68l-14.63,1.66a64.4,64.4,0,0,0-15.44-13.9l.11-14.72a1.22,1.22,0,0,0-.8-1.15l-16.65-5.89a1.22,1.22,0,0,0-1.35.39L393.39,197a64.58,64.58,0,0,0-20.75,1.1l-10.33-10.49a1.19,1.19,0,0,0-1.38-.24Z" transform="translate(-76.57 -97.21)"/><path class="cls-25" d="M369.12,256.91a17.76,17.76,0,1,1-.43,2.57A17.77,17.77,0,0,1,369.12,256.91Zm30.47,7.47a14.49,14.49,0,0,0,.33-2,13.5,13.5,0,1,0-.33,2Z" transform="translate(-76.57 -97.21)"/><path class="cls-25" d="M344.12,251.19c.35-1.44.78-2.88,1.28-4.3h0c.16-.45.32-.89.5-1.33a43.45,43.45,0,0,1,3.05-6.29l.05-.09.14-.23.27-.45a1,1,0,0,1,1.12-.46,1,1,0,0,1,.3.13,1,1,0,0,1,.34,1.42,42.2,42.2,0,0,0-3.82,8,41.61,41.61,0,0,0,25.34,53.07,40.07,40.07,0,0,0,4.1,1.22,41.58,41.58,0,0,0,23.63-79.62c-1.33-.47-2.68-.87-4-1.21a41.49,41.49,0,0,0-18.05-.36,1,1,0,0,1-.45,0,1,1,0,0,1-.77-.8,1,1,0,0,1,.81-1.22,43.59,43.59,0,0,1,18.95.38,43.09,43.09,0,0,1,4.25,1.27,43.66,43.66,0,0,1-24.82,83.59,41.53,41.53,0,0,1-4.3-1.29,43.65,43.65,0,0,1-27.88-51.41Z" transform="translate(-76.57 -97.21)"/><rect class="cls-26" x="285.69" y="198.19" width="10.16" height="29.06" rx="2.04" transform="translate(75.05 -216.8) rotate(31.09)"/><polygon class="cls-27" points="224.65 135.08 221.8 157.71 261.45 165.26 263.61 159.65 230.69 151.23 233.02 133.65 224.65 135.08"/><path class="cls-28" d="M295.25,231.69a14.32,14.32,0,1,0,14.95-24.14Z" transform="translate(-76.57 -97.21)"/><path class="cls-29" d="M287.11,226.67l-2.34,3.88a1.54,1.54,0,0,0,.59,2.09l7.2,4.33a1.53,1.53,0,0,0,2.12-.45l18.65-30.93a1.53,1.53,0,0,0-.59-2.09l-7.19-4.34a1.53,1.53,0,0,0-2.12.45l-2.15,3.56Z" transform="translate(-76.57 -97.21)"/><path class="cls-24" d="M385.13,363.41a.7.7,0,0,0-.2.77l3,7.83a36.45,36.45,0,0,0-5.49,10.49l-8.13,2a.69.69,0,0,0-.52.61l-.89,10a.68.68,0,0,0,.4.69l7.64,3.43a36.85,36.85,0,0,0,3.54,11.28l-4.32,7.18a.69.69,0,0,0,.06.8l6.45,7.71a.69.69,0,0,0,.77.21l7.83-3a36.78,36.78,0,0,0,10.48,5.49l2,8.13a.69.69,0,0,0,.61.52l10,.89a.69.69,0,0,0,.69-.4l3.43-7.65a36.31,36.31,0,0,0,11.28-3.54l7.18,4.33a.69.69,0,0,0,.8-.06l7.71-6.45a.69.69,0,0,0,.21-.77l-3-7.84a36.37,36.37,0,0,0,5.48-10.48l8.14-2a.71.71,0,0,0,.52-.61l.89-10a.69.69,0,0,0-.4-.69l-7.65-3.43a36.37,36.37,0,0,0-3.54-11.29l4.33-7.18a.68.68,0,0,0-.06-.79L448,361.88a.71.71,0,0,0-.78-.2l-7.83,3a36.65,36.65,0,0,0-10.48-5.49l-2-8.13a.71.71,0,0,0-.61-.52l-10-.89a.68.68,0,0,0-.69.4l-3.42,7.65a36.37,36.37,0,0,0-11.29,3.54l-7.18-4.33a.68.68,0,0,0-.79.06Z" transform="translate(-76.57 -97.21)"/><path class="cls-25" d="M407.2,394.17a10.1,10.1,0,0,1,20.08-1.71,10.11,10.11,0,0,1-20,3.19A9.42,9.42,0,0,1,407.2,394.17Zm17.85-.19a6.46,6.46,0,0,0-.1-1.15,7.71,7.71,0,1,0,.1,1.15Z" transform="translate(-76.57 -97.21)"/><path class="cls-25" d="M392.6,394.55c0-.85,0-1.7.1-2.56h0c0-.26.05-.53.09-.8a24.5,24.5,0,0,1,.79-3.9l0-.05a.83.83,0,0,1,0-.15l.09-.29a.57.57,0,0,1,.73-.38.58.58,0,0,1,.39.73A23.74,23.74,0,0,0,403,413a23.43,23.43,0,0,0,12.31,4.81,21.94,21.94,0,0,0,2.43.1,23.67,23.67,0,0,0,1.78-47.25q-1.2-.11-2.4-.09a23.64,23.64,0,0,0-10,2.35.54.54,0,0,1-.25.06.58.58,0,0,1-.53-.34.58.58,0,0,1,.27-.78,24.71,24.71,0,0,1,10.5-2.47q1.26,0,2.52.09a24.86,24.86,0,0,1-1.86,49.61c-.85,0-1.7,0-2.56-.1a24.88,24.88,0,0,1-22.64-24.41Z" transform="translate(-76.57 -97.21)"/><path class="cls-30" d="M433.6,434.29l-.46-3.94c9.23-1.46,15.74-7,18.49-8.57a59.11,59.11,0,0,1,6.92,11.45C447.11,438.24,433.6,434.29,433.6,434.29Z" transform="translate(-76.57 -97.21)"/><path class="cls-31" d="M541.24,555s1.71,2.7,2.14,10.23a1.23,1.23,0,0,1-1.22,1.3H528.81a.79.79,0,0,1-.75-1c.78-2.31,3.15-8,8.43-11.18Z" transform="translate(-76.57 -97.21)"/><path class="cls-32" d="M541.82,549.9l-.75,6.33a1.2,1.2,0,0,1-1,1,10.8,10.8,0,0,1-2.83,0,2,2,0,0,1-1.61-1.94V549.2Z" transform="translate(-76.57 -97.21)"/><path class="cls-33" d="M508.21,554.31a18.69,18.69,0,0,1,2.5,9.42,2.37,2.37,0,0,1-2.38,2.31H487.6a1,1,0,0,1-.57-1.81c3.92-2.75,11.63-7.9,17.21-9.92Z" transform="translate(-76.57 -97.21)"/><path class="cls-34" d="M510.34,547.47l-1.61,7.82a1.62,1.62,0,0,1-1.91,1.27,5.86,5.86,0,0,1-1.82-.77,1.84,1.84,0,0,1-.83-1.89l1.67-9.47Z" transform="translate(-76.57 -97.21)"/><path class="cls-35" d="M538.86,438.73s5.61,4.94,6.66,10.88-3,102.5-3,102.5-5.6.93-8.49-.82c0,0-3.42-62.67-6-77.15,0,0-13.65,64.92-17.44,76.65,0,0-5.39.66-7.13-.37,0,0,3.57-84.15,8.07-99.11Z" transform="translate(-76.57 -97.21)"/><path class="cls-36" d="M528.18,472.11a.61.61,0,0,0,.59-.46l2.32-8.89,4.94-3.17a.61.61,0,0,0,.18-.84.6.6,0,0,0-.84-.19l-5.14,3.3a.6.6,0,0,0-.26.36l-2.38,9.13a.61.61,0,0,0,.44.74Z" transform="translate(-76.57 -97.21)"/><path class="cls-37" d="M483.59,382.93c23.58-2,29.74,2.92,29.74,2.92L502,403.74s-23.17-.46-39.77-13.25a40.57,40.57,0,0,0,6.65-9.92A31.28,31.28,0,0,0,483.59,382.93Z" transform="translate(-76.57 -97.21)"/><path class="cls-38" d="M446.67,348.32A.72.72,0,0,1,448,348l3,6.42a6.74,6.74,0,0,1,.54,4l-1.06,3.74a6.41,6.41,0,0,0,1.32,5.13c2.76,3.46,8.65,9.77,17,13.26a40.57,40.57,0,0,1-6.65,9.92,40.68,40.68,0,0,1-14.15-19.65,3.16,3.16,0,0,1-2.23-3.14Z" transform="translate(-76.57 -97.21)"/><path class="cls-39" d="M475.83,393.3c8.3-8.94,24.11-13,33.26-14.64a8.39,8.39,0,0,1,9.39,5.32c4.12,11.08,15.32,39.89,17.49,44.84,1.79,4.06,3.65,8,4.83,10.51a3,3,0,0,1-1.39,4c-7.7,3.71-21.56,7.91-27.18,9.55a1.93,1.93,0,0,1-2.47-1.86,6,6,0,0,0-.85-3.1l-21.28-35.46c-13.27,14.71-21.41,20.61-30.27,21.49-2.92-3-7.72-9.27-6.15-12.26C462.55,415.72,475.83,393.3,475.83,393.3Z" transform="translate(-76.57 -97.21)"/><path class="cls-40" d="M436.9,433.77l-9.36,9.6-13.7,3.49c.52-2,9.35-7.27,9.35-7.27s6.51-8.35,8.57-10.31c1.7-1.62,3.79,1.07,4.44,2,.14.19.21.31.21.31Z" transform="translate(-76.57 -97.21)"/><path class="cls-41" d="M496.5,362.23l7.07,17.25s-8.12,5.63-14.66,5.09l-3.52-15.51Z" transform="translate(-76.57 -97.21)"/><path class="cls-42" d="M484.56,350.47c-.16.23-5.12,18.12-5.12,18.12l10.28,2.61,7.22-16.26S487.27,346.63,484.56,350.47Z" transform="translate(-76.57 -97.21)"/><path class="cls-43" d="M493.07,357.41l-3.13,8.86a1.37,1.37,0,0,1-.16.32c-.43.6-2,2.57-3.95.79-1.74-1.6-3.35-3.05-4.83-3.31a1.31,1.31,0,0,0-1.49.94,56.3,56.3,0,0,0-1.73,8.64,1.31,1.31,0,0,0,1.06,1.41,42.42,42.42,0,0,0,9.82.82,1.32,1.32,0,0,0,1.1-.77c1-2.14,4-8.63,5.1-10.31s3.61-1.53,4.69-1.43a1.33,1.33,0,0,0,1-.32c.94-.83,2.73-2.93.21-5.46a1.31,1.31,0,0,1,0-1.89c1.08-1,2.24-2.82.44-5.06a4.81,4.81,0,0,0-5.74-1.38,1.31,1.31,0,0,1-1.58-.58,1,1,0,0,0-1.07-.5,1.3,1.3,0,0,1-1.38-1.33,3.92,3.92,0,0,0-3-4.09c-4.49-1.39-7.29,2.94-7.56,6.18s4.67,4.48,7.59,4.26c2.21-.17,3.86,2,4.52,3.09A1.3,1.3,0,0,1,493.07,357.41Z" transform="translate(-76.57 -97.21)"/><path class="cls-44" d="M493.69,368s.72-5.62,3.06-5.9,4.61,1.65,2.29,4.8C496.15,370.84,493.69,368,493.69,368Z" transform="translate(-76.57 -97.21)"/></svg>