<svg id="Layer_1" data-name="Layer 1" xmlns="http://www.w3.org/2000/svg" xmlns:xlink="http://www.w3.org/1999/xlink" viewBox="0 0 541.31 457.76"><defs><style>.cls-1{fill:#f8d6c3;}.cls-2{fill:url(#Degradado_sin_nombre_19);}.cls-3{fill:url(#Degradado_sin_nombre_19-2);}.cls-4{fill:url(#Degradado_sin_nombre_19-3);}.cls-5{fill:url(#Degradado_sin_nombre_19-4);}.cls-6{fill:url(#Degradado_sin_nombre_19-5);}.cls-16,.cls-18,.cls-7{fill:none;stroke-miterlimit:10;}.cls-7{opacity:0.5;stroke:url(#linear-gradient);}.cls-8{fill:url(#Áåçûìÿííûé_ãðàäèåíò_24);}.cls-9{fill:url(#Áåçûìÿííûé_ãðàäèåíò_24-2);}.cls-10{fill:url(#Áåçûìÿííûé_ãðàäèåíò_3);}.cls-11{fill:#031f60;}.cls-12{fill:#1e3779;}.cls-13{fill:#2b3d89;}.cls-14{fill:#344593;}.cls-15{fill:#e9fffb;opacity:0.2;}.cls-16,.cls-18{stroke:#e9fffb;}.cls-17,.cls-28{fill:#4F81BD;}.cls-17{opacity:0.82;}.cls-18{stroke-linecap:round;}.cls-19,.cls-21{fill:#232c38;}.cls-19,.cls-20{opacity:0.78;}.cls-22{fill:#ffa8a7;}.cls-23{fill:#c06b39;}.cls-24{fill:#d5dae0;opacity:0.38;}.cls-25{fill:#092138;}.cls-26{fill:#f28f8f;}.cls-27{fill:#543354;}.cls-29{fill:#f5fbfb;}</style><linearGradient id="Degradado_sin_nombre_19" x1="178.37" y1="449.81" x2="185.98" y2="449.81" gradientUnits="userSpaceOnUse"><stop offset="0" stop-color="#6b99d1"/><stop offset="0.28" stop-color="#83acdd" stop-opacity="0.74"/><stop offset="0.92" stop-color="#c0dcfb" stop-opacity="0.08"/><stop offset="1" stop-color="#c8e2ff" stop-opacity="0"/></linearGradient><linearGradient id="Degradado_sin_nombre_19-2" x1="284.88" y1="388.21" x2="292.49" y2="388.21" xlink:href="#Degradado_sin_nombre_19"/><linearGradient id="Degradado_sin_nombre_19-3" x1="178.37" y1="326.6" x2="185.98" y2="326.6" xlink:href="#Degradado_sin_nombre_19"/><linearGradient id="Degradado_sin_nombre_19-4" x1="391.78" y1="326.6" x2="399.38" y2="326.6" xlink:href="#Degradado_sin_nombre_19"/><linearGradient id="Degradado_sin_nombre_19-5" x1="284.88" y1="265" x2="292.49" y2="265" xlink:href="#Degradado_sin_nombre_19"/><linearGradient id="linear-gradient" x1="395.41" y1="440.33" x2="395.41" y2="335.95" gradientUnits="userSpaceOnUse"><stop offset="0" stop-color="#4F81BD"/><stop offset="0.24" stop-color="#ea9666" stop-opacity="0.78"/><stop offset="0.79" stop-color="#d1cdd4" stop-opacity="0.22"/><stop offset="1" stop-color="#c8e2ff" stop-opacity="0"/></linearGradient><linearGradient id="Áåçûìÿííûé_ãðàäèåíò_24" x1="165.59" y1="307.9" x2="308.76" y2="307.9" gradientUnits="userSpaceOnUse"><stop offset="0" stop-color="#5761d7"/><stop offset="0.18" stop-color="#5c66d9"/><stop offset="0.39" stop-color="#6a73df"/><stop offset="0.61" stop-color="#8289e8"/><stop offset="0.85" stop-color="#a3a7f5"/><stop offset="1" stop-color="#bcbeff"/></linearGradient><linearGradient id="Áåçûìÿííûé_ãðàäèåíò_24-2" x1="167.64" y1="172.56" x2="308.76" y2="172.56" xlink:href="#Áåçûìÿííûé_ãðàäèåíò_24"/><linearGradient id="Áåçûìÿííûé_ãðàäèåíò_3" x1="179.36" y1="312.11" x2="310.88" y2="312.11" gradientUnits="userSpaceOnUse"><stop offset="0" stop-color="#c0bff6"/><stop offset="0.29" stop-color="#c5c4f7"/><stop offset="0.64" stop-color="#d3d2f9"/><stop offset="1" stop-color="#e9e9fd"/></linearGradient></defs><path class="cls-1" d="M179.48,571.47c-1.48.85-1.48,2.25,0,3.1a5.93,5.93,0,0,0,5.38,0c1.49-.85,1.49-2.25,0-3.1A5.93,5.93,0,0,0,179.48,571.47Z" transform="translate(-71.47 -117.45)"/><path class="cls-1" d="M392.89,571.47c-1.49.85-1.49,2.25,0,3.1a5.93,5.93,0,0,0,5.38,0c1.48-.85,1.48-2.25,0-3.1A5.93,5.93,0,0,0,392.89,571.47Z" transform="translate(-71.47 -117.45)"/><path class="cls-1" d="M72.59,509.86c-1.49.86-1.49,2.25,0,3.11A5.93,5.93,0,0,0,78,513c1.48-.86,1.48-2.25,0-3.11A5.93,5.93,0,0,0,72.59,509.86Z" transform="translate(-71.47 -117.45)"/><path class="cls-1" d="M286,509.86c-1.48.86-1.48,2.25,0,3.11a5.93,5.93,0,0,0,5.38,0c1.49-.86,1.49-2.25,0-3.11A5.93,5.93,0,0,0,286,509.86Z" transform="translate(-71.47 -117.45)"/><path class="cls-1" d="M499.4,509.86c-1.48.86-1.48,2.25,0,3.11a5.93,5.93,0,0,0,5.38,0c1.49-.86,1.49-2.25,0-3.11A5.93,5.93,0,0,0,499.4,509.86Z" transform="translate(-71.47 -117.45)"/><path class="cls-2" d="M179.48,448.26c-1.48.86-1.48,2.25,0,3.1a5.93,5.93,0,0,0,5.38,0c1.49-.85,1.49-2.24,0-3.1A5.93,5.93,0,0,0,179.48,448.26Z" transform="translate(-71.47 -117.45)"/><path class="cls-1" d="M392.89,448.26c-1.49.86-1.49,2.25,0,3.1a5.93,5.93,0,0,0,5.38,0c1.48-.85,1.48-2.24,0-3.1A5.93,5.93,0,0,0,392.89,448.26Z" transform="translate(-71.47 -117.45)"/><path class="cls-1" d="M606.3,448.26c-1.49.86-1.49,2.25,0,3.1a5.93,5.93,0,0,0,5.38,0c1.48-.85,1.48-2.24,0-3.1A5.93,5.93,0,0,0,606.3,448.26Z" transform="translate(-71.47 -117.45)"/><path class="cls-1" d="M72.59,386.65c-1.49.86-1.49,2.25,0,3.11a5.93,5.93,0,0,0,5.38,0c1.48-.86,1.48-2.25,0-3.11A6,6,0,0,0,72.59,386.65Z" transform="translate(-71.47 -117.45)"/><path class="cls-3" d="M286,386.65c-1.48.86-1.48,2.25,0,3.11a5.93,5.93,0,0,0,5.38,0c1.49-.86,1.49-2.25,0-3.11A6,6,0,0,0,286,386.65Z" transform="translate(-71.47 -117.45)"/><path class="cls-1" d="M499.4,386.65c-1.48.86-1.48,2.25,0,3.11a5.93,5.93,0,0,0,5.38,0c1.49-.86,1.49-2.25,0-3.11A6,6,0,0,0,499.4,386.65Z" transform="translate(-71.47 -117.45)"/><path class="cls-4" d="M179.48,325.05c-1.48.86-1.48,2.25,0,3.1a5.93,5.93,0,0,0,5.38,0c1.49-.85,1.49-2.24,0-3.1A5.93,5.93,0,0,0,179.48,325.05Z" transform="translate(-71.47 -117.45)"/><path class="cls-5" d="M392.89,325.05c-1.49.86-1.49,2.25,0,3.1a5.93,5.93,0,0,0,5.38,0c1.48-.85,1.48-2.24,0-3.1A5.93,5.93,0,0,0,392.89,325.05Z" transform="translate(-71.47 -117.45)"/><path class="cls-1" d="M606.3,325.05c-1.49.86-1.49,2.25,0,3.1a5.93,5.93,0,0,0,5.38,0c1.48-.85,1.48-2.24,0-3.1A5.93,5.93,0,0,0,606.3,325.05Z" transform="translate(-71.47 -117.45)"/><path class="cls-1" d="M72.59,263.44c-1.49.86-1.49,2.25,0,3.11a5.93,5.93,0,0,0,5.38,0c1.48-.86,1.48-2.25,0-3.11A6,6,0,0,0,72.59,263.44Z" transform="translate(-71.47 -117.45)"/><path class="cls-6" d="M286,263.44c-1.48.86-1.48,2.25,0,3.11a5.93,5.93,0,0,0,5.38,0c1.49-.86,1.49-2.25,0-3.11A6,6,0,0,0,286,263.44Z" transform="translate(-71.47 -117.45)"/><path class="cls-1" d="M499.4,263.44c-1.48.86-1.48,2.25,0,3.11a5.93,5.93,0,0,0,5.38,0c1.49-.86,1.49-2.25,0-3.11A6,6,0,0,0,499.4,263.44Z" transform="translate(-71.47 -117.45)"/><path class="cls-7" d="M310.6,381.55l73.69-42.4c6.29-3.61,16.48-3.6,22.76,0l73.19,42.34c6.28,3.63,6.28,9.53,0,13.16L407,437.1c-6.27,3.64-16.46,3.65-22.74,0l-73.71-42.47C304.31,391,304.31,385.17,310.6,381.55Z" transform="translate(-71.47 -117.45)"/><path class="cls-8" d="M167.72,490.42h0l13.71,7.92,2.35-19.21L292,416.64a15.48,15.48,0,0,0,7-12.13V167.67l9.79-41.83L295,117.92h0l0,0h0c-1.27-.72-3-.61-4.92.5L172.59,186.24a15.48,15.48,0,0,0-7,12.14V485.86C165.6,488.13,166.42,489.71,167.72,490.42Z" transform="translate(-71.47 -117.45)"/><path class="cls-9" d="M308.76,125.84,295,117.92h0l0,0h0c-1.27-.72-3-.61-4.92.5L172.59,186.24a14.36,14.36,0,0,0-5,5.23l62.68,36.19L299,189v-21.3Z" transform="translate(-71.47 -117.45)"/><path class="cls-10" d="M310.85,130.41c0-4.48-3.13-6.28-7-4L186.38,194.19a15.44,15.44,0,0,0-7,12.13l0,287.5c0,4.45,3.13,6.26,7,4.05L303.86,430a15.45,15.45,0,0,0,7-12.14ZM300.57,419.23,189.45,483.41c-2.59,1.48-4.66.3-4.66-2.7l-.08-267.51a10.38,10.38,0,0,1,4.66-8.09l28.49-16.48.67-.38c2.59-1.48,4.67-.27,4.67,2.7v1.86a3.53,3.53,0,0,0,1.11,2.86,2.14,2.14,0,0,0,.27.16v0a3.34,3.34,0,0,0,3.32-.35l34.47-19.91a10.27,10.27,0,0,0,4.67-8.1v-1.86a10.41,10.41,0,0,1,4.67-8.09l28.81-16.62c2.56-1.48,4.67-.29,4.67,2.7l.05,267.48A10.36,10.36,0,0,1,300.57,419.23Z" transform="translate(-71.47 -117.45)"/><path class="cls-11" d="M233.39,179.71l16.73-9.66c1.43-.83,2.59-.45,2.59.85a5.21,5.21,0,0,1-2.59,3.84l-16.73,9.66c-1.44.83-2.6.45-2.6-.84A5.19,5.19,0,0,1,233.39,179.71Z" transform="translate(-71.47 -117.45)"/><path class="cls-11" d="M254.59,169.73c0,1.25.89,1.76,2,1.13a4.34,4.34,0,0,0,2-3.41c0-1.25-.88-1.76-2-1.13A4.34,4.34,0,0,0,254.59,169.73Z" transform="translate(-71.47 -117.45)"/><path class="cls-11" d="M305.24,411.11a10.36,10.36,0,0,1-4.67,8.12L189.45,483.41c-2.59,1.48-4.66.3-4.66-2.7v-1l-.08-266.49a10.38,10.38,0,0,1,4.66-8.09l28.49-16.48.67-.38c2.59-1.48,4.67-.27,4.67,2.7v1.86c0,3,2.11,4.21,4.7,2.7l34.47-19.91a10.27,10.27,0,0,0,4.67-8.1v-1.86a10.41,10.41,0,0,1,4.67-8.09l28.13-16.24.68-.38c2.56-1.48,4.67-.29,4.67,2.7Z" transform="translate(-71.47 -117.45)"/><path class="cls-12" d="M300.52,140.93l-.68.38-5.56,3.21V408.4l10.27,5.93a8.84,8.84,0,0,0,.69-3.22l-.05-267.48C305.19,140.64,303.08,139.45,300.52,140.93Z" transform="translate(-71.47 -117.45)"/><path class="cls-13" d="M299.9,407.76a10.35,10.35,0,0,1-4.67,8.12L184.79,479.69l-.08-266.49a10.38,10.38,0,0,1,4.66-8.09l28.49-16.48v.83c0,3,2.1,4.21,4.69,2.7l.65-.38v1c0,3,2.11,4.21,4.7,2.7l34.47-19.91a10.27,10.27,0,0,0,4.67-8.1v-1.86a10.41,10.41,0,0,1,4.67-8.09l28.13-16.24Z" transform="translate(-71.47 -117.45)"/><path class="cls-14" d="M279.38,322.6c12.9-48.67,18.65-134.9,20.47-168.1V141.31l-28.13,16.24a10.41,10.41,0,0,0-4.67,8.09v1.86a10.27,10.27,0,0,1-4.67,8.1L227.9,195.51c-2.59,1.51-4.7.29-4.7-2.7v-1l-.65.38c-2.59,1.51-4.69.3-4.69-2.7v-.83l-28.49,16.48a10.38,10.38,0,0,0-4.66,8.09l.07,234.92C186.3,447.15,258.7,400.65,279.38,322.6Z" transform="translate(-71.47 -117.45)"/><path class="cls-11" d="M224.31,195.67l-5.18-3.24a3.38,3.38,0,0,1-1.27-3v-.83l.67-.38c2.59-1.48,4.67-.27,4.67,2.7v1.86A3.53,3.53,0,0,0,224.31,195.67Z" transform="translate(-71.47 -117.45)"/><path class="cls-15" d="M343,399a9.22,9.22,0,0,0,.46-1.47,2.68,2.68,0,0,0,.07-.27,7.64,7.64,0,0,0,.17-1.48l-.05-267.48c0-3-2.11-4.18-4.67-2.7l-.68.38-5.56,3.21h0l-22.57,13a10.41,10.41,0,0,0-4.67,8.09v1.86a10.27,10.27,0,0,1-4.67,8.1l-34.48,19.91c-2.58,1.51-4.69.29-4.69-2.7v-1.86c0-3-2.08-4.18-4.67-2.7l-.67.38-28.49,16.48a10.39,10.39,0,0,0-4.67,8.09l.09,266.49v1c0,3,2.07,4.18,4.66,2.7L339.07,403.9a10.14,10.14,0,0,0,4-4.9Z" transform="translate(-71.47 -117.45)"/><path class="cls-16" d="M343,399a9.22,9.22,0,0,0,.46-1.47,2.68,2.68,0,0,0,.07-.27,7.64,7.64,0,0,0,.17-1.48l-.05-267.48c0-3-2.11-4.18-4.67-2.7l-.68.38-5.56,3.21h0l-22.57,13a10.41,10.41,0,0,0-4.67,8.09v1.86a10.27,10.27,0,0,1-4.67,8.1l-34.48,19.91c-2.58,1.51-4.69.29-4.69-2.7v-1.86c0-3-2.08-4.18-4.67-2.7l-.67.38-28.49,16.48a10.39,10.39,0,0,0-4.67,8.09l.09,266.49v1c0,3,2.07,4.18,4.66,2.7L339.07,403.9a10.14,10.14,0,0,0,4-4.9Z" transform="translate(-71.47 -117.45)"/><path class="cls-17" d="M284.07,203.17V402.1c0,4.47,3.14,6.28,7,4L386.64,351a15.5,15.5,0,0,0,7-12.14V139.91c0-4.47-3.14-6.28-7-4L291.08,191A15.49,15.49,0,0,0,284.07,203.17Z" transform="translate(-71.47 -117.45)"/><path class="cls-18" d="M284.07,203.17V402.1c0,4.47,3.14,6.28,7,4L386.64,351a15.5,15.5,0,0,0,7-12.14V139.91c0-4.47-3.14-6.28-7-4L291.08,191A15.49,15.49,0,0,0,284.07,203.17Z" transform="translate(-71.47 -117.45)"/><path class="cls-19" d="M297.83,323.44l38.23-22.08c1.55-.89,2.8-.16,2.8,1.62v.16a6.19,6.19,0,0,1-2.8,4.86l-38.23,22.07c-1.55.89-2.8.17-2.8-1.62v-.16A6.17,6.17,0,0,1,297.83,323.44Z" transform="translate(-71.47 -117.45)"/><path class="cls-19" d="M347,295.08l32.94-19c1.55-.89,2.81-.17,2.81,1.62v.16a6.18,6.18,0,0,1-2.81,4.85l-32.94,19c-1.55.9-2.8.17-2.8-1.62v-.15A6.2,6.2,0,0,1,347,295.08Z" transform="translate(-71.47 -117.45)"/><g class="cls-20"><path class="cls-21" d="M297.83,354.63l38.23-22.07c1.55-.89,2.8-.17,2.8,1.62v.16a6.2,6.2,0,0,1-2.8,4.86l-38.23,22.07c-1.55.89-2.8.17-2.8-1.62v-.16A6.2,6.2,0,0,1,297.83,354.63Z" transform="translate(-71.47 -117.45)"/><path class="cls-21" d="M347,326.28l32.94-19c1.55-.9,2.81-.17,2.81,1.62V309a6.2,6.2,0,0,1-2.81,4.86l-32.94,19c-1.55.89-2.8.17-2.8-1.62v-.16A6.18,6.18,0,0,1,347,326.28Z" transform="translate(-71.47 -117.45)"/></g><g class="cls-20"><path class="cls-21" d="M297.83,339l20.7-12c1.55-.9,2.8-.17,2.8,1.62v.15a6.19,6.19,0,0,1-2.8,4.86l-20.7,11.95c-1.55.89-2.8.17-2.8-1.62v-.16A6.17,6.17,0,0,1,297.83,339Z" transform="translate(-71.47 -117.45)"/><path class="cls-21" d="M327.82,321.72l17.55-10.19c1.55-.9,2.8-.18,2.8,1.61v.16a6.2,6.2,0,0,1-2.8,4.86l-17.55,10.19c-1.55.9-2.8.18-2.8-1.61v-.16A6.22,6.22,0,0,1,327.82,321.72Z" transform="translate(-71.47 -117.45)"/><path class="cls-21" d="M355.32,305.77l24.57-14.12c1.55-.89,2.81-.16,2.81,1.63v.16a6.18,6.18,0,0,1-2.81,4.85L355.32,312.4c-1.55.89-2.81.16-2.81-1.62v-.16A6.18,6.18,0,0,1,355.32,305.77Z" transform="translate(-71.47 -117.45)"/></g><g class="cls-20"><path class="cls-21" d="M297.83,370.41l33.34-19.22c1.55-.89,2.81-.16,2.81,1.62V353a6.21,6.21,0,0,1-2.81,4.86L297.83,377c-1.54.89-2.8.16-2.8-1.62v-.16A6.2,6.2,0,0,1,297.83,370.41Z" transform="translate(-71.47 -117.45)"/><path class="cls-21" d="M340.47,345.83,358,335.64c1.55-.9,2.8-.18,2.8,1.61v.16a6.2,6.2,0,0,1-2.8,4.86l-17.55,10.19c-1.55.9-2.8.18-2.8-1.61v-.16A6.2,6.2,0,0,1,340.47,345.83Z" transform="translate(-71.47 -117.45)"/><path class="cls-21" d="M368,329.88,379.89,323c1.55-.89,2.81-.16,2.81,1.63v.16a6.21,6.21,0,0,1-2.81,4.85L368,336.51c-1.55.89-2.81.16-2.81-1.63v-.15A6.18,6.18,0,0,1,368,329.88Z" transform="translate(-71.47 -117.45)"/></g><polygon class="cls-19" points="229.04 181.99 305.71 137.72 305.71 49.19 228.91 93.53 229.04 181.99"/><path class="cls-22" d="M469.29,289.24c.5,4.33,5.81,22.18,4.7,28.57s-18.88,17.87-18.88,17.87l-2.44-10.93,7.52-7.37a6.17,6.17,0,0,0,1.79-5.29l-2.19-15Z" transform="translate(-71.47 -117.45)"/><path class="cls-23" d="M460,311l-7.31-32.92c-1-12.22,10.21-11.15,12.8-6.85s7.87,32.41,8.11,34.92c1,6.36,1.12,9.46.56,12.07s-6.79,10.06-19,17.43l-2.44-10.93Z" transform="translate(-71.47 -117.45)"/><path class="cls-24" d="M399.13,475.25l22.44-12.95c15.21-8.79,36.23-10.9,46.94-4.72s7.05,18.32-8.17,27.1l-22.44,13c-15.22,8.78-36.23,10.9-46.94,4.72S383.91,484,399.13,475.25Z" transform="translate(-71.47 -117.45)"/><path class="cls-25" d="M458.12,466.47a35.66,35.66,0,0,0,.79,4.31c.45,1.87.55,4.32-1.56,5s-4.51.46-5.86-1.37c-1.68-2.27-2.56-5.1-5-7.31s-5.24-4.51-6.08-7.89c-.76-3.05-.28-4.95,1.81-5.26,2.63-.38,6.79,1.83,8.92,3.39C452.68,458.47,458.12,466.47,458.12,466.47Z" transform="translate(-71.47 -117.45)"/><path class="cls-25" d="M429.75,484.2s.15,2.43.3,4.36.83,5,.21,6.42-3.79,2.48-7.53,2.45a18.11,18.11,0,0,0-8.77,3.3c-2.37,2.06-7.81,2.88-11,1.88s-6.77-2.49-7.3-4,1.13-2.22,9-5.8,13.6-6.06,16.64-10.2Z" transform="translate(-71.47 -117.45)"/><path class="cls-21" d="M460,424.86a90.55,90.55,0,0,0-3.45-16.33s1.05-14.09,1.55-27.45c.54-14.43,1.43-32.51,1.69-36.11L413,355.38s2.94,55.93,3.45,63.26,1.09,17.48,1.85,26.89c1,11.89,2,38.23,2,38.23a14.24,14.24,0,0,0,9.53,1.83s4.05-32.84,4.73-41.27a64.35,64.35,0,0,0-2-21.09s1.3-14.49,2.43-26.42c1-10.63,2.27-17,2.44-22.19l.93-.5s.95,20.64,1.46,28,1.6,14.35,3.57,28c1.71,11.8,6.17,36.13,6.17,36.13,5,2.87,8.53.28,8.53.28S461.35,435.1,460,424.86Z" transform="translate(-71.47 -117.45)"/><path class="cls-21" d="M437.46,374.62S448,369.05,453.22,364c0,0-4.88,7.4-11.29,10.68,0,0-2.28,25.64-2.27,25.13l-1.31-25.26Z" transform="translate(-71.47 -117.45)"/><path class="cls-22" d="M453.18,268.55c-3.56.17-6.21,1.09-6.66,0a47.75,47.75,0,0,1-.81-5.57c.41-1,.76-2.14.76-2.14a17.46,17.46,0,0,0-7.34-32.28c-9.05-.94-15.7,5.42-17.48,14.15-1,4.31-1.81,12.87.33,20.55,1.14,4.12,2.13,5.29,3.88,5.85a31.63,31.63,0,0,0,6,.4h0s.48,2.67.81,4.38.2,2.63-3.21,4.73,5.16,6.43,10.77,6,11.91-3.81,13.64-7.44C455.8,273.2,455.63,268.43,453.18,268.55Z" transform="translate(-71.47 -117.45)"/><path class="cls-26" d="M453.18,268.55c-3.56.17-6.21,1.09-6.66,0a47.75,47.75,0,0,1-.81-5.57c.41-1,.76-2.14.76-2.14a17.69,17.69,0,0,0,4.2-3.6l-11.83,3.9-3.46-.7-1.4-.8-.91-1.63c0,.22-.54,5.39-1.7,7.14s-4.1,3.79-5.71,3.89l.2.07a31.63,31.63,0,0,0,6,.4h0s.48,2.67.81,4.38c.3,1.55.2,2.45-2.34,4.16l4.8,3.69,14.37-.24c.39-.24.77-.49,1.13-.76l4.28-6.59C455.57,271.14,455,268.46,453.18,268.55Z" transform="translate(-71.47 -117.45)"/><path class="cls-27" d="M448.38,261.47c4.39-4,5.77-8,6.36-13.62a17.53,17.53,0,0,0-15.61-19.25,15.08,15.08,0,0,0-14.48,6.85,9.72,9.72,0,0,0,1.64,2.27,4.13,4.13,0,0,0,.62,3.82c1,1.14,1.07,2.31,1.09,4.26,0,1.66-.22,4.58-.05,6.38.25,2.53,3.08,3.08,3.08,3.08s.15-5.68.65-6.28c1-2.1,4.82-2.73,6,.29.94,2.49.44,4.73-.35,7.15a2.83,2.83,0,0,1-4.22,1.63c0,1.15-.42,5.11,3.38,6.18a13.11,13.11,0,0,0,9.29-.93A17.24,17.24,0,0,0,448.38,261.47Z" transform="translate(-71.47 -117.45)"/><path class="cls-27" d="M426.29,237.72s-4.55.42-8.69-4.32-1.81-9.15,3.19-7.16,13.37.86,17.6.43,15.45,1.84,14.28,10.93Z" transform="translate(-71.47 -117.45)"/><path class="cls-28" d="M448,269.08c1,2.46-1.52,5.47-8.21,7.57s-7.3-.6-7.3-.6-9.81,4.47-13,6.7c-4,2.81-5.8,10.93-6.34,24.65-.62,15.87-1.93,47.17-1.41,51.23,0,0,4.54,2.63,8.65-3.35,2.45,4,6.9,7.31,12.74,9.05a24.93,24.93,0,0,0,28.93-13.2c-.11-13.92-4-25.6-1.75-33.61,5.16-18.36,7.88-25.87,5.37-38.07-2.07-10.05-5-11.3-8.94-11.2A82.56,82.56,0,0,0,448,269.08Z" transform="translate(-71.47 -117.45)"/><path class="cls-23" d="M446.09,266.28a1.26,1.26,0,0,1,1.35.13c.72.5,2.68,2.39,2.68,2.39s.6,3.92-4.14,6.86-10.4,4.5-16.25,1.69a44.74,44.74,0,0,1,1.48-4.46,1.6,1.6,0,0,1,1.12-.75s1.49,1.91,7.14,0,6.73-4.64,6.73-4.64Z" transform="translate(-71.47 -117.45)"/><path class="cls-22" d="M398.08,323.09c7.89,2,9.74-3,10.77-7.1,2.51-10,3.86-19,5.73-24.61,2.2-6.67,4.51-7.74,7.75-9,3.8-1.53,7.08,1.68,5.81,10.17-1.49,10-3.47,17.1-7.22,29-1,3.1-3.18,8.62-6.47,11.28-4.07,3.29-10.19,3.15-19.46.84-3.95-1-8.29-3.34-15.76-6.83-2-.93-3.57-1.56-7.42-3.35s-7.86-4.79-9.88-7.71-2.29-4.3-1.88-5c.52-.83,1.44-.65,2.51.58a21.62,21.62,0,0,0,5.67,5.25s-2.48-2.57-3.84-4.24a21.48,21.48,0,0,1-3-4.88c-.71-1.7.76-4,1.87-2.8s1.65,2.45,3.69,4.9a21.51,21.51,0,0,0,3.65,3.48,40.19,40.19,0,0,1-3.36-5.41,9,9,0,0,1-1.23-4.9c.06-.89,1.31-1.94,2.5-.26,1.06,1.52,1.75,3.89,4.23,6.46,1.8,1.88,3.33,2.95,3.37,2.43s-1.09-1.54-1.73-3.71,0-4.48,1.21-4.73,1-.19,1.93,1.85,2.45,3.54,3.58,6.51a13.47,13.47,0,0,0,3.24,5.58C386.3,318.93,390.59,321.2,398.08,323.09Z" transform="translate(-71.47 -117.45)"/><path class="cls-29" d="M393,321.49l-4.41-2c-2.57,1.1-4.68,5.56-3.87,10.19l5.37,2.2Z" transform="translate(-71.47 -117.45)"/><path class="cls-23" d="M422.9,280.76c-5.12.62-7.41,2.07-9.87,13.39s-4,22.33-6,24.82-2.85,6-14.68,1.58c0,0-5.48,2.13-4.94,11.32A92,92,0,0,0,401,335.68c7.14,1.38,13.69.73,18-8.24s8.95-26.53,9.7-33.68S427.58,280.2,422.9,280.76Z" transform="translate(-71.47 -117.45)"/><path class="cls-24" d="M163.25,520.23l132.19-75.94a4.94,4.94,0,0,1,4.46,0l11.24,6.37a1.36,1.36,0,0,1,0,2.58L178.92,529.14a4.94,4.94,0,0,1-4.46,0l-11.21-6.33A1.36,1.36,0,0,1,163.25,520.23Z" transform="translate(-71.47 -117.45)"/></svg>