<svg id="Layer_1" data-name="Layer 1" xmlns="http://www.w3.org/2000/svg" xmlns:xlink="http://www.w3.org/1999/xlink" viewBox="0 0 598.67 377.5"><defs><style>.cls-1{opacity:0.39;fill:url(#linear-gradient);}.cls-2{fill:#001462;}.cls-3,.cls-4{opacity:0.64;}.cls-3{fill:url(#linear-gradient-2);}.cls-4{fill:url(#linear-gradient-3);}.cls-5{fill:url(#linear-gradient-4);}.cls-6{fill:url(#Gradiente_sem_nome_16);}.cls-7{fill:#cb9eae;}.cls-8{fill:url(#Gradiente_sem_nome_16-2);}.cls-9{fill:url(#linear-gradient-5);}.cls-10{fill:url(#linear-gradient-6);}.cls-11{fill:url(#Gradiente_sem_nome_16-3);}.cls-12{fill:url(#linear-gradient-7);}.cls-13{fill:#092138;}.cls-14{fill:url(#linear-gradient-8);}.cls-15{fill:url(#Gradiente_sem_nome_16-4);}.cls-16{fill:#4F81BD;}.cls-17{fill:url(#Gradiente_sem_nome_20);}.cls-18{fill:url(#linear-gradient-9);}.cls-19{fill:url(#linear-gradient-10);}.cls-20{fill:url(#Gradiente_sem_nome_31);}.cls-21{fill:url(#Gradiente_sem_nome_31-2);}.cls-22{fill:url(#linear-gradient-11);}.cls-23{fill:url(#linear-gradient-12);}.cls-24{fill:url(#Gradiente_sem_nome_31-3);}.cls-25{fill:url(#Gradiente_sem_nome_31-4);}.cls-26{fill:url(#Gradiente_sem_nome_4);}.cls-27{fill:#c06b39;}.cls-28{fill:#f6a574;}.cls-29{fill:url(#linear-gradient-13);}.cls-30{fill:url(#linear-gradient-14);}.cls-31{fill:url(#Gradiente_sem_nome_31-5);}.cls-32{fill:url(#Gradiente_sem_nome_31-6);}.cls-33{fill:url(#linear-gradient-15);}.cls-34{fill:url(#linear-gradient-16);}.cls-35{fill:url(#linear-gradient-17);}.cls-36{fill:url(#Gradiente_sem_nome_24);}.cls-37{fill:url(#linear-gradient-18);}.cls-38{fill:url(#linear-gradient-19);}.cls-39{fill:url(#Gradiente_sem_nome_16-5);}.cls-40{fill:url(#Gradiente_sem_nome_16-6);}.cls-41{fill:url(#linear-gradient-20);}.cls-42{fill:url(#linear-gradient-21);}.cls-43{fill:url(#Gradiente_sem_nome_16-7);}.cls-44{fill:url(#linear-gradient-22);}.cls-45{fill:url(#linear-gradient-23);}</style><linearGradient id="linear-gradient" x1="41.02" y1="298.62" x2="599.7" y2="298.62" gradientTransform="matrix(1.07, 0.01, -0.01, 0.85, -12.93, 65.52)" gradientUnits="userSpaceOnUse"><stop offset="0" stop-color="#dae3fe"/><stop offset="1" stop-color="#e9effd"/></linearGradient><linearGradient id="linear-gradient-2" x1="400.58" y1="144.24" x2="400.58" y2="474.72" gradientUnits="userSpaceOnUse"><stop offset="0" stop-color="#e38ddd"/><stop offset="0.69" stop-color="#ad7aee"/><stop offset="1" stop-color="#9571f6"/></linearGradient><linearGradient id="linear-gradient-3" x1="696.28" y1="102.52" x2="696.28" y2="389.4" gradientTransform="matrix(-1, 0, 0, 1, 892.88, 0)" xlink:href="#linear-gradient-2"/><linearGradient id="linear-gradient-4" x1="282.4" y1="166.81" x2="243.93" y2="494.77" gradientUnits="userSpaceOnUse"><stop offset="0" stop-color="#09005d"/><stop offset="1" stop-color="#1a0f91"/></linearGradient><linearGradient id="Gradiente_sem_nome_16" x1="273.69" y1="268.06" x2="241.95" y2="296.63" gradientUnits="userSpaceOnUse"><stop offset="0" stop-color="#f6b3b5"/><stop offset="1" stop-color="#fad1d3"/></linearGradient><linearGradient id="Gradiente_sem_nome_16-2" x1="236.09" y1="358.42" x2="249.3" y2="379.64" xlink:href="#Gradiente_sem_nome_16"/><linearGradient id="linear-gradient-5" x1="325.43" y1="171.77" x2="286.94" y2="499.94" xlink:href="#linear-gradient-4"/><linearGradient id="linear-gradient-6" x1="275.85" y1="307.71" x2="309.29" y2="415.67" xlink:href="#linear-gradient-4"/><linearGradient id="Gradiente_sem_nome_16-3" x1="249.99" y1="222.66" x2="234.75" y2="281.22" xlink:href="#Gradiente_sem_nome_16"/><linearGradient id="linear-gradient-7" x1="236.8" y1="161.46" x2="198.33" y2="489.43" xlink:href="#linear-gradient-4"/><linearGradient id="linear-gradient-8" x1="280.63" y1="346.17" x2="174.66" y2="364.72" xlink:href="#linear-gradient-4"/><linearGradient id="Gradiente_sem_nome_16-4" x1="219" y1="308.64" x2="259.89" y2="308.64" xlink:href="#Gradiente_sem_nome_16"/><linearGradient id="Gradiente_sem_nome_20" x1="504.85" y1="512.46" x2="506.2" y2="340.28" gradientUnits="userSpaceOnUse"><stop offset="0" stop-color="#001462"/><stop offset="0.07" stop-color="#081e71"/><stop offset="0.25" stop-color="#193595"/><stop offset="0.44" stop-color="#2748b0"/><stop offset="0.62" stop-color="#3055c4"/><stop offset="0.81" stop-color="#365cd0"/><stop offset="1" stop-color="#385fd4"/></linearGradient><linearGradient id="linear-gradient-9" x1="535.45" y1="433.79" x2="471.1" y2="426.37" gradientUnits="userSpaceOnUse"><stop offset="0" stop-color="#4F81BD"/><stop offset="0.04" stop-color="#f4833e"/><stop offset="0.3" stop-color="#f5975e"/><stop offset="0.55" stop-color="#f6a575"/><stop offset="0.79" stop-color="#f6ae83"/><stop offset="1" stop-color="#f6b188"/></linearGradient><linearGradient id="linear-gradient-10" x1="543.74" y1="336.66" x2="543.74" y2="513.27" xlink:href="#linear-gradient-9"/><linearGradient id="Gradiente_sem_nome_31" x1="487.76" y1="287.04" x2="459" y2="307.32" gradientUnits="userSpaceOnUse"><stop offset="0" stop-color="#f6b3b5"/><stop offset="0.99" stop-color="#fad1d3"/></linearGradient><linearGradient id="Gradiente_sem_nome_31-2" x1="470.66" y1="238.64" x2="448.97" y2="264.57" xlink:href="#Gradiente_sem_nome_31"/><linearGradient id="linear-gradient-11" x1="291.46" y1="69.56" x2="291.46" y2="719.03" gradientUnits="userSpaceOnUse"><stop offset="0" stop-color="#f7be9b"/><stop offset="0.22" stop-color="#f7b790"/><stop offset="0.6" stop-color="#f6a472"/><stop offset="0.99" stop-color="#f58c4d"/></linearGradient><linearGradient id="linear-gradient-12" x1="388.84" y1="172.11" x2="388.84" y2="545.69" gradientUnits="userSpaceOnUse"><stop offset="0" stop-color="#f7be9b"/><stop offset="0.18" stop-color="#f7b790"/><stop offset="0.5" stop-color="#f6a472"/><stop offset="0.91" stop-color="#f48642"/><stop offset="0.99" stop-color="#4F81BD"/></linearGradient><linearGradient id="Gradiente_sem_nome_31-3" x1="416.4" y1="320.18" x2="362.64" y2="341.4" xlink:href="#Gradiente_sem_nome_31"/><linearGradient id="Gradiente_sem_nome_31-4" x1="386.52" y1="249.91" x2="378.97" y2="329.13" xlink:href="#Gradiente_sem_nome_31"/><linearGradient id="Gradiente_sem_nome_4" x1="378.83" y1="402.35" x2="412.32" y2="285.13" gradientUnits="userSpaceOnUse"><stop offset="0" stop-color="#8cc6ff"/><stop offset="1" stop-color="#f6b3b5"/></linearGradient><linearGradient id="linear-gradient-13" x1="463.7" y1="108.22" x2="463.7" y2="706.58" xlink:href="#linear-gradient-11"/><linearGradient id="linear-gradient-14" x1="448.72" y1="108.23" x2="448.72" y2="706.58" xlink:href="#linear-gradient-11"/><linearGradient id="Gradiente_sem_nome_31-5" x1="383.1" y1="488.12" x2="383.1" y2="455.08" xlink:href="#Gradiente_sem_nome_31"/><linearGradient id="Gradiente_sem_nome_31-6" x1="417.87" y1="439.39" x2="402.78" y2="395.53" xlink:href="#Gradiente_sem_nome_31"/><linearGradient id="linear-gradient-15" x1="242.09" y1="351.84" x2="184.63" y2="364.34" gradientUnits="userSpaceOnUse"><stop offset="0" stop-color="#f8d6c3"/><stop offset="0.14" stop-color="#f8cfb8"/><stop offset="0.38" stop-color="#f7bd9a"/><stop offset="0.7" stop-color="#f59f6a"/><stop offset="0.99" stop-color="#4F81BD"/></linearGradient><linearGradient id="linear-gradient-16" x1="206.58" y1="203.1" x2="149.12" y2="215.59" xlink:href="#linear-gradient-15"/><linearGradient id="linear-gradient-17" x1="49.52" y1="421" x2="355.56" y2="479.75" gradientUnits="userSpaceOnUse"><stop offset="0.1" stop-color="#092138"/><stop offset="0.17" stop-color="#192738"/><stop offset="0.35" stop-color="#423838"/><stop offset="0.53" stop-color="#624539"/><stop offset="0.7" stop-color="#794e39"/><stop offset="0.86" stop-color="#875439"/><stop offset="1" stop-color="#8c5639"/></linearGradient><linearGradient id="Gradiente_sem_nome_24" x1="48.95" y1="423.98" x2="354.99" y2="482.72" gradientUnits="userSpaceOnUse"><stop offset="0.1" stop-color="#001462"/><stop offset="0.3" stop-color="#142e8a"/><stop offset="0.49" stop-color="#2343aa"/><stop offset="0.68" stop-color="#2f53c1"/><stop offset="0.85" stop-color="#365ccf"/><stop offset="1" stop-color="#385fd4"/></linearGradient><linearGradient id="linear-gradient-18" x1="29.19" y1="333.37" x2="301.92" y2="616.2" xlink:href="#linear-gradient-17"/><linearGradient id="linear-gradient-19" x1="259.75" y1="165.79" x2="92.5" y2="384.06" xlink:href="#linear-gradient-15"/><linearGradient id="Gradiente_sem_nome_16-5" x1="151.25" y1="220.05" x2="157.44" y2="270.28" xlink:href="#Gradiente_sem_nome_16"/><linearGradient id="Gradiente_sem_nome_16-6" x1="201.85" y1="192.19" x2="155.42" y2="244.81" xlink:href="#Gradiente_sem_nome_16"/><linearGradient id="linear-gradient-20" x1="182.41" y1="3" x2="52.77" y2="421.03" xlink:href="#linear-gradient-15"/><linearGradient id="linear-gradient-21" x1="141.82" y1="379.76" x2="238.13" y2="315.2" gradientUnits="userSpaceOnUse"><stop offset="0" stop-color="#232c38"/><stop offset="0.09" stop-color="#4e3d38"/><stop offset="0.2" stop-color="#7a4f38"/><stop offset="0.31" stop-color="#9f5e39"/><stop offset="0.43" stop-color="#be6a39"/><stop offset="0.55" stop-color="#d67439"/><stop offset="0.68" stop-color="#e77b39"/><stop offset="0.82" stop-color="#f17f39"/><stop offset="1" stop-color="#4F81BD"/></linearGradient><linearGradient id="Gradiente_sem_nome_16-7" x1="135.35" y1="368.35" x2="135.35" y2="336.72" xlink:href="#Gradiente_sem_nome_16"/><linearGradient id="linear-gradient-22" x1="372.71" y1="487.13" x2="383.88" y2="454.25" xlink:href="#linear-gradient-17"/><linearGradient id="linear-gradient-23" x1="-1096.66" y1="484.2" x2="-1083.07" y2="317.71" gradientTransform="matrix(-1, 0, 0, 1, -811.79, 0)" xlink:href="#linear-gradient-17"/></defs><path class="cls-1" d="M609.92,343.56c-10.28-9.7-22.46-19.18-25.52-32.24C579.1,288.74,603,269.78,611,247.86A49.5,49.5,0,0,0,604.15,202c-9.77-13.38-26.53-22.51-44.32-24.16-30.61-2.83-60.79,15.26-90.92,9.6-24.12-4.52-43-23.56-67.53-25.84-28.84-2.68-53,18.32-80.68,26-33.07,9.22-68.72-1.16-101-12.48s-66.28-23.93-100.51-19c-38.1,5.45-70.3,34.66-75.76,68.73-5.4,33.76,36.6,61.35.17,101.57-11.38,12.57-19,30.15-14.24,45.76C34,387.3,54.47,397.08,54.45,412.8c0,12.4-13.24,22.14-14.43,34.49C39,457.9,47.46,467.81,57.93,473s22.67,6.51,34.53,7.78L88.93,484c59.75,5.43,119.93,5,180,4.57l284.06-2c9.73-.07,19.7-.18,28.8-3.23s17.3-9.73,18.77-18.3c2.51-14.6-14.49-27.47-12.75-42.15,2.22-18.75,31.94-25.68,37.77-43.79C629.68,366.3,620.2,353.26,609.92,343.56Z" transform="translate(-27.88 -113.63)"/><polygon class="cls-2" points="44.84 372.52 112.92 371.96 180.99 371.63 317.13 371.36 453.27 371.63 521.34 371.95 589.41 372.52 521.34 373.1 453.27 373.42 317.13 373.69 180.99 373.42 112.92 373.09 44.84 372.52"/><path class="cls-3" d="M462.69,285.54l-.7.32-1.29.63c-.85.41-1.61.83-2.4,1.25q-2.28,1.27-4.43,2.62a95,95,0,0,0-8.17,5.78,110.52,110.52,0,0,0-14.33,13.41A124.23,124.23,0,0,0,419.59,325a136.55,136.55,0,0,0-9.17,16.88,149.37,149.37,0,0,0-6.73,17.78c-.84,3-1.79,6-2.46,9.09l-1.07,4.57-.89,4.59a192.32,192.32,0,0,0-2.8,22.66V371.83A140.13,140.13,0,0,1,402.09,351c4.09-12.25,10.15-26.44,16.86-41.79,5.51-12.55,10.21-23.59,14.57-32.55s8.67-15.55,12.2-19.08c-3.49,3.5-10.07,8-17.16,15.62a110.45,110.45,0,0,0-20.66,31.11A147.68,147.68,0,0,0,396.47,347V285a55.89,55.89,0,0,1,5.62-12.35c4.08-7,9.73-14.81,15.4-23.75a155.56,155.56,0,0,0,10.58-20.28c2.61-5.95,4.73-10.62,6.48-13.23-1.76,2.62-6.19,5.34-11.27,9.54a72.91,72.91,0,0,0-16,17.51,77.13,77.13,0,0,0-10.79,27.74V246.47c1.67-10.94,5.19-27.43,5.19-46.5,0-20.44-6.05-35.71-6.05-42.93,0,7.22-6,22.49-6,42.93,0,19.08,3.52,35.57,5.18,46.51v25.85a165.26,165.26,0,0,0-12.41-46.84,130.54,130.54,0,0,0-21.83-34c-7.44-8.41-14.26-13.72-18.3-17.25,4.11,3.59,8.62,10.91,13.28,20.62s9.75,21.83,15.77,35.49c7.23,16.77,13.57,32.26,17.84,45.63a147.66,147.66,0,0,1,5.65,22.9v39.9q-.78-7.41-2.08-14.71a238.67,238.67,0,0,0-8-32,276.63,276.63,0,0,0-11.88-30.56c-2.27-5-4.79-9.91-7.44-14.81A142.2,142.2,0,0,0,356,231.93c4.34,5.87,4.94,12,4.41,17.85a48.73,48.73,0,0,1-1.85,8.54c-.88,2.75-1.9,5.37-2.88,7.8-1.44,3.51-1.22,6.17,0,8.37a19.57,19.57,0,0,0,5.22,5.81c4,3.5,8.33,6.81,5.34,11.66s-6.45,9.33-6.17,14.57c.11,2.64,1.08,5.47,3.58,8.77,2.34,3.33,6.29,7.09,11.88,12a68.44,68.44,0,0,1,9.21,9.79,83.67,83.67,0,0,1,6.38,9.8,82.52,82.52,0,0,1,3.54,7.56c0,.09.06.16.09.24v45.62c-.16-1-5.19-29.79-22.28-45.69-16.06-15-31-19.71-35-21.9,4,2.2,26.58,30.12,34,39.74,11.4,14.84,23.3,33.41,23.3,54v62.28h1.72V410.05a27.81,27.81,0,0,1,1.41-5.27,35.2,35.2,0,0,1,4.72-8.32,52.75,52.75,0,0,1,6.37-6.77c2.32-2,4.67-3.78,6.88-5.39,3.25-2.3,4.6-4.81,5-7.5s-.12-5.57-.54-8.4c-.24-1.42-.51-2.85-.68-4.22a17.37,17.37,0,0,1,0-3.88,6.15,6.15,0,0,1,4.22-5.43c5.5-2.06,11.17-3.21,14.69-7.31a12.94,12.94,0,0,0,2.34-3.7,24.44,24.44,0,0,0,1.63-5.26c.85-4.19,1.28-9.68,2-17.53a55.48,55.48,0,0,1,9.43-25.55c4.42-6.51,9-10.12,9.75-10.4Z" transform="translate(-27.88 -113.63)"/><path class="cls-4" d="M142.67,225.17l.62.29,1.12.54c.73.36,1.39.72,2.07,1.09q2,1.09,3.85,2.27a85.17,85.17,0,0,1,7.1,5A96,96,0,0,1,169.86,246a108.12,108.12,0,0,1,10.23,13.4,119.46,119.46,0,0,1,8,14.65,129.29,129.29,0,0,1,5.84,15.44c.73,2.62,1.56,5.24,2.14,7.89l.93,4,.76,4A167.18,167.18,0,0,1,200.16,325V300.08A122.48,122.48,0,0,0,195.28,282c-3.55-10.63-8.81-22.95-14.64-36.27-4.78-10.9-8.86-20.48-12.64-28.25s-7.53-13.5-10.59-16.57c3,3,8.73,7,14.89,13.56a95.93,95.93,0,0,1,17.94,27,128.42,128.42,0,0,1,9.92,37.08V224.73A48.63,48.63,0,0,0,195.28,214c-3.54-6.1-8.44-12.86-13.37-20.62a135,135,0,0,1-9.18-17.61c-2.27-5.16-4.11-9.22-5.63-11.48,1.53,2.27,5.38,4.63,9.79,8.28a63.26,63.26,0,0,1,13.9,15.2,66.94,66.94,0,0,1,9.37,24.08v-20.6c-1.45-9.49-4.51-23.81-4.51-40.37,0-17.73,5.25-31,5.25-37.26,0,6.27,5.25,19.53,5.25,37.26,0,16.57-3.05,30.88-4.5,40.38v22.44a143.6,143.6,0,0,1,10.77-40.66,113.22,113.22,0,0,1,19-29.53,144.44,144.44,0,0,1,15.89-15c-3.57,3.12-7.48,9.47-11.53,17.91s-8.46,19-13.69,30.8c-6.28,14.56-11.78,28-15.49,39.61a129.45,129.45,0,0,0-4.9,19.88v34.64q.69-6.45,1.8-12.77a207.1,207.1,0,0,1,6.94-27.76,237.23,237.23,0,0,1,10.31-26.52c2-4.34,4.15-8.61,6.46-12.86a123.63,123.63,0,0,1,8.1-12.83c-3.77,5.09-4.28,10.4-3.82,15.49a42.9,42.9,0,0,0,1.6,7.42c.77,2.39,1.65,4.66,2.5,6.77,1.25,3.05,1.06,5.35,0,7.27a17.06,17.06,0,0,1-4.53,5c-3.51,3-7.24,5.91-4.64,10.12s5.6,8.1,5.35,12.65a13.29,13.29,0,0,1-3.1,7.61c-2,2.89-5.46,6.16-10.31,10.4a58.79,58.79,0,0,0-8,8.5,72.85,72.85,0,0,0-5.54,8.5c-1.42,2.63-2.38,4.94-3.07,6.57l-.08.2v39.61c.14-.89,4.51-25.86,19.34-39.67,13.94-13,26.95-17.1,30.37-19-3.45,1.9-23.07,26.14-29.49,34.49-9.89,12.88-20.22,29-20.22,46.85v54.06h-1.49V333.26a23.65,23.65,0,0,0-1.23-4.57,30.51,30.51,0,0,0-4.09-7.23,46.25,46.25,0,0,0-5.53-5.87c-2-1.74-4.05-3.28-6-4.68A9.46,9.46,0,0,1,179,304.4c-.44-2.31.1-4.84.47-7.3.21-1.23.43-2.47.59-3.66a15.18,15.18,0,0,0,0-3.37,5.33,5.33,0,0,0-3.66-4.71c-4.77-1.79-9.7-2.79-12.75-6.35a11.09,11.09,0,0,1-2-3.21,21,21,0,0,1-1.42-4.57c-.73-3.63-1.11-8.39-1.7-15.21a48.15,48.15,0,0,0-8.2-22.18c-3.83-5.65-7.79-8.78-8.46-9Z" transform="translate(-27.88 -113.63)"/><path class="cls-5" d="M217.45,446.94c2.92,12.33,7.21,26.17,11.66,39.23H303c1.66-5.37,3.32-11.13,4.89-17.26,9.08-35.35-.48-65.92-9.07-79.77s-16-30.34-2.89-50.54,14.35-35.93,14.35-35.93c-1.91-7.64-7.88-10.27-23.39-17.67l-2.36-.79c-3.29,13.34-10.22,23.94-22.5,26.11-16,2.81-30.44-6.94-37.74-24.08-7.05,2.08-14.89,4.3-18.63,6.4,0,0,19.59,42.52,23.32,66.56S208.52,409.2,217.45,446.94Z" transform="translate(-27.88 -113.63)"/><path class="cls-6" d="M262,310.32c12.28-2.17,19.21-12.77,22.5-26.11-5.14-1.74-17.23-5.89-20.59-7.57-4.3-2.15-3.1-19.59-3.1-19.59l-22.7,6.48v16.93c0,1.59-6.49,3.61-13.85,5.78C231.58,303.38,246,313.13,262,310.32Z" transform="translate(-27.88 -113.63)"/><path class="cls-7" d="M260.83,257.33l-22.7,6.48V278.2a46.29,46.29,0,0,1,24,32.37c12.2-2.21,19.1-12.79,22.38-26.08-5.14-1.74-17.23-5.89-20.59-7.57C259.63,274.77,260.83,257.33,260.83,257.33Z" transform="translate(-27.88 -113.63)"/><path class="cls-8" d="M274.83,362.81c-10.13,3.1-19.69,6.5-24.75,6.5-10,0-24.84-14.09-31.85-5.47s-8,14.31-2.56,18.13,22.94-1.43,31.3.24c3.74.75,16.46,1.4,30,1.19C278.1,378,277.93,368.2,274.83,362.81Z" transform="translate(-27.88 -113.63)"/><path class="cls-9" d="M310.66,302.67c-2.35-9.42-21.73,7.89-17,23.65,4.1,13.52,2.61,31.68,2.61,31.68l19,19.2C321.74,369.31,312.57,310.32,310.66,302.67Z" transform="translate(-27.88 -113.63)"/><path class="cls-10" d="M302.63,358.09c-7.34-1.07-17.85,1.67-27.8,4.72,3.1,5.39,3.27,15.21,2.12,20.59,16.77-.26,34.77-1.84,38.34-6.2C315.29,377.2,323.88,361.19,302.63,358.09Z" transform="translate(-27.88 -113.63)"/><path class="cls-11" d="M232.89,231c-4,7.75-3.55,34.1,7.52,36.53,9.67,2.13,15.06-7.3,15.06-7.3V242.73a12.79,12.79,0,0,1-6.2-9.53c-.6-5.36-3.76-5.93-3.76-5.93S238.86,231.2,232.89,231Z" transform="translate(-27.88 -113.63)"/><path class="cls-12" d="M215.67,359.2c-5-10.06-8.31-22.75-11.24-29.91-5.52-13.51-6.42-32.35,1.22-36.65,14.1-7.21,20.07,17.6,21,24.8s2.87,24,8.12,30.08Z" transform="translate(-27.88 -113.63)"/><path class="cls-13" d="M278.12,272.07c-9.55-6,1.1-38.9-14.92-51.57C250,210.07,229,217.91,229,237.61v47.22c5.22-1.63,9.16-3.13,9.16-4.37V266.59c-8.8-5.6-9-28.35-5.24-35.61,6,.22,12.62-3.71,12.62-3.71s3.16.57,3.76,5.93a12.79,12.79,0,0,0,6.2,9.53v17.48c0,16.4,4,34.34,13.3,35.34s11-11.34,18.11-10.55C286.88,285,287.68,278,278.12,272.07Z" transform="translate(-27.88 -113.63)"/><path class="cls-14" d="M229.33,335.39c-5.21,7.13-13.38,13.36-13.66,23.81,4.44,8.93,10.2,15.79,18.17,14.89,11.75-1.32,15.81-15.15,17.2-27.81C243.2,346.89,233.2,340.68,229.33,335.39Z" transform="translate(-27.88 -113.63)"/><path class="cls-15" d="M247.08,271c-2.24,1-10.19,8-10.19,9.68s3.57,14.77,3.57,18.74S236.82,320.72,232,331a26.59,26.59,0,0,1-2.71,4.43c3.87,5.29,13.87,11.5,21.71,10.89a136.86,136.86,0,0,0,.71-14.94s.8-28.95,2.12-31c1.2-1.88,1.19-5,1.19-7.62v-5.36s1.82-.12,1.92-3.25a2.81,2.81,0,0,0,0-.29C257,280.39,249.32,270,247.08,271Z" transform="translate(-27.88 -113.63)"/><path class="cls-16" d="M439.34,283.83v84.51s28.2.86,27.34,0,0-39.26,0-39.26Z" transform="translate(-27.88 -113.63)"/><path class="cls-17" d="M495.07,377.35c2.33,15.82.87,33.84,0,40.65s-20.93,67.66-20.93,67.66H523l13.46-64.47-17.87-49.25Z" transform="translate(-27.88 -113.63)"/><path class="cls-18" d="M495.07,377.35c2.33,15.82.87,33.84,0,40.65s-24.93,68.17-24.93,68.17H523l13.46-65-17.87-49.25Z" transform="translate(-27.88 -113.63)"/><path class="cls-19" d="M552.67,360.58c7.2,22.57,39.48,29.87,30.57,66.34-6.42,26.31-19.53,59.25-19.53,59.25h-61s19.14-57.38,19.14-65-12-46.65-12-46.65Z" transform="translate(-27.88 -113.63)"/><path class="cls-16" d="M449.2,264.72c-7.2,3.43-13.78,18.72-7.2,33.07s7.51,11.79,10,23,1.51,17.51,22.13,31.55,20,17.78,20.93,25,59,5.62,58-21.22.54-57.81-16.73-72.43S449.2,264.72,449.2,264.72Z" transform="translate(-27.88 -113.63)"/><path class="cls-2" d="M442,231.49V312s29.24-15.69,29-31-13.22-49.5-13.22-49.5Z" transform="translate(-27.88 -113.63)"/><path class="cls-20" d="M462.54,279.82s3.89,6.3,5.21,9-4.54,14.69-2.61,24.95,14.64,8.52,17.47,0c.86-2.56,3.13-20.78,3.13-20.78V262.89Z" transform="translate(-27.88 -113.63)"/><path class="cls-7" d="M467.75,288.83c8.22-9.2,16.72,29.78,3.25,31.75l.1,0,1.93.22a10.3,10.3,0,0,0,9.58-7c.86-2.56,3.13-20.78,3.13-20.78V262.89l-23.2,16.93S466.43,286.12,467.75,288.83Z" transform="translate(-27.88 -113.63)"/><path class="cls-21" d="M445.41,229.2c-4,24.77.4,47.62,12.35,50.32s29.07-10.36,29.07-21.89,11.55-41.56-1.59-48.42S448,213.41,445.41,229.2Z" transform="translate(-27.88 -113.63)"/><path class="cls-13" d="M455.46,226.94a106.26,106.26,0,0,1-10.82,8c-4.58,2.72-3.46-13,5.41-20.37s20.49-13.67,25.2-9.43c0,0,14.77-4.09,23.72,11s9.59,28.59,12.41,32.36,7.55,6.13,5.35,13.2c0,0,15.71-3.15,18.06,7.69s1.58,14.35,1.58,14.35-4.89-3.82-14.9-7.32c0,0-6.75,5.31-13.19,5.31s-14.55,26-25.86,26l-.1-61.89S456.77,242.53,455.46,226.94Z" transform="translate(-27.88 -113.63)"/><path class="cls-22" d="M312.08,358.59c-29.68,30.91-55.25,125.2-55.25,125.2h42.62l26.63-62.6Z" transform="translate(-27.88 -113.63)"/><path class="cls-23" d="M466.68,363.7c-6.21-7.06-39.29-30.28-81.47-27.75C348,338.17,318,349.66,312.08,358.59c-4.28,6.54,5.11,50.65,11.64,68.21a153.94,153.94,0,0,1,9.4,52.28s105.17-.61,105.78,0,13.07-38.8,14.71-58.4S451.57,379.43,466.68,363.7Z" transform="translate(-27.88 -113.63)"/><path class="cls-24" d="M409.77,299.35s.52,32.69,0,42.44-15.65,18.54-21.26,18.78-18.05-8-20-21.95V309.11Z" transform="translate(-27.88 -113.63)"/><path class="cls-7" d="M410,317.11c-.06-9.48-.19-17.76-.19-17.76l-41.26,9.76v24.2c3.43,15.13,26.25,11,31.68-3.35C403.31,321.75,406,319.31,410,317.11Z" transform="translate(-27.88 -113.63)"/><path class="cls-25" d="M357.57,286.65c1.55,24,11.31,47.13,26.77,44.69,19.18-3,25-32.13,24.25-48s-9.79-25.77-23.54-25.78C372,257.56,356.26,266.37,357.57,286.65Z" transform="translate(-27.88 -113.63)"/><path class="cls-26" d="M413.1,294.63c-1,4.77-3.35,8.39-5.19,8.09s-2.5-4.43-1.48-9.2,3.35-8.4,5.19-8.09S414.12,289.85,413.1,294.63Z" transform="translate(-27.88 -113.63)"/><path class="cls-13" d="M357.88,290.4c-2.92-4.47-3.13-6.23-2.91-13.66s6.48-7.69,6.35-10.86,3.91-11.7,20.45-12.39,15.54,6.89,20.66,7.39,13.06,5.74,9.19,24.55c0,0-4.49.42-6.26,9.51a.81.81,0,0,1-1.44.27,11.69,11.69,0,0,1-1.52-3.48c-1.23-4.54-6.18,2.28-7.08-6.77-.64-6.45-16.38,5.39-28.06-5.08,0,0-1.74,2.31-6.71,2.16C357.66,282,357.88,290.4,357.88,290.4Z" transform="translate(-27.88 -113.63)"/><path class="cls-27" d="M368.5,377.05s1.36,1.74,3.9-2.14,11.24-15.68,14.26-14.51l0,0c-6.12-1.27-16.39-9.22-18.14-21.76v-1c-4.87.67-9.53,1.5-14,2.44C353.31,347,358.5,369.39,368.5,377.05Z" transform="translate(-27.88 -113.63)"/><path class="cls-27" d="M409.76,341.79c-.46,8.49-12,16.23-18.63,18.27h0c3.16-1.23,14.75,14,16.76,17.38s5.69-1.19,9.37-10.56c2.66-6.81,6.78-18.53,5.05-26.81a117.27,117.27,0,0,0-12.4-2.77C409.87,339.07,409.82,340.61,409.76,341.79Z" transform="translate(-27.88 -113.63)"/><path class="cls-28" d="M368.51,338.62v-7.11c-6.17,2.71-11.88,5-12.51,8.53-1.23,6.91,4.32,27,12.51,34.11,0,0,1.36,1.74,3.9-2.14s11.24-12.78,14.26-11.61l0,0C380.53,359.11,370.26,351.16,368.51,338.62Z" transform="translate(-27.88 -113.63)"/><path class="cls-28" d="M420.07,337.41c-1.71-3.86-7.24-7-10.07-8.33,0,5.24-.08,9.92-.23,12.71-.46,8.49-11.95,16.23-18.63,18.27h0c3.15-1.23,14.74,11.12,16.75,14.48s4.49-.56,8.57-9.76C420.61,355.4,422.85,343.71,420.07,337.41Z" transform="translate(-27.88 -113.63)"/><path class="cls-29" d="M487.1,459.49c0-27.1-7.9-81.43-20.42-95.79,0,0-19.61,10.49-25.81,43.72-1.85,9.93,1.3,38.31,2.12,50.29Z" transform="translate(-27.88 -113.63)"/><path class="cls-30" d="M410.65,486.17h59.49c8.81,0,18.29-7.19,17-26.68s-33.22-16.76-44.11-1.78l-32.78,5Z" transform="translate(-27.88 -113.63)"/><path class="cls-31" d="M380.67,485l2.82-2.64,8.56,3a14,14,0,0,0,4.62.79h17s8-1.72,8.3-11.2-7.9-12.25-11.46-12.25H391.87a13.57,13.57,0,0,1-2.77-.29l-13.24-2.77a8.17,8.17,0,0,0-5.73.91l-7.51,4.31a19.25,19.25,0,0,0-4,3.05L345,481.57a2.69,2.69,0,0,0,1.9,4.6h30.72A4.36,4.36,0,0,0,380.67,485Z" transform="translate(-27.88 -113.63)"/><path class="cls-16" d="M538.44,287.11c-12.75-7.37-35.1,13.59-30.29,38.37S485.74,381,485.74,381s-30.84,12.39-43.22,14.74a47.88,47.88,0,0,1,7.89,18.54c20.26-1.66,49.32-5.78,61.07-15.57,17.75-14.8,36.61-69.35,36.61-86.69C548.1,291.86,538.44,287.11,538.44,287.11Z" transform="translate(-27.88 -113.63)"/><path class="cls-32" d="M439.29,396.13H399.41s-28.48,9.64-29.22,11.29-2.22,11.46,0,13.77,16.64,6.38,20.34,5.64,32.55-11.47,39.21-11.47c2.25,0,10.31-.21,20.67-1.07a47.88,47.88,0,0,0-7.89-18.54A19,19,0,0,1,439.29,396.13Z" transform="translate(-27.88 -113.63)"/><path class="cls-33" d="M183.72,369.63s10,7.91,20.21,0,3.18-21.41,3.18-21.41l-23.39,12.46Z" transform="translate(-27.88 -113.63)"/><polygon class="cls-34" points="170.26 181.91 170.26 241.03 151.03 241.03 151.03 185.15 170.26 181.91"/><path class="cls-35" d="M166.79,442.44c-1.85,9.87-12.36,23.73-19,43.73H186c3.66-24,7-56.29,1.75-85h-22C167.7,410.87,168.53,433.16,166.79,442.44Z" transform="translate(-27.88 -113.63)"/><path class="cls-36" d="M130.15,440.3s4.42,21.47,7.44,45.87h10.15c6.69-20,17.2-33.86,19-43.73,1.74-9.28.91-31.57-1.12-41.24H131.06Z" transform="translate(-27.88 -113.63)"/><path class="cls-37" d="M165.67,401.2a22.92,22.92,0,0,0-.84-3.05H98.41c.92,32,3.44,63.78,5,88h44.38c6.69-20,17.2-33.86,19-43.73C168.53,433.16,167.7,410.87,165.67,401.2Z" transform="translate(-27.88 -113.63)"/><path class="cls-38" d="M143.68,242.93c-39.28-10.54-65.82,7-70.17,32.18-4,23,24.9,94.23,24.9,123,0,0,46.57,24,89.29,3.05,0,0-6.41-30.55,0-57.61s14.92-42.56,7.69-62C189.06,264.67,162.06,247.86,143.68,242.93Z" transform="translate(-27.88 -113.63)"/><path class="cls-39" d="M158.36,216.91s-14.82,18.65-21.08,24.59,5.29,18.1,14.05,23.26c5.78,3.41,18,7.2,14.38-3.44,0,0-2-5.94,7.82-14.39C173.53,246.93,162.59,214.25,158.36,216.91Z" transform="translate(-27.88 -113.63)"/><path class="cls-7" d="M173.53,246.93s-5.07-15.14-9.64-24l-4.83,2.28c-5.63,11.55-6.64,33.3,6.65,36.09C165.71,261.32,163.68,255.38,173.53,246.93Z" transform="translate(-27.88 -113.63)"/><path class="cls-40" d="M164.21,213.55c1.25-7.11-5.1-7.64-7.09-1.71-2.28,6.78.23,11.48,2.84,9.92,0,0-5.06,15.31,1.31,24.53S175.78,252,186,242c8.75-8.61,14.44-19.13,15.33-23.19,2.3-10.58-8.68-19.13-19-18.58C169.68,200.86,164.21,213.55,164.21,213.55Z" transform="translate(-27.88 -113.63)"/><path class="cls-2" d="M164.21,213.55c-.4,4.19.29,7.43,2.75,6s8.29-9.85,13.61-3.76,9.62,11.76,19.05,10.76c12.18-1.3,15-17.79,4.27-20.74,0,0,4.67-5.66-3.62-8.29-7.6-2.41-7.9-.92-13.22-6.88-3.05-3.43-21.39-1.6-26.38,17.23C160.67,207.88,164.83,207,164.21,213.55Z" transform="translate(-27.88 -113.63)"/><path class="cls-41" d="M104,335.13c.39-8.19,5.46-29.45,12.61-43s3.63-31-6.08-37.87-23.17-5.59-29.58,3.87C63.69,283.53,68.69,340.7,78,360c1.84,3.83,6.29,6.32,12.32,7.81C77.23,361.84,90.35,332,104,335.13Z" transform="translate(-27.88 -113.63)"/><path class="cls-42" d="M154.64,358.42l25.81-31.23a4.43,4.43,0,0,1,4.59-1.45l43.79,12.07a1.41,1.41,0,0,1,.57,2.41l-33.12,29.9a2.86,2.86,0,0,1-2.58.66l-37.92-9A2.11,2.11,0,0,1,154.64,358.42Z" transform="translate(-27.88 -113.63)"/><path class="cls-43" d="M185.61,346.06a14.46,14.46,0,0,0-8.29-8.22c-1.82-.52-15.32-.28-22.58-.11a15.61,15.61,0,0,0-8,2.37c-2.28,1.43-5.13,3-6.54,3H117.43a79.26,79.26,0,0,0-13.46-8C90.35,332,77.23,361.84,90.31,367.81c22,5.46,65.4-2.51,83.64-8.74A20,20,0,0,0,184,351.65C185.31,349.77,186.19,347.73,185.61,346.06Z" transform="translate(-27.88 -113.63)"/><path class="cls-44" d="M340.45,491.13h62.48a6.49,6.49,0,0,0,6.49-6.49h0a3,3,0,0,0-3-3h-66a3,3,0,0,0-3,3v3.53A3,3,0,0,0,340.45,491.13Z" transform="translate(-27.88 -113.63)"/><path class="cls-45" d="M229.85,491.13H360.37a7.63,7.63,0,0,0,7.36-9.65l-23-83.86a12.5,12.5,0,0,0-12.06-9.19H202.11a7.62,7.62,0,0,0-7.35,9.65l23,83.86A12.51,12.51,0,0,0,229.85,491.13Z" transform="translate(-27.88 -113.63)"/></svg>