<svg xmlns="http://www.w3.org/2000/svg" xmlns:xlink="http://www.w3.org/1999/xlink" viewBox="0 0 585.96 529.66"><defs><style>.cls-1{fill:#10191b;}.cls-2{fill:#37404a;}.cls-3{isolation:isolate;}.cls-4{fill:#fff;}.cls-5{fill:#351e6f;}.cls-6{fill:#a220a4;}.cls-7{fill:url(#linear-gradient);}.cls-8{mix-blend-mode:overlay;}.cls-9{fill:#7f7f7f;opacity:0;}.cls-10{fill:#909294;}.cls-10,.cls-17{opacity:0.17;}.cls-11{fill:#a1a5a9;}.cls-11,.cls-18{opacity:0.33;}.cls-12{fill:#b3b8bf;}.cls-12,.cls-19,.cls-39,.cls-69{opacity:0.5;}.cls-13{fill:#c4cbd4;}.cls-13,.cls-20{opacity:0.67;}.cls-14{fill:#d5dee9;}.cls-14,.cls-21{opacity:0.83;}.cls-15{fill:#e6f1fe;}.cls-16{fill:#f8d6c3;}.cls-17{fill:#929394;}.cls-18{fill:#a4a7a9;}.cls-19{fill:#b7bbbf;}.cls-20{fill:#caced4;}.cls-21{fill:#dce2e9;}.cls-22,.cls-66,.cls-67,.cls-68,.cls-69{fill:#eff6fe;}.cls-23{fill:#becef9;}.cls-24{fill:#f3a984;}.cls-25{fill:#c6d5fa;}.cls-26{fill:#242a31;}.cls-27{fill:#4F81BD;}.cls-28{fill:#f6a574;}.cls-29{clip-path:url(#clip-path);}.cls-30{clip-path:url(#clip-path-2);}.cls-31{clip-path:url(#clip-path-3);}.cls-32{fill:#1c2021;}.cls-33{fill:#131717;}.cls-34{fill:#f8b495;}.cls-35{fill:#ffbfa2;}.cls-36{fill:#dae8fd;}.cls-37,.cls-39{fill:#98a4e0;}.cls-38{fill:#cddcfb;}.cls-40{fill:#da7539;}.cls-41{fill:#3a4648;}.cls-42{fill:#283032;}.cls-43{fill:#ee9c76;}.cls-44{fill:#293233;}.cls-45{fill:#171c1d;}.cls-46{fill:#ebe7e6;}.cls-47{fill:#f9f9f9;}.cls-48{fill:#202728;}.cls-49{fill:#47477e;}.cls-50{fill:#393966;}.cls-51{fill:#242448;}.cls-52{fill:#1499fc;}.cls-53{fill:#f5a783;}.cls-54{fill:#0d1315;}.cls-55{clip-path:url(#clip-path-4);}.cls-56{clip-path:url(#clip-path-5);}.cls-57{fill:#0f76c2;}.cls-58{fill:#ffd438;}.cls-59{fill:#f59960;}.cls-60{fill:#d4e2fc;}.cls-61{fill:#ecf5fe;}.cls-62{fill:#b5b3c4;}.cls-63{fill:#fbc70e;}.cls-64{fill:#ffb700;}.cls-65{fill:#f1f1f1;}.cls-66{opacity:0.4;}.cls-67{opacity:0.3;}.cls-68{opacity:0.7;}</style><linearGradient id="linear-gradient" x1="5.6" y1="303.58" x2="560.84" y2="303.58" gradientUnits="userSpaceOnUse"><stop offset="0.01" stop-color="#8a0a8a"/><stop offset="1" stop-color="#4c1f8c"/></linearGradient><clipPath id="clip-path" transform="translate(-44.34 -76.51)"><path class="cls-1" d="M395.22,185.14v.61a.78.78,0,0,0,.46.64v-.6A.78.78,0,0,1,395.22,185.14Z"/></clipPath><clipPath id="clip-path-2" transform="translate(-44.34 -76.51)"><path class="cls-1" d="M422.61,189.16v-.6a.81.81,0,0,1-.47.65v.6A.79.79,0,0,0,422.61,189.16Z"/></clipPath><clipPath id="clip-path-3" transform="translate(-44.34 -76.51)"><path class="cls-1" d="M410.7,194.52v.6a2.46,2.46,0,0,0,2.24,0v-.6A2.46,2.46,0,0,1,410.7,194.52Z"/></clipPath><clipPath id="clip-path-4" transform="translate(-44.34 -76.51)"><path class="cls-2" d="M270.58,287.89l1.35.79a.35.35,0,0,0-.36,0l-1.35-.79A.37.37,0,0,1,270.58,287.89Z"/></clipPath><clipPath id="clip-path-5" transform="translate(-44.34 -76.51)"><path class="cls-2" d="M254,299.51l-1.35-.79a1.15,1.15,0,0,1,.51-.89l1.35.79A1.13,1.13,0,0,0,254,299.51Z"/></clipPath></defs><g class="cls-3"><g id="Layer_1" data-name="Layer 1"><rect class="cls-4" width="585.96" height="529.66"/><g id="FILE_HOSTING" data-name="FILE HOSTING"><g id="bg"><g class="cls-3"><polygon class="cls-5" points="560.84 303.58 560.77 329.01 284.06 489.82 284.13 464.39 560.84 303.58"/><polygon class="cls-6" points="284.13 464.39 284.06 489.82 5.52 329.01 5.6 303.57 284.13 464.39"/><polygon class="cls-7" points="560.84 303.58 284.13 464.39 5.6 303.57 282.31 142.77 560.84 303.58"/></g></g><g id="_15" data-name="15"><g class="cls-8"><path class="cls-9" d="M215.45,125.75c33.28-19.22,60.91-6.35,65,28.4a64.38,64.38,0,0,1,8-5.48c9.83-5.68,19.44-7.3,27.07-4.57,6.07,2.16,10.69,7,13.34,13.84,21.53-9.82,38.41,1.44,38.48,26.83.08,27.15-19.08,60.34-42.71,74L143.56,363.28c-31.37,18.12-57,3.52-57.08-32.53s25.34-80.11,56.71-98.22a68.49,68.49,0,0,1,7.66-3.84C154.82,189.44,182.24,144.93,215.45,125.75Z" transform="translate(-44.34 -76.51)"/><path class="cls-10" d="M233.92,137.45c33.19-19.16,60.73-6.34,64.79,28.31a65.1,65.1,0,0,1,8-5.47c9.8-5.65,19.38-7.27,27-4.55,6.06,2.16,10.66,7,13.31,13.8,21.45-9.8,38.28,1.43,38.35,26.74.08,27.07-19,60.15-42.58,73.75L162.27,374.24c-31.28,18.05-56.8,3.51-56.9-32.44s25.25-79.86,56.53-97.91a69,69,0,0,1,7.64-3.83C173.49,200.93,200.82,156.56,233.92,137.45Z" transform="translate(-44.34 -76.51)"/><path class="cls-11" d="M252.4,149.15c33.08-19.1,60.54-6.32,64.58,28.21a65.37,65.37,0,0,1,8-5.44c9.77-5.64,19.32-7.25,26.9-4.54,6,2.15,10.62,7,13.26,13.75,21.39-9.76,38.16,1.43,38.23,26.67.08,27-19,59.95-42.44,73.51L181,385.19c-31.17,18-56.62,3.5-56.72-32.33s25.18-79.61,56.35-97.61a67.66,67.66,0,0,1,7.62-3.81C192.16,212.43,219.4,168.2,252.4,149.15Z" transform="translate(-44.34 -76.51)"/><path class="cls-12" d="M270.88,160.84c33-19,60.35-6.29,64.38,28.13a66.14,66.14,0,0,1,7.93-5.43c9.73-5.62,19.26-7.23,26.82-4.53,6,2.15,10.58,6.94,13.21,13.72,21.32-9.73,38,1.42,38.12,26.58.07,26.89-18.9,59.77-42.31,73.28L199.68,396.14c-31.08,17.94-56.45,3.49-56.55-32.23s25.1-79.36,56.18-97.3a68.91,68.91,0,0,1,7.59-3.8C210.83,223.93,238,179.84,270.88,160.84Z" transform="translate(-44.34 -76.51)"/><path class="cls-13" d="M289.36,172.54c32.87-19,60.16-6.28,64.17,28a63.84,63.84,0,0,1,7.91-5.41c9.7-5.6,19.2-7.21,26.73-4.52,6,2.14,10.56,6.92,13.18,13.68,21.25-9.7,37.92,1.41,38,26.49.08,26.81-18.84,59.58-42.17,73.05L218.38,407.09C187.4,425,162.12,410.57,162,375s25-79.11,56-97a71.16,71.16,0,0,1,7.57-3.78C229.5,235.42,256.57,191.47,289.36,172.54Z" transform="translate(-44.34 -76.51)"/><path class="cls-14" d="M307.84,184.24c32.77-18.92,60-6.26,64,27.95a64.57,64.57,0,0,1,7.88-5.4c9.67-5.58,19.14-7.18,26.65-4.5,6,2.14,10.52,6.9,13.13,13.63,21.19-9.67,37.8,1.41,37.87,26.41.08,26.72-18.78,59.39-42,72.82L237.09,418c-30.88,17.83-56.09,3.47-56.19-32s24.94-78.85,55.82-96.68a68.07,68.07,0,0,1,7.54-3.78C248.17,246.92,275.15,203.11,307.84,184.24Z" transform="translate(-44.34 -76.51)"/><path class="cls-15" d="M326.32,195.94c32.66-18.86,59.78-6.24,63.77,27.86a63,63,0,0,1,7.85-5.38c9.64-5.57,19.08-7.16,26.56-4.49,6,2.13,10.49,6.87,13.09,13.59,21.12-9.64,37.69,1.41,37.76,26.32.07,26.64-18.72,59.2-41.91,72.59L255.79,429c-30.78,17.77-55.91,3.45-56-31.93s24.87-78.6,55.65-96.37a66.74,66.74,0,0,1,7.52-3.76C266.84,258.42,293.74,214.75,326.32,195.94Z" transform="translate(-44.34 -76.51)"/></g><rect class="cls-16" x="358.2" y="341.98" width="0.76" height="109.62" transform="translate(-208.68 432.42) rotate(-60)"/><polygon class="cls-16" points="327.13 390.53 278.06 362.2 314.67 341.06 268.75 314.55 269.13 313.9 316.18 341.06 279.57 362.2 327.51 389.88 327.13 390.53"/><polygon class="cls-16" points="434.03 328.81 385.71 300.92 349.1 322.06 302.43 295.11 302.81 294.45 349.1 321.18 385.71 300.05 434.4 328.16 434.03 328.81"/><path class="cls-16" d="M254.78,457.16l-.38-.66,72.77-42-43.37-25,.38-.66,43.94,25.37.57.33Z" transform="translate(-44.34 -76.51)"/><path class="cls-16" d="M505.8,389.49l-62.67-36.18-48.76,28.15-.19-.11L338.5,349.21l.38-.66,55.49,32,48.76-28.16.19.11,62.86,36.29Z" transform="translate(-44.34 -76.51)"/><path class="cls-16" d="M502.48,387.14a7.73,7.73,0,0,1,7,0c1.94,1.11,1.94,2.92,0,4a7.73,7.73,0,0,1-7,0C500.55,390.06,500.55,388.25,502.48,387.14Z" transform="translate(-44.34 -76.51)"/><path class="cls-16" d="M475.8,403a7.73,7.73,0,0,1,7,0c1.94,1.12,1.94,2.93,0,4a7.73,7.73,0,0,1-7,0C473.86,405.9,473.86,404.09,475.8,403Z" transform="translate(-44.34 -76.51)"/><path class="cls-16" d="M401.7,421.69a7.73,7.73,0,0,1,7,0c1.93,1.12,1.93,2.93,0,4a7.73,7.73,0,0,1-7,0C399.76,424.62,399.76,422.81,401.7,421.69Z" transform="translate(-44.34 -76.51)"/><path class="cls-16" d="M368.15,464.69a7.73,7.73,0,0,1,7,0c1.94,1.12,1.94,2.93,0,4.05a7.73,7.73,0,0,1-7,0C366.22,467.62,366.22,465.81,368.15,464.69Z" transform="translate(-44.34 -76.51)"/><ellipse class="cls-16" cx="211.64" cy="380.32" rx="4.96" ry="2.86"/><g class="cls-8"><ellipse class="cls-9" cx="460.18" cy="312.61" rx="50.35" ry="29.07"/><ellipse class="cls-17" cx="460.18" cy="312.61" rx="42.39" ry="24.48"/><ellipse class="cls-18" cx="460.18" cy="312.61" rx="34.43" ry="19.88"/><ellipse class="cls-19" cx="460.18" cy="312.61" rx="26.47" ry="15.28"/><ellipse class="cls-20" cx="460.18" cy="312.61" rx="18.51" ry="10.69"/><ellipse class="cls-21" cx="460.18" cy="312.61" rx="10.55" ry="6.09"/><ellipse class="cls-22" cx="460.18" cy="312.61" rx="2.59" ry="1.49"/></g><g class="cls-8"><ellipse class="cls-9" cx="211.64" cy="380.32" rx="50.35" ry="29.07"/><ellipse class="cls-17" cx="211.64" cy="380.32" rx="42.39" ry="24.48"/><ellipse class="cls-18" cx="211.64" cy="380.32" rx="34.43" ry="19.88"/><ellipse class="cls-19" cx="211.64" cy="380.32" rx="26.47" ry="15.28"/><path class="cls-20" d="M242.89,449.27c-7.23,4.18-7.23,10.94,0,15.12s18.95,4.17,26.17,0,7.23-10.94,0-15.12S250.12,445.1,242.89,449.27Z" transform="translate(-44.34 -76.51)"/><path class="cls-21" d="M248.52,452.52c-4.12,2.38-4.12,6.24,0,8.62a16.46,16.46,0,0,0,14.91,0c4.12-2.38,4.12-6.24,0-8.62A16.52,16.52,0,0,0,248.52,452.52Z" transform="translate(-44.34 -76.51)"/><path class="cls-22" d="M254.15,455.77a1.12,1.12,0,0,0,0,2.12,4,4,0,0,0,3.65,0,1.12,1.12,0,0,0,0-2.12A4,4,0,0,0,254.15,455.77Z" transform="translate(-44.34 -76.51)"/></g><path class="cls-23" d="M421.74,198.92l48,27.9c-6.73-3.92-15.73-3.95-25.74.62l-48-27.9C406,195,415,195,421.74,198.92Z" transform="translate(-44.34 -76.51)"/><path class="cls-24" d="M420.49,215.45l0-2.83c-.62.16-1.24.33-1.87.46s-1.48-.62-1.69-1a10.8,10.8,0,0,1-.44-2.6c-.17-2.71.21-5.44-.15-8.13a46.83,46.83,0,0,1-.78-5.51,10,10,0,0,0-.34-1.71,8.67,8.67,0,0,1-.13-.89,2.1,2.1,0,0,0-.05-.43c0-.1-.13-.11-.23-.15a1.89,1.89,0,0,0-1.44,0,2.94,2.94,0,0,0-.44.35l-.46.37-.86.69-.88.72a1.74,1.74,0,0,0-.8,1.39,15.3,15.3,0,0,0-.07,4.63,22.76,22.76,0,0,0,.79,4.42c.85,2.48,1.71,4.85,2.54,7.33a9.63,9.63,0,0,1,.21,2.77,4,4,0,0,0,0,2.36,1.64,1.64,0,0,0,1.08.88c1.44.34,2.67-.82,3.9-1.33,1.43-.59,3.54-.5,4.59-1.76Z" transform="translate(-44.34 -76.51)"/><path class="cls-1" d="M414.31,216c2.29.28,6.35-.34,6.07-3.35.33-.09.65-.16,1-.23l.49-.08a1.26,1.26,0,0,1,.43,0,1.63,1.63,0,0,1,1.06,1,2.15,2.15,0,0,1,0,1.46.49.49,0,0,0,0,.11,2.65,2.65,0,0,1-.43.62,2.75,2.75,0,0,1-.52.44,4.55,4.55,0,0,1-1.28.55,25.79,25.79,0,0,0-2.75.71c-1.23.51-2.46,1.67-3.9,1.33a1.64,1.64,0,0,1-1.08-.88,3.5,3.5,0,0,1-.19-2.24c0-.24.25-.82.27-1.06C413.68,215,413.46,215.89,414.31,216Z" transform="translate(-44.34 -76.51)"/><path class="cls-24" d="M399.61,190.1v-.2a16.67,16.67,0,0,0-.55,3.44,21.73,21.73,0,0,0,0,4.49c.41,2.79,1.22,5.51,1.54,8.31.05.42.09.84.18,1.26a1.06,1.06,0,0,0,.28.58c.35.32,1.14.15,1.51-.07a2.31,2.31,0,0,0,.87-1.19,18.44,18.44,0,0,0,.58-3.63c.32-2.7,1.21-5.31,1.34-8,.09-1.67,0-3.31.17-5Z" transform="translate(-44.34 -76.51)"/><path class="cls-24" d="M400.38,208.62a9.64,9.64,0,0,0,.1-3.08l3.34-1.24a10.34,10.34,0,0,0-.07,1.47c0,1,1.1.86,1.87.71s1.25-.28,1.88-.43l0,2.82,2.43,0c-1.07,1.24-3.18,1.13-4.62,1.7-1.24.5-2.48,1.64-3.92,1.28a1.64,1.64,0,0,1-1.06-.88A3.85,3.85,0,0,1,400.38,208.62Z" transform="translate(-44.34 -76.51)"/><path class="cls-1" d="M401.3,209.35c2.11.92,6.35-.26,6.1-3.28q.5-.12,1-.21l.5-.08a1.56,1.56,0,0,1,.43,0,1.63,1.63,0,0,1,1.05,1,2.18,2.18,0,0,1,0,1.47.42.42,0,0,1,0,.1,2.33,2.33,0,0,1-.43.61,2.7,2.7,0,0,1-.52.44,4.68,4.68,0,0,1-1.29.53,25.85,25.85,0,0,0-2.76.68c-1.24.5-2.48,1.64-3.92,1.28a1.64,1.64,0,0,1-1.06-.88,3.85,3.85,0,0,1,.07-2.37c0-.23.08-.47.11-.71C400.74,208.57,400.86,209.35,401.3,209.35Z" transform="translate(-44.34 -76.51)"/><path class="cls-25" d="M386.14,187.37l48,27.9a21.07,21.07,0,0,0-3.37-1.56c-7.56-2.7-17.09-1.09-26.83,4.54a64.32,64.32,0,0,0-7.94,5.43l-48-27.9a65.45,65.45,0,0,1,7.93-5.44c9.75-5.62,19.28-7.23,26.84-4.53A20.23,20.23,0,0,1,386.14,187.37Z" transform="translate(-44.34 -76.51)"/><path class="cls-1" d="M387.73,198.21c0,2.52,1.48,4.29,2.15,6.3a2.77,2.77,0,0,1-1.78.06h-.05A25.72,25.72,0,0,1,387.73,198.21Z" transform="translate(-44.34 -76.51)"/><path class="cls-26" d="M413.86,191.3c-1.08-.46-5.47-4.1-7.79-4.85a6.49,6.49,0,0,0-3.47,0,30,30,0,0,0-6.05,2.32c-1,.49-2,1-3,1.46a5,5,0,0,1-2.07.58c0,.28.05.55.07.83a5.84,5.84,0,0,0-.84-.1,4.67,4.67,0,0,0-3.82,1.47c-2.3,2.67-4.7,9.68,1.25,11.53a10,10,0,0,1,2.1,1.09,5.83,5.83,0,0,0,1.22.92,6.66,6.66,0,0,0,4.74.56,11.6,11.6,0,0,0,2.5-.88,27,27,0,0,0,3-1.76c7.06-4.45,12-5.5,13.22-7.33S416.35,192.34,413.86,191.3Z" transform="translate(-44.34 -76.51)"/><path class="cls-24" d="M386.32,191.26h0q.18,1.46.24,2.91C386.52,193.2,386.44,192.23,386.32,191.26Z" transform="translate(-44.34 -76.51)"/><g class="cls-3"><path class="cls-2" d="M426.82,175.39,410.66,166a.93.93,0,0,0-1.36.56l-3,10.9a.93.93,0,0,0,.43,1l15.9,9.65a.93.93,0,0,0,1.36-.55l3.24-11.2A.91.91,0,0,0,426.82,175.39Z" transform="translate(-44.34 -76.51)"/><path class="cls-26" d="M426.31,175.55l-15.76-9.15a.92.92,0,0,0-1.35.55l-3,10.9a.94.94,0,0,0,.43,1.05l15.75,9.15a.92.92,0,0,0,1.35-.55l3-10.91A.91.91,0,0,0,426.31,175.55Z" transform="translate(-44.34 -76.51)"/><path class="cls-2" d="M406.89,178.45l15.76,9.16a.35.35,0,0,0,.2,0,.41.41,0,0,0,.29-.11h0a.28.28,0,0,0,.11-.18l3-10.9a.41.41,0,0,0-.19-.47l-15.75-9.15a.47.47,0,0,0-.19-.06h0a.43.43,0,0,0-.4.31l-3,10.9A.4.4,0,0,0,406.89,178.45Z" transform="translate(-44.34 -76.51)"/><path class="cls-27" d="M407.2,178.34,423,187.49a.32.32,0,0,0,.19,0,.28.28,0,0,0,.11-.18l3-10.9a.41.41,0,0,0-.19-.47l-15.75-9.15a.47.47,0,0,0-.19-.06.4.4,0,0,0-.11.19l-3,10.9A.4.4,0,0,0,407.2,178.34Z" transform="translate(-44.34 -76.51)"/><path class="cls-28" d="M410.39,177.94,420.81,184a.27.27,0,0,0,.12,0,.25.25,0,0,0,.08-.12l2-7.21a.28.28,0,0,0-.13-.31l-10.42-6.06-.13,0a.27.27,0,0,0-.07.13l-2,7.21A.28.28,0,0,0,410.39,177.94Z" transform="translate(-44.34 -76.51)"/></g><g class="cls-3"><path class="cls-1" d="M395.22,185.14v.61a.78.78,0,0,0,.46.64v-.6A.78.78,0,0,1,395.22,185.14Z" transform="translate(-44.34 -76.51)"/><g class="cls-29"><g class="cls-3"><path class="cls-1" d="M395.22,185.14v.61a.52.52,0,0,0,0,.21v-.6a.54.54,0,0,1,0-.22Z" transform="translate(-44.34 -76.51)"/><path class="cls-1" d="M395.26,185.36v.6a1,1,0,0,0,.42.43v-.6a1,1,0,0,1-.42-.43Z" transform="translate(-44.34 -76.51)"/></g></g><path class="cls-1" d="M422.61,189.16v-.6a.81.81,0,0,1-.47.65v.6A.79.79,0,0,0,422.61,189.16Z" transform="translate(-44.34 -76.51)"/><g class="cls-30"><g class="cls-3"><path class="cls-1" d="M422.14,189.21v.6a.79.79,0,0,0,.47-.65v-.6a.81.81,0,0,1-.47.65Z" transform="translate(-44.34 -76.51)"/></g></g><polygon class="cls-1" points="351.34 109.28 351.34 109.88 366.37 118.61 366.36 118.01 351.34 109.28"/><polygon class="cls-1" points="368.61 118.01 368.61 118.61 377.8 113.3 377.8 112.7 368.61 118.01"/><path class="cls-1" d="M410.7,194.52v.6a2.46,2.46,0,0,0,2.24,0v-.6A2.46,2.46,0,0,1,410.7,194.52Z" transform="translate(-44.34 -76.51)"/><g class="cls-31"><g class="cls-3"><path class="cls-1" d="M410.7,194.52v.6a2.14,2.14,0,0,0,1.14.27v-.6a2.41,2.41,0,0,1-1.15-.27Z" transform="translate(-44.34 -76.51)"/><path class="cls-1" d="M411.85,194.79v.6a2.21,2.21,0,0,0,1.1-.27v-.6a2.37,2.37,0,0,1-1.09.27Z" transform="translate(-44.34 -76.51)"/></g></g><path class="cls-2" d="M395.69,184.49c-.62.36-.63.94,0,1.3l15,8.73a2.46,2.46,0,0,0,2.24,0l9.2-5.31a.69.69,0,0,0,0-1.3l-15-8.73a2.46,2.46,0,0,0-2.24,0Z" transform="translate(-44.34 -76.51)"/></g><g class="cls-3"><polygon class="cls-32" points="361.35 103.43 361.35 103.53 362.25 104.06 362.25 103.96 361.35 103.43"/><polygon class="cls-33" points="362.25 103.96 362.25 104.06 362.75 103.77 362.75 103.67 362.25 103.96"/><polygon class="cls-26" points="361.35 103.43 362.25 103.96 362.75 103.67 361.84 103.14 361.35 103.43"/></g><g class="cls-3"><polygon class="cls-32" points="362.49 104.1 362.49 104.2 363.4 104.73 363.4 104.63 362.49 104.1"/><polygon class="cls-33" points="363.4 104.63 363.4 104.73 363.9 104.44 363.9 104.34 363.4 104.63"/><polygon class="cls-26" points="362.49 104.1 363.4 104.63 363.9 104.34 362.99 103.81 362.49 104.1"/></g><g class="cls-3"><polygon class="cls-32" points="363.64 104.76 363.64 104.86 364.55 105.39 364.54 105.29 363.64 104.76"/><polygon class="cls-33" points="364.54 105.29 364.55 105.39 365.04 105.11 365.04 105 364.54 105.29"/><polygon class="cls-26" points="363.64 104.76 364.54 105.29 365.04 105 364.13 104.48 363.64 104.76"/></g><g class="cls-3"><polygon class="cls-32" points="364.78 105.43 364.78 105.53 365.69 106.06 365.69 105.96 364.78 105.43"/><polygon class="cls-33" points="365.69 105.96 365.69 106.06 366.19 105.77 366.19 105.67 365.69 105.96"/><polygon class="cls-26" points="364.78 105.43 365.69 105.96 366.19 105.67 365.28 105.14 364.78 105.43"/></g><g class="cls-3"><polygon class="cls-32" points="365.93 106.1 365.93 106.2 366.84 106.72 366.84 106.62 365.93 106.1"/><polygon class="cls-33" points="366.84 106.62 366.84 106.72 367.33 106.44 367.33 106.34 366.84 106.62"/><polygon class="cls-26" points="365.93 106.1 366.84 106.62 367.33 106.34 366.43 105.81 365.93 106.1"/></g><g class="cls-3"><polygon class="cls-32" points="367.07 106.76 367.07 106.86 367.98 107.39 367.98 107.29 367.07 106.76"/><polygon class="cls-33" points="367.98 107.29 367.98 107.39 368.48 107.1 368.48 107 367.98 107.29"/><polygon class="cls-26" points="367.07 106.76 367.98 107.29 368.48 107 367.57 106.47 367.07 106.76"/></g><g class="cls-3"><polygon class="cls-32" points="360.27 104.12 360.27 104.22 361.17 104.75 361.17 104.65 360.27 104.12"/><polygon class="cls-33" points="361.17 104.65 361.17 104.75 362.09 104.22 362.09 104.12 361.17 104.65"/><polygon class="cls-26" points="360.27 104.12 361.17 104.65 362.09 104.12 361.18 103.59 360.27 104.12"/></g><g class="cls-3"><polygon class="cls-32" points="361.41 104.78 361.41 104.88 362.32 105.41 362.31 105.31 361.41 104.78"/><polygon class="cls-33" points="362.31 105.31 362.32 105.41 363.23 104.88 363.23 104.78 362.31 105.31"/><polygon class="cls-26" points="361.41 104.78 362.31 105.31 363.23 104.78 362.32 104.26 361.41 104.78"/></g><g class="cls-3"><polygon class="cls-32" points="362.55 105.45 362.55 105.55 363.46 106.08 363.46 105.97 362.55 105.45"/><polygon class="cls-33" points="363.46 105.97 363.46 106.08 364.37 105.55 364.37 105.45 363.46 105.97"/><polygon class="cls-26" points="362.55 105.45 363.46 105.97 364.37 105.45 363.46 104.92 362.55 105.45"/></g><g class="cls-3"><polygon class="cls-32" points="363.69 106.11 363.69 106.21 364.6 106.74 364.6 106.64 363.69 106.11"/><polygon class="cls-33" points="364.6 106.64 364.6 106.74 365.51 106.21 365.51 106.11 364.6 106.64"/><polygon class="cls-26" points="363.69 106.11 364.6 106.64 365.51 106.11 364.6 105.58 363.69 106.11"/></g><g class="cls-3"><polygon class="cls-32" points="364.83 106.77 364.83 106.87 365.74 107.4 365.74 107.3 364.83 106.77"/><polygon class="cls-33" points="365.74 107.3 365.74 107.4 366.65 106.87 366.65 106.77 365.74 107.3"/><polygon class="cls-26" points="364.83 106.77 365.74 107.3 366.65 106.77 365.74 106.25 364.83 106.77"/></g><g class="cls-3"><polygon class="cls-32" points="365.97 107.44 365.97 107.54 366.88 108.06 366.88 107.96 365.97 107.44"/><polygon class="cls-33" points="366.88 107.96 366.88 108.06 367.79 107.54 367.79 107.44 366.88 107.96"/><polygon class="cls-26" points="365.97 107.44 366.88 107.96 367.79 107.44 366.89 106.91 365.97 107.44"/></g><g class="cls-3"><polygon class="cls-32" points="368.22 107.43 368.22 107.53 369.13 108.06 369.13 107.95 368.22 107.43"/><polygon class="cls-33" points="369.13 107.95 369.13 108.06 369.63 107.77 369.63 107.67 369.13 107.95"/><polygon class="cls-26" points="368.22 107.43 369.13 107.95 369.63 107.67 368.72 107.14 368.22 107.43"/></g><g class="cls-3"><polygon class="cls-32" points="367.11 108.1 367.11 108.2 368.02 108.73 368.02 108.63 367.11 108.1"/><polygon class="cls-33" points="368.02 108.63 368.02 108.73 368.94 108.2 368.94 108.1 368.02 108.63"/><polygon class="cls-26" points="367.11 108.1 368.02 108.63 368.94 108.1 368.03 107.57 367.11 108.1"/></g><g class="cls-3"><polygon class="cls-32" points="369.37 108.09 369.37 108.19 370.27 108.72 370.27 108.62 369.37 108.09"/><polygon class="cls-33" points="370.27 108.62 370.27 108.72 370.77 108.43 370.77 108.33 370.27 108.62"/><polygon class="cls-26" points="369.37 108.09 370.27 108.62 370.77 108.33 369.86 107.81 369.37 108.09"/></g><g class="cls-3"><polygon class="cls-32" points="368.25 108.76 368.25 108.86 369.16 109.39 369.16 109.29 368.25 108.76"/><polygon class="cls-33" points="369.16 109.29 369.16 109.39 370.08 108.86 370.07 108.76 369.16 109.29"/><polygon class="cls-26" points="368.25 108.76 369.16 109.29 370.07 108.76 369.17 108.23 368.25 108.76"/></g><g class="cls-3"><polygon class="cls-32" points="370.51 108.76 370.51 108.86 371.42 109.39 371.42 109.29 370.51 108.76"/><polygon class="cls-33" points="371.42 109.29 371.42 109.39 371.92 109.1 371.92 109 371.42 109.29"/><polygon class="cls-26" points="370.51 108.76 371.42 109.29 371.92 109 371.01 108.47 370.51 108.76"/></g><g class="cls-3"><polygon class="cls-32" points="369.39 109.43 369.39 109.53 370.3 110.05 370.3 109.95 369.39 109.43"/><polygon class="cls-33" points="370.3 109.95 370.3 110.05 371.22 109.53 371.22 109.43 370.3 109.95"/><polygon class="cls-26" points="369.39 109.43 370.3 109.95 371.22 109.43 370.31 108.9 369.39 109.43"/></g><g class="cls-3"><polygon class="cls-32" points="371.66 109.43 371.66 109.53 372.56 110.05 372.56 109.95 371.66 109.43"/><polygon class="cls-33" points="372.56 109.95 372.56 110.05 373.06 109.77 373.06 109.67 372.56 109.95"/><polygon class="cls-26" points="371.66 109.43 372.56 109.95 373.06 109.67 372.15 109.14 371.66 109.43"/></g><g class="cls-3"><polygon class="cls-32" points="370.54 110.09 370.54 110.19 371.44 110.72 371.44 110.62 370.54 110.09"/><polygon class="cls-33" points="371.44 110.62 371.44 110.72 372.36 110.19 372.36 110.09 371.44 110.62"/><polygon class="cls-26" points="370.54 110.09 371.44 110.62 372.36 110.09 371.45 109.56 370.54 110.09"/></g><g class="cls-3"><polygon class="cls-32" points="372.8 110.09 372.8 110.19 373.71 110.72 373.71 110.62 372.8 110.09"/><polygon class="cls-33" points="373.71 110.62 373.71 110.72 374.21 110.43 374.21 110.33 373.71 110.62"/><polygon class="cls-26" points="372.8 110.09 373.71 110.62 374.21 110.33 373.3 109.8 372.8 110.09"/></g><g class="cls-3"><polygon class="cls-32" points="371.68 110.75 371.68 110.85 372.58 111.38 372.58 111.28 371.68 110.75"/><polygon class="cls-33" points="372.58 111.28 372.58 111.38 373.5 110.85 373.5 110.75 372.58 111.28"/><polygon class="cls-26" points="371.68 110.75 372.58 111.28 373.5 110.75 372.59 110.22 371.68 110.75"/></g><g class="cls-3"><polygon class="cls-32" points="373.95 110.76 373.95 110.86 374.86 111.39 374.86 111.28 373.95 110.76"/><polygon class="cls-33" points="374.86 111.28 374.86 111.39 375.36 111.1 375.36 111 374.86 111.28"/><polygon class="cls-26" points="373.95 110.76 374.86 111.28 375.36 111 374.45 110.47 373.95 110.76"/></g><g class="cls-3"><polygon class="cls-32" points="372.82 111.42 372.82 111.52 373.73 112.04 373.73 111.94 372.82 111.42"/><polygon class="cls-33" points="373.73 111.94 373.73 112.04 374.64 111.52 374.64 111.42 373.73 111.94"/><polygon class="cls-26" points="372.82 111.42 373.73 111.94 374.64 111.42 373.73 110.89 372.82 111.42"/></g><g class="cls-3"><polygon class="cls-32" points="375.09 111.42 375.09 111.52 376 112.05 376 111.95 375.09 111.42"/><polygon class="cls-33" points="376 111.95 376 112.05 376.5 111.76 376.5 111.66 376 111.95"/><polygon class="cls-26" points="375.09 111.42 376 111.95 376.5 111.66 375.59 111.14 375.09 111.42"/></g><g class="cls-3"><polygon class="cls-32" points="373.96 112.08 373.96 112.18 374.87 112.71 374.87 112.61 373.96 112.08"/><polygon class="cls-33" points="374.87 112.61 374.87 112.71 375.78 112.18 375.78 112.08 374.87 112.61"/><polygon class="cls-26" points="373.96 112.08 374.87 112.61 375.78 112.08 374.87 111.55 373.96 112.08"/></g><g class="cls-3"><polygon class="cls-32" points="359.17 104.81 359.18 104.91 361.02 105.98 361.02 105.88 359.17 104.81"/><polygon class="cls-33" points="361.02 105.88 361.02 105.98 361.94 105.46 361.94 105.36 361.02 105.88"/><polygon class="cls-26" points="359.17 104.81 361.02 105.88 361.94 105.36 360.09 104.28 359.17 104.81"/></g><g class="cls-3"><polygon class="cls-32" points="361.23 106 361.23 106.11 362.14 106.63 362.14 106.53 361.23 106"/><polygon class="cls-33" points="362.14 106.53 362.14 106.63 363.05 106.11 363.05 106 362.14 106.53"/><polygon class="cls-26" points="361.23 106 362.14 106.53 363.05 106 362.14 105.48 361.23 106"/></g><g class="cls-3"><polygon class="cls-32" points="362.32 106.64 362.32 106.74 363.23 107.27 363.23 107.17 362.32 106.64"/><polygon class="cls-33" points="363.23 107.17 363.23 107.27 364.14 106.74 364.14 106.64 363.23 107.17"/><polygon class="cls-26" points="362.32 106.64 363.23 107.17 364.14 106.64 363.23 106.11 362.32 106.64"/></g><g class="cls-3"><polygon class="cls-32" points="363.41 107.27 363.41 107.37 364.31 107.9 364.31 107.8 363.41 107.27"/><polygon class="cls-33" points="364.31 107.8 364.31 107.9 365.23 107.37 365.23 107.27 364.31 107.8"/><polygon class="cls-26" points="363.41 107.27 364.31 107.8 365.23 107.27 364.32 106.74 363.41 107.27"/></g><g class="cls-3"><polygon class="cls-32" points="364.5 107.9 364.5 108 365.4 108.53 365.4 108.43 364.5 107.9"/><polygon class="cls-33" points="365.4 108.43 365.4 108.53 366.32 108 366.32 107.9 365.4 108.43"/><polygon class="cls-26" points="364.5 107.9 365.4 108.43 366.32 107.9 365.41 107.37 364.5 107.9"/></g><g class="cls-3"><polygon class="cls-32" points="365.58 108.53 365.58 108.64 366.49 109.16 366.49 109.06 365.58 108.53"/><polygon class="cls-33" points="366.49 109.06 366.49 109.16 367.41 108.64 367.41 108.53 366.49 109.06"/><polygon class="cls-26" points="365.58 108.53 366.49 109.06 367.41 108.53 366.5 108.01 365.58 108.53"/></g><g class="cls-3"><polygon class="cls-32" points="366.67 109.17 366.67 109.27 367.58 109.8 367.58 109.69 366.67 109.17"/><polygon class="cls-33" points="367.58 109.69 367.58 109.8 368.5 109.27 368.49 109.17 367.58 109.69"/><polygon class="cls-26" points="366.67 109.17 367.58 109.69 368.49 109.17 367.59 108.64 366.67 109.17"/></g><g class="cls-3"><polygon class="cls-32" points="367.76 109.8 367.76 109.9 368.67 110.43 368.67 110.33 367.76 109.8"/><polygon class="cls-33" points="368.67 110.33 368.67 110.43 369.58 109.9 369.58 109.8 368.67 110.33"/><polygon class="cls-26" points="367.76 109.8 368.67 110.33 369.58 109.8 368.68 109.27 367.76 109.8"/></g><g class="cls-3"><polygon class="cls-32" points="368.85 110.43 368.85 110.53 369.76 111.06 369.76 110.96 368.85 110.43"/><polygon class="cls-33" points="369.76 110.96 369.76 111.06 370.67 110.53 370.67 110.43 369.76 110.96"/><polygon class="cls-26" points="368.85 110.43 369.76 110.96 370.67 110.43 369.76 109.9 368.85 110.43"/></g><g class="cls-3"><polygon class="cls-32" points="369.94 111.06 369.94 111.17 370.85 111.69 370.85 111.59 369.94 111.06"/><polygon class="cls-33" points="370.85 111.59 370.85 111.69 371.76 111.17 371.76 111.06 370.85 111.59"/><polygon class="cls-26" points="369.94 111.06 370.85 111.59 371.76 111.06 370.85 110.54 369.94 111.06"/></g><g class="cls-3"><polygon class="cls-32" points="371.03 111.7 371.03 111.8 371.94 112.33 371.94 112.23 371.03 111.7"/><polygon class="cls-33" points="371.94 112.23 371.94 112.33 372.85 111.8 372.85 111.7 371.94 112.23"/><polygon class="cls-26" points="371.03 111.7 371.94 112.23 372.85 111.7 371.94 111.17 371.03 111.7"/></g><g class="cls-3"><polygon class="cls-32" points="372.13 112.34 372.13 112.44 373.73 113.37 373.73 113.27 372.13 112.34"/><polygon class="cls-33" points="373.73 113.27 373.73 113.37 374.64 112.84 374.64 112.74 373.73 113.27"/><polygon class="cls-26" points="372.13 112.34 373.73 113.27 374.64 112.74 373.04 111.81 372.13 112.34"/></g><g class="cls-3"><polygon class="cls-32" points="358.03 105.47 358.03 105.57 360.33 106.91 360.33 106.81 358.03 105.47"/><polygon class="cls-33" points="360.33 106.81 360.33 106.91 361.25 106.38 361.25 106.28 360.33 106.81"/><polygon class="cls-26" points="358.03 105.47 360.33 106.81 361.25 106.28 358.95 104.94 358.03 105.47"/></g><g class="cls-3"><polygon class="cls-32" points="360.54 106.93 360.54 107.03 361.45 107.56 361.45 107.46 360.54 106.93"/><polygon class="cls-33" points="361.45 107.46 361.45 107.56 362.36 107.03 362.36 106.93 361.45 107.46"/><polygon class="cls-26" points="360.54 106.93 361.45 107.46 362.36 106.93 361.45 106.4 360.54 106.93"/></g><g class="cls-3"><polygon class="cls-32" points="361.62 107.55 361.62 107.65 362.52 108.18 362.52 108.08 361.62 107.55"/><polygon class="cls-33" points="362.52 108.08 362.52 108.18 363.44 107.65 363.44 107.55 362.52 108.08"/><polygon class="cls-26" points="361.62 107.55 362.52 108.08 363.44 107.55 362.53 107.02 361.62 107.55"/></g><g class="cls-3"><polygon class="cls-32" points="362.69 108.17 362.69 108.28 363.6 108.8 363.6 108.7 362.69 108.17"/><polygon class="cls-33" points="363.6 108.7 363.6 108.8 364.51 108.28 364.51 108.17 363.6 108.7"/><polygon class="cls-26" points="362.69 108.17 363.6 108.7 364.51 108.17 363.6 107.65 362.69 108.17"/></g><g class="cls-3"><polygon class="cls-32" points="363.76 108.8 363.76 108.9 364.67 109.43 364.67 109.33 363.76 108.8"/><polygon class="cls-33" points="364.67 109.33 364.67 109.43 365.58 108.9 365.58 108.8 364.67 109.33"/><polygon class="cls-26" points="363.76 108.8 364.67 109.33 365.58 108.8 364.67 108.27 363.76 108.8"/></g><g class="cls-3"><polygon class="cls-32" points="364.83 109.42 364.83 109.52 365.74 110.05 365.74 109.95 364.83 109.42"/><polygon class="cls-33" points="365.74 109.95 365.74 110.05 366.66 109.52 366.65 109.42 365.74 109.95"/><polygon class="cls-26" points="364.83 109.42 365.74 109.95 366.65 109.42 365.75 108.89 364.83 109.42"/></g><g class="cls-3"><polygon class="cls-32" points="365.9 110.05 365.9 110.14 366.81 110.67 366.81 110.57 365.9 110.05"/><polygon class="cls-33" points="366.81 110.57 366.81 110.67 367.73 110.14 367.73 110.05 366.81 110.57"/><polygon class="cls-26" points="365.9 110.05 366.81 110.57 367.73 110.05 366.82 109.52 365.9 110.05"/></g><g class="cls-3"><polygon class="cls-32" points="366.98 110.67 366.98 110.77 367.89 111.3 367.89 111.2 366.98 110.67"/><polygon class="cls-33" points="367.89 111.2 367.89 111.3 368.8 110.77 368.8 110.67 367.89 111.2"/><polygon class="cls-26" points="366.98 110.67 367.89 111.2 368.8 110.67 367.89 110.14 366.98 110.67"/></g><g class="cls-3"><polygon class="cls-32" points="368.05 111.29 368.05 111.39 368.96 111.92 368.96 111.82 368.05 111.29"/><polygon class="cls-33" points="368.96 111.82 368.96 111.92 369.87 111.39 369.87 111.29 368.96 111.82"/><polygon class="cls-26" points="368.05 111.29 368.96 111.82 369.87 111.29 368.96 110.76 368.05 111.29"/></g><g class="cls-3"><polygon class="cls-32" points="369.12 111.92 369.12 112.02 370.03 112.54 370.03 112.44 369.12 111.92"/><polygon class="cls-33" points="370.03 112.44 370.03 112.54 370.95 112.02 370.95 111.92 370.03 112.44"/><polygon class="cls-26" points="369.12 111.92 370.03 112.44 370.95 111.92 370.04 111.39 369.12 111.92"/></g><g class="cls-3"><polygon class="cls-32" points="370.27 112.58 370.27 112.68 372.59 114.03 372.59 113.93 370.27 112.58"/><polygon class="cls-33" points="372.59 113.93 372.59 114.03 373.5 113.5 373.5 113.4 372.59 113.93"/><polygon class="cls-26" points="370.27 112.58 372.59 113.93 373.5 113.4 371.19 112.05 370.27 112.58"/></g><g class="cls-3"><polygon class="cls-32" points="358.06 106.79 358.06 106.89 358.58 107.19 358.58 107.09 358.06 106.79"/><polygon class="cls-33" points="358.58 107.09 358.58 107.19 359.48 106.67 359.48 106.57 358.58 107.09"/><polygon class="cls-26" points="355.75 106.79 356.9 107.46 358.06 106.79 358.58 107.09 359.48 106.57 357.8 105.6 355.75 106.79"/><polygon class="cls-33" points="356.9 107.46 356.9 107.56 358.06 106.89 358.06 106.79 356.9 107.46"/><polygon class="cls-32" points="355.75 106.79 355.75 106.89 356.9 107.56 356.9 107.46 355.75 106.79"/><polygon class="cls-26" points="358.77 107.22 359.68 107.75 360.59 107.22 359.69 106.69 358.77 107.22"/><polygon class="cls-33" points="359.68 107.75 359.68 107.85 360.59 107.32 360.59 107.22 359.68 107.75"/><polygon class="cls-32" points="358.77 107.22 358.77 107.32 359.68 107.85 359.68 107.75 358.77 107.22"/><polygon class="cls-26" points="357.13 107.59 358.04 108.12 358.95 107.59 358.04 107.06 357.13 107.59"/><polygon class="cls-33" points="358.04 108.12 358.04 108.22 358.95 107.69 358.95 107.59 358.04 108.12"/><polygon class="cls-32" points="357.13 107.59 357.13 107.69 358.04 108.22 358.04 108.12 357.13 107.59"/></g><g class="cls-3"><polygon class="cls-32" points="354.56 107.47 354.56 107.57 356.87 108.91 356.87 108.81 354.56 107.47"/><polygon class="cls-33" points="356.87 108.81 356.87 108.91 357.78 108.38 357.78 108.28 356.87 108.81"/><polygon class="cls-26" points="354.56 107.47 356.87 108.81 357.78 108.28 355.48 106.94 354.56 107.47"/></g><g class="cls-3"><polygon class="cls-32" points="359.85 107.85 359.85 107.95 360.76 108.48 360.76 108.38 359.85 107.85"/><polygon class="cls-33" points="360.76 108.38 360.76 108.48 361.68 107.95 361.68 107.85 360.76 108.38"/><polygon class="cls-26" points="359.85 107.85 360.76 108.38 361.68 107.85 360.77 107.32 359.85 107.85"/></g><g class="cls-3"><polygon class="cls-32" points="360.94 108.48 360.94 108.58 361.85 109.11 361.85 109.01 360.94 108.48"/><polygon class="cls-33" points="361.85 109.01 361.85 109.11 362.76 108.58 362.76 108.48 361.85 109.01"/><polygon class="cls-26" points="360.94 108.48 361.85 109.01 362.76 108.48 361.85 107.95 360.94 108.48"/></g><g class="cls-3"><polygon class="cls-32" points="362.02 109.11 362.02 109.21 362.93 109.74 362.93 109.64 362.02 109.11"/><polygon class="cls-33" points="362.93 109.64 362.93 109.74 363.84 109.21 363.84 109.11 362.93 109.64"/><polygon class="cls-26" points="362.02 109.11 362.93 109.64 363.84 109.11 362.94 108.58 362.02 109.11"/></g><g class="cls-3"><polygon class="cls-32" points="363.1 109.74 363.1 109.84 364.01 110.37 364.01 110.27 363.1 109.74"/><polygon class="cls-33" points="364.01 110.27 364.01 110.37 364.93 109.84 364.93 109.74 364.01 110.27"/><polygon class="cls-26" points="363.1 109.74 364.01 110.27 364.93 109.74 364.02 109.21 363.1 109.74"/></g><g class="cls-3"><polygon class="cls-32" points="364.19 110.37 364.19 110.47 365.1 111 365.1 110.9 364.19 110.37"/><polygon class="cls-33" points="365.1 110.9 365.1 111 366.01 110.47 366.01 110.37 365.1 110.9"/><polygon class="cls-26" points="364.19 110.37 365.1 110.9 366.01 110.37 365.1 109.84 364.19 110.37"/></g><g class="cls-3"><polygon class="cls-32" points="365.27 111 365.27 111.1 366.18 111.63 366.18 111.53 365.27 111"/><polygon class="cls-33" points="366.18 111.53 366.18 111.63 367.09 111.1 367.09 111 366.18 111.53"/><polygon class="cls-26" points="365.27 111 366.18 111.53 367.09 111 366.18 110.47 365.27 111"/></g><g class="cls-3"><polygon class="cls-32" points="366.35 111.63 366.35 111.73 367.26 112.26 367.26 112.16 366.35 111.63"/><polygon class="cls-33" points="367.26 112.16 367.26 112.26 368.18 111.73 368.18 111.63 367.26 112.16"/><polygon class="cls-26" points="366.35 111.63 367.26 112.16 368.18 111.63 367.27 111.1 366.35 111.63"/></g><g class="cls-3"><polygon class="cls-32" points="367.44 112.26 367.44 112.36 368.34 112.89 368.34 112.78 367.44 112.26"/><polygon class="cls-33" points="368.34 112.78 368.34 112.89 369.26 112.36 369.26 112.26 368.34 112.78"/><polygon class="cls-26" points="367.44 112.26 368.34 112.78 369.26 112.26 368.35 111.73 367.44 112.26"/></g><g class="cls-3"><polygon class="cls-32" points="368.52 112.89 368.52 112.99 369.43 113.52 369.43 113.42 368.52 112.89"/><polygon class="cls-33" points="369.43 113.42 369.43 113.52 370.34 112.99 370.34 112.89 369.43 113.42"/><polygon class="cls-26" points="368.52 112.89 369.43 113.42 370.34 112.89 369.43 112.36 368.52 112.89"/></g><g class="cls-3"><polygon class="cls-32" points="369.65 113.54 369.65 113.64 371.44 114.69 371.44 114.59 369.65 113.54"/><polygon class="cls-33" points="371.44 114.59 371.44 114.69 372.36 114.16 372.36 114.06 371.44 114.59"/><polygon class="cls-26" points="369.65 113.54 371.44 114.59 372.36 114.06 370.56 113.02 369.65 113.54"/></g><g class="cls-3"><polygon class="cls-32" points="358.21 108.22 358.21 108.32 359.12 108.85 359.12 108.75 358.21 108.22"/><polygon class="cls-33" points="359.12 108.75 359.12 108.85 360.03 108.32 360.03 108.22 359.12 108.75"/><polygon class="cls-26" points="358.21 108.22 359.12 108.75 360.03 108.22 359.13 107.69 358.21 108.22"/></g><g class="cls-3"><polygon class="cls-32" points="359.29 108.85 359.29 108.95 360.2 109.48 360.2 109.38 359.29 108.85"/><polygon class="cls-33" points="360.2 109.38 360.2 109.48 361.12 108.95 361.12 108.85 360.2 109.38"/><polygon class="cls-26" points="359.29 108.85 360.2 109.38 361.12 108.85 360.21 108.32 359.29 108.85"/></g><g class="cls-3"><polygon class="cls-32" points="360.38 109.48 360.38 109.58 361.29 110.11 361.29 110.01 360.38 109.48"/><polygon class="cls-33" points="361.29 110.01 361.29 110.11 362.2 109.58 362.2 109.48 361.29 110.01"/><polygon class="cls-26" points="360.38 109.48 361.29 110.01 362.2 109.48 361.29 108.95 360.38 109.48"/></g><g class="cls-3"><polygon class="cls-32" points="361.46 110.11 361.46 110.21 362.37 110.74 362.37 110.64 361.46 110.11"/><polygon class="cls-33" points="362.37 110.64 362.37 110.74 363.28 110.21 363.28 110.11 362.37 110.64"/><polygon class="cls-26" points="361.46 110.11 362.37 110.64 363.28 110.11 362.37 109.58 361.46 110.11"/></g><g class="cls-3"><polygon class="cls-32" points="362.54 110.74 362.54 110.84 363.45 111.37 363.45 111.27 362.54 110.74"/><polygon class="cls-33" points="363.45 111.27 363.45 111.37 364.37 110.84 364.37 110.74 363.45 111.27"/><polygon class="cls-26" points="362.54 110.74 363.45 111.27 364.37 110.74 363.46 110.21 362.54 110.74"/></g><g class="cls-3"><polygon class="cls-32" points="363.63 111.37 363.63 111.47 364.53 112 364.53 111.89 363.63 111.37"/><polygon class="cls-33" points="364.53 111.89 364.53 112 365.45 111.47 365.45 111.37 364.53 111.89"/><polygon class="cls-26" points="363.63 111.37 364.53 111.89 365.45 111.37 364.54 110.84 363.63 111.37"/></g><g class="cls-3"><polygon class="cls-32" points="364.71 112 364.71 112.1 365.62 112.63 365.62 112.52 364.71 112"/><polygon class="cls-33" points="365.62 112.52 365.62 112.63 366.53 112.1 366.53 112 365.62 112.52"/><polygon class="cls-26" points="364.71 112 365.62 112.52 366.53 112 365.62 111.47 364.71 112"/></g><g class="cls-3"><polygon class="cls-32" points="365.79 112.63 365.79 112.73 366.7 113.25 366.7 113.15 365.79 112.63"/><polygon class="cls-33" points="366.7 113.15 366.7 113.25 367.62 112.73 367.62 112.63 366.7 113.15"/><polygon class="cls-26" points="365.79 112.63 366.7 113.15 367.62 112.63 366.71 112.1 365.79 112.63"/></g><g class="cls-3"><polygon class="cls-32" points="366.88 113.25 366.88 113.36 367.78 113.88 367.78 113.78 366.88 113.25"/><polygon class="cls-33" points="367.78 113.78 367.78 113.88 368.7 113.36 368.7 113.25 367.78 113.78"/><polygon class="cls-26" points="366.88 113.25 367.78 113.78 368.7 113.25 367.79 112.73 366.88 113.25"/></g><g class="cls-3"><polygon class="cls-32" points="367.99 113.9 367.99 114 370.3 115.35 370.3 115.25 367.99 113.9"/><polygon class="cls-33" points="370.3 115.25 370.3 115.35 371.22 114.82 371.22 114.72 370.3 115.25"/><polygon class="cls-26" points="367.99 113.9 370.3 115.25 371.22 114.72 368.9 113.37 367.99 113.9"/></g><g class="cls-3"><polygon class="cls-32" points="357.07 108.93 357.08 109.03 357.98 109.56 357.98 109.46 357.07 108.93"/><polygon class="cls-33" points="357.98 109.46 357.98 109.56 358.9 109.03 358.9 108.93 357.98 109.46"/><polygon class="cls-26" points="357.07 108.93 357.98 109.46 358.9 108.93 357.99 108.4 357.07 108.93"/></g><g class="cls-3"><polygon class="cls-32" points="358.15 109.55 358.15 109.66 359.06 110.18 359.06 110.08 358.15 109.55"/><polygon class="cls-33" points="359.06 110.08 359.06 110.18 359.97 109.66 359.97 109.55 359.06 110.08"/><polygon class="cls-26" points="358.15 109.55 359.06 110.08 359.97 109.55 359.06 109.03 358.15 109.55"/></g><g class="cls-3"><polygon class="cls-32" points="359.23 110.18 359.23 110.28 360.13 110.81 360.13 110.71 359.23 110.18"/><polygon class="cls-33" points="360.13 110.71 360.13 110.81 361.05 110.28 361.05 110.18 360.13 110.71"/><polygon class="cls-26" points="359.23 110.18 360.13 110.71 361.05 110.18 360.14 109.65 359.23 110.18"/></g><g class="cls-3"><polygon class="cls-32" points="360.3 110.8 360.3 110.9 361.21 111.43 361.21 111.33 360.3 110.8"/><polygon class="cls-33" points="361.21 111.33 361.21 111.43 362.12 110.9 362.12 110.8 361.21 111.33"/><polygon class="cls-26" points="360.3 110.8 361.21 111.33 362.12 110.8 361.21 110.28 360.3 110.8"/></g><g class="cls-3"><polygon class="cls-32" points="361.37 111.43 361.37 111.53 365.49 113.92 365.49 113.82 361.37 111.43"/><polygon class="cls-33" points="365.49 113.82 365.49 113.92 366.41 113.39 366.41 113.29 365.49 113.82"/><polygon class="cls-26" points="361.37 111.43 365.49 113.82 366.41 113.29 362.29 110.9 361.37 111.43"/></g><g class="cls-3"><polygon class="cls-32" points="365.71 113.95 365.71 114.05 366.62 114.58 366.62 114.47 365.71 113.95"/><polygon class="cls-33" points="366.62 114.47 366.62 114.58 367.53 114.05 367.53 113.95 366.62 114.47"/><polygon class="cls-26" points="365.71 113.95 366.62 114.47 367.53 113.95 366.62 113.42 365.71 113.95"/></g><g class="cls-3"><polygon class="cls-32" points="366.81 114.58 366.81 114.69 369.12 116.03 369.12 115.93 366.81 114.58"/><polygon class="cls-33" points="369.12 115.93 369.12 116.03 370.04 115.5 370.03 115.4 369.12 115.93"/><polygon class="cls-26" points="366.81 114.58 369.12 115.93 370.03 115.4 367.72 114.06 366.81 114.58"/></g><path class="cls-34" d="M404.26,179.39h0l.14,0c1-.21,3.57-.56,3.68.47l-.18.12c1,.72.16.82.62,1.37.24.28.19.88-.13.73.18.4,0,.72-.84.43a2.86,2.86,0,0,0-2.23.24c0,.07-.14.69.57.58.46-.07.5-.33,1.2,0,.26.11.24.3.08.48-1.89,2-3.85-.06-4.44-.49l-.18-.13a1.2,1.2,0,0,1-.62-.23,1.87,1.87,0,0,1-.4-.84C401,179.9,402.89,179.77,404.26,179.39Z" transform="translate(-44.34 -76.51)"/><path class="cls-34" d="M402.13,180.1c-1.65.67-6.78-.88-11.4-.34-2.91.35-4.71,1.58-4.37,3.48a3,3,0,0,0,1.61,2.12c1,.32,9.6-2.07,14.62-2.26.53,0,1.52-1,1.84-1.36C404.94,181.09,402.13,180.1,402.13,180.1Z" transform="translate(-44.34 -76.51)"/><g id="people"><path class="cls-35" d="M389.67,175.74c-1.38-4.23-4.56-6.44-6.2-5.71s-1.7,4,1.35,10.32c.75,1.54,2.62,5.82,4.68,8.06,1.33,1.46,2.78,1.22,3.11.59C393.7,186.88,392.38,184.08,389.67,175.74Z" transform="translate(-44.34 -76.51)"/><path class="cls-36" d="M384.64,178.29a18.6,18.6,0,0,1-.47-5.76c.12-1.47-.1-3.7,1.7-4.36a3.71,3.71,0,0,1,3.06.56c.26.18,1.3.79,1.54.92,1.46.76,2.87,1.62,4.27,2.49,2.58,1.62,6.71,3,8.13,7.84a7,7,0,0,1-.56,5.22c-.21.39-.48.72-.66,1.13a10.55,10.55,0,0,0-.48,1.33,18.61,18.61,0,0,0-.41,6.66,4.22,4.22,0,0,1-.33,3.08,4,4,0,0,1-3,1.45,18,18,0,0,1-8-1.22,8.06,8.06,0,0,1-2.39-1.22,3.35,3.35,0,0,1-1.32-2.27c-.12-1.48,1-2.7,1.4-4a8,8,0,0,0-.16-4.45c-.23-1-.52-2-.85-3-.42-1.24-.91-2.45-1.27-3.71C384.75,178.74,384.69,178.52,384.64,178.29Z" transform="translate(-44.34 -76.51)"/><path class="cls-35" d="M402.2,182.71c-.12-4.24-2-7.74-3.69-7.34-3,.73-3.06,3.64-2,10.25.41,2.49.31,8.29,4,7.91a2.6,2.6,0,0,0,2-1.35,5.2,5.2,0,0,0,0-2.6C402.43,187.29,402.27,185,402.2,182.71Z" transform="translate(-44.34 -76.51)"/></g><path class="cls-35" d="M388.76,166.07c0,.59-.05,1.19-.08,1.78a4.16,4.16,0,0,1-.23,1.45c-.22.54-.51.8-.46,1.41a2.81,2.81,0,0,0,.79,1.67,5.77,5.77,0,0,0,3.11,1.74,3.66,3.66,0,0,0,2.44-.29c1-.57.74-1.35.66-2.37a4.27,4.27,0,0,1,.91-3.44Z" transform="translate(-44.34 -76.51)"/><path class="cls-35" d="M398,157.72a3.28,3.28,0,0,1,.79,1.59c.19,1.16-.21,2.31-.07,3.46A9.68,9.68,0,0,1,398,166a2.4,2.4,0,0,1-1,1.61c-.34.18-.76.18-1.09.39a5.73,5.73,0,0,0-.54.46c-.55.42-1.57.21-2.21.12a5.07,5.07,0,0,1-4.47-3.09C383.15,157,394.23,153.3,398,157.72Z" transform="translate(-44.34 -76.51)"/><path class="cls-2" d="M387.56,156.59a3,3,0,0,1,.38-.7,6.29,6.29,0,0,1,2.8-2,7.77,7.77,0,0,1,4.25-.24,4,4,0,0,1,.83.25,5.22,5.22,0,0,1,1.35,1,6.46,6.46,0,0,1,1.38,1.33,3.55,3.55,0,0,1,.55,1.79,1.76,1.76,0,0,1-.3.74,3.5,3.5,0,0,1-.37.49,7.64,7.64,0,0,0-.83,1.92,1.49,1.49,0,0,1-.46.71c-.46.32-1.11,0-1.64.19a1.29,1.29,0,0,0-.72.64,4.33,4.33,0,0,0-.31.92,10,10,0,0,0-.2,1.41,2.5,2.5,0,0,1-.53,1.42c-.78.86-2.29.83-3.32.62a5,5,0,0,1-1.08-.32c-1.79-.83-2.85-3.27-3.06-5.11a10.36,10.36,0,0,1-.06-1.25,5.8,5.8,0,0,1,.14-1.32,6.32,6.32,0,0,1,.87-1.79A4.17,4.17,0,0,0,387.56,156.59Z" transform="translate(-44.34 -76.51)"/><path class="cls-35" d="M394.87,161.64c-1.05,0-1.21,1.31-.43,2.25a4.89,4.89,0,0,0,.91.72c2,1.44,2.31-.31,1.68-.8C395.57,162.66,396.18,161.63,394.87,161.64Z" transform="translate(-44.34 -76.51)"/><path class="cls-24" d="M395.33,163.57c-.13-.1-1.36-.71-.6-1.24a.36.36,0,0,1,.53.26c0,.12,0,.25,0,.37a.52.52,0,0,0,.09.2c.12.16.49.3.44.55S395.4,163.63,395.33,163.57Z" transform="translate(-44.34 -76.51)"/><path class="cls-35" d="M417.85,189.26c0-.27-.45-.36-.29-.67s.79-.36.34-.68a2.33,2.33,0,0,0-.79-.23.39.39,0,0,1-.29-.22,1.23,1.23,0,0,0,0-.19.33.33,0,0,0-.24-.22.92.92,0,0,0-.33,0l-1.45.12c-.36,0-.94.21-1.25,0,0,0,0,0,0-.08a.12.12,0,0,1,0-.08l.32-.42a.63.63,0,0,0-.57-.24,5.1,5.1,0,0,0-2.78,1c-.28.18-.45.5-.74.62-1.27.55-10.71.67-11.13.83-1.43.58,0,3.94.74,4.38s.65.43,1.42.35c.54-.05,2,.57,7.39-1.88a5.27,5.27,0,0,1,3-.57,34.66,34.66,0,0,0,4.44-.12.43.43,0,0,0,.43-.3c.08-.17.21-.42,0-.56s-.14-.08-.12-.14,0,0,.05-.06a2.63,2.63,0,0,1,1.41-.3C417.57,189.52,417.82,189.46,417.85,189.26Z" transform="translate(-44.34 -76.51)"/><path class="cls-26" d="M390.42,159.79a10.22,10.22,0,0,0-.84,1.12,7.22,7.22,0,0,0-.42,5.36,24.19,24.19,0,0,1,1,5.41,10.71,10.71,0,0,1-2.95,6.74,6.17,6.17,0,0,1-4.18,2.46,1.94,1.94,0,0,1-2.19-1.82c0-1.17,1.21-2.06,1.55-3.13a11.3,11.3,0,0,0,.5-3.87c-.07-1.32-.37-2.62-.53-3.93a31.86,31.86,0,0,1,0-5.86,14.19,14.19,0,0,1,.67-4.1,5.21,5.21,0,0,1,2.64-3.08c1-.45,2.89-.76,3.83-.1a9.56,9.56,0,0,1,1.52,1.53,2.06,2.06,0,0,1,.2,2A5.18,5.18,0,0,1,390.42,159.79Z" transform="translate(-44.34 -76.51)"/><g class="cls-3"><path class="cls-15" d="M331.58,195.53c33-19.06,60.4-6.31,64.43,28.15a64.32,64.32,0,0,1,7.94-5.43c9.74-5.63,19.27-7.24,26.83-4.54,6,2.15,10.6,6.95,13.23,13.73,21.34-9.74,38.08,1.42,38.15,26.6.08,26.92-18.92,59.82-42.35,73.35L260.31,431c-31.1,18-56.49,3.49-56.59-32.25s25.12-79.43,56.22-97.38a67.42,67.42,0,0,1,7.6-3.81C271.47,258.66,298.65,214.54,331.58,195.53Z" transform="translate(-44.34 -76.51)"/><path class="cls-37" d="M469.28,254.08c.06,22.41-16.38,50.88-35.91,62.14L253.87,419.86c-6.79,3.92-13.29,6-18.82,6a15.84,15.84,0,0,1-9.64-2.92c-7.73-5.63-8.79-18-8.8-24.2-.09-31.08,22.71-70.56,49.77-86.19a57.29,57.29,0,0,1,6.17-3.09l7-3,.77-7.6c3.55-35.08,28.88-75.57,57.66-92.19,8.08-4.67,15.87-7.13,22.55-7.13h.88c16.36.55,20.66,16.2,21.76,25.61l1.52,13,1.18,10.05L404,233.76a53.76,53.76,0,0,1,6.36-4.36,31.34,31.34,0,0,1,9.5-3.75,16.35,16.35,0,0,1,3.17-.33,10,10,0,0,1,3.38.53c2.42.85,4.29,3,5.56,6.25l2.46,6.32,2.48,6.41,12.42-5.67a27.06,27.06,0,0,1,6.09-2,15.89,15.89,0,0,1,3.12-.32C467.84,236.83,469.25,247.64,469.28,254.08Z" transform="translate(-44.34 -76.51)"/><path class="cls-38" d="M455.45,237.15a27.06,27.06,0,0,0-6.09,2l-12.42,5.67-2.48-6.41L432,232.1c-1.27-3.29-3.14-5.4-5.56-6.25a10,10,0,0,0-3.38-.53,16.35,16.35,0,0,0-3.17.33,31.34,31.34,0,0,0-9.5,3.75,53.76,53.76,0,0,0-6.36,4.36l-18.12,14.43-1.18-10.05-1.52-13c-1.1-9.41-5.4-25.06-21.76-25.61h-.88c-6.68,0-14.47,2.46-22.55,7.13-28.78,16.62-54.11,57.11-57.66,92.19l-.77,7.6-7,3a57.29,57.29,0,0,0-6.17,3.09c-27.06,15.63-49.86,55.11-49.77,86.19,0,6.18,1.07,18.57,8.8,24.2,5.42-.11,11.73-2.17,18.29-6L423.21,313.33c19.53-11.28,36-39.74,35.9-62.16C459.1,247,458.49,240.85,455.45,237.15Z" transform="translate(-44.34 -76.51)"/></g><path class="cls-38" d="M329.61,163.15c-11.78-6.84-28.08-5.89-46,4.48-32.93,19-60.11,63.13-64,102.05l48,27.9c3.93-38.92,31.11-83,64-102,18-10.37,34.26-11.32,46-4.48Z" transform="translate(-44.34 -76.51)"/><path class="cls-25" d="M220.19,434.92l-48-27.9c-10.13-5.89-16.42-18.4-16.47-36.15-.1-35.74,25.12-79.43,56.22-97.39a69,69,0,0,1,7.6-3.8l48,27.9a67.42,67.42,0,0,0-7.6,3.81c-31.1,17.95-56.32,61.64-56.22,97.38C203.77,416.53,210.06,429,220.19,434.92Z" transform="translate(-44.34 -76.51)"/><g id="people-2" data-name="people"><ellipse class="cls-39" cx="258.69" cy="372.45" rx="11.55" ry="6.67"/><path class="cls-40" d="M308.21,388.53a9.64,9.64,0,0,1,.79,4c.23,3,.93,5.91,1,8.9a2.94,2.94,0,0,1-.12,1.18,1.22,1.22,0,0,1-.81.8,1.51,1.51,0,0,1-1.22-.45,8,8,0,0,1-2.12-3.82c-.62-1.87-1.18-3.77-1.69-5.68a15.7,15.7,0,0,1-.7-4.55,3.28,3.28,0,0,1,.47-1.77C305,385.37,307.5,387.23,308.21,388.53Z" transform="translate(-44.34 -76.51)"/><path class="cls-41" d="M302.7,452.46a2.71,2.71,0,0,1,0,.29,1.12,1.12,0,0,1-.47.82,1,1,0,0,1-.74.12,2.81,2.81,0,0,1-1.88-1.78c-.41-1-.43-2.12-1.07-3-.15-.2-.33-.36-.46-.57a1.82,1.82,0,0,1-.26-1.1,1.57,1.57,0,0,1,.32-.91,1.29,1.29,0,0,1,1.66-.07c.37.25.95.21,1.2.59a3.94,3.94,0,0,1,.4,1,25.85,25.85,0,0,1,1.21,3.93A4,4,0,0,1,302.7,452.46Z" transform="translate(-44.34 -76.51)"/><path class="cls-41" d="M298.69,446.7l-.25,3.52a.33.33,0,0,1-.41-.06l-.14-2.64Z" transform="translate(-44.34 -76.51)"/><path class="cls-42" d="M302.14,448.44v-3.22H303l-.23,3.25A.46.46,0,0,1,302.14,448.44Z" transform="translate(-44.34 -76.51)"/><path class="cls-42" d="M308,447.91a22.43,22.43,0,0,1,1.38,2,.86.86,0,0,1,.17.53.71.71,0,0,1-.33.46,1.57,1.57,0,0,1-.56.16,5.48,5.48,0,0,1-2.28-.12,2.37,2.37,0,0,1-1.1-.57,3.46,3.46,0,0,1-.72-1.62,2.19,2.19,0,0,0-.95-1.47c-.14-.08-.3-.12-.45-.19a2,2,0,0,1-.71-2.93c.33-.52.77-.48,1.29-.26a4.91,4.91,0,0,1,1.44,1.25l.2.18c.5.41-.22-1.83.08-1.23A20.08,20.08,0,0,0,308,447.91Z" transform="translate(-44.34 -76.51)"/><path class="cls-24" d="M306.31,425.14c0,4.24-1,9.33-1,13.57a38.07,38.07,0,0,0,.4,5.55c.14.6-1,1-1.54.75-.38-.19-1.14-.67-1.18-1.1-.26-2.42-1.53-4.6-2.12-7a16,16,0,0,1,.35-8.29c.17-.48.43-1,.92-1.14Z" transform="translate(-44.34 -76.51)"/><path class="cls-24" d="M305.6,443.53a7.08,7.08,0,0,0,.24,1.2,5.36,5.36,0,0,0,.14.54,3.61,3.61,0,0,0,.27.56c.19.33.4.65.62,1a6.79,6.79,0,0,1,.65.87.88.88,0,0,1,.08.67c-.1.3-.61.09-.81,0a2.5,2.5,0,0,1-.41-.25,14.87,14.87,0,0,1-1.29-1.34,11.65,11.65,0,0,0-1.75-1.09,1.71,1.71,0,0,1-.48-.4,1.28,1.28,0,0,1-.23-.89c0-.38.27-.69.29-1.06a2.38,2.38,0,0,1,.2-1.09Z" transform="translate(-44.34 -76.51)"/><path class="cls-24" d="M297.31,387.37a18.49,18.49,0,0,1,3.46-1.08l.56-.12a7,7,0,0,1,4.21.34l0,0v8.63h-8.27Z" transform="translate(-44.34 -76.51)"/><path class="cls-27" d="M293.58,391.13c.18-2,2.43-3.08,4.08-4.08.24,1.63.95,3.13,2.61,3.68a2.14,2.14,0,0,0,2.51-.75c.86-1.15.77-2.61.62-4.07a8.37,8.37,0,0,1,2.14.6,4,4,0,0,1,1.61,1.35,4.8,4.8,0,0,1,.37,1.62,12.23,12.23,0,0,0,.6,1.83c.28.68.74,1.32,1,2a5.62,5.62,0,0,1,.25,2.34,22.07,22.07,0,0,1-1.13,3.48,14.25,14.25,0,0,0-.29,6c.06.5.13,1,.2,1.5,0,.27.07.35-.13.5a4.59,4.59,0,0,1-1.41.52c-.33.11-.66.22-1,.31a13,13,0,0,1-2.84.45,7.85,7.85,0,0,1-5.21-1.45c-.17-.13-.27-.2-.3-.38a4.13,4.13,0,0,1,0-.5c0-.51.07-1,.1-1.53a14.28,14.28,0,0,0-.12-3.2c-.54-3.19-2.64-5.91-3.5-9A3.17,3.17,0,0,1,293.58,391.13Z" transform="translate(-44.34 -76.51)"/><path class="cls-40" d="M294.25,389.4c3.11-.6,2,5.22,3.32,7.19.95,1.55,3,1.19,4.63,1.31a3.14,3.14,0,0,0-1.78,2.73,30.3,30.3,0,0,0,.58,7.68,7.12,7.12,0,0,1-3.47-1.38c-.17-.13-.27-.2-.3-.38a4.13,4.13,0,0,1,0-.5c0-.51.07-1,.1-1.53a14.28,14.28,0,0,0-.12-3.2c-.54-3.19-2.64-5.91-3.5-9a3.17,3.17,0,0,1-.12-1.16A3.57,3.57,0,0,1,294.25,389.4Z" transform="translate(-44.34 -76.51)"/><path class="cls-40" d="M301.88,390.7c.1.33,1.5.58,1.66.54s.27-.25.33-.39a8.54,8.54,0,0,0,.65-3.16,1.24,1.24,0,0,0-.32-1,1,1,0,0,0-.95-.13c-.31.14-.2.16-.09.45C303.57,388.08,302.59,390.17,301.88,390.7Z" transform="translate(-44.34 -76.51)"/><path class="cls-34" d="M296.6,407.65c-3.47,3.89-2,11.9-.94,16.6a24.3,24.3,0,0,1,.62,3.69c.1,1.34.21,2.69.31,4a3.74,3.74,0,0,0,.24,1.24c.8,1.9,3.59.28,4.3-.89a8.52,8.52,0,0,0,1-3.34c.44-3,.71-7.36.9-10.37a20,20,0,0,0,.18-4.43,6.08,6.08,0,0,0-1.7-3,7.28,7.28,0,0,0-5-2.1l.09.15Z" transform="translate(-44.34 -76.51)"/><path class="cls-34" d="M301.72,427.94c0,4.24-1,9.34-1,13.57a61.51,61.51,0,0,0,.61,7.05c.14.6-1.46.72-2,.44-.39-.19-.88-1.86-.92-2.28-.26-2.42-1.53-4.61-2.12-7a16,16,0,0,1,.35-8.29c.17-.48.43-1,.92-1.14Z" transform="translate(-44.34 -76.51)"/><path class="cls-41" d="M308.14,407a17.93,17.93,0,0,1,.88,3.34,38,38,0,0,1-1.55,16.08,5.22,5.22,0,0,1-.54,1.37,1.66,1.66,0,0,1-1.08.8,24.07,24.07,0,0,1-5.78,1,8.53,8.53,0,0,1-2,0,2.87,2.87,0,0,1-1.77-.89,4.28,4.28,0,0,1-.75-2c-.16-.93-.33-1.86-.49-2.78s-.19-1.63-.34-2.43a27.23,27.23,0,0,1-.6-5.62,15.73,15.73,0,0,1,1.62-7.07,11.48,11.48,0,0,1,.81-1.35l.71-1a1.34,1.34,0,0,0,.32.57,6.9,6.9,0,0,0,2.59,1.2,11.29,11.29,0,0,0,5.68-.3C306.49,407.67,308.14,407,308.14,407Z" transform="translate(-44.34 -76.51)"/><path class="cls-26" d="M300.77,408.28a11.71,11.71,0,0,0,5.06-.42c.66-.19,2.31-.88,2.31-.88a17.93,17.93,0,0,1,.88,3.34,38,38,0,0,1-1.55,16.08,5.22,5.22,0,0,1-.54,1.37,1.66,1.66,0,0,1-1.08.8,22,22,0,0,1-5.34,1C298.9,422.6,298,414.91,300.77,408.28Z" transform="translate(-44.34 -76.51)"/><path class="cls-1" d="M295.72,408.77a11.48,11.48,0,0,1,.81-1.35l.71-1a1.34,1.34,0,0,0,.32.57,6.9,6.9,0,0,0,2.59,1.2c.21,0,.41.09.62.12-2.79,6.63-1.87,14.32-.26,21.26l-.44,0a8.53,8.53,0,0,1-2,0,2.87,2.87,0,0,1-1.77-.89,4.28,4.28,0,0,1-.75-2c-.16-.93-.33-1.86-.49-2.78s-.19-1.63-.34-2.43a27.23,27.23,0,0,1-.6-5.62A15.73,15.73,0,0,1,295.72,408.77Z" transform="translate(-44.34 -76.51)"/><path class="cls-2" d="M301,377.26a3.15,3.15,0,0,1-6,1.28,2.92,2.92,0,0,1-.28-1.28,3.15,3.15,0,0,1,3.15-3.15,2.66,2.66,0,0,1,.75.1A3.14,3.14,0,0,1,301,377.26Z" transform="translate(-44.34 -76.51)"/><path class="cls-24" d="M298.1,387.42c-.09,3.06,5.23,3.11,5.16.24-.11-4-.33-4.46-2.09-5.08a4.77,4.77,0,0,0-1.49-.31c-1.85,0-1.13,1-1.06,1.68C298.83,386,298.13,386.33,298.1,387.42Z" transform="translate(-44.34 -76.51)"/><path class="cls-43" d="M298.1,387.42c0-1.09.73-1.38.52-3.47-.07-.71-.79-1.72,1.06-1.68a4.77,4.77,0,0,1,1.49.31c1.73.61,2,1.07,2.08,4.92-1.47-.16-2.77-1.9-4.27-.87a3,3,0,0,0-.86,1.2A2.68,2.68,0,0,1,298.1,387.42Z" transform="translate(-44.34 -76.51)"/><path class="cls-35" d="M300.32,385.42l-.45-.39a8.25,8.25,0,0,1-1.44-1.63,5.15,5.15,0,0,1,.43-6.18,4.69,4.69,0,0,1,4.55-1.23,6.73,6.73,0,0,1,1.24.51,3.37,3.37,0,0,1,1,.66,3.29,3.29,0,0,1,.42.63,2.88,2.88,0,0,1,.33.79c.31,1.24-.52,2.52,0,3.75.1.27.26.51.35.78a1,1,0,0,1,0,.83c-.14.24-.32.35-.41.61s-.19.71-.29,1.07a4.57,4.57,0,0,1-.41,1.12c-.48.86-1.17.91-2,.57A11.39,11.39,0,0,1,300.32,385.42Z" transform="translate(-44.34 -76.51)"/><path class="cls-35" d="M303.72,383.21c-.38-1.53-2.16-2-2.92-3.3a9.57,9.57,0,0,1-1.29-3.24,4.7,4.7,0,0,1,3.9-.68,6.73,6.73,0,0,1,1.24.51,3.37,3.37,0,0,1,1,.66,3.29,3.29,0,0,1,.42.63,2.88,2.88,0,0,1,.33.79c.31,1.24-.52,2.52,0,3.75.1.27.26.51.35.78a1,1,0,0,1,0,.83c-.14.24-.32.35-.41.61s-.19.71-.29,1.07a4.57,4.57,0,0,1-.41,1.12,1.27,1.27,0,0,1-1.32.76C303.24,386.34,304.07,384.61,303.72,383.21Z" transform="translate(-44.34 -76.51)"/><path class="cls-34" d="M298.86,377.22a4.3,4.3,0,0,1,.65-.55,9.57,9.57,0,0,0,1.29,3.24c.76,1.27,2.54,1.77,2.92,3.3s-.48,3.13.48,4.29a2.94,2.94,0,0,1-.7-.19,11.39,11.39,0,0,1-3.18-1.89l-.45-.39a8.25,8.25,0,0,1-1.44-1.63A5.15,5.15,0,0,1,298.86,377.22Z" transform="translate(-44.34 -76.51)"/><path class="cls-2" d="M296.6,379.59a4,4,0,0,1,1.72-3.61,4.53,4.53,0,0,1,3.26-1.06,6.87,6.87,0,0,1,3.35,1.07l.12.08a2.59,2.59,0,0,1,1.41,1.87c0,.25.15.78,0,1s-1,.09-1.17.09c-.52,0-1-.37-1.51-.28a1.06,1.06,0,0,0-.84.74,3.27,3.27,0,0,1-.19.9c-.18.28-.54.38-.79.6-.49.46-.45,1.37-1.05,1.67a1.81,1.81,0,0,1-1.19,0,1.05,1.05,0,0,0-1.11.27c-.07.12,0,.25,0,.39s.05.93.05.93a.87.87,0,0,1-.25-.05,2.53,2.53,0,0,1-.7-.79A6.21,6.21,0,0,1,296.6,379.59Z" transform="translate(-44.34 -76.51)"/><path class="cls-34" d="M298.8,381.79c-.82-.06-1,1-.46,1.76a3.6,3.6,0,0,0,.67.62c1.48,1.26,1.86-.1,1.39-.53C299.3,382.64,299.85,381.86,298.8,381.79Z" transform="translate(-44.34 -76.51)"/><path class="cls-24" d="M299.33,383.67c-.09-.09-1-.65-.39-1a.29.29,0,0,1,.4.24c0,.1,0,.2,0,.3a.44.44,0,0,0,.06.16c.09.14.37.27.32.47S299.39,383.72,299.33,383.67Z" transform="translate(-44.34 -76.51)"/><path class="cls-40" d="M301.88,390.7a7.34,7.34,0,0,1-1.48,1.3c-.17.11-.32.24-.51.14a7.87,7.87,0,0,1-2.81-3.81,1.56,1.56,0,0,1,.43-1.25c.05-.05.62-.27.69-.31a7.11,7.11,0,0,0,.32,1.47C299.08,389.56,300.52,390.23,301.88,390.7Z" transform="translate(-44.34 -76.51)"/><path class="cls-34" d="M300.6,446.57c.09.29.49.31.54.6a14.17,14.17,0,0,0,.3,1.47,4.54,4.54,0,0,1,.2,1.32.88.88,0,0,1-1.48.63,4.75,4.75,0,0,1-.78-1.06,6.17,6.17,0,0,1-.51-1.07,7.88,7.88,0,0,1-.49-2.34,5.86,5.86,0,0,1,.17-1.07,3.51,3.51,0,0,1,.4.27l1.54,1.12C300.68,446.59,300.53,446.33,300.6,446.57Z" transform="translate(-44.34 -76.51)"/><g class="cls-3"><polygon class="cls-44" points="257.44 319.99 257.93 320.38 257.93 320.38 258.65 320.07 265.11 317.39 265.33 317.27 265.66 317 265.62 316.98 265.37 316.77 258.13 319.68 257.44 319.99"/><polygon class="cls-45" points="256.1 331.1 263.24 326.96 265.49 317.56 265.66 317 265.62 316.98 257.93 320.38 257.93 320.38 256.1 331.1"/></g><g class="cls-3"><polygon class="cls-46" points="258.54 320.86 258.07 320.48 256.31 330.79 256.78 331.18 258.54 320.86"/><polygon class="cls-47" points="265.94 317.4 265.64 317.17 258.07 320.48 258.54 320.86 265.94 317.4"/><polygon class="cls-46" points="258.54 320.86 256.78 331.18 263.6 327.25 265.94 317.4 258.54 320.86"/></g><g class="cls-3"><polygon class="cls-44" points="258.45 320.81 258.94 321.21 266.44 317.4 266.21 317.23 258.45 320.81"/><polygon class="cls-45" points="258.94 321.21 257.11 331.92 264.25 327.79 266.44 317.4 258.94 321.21"/><polygon class="cls-48" points="258.94 321.21 257.44 319.99 255.61 330.7 257.11 331.92 258.94 321.21"/></g><polygon class="cls-44" points="257.44 319.99 257.93 320.38 257.93 320.38 258.94 321.21 259.62 320.77 258.65 320.07 258.13 319.68 257.44 319.99"/><g class="cls-3"><polygon class="cls-49" points="259.24 321.2 259.73 321.6 259.73 321.6 260.41 321.24 266.33 318.14 266.55 318.02 266.88 317.75 266.85 317.73 266.55 317.56 259.89 320.87 259.24 321.2"/><polygon class="cls-50" points="257.9 332.31 265.04 328.18 266.71 318.31 266.88 317.75 266.85 317.73 259.73 321.6 259.73 321.6 257.9 332.31"/></g><g class="cls-3"><polygon class="cls-46" points="260.34 322.07 259.87 321.69 258.12 332.01 258.59 332.39 260.34 322.07"/><polygon class="cls-47" points="267.16 318.15 266.86 317.92 259.87 321.69 260.34 322.07 267.16 318.15"/><polygon class="cls-46" points="260.34 322.07 258.59 332.39 265.4 328.47 267.16 318.15 260.34 322.07"/></g><g class="cls-3"><polygon class="cls-49" points="260.25 322.02 260.75 322.42 267.57 318.1 267.3 317.94 266.69 318.29 260.25 322.02"/><polygon class="cls-50" points="260.75 322.42 258.92 333.13 266.06 329 267.57 318.09 260.75 322.42"/><polygon class="cls-51" points="260.75 322.42 259.24 321.2 257.41 331.91 258.92 333.13 260.75 322.42"/></g><polygon class="cls-49" points="259.24 321.2 259.73 321.6 259.73 321.6 260.75 322.42 261.42 321.98 260.41 321.24 259.89 320.87 259.24 321.2"/><path class="cls-35" d="M303.32,403.59a6.84,6.84,0,0,1,1.28,0c.26.06-.46.38-.31.6s.7.55.65,1a3.77,3.77,0,0,1-.21.94,1.44,1.44,0,0,1-.6.73.76.76,0,0,1-.36.11l-.25-.05-1.39-.36a1.45,1.45,0,0,1-.29-.11.81.81,0,0,1-.31-.27,1.65,1.65,0,0,1-.25-1.41,1.54,1.54,0,0,1,.32-.7c.14-.15.4-.15.59-.2A7.36,7.36,0,0,1,303.32,403.59Z" transform="translate(-44.34 -76.51)"/><path class="cls-35" d="M302.26,403.74l1.26-.94a2.11,2.11,0,0,1,.52-.31,3.31,3.31,0,0,1,.45-.12c.14,0,.28-.08.42-.1a2.19,2.19,0,0,1,1.24.29,1.29,1.29,0,0,1,.45.27c.08.08.14.21.07.3a.24.24,0,0,1-.13.09,1,1,0,0,1-.45.11,3.91,3.91,0,0,1-.54-.14,1,1,0,0,0-.82.41c-.2.26-.32.56-.5.83a1.17,1.17,0,0,1-.74.57,2,2,0,0,1-1.09-.25,1,1,0,0,1-.42-.51C301.9,404,302.07,403.87,302.26,403.74Z" transform="translate(-44.34 -76.51)"/><path class="cls-27" d="M302.2,406.3a2.54,2.54,0,0,1-1.93.29c-1.89-.26-9.59-.87-8.45-4.13a2,2,0,0,1,1.3-1.27c.69-.11,6.36,1.39,8.76,2.61a1.74,1.74,0,0,1,.8.66A1.9,1.9,0,0,1,302.2,406.3Z" transform="translate(-44.34 -76.51)"/><path class="cls-35" d="M304.14,405.39c-.27-.16-.07-1,0-1.16.28-.33.22.21,1.21.2a2.68,2.68,0,0,0,.85-.11c.2-.08.42-.2.6-.09a.35.35,0,0,1,.09.43c.27-.12.32.37.12.61-.37.45.3.52-.49,1.13l.15.1c-.09.85-2.18.58-3,.43C302.17,406.65,303.47,405.49,304.14,405.39Z" transform="translate(-44.34 -76.51)"/><path class="cls-27" d="M291.44,401.84c-.06-2,.14-4.48.29-7.63a8,8,0,0,1,.52-2.5,4.85,4.85,0,0,1,1.49-2,1.39,1.39,0,0,1,1.08-.45,1.33,1.33,0,0,1,.8.69,9,9,0,0,1,.8,6.25c-.36,1.91-.36,3.34-.74,5.26a11.49,11.49,0,0,1-.37,1.62c-.7,1.64-2.18,2.22-3.1,1.27A4.17,4.17,0,0,1,291.44,401.84Z" transform="translate(-44.34 -76.51)"/><path class="cls-35" d="M310.48,404.9a.43.43,0,0,0,.44-.72c-.27-.17-1.13-.06-1.21.43S310.1,404.82,310.48,404.9Z" transform="translate(-44.34 -76.51)"/><path class="cls-35" d="M311.22,401.59c.38.15.28.82.11.87a.81.81,0,0,1-.31,0,1.32,1.32,0,0,0-.7.1.94.94,0,0,1-.28.1.26.26,0,0,1-.26-.1c-.24-.38.35-.77.53-.86A.9.9,0,0,1,311.22,401.59Z" transform="translate(-44.34 -76.51)"/><path class="cls-35" d="M311.39,403.23c-.2.31-.4-.14-1.09.15a1.9,1.9,0,0,1-.28.1.26.26,0,0,1-.26-.12c-.24-.38.36-.75.54-.84C311.14,402.08,311.76,402.66,311.39,403.23Z" transform="translate(-44.34 -76.51)"/><path class="cls-35" d="M311.24,404c-.26.19-.34.05-.91.12-.88.1-.74-.75.31-.83.07,0,.35,0,.44,0A.41.41,0,0,1,311.24,404Z" transform="translate(-44.34 -76.51)"/></g><g id="man"><path class="cls-43" d="M447.4,416.18a7.71,7.71,0,0,1,.05,1.27c0,.41-.32.18-.57.09a4.51,4.51,0,0,1-1.26-.83c-.35-.29-.77-.61-1.21-.49-.6.16-1,.93-1.24,1.42a1.24,1.24,0,0,0-.22.56,1.16,1.16,0,0,0,.63.93c.52.35,1.09.59,1.61.93.32.2.61.44.91.67s.57.43.83.67.44.47.66.7a2.13,2.13,0,0,0,1.83.47,1.38,1.38,0,0,0,.9-.75,3.27,3.27,0,0,0,0-2,11.42,11.42,0,0,1-.08-3.09Z" transform="translate(-44.34 -76.51)"/><path class="cls-1" d="M450.23,419.57a2.48,2.48,0,0,1-2.47.91c-1-.52-2.83-2.13-1.86-3.09.16-.15.26-.13.53-.08a5.85,5.85,0,0,1-.81-.6c-.35-.29-.77-.61-1.21-.49-.6.16-1,.93-1.24,1.42a1.24,1.24,0,0,0-.22.56,1.16,1.16,0,0,0,.63.93c.52.35,1.09.59,1.61.93.32.2.61.44.91.67s.57.43.83.67.44.47.66.7a2.13,2.13,0,0,0,1.83.47,1.38,1.38,0,0,0,.9-.75,3.27,3.27,0,0,0,0-2C450.26,419.75,450.25,419.66,450.23,419.57Z" transform="translate(-44.34 -76.51)"/><g id="people-3" data-name="people"><path class="cls-35" d="M448.11,369.21c0-3.53,1.91-5.94,3.32-5.78s2.23,2.6,1.42,8.11c-.2,1.34-.6,5-1.62,7.19-.67,1.42-1.81,1.58-2.21,1.18C447.7,378.57,448,376.14,448.11,369.21Z" transform="translate(-44.34 -76.51)"/><path class="cls-43" d="M447.45,417.49c-.07.87.3.37.59.63a1.27,1.27,0,0,0,1.88,0,2.31,2.31,0,0,0,.26-1.17,14.83,14.83,0,0,1,.84-3.24,10,10,0,0,0,.24-4.12,27.11,27.11,0,0,0-.93-4.06,4,4,0,0,1-.23-1c0-.23.09-.45.09-.67a14,14,0,0,0-.49-2.11,2.86,2.86,0,0,0-.35-1.36,1.84,1.84,0,0,0-2.34-.31,4,4,0,0,0-1.42,1.42,4,4,0,0,0-.29,2,17.93,17.93,0,0,0,.16,2.31c.24,1.84.75,3.63,1.15,5.44.15.72.29,1.44.41,2.16A22.72,22.72,0,0,1,447.45,417.49Z" transform="translate(-44.34 -76.51)"/><path class="cls-38" d="M451.17,371.16a14.82,14.82,0,0,0,.37-4.55c-.09-1.17.08-2.93-1.34-3.46a2.94,2.94,0,0,0-2.42.45c-.21.14-1,.62-1.22.72-1.16.61-2.27,1.29-3.38,2-.08.05-3.12,1.77-3.35,1.95a10.47,10.47,0,0,0-1,.84c-.26.23-.4.56-.64.79a3.29,3.29,0,0,0-.57.72,9.73,9.73,0,0,0-.84,1.9,5.55,5.55,0,0,0,.44,4.13c.17.31.38.57.53.89a7.69,7.69,0,0,1,.37,1.05,12.2,12.2,0,0,1,.37,2.16,16.1,16.1,0,0,1-.11,3.86,1,1,0,0,0,.06.65.83.83,0,0,0,.66.3c1,.09,1.55,1.95,2.53,1.61,1.69-.59,3.65-.24,5.18-1.17,1.1-.66,3,.54,2.6-1a3.75,3.75,0,0,1,0-1.7,2.77,2.77,0,0,0,.11-1.66c-.09-.24-.23-.46-.34-.7A3.62,3.62,0,0,1,449,379a15.72,15.72,0,0,1,.37-2,24,24,0,0,1,.67-2.34c.33-1,.72-1.95,1-2.94C451.08,371.52,451.13,371.34,451.17,371.16Z" transform="translate(-44.34 -76.51)"/><path class="cls-24" d="M439.58,403.88a6.62,6.62,0,0,1,0,1.12c0,.38.05.76.05,1.14a8,8,0,0,0,0,1.47,40.51,40.51,0,0,1,.19,4.68c.1,2.28.83,4.48,1.09,6.75a14.91,14.91,0,0,0,.48,3,1.9,1.9,0,0,0,.72,1c.31.19,1,.34,1.27.06a.85.85,0,0,0,.24-.48c.08-.35.11-.71.16-1.06.28-2.35,1-4.64,1.33-7a18.27,18.27,0,0,0,0-3.77,12.46,12.46,0,0,0-.75-3.82c-.16-.45-.41-.93-.87-1Z" transform="translate(-44.34 -76.51)"/><path class="cls-27" d="M450.61,383.53a9,9,0,0,1,.33.86,20.92,20.92,0,0,1,.62,3.52c.24,1.71.39,3.43.54,5.15.17,1.91.34,3.83.5,5.74.14,1.51,1.11,3.82-.1,5.12a4.15,4.15,0,0,1-2.27,1.07c-1.62.31-3.41.32-4.7,1.35-.7.55-1.25,1.39-2.12,1.55a7.11,7.11,0,0,1-1.22,0,1.66,1.66,0,0,0-.92.35,5.24,5.24,0,0,1-2.17.77c-3.62.33-3.29-3.49-3.18-6.27.2-5.38.31-5.12,2.08-15.36.14-.8,0-1.48.81-1.85a7,7,0,0,1,2.61-.3,11.49,11.49,0,0,0,4.34-.77,6.86,6.86,0,0,0,3.61-3.32C449.77,381.92,450.24,382.72,450.61,383.53Z" transform="translate(-44.34 -76.51)"/><path class="cls-35" d="M437.26,373.78c0-3.52,1.91-5.94,3.32-5.78s2.23,2.6,1.42,8.11c-.2,1.34-.6,5-1.63,7.19-.66,1.42-1.81,1.58-2.2,1.18s-1.06,1-1.21.19C436.7,383,437.2,378.33,437.26,373.78Z" transform="translate(-44.34 -76.51)"/></g><path class="cls-35" d="M447.91,361.5l.06,1.41a3.47,3.47,0,0,0,.19,1.15c.17.42.4.63.36,1.11a2.19,2.19,0,0,1-.63,1.32,4.59,4.59,0,0,1-2.46,1.38,2.89,2.89,0,0,1-1.92-.24c-.82-.45-.59-1.06-.53-1.87a3.39,3.39,0,0,0-.72-2.72Z" transform="translate(-44.34 -76.51)"/><path class="cls-35" d="M440.63,354.89a2.58,2.58,0,0,0-.62,1.26c-.15.91.16,1.83.06,2.74a7.53,7.53,0,0,0,.57,2.56,1.89,1.89,0,0,0,.76,1.28c.27.14.6.15.86.31a3.57,3.57,0,0,1,.43.36c.44.34,1.24.17,1.75.1a4,4,0,0,0,3.54-2.45C452.35,354.31,443.58,351.4,440.63,354.89Z" transform="translate(-44.34 -76.51)"/><path class="cls-2" d="M448.86,354a2.46,2.46,0,0,0-.3-.55,4.91,4.91,0,0,0-2.22-1.6,6.1,6.1,0,0,0-3.36-.19,2.64,2.64,0,0,0-.66.2,4,4,0,0,0-1.06.78,5.23,5.23,0,0,0-1.1,1.05,2.84,2.84,0,0,0-.43,1.41,1.32,1.32,0,0,0,.24.59,3.58,3.58,0,0,0,.29.39,6.18,6.18,0,0,1,.66,1.51,1.14,1.14,0,0,0,.36.57c.37.25.88,0,1.3.15a1,1,0,0,1,.56.51,3,3,0,0,1,.26.73,7,7,0,0,1,.15,1.11,2,2,0,0,0,.42,1.12,2.88,2.88,0,0,0,2.62.49,3.55,3.55,0,0,0,.86-.25c1.42-.66,2.26-2.59,2.42-4a8.21,8.21,0,0,0,.05-1,4.62,4.62,0,0,0-.11-1.05,5,5,0,0,0-.69-1.41A3.71,3.71,0,0,1,448.86,354Z" transform="translate(-44.34 -76.51)"/><path class="cls-35" d="M443.08,358c.82,0,1,1,.33,1.79a4.38,4.38,0,0,1-.71.56c-1.56,1.14-1.83-.24-1.33-.63C442.52,358.8,442,358,443.08,358Z" transform="translate(-44.34 -76.51)"/><path class="cls-24" d="M442.72,359.52c.1-.08,1.07-.56.46-1-.16-.12-.37,0-.41.2s0,.2,0,.3a.55.55,0,0,1-.08.15c-.09.13-.38.24-.34.44S442.66,359.56,442.72,359.52Z" transform="translate(-44.34 -76.51)"/><path class="cls-24" d="M443.93,423.71a8.33,8.33,0,0,1-.08-2.59l-2.8-1.06a8.57,8.57,0,0,1,.05,1.24c0,.85-.93.71-1.57.59s-1.06-.25-1.58-.37v2.37h-2c.89,1.05,2.67,1,3.87,1.46s2.09,1.39,3.3,1.09a1.39,1.39,0,0,0,.9-.74A3.31,3.31,0,0,0,443.93,423.71Z" transform="translate(-44.34 -76.51)"/><path class="cls-1" d="M443.15,424.32c-1.78.76-5.34-.25-5.12-2.79-.28-.06-.55-.13-.83-.18l-.42-.06a.9.9,0,0,0-.36,0,1.36,1.36,0,0,0-.89.84,1.85,1.85,0,0,0,0,1.23.36.36,0,0,0,0,.09,2.1,2.1,0,0,0,.36.52,2.61,2.61,0,0,0,.44.37,3.8,3.8,0,0,0,1.08.45,20.58,20.58,0,0,1,2.31.59c1.05.42,2.09,1.39,3.3,1.09a1.39,1.39,0,0,0,.9-.74,3.31,3.31,0,0,0-.05-2q-.06-.3-.09-.6C443.62,423.67,443.52,424.32,443.15,424.32Z" transform="translate(-44.34 -76.51)"/><path class="cls-35" d="M433.72,391.84a2.24,2.24,0,0,0,0,1.12.77.77,0,0,0,.87.54,1.22,1.22,0,0,0,.45-.33A22.16,22.16,0,0,0,440.66,382a.73.73,0,0,0-.07-.6.68.68,0,0,0-.42-.19c-.86-.16-1.68-.82-2.37-.16s-1.21,2.85-1.51,3.6A39.58,39.58,0,0,0,433.72,391.84Z" transform="translate(-44.34 -76.51)"/><path class="cls-35" d="M433,392.47a4.86,4.86,0,0,0-.64.48A4.2,4.2,0,0,0,431,395a.52.52,0,0,0,.09.5l.4-.18.07,0s0,0,.06.06c.14.29-.12.73-.21,1s-.25.77-.37,1.16a.76.76,0,0,0-.06.27.26.26,0,0,0,.13.23.94.94,0,0,1,.15.06.3.3,0,0,1,.12.27,1.92,1.92,0,0,0,0,.68c.17.42.41-.09.61-.15s.26.34.49.37.26-.18.31-.33a2.12,2.12,0,0,1,.51-1.09.09.09,0,0,1,0,0c.06,0,.08.08.1.13s.29.13.44.1a.37.37,0,0,0,.34-.29,29.25,29.25,0,0,0,.93-3.57,7.73,7.73,0,0,1,.23-.95,3.07,3.07,0,0,1,.44-.91c.2-.28.41-.55.58-.84a1.68,1.68,0,0,0,.07-1.13.55.55,0,0,0-.4-.49,2.46,2.46,0,0,0-1-.18,1.3,1.3,0,0,0-.9.44,2.23,2.23,0,0,0-.32.72,5,5,0,0,1-.41,1.08A1.78,1.78,0,0,1,433,392.47Z" transform="translate(-44.34 -76.51)"/><path class="cls-26" d="M445.39,363.62c-.15.63-.38,1.23-.58,1.83a20.12,20.12,0,0,0-1,5.38,4.26,4.26,0,0,0,.15,1.63,3.16,3.16,0,0,0,2.52,1.93,6.55,6.55,0,0,0,3.26-.48,3.31,3.31,0,0,0,1.62-1.06,3.61,3.61,0,0,0,.47-1.78,46.17,46.17,0,0,0-.5-10.95,5.66,5.66,0,0,0-.22-1,7.25,7.25,0,0,0-.75-1.5,3.2,3.2,0,0,0-1.1-1.26,2.82,2.82,0,0,0-2.1,0,3.67,3.67,0,0,0-1.57.8c-.6.58-.35,1-.21,1.75A11,11,0,0,1,445.39,363.62Z" transform="translate(-44.34 -76.51)"/><path class="cls-52" d="M450.05,357.12a2.32,2.32,0,0,0-.78-.75,2.82,2.82,0,0,0-2.1,0,3.67,3.67,0,0,0-1.57.8c-.6.58-.35,1-.21,1.75h0C446.07,357.25,448.38,356.64,450.05,357.12Z" transform="translate(-44.34 -76.51)"/></g><g id="man_sitting" data-name="man sitting"><path class="cls-1" d="M263.83,323a76.91,76.91,0,0,1,7,4,11.6,11.6,0,0,1,1.86,1,3.53,3.53,0,0,1,1.18,1.92c.07.86-1.67,1.51-2.34,1.72a5.82,5.82,0,0,1-2.78.19,3.45,3.45,0,0,1-2.16-1.31,4.93,4.93,0,0,0-1.89-1.63c-.74-.27-1.66-.15-2.23-.7a2.23,2.23,0,0,1-.52-1.08c-.19-.74-.15-1.52-.33-2.25a5.54,5.54,0,0,1-.36-1.66,1.36,1.36,0,0,1,1-1,2,2,0,0,1,1.49.2Z" transform="translate(-44.34 -76.51)"/><path class="cls-40" d="M246.67,283.23c-1.09-2.52-2.11-5.84-3.53-10a11.54,11.54,0,0,1-.62-3.49,6.8,6.8,0,0,1,.92-3.29c.26-.49.61-1,1.16-1.13a1.8,1.8,0,0,1,1.38.48,12.49,12.49,0,0,1,4.24,7.64c.51,2.64.38,5.79.59,8.49,0,.51-.18,4.92-1.84,4.17A5.68,5.68,0,0,1,246.67,283.23Z" transform="translate(-44.34 -76.51)"/><path class="cls-40" d="M247.2,280.71c.58-.45,2.66-1.36,3-.8.25.38,1.63,3.16,2.8,4.77a28.73,28.73,0,0,0-4.2,3.64c-1.74-2.11-3.31-4.43-3.29-5.9C245.54,281.68,246.44,281.29,247.2,280.71Z" transform="translate(-44.34 -76.51)"/><path class="cls-1" d="M253.47,328.12a78.42,78.42,0,0,1,5.82,5.42,14.42,14.42,0,0,1,1.52,1.7,2.79,2.79,0,0,1,.75,1.82c-.13.85-1.94,1.08-2.62,1.14a5.86,5.86,0,0,1-2.72-.43,3.45,3.45,0,0,1-1.79-1.74,5,5,0,0,0-1.45-2c-.66-.43-1.57-.52-2-1.17a2.24,2.24,0,0,1-.26-1.15c0-.75.19-1.5.17-2.24a5.57,5.57,0,0,1,0-1.68,1.31,1.31,0,0,1,1.17-.76,2,2,0,0,1,1.38.52Z" transform="translate(-44.34 -76.51)"/><path class="cls-24" d="M232.22,287.7h0c.12,1,.2,1.9.24,2.86C232.42,289.61,232.34,288.65,232.22,287.7Z" transform="translate(-44.34 -76.51)"/><path class="cls-24" d="M232.47,290.57c0,.58,0,1.17,0,1.75l0,0C232.49,291.73,232.49,291.15,232.47,290.57Z" transform="translate(-44.34 -76.51)"/><path class="cls-26" d="M265.87,301.83c1.39.91,2.95,7-2.43,7.21-2.78.11-5.3-1.45-7.8-2.68-3.44-1.68-7.13-2.8-10.62-4.4a14.45,14.45,0,0,1-3-1.77,8.8,8.8,0,0,1-3.19-7.59,2.9,2.9,0,0,1,.31-1.16c.93-1.67,6.82-1.11,8.19-.43C252.36,293.52,264.43,300.89,265.87,301.83Z" transform="translate(-44.34 -76.51)"/><path class="cls-26" d="M267.51,306.14c-.08,1.49-.22,2.95-.44,4.43-.24,1.64-.5,3.28-.58,4.94s0,3.56,0,5.34a13.39,13.39,0,0,1-.28,3.34,2.08,2.08,0,0,1-.77,1.35,4.67,4.67,0,0,1-1.84.62,3.05,3.05,0,0,1-1.31-.07c-1.41-.46-1.46-2.44-1.75-3.65s-.46-2.26-.61-3.41c-.29-2.24-.39-4.5-.52-6.76-.08-1.49-.15-3-.1-4.5a9.33,9.33,0,0,1,.73-4,5,5,0,0,1,3.34-2.35A3.22,3.22,0,0,1,267,303a5,5,0,0,1,.54,2.63C267.52,305.83,267.52,306,267.51,306.14Z" transform="translate(-44.34 -76.51)"/><path class="cls-2" d="M256.66,307c1.26,1,2.36,7.43-2.76,7.29-2.64-.08-4.93-1.87-7.22-3.31-7.34-4.63-16.49-6.24-15.09-15.42.13-.84.35-4.41,1-4.82.47-.29,3.11.64,3.71.74,5.71,1,6.45,1,7.39,1.62.16,4.28.85,5,3.19,6.44C248,300.23,255.71,306.25,256.66,307Z" transform="translate(-44.34 -76.51)"/><path class="cls-2" d="M257.77,311.3c-.18,1.48-.42,2.92-.73,4.39a47.15,47.15,0,0,0-.92,4.88c-.21,1.77-.21,3.56-.36,5.33a13.66,13.66,0,0,1-.5,3.31,2.12,2.12,0,0,1-.86,1.3,4.91,4.91,0,0,1-1.88.5,2.87,2.87,0,0,1-1.3-.17c-1.38-.55-1.3-2.52-1.5-3.76a32.7,32.7,0,0,1-.38-3.43c-.14-2.26-.09-4.52-.07-6.78,0-1.5,0-3,.21-4.5a9.24,9.24,0,0,1,1-3.95,5,5,0,0,1,3.48-2.11,3.23,3.23,0,0,1,3.5,1.85,5.08,5.08,0,0,1,.36,2.67C257.8,311,257.78,311.14,257.77,311.3Z" transform="translate(-44.34 -76.51)"/><path class="cls-27" d="M232.22,269.23a36.72,36.72,0,0,1,8.38-3.69c4.63-1.45,5.28.24,6.61,3.93,1.24,3.44.88,9.11.33,12.77a47.82,47.82,0,0,0-.54,5.85,12.82,12.82,0,0,0,.21,2.14,1.87,1.87,0,0,1,0,.94c-.15.37-.7.75-1,1a9.1,9.1,0,0,1-5.11,2,21.35,21.35,0,0,1-7.85-1.07,2.75,2.75,0,0,1-1.39-.81,2.82,2.82,0,0,1-.45-1.34,35.49,35.49,0,0,1-.36-4.6c0-.69,0-1.39-.06-2.08a21.83,21.83,0,0,0-.5-3q-.45-2-.93-4.08-.23-1-.48-2a5.2,5.2,0,0,1-.3-1.45C228.9,271.67,230.68,270.27,232.22,269.23Z" transform="translate(-44.34 -76.51)"/><path class="cls-40" d="M238.27,279.49c1,4.83,2,9.81,6.68,12.22a8.26,8.26,0,0,1,1,.64,9.24,9.24,0,0,1-4.88,1.81,21.35,21.35,0,0,1-7.85-1.07,2.75,2.75,0,0,1-1.39-.81,2.82,2.82,0,0,1-.45-1.34,35.49,35.49,0,0,1-.36-4.6c0-.69,0-1.39-.06-2.08a21.83,21.83,0,0,0-.5-3q-.45-2-.93-4.08-.23-1-.48-2a5.2,5.2,0,0,1-.3-1.45,4.29,4.29,0,0,1,.14-.81c.79.33,1.59.62,2.37.92C234.15,274.94,237.7,276.5,238.27,279.49Z" transform="translate(-44.34 -76.51)"/><path class="cls-27" d="M229.65,289.35c-.81-2.62-1.48-6-2.45-10.29a11.09,11.09,0,0,1-.25-3.54,6.72,6.72,0,0,1,1.26-3.17,1.91,1.91,0,0,1,1.27-1,1.78,1.78,0,0,1,1.32.62,12.48,12.48,0,0,1,3.42,8c.22,2.69.83,5.33,1,8a8.25,8.25,0,0,1,.05,1.57c-.32,2.45-2.09,3.79-3.66,2.86A5.73,5.73,0,0,1,229.65,289.35Z" transform="translate(-44.34 -76.51)"/><path class="cls-2" d="M240.72,290.27c.49.41,1.07.91,1.55,1.33.7-1.1.72-1.19,1.37-2.29a75.51,75.51,0,0,0-1.82-18.91l-1.52,1.07A71.16,71.16,0,0,1,240.72,290.27Z" transform="translate(-44.34 -76.51)"/><path class="cls-42" d="M242.46,270.25a.28.28,0,0,1,0,.09,2,2,0,0,1-.18.59,5.89,5.89,0,0,1-.51,1.08,1.09,1.09,0,0,1-.44.46.83.83,0,0,1-.7-.1c-.24-.13-.69-.34-.63-.64a5.32,5.32,0,0,1,.22-.78,2.87,2.87,0,0,1,.9-1.49c.54-.35.92.18,1.21.58A.51.51,0,0,1,242.46,270.25Z" transform="translate(-44.34 -76.51)"/><path class="cls-43" d="M235.64,267.61c.05-1.32.93-1.66.67-4.16-.09-.84-1-2.05,1.37-2a6.28,6.28,0,0,1,1.91.37c2.22.73,2.53,1.27,2.67,5.87-1.89-.18-3.56-2.27-5.49-1a3.54,3.54,0,0,0-1.1,1.43A3.75,3.75,0,0,1,235.64,267.61Z" transform="translate(-44.34 -76.51)"/><path class="cls-53" d="M236.77,266.66c1.93-1.24,3.6.85,5.49,1a1.21,1.21,0,0,1,0,.19c.09,3.27-6.12,3.37-6.6.21A3.54,3.54,0,0,1,236.77,266.66Z" transform="translate(-44.34 -76.51)"/><path class="cls-4" d="M241.15,269.85c.12.39.64.53,1,.76.14.1.4.29.6.25s.32-.31.38-.47a10,10,0,0,0,.77-3.73,1.47,1.47,0,0,0-.37-1.14,1.15,1.15,0,0,0-1.13-.16c-.37.17-.46.9-.33,1.24A2.91,2.91,0,0,1,241.15,269.85Z" transform="translate(-44.34 -76.51)"/><path class="cls-4" d="M241.2,269.87a8.31,8.31,0,0,1-1.32,1.58c-.18.16-.32.36-.56.28a9.2,9.2,0,0,1-4.14-3.76,1.72,1.72,0,0,1,.44-1.44,7.26,7.26,0,0,1,.5-.63,7.7,7.7,0,0,0,.71,1.63A6.21,6.21,0,0,0,241.2,269.87Z" transform="translate(-44.34 -76.51)"/><path class="cls-35" d="M244.62,256.15a4.63,4.63,0,0,1,.74,2.55,3.66,3.66,0,0,1-.2,1.18,3.26,3.26,0,0,0-.35,1.08,4.54,4.54,0,0,0,.47,1.4,1.74,1.74,0,0,1,.05,1.21,3.13,3.13,0,0,1-.37.6c-.6.95,0,2.35-1.08,3a1.83,1.83,0,0,1-.89.22,12.2,12.2,0,0,1-2.82-.77,7.06,7.06,0,0,1-2-1.8,8.62,8.62,0,0,1-1.41-1.68c-.08-.18.12-.21-.06-.3s-.24-.75-.37-.76a1.51,1.51,0,0,1-.46-.26c-.23-.16-.35.41-.42.14a11.37,11.37,0,0,1-.7-3.55,4.17,4.17,0,0,1,2.88-4.57,6,6,0,0,1,4-.07A5.71,5.71,0,0,1,244.62,256.15Z" transform="translate(-44.34 -76.51)"/><path class="cls-34" d="M234.73,258.44a4.17,4.17,0,0,1,2.88-4.57,6,6,0,0,1,2.4-.38c1.22,2.44-.54,5.55.78,8.08.45.59,1.34,1,1.34,1.77.29,1.34-1,2.52-.3,3.85a13.56,13.56,0,0,1-1.66-.54,7.06,7.06,0,0,1-2-1.8,8.62,8.62,0,0,1-1.41-1.68c-.08-.18.12-.21-.06-.3s-.24-.75-.37-.76a1.51,1.51,0,0,1-.46-.26c-.23-.16-.35.41-.42.14A11.37,11.37,0,0,1,234.73,258.44Z" transform="translate(-44.34 -76.51)"/><path class="cls-2" d="M234,258.26c-.08-3.25,2.17-3.86,2.17-3.86a3.92,3.92,0,0,1,3.62-1.56,8.2,8.2,0,0,1,3.89,1.25l.14.08a4.9,4.9,0,0,1,1.46,1.37c1,1.56-.35,2.81-2,2.55a13.66,13.66,0,0,1-2.21-.74,2.14,2.14,0,0,0-1.57-.09,1.64,1.64,0,0,0-.86,1.29,20.55,20.55,0,0,0,.26,3.5.91.91,0,0,1-.09.51c-.23.41-.67.18-.92-.08s-.28-.36-.43-.54a1.11,1.11,0,0,0-.57-.37.62.62,0,0,0-.7.56,2,2,0,0,0,.08.91c0,.07.17.61-.05.61S234,261.65,234,258.26Z" transform="translate(-44.34 -76.51)"/><path class="cls-26" d="M240.39,257.17a1.61,1.61,0,0,0-.92.09,1.64,1.64,0,0,0-.86,1.29,20.55,20.55,0,0,0,.26,3.5.91.91,0,0,1-.09.51c-.23.41-.67.18-.92-.08s-.28-.36-.43-.54a1.11,1.11,0,0,0-.57-.37.62.62,0,0,0-.7.56,2,2,0,0,0,.08.91c0,.07.17.61-.05.61s-2.15-2-2.24-5.39,2.17-3.86,2.17-3.86a6.4,6.4,0,0,1,2.14.95A12.68,12.68,0,0,1,240.39,257.17Z" transform="translate(-44.34 -76.51)"/><path class="cls-35" d="M236.08,263c.45.62,1.17.88,1.6.56s.43-1.07,0-1.7-1.17-.88-1.61-.56S235.63,262.37,236.08,263Z" transform="translate(-44.34 -76.51)"/><path class="cls-24" d="M236.49,262a.44.44,0,0,0,0,.56c.17.18.5.2.6.43s0,.2.13.24.2-.05.21-.15a.39.39,0,0,0-.12-.28.69.69,0,0,1-.18-.24.91.91,0,0,1,0-.33A.35.35,0,0,0,236.49,262Z" transform="translate(-44.34 -76.51)"/><g class="cls-3"><polygon class="cls-1" points="223.65 222.18 223.64 223.74 205.58 234.24 205.58 232.68 223.65 222.18"/><polygon class="cls-26" points="205.58 232.68 205.58 234.24 194.37 227.77 194.38 226.21 205.58 232.68"/><polygon class="cls-2" points="223.65 222.18 205.58 232.68 194.38 226.21 212.44 215.71 223.65 222.18"/><polygon class="cls-54" points="209.54 221.18 204.64 224.01 201.96 222.47 206.87 219.63 209.54 221.18"/><polygon class="cls-54" points="199.29 227.94 215.79 218.36 221.68 221.77 205.19 231.35 199.29 227.94"/></g><path class="cls-34" d="M254.93,294.63a8.42,8.42,0,0,0,.91,1.3c.23.23.07-.74.4-.72.5,0,1,.33,1.42,0a4.81,4.81,0,0,0,.82-.87,1.76,1.76,0,0,0,.35-1.12.88.88,0,0,0-.14-.44,1.52,1.52,0,0,0-.22-.22l-1.33-1.18a1.72,1.72,0,0,0-.31-.24,1.24,1.24,0,0,0-.5-.13,2.1,2.1,0,0,0-1.62.72,2,2,0,0,0-.5.8c-.05.25.12.52.19.75A12,12,0,0,0,254.93,294.63Z" transform="translate(-44.34 -76.51)"/><path class="cls-34" d="M254.35,293.43c0,.65-.06,1.3-.1,1.95a2.7,2.7,0,0,0,0,.75,3.5,3.5,0,0,0,.2.54c.06.17.1.34.17.51a2.82,2.82,0,0,0,1.16,1.08,1.76,1.76,0,0,0,.59.27c.13,0,.31,0,.36-.14a.41.41,0,0,0,0-.19,1.39,1.39,0,0,0-.19-.54c-.14-.18-.37-.29-.52-.46a1.14,1.14,0,0,1-.14-1.13c.12-.38.35-.72.5-1.08a1.43,1.43,0,0,0,.08-1.16,1.2,1.2,0,0,0-.25-.34,2.14,2.14,0,0,0-.76-.61,1.16,1.16,0,0,0-.82-.08C254.37,292.89,254.36,293.15,254.35,293.43Z" transform="translate(-44.34 -76.51)"/><path class="cls-34" d="M257.35,294.24c-.36-.17-1.1.62-1.16.83-.16.52.36.09,1,1.11a3.18,3.18,0,0,1,.47,1c.06.25.09.56.32.67a.44.44,0,0,0,.51-.2c.06.36.6.07.71-.29.21-.7.74-.06.82-1.29l.2.09c.83-.68-.89-2.65-1.64-3.42C257.29,291.34,257,293.47,257.35,294.24Z" transform="translate(-44.34 -76.51)"/><path class="cls-40" d="M248.82,288.19c1.26-1.28,2-3.64,3.5-4.69a62,62,0,0,1,4.52,7.24c.67,1.49-2.21,2.88-2.9,2.12S250.35,290.06,248.82,288.19Z" transform="translate(-44.34 -76.51)"/><path class="cls-35" d="M246.26,300.2a8.2,8.2,0,0,1,1.42,1.06c.25.26-.82.05-.82.41,0,.56.33,1.17-.05,1.58a4.93,4.93,0,0,1-1,.89,2,2,0,0,1-1.26.34,1,1,0,0,1-.48-.17,1.18,1.18,0,0,1-.25-.25l-1.26-1.53a2.8,2.8,0,0,1-.25-.35,1.24,1.24,0,0,1-.12-.57,2.34,2.34,0,0,1,.85-1.78,2.22,2.22,0,0,1,.92-.52,1.67,1.67,0,0,1,.83.25A12.66,12.66,0,0,1,246.26,300.2Z" transform="translate(-44.34 -76.51)"/><path class="cls-35" d="M245,299.5l2.17,0a2.89,2.89,0,0,1,.83.07,6.25,6.25,0,0,1,.6.24c.18.07.37.13.55.21a3.13,3.13,0,0,1,1.16,1.33,1.88,1.88,0,0,1,.28.67c0,.16,0,.35-.16.4a.41.41,0,0,1-.22,0,1.46,1.46,0,0,1-.59-.23,7.11,7.11,0,0,1-.49-.6,1.34,1.34,0,0,0-1.26-.2,13.14,13.14,0,0,0-1.22.52,1.61,1.61,0,0,1-1.29,0,2.12,2.12,0,0,1-.38-.29,2.65,2.65,0,0,1-.65-.87,1.35,1.35,0,0,1,0-.91C244.35,299.51,244.64,299.51,245,299.5Z" transform="translate(-44.34 -76.51)"/><path class="cls-27" d="M242.69,301.62a3.42,3.42,0,0,1-2.53-.93c-1.68-1.24-9.91-8.07-10.47-11.25-.14-.8.77-1.23,1.48-1.87.54-.48,3.35.09,3.86.68.79.93,6.84,7.07,8.93,10.14a2.47,2.47,0,0,1,.53,1.34C244.48,300.5,243.39,301.48,242.69,301.62Z" transform="translate(-44.34 -76.51)"/><path class="cls-35" d="M245.74,302.88c-.18-.41.74-1.21,1-1.27.58-.15.08.41,1.2,1.19a3.28,3.28,0,0,0,1,.56c.28.08.63.12.74.39a.48.48,0,0,1-.24.56c.4.07.05.67-.35.78-.79.2-.1.82-1.47.86l.08.23c-.78.89-2.91-1.1-3.74-2C242.51,302.7,244.9,302.44,245.74,302.88Z" transform="translate(-44.34 -76.51)"/><g class="cls-3"><path class="cls-2" d="M270.58,287.89l1.35.79a.35.35,0,0,0-.36,0l-1.35-.79A.37.37,0,0,1,270.58,287.89Z" transform="translate(-44.34 -76.51)"/><g class="cls-55"><g class="cls-3"><path class="cls-2" d="M271.57,288.72l-1.35-.79a.58.58,0,0,1,.15-.06l1.36.78a.37.37,0,0,0-.16.07Z" transform="translate(-44.34 -76.51)"/><path class="cls-2" d="M271.73,288.65l-1.36-.78a.26.26,0,0,1,.2,0l1.36.79a.34.34,0,0,0-.2,0Z" transform="translate(-44.34 -76.51)"/><polygon class="cls-2" points="227.59 212.16 226.23 211.38 226.24 211.38 227.59 212.17 227.59 212.17 227.59 212.16"/></g></g><polygon class="cls-2" points="210.19 222.11 208.84 221.32 225.88 211.42 227.23 212.21 210.19 222.11"/><path class="cls-2" d="M254,299.51l-1.35-.79a1.15,1.15,0,0,1,.51-.89l1.35.79A1.13,1.13,0,0,0,254,299.51Z" transform="translate(-44.34 -76.51)"/><g class="cls-56"><path class="cls-2" d="M254.28,298.84l-1.35-.79a1,1,0,0,1,.25-.22l1.35.79a1,1,0,0,0-.25.22Z" transform="translate(-44.34 -76.51)"/><path class="cls-2" d="M254.11,299.12l-1.35-.79a1.17,1.17,0,0,1,.17-.28l1.35.79a1,1,0,0,0-.17.28Z" transform="translate(-44.34 -76.51)"/></g><path class="cls-1" d="M271.57,288.72c.28-.17.51,0,.51.29L268,298.69l-18.07,10.5,4-9.7a1.43,1.43,0,0,1,.58-.87Z" transform="translate(-44.34 -76.51)"/><polygon class="cls-26" points="205.58 232.68 204.23 231.89 208.42 221.82 209.77 222.61 205.58 232.68"/></g></g><polygon class="cls-26" points="248.23 217.42 248.38 287.8 328.75 241.4 328.6 171.02 248.23 217.42"/><g class="cls-3"><polygon class="cls-57" points="377.04 247.5 379.61 246 379.46 281.89 376.89 283.38 377.04 247.5"/><polygon class="cls-2" points="316.54 212.53 319.11 211.04 379.61 246 377.04 247.5 316.54 212.53"/><polygon class="cls-26" points="377.04 247.5 376.89 283.38 316.39 248.42 316.54 212.53 377.04 247.5"/></g><g class="cls-3"><polygon class="cls-58" points="281.99 222.79 279.94 221.6 324.7 195.75 326.75 196.95 281.99 222.79"/><polygon class="cls-40" points="254.1 287.05 252.04 285.86 251.86 231.08 253.91 232.27 254.1 287.05"/><polygon class="cls-59" points="253.91 232.27 251.86 231.08 276.99 216.57 279.04 217.76 253.91 232.27"/><polygon class="cls-27" points="279.04 217.76 281.99 222.79 326.75 196.95 326.92 245 254.1 287.05 253.91 232.27 279.04 217.76"/></g><g class="cls-3"><polygon class="cls-60" points="260.96 288.02 255.49 284.84 255.33 241.8 260.81 244.98 260.96 288.02"/><polygon class="cls-61" points="260.81 244.98 255.33 241.8 324.95 201.62 330.42 204.8 260.81 244.98"/><polygon class="cls-62" points="330.42 204.8 330.58 247.83 260.96 288.02 260.81 244.98 330.42 204.8"/></g><polygon class="cls-63" points="254.08 280 254.08 282.1 254.04 282.1 254.04 282.96 252.04 282.96 252.04 284.25 260.87 289.34 260.88 284.07 254.08 280"/><g class="cls-3"><polygon class="cls-40" points="260.87 290.95 258.82 289.76 258.66 245.86 260.71 247.05 260.87 290.95"/><polygon class="cls-59" points="260.71 247.05 258.66 245.86 331.49 203.81 333.54 205.01 260.71 247.05"/><polygon class="cls-27" points="333.54 205.01 333.7 248.9 260.87 290.95 260.71 247.05 333.54 205.01"/></g><polygon class="cls-64" points="260.87 290.95 252.04 285.86 252.04 280.39 260.88 285.68 260.87 290.95"/><g class="cls-3"><polygon class="cls-58" points="293.57 229.44 291.52 228.25 336.29 202.41 338.34 203.6 293.57 229.44"/><polygon class="cls-40" points="265.68 293.7 263.63 292.51 263.44 237.73 265.49 238.92 265.68 293.7"/><polygon class="cls-59" points="265.49 238.92 263.44 237.73 288.57 223.22 290.62 224.41 265.49 238.92"/><polygon class="cls-27" points="290.62 224.41 293.57 229.44 338.34 203.6 338.51 251.65 265.68 293.7 265.49 238.92 290.62 224.41"/></g><g class="cls-3"><polygon class="cls-60" points="272.54 294.67 267.07 291.49 266.92 248.46 272.39 251.64 272.54 294.67"/><polygon class="cls-61" points="272.39 251.64 266.92 248.46 336.53 208.27 342 211.45 272.39 251.64"/><polygon class="cls-62" points="342 211.45 342.16 254.49 272.54 294.67 272.39 251.64 342 211.45"/></g><polygon class="cls-63" points="265.66 286.65 265.66 288.75 265.63 288.75 265.63 289.61 263.63 289.61 263.63 290.9 272.45 295.99 272.46 290.73 265.66 286.65"/><g class="cls-3"><polygon class="cls-40" points="272.45 297.6 270.4 296.41 270.24 252.51 272.3 253.71 272.45 297.6"/><polygon class="cls-59" points="272.3 253.71 270.24 252.51 343.07 210.47 345.12 211.66 272.3 253.71"/><polygon class="cls-27" points="345.12 211.66 345.28 255.55 272.45 297.6 272.3 253.71 345.12 211.66"/></g><polygon class="cls-64" points="272.45 297.6 263.63 292.51 263.63 287.04 272.46 292.33 272.45 297.6"/><g class="cls-3"><polygon class="cls-59" points="306.42 170.59 304.37 169.4 349.13 143.56 351.18 144.75 306.42 170.59"/><polygon class="cls-40" points="278.52 247.46 276.47 246.26 276.28 178.88 278.34 180.07 278.52 247.46"/><polygon class="cls-59" points="278.34 180.07 276.28 178.88 301.42 164.37 303.47 165.56 278.34 180.07"/><polygon class="cls-27" points="303.47 165.56 306.42 170.59 351.18 144.75 351.35 205.41 278.52 247.46 278.34 180.07 303.47 165.56"/></g><g class="cls-3"><polygon class="cls-60" points="285.39 248.42 279.92 245.24 279.76 189.61 285.23 192.79 285.39 248.42"/><polygon class="cls-61" points="285.23 192.79 279.76 189.61 349.38 149.42 354.85 152.6 285.23 192.79"/><polygon class="cls-62" points="354.85 152.6 355 208.24 285.39 248.42 285.23 192.79 354.85 152.6"/></g><polygon class="cls-27" points="278.51 240.41 278.51 242.5 278.47 242.5 278.47 243.36 276.47 243.36 276.47 244.66 285.3 249.75 285.31 244.48 278.51 240.41"/><g class="cls-3"><polygon class="cls-40" points="285.3 251.36 283.24 250.16 283.09 193.66 285.14 194.86 285.3 251.36"/><polygon class="cls-59" points="285.14 194.86 283.09 193.66 355.91 151.62 357.97 152.81 285.14 194.86"/><polygon class="cls-27" points="357.97 152.81 358.12 209.31 285.3 251.36 285.14 194.86 357.97 152.81"/></g><polygon class="cls-40" points="285.3 251.36 276.47 246.26 276.47 240.79 285.31 246.09 285.3 251.36"/><g class="cls-3"><polygon class="cls-59" points="318.81 244.35 316.75 243.16 361.51 217.31 363.57 218.51 318.81 244.35"/><polygon class="cls-40" points="290.91 308.61 288.86 307.41 288.67 252.64 290.72 253.83 290.91 308.61"/><polygon class="cls-59" points="290.72 253.83 288.67 252.64 313.8 238.13 315.86 239.32 290.72 253.83"/><polygon class="cls-27" points="315.86 239.32 318.81 244.35 363.57 218.51 363.74 266.56 290.91 308.61 290.72 253.83 315.86 239.32"/></g><g class="cls-3"><polygon class="cls-60" points="297.77 309.57 292.3 306.39 292.15 263.36 297.62 266.54 297.77 309.57"/><polygon class="cls-61" points="297.62 266.54 292.15 263.36 361.76 223.18 367.24 226.36 297.62 266.54"/><polygon class="cls-62" points="367.24 226.36 367.39 269.39 297.77 309.57 297.62 266.54 367.24 226.36"/></g><polygon class="cls-63" points="290.89 301.56 290.89 303.65 290.86 303.65 290.86 304.51 288.86 304.51 288.86 305.81 297.68 310.9 297.7 305.63 290.89 301.56"/><g class="cls-3"><polygon class="cls-40" points="297.68 312.51 295.63 311.31 295.47 267.42 297.53 268.61 297.68 312.51"/><polygon class="cls-59" points="297.53 268.61 295.47 267.42 368.3 225.37 370.35 226.57 297.53 268.61"/><polygon class="cls-27" points="370.35 226.57 370.51 270.46 297.68 312.51 297.53 268.61 370.35 226.57"/></g><polygon class="cls-64" points="297.68 312.51 288.86 307.41 288.86 301.94 297.69 307.24 297.68 312.51"/><g class="cls-3"><polygon class="cls-57" points="308.88 286.85 311.44 285.36 311.3 321.25 308.73 322.74 308.88 286.85"/><polygon class="cls-2" points="248.38 251.89 250.95 250.4 311.44 285.36 308.88 286.85 248.38 251.89"/><polygon class="cls-26" points="308.88 286.85 308.73 322.74 248.23 287.78 248.38 251.89 308.88 286.85"/></g><g class="cls-3"><polygon class="cls-36" points="309.79 278.69 307.37 277.28 307.5 323.58 309.93 324.99 309.79 278.69"/><polygon class="cls-22" points="379.83 238.29 377.4 236.88 307.37 277.28 309.79 278.69 379.83 238.29"/><polygon class="cls-25" points="309.79 278.69 309.93 324.99 379.97 284.59 379.83 238.29 309.79 278.69"/></g><polygon class="cls-60" points="354.46 258.01 345.6 263.13 356.42 268.31 356.42 256.88 354.46 258.01"/><polygon class="cls-65" points="339.73 266.51 339.73 277.96 356.42 268.31 345.6 263.13 339.73 266.51"/><polygon class="cls-1" points="354.46 258.01 354.46 267.37 339.73 275.87 339.73 266.51 354.46 258.01"/><g class="cls-8"><polygon class="cls-66" points="154.22 124.29 157.4 122.45 157.4 118.78 154.22 120.62 154.22 124.29"/><polygon class="cls-66" points="193.02 121.63 196.2 119.8 196.2 116.13 193.02 117.96 193.02 121.63"/><polygon class="cls-67" points="109.33 153.41 112.5 151.57 112.5 147.91 109.33 149.74 109.33 153.41"/><polygon class="cls-67" points="167.41 91.41 170.59 89.57 170.59 85.9 167.41 87.74 167.41 91.41"/><polygon class="cls-22" points="110.92 236.75 114.09 234.92 114.09 231.25 110.91 233.08 110.92 236.75"/><polygon class="cls-68" points="318.96 96.47 322.14 94.63 322.14 90.96 318.96 92.8 318.96 96.47"/><polygon class="cls-22" points="83.51 286.77 86.69 284.94 86.69 281.27 83.51 283.11 83.51 286.77"/><polygon class="cls-69" points="89 236.34 92.18 234.51 92.18 230.84 89 232.68 89 236.34"/><polygon class="cls-69" points="221.61 71.82 224.79 69.99 224.79 66.32 221.61 68.15 221.61 71.82"/><polygon class="cls-22" points="124.71 200.18 127.89 198.35 127.89 194.68 124.71 196.51 124.71 200.18"/><polygon class="cls-22" points="152.64 161.84 155.81 160 155.81 156.33 152.64 158.17 152.64 161.84"/></g></g></g></g></g></svg>