<svg id="Layer_1" data-name="Layer 1" xmlns="http://www.w3.org/2000/svg" xmlns:xlink="http://www.w3.org/1999/xlink" viewBox="0 0 507.98 414.08"><defs><style>.cls-1{fill:none;}.cls-2{fill:#f7f4f2;}.cls-3{fill:url(#radial-gradient);}.cls-4{fill:url(#Áåçûìÿííûé_ãðàäèåíò_19);}.cls-5{fill:url(#Áåçûìÿííûé_ãðàäèåíò_19-2);}.cls-6{clip-path:url(#clip-path);}.cls-7{fill:#da7539;}.cls-31,.cls-8{fill:#fff;}.cls-9{fill:#232c38;}.cls-10{fill:#053054;}.cls-11{fill:url(#Áåçûìÿííûé_ãðàäèåíò_24);}.cls-12{fill:url(#Áåçûìÿííûé_ãðàäèåíò_24-2);}.cls-13{fill:url(#Áåçûìÿííûé_ãðàäèåíò_3);}.cls-14{fill:#24126a;}.cls-15{fill:#453c9e;}.cls-16{fill:url(#Áåçûìÿííûé_ãðàäèåíò_2);}.cls-17{fill:url(#Áåçûìÿííûé_ãðàäèåíò_3-2);}.cls-18{fill:#d8cbc5;}.cls-19{opacity:0.3;}.cls-20{clip-path:url(#clip-path-2);}.cls-21{fill:url(#Áåçûìÿííûé_ãðàäèåíò_11);}.cls-22{fill:url(#linear-gradient);}.cls-23{fill:#f8d6c3;}.cls-24{fill:#f59960;}.cls-25{fill:#a66039;}.cls-26{fill:url(#linear-gradient-2);}.cls-27{fill:url(#linear-gradient-3);}.cls-28{fill:#f58c4d;}.cls-29{fill:url(#linear-gradient-4);}.cls-30{fill:#f6a574;}.cls-30,.cls-31{opacity:0.5;}.cls-32{fill:url(#Áåçûìÿííûé_ãðàäèåíò_11-2);}.cls-33{fill:url(#linear-gradient-5);}.cls-34{fill:url(#linear-gradient-6);}.cls-35{fill:url(#linear-gradient-7);}.cls-36{fill:url(#linear-gradient-8);}</style><radialGradient id="radial-gradient" cx="251.95" cy="45.39" r="347.52" gradientUnits="userSpaceOnUse"><stop offset="0" stop-color="#4F81BD"/><stop offset="1" stop-color="#3d3638"/></radialGradient><radialGradient id="Áåçûìÿííûé_ãðàäèåíò_19" cx="223.84" cy="379.82" r="91.88" gradientUnits="userSpaceOnUse"><stop offset="0" stop-color="#fcb454"/><stop offset="1" stop-color="#ff962e"/></radialGradient><radialGradient id="Áåçûìÿííûé_ãðàäèåíò_19-2" cx="73.22" cy="72.34" r="61.03" xlink:href="#Áåçûìÿííûé_ãðàäèåíò_19"/><clipPath id="clip-path" transform="translate(27.07 -51.42)"><path class="cls-1" d="M113.92,105.36,33.84,247A45.63,45.63,0,0,0,48,307.32L170.7,390.05a45.59,45.59,0,0,0,35.81,6.63l166.36-38.53a45.64,45.64,0,0,0,35.33-44.37L408.44,174a45.62,45.62,0,0,0-35.81-44.64L163.45,83.25A45.62,45.62,0,0,0,113.92,105.36Z"/></clipPath><linearGradient id="Áåçûìÿííûé_ãðàäèåíò_24" x1="225.29" y1="187.53" x2="463.23" y2="187.53" gradientUnits="userSpaceOnUse"><stop offset="0" stop-color="#5761d7"/><stop offset="0.18" stop-color="#5c66d9"/><stop offset="0.39" stop-color="#6a73df"/><stop offset="0.61" stop-color="#8289e8"/><stop offset="0.85" stop-color="#a3a7f5"/><stop offset="1" stop-color="#bcbeff"/></linearGradient><linearGradient id="Áåçûìÿííûé_ãðàäèåíò_24-2" x1="406.56" y1="368.37" x2="113.71" y2="258.18" xlink:href="#Áåçûìÿííûé_ãðàäèåíò_24"/><linearGradient id="Áåçûìÿííûé_ãðàäèåíò_3" x1="-2041.38" y1="229.7" x2="-2235.79" y2="100.46" gradientTransform="translate(2450.73)" gradientUnits="userSpaceOnUse"><stop offset="0" stop-color="#c0bff6"/><stop offset="0.29" stop-color="#c5c4f7"/><stop offset="0.64" stop-color="#d3d2f9"/><stop offset="1" stop-color="#e9e9fd"/></linearGradient><linearGradient id="Áåçûìÿííûé_ãðàäèåíò_2" x1="-2136.77" y1="403.55" x2="-2251.69" y2="187.36" gradientTransform="translate(2450.73)" gradientUnits="userSpaceOnUse"><stop offset="0" stop-color="#59bdef"/><stop offset="1" stop-color="#7bdaff"/></linearGradient><linearGradient id="Áåçûìÿííûé_ãðàäèåíò_3-2" x1="-2136.77" y1="403.55" x2="-2251.69" y2="187.36" xlink:href="#Áåçûìÿííûé_ãðàäèåíò_3"/><clipPath id="clip-path-2" transform="translate(27.07 -51.42)"><path class="cls-1" d="M425.64,318.1,227,203.43a2.66,2.66,0,0,1-1.28-2.57L252.08,60.64a1.17,1.17,0,0,1,1.9-.73L452.6,174.58a2.66,2.66,0,0,1,1.27,2.57L427.54,317.37A1.17,1.17,0,0,1,425.64,318.1Z"/></clipPath><linearGradient id="Áåçûìÿííûé_ãðàäèåíò_11" x1="-2111.97" y1="201.81" x2="-1997.28" y2="251.08" gradientTransform="translate(2477.81 -51.42)" gradientUnits="userSpaceOnUse"><stop offset="0" stop-color="#3a9bd5"/><stop offset="1" stop-color="#2573ba"/></linearGradient><linearGradient id="linear-gradient" x1="-2139.47" y1="178.57" x2="-2037.53" y2="248.84" gradientTransform="translate(2477.81 -51.42)" gradientUnits="userSpaceOnUse"><stop offset="0" stop-color="#f58c4d"/><stop offset="1" stop-color="#864921"/></linearGradient><linearGradient id="linear-gradient-2" x1="-2061.48" y1="196.13" x2="-1952.67" y2="228.93" xlink:href="#linear-gradient"/><linearGradient id="linear-gradient-3" x1="-2134.39" y1="132.8" x2="-2043.29" y2="195.61" gradientTransform="translate(2477.81 -51.42)" gradientUnits="userSpaceOnUse"><stop offset="0" stop-color="#f58c4d"/><stop offset="1" stop-color="#c06b39"/></linearGradient><linearGradient id="linear-gradient-4" x1="-2057.27" y1="148.13" x2="-1957.44" y2="178.23" xlink:href="#linear-gradient-3"/><linearGradient id="Áåçûìÿííûé_ãðàäèåíò_11-2" x1="-2246.82" y1="276.98" x2="-2132.12" y2="326.25" xlink:href="#Áåçûìÿííûé_ãðàäèåíò_11"/><linearGradient id="linear-gradient-5" x1="-2274.31" y1="253.74" x2="-2172.38" y2="324.01" xlink:href="#linear-gradient"/><linearGradient id="linear-gradient-6" x1="-2196.32" y1="271.3" x2="-2087.52" y2="304.1" xlink:href="#linear-gradient"/><linearGradient id="linear-gradient-7" x1="-2269.23" y1="207.97" x2="-2178.13" y2="270.78" xlink:href="#linear-gradient-3"/><linearGradient id="linear-gradient-8" x1="-2192.11" y1="223.3" x2="-2092.28" y2="253.4" xlink:href="#linear-gradient-3"/></defs><path class="cls-2" d="M296.47,429.89l-202.59-117c-2.32-1.33-2-3.67.65-5.21l119.53-69c2.68-1.54,6.73-1.71,9.05-.37l202.58,117c2.32,1.34,2,3.67-.65,5.22l-119.53,69C302.83,431.06,298.78,431.22,296.47,429.89Z" transform="translate(27.07 -51.42)"/><path class="cls-3" d="M113.92,105.36,33.84,247A45.63,45.63,0,0,0,48,307.32L170.7,390.05a45.59,45.59,0,0,0,35.81,6.63l166.36-38.53a45.64,45.64,0,0,0,35.33-44.37L408.44,174a45.62,45.62,0,0,0-35.81-44.64L163.45,83.25A45.62,45.62,0,0,0,113.92,105.36Z" transform="translate(27.07 -51.42)"/><path class="cls-4" d="M137.42,427.8l87-20a5,5,0,0,1,6.07,4.37L235.18,460a5,5,0,0,1-6.57,5.19l-91.5-31.3A3.19,3.19,0,0,1,137.42,427.8Z" transform="translate(27.07 -51.42)"/><path class="cls-5" d="M80.77,128.83l16.62-28.74a7.1,7.1,0,0,0-4.72-10.51l-29.25-6A6.31,6.31,0,0,0,55.87,89l-4,34.26a6.32,6.32,0,0,0,5.67,7L74.7,132A6.29,6.29,0,0,0,80.77,128.83Z" transform="translate(27.07 -51.42)"/><g class="cls-6"><path class="cls-7" d="M239.91,277.05l-91.24-52.67c-22.28-12.87-59.94-12.87-82.23,0L-12.63,270l-14.44-25L52,199.35c31.16-18,80-18,111.13,0L254.35,252Z" transform="translate(27.07 -51.42)"/><path class="cls-8" d="M239.91,269.79l-91.24-52.67c-22.29-12.88-59.94-12.87-82.23,0l-79.07,45.65-14.44-25L52,192.09c31.15-18,80-18,111.12,0l91.23,52.68Z" transform="translate(27.07 -51.42)"/><path class="cls-9" d="M254.35,296.81l-91.23-52.67c-31.16-18-80-18-111.12,0L29.66,257a45.7,45.7,0,0,0,2.61,31.86l34.17-19.73c22.29-12.87,59.94-12.87,82.23,0l91.24,52.68Z" transform="translate(27.07 -51.42)"/></g><path class="cls-10" d="M223.11,238.32c-2.32-1.34-6.37-1.17-9.05.37l-119.53,69c-2.67,1.55-3,3.89-.65,5.22l135.78,78.4,143.21-33.17a45.53,45.53,0,0,0,26.79-17.9Z" transform="translate(27.07 -51.42)"/><path class="cls-11" d="M459.52,168.69l-202-116.6a3.81,3.81,0,0,0-3.82-.29l-4.34,2.52,2.55,1-26.57,141.5a7.56,7.56,0,0,0,3.63,7.3L430.67,320.6l-.35,3,4.32-2.51h0a3.26,3.26,0,0,0,1.72-2.46L463.15,176A7.58,7.58,0,0,0,459.52,168.69Z" transform="translate(27.07 -51.42)"/><path class="cls-12" d="M427.1,325.88l-10.19,5.05-193-111.42c-2.27-1.31-6.22-1.14-8.84.37L103,284.58l-10.61-5.79,3.8,12.13h0a3,3,0,0,0,1.4,1.52l198,114.33c2.27,1.31,6.22,1.14,8.84-.37l116.84-67.46a4.18,4.18,0,0,0,2.05-2.21h0Z" transform="translate(27.07 -51.42)"/><path class="cls-13" d="M459.52,168.69l-202-116.6a3.81,3.81,0,0,0-3.82-.29l-4.34,2.52,2.55,1-26.57,141.5a7.56,7.56,0,0,0,3.63,7.3l101.42,58.55,131.62-91.51A7.44,7.44,0,0,0,459.52,168.69Z" transform="translate(27.07 -51.42)"/><path class="cls-14" d="M426.51,323.34l-202-116.6a7.53,7.53,0,0,1-3.62-7.3L247.72,56.76c.49-2.59,2.9-3.53,5.39-2.09l202,116.6a7.56,7.56,0,0,1,3.63,7.3L431.9,321.25C431.42,323.84,429,324.78,426.51,323.34Z" transform="translate(27.07 -51.42)"/><path class="cls-15" d="M425.64,318.1,227,203.43a2.66,2.66,0,0,1-1.28-2.57L252.08,60.64a1.17,1.17,0,0,1,1.9-.73L452.6,174.58a2.66,2.66,0,0,1,1.27,2.57L427.54,317.37A1.17,1.17,0,0,1,425.64,318.1Z" transform="translate(27.07 -51.42)"/><path class="cls-16" d="M296.47,397.42l-202.59-117c-2.32-1.34-2-3.68.65-5.22l119.53-69c2.68-1.54,6.73-1.71,9.05-.37l202.58,117c2.32,1.34,2,3.68-.65,5.22L305.51,397C302.83,398.59,298.78,398.76,296.47,397.42Z" transform="translate(27.07 -51.42)"/><path class="cls-17" d="M296.47,397.42l-202.59-117c-2.32-1.34-2-3.68.65-5.22l119.53-69c2.68-1.54,6.73-1.71,9.05-.37l202.58,117c2.32,1.34,2,3.68-.65,5.22L305.51,397C302.83,398.59,298.78,398.76,296.47,397.42Z" transform="translate(27.07 -51.42)"/><path class="cls-18" d="M94.53,277.36l119.53-69c2.68-1.55,6.73-1.72,9.05-.38l202.58,117a3.31,3.31,0,0,1,1.28,1.23c.62-1.21.21-2.49-1.28-3.35l-202.58-117c-2.32-1.34-6.37-1.17-9.05.37l-119.53,69c-2,1.14-2.64,2.71-1.93,4A4.77,4.77,0,0,1,94.53,277.36Z" transform="translate(27.07 -51.42)"/><g class="cls-19"><g class="cls-20"><polygon class="cls-21" points="426.74 223.46 345.5 176.56 426.74 129.65 507.98 176.56 426.74 223.46"/><polygon class="cls-22" points="426.74 201.56 345.5 154.66 345.5 118.63 426.74 165.53 426.74 201.56"/><path class="cls-8" d="M370.05,217.9a10.3,10.3,0,0,0,4.64,8c2.57,1.48,4.64.28,4.64-2.69a10.24,10.24,0,0,0-4.64-8C372.13,213.74,370.05,214.94,370.05,217.9Z" transform="translate(27.07 -51.42)"/><path class="cls-8" d="M353.13,208.14a10.25,10.25,0,0,0,4.65,8c2.56,1.48,4.64.28,4.64-2.68a10.27,10.27,0,0,0-4.64-8C355.21,204,353.13,205.18,353.13,208.14Z" transform="translate(27.07 -51.42)"/><path class="cls-8" d="M336.22,198.37a10.27,10.27,0,0,0,4.65,8c2.56,1.48,4.64.28,4.64-2.68a10.27,10.27,0,0,0-4.64-8.05C338.3,194.21,336.22,195.41,336.22,198.37Z" transform="translate(27.07 -51.42)"/><path class="cls-23" d="M372.4,214.62a4.52,4.52,0,0,0-.35,1.83,10.25,10.25,0,0,0,4.65,8,3.84,3.84,0,0,0,2.29.6c-.7,1.56-2.36,2-4.3.86a10.3,10.3,0,0,1-4.64-8C370.05,215.91,371,214.74,372.4,214.62Z" transform="translate(27.07 -51.42)"/><path class="cls-23" d="M355.49,204.86a4.51,4.51,0,0,0-.35,1.82,10.27,10.27,0,0,0,4.64,8,4,4,0,0,0,2.29.6c-.69,1.55-2.35,2-4.29.85a10.25,10.25,0,0,1-4.65-8C353.13,206.14,354.09,205,355.49,204.86Z" transform="translate(27.07 -51.42)"/><path class="cls-23" d="M338.57,195.09a4.53,4.53,0,0,0-.34,1.83,10.24,10.24,0,0,0,4.64,8,3.86,3.86,0,0,0,2.29.6c-.69,1.56-2.35,2-4.29.86a10.27,10.27,0,0,1-4.65-8C336.22,196.38,337.18,195.21,338.57,195.09Z" transform="translate(27.07 -51.42)"/><polygon class="cls-24" points="426.74 165.53 345.5 118.63 426.74 71.73 507.98 118.63 426.74 165.53"/><polygon class="cls-23" points="426.74 163.73 347.06 117.73 345.5 118.63 426.74 165.53 507.98 118.63 506.41 117.73 426.74 163.73"/><polygon class="cls-8" points="426.74 89.67 369.81 122.54 426.74 155.41 483.67 122.54 426.74 89.67"/><polygon class="cls-25" points="426.74 89.67 483.67 122.54 490.44 118.63 426.74 81.85 363.04 118.63 369.81 122.54 426.74 89.67"/><polygon class="cls-26" points="507.98 154.66 426.74 201.56 426.74 165.53 507.98 118.63 507.98 154.66"/><polygon class="cls-27" points="426.74 141.63 345.5 94.73 345.5 80.03 426.74 126.93 426.74 141.63"/><polygon class="cls-28" points="426.74 126.93 345.5 80.03 426.74 33.13 507.98 80.03 426.74 126.93"/><polygon class="cls-23" points="426.74 125.13 347.06 79.13 345.5 80.03 426.74 126.93 507.98 80.03 506.41 79.13 426.74 125.13"/><polygon class="cls-29" points="507.98 94.73 426.74 141.63 426.74 126.93 507.98 80.03 507.98 94.73"/><polygon class="cls-30" points="345.5 154.66 345.5 176.56 426.74 223.46 426.74 201.56 345.5 154.66"/><polygon class="cls-31" points="507.98 154.66 507.98 176.56 426.74 223.46 426.74 201.56 507.98 154.66"/><polygon class="cls-30" points="507.98 154.66 507.98 176.56 426.74 223.46 426.74 201.56 507.98 154.66"/></g></g><polygon class="cls-32" points="291.89 298.63 210.66 251.72 291.89 204.82 373.13 251.73 291.89 298.63"/><polygon class="cls-33" points="291.89 276.73 210.66 229.82 210.66 193.8 291.89 240.7 291.89 276.73"/><path class="cls-8" d="M235.2,293.07a10.29,10.29,0,0,0,4.65,8.05c2.56,1.48,4.64.28,4.64-2.69a10.27,10.27,0,0,0-4.64-8C237.28,288.91,235.2,290.11,235.2,293.07Z" transform="translate(27.07 -51.42)"/><path class="cls-8" d="M218.29,283.31a10.27,10.27,0,0,0,4.64,8c2.57,1.48,4.65.28,4.65-2.68a10.25,10.25,0,0,0-4.65-8C220.37,279.15,218.29,280.35,218.29,283.31Z" transform="translate(27.07 -51.42)"/><path class="cls-8" d="M201.38,273.54a10.29,10.29,0,0,0,4.64,8c2.57,1.48,4.64.28,4.64-2.68a10.24,10.24,0,0,0-4.64-8.05C203.46,269.38,201.38,270.58,201.38,273.54Z" transform="translate(27.07 -51.42)"/><path class="cls-23" d="M237.56,289.79a4.36,4.36,0,0,0-.35,1.83,10.27,10.27,0,0,0,4.64,8,3.86,3.86,0,0,0,2.29.6c-.69,1.56-2.35,2-4.29.86a10.29,10.29,0,0,1-4.65-8.05C235.2,291.08,236.16,289.91,237.56,289.79Z" transform="translate(27.07 -51.42)"/><path class="cls-23" d="M220.64,280a4.51,4.51,0,0,0-.35,1.82,10.25,10.25,0,0,0,4.65,8,4,4,0,0,0,2.29.6c-.69,1.55-2.35,2-4.3.85a10.27,10.27,0,0,1-4.64-8C218.29,281.31,219.24,280.14,220.64,280Z" transform="translate(27.07 -51.42)"/><path class="cls-23" d="M203.73,270.26a4.52,4.52,0,0,0-.35,1.83,10.25,10.25,0,0,0,4.65,8,3.84,3.84,0,0,0,2.29.6c-.7,1.56-2.36,2-4.3.86a10.29,10.29,0,0,1-4.64-8C201.38,271.55,202.33,270.38,203.73,270.26Z" transform="translate(27.07 -51.42)"/><polygon class="cls-24" points="291.89 240.7 210.66 193.8 291.89 146.9 373.13 193.8 291.89 240.7"/><polygon class="cls-23" points="291.89 238.9 212.22 192.9 210.66 193.8 291.89 240.7 373.13 193.8 371.57 192.9 291.89 238.9"/><polygon class="cls-8" points="291.89 164.84 234.97 197.71 291.89 230.58 348.82 197.71 291.89 164.84"/><polygon class="cls-25" points="291.89 164.84 348.82 197.71 355.59 193.8 291.89 157.02 228.19 193.8 234.96 197.71 291.89 164.84"/><polygon class="cls-34" points="373.13 229.82 291.89 276.73 291.89 240.7 373.13 193.8 373.13 229.82"/><polygon class="cls-35" points="291.89 216.8 210.66 169.9 210.66 155.2 291.89 202.1 291.89 216.8"/><polygon class="cls-28" points="291.89 202.1 210.66 155.2 291.89 108.3 373.13 155.2 291.89 202.1"/><polygon class="cls-23" points="291.89 200.3 212.22 154.3 210.66 155.2 291.89 202.1 373.13 155.2 371.57 154.3 291.89 200.3"/><polygon class="cls-36" points="373.13 169.9 291.89 216.8 291.89 202.1 373.13 155.2 373.13 169.9"/><polygon class="cls-30" points="210.66 229.82 210.66 251.72 291.89 298.63 291.89 276.73 210.66 229.82"/><polygon class="cls-31" points="373.13 229.82 373.13 251.73 291.89 298.63 291.89 276.73 373.13 229.82"/><polygon class="cls-30" points="373.13 229.82 373.13 251.73 291.89 298.63 291.89 276.73 373.13 229.82"/></svg>