<svg id="Layer_1" data-name="Layer 1" xmlns="http://www.w3.org/2000/svg" viewBox="0 0 72.51 89.11"><defs><style>.cls-1{fill:#f4f9fc;}.cls-2{fill:#f27f39;}</style></defs><path class="cls-1" d="M135.45,136.85l-8.33-9.09-2.39-13.7.47-15.7-2.87-11.49-3-.48-2.2.48-.67-32.65L111,50.3l-31.5.48-5.26,6.41.38,19.06-2.49-.2L67.85,79.6a5.15,5.15,0,0,0,1.25,4.21c1.72,1.91,6,4.4,6,4.4s-.77,1.25-1,1.54-1.63,2-1.82,2.29a39.51,39.51,0,0,0-.67,4L68.91,97.6s-2.78,1.53-2.11,3.54,3.45,6,3.64,6.41,1.15.2.29,1a23.4,23.4,0,0,0-2.4,2.59c-.19.28-3.25,3.35-.76,5.93s7.08,5.75,7.27,6-.28,4.89,2,5.94a40.31,40.31,0,0,0,9.77,2.11c1.82.09,11.58.86,11.58.86l2.3,3.64a63.48,63.48,0,0,0,8.91,1.53C112.37,137.23,135.45,136.85,135.45,136.85Z" transform="translate(-65.13 -49.21)"/><rect class="cls-2" x="23.5" y="59.75" width="14.87" height="5.6"/><rect x="23.5" y="14.85" width="2.97" height="2.97"/><rect x="29.44" y="14.85" width="2.97" height="2.97"/><rect x="35.38" y="14.85" width="2.97" height="2.97"/><rect x="44.29" y="5.94" width="2.97" height="2.97"/><path d="M137.53,137.4a1.5,1.5,0,0,0-.32-1.62l-8.62-8.61-2.8-11.2,1.45-10.1a1.48,1.48,0,0,0,0-.47l-3-16.3a4.7,4.7,0,0,0-4.44-4.25,4.46,4.46,0,0,0-1.48.28V56.64a7.43,7.43,0,0,0-7.42-7.43H81.21a7.45,7.45,0,0,0-7.43,7.43V74.86a5.21,5.21,0,0,0-3.31.06,5.77,5.77,0,0,0-3.74,4.21,5.7,5.7,0,0,0,1.52,5.27l4.39,4.39a5.56,5.56,0,0,0-2.73,6.81,5.66,5.66,0,0,0-3.11,9.61l2.43,2.43a5.63,5.63,0,0,0-2.43,1.41,5.69,5.69,0,0,0,0,8L72.74,123a5.48,5.48,0,0,0,1,.81V125a7.43,7.43,0,0,0,7.42,7.43H95.44l5.51,5.5a1.48,1.48,0,0,0,1,.44h34.16a1.48,1.48,0,0,0,1.37-.92ZM88.63,52.18h14.85v3H88.63ZM76.75,77.43V56.64a4.46,4.46,0,0,1,4.46-4.46h4.45v4.46a1.49,1.49,0,0,0,1.49,1.48H105a1.48,1.48,0,0,0,1.48-1.48V52.18h4.46a4.46,4.46,0,0,1,4.46,4.46v60.89H82.22A5.53,5.53,0,0,0,80.78,115l-2.44-2.44a5.56,5.56,0,0,0,4.11-5.42,5.2,5.2,0,0,0-.32-1.79,5.57,5.57,0,0,0,4-2.66h7a1.49,1.49,0,0,0,1.48-1.49V92.28a1.48,1.48,0,0,0-1.48-1.48H84.18a1.49,1.49,0,0,0-1.49,1.48v.89l-3.4-3.4a5.81,5.81,0,0,0-2.54-1.44Zm8.91,18.8V93.77H91.6v5.94H86.91a5.67,5.67,0,0,0-1.25-3.47ZM70.35,82.3a2.76,2.76,0,0,1-.72-2.52,2.81,2.81,0,0,1,1.87-2.06,2,2,0,0,1,.72-.13,2.73,2.73,0,0,1,1.56.52v7.62Zm3,9.58a2.84,2.84,0,0,1,1.93-.79,2.71,2.71,0,0,1,1.92.79l5.93,5.93a2.72,2.72,0,0,1,.8,1.93,2.68,2.68,0,0,1-.18,1,2.5,2.5,0,0,1-.61,1,2.72,2.72,0,0,1-3.6.23l-6.18-6.17a2.64,2.64,0,0,1-.8-1.91,2.71,2.71,0,0,1,.79-1.92Zm-4.45,11.23a2.71,2.71,0,0,1,3.61-4l6.16,6.14a2.72,2.72,0,0,1-3.84,3.84Zm5.94,17.82L68.91,115a2.71,2.71,0,0,1,3.83-3.84l5.94,5.94a2.72,2.72,0,0,1-3.84,3.84Zm6.36,8.48A4.46,4.46,0,0,1,76.75,125v-.26h0a5.59,5.59,0,0,0,5.46-4.19h33.15V125a4.46,4.46,0,0,1-4.46,4.46Zm21.4,5.94-3-3h11.27a7.45,7.45,0,0,0,7.43-7.43V89.3a1.48,1.48,0,0,1,1.48-1.48c.78,0,1.37.88,1.51,1.76l2.93,16.1-1.45,10.15a1.37,1.37,0,0,0,0,.57l3,11.88a1.45,1.45,0,0,0,.39.69l6.37,6.38Zm0,0" transform="translate(-65.13 -49.21)"/><rect x="27.95" y="74.26" width="5.94" height="2.97"/><path d="M84.18,87.82h8.91a1.48,1.48,0,0,0,1.48-1.48V77.43a1.49,1.49,0,0,0-1.48-1.49H84.18a1.49,1.49,0,0,0-1.49,1.49v8.91a1.49,1.49,0,0,0,1.49,1.48Zm1.48-8.91H91.6v5.94H85.66Zm0,0" transform="translate(-65.13 -49.21)"/><path d="M97.54,86.34A1.49,1.49,0,0,0,99,87.82h8.91a1.48,1.48,0,0,0,1.48-1.48V77.43a1.49,1.49,0,0,0-1.48-1.49H99a1.49,1.49,0,0,0-1.49,1.49Zm3-7.43h5.94v5.94h-5.94Zm0,0" transform="translate(-65.13 -49.21)"/><path d="M107.94,90.8H99a1.49,1.49,0,0,0-1.49,1.48v8.91A1.49,1.49,0,0,0,99,102.68h8.91a1.49,1.49,0,0,0,1.48-1.49V92.28a1.48,1.48,0,0,0-1.48-1.48Zm-1.49,8.91h-5.94V93.77h5.94Zm0,0" transform="translate(-65.13 -49.21)"/><rect x="23.5" y="62.38" width="2.97" height="2.97"/><rect x="29.44" y="62.38" width="2.97" height="2.97"/><rect x="35.38" y="62.38" width="2.97" height="2.97"/></svg>