<svg id="Layer_1" data-name="Layer 1" xmlns="http://www.w3.org/2000/svg" viewBox="0 0 119.6 133.12"><defs><style>.cls-1{fill:#f27f39;}.cls-1,.cls-2{fill-rule:evenodd;}.cls-2{fill:#f4f9fc;}</style></defs><path class="cls-1" d="M115.1,69.37a5.2,5.2,0,1,0,0-7.36,5.21,5.21,0,0,0,0,7.36Zm0,0" transform="translate(-40.2 -34.84)"/><path class="cls-1" d="M128,79.37a5.2,5.2,0,1,0,7.36,0,5.2,5.2,0,0,0-7.36,0Zm0,0" transform="translate(-40.2 -34.84)"/><path class="cls-1" d="M141.68,109.82a5.2,5.2,0,1,0,0,7.36,5.21,5.21,0,0,0,0-7.36Zm0,0" transform="translate(-40.2 -34.84)"/><path class="cls-1" d="M122.18,126.81a5.2,5.2,0,1,0-7.36,0,5.2,5.2,0,0,0,7.36,0Zm0,0" transform="translate(-40.2 -34.84)"/><path class="cls-1" d="M119.28,141.66a5.2,5.2,0,1,0,0,7.35,5.21,5.21,0,0,0,0-7.35Zm0,0" transform="translate(-40.2 -34.84)"/><path class="cls-2" d="M111.92,141.66a5.2,5.2,0,1,1,0,7.35,5.21,5.21,0,0,1,0-7.35ZM100,49.09v101a15.24,15.24,0,0,0,30.18,3,17.5,17.5,0,0,0,14.34-20.49,20.29,20.29,0,0,0,1.29-37,17.47,17.47,0,0,0-4.23-28.92,13.42,13.42,0,0,0-12.67-17.84,13.31,13.31,0,0,0-5.61,1.23v-1a11.65,11.65,0,1,0-23.3,0Zm22.18,70.37a5.2,5.2,0,1,1-7.36,0,5.2,5.2,0,0,1,7.36,0ZM128,86.72a5.2,5.2,0,1,1,7.36,0,5.2,5.2,0,0,1-7.36,0Zm-5.51-17.35a5.2,5.2,0,1,1,0-7.36,5.21,5.21,0,0,1,0,7.36Zm19.22,47.81a5.2,5.2,0,1,1,0-7.36,5.21,5.21,0,0,1,0,7.36Zm0,0" transform="translate(-40.2 -34.84)"/><path class="cls-2" d="M100,150.12v-101a11.65,11.65,0,0,0-23.3,0v1a13.42,13.42,0,0,0-19,12.18,13.51,13.51,0,0,0,.75,4.43,17.47,17.47,0,0,0-4.23,28.92,20.29,20.29,0,0,0,1.29,37,17.5,17.5,0,0,0,14.34,20.49,15.24,15.24,0,0,0,30.18-3Zm0,0" transform="translate(-40.2 -34.84)"/><path d="M159.8,113.83A22.73,22.73,0,0,0,149.94,95a20.07,20.07,0,0,0-5.32-29.64,15.5,15.5,0,0,0,.31-3.12,16,16,0,0,0-16-16,16.63,16.63,0,0,0-3.24.32A14.25,14.25,0,0,0,100,40.89a14.25,14.25,0,0,0-25.67,5.66c-.45-.09-.91-.16-1.37-.22a2.6,2.6,0,0,0-.61,5.17,10.64,10.64,0,0,1,3.23.9l0,0a10.82,10.82,0,0,1,4.84,4.41,2.58,2.58,0,0,0,2.25,1.3,2.66,2.66,0,0,0,1.3-.34A2.61,2.61,0,0,0,85,54.23a15.86,15.86,0,0,0-5.64-5.72,9,9,0,0,1,18.08.58v53.07a19.9,19.9,0,0,1-11.59-5.7,2.6,2.6,0,1,0-3.67,3.67A25,25,0,0,0,97.4,107.4v42.72a12.63,12.63,0,0,1-23.86,5.8,19.54,19.54,0,0,0,4.3-.66,2.6,2.6,0,1,0-1.34-5,15,15,0,0,1-6.26.31h0a14.8,14.8,0,0,1-12.44-14.47,22.41,22.41,0,0,0,5.3.63,23.18,23.18,0,0,0,5.92-.78,2.6,2.6,0,0,0-1.34-5,17.61,17.61,0,0,1-11.21-.68l-.05,0A17.69,17.69,0,0,1,55.29,98l0,0a18,18,0,0,1,3.17-1.18,2.6,2.6,0,1,0-1.34-5,22.23,22.23,0,0,0-2.39.78,14.86,14.86,0,0,1,2.5-22.18,16,16,0,0,0,5.81,5.78,2.57,2.57,0,0,0,1.3.35,2.6,2.6,0,0,0,1.3-4.85,10.81,10.81,0,0,1-4.8-5.8s0,0,0,0a10.38,10.38,0,0,1-.52-2.27,2.6,2.6,0,0,0-5.17.6c0,.42.11.84.2,1.25A20.07,20.07,0,0,0,50.06,95a22.9,22.9,0,0,0,2.59,39.2c0,.55-.07,1.12-.07,1.67A20.07,20.07,0,0,0,67.7,155.33a17.84,17.84,0,0,0,32.3,4.06,17.84,17.84,0,0,0,32.3-4.06,20.07,20.07,0,0,0,15.12-19.46c0-.55,0-1.12-.07-1.67a22.79,22.79,0,0,0,12.45-20.37Zm-16.25,16.39a2.6,2.6,0,0,0-1.58,2.89,15.07,15.07,0,0,1,.25,2.76,14.8,14.8,0,0,1-12.46,14.68,2.61,2.61,0,0,0-2.13,2.06,12.64,12.64,0,0,1-25-2.49V139.37H106l2.6,2.6a7.81,7.81,0,1,0,3.68-3.67l-3.37-3.37a2.6,2.6,0,0,0-1.84-.76H102.6v-8.44h8.55a7.56,7.56,0,0,0,1.84,2.92,7.8,7.8,0,1,0,0-11,7.6,7.6,0,0,0-1.84,2.91H102.6v-13h25.76l2.6,2.61a7.8,7.8,0,0,0,7,11.16,7.8,7.8,0,1,0-3.36-14.84l-3.37-3.37a2.61,2.61,0,0,0-1.83-.76H102.6V94.21h20.48a2.6,2.6,0,0,0,1.84-.76l3.37-3.37a7.69,7.69,0,0,0,3.36.76,7.78,7.78,0,1,0-7-4.43L122,89H102.6V76.86h7.61a2.61,2.61,0,0,0,1.84-.77l3.37-3.36a7.8,7.8,0,0,0,8.88-12.56A7.8,7.8,0,0,0,111,65.69a7.69,7.69,0,0,0,.76,3.36l-2.6,2.61H102.6V49.09a9.05,9.05,0,1,1,18.1,0v1a2.6,2.6,0,0,0,3.69,2.36,10.64,10.64,0,0,1,4.52-1,10.8,10.8,0,0,1,10.21,14.38A2.6,2.6,0,0,0,140.48,69a14.87,14.87,0,0,1,3.6,24.62,2.6,2.6,0,0,0,.59,4.28,17.69,17.69,0,0,1-1.12,32.29Zm-28,12.52a2.6,2.6,0,1,1-1.84.76,2.58,2.58,0,0,1,1.84-.76Zm1.06-21.44a2.6,2.6,0,1,1,0,3.67,2.6,2.6,0,0,1,0-3.67Zm19.5-9.64a2.61,2.61,0,0,1,3.68,0,2.6,2.6,0,1,1-3.68,0Zm-6.35-26.78a2.61,2.61,0,1,1,1.84.76,2.58,2.58,0,0,1-1.84-.76ZM116.94,67.53a2.61,2.61,0,1,1,1.84.76,2.6,2.6,0,0,1-1.84-.76Zm0,0" transform="translate(-40.2 -34.84)"/><path d="M69.21,93.55a8,8,0,0,1-5.95,7.76,2.6,2.6,0,0,0,.67,5.11,2.65,2.65,0,0,0,.68-.09,13.22,13.22,0,0,0,8-19.4,2.6,2.6,0,0,0-4.5,2.6,8.09,8.09,0,0,1,1.07,4Zm0,0" transform="translate(-40.2 -34.84)"/><path d="M82.63,137.82a2.65,2.65,0,0,0,.68.09,2.59,2.59,0,0,0,2.5-1.93A13.2,13.2,0,0,0,73,119.32a2.6,2.6,0,0,0,0,5.2,8.05,8.05,0,0,1,8,8,7.72,7.72,0,0,1-.28,2.08,2.6,2.6,0,0,0,1.84,3.18Zm0,0" transform="translate(-40.2 -34.84)"/><path d="M92.58,69.28A2.6,2.6,0,1,0,88.9,65.6a8,8,0,0,1-11.36,0,2.6,2.6,0,0,0-3.67,3.68,13.22,13.22,0,0,0,18.71,0Zm0,0" transform="translate(-40.2 -34.84)"/><path d="M61.6,55.36a2.6,2.6,0,0,0,0-5.2h0a2.6,2.6,0,0,0,0,5.2Zm0,0" transform="translate(-40.2 -34.84)"/></svg>