<svg id="Layer_1" data-name="Layer 1" xmlns="http://www.w3.org/2000/svg" viewBox="0 0 98.12 98.12"><defs><style>.cls-1{fill:#f5fbfe;}.cls-2{stroke:#010101;}.cls-2,.cls-3{stroke-miterlimit:10;stroke-width:0.4px;}.cls-3{fill:#f07e3a;stroke:#f07e3a;}</style></defs><polygon class="cls-1" points="22.76 40.82 23.84 17.46 49.06 2.91 73.31 16.7 75.22 21.87 74.28 46.44 50.97 60.87 48.42 60.87 24.93 48.35 22.76 40.82"/><path class="cls-1" d="M56.42,135.25h77.39l16.51,1.91-1.1,5.46-6.6,3.83-54,1c-.39,0-29.12-.94-29.12-.94Z" transform="translate(-54.31 -50.41)"/><path class="cls-2" d="M150.32,135.25H112a1.91,1.91,0,0,0,0,3.82h36.2a7.36,7.36,0,0,1-7.1,5.44H65.68a7.36,7.36,0,0,1-7.1-5.44h36.2a1.91,1.91,0,0,0,0-3.82H56.42a1.91,1.91,0,0,0-1.91,1.91,11.18,11.18,0,0,0,11.17,11.17h75.38a11.18,11.18,0,0,0,11.17-11.17,1.92,1.92,0,0,0-1.91-1.91Zm0,0" transform="translate(-54.31 -50.41)"/><path class="cls-3" d="M105.28,121.15a1.91,1.91,0,1,0-3.82,0v7.42a1.91,1.91,0,1,0,3.82,0Zm0,0" transform="translate(-54.31 -50.41)"/><path class="cls-2" d="M86.26,129.14a1.91,1.91,0,0,0,1.88,1.55,2.19,2.19,0,0,0,.36,0A1.91,1.91,0,0,0,90,128.42l-.8-4.2a1.91,1.91,0,1,0-3.75.71Zm0,0" transform="translate(-54.31 -50.41)"/><path class="cls-2" d="M87.75,116.58l-.81-4.21a1.91,1.91,0,0,0-3.75.72L84,117.3a1.9,1.9,0,0,0,1.87,1.55,1.47,1.47,0,0,0,.36,0,1.9,1.9,0,0,0,1.52-2.23Zm0,0" transform="translate(-54.31 -50.41)"/><path class="cls-2" d="M72.62,124.63l1.84,4.83a1.91,1.91,0,0,0,1.78,1.23,2,2,0,0,0,.68-.12A1.91,1.91,0,0,0,78,128.1l-1.83-4.83a1.91,1.91,0,0,0-3.57,1.36Zm0,0" transform="translate(-54.31 -50.41)"/><path class="cls-2" d="M64.19,102.48,69.71,117a1.9,1.9,0,0,0,1.79,1.23,2.08,2.08,0,0,0,.68-.12,1.91,1.91,0,0,0,1.1-2.46l-5.52-14.52a1.91,1.91,0,0,0-3.57,1.36Zm0,0" transform="translate(-54.31 -50.41)"/><path class="cls-2" d="M61.29,94.85a1.91,1.91,0,0,0,1.78,1.23,1.79,1.79,0,0,0,.68-.13,1.9,1.9,0,0,0,1.1-2.46L58.2,76a1.91,1.91,0,1,0-3.57,1.36Zm0,0" transform="translate(-54.31 -50.41)"/><path class="cls-2" d="M119.76,122.7a1.9,1.9,0,0,0-2.23,1.52l-.81,4.2a1.91,1.91,0,0,0,1.52,2.24,2.19,2.19,0,0,0,.36,0,1.89,1.89,0,0,0,1.87-1.55l.81-4.21a1.91,1.91,0,0,0-1.52-2.23Zm0,0" transform="translate(-54.31 -50.41)"/><path class="cls-2" d="M122.74,117.3l.8-4.21a1.91,1.91,0,0,0-3.75-.72l-.8,4.21a1.9,1.9,0,0,0,1.51,2.23,1.59,1.59,0,0,0,.36,0,1.92,1.92,0,0,0,1.88-1.55Zm0,0" transform="translate(-54.31 -50.41)"/><path class="cls-2" d="M130.55,123.27l-1.84,4.83a1.92,1.92,0,0,0,1.11,2.47,2,2,0,0,0,.67.12,1.92,1.92,0,0,0,1.79-1.23l1.84-4.83a1.91,1.91,0,0,0-3.57-1.36Zm0,0" transform="translate(-54.31 -50.41)"/><path class="cls-2" d="M134.56,118.1a2,2,0,0,0,.68.12A1.89,1.89,0,0,0,137,117l5.52-14.51a1.91,1.91,0,0,0-3.56-1.36l-5.52,14.52a1.9,1.9,0,0,0,1.1,2.46Zm0,0" transform="translate(-54.31 -50.41)"/><path class="cls-2" d="M143,96a1.79,1.79,0,0,0,.68.13,1.92,1.92,0,0,0,1.78-1.23l6.65-17.49A1.91,1.91,0,1,0,148.54,76l-6.66,17.49A1.91,1.91,0,0,0,143,96Zm0,0" transform="translate(-54.31 -50.41)"/><path class="cls-2" d="M76.65,99.38l25.76,15a1.9,1.9,0,0,0,1.92,0l25.76-15a1.9,1.9,0,0,0,.95-1.65V67.52a1.9,1.9,0,0,0-.95-1.65l-25.76-15a1.89,1.89,0,0,0-1.92,0l-25.76,15a1.9,1.9,0,0,0-1,1.65V97.73a1.9,1.9,0,0,0,1,1.65Zm2.87-28.55,21.94,12.78v25.8L79.52,96.64Zm25.76,38.58V83.61l21.94-12.78V96.64Zm-1.91-54.68,22,12.79-22,12.78-22-12.78Zm0,0" transform="translate(-54.31 -50.41)"/><path class="cls-3" d="M105.28,137.16a1.91,1.91,0,1,1-1.91-1.91,1.91,1.91,0,0,1,1.91,1.91Zm0,0" transform="translate(-54.31 -50.41)"/></svg>