<svg id="Layer_1" data-name="Layer 1" xmlns="http://www.w3.org/2000/svg" viewBox="0 0 92.2 92.2"><defs><style>.cls-1{fill:#f4f9fc;}.cls-2{fill:#f07e3a;}.cls-3{stroke:#231f20;stroke-miterlimit:10;stroke-width:0.5px;}</style></defs><polygon class="cls-1" points="2.62 89.61 69.13 89.61 69.13 72.63 74.75 72.5 75.77 68.17 78.19 67.78 81.9 70.08 87.64 62.8 85.34 59.23 86.62 57.19 90.96 54.76 89.68 47.1 85.73 45.31 86.49 39.44 80.62 34.08 75.9 35.61 74.36 30.38 69.26 30.38 69.26 2.04 19.34 2.04 2.56 18.82 2.62 89.61"/><rect class="cls-2" x="65.05" y="47.07" width="9.19" height="9.19"/><path class="cls-3" d="M146.25,110.76V99.58l-4.14-1c-.18-.47-.38-1-.59-1.42l2.18-3.68-7.9-7.9-3.68,2.19c-.47-.22-.94-.41-1.41-.59L129.65,83h-4.1V57.84a4.44,4.44,0,0,0-4.44-4.43H75a4.4,4.4,0,0,0-3.14,1.3l-16,16a4.4,4.4,0,0,0-1.3,3.14v66.81A4.44,4.44,0,0,0,59,145.1h62.12a4.44,4.44,0,0,0,4.44-4.43V127.36h4.1l1.06-4.15c.47-.17.94-.37,1.41-.59l3.68,2.19,7.9-7.9-2.18-3.68c.21-.47.41-1,.59-1.42ZM72.3,58.46V71.15H59.6Zm50.29,82.21a1.48,1.48,0,0,1-1.48,1.48H59a1.49,1.49,0,0,1-1.48-1.48V74.11H75.26V56.36h45.85a1.48,1.48,0,0,1,1.48,1.48V83h-4.11l-1,4.14c-.47.18-1,.37-1.42.59l-3.68-2.19-7.9,7.9,2.19,3.68c-.22.48-.42,1-.59,1.42l-4.15,1.06v11.17l4.15,1c.17.47.37,1,.59,1.42l-2.19,3.68,7.9,7.9,3.68-2.19c.47.22.95.42,1.42.59l1,4.15h4.11ZM140,116.44l-4.65,4.65-3.1-1.84-.73.37a15.5,15.5,0,0,1-2.49,1l-.78.26-.88,3.48h-6.58l-.88-3.48-.78-.25a17.67,17.67,0,0,1-2.5-1l-.72-.38-3.1,1.84-4.65-4.65,1.84-3.1-.38-.72a18.06,18.06,0,0,1-1-2.49l-.25-.78-3.48-.89v-6.58l3.48-.88.25-.78a17.08,17.08,0,0,1,1-2.49L110,97l-1.84-3.1,4.65-4.65,3.1,1.85.72-.38a15.59,15.59,0,0,1,2.5-1l.78-.25.88-3.49h6.57l.89,3.49.78.25a15.5,15.5,0,0,1,2.49,1l.73.37,3.1-1.84L140,93.9,138.15,97l.37.73a15.13,15.13,0,0,1,1,2.49l.25.78,3.48.88v6.58l-3.48.88-.25.78a15.13,15.13,0,0,1-1,2.49l-.37.73Zm0,0" transform="translate(-54.31 -53.16)"/><path d="M124.07,91.86a13.31,13.31,0,1,0,13.31,13.31,13.32,13.32,0,0,0-13.31-13.31Zm0,23.66a10.35,10.35,0,1,1,10.35-10.35,10.36,10.36,0,0,1-10.35,10.35Zm0,0" transform="translate(-54.31 -53.16)"/><path d="M124.07,97.78a7.4,7.4,0,1,0,7.39,7.39,7.4,7.4,0,0,0-7.39-7.39Zm0,11.83a4.44,4.44,0,1,1,4.43-4.44,4.44,4.44,0,0,1-4.43,4.44Zm0,0" transform="translate(-54.31 -53.16)"/><path class="cls-3" d="M116.67,78.55h3V65.24H106.32v3h8.26L97.45,85.33l-5.92-5.91-32.1,32.1,2.09,2.09,30-30,5.92,5.91,19.22-19.22Zm0,0" transform="translate(-54.31 -53.16)"/><path d="M60.47,139.19h8.88V115.52H60.47Zm3-20.71h3v17.75h-3Zm0,0" transform="translate(-54.31 -53.16)"/><path d="M72.3,139.19h8.88V109.61H72.3Zm3-26.62h3v23.66h-3Zm0,0" transform="translate(-54.31 -53.16)"/><path d="M84.14,139.19H93v-35.5H84.14Zm3-32.54h3v29.58h-3Zm0,0" transform="translate(-54.31 -53.16)"/><rect x="44.62" y="77.16" width="2.96" height="2.96"/><rect x="50.54" y="77.16" width="14.79" height="2.96"/><rect x="44.62" y="83.07" width="20.71" height="2.96"/></svg>