<svg id="Layer_1" data-name="Layer 1" xmlns="http://www.w3.org/2000/svg" viewBox="0 0 83.27 88.36"><defs><style>.cls-1{fill:#f5fafd;}.cls-2,.cls-3{stroke:#010101;stroke-miterlimit:10;}.cls-2{stroke-width:0.4px;}.cls-3{fill:#f07e3a;stroke-width:3px;}</style></defs><path class="cls-1" d="M101.54,139.36,73.39,122.8l.39-33.13s-5.27-3.45-5.37-3.73,0-5.08,0-5.08S71.57,78,71.86,77.8a16.82,16.82,0,0,1,3.83,0c.67.09,3.54,2.3,3.54,2.3s2.3-3.16,5.17-3.93,23.28-12.26,23.28-12.26l26.51,14.37,2.11,1.82s5.65-1.92,5.93-1.92S148,82.11,148,82.11l-.86,3.83-3.55,2.87-1.62.57.48,33.8L112.92,140l.4,3.93-1.63,3.44a40.56,40.56,0,0,1-4,1.06,20.7,20.7,0,0,1-4.19-1c-.48-.29-2-2.11-2-3S101.54,139.36,101.54,139.36Z" transform="translate(-66.05 -61.95)"/><path class="cls-2" d="M149.12,83.63a7.21,7.21,0,0,0-12.42-5L108.54,62.38a1.71,1.71,0,0,0-1.72,0L78.67,78.64a7.21,7.21,0,1,0-6.92,12v32.5a1.71,1.71,0,0,0,.86,1.49l28.14,16.25a7.39,7.39,0,0,0-.28,2,7.22,7.22,0,1,0,14.43,0,7.4,7.4,0,0,0-.29-2l28.15-16.25a1.73,1.73,0,0,0,.86-1.49V90.64a7.24,7.24,0,0,0,5.5-7Zm-79.43,0a3.78,3.78,0,1,1,3.78,3.78,3.78,3.78,0,0,1-3.78-3.78Zm38,63a3.78,3.78,0,1,1,3.78-3.78,3.78,3.78,0,0,1-3.78,3.78Zm5.21-8.76a7.2,7.2,0,0,0-10.41,0l-27.3-15.75V90.64a7.24,7.24,0,0,0,5.5-7,7.1,7.1,0,0,0-.29-2l27.29-15.76L135,81.61a7.1,7.1,0,0,0-.29,2,7.23,7.23,0,0,0,5.49,7v31.51Zm29-50.5a3.78,3.78,0,1,1,3.78-3.78,3.79,3.79,0,0,1-3.78,3.78Zm0,0" transform="translate(-66.05 -61.95)"/><path class="cls-3" d="M107.68,110.07a5.24,5.24,0,1,0,3.71,1.54,5.3,5.3,0,0,0-3.71-1.54Zm0,0" transform="translate(-66.05 -61.95)"/><path class="cls-2" d="M131.22,88.8,108.54,75.71a1.71,1.71,0,0,0-1.72,0L84.15,88.8a1.73,1.73,0,0,0-.86,1.49v26.18a1.72,1.72,0,0,0,.86,1.49l22.67,13.09a1.68,1.68,0,0,0,.86.23,1.63,1.63,0,0,0,.86-.23L131.22,118a1.72,1.72,0,0,0,.86-1.49V90.29A1.73,1.73,0,0,0,131.22,88.8Zm-23.54-9.62,19.24,11.11L107.68,101.4,88.44,90.29Zm21,36.3L109.4,126.59h0l-1.72,1-1.71-1h0L86.73,115.48V93.26l20.09,11.61a1.79,1.79,0,0,0,.86.23,1.73,1.73,0,0,0,.86-.23l20.1-11.61Z" transform="translate(-66.05 -61.95)"/></svg>