<svg id="Layer_1" data-name="Layer 1" xmlns="http://www.w3.org/2000/svg" viewBox="0 0 90.64 90.64"><defs><style>.cls-1{fill:#f4f9fc;}.cls-2{fill:#f27f39;}</style></defs><polygon class="cls-1" points="1.15 11.3 71.43 11.3 73.15 4.98 78.13 1.53 85.4 2.87 89.81 8.62 87.7 15.13 81 19.15 81 48.64 85.6 55.53 89.62 66.25 87.7 76.98 78.51 86.55 66.83 89.43 54 85.21 46.72 75.25 45.19 67.79 1.34 67.79 0.96 10.53 1.15 11.3"/><path d="M137.72,97.46V68.8A10.23,10.23,0,1,0,126,58.68H55.85v58.48H99.78a23.38,23.38,0,1,0,37.94-19.7Zm-1.46-46.09A7.31,7.31,0,1,1,129,58.68a7.32,7.32,0,0,1,7.31-7.31ZM58.77,61.6h67.68a10.27,10.27,0,0,0,1.62,3.2l-8.94,8.94a4.24,4.24,0,0,0-3.76,0l-2.94-2.95a4.39,4.39,0,1,0-7.9,0L97.2,78.12a4.44,4.44,0,1,0,2.07,2.07l7.33-7.33a4.24,4.24,0,0,0,3.76,0l2.94,3a4.37,4.37,0,0,0,4,6.26,4.35,4.35,0,0,0,4-6.26l8.94-8.94a10.19,10.19,0,0,0,4.65,1.93V95.47a23.22,23.22,0,0,0-29.23,4.81V93.77H96.78v17.54h3.36a21.57,21.57,0,0,0-.36,2.92h-41Zm58.48,14.62a1.47,1.47,0,1,1-1.46,1.46,1.46,1.46,0,0,1,1.46-1.46ZM107,68.91a1.46,1.46,0,1,1,1.46,1.47A1.46,1.46,0,0,1,107,68.91ZM96.78,82.07a1.46,1.46,0,1,1-1.46-1.46,1.46,1.46,0,0,1,1.46,1.46Zm26.32,45.32a11.7,11.7,0,1,1,11.69-11.7,11.72,11.72,0,0,1-11.69,11.7Zm-20.47-23a22.94,22.94,0,0,0-1.74,4H99.71V96.69h2.92Zm19-9.1v5.85a14.64,14.64,0,0,0-13.16,14.54,14.49,14.49,0,0,0,1.3,6l-5.07,2.93a20.26,20.26,0,0,1-2.08-8.93,20.48,20.48,0,0,1,19-20.39Zm1.46,40.86a20.44,20.44,0,0,1-16.94-9l5.09-2.94a14.57,14.57,0,0,0,23.7,0l5.09,2.94a20.45,20.45,0,0,1-16.94,9Zm18.39-11.54-5.08-2.93a14.5,14.5,0,0,0,1.31-6,14.64,14.64,0,0,0-13.16-14.54V95.3a20.49,20.49,0,0,1,19,20.39,20.26,20.26,0,0,1-2.08,8.93Zm0,0" transform="translate(-55.85 -48.45)"/><path d="M123.1,106.92a8.78,8.78,0,1,0,8.77,8.77,8.78,8.78,0,0,0-8.77-8.77Zm0,14.62a5.85,5.85,0,1,1,5.85-5.85,5.85,5.85,0,0,1-5.85,5.85Zm0,0" transform="translate(-55.85 -48.45)"/><rect class="cls-2" x="5.85" y="16.08" width="2.92" height="2.92"/><rect x="11.7" y="16.08" width="20.47" height="2.92"/><rect class="cls-2" x="5.85" y="21.93" width="2.92" height="2.92"/><rect x="11.7" y="21.93" width="20.47" height="2.92"/><rect class="cls-2" x="5.85" y="27.78" width="2.92" height="2.92"/><rect x="11.7" y="27.78" width="20.47" height="2.92"/><rect class="cls-2" x="5.85" y="33.62" width="2.92" height="2.92"/><rect x="11.7" y="33.62" width="20.47" height="2.92"/><path d="M61.7,111.31h8.77V96.69H61.7Zm2.92-11.7h2.93v8.78H64.62Zm0,0" transform="translate(-55.85 -48.45)"/><path d="M73.39,111.31h8.78V99.61H73.39Zm2.93-8.77h2.92v5.85H76.32Zm0,0" transform="translate(-55.85 -48.45)"/><path d="M85.09,111.31h8.77V87.92H85.09ZM88,90.84h2.93v17.55H88Zm0,0" transform="translate(-55.85 -48.45)"/></svg>