<svg id="Layer_1" data-name="Layer 1" xmlns="http://www.w3.org/2000/svg" viewBox="0 0 88.96 88.96"><defs><style>.cls-1{fill:#f4f9fc;}.cls-2{stroke:#231f20;stroke-miterlimit:10;}.cls-3{fill:#f27f39;}</style></defs><path class="cls-1" d="M82.29,138.07v-6.45l-26.62-.76v-10l6.77-5.56,7.85-4.59-1.66-4.6s-3.6-9.83-3.6-10,3.21-7,3.21-7l6.41-3.25L79.29,88s2.1,2.75,3,2.37,7.85-5.48,7.85-5.48,3.7-.84,4.08-1A10.91,10.91,0,0,0,96,82.35s1-2,.76-2.56S93.2,74.94,93,74.43s-.9-8.23-.64-8.93.51-3.58,1.15-4.79A5.37,5.37,0,0,1,96.07,58c1.22-.51,1.92-1.47,4.28-.83s1.72,0,3.64,1.08,2.38,2.88,3,4a10.69,10.69,0,0,1,1,2.94c.32,1.09.83,7.21.83,7.21L107,77.05a6.58,6.58,0,0,0-1.64,1.6A11,11,0,0,0,104,82c.06.57-.13,1.91.51,2s1,.41,2.53.78,7.11,2.54,7.62,2.73,1.59,2.43,1.79,3a3,3,0,0,0,.44.89s.13-2,1-2.1a65.67,65.67,0,0,0,6.57-2.75s7.22,1.54,7.41,1.73,2.23,7,2.23,7v7l-3.83,5.11a10.06,10.06,0,0,0-.76,2,18.61,18.61,0,0,0,.32,2.5c.12.54,6.32,3.16,6.63,3.28s6.26,3.62,6.26,3.62l1.66,3v9l-5.17.72-21.29,1.06,1.07,1.23v7.91l-7.66,1.39c-.11,0-26.55-.32-26.55-.32l-2.35-1.15Z" transform="translate(-55.51 -55.52)"/><path class="cls-2" d="M142.68,125a1.29,1.29,0,0,0,1.29-1.29v-2a8.22,8.22,0,0,0-5.66-7.82l-8.05-2.65v-2.78a9.65,9.65,0,0,0,4.68-8.26V94.62a9.62,9.62,0,0,0-17.28-5.81A8.14,8.14,0,0,0,113,84.89l-8-2.66V79.45a9.64,9.64,0,0,0,4.69-8.26V65.64a9.62,9.62,0,0,0-19.24,0v5.55a9.64,9.64,0,0,0,4.69,8.26v2.78L87,84.89a8.2,8.2,0,0,0-4.69,3.92A9.62,9.62,0,0,0,65,94.62v5.55a9.66,9.66,0,0,0,4.69,8.26v2.78l-8,2.65A8.22,8.22,0,0,0,56,121.68v2a1.29,1.29,0,0,0,2.58,0v-2a5.65,5.65,0,0,1,3.88-5.37L70,113.83a4.93,4.93,0,0,0,9.27,0l7.54,2.48a5.63,5.63,0,0,1,3.53,3.39L87,120.81a8.2,8.2,0,0,0-5.65,7.81v1.5H65.88V126.9a1.29,1.29,0,1,0-2.58,0v3.22H58.59v-.44a1.29,1.29,0,1,0-2.58,0v1.73a1.29,1.29,0,0,0,1.29,1.29h24v10A1.29,1.29,0,0,0,82.64,144h34.7a1.29,1.29,0,0,0,1.29-1.29V141a1.29,1.29,0,1,0-2.58,0v.43h-4.71v-7.56a1.29,1.29,0,1,0-2.57,0v7.56H91.21v-7.56a1.29,1.29,0,1,0-2.57,0v7.56H83.92V128.62a5.66,5.66,0,0,1,3.89-5.37l7.54-2.48a4.94,4.94,0,0,0,9.28,0l7.54,2.48a5.65,5.65,0,0,1,3.88,5.37V135a1.29,1.29,0,0,0,2.58,0V132.7h24.05a1.29,1.29,0,0,0,1.29-1.29v-1.73a1.29,1.29,0,1,0-2.58,0v.44h-4.71V126.9a1.29,1.29,0,0,0-2.58,0v3.22H118.63v-1.5a8.2,8.2,0,0,0-5.66-7.81l-3.35-1.11a5.63,5.63,0,0,1,3.53-3.39l7.54-2.48a4.93,4.93,0,0,0,9.27,0l7.55,2.48a5.65,5.65,0,0,1,3.88,5.37v2a1.29,1.29,0,0,0,1.29,1.29ZM125.33,87.58a7.05,7.05,0,0,1,7,7v5.55a7,7,0,1,1-14.09,0V94.62a7.05,7.05,0,0,1,7-7ZM93,71.19V65.64a7,7,0,0,1,14.08,0v5.55a7,7,0,0,1-14.08,0Zm7,9.62a9.72,9.72,0,0,0,2.36-.29v2.65a2.36,2.36,0,0,1-4.72,0V80.52a9.72,9.72,0,0,0,2.36.29ZM87.81,87.33l7.54-2.48a4.94,4.94,0,0,0,9.28,0l7.54,2.48A5.63,5.63,0,0,1,116,92.17a9.4,9.4,0,0,0-.32,2.45v5.55a7.78,7.78,0,0,0,.05,1H109.6a9.62,9.62,0,0,0-19.22,0H84.22c0-.32,0-.64,0-1V94.62A9.4,9.4,0,0,0,84,92.17a5.63,5.63,0,0,1,3.86-4.84ZM100,114.16a7.05,7.05,0,0,1-7-7v-5.55a7,7,0,1,1,14.08,0v5.55a7.05,7.05,0,0,1-7,7Zm-32.38-14V94.62a7,7,0,1,1,14.08,0v5.55a7,7,0,1,1-14.08,0Zm9.4,12a2.36,2.36,0,0,1-4.71,0V109.5a9.71,9.71,0,0,0,4.71,0Zm10.63,1.71-8-2.65v-2.78a9.66,9.66,0,0,0,4-4.71h6.78v3.39a9.61,9.61,0,0,0,4.69,8.26v2.79l-2.25.74a8.24,8.24,0,0,0-5.17-5ZM100,121.45a2.36,2.36,0,0,1-2.36-2.36v0h0v-2.63a9.75,9.75,0,0,0,4.72,0v2.65a2.36,2.36,0,0,1-2.36,2.36Zm12.35-7.59a8.24,8.24,0,0,0-5.17,5l-2.25-.74v-2.79a9.61,9.61,0,0,0,4.69-8.26v-3.39h6.78a9.66,9.66,0,0,0,4,4.71v2.78Zm13,.64a2.36,2.36,0,0,1-2.36-2.35V109.5a9.71,9.71,0,0,0,4.71,0v2.65a2.35,2.35,0,0,1-2.35,2.35Zm0,0" transform="translate(-55.51 -55.52)"/><circle class="cls-3" cx="44.76" cy="73.65" r="2.48"/></svg>