<svg id="Layer_1" data-name="Layer 1" xmlns="http://www.w3.org/2000/svg" viewBox="0 0 97.71 86.02"><defs><style>.cls-1{fill:#f4f9fc;}.cls-2{fill:#f27f39;stroke-width:2.5px;}.cls-2,.cls-3{stroke:#000;stroke-miterlimit:10;}</style></defs><path class="cls-1" d="M57.64,105.12c-.12-.51-4.21-11.62-4.21-12s2.94-6.89,3.19-7.28,5.11-4.21,5.11-4.21l4.08-2.94a38,38,0,0,0,3.07-4.08c0-.38-3.95-.26,1.34-4.6s13.72-4.72,13.72-4.72,2.17,3.06,3.32,2.94,3.45-1.54,5.36-3.71,4.55-4.85,7.38-6.12a31.3,31.3,0,0,1,10.06-2.3c2.35,0,8,1.15,8.86,1.79s6.65,8,7.28,8.29,2.93,2.77,4.21,5.53,1.11,4.81,1.64,6-1.39.64,1.81,2.17,3.06,1,6,3.07,3.88.63,5.45,3.32.85,5.49,1.53,7.53,1.24,5,0,7.15-2.9,5.74-5.07,7.4-12,1.66-16.72,2.3a141.67,141.67,0,0,1-18.77.76c-2.94-.25-6.76-.25-13.28-.63S82.28,110,79.6,110s-8.55.64-11.11.38-6.12-1.66-7.46-1.66S57.64,105.12,57.64,105.12Z" transform="translate(-51.15 -53.84)"/><path class="cls-2" d="M112.35,100.35a3.81,3.81,0,1,1,3.81-3.81,3.81,3.81,0,0,1-3.81,3.81Zm0,0" transform="translate(-51.15 -53.84)"/><path class="cls-2" d="M100,100.35a3.81,3.81,0,1,1,3.81-3.81,3.82,3.82,0,0,1-3.81,3.81Zm0,0" transform="translate(-51.15 -53.84)"/><path class="cls-2" d="M87.65,100.35a3.81,3.81,0,1,1,3.81-3.81,3.82,3.82,0,0,1-3.81,3.81Zm0,0" transform="translate(-51.15 -53.84)"/><path class="cls-3" d="M94.46,74.17l2.69,1.26a14.87,14.87,0,0,1,19.76-7.15l1.26-2.69a17.85,17.85,0,0,0-23.71,8.58Zm0,0" transform="translate(-51.15 -53.84)"/><path class="cls-3" d="M139.18,94.28a7.67,7.67,0,0,0-7.66-7.66v3.07a4.6,4.6,0,0,1,0,9.19h-4.6v3.06h4.6a7.67,7.67,0,0,0,7.66-7.66Zm0,0" transform="translate(-51.15 -53.84)"/><path d="M134.7,77.5l-.29,0-.39-.06-.06-.68A25.34,25.34,0,0,0,88,64.6l-.47.68-.71-.44a13.76,13.76,0,0,0-21,11.82v.75l-.74.12a16.61,16.61,0,0,0,2.67,33H80.47v8.77l-5.78,5.78-.55-.26a7.88,7.88,0,1,0,3.78,3.65l-.29-.57L84,121.59a2.06,2.06,0,0,0,.6-1.44v-9.62H98v13.82l-.58.21a7.88,7.88,0,1,0,5.24,0l-.58-.21V110.53h13.41v9.62a2.06,2.06,0,0,0,.6,1.44l6.32,6.31-.29.57a7.79,7.79,0,0,0-.83,3.52,7.88,7.88,0,1,0,4.61-7.17l-.55.26-5.78-5.78v-8.77h12.72a16.61,16.61,0,0,0,2.45-33ZM70.87,135.78a3.8,3.8,0,1,1,3.8-3.79A3.8,3.8,0,0,1,70.87,135.78Zm58.26-7.59a3.8,3.8,0,1,1-3.8,3.8A3.8,3.8,0,0,1,129.13,128.19ZM103.8,132a3.8,3.8,0,1,1-3.8-3.8A3.8,3.8,0,0,1,103.8,132Zm28.45-25.54H67.75a12.53,12.53,0,0,1,0-25.06h.46a2,2,0,0,0,2-2.53,9.67,9.67,0,0,1,16.4-9,2,2,0,0,0,1.76.62,2,2,0,0,0,1.53-1.08A21.26,21.26,0,0,1,130,79.17v.17a2,2,0,0,0,.59,1.45,2,2,0,0,0,1.44.6h.22a12.53,12.53,0,0,1,0,25.06Z" transform="translate(-51.15 -53.84)"/></svg>