<svg id="Layer_1" data-name="Layer 1" xmlns="http://www.w3.org/2000/svg" viewBox="0 0 81.2 90.38"><defs><style>.cls-1{fill:#f27f39;stroke:#231f20;stroke-miterlimit:10;stroke-width:3px;}</style></defs><path d="M120.48,104.83H110.2v-4a17.39,17.39,0,0,0,7.47-9.52H120a9.55,9.55,0,0,0,6.2-16.81v-.85a25.07,25.07,0,1,0-50.14,0v.85A9.55,9.55,0,0,0,82.3,91.3h2.37a17.39,17.39,0,0,0,7.47,9.52v4H81.86a21.32,21.32,0,0,0-21.29,21.29v11.07A1.76,1.76,0,0,0,62.33,139H74a1.77,1.77,0,0,0,0-3.53H64.1v-9.31a17.78,17.78,0,0,1,17.76-17.75h.84l10.5,13.71a1.76,1.76,0,0,0,1.29.68h.11a1.77,1.77,0,0,0,1.25-.52l3.55-3.55v16.73H89.91a1.77,1.77,0,1,0,0,3.53H140a1.76,1.76,0,0,0,1.76-1.77V126.12a21.32,21.32,0,0,0-21.29-21.29Zm-10.74,3.54h5.45l-7.63,10-3.89-3.89ZM107.28,67a1.77,1.77,0,0,0-2.5,0l-2.35,2.36a13.88,13.88,0,0,1-9.88,4.09H87.4a13.77,13.77,0,0,1,27.54,0h-3.07a6.67,6.67,0,0,1-5.56-3l1-1a1.77,1.77,0,0,0,0-2.5ZM120,87.77h-1.57v-12H120a6,6,0,1,1,0,12ZM101.17,52.11a21.56,21.56,0,0,1,21.51,20.46A9.57,9.57,0,0,0,120,72.2h-1.63a17.3,17.3,0,0,0-34.48,0H82.3a9.57,9.57,0,0,0-2.64.37,21.56,21.56,0,0,1,21.51-20.46ZM83.87,87.77H82.3a6,6,0,1,1,0-12h1.57Zm3.53-1.68V77h5.15a17.35,17.35,0,0,0,11.19-4,10.22,10.22,0,0,0,8.13,4h3.07v9.08a13.47,13.47,0,0,1-.29,2.79h-7.19a5.31,5.31,0,0,0-5-3.53h-1.41a5.3,5.3,0,1,0,0,10.59h1.41a5.32,5.32,0,0,0,5-3.53h5.93a13.77,13.77,0,0,1-26-6.32Zm16.83,4.55a1.77,1.77,0,0,1-1.77,1.77h-1.41a1.77,1.77,0,0,1,0-3.53h1.41a1.76,1.76,0,0,1,1.77,1.76Zm-3.06,12.73a17.28,17.28,0,0,0,5.5-.9v4l-5.5,5.5-5.5-5.5v-4a17.28,17.28,0,0,0,5.5.9Zm-6.39,15-7.63-10H92.6l6.07,6.07Zm43.46,17.1h-35.3V118.7l3.55,3.55a1.77,1.77,0,0,0,1.25.52h.11a1.76,1.76,0,0,0,1.29-.68l10.5-13.71h.84a17.77,17.77,0,0,1,17.76,17.75Zm0,0" transform="translate(-60.57 -48.57)"/><path d="M125.83,125.89h-8.48a1.77,1.77,0,0,0,0,3.53h8.48a1.77,1.77,0,0,0,0-3.53Zm0,0" transform="translate(-60.57 -48.57)"/><path d="M82,135.43a1.82,1.82,0,0,0-1.25.51,1.77,1.77,0,1,0,2.5,0,1.81,1.81,0,0,0-1.25-.51Zm0,0" transform="translate(-60.57 -48.57)"/><circle class="cls-1" cx="40.79" cy="41.9" r="3.35"/></svg>