<svg id="Layer_1" data-name="Layer 1" xmlns="http://www.w3.org/2000/svg" viewBox="0 0 91.69 91.69"><defs><style>.cls-1{fill:#f4f9fc;}.cls-2{fill:none;stroke:#000;stroke-miterlimit:10;stroke-width:3px;}.cls-3{fill:#f27f39;}</style></defs><path class="cls-1" d="M56.72,121.51v-64L60,55.92H135.9l2.1,4.22v51l3.55,3.54-1,5.06,3.76,3.18,1.06,4.3L140.8,132l.08,4.23s-1.54,4.22-2.11,4.41-5.74.86-5.74.86l-1.73.29-3.54,3s-5-.2-5.17-.48-5.55-3.16-5.55-3.16l-3.26.48s-2.58-3.64-2.58-4.31-.1-3.83-.2-4.22a21.07,21.07,0,0,0-1.91-2.29c-.19-.29-1.92-4.69-1.92-4.69l-.09-2.4L57,122.37S56.33,121.51,56.72,121.51Z" transform="translate(-54.62 -54.91)"/><path class="cls-2" d="M126.63,145.09h-1.45a4.45,4.45,0,0,1-4.25-3.07,1.48,1.48,0,0,0-.87-.94l-.57-.24a1.49,1.49,0,0,0-1.27.06,4.47,4.47,0,0,1-5.18-.83l-1-1a4.47,4.47,0,0,1-.83-5.18,1.46,1.46,0,0,0,0-1.27c-.08-.19-.16-.38-.23-.57a1.49,1.49,0,0,0-.94-.86,4.48,4.48,0,0,1-3.08-4.25v-1.45a4.47,4.47,0,0,1,3.08-4.25,1.48,1.48,0,0,0,.94-.87c.07-.19.15-.38.23-.56a1.48,1.48,0,0,0,0-1.28,4.46,4.46,0,0,1,.83-5.18l1-1a4.47,4.47,0,0,1,5.18-.83,1.49,1.49,0,0,0,1.27.06l.57-.24a1.51,1.51,0,0,0,.87-.94,4.46,4.46,0,0,1,4.25-3.08h1.45a4.48,4.48,0,0,1,4.25,3.08,1.49,1.49,0,0,0,.86.94c.19.08.38.15.57.24a1.49,1.49,0,0,0,1.27-.06,4.47,4.47,0,0,1,5.18.83l1,1a4.45,4.45,0,0,1,.82,5.18,1.53,1.53,0,0,0-.05,1.27c.08.19.16.38.23.57a1.48,1.48,0,0,0,.94.87,4.46,4.46,0,0,1,3.08,4.25v1.45a4.47,4.47,0,0,1-3.07,4.25,1.47,1.47,0,0,0-.94.86l-.24.57a1.49,1.49,0,0,0,.06,1.27,4.47,4.47,0,0,1-.83,5.18l-1,1a4.47,4.47,0,0,1-5.18.83,1.49,1.49,0,0,0-1.27-.06l-.57.24a1.47,1.47,0,0,0-.86.93,4.47,4.47,0,0,1-4.25,3.08Zm0,0" transform="translate(-54.62 -54.91)"/><rect class="cls-3" x="23.27" y="30.55" width="14.55" height="17.46"/><path d="M134.63,54.91H59a4.37,4.37,0,0,0-4.37,4.36v61.1A4.37,4.37,0,0,0,59,124.73h48.06a4.49,4.49,0,0,1,1.82-2.91H59a1.46,1.46,0,0,1-1.46-1.45V75.27h78.56V111a4.48,4.48,0,0,1,2.67,1.28l.23.23V59.27a4.36,4.36,0,0,0-4.36-4.36ZM57.53,72.36V59.27A1.47,1.47,0,0,1,59,57.81h75.64a1.47,1.47,0,0,1,1.46,1.46V72.36Zm0,0" transform="translate(-54.62 -54.91)"/><path d="M123,136.18,126,115.82l2.88.41-2.92,20.37Zm0,0" transform="translate(-54.62 -54.91)"/><path d="M129.24,122.85l3.33,3.33-3.33,3.34,2,2.06,5.4-5.4-5.4-5.39Zm0,0" transform="translate(-54.62 -54.91)"/><path d="M120.51,120.79l-5.39,5.39,5.39,5.4,2.06-2.06-3.34-3.34,3.34-3.33Zm0,0" transform="translate(-54.62 -54.91)"/><path d="M60.44,69.45h8.73V60.72H60.44Zm2.91-5.82h2.91v2.91H63.35Zm0,0" transform="translate(-54.62 -54.91)"/><path d="M72.08,69.45h8.73V60.72H72.08ZM75,63.63H77.9v2.91H75Zm0,0" transform="translate(-54.62 -54.91)"/><path d="M83.72,69.45h8.73V60.72H83.72Zm2.91-5.82h2.91v2.91H86.63Zm0,0" transform="translate(-54.62 -54.91)"/><path d="M105.54,78.18H64.81a4.37,4.37,0,0,0-4.37,4.36v23.28a4.37,4.37,0,0,0,4.37,4.36H86.19l7.79,5.2a3.69,3.69,0,0,0,5.74-3.07v-2.13h5.82a4.36,4.36,0,0,0,4.36-4.36V82.54a4.37,4.37,0,0,0-4.36-4.36ZM107,105.82a1.45,1.45,0,0,1-1.45,1.45H96.81v5a.8.8,0,0,1-1.21.65l-8.53-5.69H64.81a1.46,1.46,0,0,1-1.46-1.45V82.54a1.46,1.46,0,0,1,1.46-1.45h40.73A1.45,1.45,0,0,1,107,82.54Zm0,0" transform="translate(-54.62 -54.91)"/><rect x="20.37" y="61.1" width="2.91" height="2.91"/><rect x="8.73" y="61.1" width="2.91" height="2.91"/><rect x="26.18" y="61.1" width="2.91" height="2.91"/><rect x="14.55" y="61.1" width="2.91" height="2.91"/><path d="M69.17,89.82a2.91,2.91,0,0,1-2.91,2.91v2.91a2.91,2.91,0,0,1,2.91,2.91A5.82,5.82,0,0,0,75,104.36v-2.91a2.9,2.9,0,0,1-2.91-2.9,5.8,5.8,0,0,0-2-4.37,5.79,5.79,0,0,0,2-4.36A2.91,2.91,0,0,1,75,86.91V84a5.83,5.83,0,0,0-5.82,5.82Zm0,0" transform="translate(-54.62 -54.91)"/><path d="M101.17,89.82A5.83,5.83,0,0,0,95.35,84v2.91a2.91,2.91,0,0,1,2.91,2.91,5.79,5.79,0,0,0,2,4.36,5.8,5.8,0,0,0-2,4.37,2.9,2.9,0,0,1-2.91,2.9v2.91a5.82,5.82,0,0,0,5.82-5.81,2.91,2.91,0,0,1,2.91-2.91V92.73a2.92,2.92,0,0,1-2.91-2.91Zm0,0" transform="translate(-54.62 -54.91)"/><rect x="23.27" y="29.09" width="14.55" height="2.91"/><rect x="23.27" y="34.91" width="14.55" height="2.91"/><rect x="23.27" y="40.73" width="2.91" height="2.91"/><rect x="29.09" y="40.73" width="8.73" height="2.91"/><rect x="23.27" y="46.55" width="14.55" height="2.91"/><rect x="58.19" y="29.09" width="2.91" height="2.91"/><rect x="64.01" y="29.09" width="14.55" height="2.91"/><rect x="58.19" y="34.91" width="20.37" height="2.91"/><rect x="58.19" y="40.73" width="5.82" height="2.91"/><rect x="66.91" y="40.73" width="2.91" height="2.91"/><rect x="72.73" y="40.73" width="5.82" height="2.91"/><rect x="58.19" y="46.55" width="20.37" height="2.91"/><rect x="58.19" y="23.27" width="20.37" height="2.91"/></svg>