<svg id="Layer_1" data-name="Layer 1" xmlns="http://www.w3.org/2000/svg" viewBox="0 0 88.7 88.7"><defs><style>.cls-1{fill:#f4f9fc;}.cls-2{fill:#f07e3a;}</style></defs><path class="cls-1" d="M72.4,116.19,58.5,130.1l.75,9.38a39,39,0,0,0,4.59,1.78A15.4,15.4,0,0,0,68,139.05a31.14,31.14,0,0,0,5.07-4.26,85.28,85.28,0,0,0,6.42-7.94c.91-1.49,5.22-4.84,5.22-4.84l3.16-3.4-8.09-6-4.6.19-1.1,3.73Z" transform="translate(-56.34 -54.14)"/><circle class="cls-1" cx="50.3" cy="39" r="36.67"/><rect class="cls-2" x="30.17" y="31.73" width="5.11" height="5.11"/><rect class="cls-2" x="46.51" y="41.68" width="5.49" height="5.49"/><rect class="cls-2" x="63.29" y="26.17" width="4.98" height="4.98"/><path d="M68,124.82a1.75,1.75,0,0,0,1.23-.5,1.78,1.78,0,0,0,.51-1.23,1.75,1.75,0,0,0-.51-1.22,1.73,1.73,0,0,0-2.45,0,1.75,1.75,0,0,0-.51,1.22,1.78,1.78,0,0,0,.51,1.23A1.74,1.74,0,0,0,68,124.82Z" transform="translate(-56.34 -54.14)"/><path d="M122.15,91.2a1.74,1.74,0,0,0-1.74,1.73,1.78,1.78,0,0,0,.51,1.23,1.75,1.75,0,0,0,2.45,0,1.78,1.78,0,0,0,.51-1.23,1.75,1.75,0,0,0-.51-1.22A1.71,1.71,0,0,0,122.15,91.2Z" transform="translate(-56.34 -54.14)"/><path d="M106.41,63.32a29.45,29.45,0,1,0,29.44,29.45A29.48,29.48,0,0,0,106.41,63.32Zm0,3.47a26,26,0,0,1,19.93,9.33L124.43,78A5.21,5.21,0,0,0,117,82.71a5,5,0,0,0,.37,1.9l-10.06,9a5.06,5.06,0,0,0-1.78-.32,5.15,5.15,0,0,0-3.25,1.15l-8.22-5.41c0-.2,0-.41,0-.62a5.2,5.2,0,1,0-10.39,0,5.07,5.07,0,0,0,.18,1.36l-3.44,2.38A26,26,0,0,1,106.41,66.79Zm14,15.92a1.73,1.73,0,1,1,1.73,1.73A1.74,1.74,0,0,1,120.46,82.71ZM88.89,90.16a1.73,1.73,0,1,1,1.73-1.73A1.74,1.74,0,0,1,88.89,90.16Zm1.73,3.17a5.13,5.13,0,0,0,1.86-1.16l8,5.24a4.94,4.94,0,0,0-.12,1.1,5.21,5.21,0,0,0,3.46,4.9v15.21a25.87,25.87,0,0,1-13.16-5.22Zm14.9,6.91a1.73,1.73,0,1,1,1.73-1.73A1.74,1.74,0,0,1,105.52,100.24Zm-24.87-4,5.2-3.59a5.06,5.06,0,0,0,1.3.69v16.88A26,26,0,0,1,80.65,96.23ZM123.88,112V100a1.74,1.74,0,0,0-3.47,0v14.67a25.82,25.82,0,0,1-13.16,4.09V103.41a5.2,5.2,0,0,0,3.46-4.9,5.15,5.15,0,0,0-.72-2.64l9.64-8.64a5.15,5.15,0,0,0,2.56.68,5.2,5.2,0,0,0,5.2-5.2,5.11,5.11,0,0,0-.51-2.24L128.4,79a25.95,25.95,0,0,1-4.52,33Z" transform="translate(-56.34 -54.14)"/><path d="M144.53,62.82a1.73,1.73,0,0,0,0-2.45,1.74,1.74,0,0,0-2.45,0l-6.77,6.77c-.51-.57-1-1.14-1.59-1.68a38.64,38.64,0,0,0-65.19,35l-11.44,7.91a1.73,1.73,0,0,0,1,3.16,1.7,1.7,0,0,0,1-.31L69.42,104a38.43,38.43,0,0,0,4.89,10.29l-2.94,2.93a1.74,1.74,0,0,0,1.23,3,1.7,1.7,0,0,0,1.22-.51l2.57-2.57c.85,1,1.74,2,2.7,3a39.88,39.88,0,0,0,3,2.69L66.63,138.23A4,4,0,0,1,61,132.55l3.29-3.3a1.73,1.73,0,0,0,0-2.45,1.74,1.74,0,0,0-2.45,0l-3.29,3.3a7.48,7.48,0,0,0,10.58,10.58l15.81-15.81a38.64,38.64,0,0,0,52.62-55Zm-38.12,65.12a35.17,35.17,0,1,1,35.16-35.17A35.21,35.21,0,0,1,106.41,127.94Z" transform="translate(-56.34 -54.14)"/></svg>