<svg id="Layer_1" data-name="Layer 1" xmlns="http://www.w3.org/2000/svg" viewBox="0 0 52.26 66.7"><defs><style>.cls-1{fill:#f5fafd;}.cls-2,.cls-3{stroke:#231f20;stroke-miterlimit:10;}.cls-2{stroke-width:0.5px;}.cls-3{stroke-width:0.7px;}.cls-4{fill:#f38039;}</style></defs><rect class="cls-1" x="9.61" y="2.28" width="4.81" height="11.39"/><rect class="cls-1" x="23.95" y="2.28" width="4.89" height="10.78"/><rect class="cls-1" x="37.88" y="2.28" width="4.96" height="11.1"/><rect class="cls-1" x="0.35" y="7.86" width="51.56" height="58.49" rx="5.78"/><path class="cls-2" d="M77,93.61l6-7.25a1,1,0,1,0-1.48-1.23l-5.17,6.21-1.13-1.83a1,1,0,1,0-1.64,1l1.83,3a1,1,0,0,0,1.57.11Zm0,0" transform="translate(-65.36 -65.03)"/><path class="cls-2" d="M73.55,103.28l1.83,3a1,1,0,0,0,1.57.11l6-7.25a1,1,0,0,0-.12-1.36,1,1,0,0,0-1.36.13l-5.17,6.21-1.13-1.83a1,1,0,1,0-1.64,1Zm0,0" transform="translate(-65.36 -65.03)"/><path class="cls-2" d="M73.55,116.13l1.83,3a1,1,0,0,0,1.57.11L83,112a1,1,0,0,0-1.48-1.24L76.32,117l-1.13-1.84a1,1,0,0,0-1.64,1Zm0,0" transform="translate(-65.36 -65.03)"/><path class="cls-3" d="M116.3,120a1,1,0,0,0-1,1v7a1.49,1.49,0,0,1-1.49,1.48H69.13A1.49,1.49,0,0,1,67.64,128V85.6a1,1,0,1,0-1.93,0V128a3.42,3.42,0,0,0,3.42,3.41h44.72a3.42,3.42,0,0,0,3.42-3.41v-7a1,1,0,0,0-1-1Zm0,0" transform="translate(-65.36 -65.03)"/><path class="cls-3" d="M113.85,72.83h-4.73v-4a3.45,3.45,0,1,0-6.9,0v4H94.94v-4a3.46,3.46,0,1,0-6.91,0v4H80.76v-4a3.46,3.46,0,1,0-6.91,0v4H69.13a3.42,3.42,0,0,0-3.42,3.42v4.84a1,1,0,0,0,1.93,0V76.25a1.49,1.49,0,0,1,1.49-1.48h4.72V76.3a3.46,3.46,0,1,0,6.91,0V74.77H88V76.3a3.46,3.46,0,1,0,6.91,0V74.77h7.28V76.3a3.45,3.45,0,1,0,6.9,0V74.77h4.73a1.49,1.49,0,0,1,1.49,1.48v40.17a1,1,0,0,0,1.93,0V76.25a3.42,3.42,0,0,0-3.42-3.42Zm-35,3.47a1.52,1.52,0,1,1-3,0V68.84a1.52,1.52,0,1,1,3,0ZM93,76.3a1.52,1.52,0,0,1-3,0V68.84a1.52,1.52,0,1,1,3,0Zm14.18,0a1.52,1.52,0,0,1-3,0V68.84a1.52,1.52,0,1,1,3,0Zm0,0" transform="translate(-65.36 -65.03)"/><path d="M87.07,94.41h20.37a3,3,0,0,0,0-6.06H87.07a3,3,0,1,0,0,6.06Zm0-4.12h20.37a1.1,1.1,0,0,1,0,2.19H87.07a1.1,1.1,0,0,1,0-2.19Zm0,0" transform="translate(-65.36 -65.03)"/><path d="M87.07,120h20.37a3,3,0,1,0,0-6.06H87.07a3,3,0,1,0,0,6.06Zm0-4.13h20.37a1.1,1.1,0,0,1,0,2.19H87.07a1.1,1.1,0,0,1,0-2.19Zm0,0" transform="translate(-65.36 -65.03)"/><rect class="cls-4" x="19.87" y="37.6" width="24.49" height="3.08" rx="1.54"/><path d="M87.07,107.2h20.37a3,3,0,0,0,0-6.06H87.07a3,3,0,1,0,0,6.06Zm0-4.13h20.37a1.1,1.1,0,0,1,0,2.2H87.07a1.1,1.1,0,0,1,0-2.2Zm0,0" transform="translate(-65.36 -65.03)"/></svg>