<svg id="Layer_1" data-name="Layer 1" xmlns="http://www.w3.org/2000/svg" viewBox="0 0 66.6 66.6"><defs><style>.cls-1{fill:#f4f9fc;}.cls-2{fill:#f07e3a;}</style></defs><path class="cls-1" d="M16.77,41.89l-7.18-2.1L5.76,33.08,7.2,27l3.44-3.55,1.72-1,.58-4.68,3.83-6.41,5.65-2.49,6.89.86L32,6.94l4.4-3.35,7.19-.38L49.8,5l5.1,4.79,1.41,5.07,4.6,1.92L65.69,20c.29.18,3.64,4,3.74,5.15S68.37,35,68.37,35l-3.81,5.58-6.91,1.32-3.92,1.53,2.77,2.07-.28,4.28-.29,4.28L51.79,55.2l-12.19.67H21.94s-3.06-.28-3.35-.73-.1-6-.1-6l1.15-4.71V42.9Z" transform="translate(-4.36 -1.69)"/><circle class="cls-1" cx="33.3" cy="62.07" r="2.34"/><path d="M36.83,48.47H25a1.3,1.3,0,1,0,0,2.59H36.83a1.3,1.3,0,0,0,0-2.59Zm0,0" transform="translate(-4.36 -1.69)"/><path d="M36.83,51.19H25a1.42,1.42,0,0,1,0-2.84H36.83a1.42,1.42,0,0,1,0,2.84ZM25,48.6a1.17,1.17,0,0,0,0,2.34H36.83a1.17,1.17,0,1,0,0-2.34Z" transform="translate(-4.36 -1.69)"/><path d="M43.58,48.47a1.3,1.3,0,0,0-.91.38,1.28,1.28,0,0,0-.38.92,1.28,1.28,0,0,0,1.29,1.29,1.31,1.31,0,0,0,.92-.37,1.34,1.34,0,0,0,.38-.92,1.3,1.3,0,0,0-1.3-1.3Zm0,0" transform="translate(-4.36 -1.69)"/><path d="M43.58,51.19a1.43,1.43,0,0,1-1.42-1.42,1.42,1.42,0,0,1,1.42-1.42A1.4,1.4,0,0,1,45,49.77a1.42,1.42,0,0,1-1.42,1.42Zm0-2.59a1.17,1.17,0,0,0-.83.34,1.17,1.17,0,0,0,1.66,1.66,1.17,1.17,0,0,0-.83-2Z" transform="translate(-4.36 -1.69)"/><path d="M50.37,48.47a1.3,1.3,0,0,0-1.3,1.3,1.34,1.34,0,0,0,.38.92,1.31,1.31,0,0,0,.92.37,1.3,1.3,0,1,0,0-2.59Zm0,0" transform="translate(-4.36 -1.69)"/><path d="M50.37,51.19A1.42,1.42,0,0,1,49,49.77a1.47,1.47,0,0,1,.41-1,1.46,1.46,0,0,1,1-.41,1.42,1.42,0,0,1,1.42,1.42,1.43,1.43,0,0,1-1.42,1.42Zm0-2.59a1.17,1.17,0,0,0-.83,2,1.18,1.18,0,0,0,1.66,0,1.17,1.17,0,0,0-.83-2Z" transform="translate(-4.36 -1.69)"/><path class="cls-2" d="M36.83,37.07H25a1.3,1.3,0,1,0,0,2.59H36.83a1.3,1.3,0,0,0,0-2.59Zm0,0" transform="translate(-4.36 -1.69)"/><path class="cls-2" d="M36.83,39.79H25a1.43,1.43,0,0,1,0-2.85H36.83a1.43,1.43,0,0,1,0,2.85ZM25,37.19a1.18,1.18,0,0,0,0,2.35H36.83a1.18,1.18,0,0,0,0-2.35Z" transform="translate(-4.36 -1.69)"/><path class="cls-2" d="M43.58,37.07a1.3,1.3,0,0,0-.91.38,1.29,1.29,0,0,0,0,1.83,1.3,1.3,0,0,0,.91.38,1.32,1.32,0,0,0,.92-.38,1.29,1.29,0,0,0,0-1.83,1.32,1.32,0,0,0-.92-.38Zm0,0" transform="translate(-4.36 -1.69)"/><path class="cls-2" d="M43.58,39.79a1.44,1.44,0,0,1-1-.42,1.41,1.41,0,0,1,0-2,1.44,1.44,0,0,1,1-.42A1.42,1.42,0,0,1,45,38.37a1.45,1.45,0,0,1-.41,1A1.47,1.47,0,0,1,43.58,39.79Zm0-2.6a1.18,1.18,0,0,0-.83.35,1.17,1.17,0,0,0,0,1.65,1.16,1.16,0,0,0,1.66,0,1.17,1.17,0,0,0,0-1.65A1.18,1.18,0,0,0,43.58,37.19Z" transform="translate(-4.36 -1.69)"/><path class="cls-2" d="M50.37,37.07a1.32,1.32,0,0,0-.92.38,1.29,1.29,0,0,0,0,1.83,1.32,1.32,0,0,0,.92.38,1.34,1.34,0,0,0,.92-.38,1.29,1.29,0,0,0,0-1.83,1.34,1.34,0,0,0-.92-.38Zm0,0" transform="translate(-4.36 -1.69)"/><path class="cls-2" d="M50.37,39.79a1.48,1.48,0,0,1-1-.42,1.44,1.44,0,0,1,0-2,1.47,1.47,0,0,1,1-.42,1.44,1.44,0,0,1,1,.42,1.41,1.41,0,0,1,0,2A1.44,1.44,0,0,1,50.37,39.79Zm0-2.6a1.18,1.18,0,0,0-1.17,1.18,1.17,1.17,0,0,0,.34.82,1.16,1.16,0,0,0,1.66,0,1.17,1.17,0,0,0,0-1.65A1.18,1.18,0,0,0,50.37,37.19Z" transform="translate(-4.36 -1.69)"/><path d="M36.83,25.67H25a1.3,1.3,0,1,0,0,2.59H36.83a1.3,1.3,0,0,0,0-2.59Zm0,0" transform="translate(-4.36 -1.69)"/><path d="M36.83,28.38H25a1.42,1.42,0,0,1,0-2.84H36.83a1.42,1.42,0,1,1,0,2.84ZM25,25.79a1.17,1.17,0,0,0,0,2.34H36.83a1.17,1.17,0,0,0,0-2.34Z" transform="translate(-4.36 -1.69)"/><path d="M43.58,28.26a1.3,1.3,0,0,0,1.3-1.3,1.3,1.3,0,0,0-.38-.91,1.28,1.28,0,0,0-.92-.38A1.3,1.3,0,0,0,42.29,27a1.28,1.28,0,0,0,.38.92,1.3,1.3,0,0,0,.91.38Zm0,0" transform="translate(-4.36 -1.69)"/><path d="M43.58,28.38A1.42,1.42,0,0,1,42.16,27a1.43,1.43,0,0,1,1.42-1.42A1.42,1.42,0,0,1,45,27a1.4,1.4,0,0,1-1.42,1.42Zm0-2.59a1.17,1.17,0,0,0-.83,2,1.17,1.17,0,0,0,1.66-1.66A1.22,1.22,0,0,0,43.58,25.79Z" transform="translate(-4.36 -1.69)"/><path d="M50.37,28.26a1.34,1.34,0,0,0,.92-.38,1.32,1.32,0,0,0,.38-.92,1.3,1.3,0,0,0-1.3-1.29,1.28,1.28,0,0,0-.92.38,1.3,1.3,0,0,0-.38.91,1.3,1.3,0,0,0,1.3,1.3Zm0,0" transform="translate(-4.36 -1.69)"/><path d="M50.37,28.38A1.4,1.4,0,0,1,49,27a1.42,1.42,0,1,1,2.84,0,1.46,1.46,0,0,1-.41,1A1.47,1.47,0,0,1,50.37,28.38Zm0-2.59a1.22,1.22,0,0,0-.83.34,1.17,1.17,0,1,0,1.66,0A1.22,1.22,0,0,0,50.37,25.79Z" transform="translate(-4.36 -1.69)"/><path d="M70.83,28.78A14.5,14.5,0,0,0,57.59,14.34a16.27,16.27,0,0,0-28.87-6A13.6,13.6,0,0,0,10.94,21.28c0,.38,0,.75,0,1.13a10.9,10.9,0,0,0,4.41,20.88h2.76a3.8,3.8,0,0,0,.55.78,3.85,3.85,0,0,0-1,2.59v6.22a3.9,3.9,0,0,0,3.89,3.89H36.36v2.78a4.43,4.43,0,0,0-2.91,2.92H19a1.3,1.3,0,1,0,0,2.59H33.45a4.4,4.4,0,0,0,8.42,0H56.32a1.3,1.3,0,1,0,0-2.59H41.87A4.45,4.45,0,0,0,39,59.55V56.77H53.73a3.9,3.9,0,0,0,3.89-3.89V46.66a3.85,3.85,0,0,0-1-2.59,4,4,0,0,0,.56-.81A14.52,14.52,0,0,0,70.83,28.78ZM37.66,65.58a1.82,1.82,0,1,1,1.81-1.82,1.82,1.82,0,0,1-1.81,1.82ZM20.29,41.47V35.25A1.3,1.3,0,0,1,21.59,34H53.73A1.29,1.29,0,0,1,55,35.25v6.22a1.3,1.3,0,0,1-1.29,1.3H21.59a1.3,1.3,0,0,1-1.3-1.3ZM7.08,32.38a8.3,8.3,0,0,1,5.71-7.9,1.28,1.28,0,0,0,.88-1.43,10.56,10.56,0,0,1-.14-1.77A11,11,0,0,1,28.72,11.12a1.29,1.29,0,0,0,1.58-.49,13.67,13.67,0,0,1,24.94,5.16,1.28,1.28,0,0,0,1.26,1.08,11.92,11.92,0,0,1,1.12,23.76V35.25a3.87,3.87,0,0,0-1-2.59,3.85,3.85,0,0,0,1-2.59V23.85A3.9,3.9,0,0,0,53.73,20H43.52a1.3,1.3,0,1,0,0,2.6H53.73A1.29,1.29,0,0,1,55,23.85v6.22a1.3,1.3,0,0,1-1.29,1.3H21.59a1.3,1.3,0,0,1-1.3-1.3V23.85a1.3,1.3,0,0,1,1.3-1.29H31.86a1.3,1.3,0,0,0,0-2.6H21.59a3.9,3.9,0,0,0-3.89,3.89v6.22a3.85,3.85,0,0,0,1,2.59,3.87,3.87,0,0,0-1,2.59V40.7H15.39a8.32,8.32,0,0,1-8.31-8.32ZM55,52.88a1.29,1.29,0,0,1-1.29,1.29H21.59a1.3,1.3,0,0,1-1.3-1.29V46.66a1.3,1.3,0,0,1,1.3-1.3H53.73A1.3,1.3,0,0,1,55,46.66Zm0,0" transform="translate(-4.36 -1.69)"/><path d="M37.66,68.3a4.5,4.5,0,0,1-4.3-3.12H19a1.42,1.42,0,1,1,0-2.84H33.36a4.54,4.54,0,0,1,2.88-2.88V56.89H21.59a4,4,0,0,1-4-4V46.66a4,4,0,0,1,1-2.59,4.27,4.27,0,0,1-.45-.66H15.39a11,11,0,0,1-4.54-21.08c0-.35,0-.7,0-1A13.73,13.73,0,0,1,28.68,8.22,16.22,16.22,0,0,1,41.76,1.69,16.41,16.41,0,0,1,57.69,14.22a14.63,14.63,0,0,1-.43,29.16,4,4,0,0,1-.47.69,4,4,0,0,1,1,2.59v6.22a4,4,0,0,1-4,4H39.08v2.57A4.54,4.54,0,0,1,42,62.34H56.32a1.42,1.42,0,1,1,0,2.84H42A4.57,4.57,0,0,1,37.66,68.3ZM19,62.59a1.17,1.17,0,1,0,0,2.34H33.54l0,.09a4.28,4.28,0,0,0,8.18,0l0-.09H56.32a1.17,1.17,0,1,0,0-2.34H41.78l0-.08a4.3,4.3,0,0,0-2.83-2.84l-.09,0v-3h14.9a3.77,3.77,0,0,0,3.76-3.76V46.66a3.75,3.75,0,0,0-1-2.51l-.08-.08.08-.09a4.1,4.1,0,0,0,.54-.77l0-.07h.07a14.38,14.38,0,0,0,.41-28.68h-.09l0-.09A16.14,16.14,0,0,0,41.76,1.94a16,16,0,0,0-12.94,6.5l-.05.07-.09,0a13.48,13.48,0,0,0-17.62,12.8c0,.37,0,.74,0,1.12v.08l-.08,0a10.78,10.78,0,0,0,4.36,20.64h2.84l0,.07a3.63,3.63,0,0,0,.53.75l.07.09-.07.08a3.75,3.75,0,0,0-1,2.51v6.22a3.77,3.77,0,0,0,3.76,3.76h14.9v3l-.09,0a4.28,4.28,0,0,0-2.83,2.84l0,.08ZM37.66,65.7a1.94,1.94,0,1,1,1.94-1.94A1.94,1.94,0,0,1,37.66,65.7Zm0-3.63a1.69,1.69,0,1,0,1.69,1.69A1.69,1.69,0,0,0,37.66,62.07ZM53.73,54.3H21.59a1.43,1.43,0,0,1-1.42-1.42V46.66a1.43,1.43,0,0,1,1.42-1.42H53.73a1.43,1.43,0,0,1,1.42,1.42v6.22A1.43,1.43,0,0,1,53.73,54.3ZM21.59,45.49a1.17,1.17,0,0,0-1.17,1.17v6.22a1.17,1.17,0,0,0,1.17,1.17H53.73a1.18,1.18,0,0,0,1.17-1.17V46.66a1.17,1.17,0,0,0-1.17-1.17ZM53.73,42.9H21.59a1.43,1.43,0,0,1-1.42-1.43V35.25a1.43,1.43,0,0,1,1.42-1.42H53.73a1.43,1.43,0,0,1,1.42,1.42v6.22A1.43,1.43,0,0,1,53.73,42.9ZM21.59,34.08a1.17,1.17,0,0,0-1.17,1.17v6.22a1.17,1.17,0,0,0,1.17,1.18H53.73a1.18,1.18,0,0,0,1.17-1.18V35.25a1.18,1.18,0,0,0-1.17-1.17Zm-3.76,6.74H15.39a8.43,8.43,0,0,1-2.63-16.45,1.18,1.18,0,0,0,.79-1.3,10.72,10.72,0,0,1-.15-1.79A11.13,11.13,0,0,1,28.77,11a1.16,1.16,0,0,0,1.42-.45,13.8,13.8,0,0,1,25.17,5.21,1.18,1.18,0,0,0,1.14,1,12,12,0,0,1,1.13,24l-.14,0V35.25a3.74,3.74,0,0,0-1-2.5l-.08-.09.08-.08a3.75,3.75,0,0,0,1-2.51V23.85a3.77,3.77,0,0,0-3.76-3.76H43.52a1.17,1.17,0,0,0,0,2.34H53.73a1.43,1.43,0,0,1,1.42,1.42v6.22a1.43,1.43,0,0,1-1.42,1.42H21.59a1.43,1.43,0,0,1-1.42-1.42V23.85a1.43,1.43,0,0,1,1.42-1.42H31.86a1.17,1.17,0,0,0,0-2.34H21.59a3.77,3.77,0,0,0-3.76,3.76v6.22a3.75,3.75,0,0,0,1,2.51l.07.08-.07.09a3.74,3.74,0,0,0-1,2.5Zm6.69-30.4A10.88,10.88,0,0,0,13.65,21.28,11.27,11.27,0,0,0,13.79,23a1.41,1.41,0,0,1-1,1.57,8.19,8.19,0,0,0,2.56,16h2.19V35.25a4,4,0,0,1,1-2.59,4,4,0,0,1-1-2.59V23.85a4,4,0,0,1,4-4H31.86a1.42,1.42,0,1,1,0,2.84H21.59a1.17,1.17,0,0,0-1.17,1.17v6.22a1.17,1.17,0,0,0,1.17,1.17H53.73a1.17,1.17,0,0,0,1.17-1.17V23.85a1.18,1.18,0,0,0-1.17-1.17H43.52a1.42,1.42,0,0,1,0-2.84H53.73a4,4,0,0,1,4,4v6.22a4,4,0,0,1-1,2.59,4,4,0,0,1,1,2.59v5.24A11.79,11.79,0,0,0,56.5,17a1.42,1.42,0,0,1-1.38-1.19A13.55,13.55,0,0,0,30.4,10.7a1.41,1.41,0,0,1-1.73.54A10.7,10.7,0,0,0,24.52,10.42Z" transform="translate(-4.36 -1.69)"/><path d="M37.69,22.57a1.3,1.3,0,0,0,.91-.38,1.28,1.28,0,0,0,.38-.92A1.28,1.28,0,0,0,37.69,20a1.31,1.31,0,0,0-.92.37,1.34,1.34,0,0,0-.38.92,1.3,1.3,0,0,0,1.3,1.3Zm0,0" transform="translate(-4.36 -1.69)"/><path d="M37.69,22.69a1.4,1.4,0,0,1-1.42-1.42,1.42,1.42,0,1,1,1.42,1.42Zm0-2.59a1.22,1.22,0,0,0-.83.34,1.17,1.17,0,0,0,.83,2,1.19,1.19,0,0,0,.83-.34,1.18,1.18,0,0,0,0-1.66A1.17,1.17,0,0,0,37.69,20.1Z" transform="translate(-4.36 -1.69)"/></svg>