<svg id="Layer_1" data-name="Layer 1" xmlns="http://www.w3.org/2000/svg" viewBox="0 0 65.79 65.79"><defs><style>.cls-1{fill:#f4f9fc;}.cls-2{fill:none;}.cls-3{fill:#f38039;}</style></defs><polygon class="cls-1" points="2 63.58 2 9.34 16.75 9.34 16.75 0.7 48.12 0.7 48.12 8.94 63.41 8.94 63.41 63.58 2 63.58"/><rect class="cls-2" x="27.09" y="11.61" width="11.62" height="3.49"/><path class="cls-2" d="M47.59,64h3.62V6H24.11V64h3.62V40.42H47.59ZM27.73,9.59H47.59V21.32H27.73Zm0,27.21V25.07H47.59V36.8Z" transform="translate(-4.76 -2.1)"/><rect class="cls-2" x="34.96" y="50.18" width="3.75" height="11.75"/><rect class="cls-2" x="27.09" y="50.18" width="3.75" height="11.75"/><rect class="cls-2" x="27.09" y="42.44" width="11.62" height="3.62"/><rect class="cls-2" x="27.09" y="27.09" width="11.62" height="3.49"/><path d="M66.78,9.84H55.08v-4A3.78,3.78,0,0,0,51.3,2.1H24a3.78,3.78,0,0,0-3.78,3.78v4H8.54a3.78,3.78,0,0,0-3.78,3.78V64.11a3.78,3.78,0,0,0,3.78,3.78H66.78a3.78,3.78,0,0,0,3.78-3.78V13.62A3.78,3.78,0,0,0,66.78,9.84ZM20.24,64.27H8.38V13.46H20.24Zm15.61,0H31.6V52h4.25Zm7.87,0H39.47V52h4.25Zm0-15.86H31.6V44.29H43.72Zm7.74,15.86H47.34V40.67H28v23.6H23.86V5.72h27.6Zm15.48,0H55.08V13.46H66.94Z" transform="translate(-4.76 -2.1)"/><rect x="7.74" y="15.48" width="3.62" height="3.62"/><rect x="7.74" y="23.22" width="3.62" height="3.62"/><rect class="cls-3" x="7.74" y="30.96" width="3.62" height="3.62"/><rect x="7.74" y="38.7" width="3.62" height="3.62"/><rect x="54.43" y="15.48" width="3.62" height="3.62"/><rect x="54.43" y="23.22" width="3.62" height="3.62"/><rect class="cls-3" x="54.43" y="30.96" width="3.62" height="3.62"/><rect x="54.43" y="38.7" width="3.62" height="3.62"/><rect x="7.74" y="46.44" width="3.62" height="3.62"/><rect x="54.43" y="46.44" width="3.62" height="3.62"/><path d="M47.34,9.84H28V21.07H47.34Zm-3.62,7.61H31.6v-4H43.72Z" transform="translate(-4.76 -2.1)"/><path d="M47.34,25.32H28V36.55H47.34Zm-3.62,7.61H31.6v-4H43.72Z" transform="translate(-4.76 -2.1)"/></svg>