<svg id="Layer_1" data-name="Layer 1" xmlns="http://www.w3.org/2000/svg" viewBox="0 0 89.85 89.85"><defs><style>.cls-1{fill:#f4f9fc;}.cls-2{fill:#f27f39;}.cls-3{stroke:#231f20;stroke-miterlimit:10;}</style></defs><path class="cls-1" d="M94.44,105.39h-23s-10.92-1.15-11.59-5.75,1.15-13,1.15-13,6.89-4.21,7.18-4.21,3.16-.57,3.16-.57,6.32-19.25,18.19-17.33,17.33,9.67,17.33,9.67,10.73-4.22,17.43,7.46c0,0,9.29,2,11.2,6.61s-.38,14.27-4.21,15.13-30,1.15-30.26,3-1.63,25.37.48,26.42,4.6-3,5.65-5.26,6.89-18.87,28.15-8l6.61,15.89-7.66,11.87-12.83,4.31s-16.09-12.06-15.61-15.22-3.1-1.88-3.1-1.88l-1.5.35s-4-2.43-4.91-9.29l-2.94,4.34s-2.77,1-3,1-1.81.19-1.81.19l0,12.35-1.18,6.42s-13.6,1.66-15.32,1.28S61.85,149,60.64,149a18.73,18.73,0,0,1-3.19-.13c-.19-.12-3.9-5-3.9-6.57s.19-6.13.51-8.68,1.22-21.32,1.22-21.32l14-2.62,20,3.45.83,4.91s-.19,4.22-.19,4.86v3.57l.26,4.15a4.2,4.2,0,0,1,1.34-.51,3.49,3.49,0,0,0,1.34-.7,6.74,6.74,0,0,0,1.15-2.24c0-.44-.32-7.08-.32-8.42s-.07-7.79-.07-8S94.44,105.39,94.44,105.39Z" transform="translate(-52.67 -62.66)"/><rect class="cls-2" x="8.3" y="53.88" width="21.69" height="4.93"/><rect class="cls-2" x="8.3" y="65.22" width="21.69" height="4.93"/><path class="cls-3" d="M123.39,114.76A18.64,18.64,0,0,0,104.83,132h-1.5a1.44,1.44,0,0,1-1.44-1.43V107.59a1.44,1.44,0,0,1,1.44-1.43h21.49a12.9,12.9,0,0,0,2.47-25.57,13.37,13.37,0,0,0-3.21-.2,12.9,12.9,0,0,0-12.15-8.63,12.76,12.76,0,0,0-4.5.82,20,20,0,0,0-36.84,7.79,14,14,0,0,0-2.8.24,12.91,12.91,0,0,0,2.58,25.55H91.86a1.44,1.44,0,0,1,1.44,1.43v20.06a1.45,1.45,0,0,1-1.44,1.44H90.43v-12.9A7.18,7.18,0,0,0,83.26,109H60.34a7.18,7.18,0,0,0-7.17,7.17v28.66A7.18,7.18,0,0,0,60.34,152H83.26a7.18,7.18,0,0,0,7.17-7.17V132h1.43a4.31,4.31,0,0,0,4.3-4.3V107.59a4.31,4.31,0,0,0-4.3-4.3H70.37a10,10,0,0,1-7.75-3.65,10.17,10.17,0,0,1-2.09-8.41,10,10,0,0,1,7.81-7.8,10.11,10.11,0,0,1,8.4,2.08,10,10,0,0,1,3.66,7.75h2.86a12.84,12.84,0,0,0-9.83-12.52,17.18,17.18,0,0,1,32.14-5.66l.66,1.22,1.24-.62a10,10,0,1,1,4.46,19v2.87a12.88,12.88,0,0,0,12.81-14.31,9.85,9.85,0,0,1,9.92,8,10.18,10.18,0,0,1-2.09,8.41,10,10,0,0,1-7.75,3.65H103.33a4.31,4.31,0,0,0-4.3,4.3v22.93a4.31,4.31,0,0,0,4.3,4.3h1.5a18.62,18.62,0,1,0,18.56-20.06Zm-63-2.87H83.26a4.3,4.3,0,0,1,4.3,4.3v21.5H56v-21.5a4.3,4.3,0,0,1,4.3-4.3Zm22.92,37.26H60.34a4.3,4.3,0,0,1-4.3-4.3v-4.3H87.56v4.3a4.3,4.3,0,0,1-4.3,4.3Zm40.13-31.53a15.76,15.76,0,0,1,13.08,24.56,12.79,12.79,0,0,0-7.4-6.65,8.61,8.61,0,1,0-11.35,0,12.84,12.84,0,0,0-7.41,6.65,15.77,15.77,0,0,1,13.08-24.56Zm-5.73,11.47a5.73,5.73,0,1,1,5.73,5.73,5.74,5.74,0,0,1-5.73-5.73Zm-5.23,15.6a10,10,0,0,1,9.53-7h2.86a9.94,9.94,0,0,1,9.53,7,15.7,15.7,0,0,1-21.92,0Zm0,0" transform="translate(-52.67 -62.66)"/><path d="M61.77,123.35H81.83a2.87,2.87,0,0,0,2.87-2.86v-2.87a2.87,2.87,0,0,0-2.87-2.86H61.77a2.87,2.87,0,0,0-2.87,2.86v2.87a2.87,2.87,0,0,0,2.87,2.86Zm0-5.73H81.83v2.87H61.77Zm0,0" transform="translate(-52.67 -62.66)"/><path d="M61.77,134.82H81.83A2.88,2.88,0,0,0,84.7,132v-2.86a2.88,2.88,0,0,0-2.87-2.87H61.77a2.88,2.88,0,0,0-2.87,2.87V132a2.88,2.88,0,0,0,2.87,2.87Zm0-5.73H81.83V132H61.77Zm0,0" transform="translate(-52.67 -62.66)"/><rect class="cls-3" x="29.16" y="80.75" width="2.87" height="2.87"/><rect class="cls-3" x="23.43" y="80.75" width="2.87" height="2.87"/><rect class="cls-3" x="17.7" y="80.75" width="2.87" height="2.87"/><path class="cls-3" d="M74.67,93.26h2.86a7.17,7.17,0,0,0-7.16-7.17V89a4.31,4.31,0,0,1,4.3,4.3Zm0,0" transform="translate(-52.67 -62.66)"/><path class="cls-3" d="M103.27,76.86a14.26,14.26,0,0,0-12.84-8v2.86a11.39,11.39,0,0,1,10.27,6.37Zm0,0" transform="translate(-52.67 -62.66)"/><path class="cls-3" d="M116.23,84.66a4.31,4.31,0,0,1-4.3,4.3v2.87a7.17,7.17,0,0,0,7.16-7.17Zm0,0" transform="translate(-52.67 -62.66)"/><rect class="cls-3" x="17.7" y="34.89" width="2.87" height="2.87"/><rect class="cls-3" x="23.43" y="34.89" width="2.87" height="2.87"/><rect class="cls-3" x="29.16" y="34.89" width="2.87" height="2.87"/></svg>