<svg id="Layer_1" data-name="Layer 1" xmlns="http://www.w3.org/2000/svg" viewBox="0 0 66.35 66.35"><defs><style>.cls-1{fill:#f5fafd;}.cls-2{fill:#f38039;}</style></defs><path class="cls-1" d="M87.84,87.84h7.74l1-5.84,4.31-.24a17.57,17.57,0,0,0,2-2.15c-.1-.15-1.15-2.35-1.39-2.59A14.13,14.13,0,0,1,100,75.2a24.9,24.9,0,0,1,2-2.58A15.44,15.44,0,0,1,104.21,71c.14,0,2.25,2.1,2.63,2.49s2.68.09,2.68.09l2.2-2.2-.33-3,4.07-.71,2.23.43v3.73a34.74,34.74,0,0,0,3.56,2.54c.19-.1,2.87-3.21,2.87-3.21L130,75.67l-3.64,2.84,1.2,3.73,4.59.33.53,6.47h-5.17l-1.87,3.49,3.16,3.64-3.92,4.17-4.36-3.45,2.69,3.16v6.37l-1.1,25.75H73.46s-5.68-.38-5.87-6,0-39,0-39,.28-6.32,2.68-6.7S74.48,80,74.48,80l.57,8.67,9.86,1Z" transform="translate(-66.82 -66.82)"/><path d="M72.35,133.18h49.77a1.11,1.11,0,0,0,1.1-1.11V103.32H121V131H72.35a3.32,3.32,0,0,1,0-6.63h2.22a1.11,1.11,0,0,0,1.1-1.11V90.05H93.36V87.84H75.67V80.09a1.1,1.1,0,0,0-1.1-1.1H72.35a5.54,5.54,0,0,0-5.53,5.53v43.13a5.55,5.55,0,0,0,5.53,5.53ZM69,88.94V84.52a3.32,3.32,0,0,1,3.31-3.32h1.11v40.92H72.35a5.49,5.49,0,0,0-3.31,1.1Zm0,0" transform="translate(-66.82 -66.82)"/><path d="M92.26,93.36H79a1.11,1.11,0,0,0-1.11,1.11v8.85a1.11,1.11,0,0,0,1.11,1.1H92.26a1.1,1.1,0,0,0,1.1-1.1V100h4.43V97.79H93.36V94.47a1.11,1.11,0,0,0-1.1-1.11Zm-1.11,8.85H80.09V95.58H91.15Zm0,0" transform="translate(-66.82 -66.82)"/><path d="M103.32,124.33h13.27a1.11,1.11,0,0,0,1.1-1.11v-8.84a1.11,1.11,0,0,0-1.1-1.11h-5.53v-6.63h-2.21v6.63h-5.53a1.11,1.11,0,0,0-1.11,1.11v3.31H93.36v-3.31a1.11,1.11,0,0,0-1.1-1.11H79a1.11,1.11,0,0,0-1.11,1.11v8.84A1.11,1.11,0,0,0,79,124.33H92.26a1.11,1.11,0,0,0,1.1-1.11v-3.31h8.85v3.31a1.11,1.11,0,0,0,1.11,1.11Zm1.1-8.85h11.06v6.64H104.42Zm-13.27,6.64H80.09v-6.64H91.15Zm0,0" transform="translate(-66.82 -66.82)"/><path d="M114.38,75.67a10,10,0,1,0,10,10,10,10,0,0,0-10-10Zm0,17.69a7.74,7.74,0,1,1,7.74-7.74,7.73,7.73,0,0,1-7.74,7.74Zm0,0" transform="translate(-66.82 -66.82)"/><path d="M132.07,90.05a1.11,1.11,0,0,0,1.11-1.11V82.31a1.11,1.11,0,0,0-1.11-1.11h-4a15.59,15.59,0,0,0-.87-2.11L130,76.25a1.12,1.12,0,0,0,0-1.57l-4.7-4.7a1.06,1.06,0,0,0-.78-.32,1.1,1.1,0,0,0-.78.32l-2.85,2.85A15.59,15.59,0,0,0,118.8,72v-4a1.11,1.11,0,0,0-1.11-1.11h-6.63A1.11,1.11,0,0,0,110,67.93v4a16.14,16.14,0,0,0-2.11.87L105,70a1.12,1.12,0,0,0-1.57,0l-4.7,4.7a1.08,1.08,0,0,0-.32.78,1.1,1.1,0,0,0,.32.78l2.85,2.84a16.27,16.27,0,0,0-.87,2.12h-4a1.11,1.11,0,0,0-1.1,1.11v6.63a1.11,1.11,0,0,0,1.1,1.11h4a14.92,14.92,0,0,0,.88,2.11L98.73,95a1.12,1.12,0,0,0,0,1.57l4.7,4.69a1.1,1.1,0,0,0,1.56,0l2.85-2.85a14.92,14.92,0,0,0,2.11.88v4a1.11,1.11,0,0,0,1.11,1.1h6.63a1.11,1.11,0,0,0,1.11-1.1v-4a14.45,14.45,0,0,0,2.11-.88l2.85,2.85a1.1,1.1,0,0,0,1.56,0l4.7-4.69A1.12,1.12,0,0,0,130,95l-2.85-2.84a16.14,16.14,0,0,0,.87-2.11Zm-5.92-1.39a12.35,12.35,0,0,1-1.31,3.14,1.1,1.1,0,0,0,.18,1.34l2.65,2.65-3.13,3.12-2.64-2.64a1.11,1.11,0,0,0-1.34-.18,12.39,12.39,0,0,1-3.15,1.3,1.11,1.11,0,0,0-.82,1.07v3.75h-4.43V98.46a1.1,1.1,0,0,0-.82-1.07,12.33,12.33,0,0,1-3.14-1.3,1.1,1.1,0,0,0-1.34.18l-2.65,2.64-3.13-3.12,2.65-2.65a1.1,1.1,0,0,0,.18-1.34,12.7,12.7,0,0,1-1.3-3.14,1.1,1.1,0,0,0-1.07-.82H97.79V83.41h3.75a1.11,1.11,0,0,0,1.07-.82,12.33,12.33,0,0,1,1.3-3.14,1.1,1.1,0,0,0-.18-1.34l-2.65-2.65,3.13-3.13L106.86,75a1.11,1.11,0,0,0,1.34.18,12.35,12.35,0,0,1,3.14-1.31,1.09,1.09,0,0,0,.82-1.06V69h4.43v3.75a1.09,1.09,0,0,0,.82,1.06,12.35,12.35,0,0,1,3.14,1.31A1.12,1.12,0,0,0,121.9,75l2.64-2.65,3.14,3.13L125,78.11a1.1,1.1,0,0,0-.17,1.34,12.7,12.7,0,0,1,1.3,3.14,1.1,1.1,0,0,0,1.06.82H131v4.43h-3.75a1.08,1.08,0,0,0-1.06.82Zm0,0" transform="translate(-66.82 -66.82)"/><path d="M114.38,81.2a4.43,4.43,0,1,0,4.42,4.42,4.42,4.42,0,0,0-4.42-4.42Zm0,6.64a2.22,2.22,0,1,1,2.21-2.22,2.21,2.21,0,0,1-2.21,2.22Zm0,0" transform="translate(-66.82 -66.82)"/><rect class="cls-2" x="13.27" y="28.75" width="11.06" height="6.64"/></svg>