<svg id="Layer_1" data-name="Layer 1" xmlns="http://www.w3.org/2000/svg" viewBox="0 0 65.95 66.08"><defs><style>.cls-1{fill:#f4f9fc;}.cls-2{fill:none;}.cls-3{fill:#f27f39;}</style></defs><path class="cls-1" d="M23.74,28.05,20.2,25.74A4.85,4.85,0,0,1,18.48,22,11.93,11.93,0,0,1,20,17.15h2.78l1.37-3S22,12.62,22.5,11.38A6.11,6.11,0,0,1,24.16,8.7c.64-.48,2.94-3,2.94-3l3.63,3.64,3.45-1.92V4.58l8-.57V7.07l3.44,2.68,2.78-2.68,5.75,5.46-2.94,3,1.4,3.25H56.2v8.33l-4-.38-1,3.27,2.36,2.86-5.46,5.93-3.25-2.49-2.3.77-.57,4.59-8.33-.57-1.4-4.12-2.82-.76L27.57,37.8l-4.78-3.92L21.64,31.1Z" transform="translate(-4.68 -1.95)"/><path class="cls-1" d="M10.44,22.2H64.15l1.24,26.35,3.26,1L69.13,66,56.2,67l-.48-9.1-9-.67v9.38L29.2,66.05l-.63-8.14H19.34l-.29,7.66S6.7,67.58,6.7,67s-1-15.59-1-15.59l3.16-2.87,1.43-1.17Z" transform="translate(-4.68 -1.95)"/><path class="cls-2" d="M53.74,29.88l3,3-.08.09-8.72,8.71-3-3c-.35.16-.7.3-1,.44v4.24H39.73v4.17H48v8.3h6.24v-8.3h8.31V24.67H58.42v4.15H54.18C54.05,29.18,53.9,29.53,53.74,29.88Z" transform="translate(-4.68 -1.95)"/><path d="M37.66,31.69a9.09,9.09,0,1,0-9.09-9.09A9.1,9.1,0,0,0,37.66,31.69Zm0-14.54a5.45,5.45,0,1,1-5.45,5.45A5.46,5.46,0,0,1,37.66,17.15Z" transform="translate(-4.68 -1.95)"/><path d="M66.52,14l4.12-4.12V2H67V8.34l0,0L62.84,12.5v8.28H58.17V16.62H54l0-.08c-.15-.4-.31-.8-.49-1.2l0-.07,3-2.95L47.94,3.87,45,6.82l-.08,0c-.38-.18-.79-.35-1.19-.5l-.08,0V2.08h-12V6.25l-.08,0c-.4.15-.81.32-1.19.5l-.08,0-.06-.07L27.38,3.87l-8.45,8.45,2.95,2.95,0,.07c-.18.39-.34.79-.49,1.2l0,.08H17.14v4.16H12.48V12.5L8.33,8.34V2H4.68v7.9L8.84,14V47.78H4.68V68H20.79V59.73h6.74V68H47.79V59.73h6.74V68H70.64V47.78H66.48V14Zm-45.73,6.3H24l.1-.36a15.86,15.86,0,0,1,2.25-5.3l-2.3-2.29L27.38,9l2.29,2.29.34-.19A15.94,15.94,0,0,1,35.33,9V5.73H40V9l.35.1a15.9,15.9,0,0,1,5.31,2.25L47.94,9l3.3,3.3-2.3,2.29.19.33a16.21,16.21,0,0,1,2.16,5.33h3.24v4.66H51.29l-.1.36a15.81,15.81,0,0,1-2.25,5.29l2.3,2.3-3.3,3.3-2.29-2.3-.33.19A16.21,16.21,0,0,1,40,36.23v3.24H35.33V36.23l-.37-.1a16.33,16.33,0,0,1-5.29-2.25l-2.29,2.3-3.3-3.3,2.3-2.29-.19-.34A16.15,16.15,0,0,1,24,24.93H20.79ZM17.14,64.39H8.33v-13h8.81Zm10.39-8.31H20.79v-8.3H12.48V24.42h4.66v4.15h4.17l0,.09c.14.39.31.8.49,1.19l0,.08-2.95,3,8.45,8.45,2.95-2.95.08,0c.39.18.79.34,1.19.49l.08,0v4.17h4.16v4.67H27.53Zm16.61,8.31h-13v-13h13Zm10.39-8.31H47.79v-8.3H39.48V43.11h4.16V38.94l.08,0c.4-.15.8-.31,1.19-.49l.08,0,.06.06,2.89,2.89,8.45-8.45-3-3,0-.08c.18-.39.35-.79.49-1.19l0-.09h4.17V24.42h4.67V47.78H54.53ZM67,51.42v13H58.17v-13Z" transform="translate(-4.68 -1.95)"/><rect class="cls-3" x="31.15" y="54.13" width="3.65" height="3.64"/><rect class="cls-3" x="56.33" y="54.13" width="3.65" height="3.64"/><rect class="cls-3" x="6.23" y="54.13" width="3.65" height="3.64"/></svg>