<svg id="Layer_1" data-name="Layer 1" xmlns="http://www.w3.org/2000/svg" viewBox="0 0 111.29 89.75"><defs><style>.cls-1{fill:#f27f39;stroke:#231f20;stroke-miterlimit:10;stroke-width:3px;}</style></defs><circle class="cls-1" cx="55.66" cy="44.94" r="7.02"/><path d="M101.17,77.61a16.16,16.16,0,1,0,16.15,16.16,16.17,16.17,0,0,0-16.15-16.16Zm0,28.72a12.57,12.57,0,1,1,12.56-12.56,12.58,12.58,0,0,1-12.56,12.56Zm0,0" transform="translate(-45.53 -48.89)"/><path d="M140.66,66.84H155a1.79,1.79,0,0,0,1.79-1.79V50.69a1.8,1.8,0,0,0-1.79-1.8H140.66a1.81,1.81,0,0,0-1.8,1.8v5.38h-5.38a1.81,1.81,0,0,0-1.8,1.8V92h-1.79V90.18a1.8,1.8,0,0,0-1.56-1.78l-4.6-.62a23,23,0,0,0-2.39-5.73l2.83-3.69A1.8,1.8,0,0,0,124,76l-5.08-5.08a1.8,1.8,0,0,0-2.36-.16l-3.7,2.83a23.15,23.15,0,0,0-5.73-2.38l-.61-4.61a1.79,1.79,0,0,0-1.78-1.55H97.58A1.79,1.79,0,0,0,95.8,66.6l-.61,4.61a23.15,23.15,0,0,0-5.73,2.38l-3.7-2.83a1.8,1.8,0,0,0-2.36.16L78.32,76a1.8,1.8,0,0,0-.15,2.36L81,82.05a23,23,0,0,0-2.39,5.73L74,88.4a1.8,1.8,0,0,0-1.56,1.78V92H70.66V57.87a1.81,1.81,0,0,0-1.8-1.8H63.48V50.69a1.81,1.81,0,0,0-1.8-1.8H47.32a1.8,1.8,0,0,0-1.79,1.8V65.05a1.79,1.79,0,0,0,1.79,1.79H61.68a1.8,1.8,0,0,0,1.8-1.79V59.66h3.59V92H63.48V86.59a1.81,1.81,0,0,0-1.8-1.8H47.32a1.8,1.8,0,0,0-1.79,1.8V101a1.79,1.79,0,0,0,1.79,1.79H61.68a1.8,1.8,0,0,0,1.8-1.79V95.56h3.59v32.31H63.48v-5.39a1.8,1.8,0,0,0-1.8-1.79H47.32a1.79,1.79,0,0,0-1.79,1.79v14.36a1.79,1.79,0,0,0,1.79,1.8H61.68a1.8,1.8,0,0,0,1.8-1.8v-5.38h5.38a1.8,1.8,0,0,0,1.8-1.8V95.56h1.79v1.8A1.78,1.78,0,0,0,74,99.13l4.6.62A23,23,0,0,0,81,105.48l-2.83,3.7a1.78,1.78,0,0,0,.15,2.35l5.08,5.08a1.8,1.8,0,0,0,2.36.16l3.7-2.83a23.15,23.15,0,0,0,5.73,2.38l.61,4.61a1.79,1.79,0,0,0,1.78,1.55h7.18a1.79,1.79,0,0,0,1.78-1.55l.61-4.61a23.15,23.15,0,0,0,5.73-2.38l3.7,2.83a1.79,1.79,0,0,0,2.36-.16l5.08-5.08a1.78,1.78,0,0,0,.15-2.35l-2.83-3.7a23,23,0,0,0,2.39-5.73l4.6-.62a1.78,1.78,0,0,0,1.56-1.77v-1.8h1.79v34.1a1.8,1.8,0,0,0,1.8,1.8h5.38v5.38a1.8,1.8,0,0,0,1.8,1.8H155a1.79,1.79,0,0,0,1.79-1.8V122.48a1.79,1.79,0,0,0-1.79-1.79H140.66a1.8,1.8,0,0,0-1.8,1.79v5.39h-3.59V95.56h3.59V101a1.8,1.8,0,0,0,1.8,1.79H155a1.79,1.79,0,0,0,1.79-1.79V86.59a1.8,1.8,0,0,0-1.79-1.8H140.66a1.81,1.81,0,0,0-1.8,1.8V92h-3.59V59.66h3.59v5.39a1.8,1.8,0,0,0,1.8,1.79Zm1.79-14.36h10.77V63.25H142.45ZM59.89,63.25H49.12V52.48H59.89Zm0,35.9H49.12V88.38H59.89Zm0,35.9H49.12V124.28H59.89ZM126.3,95.79l-4.27.56a1.79,1.79,0,0,0-1.52,1.42,19.59,19.59,0,0,1-2.84,6.83,1.8,1.8,0,0,0,.07,2.08l2.63,3.43L117.51,113l-3.43-2.62a1.79,1.79,0,0,0-2.08-.08,19.44,19.44,0,0,1-6.82,2.84,1.81,1.81,0,0,0-1.42,1.52l-.57,4.28h-4l-.57-4.28a1.81,1.81,0,0,0-1.41-1.52,19.41,19.41,0,0,1-6.83-2.84,1.79,1.79,0,0,0-2.08.08L84.83,113,82,110.11l2.62-3.43a1.79,1.79,0,0,0,.07-2.08,19.59,19.59,0,0,1-2.84-6.83,1.8,1.8,0,0,0-1.52-1.42L76,95.79v-4l4.27-.57a1.79,1.79,0,0,0,1.52-1.42,19.62,19.62,0,0,1,2.84-6.82,1.8,1.8,0,0,0-.07-2.08L82,77.42l2.86-2.85,3.43,2.63a1.8,1.8,0,0,0,2.08.07,19.62,19.62,0,0,1,6.82-2.84,1.79,1.79,0,0,0,1.42-1.52l.57-4.27h4l.57,4.27a1.8,1.8,0,0,0,1.42,1.52A19.44,19.44,0,0,1,112,77.27a1.8,1.8,0,0,0,2.08-.07l3.43-2.63,2.86,2.85-2.63,3.44a1.79,1.79,0,0,0-.07,2.07,19.67,19.67,0,0,1,2.84,6.83A1.79,1.79,0,0,0,122,91.18l4.27.57Zm16.15,28.49h10.77v10.77H142.45Zm0-35.9h10.77V99.15H142.45Zm0,0" transform="translate(-45.53 -48.89)"/></svg>