<svg id="Layer_1" data-name="Layer 1" xmlns="http://www.w3.org/2000/svg" viewBox="0 0 90.13 90.13"><defs><style>.cls-1{fill:#f4f9fc;}.cls-2{fill:#f27f39;}</style></defs><rect class="cls-1" x="2.87" y="2.3" width="39.93" height="28.34"/><rect class="cls-1" x="47.87" y="51.7" width="39.93" height="28.34"/><path d="M94.77,88H61a5.64,5.64,0,0,1-5.63-5.63V59.82A5.64,5.64,0,0,1,61,54.19h33.8a5.64,5.64,0,0,1,5.63,5.63V82.36A5.64,5.64,0,0,1,94.77,88ZM61,58a1.87,1.87,0,0,0-1.87,1.87V82.36A1.87,1.87,0,0,0,61,84.23h33.8a1.88,1.88,0,0,0,1.88-1.87V59.82A1.88,1.88,0,0,0,94.77,58Zm0,0" transform="translate(-55.34 -54.19)"/><path d="M83.51,95.5H72.24a1.88,1.88,0,1,1,0-3.76H83.51a1.88,1.88,0,0,1,0,3.76Zm0,0" transform="translate(-55.34 -54.19)"/><path d="M77.87,95.5A1.88,1.88,0,0,1,76,93.62V86.11a1.88,1.88,0,1,1,3.76,0v7.51a1.88,1.88,0,0,1-1.88,1.88Zm0,0" transform="translate(-55.34 -54.19)"/><path d="M139.84,136.81H106a5.64,5.64,0,0,1-5.64-5.63V108.64A5.64,5.64,0,0,1,106,103h33.8a5.64,5.64,0,0,1,5.63,5.63v22.54a5.64,5.64,0,0,1-5.63,5.63Zm-33.8-30a1.88,1.88,0,0,0-1.88,1.87v22.54a1.88,1.88,0,0,0,1.88,1.87h33.8a1.87,1.87,0,0,0,1.87-1.87V108.64a1.87,1.87,0,0,0-1.87-1.87Zm0,0" transform="translate(-55.34 -54.19)"/><path d="M128.57,144.32H117.3a1.88,1.88,0,0,1,0-3.76h11.27a1.88,1.88,0,0,1,0,3.76Zm0,0" transform="translate(-55.34 -54.19)"/><path d="M122.94,144.32a1.88,1.88,0,0,1-1.88-1.88v-7.51a1.88,1.88,0,1,1,3.75,0v7.51a1.88,1.88,0,0,1-1.87,1.88Zm0,0" transform="translate(-55.34 -54.19)"/><path d="M115.43,73h-5.64a1.88,1.88,0,0,1,0-3.76h5.64a1.88,1.88,0,0,1,0,3.76Zm0,0" transform="translate(-55.34 -54.19)"/><path d="M128.57,82.2a1.88,1.88,0,0,1-1.88-1.88V78.6a5.65,5.65,0,0,0-4.13-5.43,1.88,1.88,0,1,1,1-3.62,9.41,9.41,0,0,1,6.89,9v1.72a1.88,1.88,0,0,1-1.88,1.88Zm0,0" transform="translate(-55.34 -54.19)"/><path d="M128.57,95.5a1.88,1.88,0,0,1-1.88-1.88V88a1.88,1.88,0,0,1,3.76,0v5.63a1.88,1.88,0,0,1-1.88,1.88Zm0,0" transform="translate(-55.34 -54.19)"/><path d="M91,129.3H85.38a1.88,1.88,0,0,1,0-3.76H91a1.88,1.88,0,0,1,0,3.76Zm0,0" transform="translate(-55.34 -54.19)"/><path d="M77.74,129a1.77,1.77,0,0,1-.5-.07,9.41,9.41,0,0,1-6.88-9.05v-1.72a1.88,1.88,0,0,1,3.76,0v1.72a5.64,5.64,0,0,0,4.12,5.43,1.88,1.88,0,0,1-.5,3.69Zm0,0" transform="translate(-55.34 -54.19)"/><path d="M72.24,112.4a1.88,1.88,0,0,1-1.88-1.88v-5.63a1.88,1.88,0,0,1,3.76,0v5.63a1.88,1.88,0,0,1-1.88,1.88Zm0,0" transform="translate(-55.34 -54.19)"/><rect class="cls-2" x="60.99" y="66.52" width="14.57" height="7.14"/><rect x="72.68" y="70.73" width="2.92" height="2.92"/><rect x="66.84" y="70.73" width="2.92" height="2.92"/><rect x="60.99" y="70.73" width="2.92" height="2.92"/><rect class="cls-2" x="14.53" y="17.75" width="14.57" height="7.14"/><rect x="26.21" y="21.97" width="2.92" height="2.92"/><rect x="20.37" y="21.97" width="2.92" height="2.92"/><rect x="14.53" y="21.97" width="2.92" height="2.92"/></svg>