<svg id="Layer_1" data-name="Layer 1" xmlns="http://www.w3.org/2000/svg" xmlns:xlink="http://www.w3.org/1999/xlink" viewBox="0 0 66.35 66.35"><defs><style>.cls-1{fill:none;}.cls-2{fill:#f5fafd;}.cls-3{fill:#f38039;}.cls-4{clip-path:url(#clip-path);}</style><clipPath id="clip-path" transform="translate(-66.82 -66.82)"><rect class="cls-1" x="66.82" y="66.82" width="66.35" height="66.35"/></clipPath></defs><path class="cls-2" d="M80.65,122.16v-9.09s-2.72.62-2.72,0A40.33,40.33,0,0,1,80.65,107l.39-.58s18.15-.38,19-.38,20.15,1,20.15,1l3,6s-2.59.1-2.88.19-.57,2.35-.57,2.35l-.24,16.37-27.33.29-11.59.24Z" transform="translate(-66.82 -66.82)"/><rect class="cls-3" x="17.12" y="55.65" width="10.7" height="6.42"/><path d="M104.94,84.23,100,83l-4.94,1.26-.39-5.31-2.62-4.48,4.64-2,3.31-4.1,3.31,4.1,4.65,2-2.63,4.48Zm0,0" transform="translate(-66.82 -66.82)"/><path d="M78.35,89.58l-3-.75-3,.75-.23-3.17-1.56-2.65,2.76-1.19,2-2.46,2,2.45,2.75,1.2-1.55,2.65Zm0,0" transform="translate(-66.82 -66.82)"/><path d="M127.57,89.58l-3-.75-3,.75-.23-3.17-1.55-2.65,2.75-1.19,2-2.46,2,2.45,2.76,1.2-1.56,2.65Zm0,0" transform="translate(-66.82 -66.82)"/><path d="M89.76,102.56l-4.24-5.3a23.81,23.81,0,0,0-5.38-4.93l-.78-.52,3.14-6.28,1,.77a13.7,13.7,0,0,1,5.36,9.24Zm0,0" transform="translate(-66.82 -66.82)"/><path d="M110.24,102.56l.88-7a13.7,13.7,0,0,1,5.36-9.24l1-.77,3.13,6.27-.78.53a23.81,23.81,0,0,0-5.38,4.93Zm0,0" transform="translate(-66.82 -66.82)"/><path d="M119.92,105.35H80.08l-4.29,8.56h3.88v19.27h40.66V113.91h3.88Zm-1.32,2.14,2.14,4.28H103.87l-2.14-4.28Zm-37.2,0H98.27l-2.14,4.28H79.26ZM118.19,131H101.07v-7.5H98.93V131H81.81V113.91H97.45l1.48-3v9.38h2.14V111l1.48,3h15.64Zm0,0" transform="translate(-66.82 -66.82)"/><rect x="17.12" y="55.65" width="6.42" height="2.14"/><rect x="17.12" y="59.93" width="6.42" height="2.14"/><rect x="25.68" y="59.93" width="2.14" height="2.14"/><path d="M106.42,98.73a22.08,22.08,0,0,1,5.1-14.1l-1.64-1.37a24.23,24.23,0,0,0-5.6,15.47v4.48h2.14Zm0,0" transform="translate(-66.82 -66.82)"/><rect x="44.95" y="12.84" width="2.14" height="2.14"/><rect x="48.16" y="8.56" width="2.14" height="2.14"/><path d="M93.58,103.21h2.14V98.73a24.23,24.23,0,0,0-5.6-15.47l-1.64,1.37a22.08,22.08,0,0,1,5.1,14.1Zm0,0" transform="translate(-66.82 -66.82)"/><rect x="19.26" y="12.84" width="2.14" height="2.14"/><rect x="16.05" y="8.56" width="2.14" height="2.14"/><rect x="32.11" y="18.19" width="2.14" height="2.14"/><rect x="32.11" y="22.47" width="2.14" height="13.91"/><rect x="62.07" y="28.89" width="2.14" height="2.14"/><g class="cls-4"><rect x="62.07" y="33.18" width="2.14" height="2.14"/><rect x="64.21" y="31.04" width="2.14" height="2.14"/></g><rect x="59.93" y="31.04" width="2.14" height="2.14"/><rect x="58.86" width="2.14" height="2.14"/><rect x="58.86" y="4.28" width="2.14" height="2.14"/><rect x="61" y="2.14" width="2.14" height="2.14"/><rect x="56.72" y="2.14" width="2.14" height="2.14"/><rect x="2.14" y="33.18" width="2.14" height="2.14"/><rect x="2.14" y="37.46" width="2.14" height="2.14"/><rect x="4.28" y="35.32" width="2.14" height="2.14"/><rect y="35.32" width="2.14" height="2.14"/><rect x="2.14" width="2.14" height="2.14"/><rect x="2.14" y="4.28" width="2.14" height="2.14"/><rect x="4.28" y="2.14" width="2.14" height="2.14"/><rect y="2.14" width="2.14" height="2.14"/></svg>