<svg id="Layer_1" data-name="Layer 1" xmlns="http://www.w3.org/2000/svg" viewBox="0 0 90.38 90.38"><path d="M100.4,73.71a8.75,8.75,0,1,0,8.75,8.74,8.75,8.75,0,0,0-8.75-8.74Zm0,14.57a5.83,5.83,0,1,1,5.84-5.83,5.84,5.84,0,0,1-5.84,5.83Zm0,0" transform="translate(-55.21 -53.3)"/><rect x="43.73" y="5.83" width="2.92" height="2.92"/><path d="M82.88,67l2.06-2.06L87,67l-2.06,2.07Zm0,0" transform="translate(-55.21 -53.3)"/><rect x="21.87" y="27.7" width="2.92" height="2.92"/><path d="M82.87,97.91l2.07-2.06L87,97.91,84.94,100Zm0,0" transform="translate(-55.21 -53.3)"/><rect x="43.73" y="49.56" width="2.92" height="2.92"/><path d="M113.79,97.92l2.07-2.06,2.06,2.06L115.86,100Zm0,0" transform="translate(-55.21 -53.3)"/><rect x="65.6" y="27.7" width="2.92" height="2.92"/><path d="M113.8,67l2.06-2.06L117.92,67l-2.06,2.06Zm0,0" transform="translate(-55.21 -53.3)"/><path d="M100.4,65a17.5,17.5,0,1,0,17.5,17.49A17.51,17.51,0,0,0,100.4,65Zm0,32.07A14.58,14.58,0,1,1,115,82.45,14.59,14.59,0,0,1,100.4,97Zm0,0" transform="translate(-55.21 -53.3)"/><path d="M139.76,117.44v-2.91H131V94.84l-5.69-4.26c.15-.48.3-1,.43-1.44l3.8-1.26V77l-3.8-1.27a26,26,0,0,0-2.7-6.5l1.8-3.59L117.18,58l-3.58,1.8a26,26,0,0,0-6.5-2.7l-1.27-3.8H95l-1.27,3.8a26,26,0,0,0-6.5,2.7L83.62,58,76,65.67l1.8,3.59a26,26,0,0,0-2.7,6.5L71.25,77V87.88l3.8,1.26c.12.49.27,1,.43,1.44l-5.69,4.26v19.69H61v2.91H55.21v23.33H65.45a7.24,7.24,0,0,0,11.6,0H87.28V117.44H81.45v-2.91H72.71V96.3l3.88-2.91a23.9,23.9,0,0,0,1.16,2.25L76,99.23l7.68,7.67,3.58-1.79a26.36,26.36,0,0,0,6.5,2.7l1.27,3.8h10.85l1.26-3.8a25.9,25.9,0,0,0,6.51-2.7l3.58,1.79,7.68-7.67-1.8-3.59a25.19,25.19,0,0,0,1.16-2.25l3.88,2.91v18.23h-8.74v2.91h-5.84v23.33h10.24a7.24,7.24,0,0,0,11.6,0H145.6V117.44Zm-55.39,2.92v17.49H75.43l-.42.72a4.31,4.31,0,0,1-7.52,0l-.43-.72H58.13V120.36H61v14.57H81.45V120.36ZM78.54,132H64V117.44H78.54Zm38.07-28.66-3.16-1.58-.7.43a23.21,23.21,0,0,1-7.11,3l-.8.18-1.11,3.34H97.08L96,105.35l-.8-.18a23.27,23.27,0,0,1-7.12-3l-.69-.43-3.16,1.58-4.7-4.7,1.58-3.16-.44-.7a23.19,23.19,0,0,1-3-7.11l-.18-.8-3.35-1.11V79.13L77.51,78l.18-.79a23,23,0,0,1,3-7.12l.43-.7L79.5,66.25l4.7-4.7,3.16,1.58.69-.44a23.24,23.24,0,0,1,7.12-2.95l.8-.18,1.11-3.35h6.65l1.11,3.35.8.18a23.24,23.24,0,0,1,7.12,2.95l.69.44,3.16-1.58,4.7,4.7-1.58,3.16.44.69a23.24,23.24,0,0,1,3,7.12l.18.8,3.34,1.11v6.65l-3.34,1.11-.18.8a23,23,0,0,1-3,7.12l-.43.69,1.58,3.16Zm5.66,14.08h14.58V132H122.27Zm20.41,20.41h-8.94l-.42.72a4.31,4.31,0,0,1-7.52,0l-.42-.72h-8.94V120.36h2.92v14.57h20.4V120.36h2.92Zm0,0" transform="translate(-55.21 -53.3)"/><rect x="69.97" y="67.06" width="8.75" height="2.92"/><rect x="69.97" y="72.89" width="8.75" height="2.92"/><rect x="11.66" y="67.06" width="8.75" height="2.92"/><rect x="11.66" y="72.89" width="8.75" height="2.92"/><path d="M88.14,126.19h5v17.49h14.57V126.19h5L100.4,113.92Zm16.64-2.92v17.5H96v-17.5h-.85L100.4,118l5.23,5.23Zm0,0" transform="translate(-55.21 -53.3)"/></svg>