<svg id="Layer_1" data-name="Layer 1" xmlns="http://www.w3.org/2000/svg" xmlns:xlink="http://www.w3.org/1999/xlink" viewBox="0 0 72 66.35"><defs><style>.cls-1{fill:none;}.cls-2{fill:#f5fafd;}.cls-3{clip-path:url(#clip-path);}.cls-4{fill:#f38039;}</style><clipPath id="clip-path" transform="translate(-63.91 -66.82)"><rect class="cls-1" x="63.91" y="66.82" width="72.18" height="66.35"/></clipPath></defs><path class="cls-2" d="M65.43,128.87c.09-1,0-16.42,0-16.42h8.85l.82-2.06h9.28s-1.43,3.4.39,3.35,6.36-3.35,9.38-2.54,21,4.74,21.78,6.42,1.58,1,1.58,1l14-7.76s5.38,4.22,1.55,7.09-20.2,11.92-20.2,11.92-5.46,1.24-6.42,1.24-17.71-.43-17.71-.43l-3.83-2L84.72,132H74.66l-.19-2.87Z" transform="translate(-63.91 -66.82)"/><path class="cls-2" d="M102.53,96.79s.14-2.39-.43-2.39a13.69,13.69,0,0,1-3.45,0c-.86-.29-1.77-.48-1.92-1.25s.1-.47,0-2.2-.09-3.25.2-3.59,4.11-.91,4.11-.91,1.34-.38,1.06-1.15-.82-.83-1.11-1.59S99.64,82,99.91,81s1.47-2,2.09-2.64a22,22,0,0,1,2.82-2s1.34,2.15,1.78,2.63,1.6,1.48,2,1.15a4.33,4.33,0,0,0,.73-2.3,15.67,15.67,0,0,1,.48-3.35c.19-.34,2.15-.62,3.35-.62s3.59.21,4.16.29.48-.11.43,1.21-.48,3.28-.43,3.62-.12,1.24.47,1.29A8.31,8.31,0,0,0,121,78.6c.23-.38,1-2.2,1.67-1.77s1.2.14,2.11,1.15,2.87,3.64,2.87,3.64-2.11,2.53-2.39,3-2,.11-.58,1.54,1.2,1.28,2.25,1.42,2.92-.76,2.78,0,.86,5.8.81,6.13-5.65,1.25-5.65,1.25-.86,2.15-.28,2.58a30.79,30.79,0,0,1,2.48,2.92l.1.58s.1.28-1.15,1.38-2.2,2.16-2.92,2.64-2.49-.58-2.78-.82-1.1-2-1.57-2-1.54,0-1.68.34a15.8,15.8,0,0,0-.24,2.92,7.8,7.8,0,0,1-.67,3,15.39,15.39,0,0,1-2.8-.2,4.51,4.51,0,0,1-2.51-1s-1.1-2.2-1.3-2.78-.91-2.29-1.38-2.25-1-.28-1.39,1.15a2.23,2.23,0,0,1-2.25,1.54c-.39,0-4.17-1.44-4.26-2s-.63-1.38-.63-1.77a10.52,10.52,0,0,1,1.2-3.06A5,5,0,0,1,102.53,96.79Z" transform="translate(-63.91 -66.82)"/><path class="cls-2" d="M92.19,78.89a16,16,0,0,1-1.74,2.58c-.27,0-2.14-1-2.19-.17s.77,1.32,1.15,1.94.72,1.68.43,2.11a10.58,10.58,0,0,1-1.58,1.44c-.24.19,0,.76-1.44.62a6.59,6.59,0,0,1-3.06-1.77s-.24,1.82-.24,2.1-1.58,2.4-2.11,2.4-.76,1.2-2,0A5.62,5.62,0,0,1,78,86.6s-.72-.94-1.15-.47-1.39,1.9-2.06,1.52a6.52,6.52,0,0,1-1.53-1.1c-.24-.29-1.25-.81-1.06-1.77s-.09-.82.43-1.68,1.2-.19.53-1.15-.24-.86-1-1.1-2.85-.67-2.85-1,.14-2.92.67-3.12,2,1.3,2.68-.62.82-1.29.34-2.73-.63-.95-.48-1.43,1.87-1.49,2.34-1.73-.43-1.1.77-.24,2.92,1.2,2.92.77a9.74,9.74,0,0,1,.19-2.39A3.23,3.23,0,0,1,81,68c.38.19.91,0,1.39.72s.1.91.79,1.68,1.12.86,1.51.86,1.63-2.2,2.39-1.44a19.78,19.78,0,0,0,1.72,1.63c.2.1.63.53.63.77a23.64,23.64,0,0,1-1.15,2.44s-.67,1.24,0,1.58a19.23,19.23,0,0,0,3.16.67,8.66,8.66,0,0,1,.67,1.67Z" transform="translate(-63.91 -66.82)"/><g class="cls-3"><path d="M135.26,112.55a4.83,4.83,0,0,0-6.58-1.78l-11.76,6.79a4.77,4.77,0,0,0-2.73-2l-18-4.83a8.42,8.42,0,0,0-4.23,0l-6.34,1.59v-2.08a1.2,1.2,0,0,0-1.2-1.2H74.77a1.21,1.21,0,0,0-1.21,1.2v1.21H65.12a1.21,1.21,0,0,0-1.21,1.21v16.89a1.21,1.21,0,0,0,1.21,1.2h8.44V132a1.21,1.21,0,0,0,1.21,1.21h9.65a1.21,1.21,0,0,0,1.2-1.21V130.3l1.56.78A8.49,8.49,0,0,0,91,132H109a8.44,8.44,0,0,0,4.22-1.13l20.27-11.7a4.83,4.83,0,0,0,1.75-6.59Zm-68.94,15.8V113.87h7.24v14.48Zm16.89,2.41H76v-19.3h7.24Zm49.09-13.71L112,128.75a6,6,0,0,1-3,.81H91a6,6,0,0,1-2.69-.64l-2.64-1.32V114.82l6.92-1.73a6.1,6.1,0,0,1,3,0l18,4.83a2.41,2.41,0,1,1-1.25,4.66l-14.39-3.86a1.21,1.21,0,0,0-.62,2.33l14.38,3.86a4.85,4.85,0,0,0,1.26.17,4.76,4.76,0,0,0,4.78-5.21l12.15-7a2.46,2.46,0,0,1,3.29.89,2.42,2.42,0,0,1-.87,3.29Zm0,0" transform="translate(-63.91 -66.82)"/></g><path d="M96.48,95.78H101l.21.5L98,99.48a1.21,1.21,0,0,0,0,1.71l5.11,5.12a1.21,1.21,0,0,0,1.71,0l3.2-3.21a3.89,3.89,0,0,0,.51.21v4.53a1.21,1.21,0,0,0,1.2,1.21H117a1.21,1.21,0,0,0,1.21-1.21v-4.53a4.4,4.4,0,0,0,.5-.21l3.2,3.21a1.25,1.25,0,0,0,1.71,0l5.11-5.12a1.2,1.2,0,0,0,0-1.71l-3.2-3.2.21-.5h4.53a1.21,1.21,0,0,0,1.21-1.21V87.33a1.21,1.21,0,0,0-1.21-1.2h-4.53q-.11-.27-.21-.51l3.2-3.2a1.2,1.2,0,0,0,0-1.71l-5.11-5.11a1.21,1.21,0,0,0-1.71,0l-3.2,3.2-.5-.21V74.06a1.21,1.21,0,0,0-1.21-1.2h-7.24a1.2,1.2,0,0,0-1.2,1.2v4.53l-.51.21-3.2-3.2a1.25,1.25,0,0,0-1.71,0L98,80.71a1.21,1.21,0,0,0,0,1.71l3.2,3.2q-.1.24-.21.51H96.48a1.2,1.2,0,0,0-1.2,1.2v7.24a1.21,1.21,0,0,0,1.2,1.21Zm1.21-7.24h4.17A1.2,1.2,0,0,0,103,87.7a9.85,9.85,0,0,1,.73-1.74,1.21,1.21,0,0,0-.2-1.43l-3-3L104,78.16l3,3a1.2,1.2,0,0,0,1.43.2,10,10,0,0,1,1.75-.73,1.22,1.22,0,0,0,.83-1.15V75.27h4.82v4.17a1.2,1.2,0,0,0,.84,1.15,9.85,9.85,0,0,1,1.74.73,1.21,1.21,0,0,0,1.44-.2l3-3,3.4,3.41-3,3A1.2,1.2,0,0,0,123,86a9.85,9.85,0,0,1,.73,1.74,1.21,1.21,0,0,0,1.15.84h4.17v4.82h-4.17a1.21,1.21,0,0,0-1.15.84A10,10,0,0,1,123,96a1.2,1.2,0,0,0,.21,1.43l3,3-3.4,3.41-3-3a1.23,1.23,0,0,0-1.44-.21,9.15,9.15,0,0,1-1.74.73,1.21,1.21,0,0,0-.84,1.15v4.18H111v-4.18a1.21,1.21,0,0,0-.84-1.15,9.15,9.15,0,0,1-1.74-.73,1.23,1.23,0,0,0-1.44.21l-3,3-3.41-3.41,3-3a1.21,1.21,0,0,0,.21-1.43A9.24,9.24,0,0,1,103,94.2a1.23,1.23,0,0,0-1.16-.84H97.69Zm0,0" transform="translate(-63.91 -66.82)"/><path d="M113.37,98.19A7.23,7.23,0,1,1,120.61,91a7.23,7.23,0,0,1-7.24,7.24Zm0-12.06A4.82,4.82,0,1,0,118.2,91a4.82,4.82,0,0,0-4.83-4.82Zm0,0" transform="translate(-63.91 -66.82)"/><path d="M83.21,91H78.39a1.21,1.21,0,0,1-1.21-1.2V87.63l-1.5,1.5a1.21,1.21,0,0,1-1.71,0l-3.41-3.42a1.2,1.2,0,0,1,0-1.7l1.5-1.5H69.94a1.21,1.21,0,0,1-1.21-1.21V76.48a1.21,1.21,0,0,1,1.21-1.21h2.12l-1.5-1.5a1.21,1.21,0,0,1,0-1.71L74,68.65a1.21,1.21,0,0,1,1.71,0l1.5,1.5V68a1.21,1.21,0,0,1,1.21-1.21h4.82A1.21,1.21,0,0,1,84.42,68v2.12l1.5-1.5a1.2,1.2,0,0,1,1.7,0L91,72.06a1.21,1.21,0,0,1,0,1.71l-1.5,1.5h2.12a1.21,1.21,0,0,1,1.2,1.21V81.3a1.21,1.21,0,0,1-1.2,1.21H89.54L91,84a1.2,1.2,0,0,1,0,1.7l-3.42,3.42a1.2,1.2,0,0,1-1.7,0l-1.5-1.5v2.12A1.21,1.21,0,0,1,83.21,91Zm-3.62-2.41H82V85.7a1.2,1.2,0,0,1,.86-1.15,3,3,0,0,0,.49-.2,1.2,1.2,0,0,1,1.41.21l2,2,1.71-1.71-2-2a1.21,1.21,0,0,1-.22-1.41,3,3,0,0,0,.21-.49,1.2,1.2,0,0,1,1.15-.86h2.84V77.68H87.61a1.2,1.2,0,0,1-1.15-.86,2.86,2.86,0,0,0-.2-.48,1.21,1.21,0,0,1,.21-1.42l2-2-1.71-1.71-2,2a1.2,1.2,0,0,1-1.41.21,2.55,2.55,0,0,0-.48-.2A1.21,1.21,0,0,1,82,72.07V69.24H79.59v2.83a1.21,1.21,0,0,1-.86,1.16,2.55,2.55,0,0,0-.48.2,1.18,1.18,0,0,1-1.41-.22l-2-2-1.71,1.71,2,2a1.21,1.21,0,0,1,.21,1.42,2.86,2.86,0,0,0-.2.48,1.2,1.2,0,0,1-1.15.86H71.15v2.41H74a1.22,1.22,0,0,1,1.16.86,3,3,0,0,0,.2.49,1.18,1.18,0,0,1-.22,1.41l-2,2,1.71,1.71,2-2a1.23,1.23,0,0,1,1.42-.22,2.55,2.55,0,0,0,.48.2,1.22,1.22,0,0,1,.86,1.16Zm0,0" transform="translate(-63.91 -66.82)"/><path d="M80.8,83.71a4.82,4.82,0,1,1,4.82-4.82,4.82,4.82,0,0,1-4.82,4.82Zm0-7.23a2.41,2.41,0,1,0,.92,4.64,2.41,2.41,0,0,0-.92-4.64Zm0,0" transform="translate(-63.91 -66.82)"/><circle class="cls-4" cx="49.46" cy="24.13" r="4.83"/></svg>