<svg id="Layer_1" data-name="Layer 1" xmlns="http://www.w3.org/2000/svg" viewBox="0 0 51.53 66.35"><defs><style>.cls-1{fill:#f4f9fc;}.cls-2{fill:none;}.cls-3{fill:#f38039;}</style></defs><rect class="cls-1" x="12.8" y="2.79" width="36.33" height="60.79"/><path class="cls-2" d="M56.92,6H49.16c-6.7,0-13.63,0-20.44,0h0a2.45,2.45,0,0,0-1.77.58,2.48,2.48,0,0,0-.59,1.81q0,9.78,0,19.55V61.65c0,1.7.6,2.31,2.29,2.31H56.92c1.69,0,2.29-.6,2.29-2.3V8.32C59.21,6.65,58.59,6,56.92,6Z" transform="translate(-11.89 -1.82)"/><path d="M63.41,8.05a6.12,6.12,0,0,0-.35-2.22,6,6,0,0,0-6-4q-14.3,0-28.58,0A7.36,7.36,0,0,0,26.74,2a6,6,0,0,0-4.58,6.14V43q0,9.45,0,18.9a6.29,6.29,0,0,0,1.78,4.57,6,6,0,0,0,4.37,1.72h0c5.43,0,10.27,0,14.75,0,5.07,0,9.68,0,14.14,0h.05a6.13,6.13,0,0,0,4.3-1.8,6.22,6.22,0,0,0,1.85-4.45q0-18.91,0-37.84ZM56.92,64.56H28.65c-2,0-2.89-.9-2.89-2.91V27.94q0-9.78,0-19.55a3,3,0,0,1,.77-2.23A3,3,0,0,1,28.7,5.4h0c6.81,0,13.73,0,20.43,0h7.76c2,0,2.89.9,2.89,2.9V61.66C59.81,63.69,59,64.56,56.92,64.56Z" transform="translate(-11.89 -1.82)"/><path class="cls-3" d="M47.06,56.2H38.49c-1.21,0-1.67.47-1.67,1.72,0,1.43.38,1.87,1.65,1.88,1,0,2,0,3,0h5.64c.65,0,1.14-.09,1.41-.55a2.66,2.66,0,0,0,.1-2.31C48.4,56.41,48,56.2,47.06,56.2Z" transform="translate(-11.89 -1.82)"/><rect y="0.48" width="3.62" height="65.39" rx="1.81"/></svg>