<svg id="Layer_1" data-name="Layer 1" xmlns="http://www.w3.org/2000/svg" viewBox="0 0 107.8 91.66"><defs><style>.cls-1{fill:#f4f9fc;}.cls-2{fill:#f07e3a;}.cls-3{stroke:#231f20;stroke-miterlimit:10;stroke-width:0.7px;}</style></defs><path class="cls-1" d="M75.15,117.17,72.28,92.53s1.09-9.25,1.09-9.44.38-3.45.38-3.45S84,74.4,84.6,70.38s2-3.64,2-3.64l39.06-.12s.39,8.29,5.24,10.4a38.48,38.48,0,0,1,6.06,3,70.71,70.71,0,0,1,1.21,7.28c0,1.53-.19,4.47-.12,6.57s-.45,16-1.22,18.58a95.88,95.88,0,0,1-5.68,12.06c-.89,1.4-13,10.21-13.27,10.34s-12.51,8.43-12.51,8.43S87.6,131.47,85.69,129.87s-9.51-9.7-9.83-10.53S75.15,117.17,75.15,117.17Z" transform="translate(-51.19 -54.24)"/><rect class="cls-2" x="40.34" y="42.5" width="29.16" height="8.75"/><path class="cls-3" d="M138.67,97.24h8.87a5.64,5.64,0,1,0,0-2.92h-8.87V87.23h6.58a1.44,1.44,0,0,0,1.19-.61L151,80.25a5.64,5.64,0,1,0-2.38-1.7l-4.13,5.76h-5.83V78.88a1.46,1.46,0,0,0-1.46-1.46,10.77,10.77,0,0,1-6.3-2L139,65.43a5.68,5.68,0,1,0-2.27-1.85l-7.94,9.78a10.75,10.75,0,0,1-2.38-6.75,1.46,1.46,0,0,0-1.46-1.46H85.32a1.46,1.46,0,0,0-1.47,1.46,10.75,10.75,0,0,1-2.38,6.75l-7.93-9.78a5.64,5.64,0,1,0-2.27,1.85l8.07,9.94a10.71,10.71,0,0,1-6.3,2,1.46,1.46,0,0,0-1.46,1.46v5.43H65.75l-4.13-5.76a5.71,5.71,0,1,0-2.38,1.69l4.57,6.38a1.45,1.45,0,0,0,1.19.61h6.58v7.09H62.71a5.65,5.65,0,1,0,0,2.92h8.87v8.25c0,.37,0,.73,0,1.1H64.37a1.47,1.47,0,0,0-1.31.81l-4.66,9.28A5.68,5.68,0,1,0,61,118l4.26-8.49h6.58a30.57,30.57,0,0,0,8.64,17.57L71,135.2a5.68,5.68,0,1,0,1.9,2.22l9.77-8.36c.73.61,1.48,1.19,2.27,1.73L104.3,144a1.46,1.46,0,0,0,1.65,0l19.36-13.21c.79-.54,1.54-1.12,2.27-1.73l9.77,8.36a5.64,5.64,0,1,0,1.9-2.22l-9.49-8.12a30.57,30.57,0,0,0,8.64-17.57H145l4.26,8.49a5.59,5.59,0,1,0,2.61-1.32l-4.66-9.29a1.49,1.49,0,0,0-1.31-.81h-7.24c0-.36,0-.72,0-1.09ZM153,93.06a2.72,2.72,0,1,1-2.72,2.72A2.73,2.73,0,0,1,153,93.06Zm0-20.81A2.72,2.72,0,1,1,150.27,75,2.71,2.71,0,0,1,153,72.25ZM54.55,75a2.71,2.71,0,1,1,2.71,2.71A2.72,2.72,0,0,1,54.55,75ZM57.26,98.5A2.72,2.72,0,1,1,60,95.78a2.71,2.71,0,0,1-2.72,2.72Zm0,26.43A2.72,2.72,0,1,1,60,122.21a2.71,2.71,0,0,1-2.72,2.72Zm98.44-2.72a2.71,2.71,0,1,1-2.71-2.72,2.72,2.72,0,0,1,2.71,2.72ZM141.27,57.56a2.72,2.72,0,1,1-2.71,2.72,2.71,2.71,0,0,1,2.71-2.72Zm-75,2.72a2.72,2.72,0,0,1,4.64-1.93A2.72,2.72,0,0,1,69,63a2.71,2.71,0,0,1-2.72-2.71Zm1.56,82.29a2.72,2.72,0,1,1,2.71-2.72,2.71,2.71,0,0,1-2.71,2.72Zm55.84-14.19L105.12,141,86.59,128.38a27.69,27.69,0,0,1-12.08-22.89V80.27A13.9,13.9,0,0,0,86.7,68.07h36.85a13.9,13.9,0,0,0,12.19,12.2v25.22a27.69,27.69,0,0,1-12.08,22.89Zm21.49,11.47a2.72,2.72,0,1,1-2.72-2.72,2.71,2.71,0,0,1,2.72,2.72Zm0,0" transform="translate(-51.19 -54.24)"/><path class="cls-3" d="M130.31,85.47a1.47,1.47,0,0,0-.87-1.34,19.2,19.2,0,0,1-9.76-9.76,1.49,1.49,0,0,0-1.34-.87H91.91a1.48,1.48,0,0,0-1.34.87,19.25,19.25,0,0,1-9.76,9.77,1.44,1.44,0,0,0-.87,1.33v20a22.26,22.26,0,0,0,9.72,18.4l14.64,10a1.46,1.46,0,0,0,1.65,0l14.64-10a22.27,22.27,0,0,0,9.72-18.39Zm-2.93,20a19.32,19.32,0,0,1-8.44,16l-13.82,9.43-13.81-9.43a19.31,19.31,0,0,1-8.44-16V86.4a22.1,22.1,0,0,0,10-10h24.58a22.17,22.17,0,0,0,10,10Zm0,0" transform="translate(-51.19 -54.24)"/><rect x="40.34" y="42.5" width="2.92" height="2.92"/><rect x="46.18" y="42.5" width="23.32" height="2.92"/><rect x="40.34" y="48.33" width="23.32" height="2.92"/><rect x="66.58" y="48.33" width="2.92" height="2.92"/></svg>