<svg id="Layer_1" data-name="Layer 1" xmlns="http://www.w3.org/2000/svg" viewBox="0 0 91.01 91.01"><defs><style>.cls-1{fill:#f4f9fc;}.cls-2{fill:#f27f39;}.cls-3{stroke:#231f20;stroke-miterlimit:10;stroke-width:0.5px;}</style></defs><rect class="cls-1" x="61.27" y="1.91" width="27.83" height="16.21"/><rect class="cls-1" x="61.27" y="35.32" width="27.83" height="16.21"/><rect class="cls-1" x="61.27" y="29.58" width="27.83" height="16.21"/><rect class="cls-1" x="69.44" y="19.88" width="12.26" height="4.79"/><rect class="cls-1" x="61.27" y="66.7" width="27.83" height="16.21"/><rect class="cls-1" x="69.44" y="84.66" width="12.26" height="4.79"/><path class="cls-1" d="M74.65,84.27s-12.16.87-12.16,0-5.36-3.92-5.08-4.21-.47-8.23-.47-8.23L63.54,69s6.51-7.46,10.06-7.46,5.84-2.68,7-3.83S89.11,53,91.12,54.21a30.2,30.2,0,0,1,5.93,6.22c0,.29,1.73,6.61,1.73,7.28s2.87,2.39,4,3.35A17.6,17.6,0,0,1,106,75.27c0,.29-.86,6-2.59,7s-18.19,1.92-18.19,1.92l-1.82,1.34-.19,10.91.57,1.73L86.9,99l3.45.19s3.16.57,3.93,1.34A14.33,14.33,0,0,0,98,102.37c.29.1,1.92.67,2,2.2s.1,17.33.1,17.33l-.67,7.66a19.73,19.73,0,0,0-2.88,2.3,6.34,6.34,0,0,0-1.14,1.91c0,.39,2,2.21,2.29,2.3s1.92,1.15,2,2-1,4.31-1.34,4.31h-28s-1.91-3.54-1.82-4a8.42,8.42,0,0,1,2.87-2.49c.77-.29,1.92,1.53,1.73-.57a33.1,33.1,0,0,0-1.53-6.42c-.2-.29-4.12-5.17-4.12-8.62s-3.35-12.63-3.64-14.07S61.91,99.69,66,102a15,15,0,0,1,7,9.76c.86,3.45,3.45,2.87,3.54,2.11S77,86.76,77,86,74.65,84.27,74.65,84.27Z" transform="translate(-54.9 -53)"/><path class="cls-2" d="M115.82,98.35h28.05s.67,5.26.39,5.36-8.62,1.05-8.62,1.05l.48,4.22s1.34,2-3.35,1.91-9.67.1-9.77-.29-.19-3.25-.19-3.83V105l-4.79.1L115,102.66Z" transform="translate(-54.9 -53)"/><path class="cls-3" d="M91.65,66.39h2.91a7.31,7.31,0,0,0-7.29-7.3V62a4.39,4.39,0,0,1,4.38,4.38Zm0,0" transform="translate(-54.9 -53)"/><path class="cls-3" d="M141.28,73.69a4.38,4.38,0,0,0,4.38-4.38V57.63a4.39,4.39,0,0,0-4.38-4.38H117.92a4.39,4.39,0,0,0-4.38,4.38V62h-4.38a4.39,4.39,0,0,0-4.38,4.38V70.1A8.69,8.69,0,0,0,100.31,68a13.82,13.82,0,0,0,.09-1.58,13.13,13.13,0,0,0-25.07-5.48,9.92,9.92,0,0,0-2.66-.36,10.17,10.17,0,0,0-9.81,7.37,8.76,8.76,0,0,0,1,17.45H75.59v26.3a4.4,4.4,0,0,1-.45,1.92l-1.22-6.12a9.44,9.44,0,0,0-9.23-7.56,3.7,3.7,0,0,0-3.7,3.7,3.66,3.66,0,0,0,.62,2l1.5,2.25a6.63,6.63,0,0,1,1,2.8l1,8.08a10.09,10.09,0,0,0,1.23,3.72l4.82,9.91V135H68.29v8.76H100.4V135H97.48v-2.43l2.34-3.11a10.28,10.28,0,0,0,2-6.13v-19a4.36,4.36,0,0,0-6-4.06,4.39,4.39,0,0,0-4.21-3.24,4.33,4.33,0,0,0-2.92,1.14,4.37,4.37,0,0,0-2.92-1.14,4.12,4.12,0,0,0-1.46.27V85.37H96v7.3a4.39,4.39,0,0,0,4.38,4.38h4.38v27.74a4.38,4.38,0,0,0,4.38,4.37h4.38v4.38a4.39,4.39,0,0,0,4.38,4.38h4.38v2.92h-2.92v2.92h20.44v-2.92H136.9v-2.92h4.38a4.38,4.38,0,0,0,4.38-4.38V121.87a4.38,4.38,0,0,0-4.38-4.38H117.92a4.39,4.39,0,0,0-4.38,4.38v4.38h-4.38a1.47,1.47,0,0,1-1.46-1.46V97.05h5.84v4.38a4.39,4.39,0,0,0,4.38,4.38h4.38v2.92h-2.92v2.92h20.44v-2.92H136.9v-2.92h4.38a4.39,4.39,0,0,0,4.38-4.38V89.75a4.38,4.38,0,0,0-4.38-4.38H117.92a4.39,4.39,0,0,0-4.38,4.38v4.38H107.7V66.39a1.47,1.47,0,0,1,1.46-1.46h4.38v4.38a4.39,4.39,0,0,0,4.38,4.38h4.38v2.92h-2.92v2.92h20.44V76.61H136.9V73.69ZM134,140.84h-8.76v-2.92H134Zm7.3-5.84H117.92a1.46,1.46,0,0,1-1.46-1.46v-1.46h26.28v1.46a1.46,1.46,0,0,1-1.46,1.46Zm-23.36-14.59h23.36a1.46,1.46,0,0,1,1.46,1.46v7.29H116.46v-7.29a1.46,1.46,0,0,1,1.46-1.46ZM134,108.73h-8.76v-2.92H134Zm7.3-5.84H117.92a1.47,1.47,0,0,1-1.46-1.46V100h26.28v1.46a1.47,1.47,0,0,1-1.46,1.46Zm-23.36-14.6h23.36a1.46,1.46,0,0,1,1.46,1.46v7.3H116.46v-7.3a1.46,1.46,0,0,1,1.46-1.46ZM58.07,76.61a5.84,5.84,0,1,1,11.68,0h2.92a8.76,8.76,0,0,0-6.78-8.52,7.27,7.27,0,0,1,6.78-4.62,7.35,7.35,0,0,1,2.92.61l1.47.65.5-1.53a10.21,10.21,0,0,1,19.92,3.19A9.54,9.54,0,0,1,97.34,68a8.78,8.78,0,0,0-7.15,8.61h2.92a5.84,5.84,0,1,1,5.83,5.84H84.08a4.35,4.35,0,0,0-8.22,0h-12a5.85,5.85,0,0,1-5.84-5.84Zm39.41,64.23H71.21v-2.92H97.48ZM85.81,100a1.46,1.46,0,0,1,1.46,1.46v5.84h2.92v-5.84a1.46,1.46,0,1,1,2.92,0v5.84H96v-2.92a1.46,1.46,0,0,1,2.92,0v19a7.27,7.27,0,0,1-1.46,4.37l-2.92,3.9V135H74.13v-3.25L69,121.14a7.23,7.23,0,0,1-.9-2.71l-1-8.08a9.4,9.4,0,0,0-1.51-4.06L64,104a.75.75,0,0,1-.13-.43.78.78,0,0,1,.78-.78A6.5,6.5,0,0,1,71.05,108l1.88,9.38h3.56l1.25-2.49a7.4,7.4,0,0,0,.77-3.26V83.91a1.46,1.46,0,0,1,2.92,0v23.36h2.92v-5.84A1.46,1.46,0,0,1,85.81,100Zm14.59-5.84a1.47,1.47,0,0,1-1.46-1.46v-7.3a8.72,8.72,0,0,0,5.84-2.25v11Zm17.52-38h23.36a1.47,1.47,0,0,1,1.46,1.46v7.3H116.46v-7.3a1.47,1.47,0,0,1,1.46-1.46Zm-1.46,13.14V67.85h26.28v1.46a1.46,1.46,0,0,1-1.46,1.46H117.92a1.46,1.46,0,0,1-1.46-1.46ZM134,76.61h-8.76V73.69H134Zm0,0" transform="translate(-54.9 -53)"/></svg>