<svg id="Layer_1" data-name="Layer 1" xmlns="http://www.w3.org/2000/svg" viewBox="0 0 65.35 65.35"><defs><style>.cls-1{fill:#f5fafd;}.cls-2{fill:#010101;}.cls-3{fill:#fff;}.cls-4{fill:#f38039;}</style></defs><ellipse class="cls-1" cx="7.57" cy="13.03" rx="5.71" ry="3.32"/><ellipse class="cls-1" cx="7.57" cy="32.56" rx="5.71" ry="3.32"/><ellipse class="cls-1" cx="7.57" cy="52.16" rx="5.71" ry="3.32"/><circle class="cls-1" cx="53.97" cy="52.51" r="10.5"/><rect class="cls-1" x="10.32" y="1.77" width="49.01" height="62.08"/><path class="cls-2" d="M76.77,131a5.23,5.23,0,0,0,3.79,1.65h39a13.19,13.19,0,0,0,13.11-13.24,13,13,0,0,0-3.75-9.16l-.14-.15V72.66a5.34,5.34,0,0,0-5.33-5.34H80.56a5.34,5.34,0,0,0-5.33,5.34v2.57H72.66a5.33,5.33,0,1,0,0,10.66h2.57v8.78H72.66a5.33,5.33,0,1,0,0,10.66h2.57v8.78H72.66a5.33,5.33,0,1,0,0,10.66h2.57v2.44A5.53,5.53,0,0,0,76.77,131Zm53-11.59a10.22,10.22,0,1,1-10.22-10.22A10.3,10.3,0,0,1,129.79,119.44ZM78.12,72.66a2.45,2.45,0,0,1,2.44-2.45h42.9a2.45,2.45,0,0,1,2.44,2.45v35.28l-.72-.34a12.93,12.93,0,0,0-5.61-1.27,13.17,13.17,0,0,0-9.13,22.6l.88.86H80.56a2.57,2.57,0,0,1-2.44-2.58v-2.63l.33-.12a5.33,5.33,0,0,0,0-10l-.33-.11v-9.16l.33-.11a5.33,5.33,0,0,0,0-10.06l-.33-.11V85.71l.33-.12a5.33,5.33,0,0,0,0-10l-.33-.12ZM72.66,83a2.45,2.45,0,1,1,0-4.89h4a2.45,2.45,0,1,1,0,4.89Zm0,19.43a2.44,2.44,0,1,1,0-4.88h4a2.44,2.44,0,1,1,0,4.88Zm0,19.44a2.45,2.45,0,1,1,0-4.89h4a2.45,2.45,0,1,1,0,4.89Z" transform="translate(-67.32 -67.32)"/><path class="cls-2" d="M119.57,83H107.91a1.44,1.44,0,1,0,0,2.88h11.66a1.44,1.44,0,1,0,0-2.88Z" transform="translate(-67.32 -67.32)"/><path class="cls-2" d="M121,100a1.44,1.44,0,0,0-1.44-1.44H107.91a1.44,1.44,0,1,0,0,2.88h11.66A1.44,1.44,0,0,0,121,100Z" transform="translate(-67.32 -67.32)"/><path class="cls-3" d="M119.57,97.56H107.91a2.44,2.44,0,1,0,0,4.88h11.66a2.44,2.44,0,1,0,0-4.88Zm-11.66,3.88a1.44,1.44,0,1,1,0-2.88h11.66a1.44,1.44,0,1,1,0,2.88Z" transform="translate(-67.32 -67.32)"/><path class="cls-2" d="M119.57,114.11a1.44,1.44,0,0,0-1.45,1.44v3.89a1.44,1.44,0,0,0,1.45,1.44h3.89a1.45,1.45,0,0,0,0-2.89H121v-2.44A1.44,1.44,0,0,0,119.57,114.11Z" transform="translate(-67.32 -67.32)"/><path class="cls-2" d="M101.44,80.56a1.45,1.45,0,0,0-.42-1,1.47,1.47,0,0,0-2,0l-6.76,6.75-3.41-3.41a1.44,1.44,0,0,0-2,2l4.43,4.44a1.49,1.49,0,0,0,2,0L101,81.58A1.43,1.43,0,0,0,101.44,80.56Z" transform="translate(-67.32 -67.32)"/><path class="cls-4" d="M101.44,96.11a1.44,1.44,0,0,0-2.46-1l-6.76,6.76-3.41-3.42a1.45,1.45,0,0,0-2,0,1.46,1.46,0,0,0,0,2l4.43,4.43a1.49,1.49,0,0,0,2,0L101,97.13A1.43,1.43,0,0,0,101.44,96.11Z" transform="translate(-67.32 -67.32)"/><path class="cls-2" d="M101.44,111.66a1.46,1.46,0,0,0-.42-1,1.45,1.45,0,0,0-2,0l-6.76,6.76L88.81,114a1.45,1.45,0,0,0-2,0,1.46,1.46,0,0,0,0,2l4.43,4.43a1.47,1.47,0,0,0,2,0l7.78-7.78A1.43,1.43,0,0,0,101.44,111.66Z" transform="translate(-67.32 -67.32)"/></svg>