<svg id="Layer_1" data-name="Layer 1" xmlns="http://www.w3.org/2000/svg" viewBox="0 0 102.17 90.83"><defs><style>.cls-1{fill:#f4f9fc;}.cls-2{fill:#f07e3a;}.cls-3{stroke:#231f20;stroke-miterlimit:10;stroke-width:0.75px;}</style></defs><path class="cls-1" d="M92.09,60.72,52.63,129.07a9.2,9.2,0,0,0,8,13.8h78.93a9.2,9.2,0,0,0,8-13.8L108,60.72A9.2,9.2,0,0,0,92.09,60.72Z" transform="translate(-49.55 -53.07)"/><path class="cls-2" d="M99.77,118.55a28.86,28.86,0,0,1-2.11-2.39c-.09-.29-1.24-28-1.24-28l9.19.48s-1,19-1,19.72-.67,10-.67,10Z" transform="translate(-49.55 -53.07)"/><circle class="cls-2" cx="51.15" cy="76.33" r="4.28"/><path class="cls-3" d="M150.19,130.78,108,57.7a8.5,8.5,0,0,0-14.72,0l-42.2,73.08a8.5,8.5,0,0,0,7.36,12.75h84.4a8.5,8.5,0,0,0,7.36-12.75Zm-2.57,7a5.47,5.47,0,0,1-4.79,2.76H58.43a5.53,5.53,0,0,1-4.78-8.29l42.2-73.09a5.53,5.53,0,0,1,9.57,0l42.2,73.09a5.52,5.52,0,0,1,0,5.53Zm0,0" transform="translate(-49.55 -53.07)"/><path class="cls-3" d="M108.27,77.23a1.49,1.49,0,0,0-2.58,1.48L135.9,131H111.75a1.49,1.49,0,0,0,0,3h26.72a1.48,1.48,0,0,0,1.29-.75,1.45,1.45,0,0,0,0-1.48Zm0,0" transform="translate(-49.55 -53.07)"/><path class="cls-3" d="M89.52,131H65.36l35.27-61.09,1.72,3a1.49,1.49,0,0,0,2.58-1.49l-3-5.21a1.49,1.49,0,0,0-1.29-.74,1.47,1.47,0,0,0-1.28.74L61.5,131.78A1.49,1.49,0,0,0,62.79,134H89.52a1.49,1.49,0,0,0,0-3Zm0,0" transform="translate(-49.55 -53.07)"/><path d="M100.63,123.09a6.25,6.25,0,1,0,6.25,6.25,6.27,6.27,0,0,0-6.25-6.25Zm0,9.53a3.28,3.28,0,1,1,3.28-3.28,3.28,3.28,0,0,1-3.28,3.28Zm0,0" transform="translate(-49.55 -53.07)"/><path d="M97.54,86.58a3.06,3.06,0,0,0-3.07,3.23l1.42,27A3.08,3.08,0,0,0,99,119.72h3.34a3.07,3.07,0,0,0,3.07-2.92l1.42-27a3.06,3.06,0,0,0-3.07-3.23Zm6.28,3.08-1.42,27a.09.09,0,0,1-.1.09H99a.1.1,0,0,1-.1-.09l-1.42-27a.1.1,0,0,1,0-.08.09.09,0,0,1,.07,0h6.18a.11.11,0,0,1,.08,0,.09.09,0,0,1,0,.08Zm0,0" transform="translate(-49.55 -53.07)"/></svg>