<svg id="Layer_1" data-name="Layer 1" xmlns="http://www.w3.org/2000/svg" viewBox="0 0 90.24 90.29"><defs><style>.cls-1{fill:#f4f9fc;}.cls-2{fill:#f27f39;}</style></defs><path class="cls-1" d="M57.2,142.85V126.09l6.8-7.28,9.38-.28,5.17,2.39,2.78,5.27.29,3.44.09,2.21,4.12-.29h1.34l.77-5,3.25-5.46s5-2.2,5.55-2.3,4-1.24,5.37-.86,4.69,1.34,5.36,2a38.24,38.24,0,0,1,3.44,3.55,23.1,23.1,0,0,1,2,4.59v3.16l2-.19,2.68-.58s.76-2.39,1-3.25,1.63-4,2.59-4.79,4.69-2.77,4.69-2.77,6.7-1.15,7-1.15,4.5.09,5.55,1.15,5.17,6,5.17,6l1.15,7.94-.86,10-82.15.58Z" transform="translate(-54.88 -54.86)"/><circle class="cls-1" cx="45.03" cy="29.39" r="29.39"/><circle class="cls-2" cx="45.07" cy="29.68" r="2.25"/><circle class="cls-1" cx="14.39" cy="57.16" r="4.69"/><circle class="cls-1" cx="45.22" cy="57.54" r="4.5"/><circle class="cls-1" cx="75.47" cy="57.54" r="4.69"/><path d="M80.22,66.67a1.76,1.76,0,0,0,1.25-.52l0,0A1.76,1.76,0,1,0,79,63.62l0,0a1.76,1.76,0,0,0,1.25,3Zm0,0" transform="translate(-54.88 -54.86)"/><path d="M120.68,86.3a1.77,1.77,0,0,0,0-3.53h-1.79a1.77,1.77,0,0,0,0,3.53Zm0,0" transform="translate(-54.88 -54.86)"/><path d="M79.32,86.25h1.79a1.76,1.76,0,1,0,0-3.52H79.32a1.76,1.76,0,1,0,0,3.52Zm0,0" transform="translate(-54.88 -54.86)"/><path d="M101.79,65.62V63.83a1.77,1.77,0,0,0-3.53,0v1.79a1.77,1.77,0,1,0,3.53,0Zm0,0" transform="translate(-54.88 -54.86)"/><path d="M92.15,74.17a1.76,1.76,0,1,0-2.49,2.49L95,82A5.65,5.65,0,1,0,105,82l10.79-10.79a1.76,1.76,0,0,0-2.49-2.49L102.55,79.47a5.63,5.63,0,0,0-5.1,0Zm10,10.34A2.13,2.13,0,1,1,100,82.39a2.14,2.14,0,0,1,2.13,2.12Zm0,0" transform="translate(-54.88 -54.86)"/><path d="M136.14,117.32a7.41,7.41,0,1,0-11,0,14.5,14.5,0,0,0-8.94,13h-1.78a14.47,14.47,0,0,0-8.94-13,7.39,7.39,0,0,0,1.88-4.14A29.61,29.61,0,1,0,84.94,59a1.76,1.76,0,1,0,1.79,3,26.09,26.09,0,1,1,20.19,47.63,7.4,7.4,0,0,0-13.79,0,26.09,26.09,0,0,1-15.7-38.26,1.76,1.76,0,1,0-3.05-1.77A29.61,29.61,0,0,0,92.67,113.2a7.38,7.38,0,0,0,1.86,4.12,14.46,14.46,0,0,0-9,13H83.78a14.5,14.5,0,0,0-8.94-13,7.4,7.4,0,1,0-11,0,14.47,14.47,0,0,0-9,13.37v12.69a1.76,1.76,0,0,0,1.76,1.76h86.72a1.76,1.76,0,0,0,1.76-1.76V130.69a14.47,14.47,0,0,0-9-13.37Zm-5.49-8.84a3.88,3.88,0,1,1-3.88,3.88,3.88,3.88,0,0,1,3.88-3.88Zm-1.74,11.43v5.14a1.76,1.76,0,0,0,3.52,0v-5.14a10.94,10.94,0,0,1,9.16,10.43H119.75a10.93,10.93,0,0,1,9.16-10.43ZM100,108.48a3.88,3.88,0,1,1-3.88,3.88,3.88,3.88,0,0,1,3.88-3.88Zm-1.78,11.43v5.14a1.76,1.76,0,1,0,3.52,0v-5.14a10.94,10.94,0,0,1,9.16,10.43H89.08a10.94,10.94,0,0,1,9.16-10.43ZM69.35,108.48a3.88,3.88,0,1,1-3.87,3.88,3.88,3.88,0,0,1,3.87-3.88Zm-1.78,11.43v5.14a1.76,1.76,0,0,0,3.52,0v-5.14a10.93,10.93,0,0,1,9.16,10.43H58.41a10.94,10.94,0,0,1,9.16-10.43Zm74,21.71H58.4v-7.76h83.2Zm0,0" transform="translate(-54.88 -54.86)"/></svg>