<svg id="Layer_1" data-name="Layer 1" xmlns="http://www.w3.org/2000/svg" viewBox="0 0 79.27 89.16"><defs><style>.cls-1{fill:#f5fafd;}.cls-2{fill:#f38039;stroke:#f38039;}.cls-2,.cls-3{stroke-miterlimit:10;}.cls-3{stroke:#231f20;}</style></defs><path class="cls-1" d="M73.17,151.62H89.36l5.51,2.43a22.41,22.41,0,0,0,2.84,1.62c.32,0,3.64-.48,4-.57a23,23,0,0,1,4.18.57c.54.19,0,1,1.56.29s2.18-2.33,3.68-2.52,4.08-.23,4.56-1.18,3.54-3,3.83-3.13a3.37,3.37,0,0,0,1.4-.8,8,8,0,0,0,1.31-2.81c.1-.67,4.66.35,5.2-.61s1.12-1.4,1.09-2.42-.64-1.69-.58-2.49a2.13,2.13,0,0,1,1.79-2.33c1.72-.45.26.45,3.26-.61s3.28,1.09,4.05-2.07-1-4.5-1-4.5l-6.41-12.1-1.41-3.92-3.76-4.92L123.4,92.89s-1.59-9.19-1.81-9.38-4.31-4.21-5.94-6-4.88-4.18-5.46-4.88-4.53-2.52-6-2.81-13.08.42-13.08.42l-25.79.54L62,74.32s.45,5.42.51,7.91-.77,6.58-1,10.09-.62,7.53-.62,8.49S62,124.31,62.06,126s.07,8.39.07,10.82,0,7.85.38,8.93,2.87,3.77,3.51,3.77S73.17,151.62,73.17,151.62Z" transform="translate(-60.37 -68.88)"/><path class="cls-2" d="M113.59,93.11H71.38a1.3,1.3,0,1,0,0,2.59h42.21a1.3,1.3,0,1,0,0-2.59Zm0,0" transform="translate(-60.37 -68.88)"/><path class="cls-3" d="M71.38,86.71H92.49a1.3,1.3,0,0,0,0-2.6H71.38a1.3,1.3,0,0,0,0,2.6Zm0,0" transform="translate(-60.37 -68.88)"/><path class="cls-3" d="M113.59,101.08H71.38a1.3,1.3,0,1,0,0,2.6h42.21a1.3,1.3,0,0,0,0-2.6Zm0,0" transform="translate(-60.37 -68.88)"/><path class="cls-3" d="M81,148.53H67.48a4,4,0,0,1-4-4V76a4,4,0,0,1,4-4h38.93l.37,0v8.09a6.63,6.63,0,0,0,6.61,6.62h8.09a2.22,2.22,0,0,1,0,.37v22.08a1.3,1.3,0,1,0,2.59,0V87.08a5.29,5.29,0,0,0-1.56-3.77L110.17,70.94a5.3,5.3,0,0,0-3.76-1.56H67.48A6.62,6.62,0,0,0,60.87,76v68.51a6.61,6.61,0,0,0,6.61,6.61H81a1.3,1.3,0,1,0,0-2.59Zm38.69-64.42h-6.29a4,4,0,0,1-4-4V73.81Zm0,0" transform="translate(-60.37 -68.88)"/><path class="cls-3" d="M138.74,132.87l-11-18.55a2.84,2.84,0,0,0-3.9-1l-2.67,1.58a5.08,5.08,0,0,0-2.24,5.92,4,4,0,0,1-2.8,0c-2.11-.66-3.71-2-6.36-1.33-4.5,1.15-4.37,1.09-4.77,1.23-2.64-1.5-4.22-2-7-.87l-2.49,1a4,4,0,0,1-3.49-.29l-.68-.4a5.08,5.08,0,0,0-2.42-5.2l-2.68-1.58a2.85,2.85,0,0,0-3.89,1l-11,18.55a2.84,2.84,0,0,0,1,3.9L75,138.35a5,5,0,0,0,2.57.71,5.1,5.1,0,0,0,2.78-.82l.55.33-1.17,1.64a4.34,4.34,0,0,0,1,6.07A4.39,4.39,0,0,0,84,147a4.41,4.41,0,0,0,1.75,2.8,4.34,4.34,0,0,0,3.21.76,4.34,4.34,0,0,0,6,3.26,4.35,4.35,0,0,0,7.39,1.22l3.12,1.85a4.34,4.34,0,0,0,6-1.52,4.25,4.25,0,0,0,.58-1.7h0a4.35,4.35,0,0,0,6-1.52,4.3,4.3,0,0,0,.59-1.9,4.36,4.36,0,0,0,4.81-2,4.21,4.21,0,0,0,.58-1.76,4.35,4.35,0,0,0,5.8-5.13,4.4,4.4,0,0,0-.88-1.72l1.72-1a5.06,5.06,0,0,0,4.51-.33l2.68-1.58a2.85,2.85,0,0,0,1-3.9Zm-62.4,3.25-2.67-1.58a.26.26,0,0,1-.09-.35l11-18.54a.25.25,0,0,1,.34-.09l2.68,1.58a2.47,2.47,0,0,1,.86,3.39l-8.72,14.72a2.47,2.47,0,0,1-3.39.87Zm5.91,8a1.77,1.77,0,0,1-.4-2.45l1.73-2.41a1.77,1.77,0,0,1,2.45-.4,1.75,1.75,0,0,1,.4,2.45l-1.73,2.41a1.77,1.77,0,0,1-2.45.4Zm5,3.56a1.77,1.77,0,0,1-.4-2.45l1.73-2.41h0l1.91-2.66a1.71,1.71,0,0,1,1.14-.7,1.36,1.36,0,0,1,.29,0,1.8,1.8,0,0,1,1,.33,1.77,1.77,0,0,1,.4,2.45l-3.64,5.07a1.76,1.76,0,0,1-2.45.4Zm5,3.56a1.76,1.76,0,0,1-.4-2.45h0l3.64-5.07a1.76,1.76,0,0,1,2.85,2l-1.62,2.25-2,2.82a1.77,1.77,0,0,1-2.45.4Zm5.77,2.43a1.77,1.77,0,0,1-.4-2.45l1.21-1.69a1.76,1.76,0,0,1,2.85,2l-1.21,1.69a1.77,1.77,0,0,1-2.45.4ZM127,143.38a1.76,1.76,0,0,1-2.41.61l-11.48-6.8a1.3,1.3,0,0,0-1.32,2.23l8.68,5.15a1.76,1.76,0,1,1-1.79,3L110,142.44a1.3,1.3,0,1,0-1.32,2.23l6.39,3.79h0a1.76,1.76,0,1,1-1.79,3l-3.43-2h0L107.35,148A1.3,1.3,0,0,0,106,150.2l2.5,1.48h0a1.76,1.76,0,0,1-1.79,3L103.82,153a4.35,4.35,0,0,0-2.92-6.65,4.34,4.34,0,0,0-1.53-5,4.27,4.27,0,0,0-3.21-.76,4.35,4.35,0,0,0-7.38-2.33,4.15,4.15,0,0,0-1.24-1.37,4.35,4.35,0,0,0-4.8-.18l-.6-.35,8.16-13.77.39.23a6.54,6.54,0,0,0,5.74.48l2.5-1a3.84,3.84,0,0,1,3.62.08,5.83,5.83,0,0,0-1.47,3.87V132a2.77,2.77,0,0,0,2.77,2.77h0a5.76,5.76,0,0,0,5.43-3.88L126.39,141a1.76,1.76,0,0,1,.62,2.41Zm9.41-8.84-2.68,1.58a2.47,2.47,0,0,1-3.39-.87l-4.09-6.9a1.3,1.3,0,0,0-2.23,1.33l4.09,6.9c.08.12.16.25.25.37l-1.14.66a7.66,7.66,0,0,0-.66.45L109,127.63a1.3,1.3,0,0,0-2,1.11,3.28,3.28,0,0,1-.92,2.47,3.12,3.12,0,0,1-2.22.92h0a.18.18,0,0,1-.18-.18V126.2a3.25,3.25,0,0,1,2.43-3.13l4.31-1.08c1.56-.4,2.45.43,4.79,1.23a6.55,6.55,0,0,0,5-.08l.78,1.32a1.3,1.3,0,0,0,2.23-1.32l-1.54-2.61a2.47,2.47,0,0,1,.87-3.39l2.67-1.58a.24.24,0,0,1,.34.09l11,18.54a.26.26,0,0,1-.08.35Zm0,0" transform="translate(-60.37 -68.88)"/></svg>