<svg id="Layer_1" data-name="Layer 1" xmlns="http://www.w3.org/2000/svg" viewBox="0 0 86.58 90.13"><defs><style>.cls-1{fill:#f4f9fc;}.cls-2{fill:none;}.cls-3{fill:#f27f39;}</style></defs><rect class="cls-1" x="4.5" y="2.39" width="45.19" height="83.62"/><rect class="cls-1" x="43.89" y="23.44" width="41.71" height="43.26"/><path class="cls-2" d="M80,50.71H78.89l-6.4,10.66H53.19l-.07-.12L46.79,50.71H45.64a3.87,3.87,0,0,0-3.87,3.87V66.2H83.91V54.58A3.87,3.87,0,0,0,80,50.71Z" transform="translate(-36.43 -45.38)"/><polygon class="cls-2" points="32.75 10.16 35.65 5.33 17.16 5.33 20.06 10.16 32.75 10.16"/><rect class="cls-3" x="21.33" y="74.64" width="10.16" height="4.83"/><polygon points="41.4 32.58 22.55 51.43 15.01 43.89 11.6 47.3 22.55 58.26 44.82 35.99 41.4 32.58"/><path d="M89.25,54.58A9.22,9.22,0,0,0,80,45.38H45.64a9.22,9.22,0,0,0-9.21,9.2v71.73a9.22,9.22,0,0,0,9.21,9.2H80a9.22,9.22,0,0,0,9.21-9.2V114.19H123V66.71H89.25ZM73,50.21,69.47,56H56.21l-3.5-5.83ZM41.26,54.58a4.38,4.38,0,0,1,4.38-4.37h1.44l.07.12,6.33,10.54H72.2l6.4-10.66H80a4.38,4.38,0,0,1,4.38,4.37V66.71H41.26Zm43.16,71.73A4.39,4.39,0,0,1,80,130.69H45.64a4.39,4.39,0,0,1-4.38-4.38V114.19H84.42Zm33.77-54.78v37.83H41.26V71.53Z" transform="translate(-36.43 -45.38)"/><rect x="52.43" y="31.99" width="10.16" height="4.83"/><rect x="52.43" y="42.65" width="15.49" height="4.83"/><rect x="52.43" y="53.32" width="23.49" height="4.83"/></svg>