<svg id="Layer_1" data-name="Layer 1" xmlns="http://www.w3.org/2000/svg" viewBox="0 0 70.57 61.5"><defs><style>.cls-1{fill:#f5f9fc;}.cls-2{fill:none;}.cls-3{fill:#f38039;}.cls-4{font-size:19.66px;font-family:Harabara;}</style></defs><rect class="cls-1" x="3.3" y="1.99" width="64.33" height="56.78"/><path class="cls-2" d="M66.32,8.42H9a2.45,2.45,0,0,0-2.45,2.45v9.22H68.77V10.87A2.45,2.45,0,0,0,66.32,8.42Z" transform="translate(-2.38 -4.24)"/><path class="cls-2" d="M9,61.57H66.32a2.45,2.45,0,0,0,2.45-2.45V24.86H6.55V59.12A2.45,2.45,0,0,0,9,61.57Z" transform="translate(-2.38 -4.24)"/><path class="cls-3" d="M12.55,16.48a2.1,2.1,0,1,0-2.1-2.1A2.1,2.1,0,0,0,12.55,16.48Z" transform="translate(-2.38 -4.24)"/><path class="cls-3" d="M21.08,16.48a2.1,2.1,0,1,0-2.1-2.1A2.1,2.1,0,0,0,21.08,16.48Z" transform="translate(-2.38 -4.24)"/><path class="cls-3" d="M30,16.48a2.1,2.1,0,1,0-2.1-2.1A2.1,2.1,0,0,0,30,16.48Z" transform="translate(-2.38 -4.24)"/><path d="M66.32,4.24H9a6.64,6.64,0,0,0-6.62,6.63V59.12A6.64,6.64,0,0,0,9,65.75H66.32a6.64,6.64,0,0,0,6.62-6.63V10.87A6.64,6.64,0,0,0,66.32,4.24Zm3.05,54.88a3,3,0,0,1-3.05,3.05H9a3,3,0,0,1-3-3.05V24.26H69.37Zm0-38.43H6V10.87A3,3,0,0,1,9,7.82H66.32a3,3,0,0,1,3.05,3Z" transform="translate(-2.38 -4.24)"/><text class="cls-4" transform="translate(13.84 44.01)">www</text></svg>